<svg xmlns="http://www.w3.org/2000/svg" xmlns:xlink="http://www.w3.org/1999/xlink" width="24" height="24" viewBox="0 0 24 24">
  <defs>
    <clipPath id="clip-path">
      <rect id="Rectangle_1414" data-name="Rectangle 1414" width="24" height="24" transform="translate(1449 229)" fill="red"/>
    </clipPath>
  </defs>
  <g id="hana-db" transform="translate(-1449 -229)" clip-path="url(#clip-path)">
    <g id="Group_6345" data-name="Group 6345" transform="translate(1337.07 139.55)">
      <path id="Path_13066" data-name="Path 13066" d="M232.511,143.763v.142c0,1.369,0,2.738,0,4.108a.743.743,0,0,1-.221.542,2.969,2.969,0,0,1-1.125.661,12.484,12.484,0,0,1-2.521.625,26.839,26.839,0,0,1-3.566.306,27.548,27.548,0,0,1-6-.444,8.56,8.56,0,0,1-2.172-.671,3.808,3.808,0,0,1-.628-.406.758.758,0,0,1-.3-.643c.008-1.347,0-2.694,0-4.04v-.156c.022,0,.033-.006.038,0a6.475,6.475,0,0,0,2.278.945,17.081,17.081,0,0,0,2.912.464c1.021.073,2.044.144,3.067.148a25.853,25.853,0,0,0,5.506-.521,8.242,8.242,0,0,0,2.217-.749C232.174,143.981,232.33,143.874,232.511,143.763Z" transform="translate(-98.067 -50.732)"/>
      <path id="Path_13067" data-name="Path 13067" d="M216.253,259.784v-3.177c.2.117.379.237.572.336a9.312,9.312,0,0,0,2.514.784,26.231,26.231,0,0,0,3.771.413,30.589,30.589,0,0,0,5.222-.2,13.209,13.209,0,0,0,3.349-.773c.37-.15.718-.353,1.078-.533,0,.016,0,.062,0,.109,0,1.351,0,2.7,0,4.053a.845.845,0,0,1-.312.68,3.12,3.12,0,0,1-.915.524,12.2,12.2,0,0,1-2.778.693,30.029,30.029,0,0,1-6.436.223c-.3-.02-.6-.053-.9-.074a.186.186,0,0,1-.163-.111,5.723,5.723,0,0,0-4.077-2.862c-.263-.048-.533-.052-.8-.076C216.346,259.787,216.3,259.787,216.253,259.784Z" transform="translate(-98.32 -158.112)"/>
      <path id="Path_13068" data-name="Path 13068" d="M321.2,374.748a5.8,5.8,0,0,0,.3-4.779l.655.046a31.188,31.188,0,0,0,4.8-.027,21.065,21.065,0,0,0,3.4-.52,6.779,6.779,0,0,0,2.038-.8c.074-.047.145-.1.237-.16v.164c0,1.355,0,2.711,0,4.067a.733.733,0,0,1-.281.623,4.1,4.1,0,0,1-.721.458,9.786,9.786,0,0,1-2.455.7A26.514,26.514,0,0,1,325,374.9a31.5,31.5,0,0,1-3.644-.135C321.313,374.763,321.27,374.757,321.2,374.748Z" transform="translate(-198.188 -264.594)"/>
      <path id="Path_13069" data-name="Path 13069" d="M230.139,90.454a25.474,25.474,0,0,1,4.133.253,11.827,11.827,0,0,1,2.831.7,3.762,3.762,0,0,1,.779.438c.307.225.3.471.013.722a3.152,3.152,0,0,1-1.066.552,14.321,14.321,0,0,1-2.943.643,29.885,29.885,0,0,1-4.834.206,22.155,22.155,0,0,1-4.782-.607,6.184,6.184,0,0,1-1.506-.554,2.03,2.03,0,0,1-.429-.317.348.348,0,0,1,.009-.571,2.642,2.642,0,0,1,.587-.392,9.562,9.562,0,0,1,2.466-.715,23.782,23.782,0,0,1,3.6-.356C229.379,90.445,229.759,90.454,230.139,90.454Z" transform="translate(-103.97)"/>
      <path id="Path_13070" data-name="Path 13070" d="M193.423,417.5a1.213,1.213,0,1,1-1.208-1.215A1.216,1.216,0,0,1,193.423,417.5Z" transform="translate(-74.286 -310.056)"/>
      <path id="Path_13071" data-name="Path 13071" d="M121.7,342.829a1.219,1.219,0,0,1,1.22-1.219h.013a5.119,5.119,0,0,0-.6-1.446,1.219,1.219,0,1,1-1.72-1.728,5.118,5.118,0,0,0-1.5-.618c0,.016,0,.032,0,.048a1.22,1.22,0,0,1-2.439,0c0-.01,0-.021,0-.031a5.119,5.119,0,0,0-1.43.6,1.219,1.219,0,0,1-1.72,1.726,5.118,5.118,0,0,0-.6,1.448,1.219,1.219,0,0,1,0,2.437,5.115,5.115,0,0,0,.6,1.449,1.219,1.219,0,0,1,1.72,1.726,5.118,5.118,0,0,0,1.419.6,1.219,1.219,0,0,1,2.437.022,5.116,5.116,0,0,0,1.475-.6,1.219,1.219,0,1,1,1.734-1.714,5.118,5.118,0,0,0,.619-1.481h-.013A1.22,1.22,0,0,1,121.7,342.829Zm-3.77,1.9a1.9,1.9,0,1,1,1.9-1.9A1.9,1.9,0,0,1,117.933,344.729Z" transform="translate(0 -235.392)" fill="#f1ab1c"/>
    </g>
  </g>
</svg>
