<svg xmlns="http://www.w3.org/2000/svg" xmlns:xlink="http://www.w3.org/1999/xlink" width="24" height="24" viewBox="0 0 24 24">
  <defs>
    <clipPath id="clip-path">
      <rect id="Rectangle_1406" data-name="Rectangle 1406" width="24" height="24" transform="translate(1449 230)" fill="red"/>
    </clipPath>
    <clipPath id="clip-path-2">
      <rect id="Rectangle_1419" data-name="Rectangle 1419" width="24" height="24" rx="12" transform="translate(0 0)" fill="none"/>
    </clipPath>
  </defs>
  <g id="ibm-db" transform="translate(-1449 -230)" clip-path="url(#clip-path)">
    <g id="Group_6338" data-name="Group 6338" transform="translate(1223.09 160.335)">
      <g id="Group_6344" data-name="Group 6344" transform="translate(225.91 69.665)" clip-path="url(#clip-path-2)">
        <g id="Group_6343" data-name="Group 6343" transform="translate(0.058 -2.221)">
          <g id="Group_6340" data-name="Group 6340" transform="translate(0.01 0)">
            <g id="Group_6338-2" data-name="Group 6338">
              <path id="Path_13024" data-name="Path 13024" d="M227.158,43.564h23.864V28.8H227.158Z" transform="translate(-227.158 -28.802)" fill="#1b1918" fill-rule="evenodd"/>
            </g>
            <g id="Group_6339" data-name="Group 6339" transform="translate(2.847 6.301)">
              <path id="Path_13025" data-name="Path 13025" d="M450.366,144.749h2.579l.169.48h-2.747s0-.48,0-.48Z" transform="translate(-441.083 -144.749)" fill="#fff" fill-rule="evenodd"/>
              <path id="Path_13026" data-name="Path 13026" d="M350.632,144.753a1.854,1.854,0,0,1,1.109.48h-4.675v-.48Z" transform="translate(-343.398 -144.753)" fill="#fff" fill-rule="evenodd"/>
              <path id="Path_13027" data-name="Path 13027" d="M279.556,145.232H282.8v-.479h-3.248Z" transform="translate(-279.556 -144.753)" fill="#fff" fill-rule="evenodd"/>
              <path id="Path_13028" data-name="Path 13028" d="M532.757,161.81h-3.1s.169-.477.168-.477h2.928Z" transform="translate(-516.069 -160.432)" fill="#fff" fill-rule="evenodd"/>
              <path id="Path_13029" data-name="Path 13029" d="M453.433,161.81h-3.067v-.477h2.9Z" transform="translate(-441.083 -160.432)" fill="#fff" fill-rule="evenodd"/>
              <path id="Path_13030" data-name="Path 13030" d="M352.121,161.329a1.237,1.237,0,0,1,.135.477h-5.172v-.477Z" transform="translate(-343.413 -160.428)" fill="#fff" fill-rule="evenodd"/>
              <path id="Path_13031" data-name="Path 13031" d="M279.556,161.806H282.8v-.477h-3.248Z" transform="translate(-279.556 -160.428)" fill="#fff" fill-rule="evenodd"/>
              <path id="Path_13032" data-name="Path 13032" d="M523.833,178.352l.17-.479h2.325v.477Z" transform="translate(-510.558 -176.073)" fill="#fff" fill-rule="evenodd"/>
              <path id="Path_13033" data-name="Path 13033" d="M469.5,177.869l.169.479H467.2v-.479Z" transform="translate(-457.001 -176.069)" fill="#fff" fill-rule="evenodd"/>
              <path id="Path_13034" data-name="Path 13034" d="M417.185,177.869a1.561,1.561,0,0,1-.068.479H415.7v-.479Z" transform="translate(-408.301 -176.069)" fill="#fff" fill-rule="evenodd"/>
              <path id="Path_13035" data-name="Path 13035" d="M296.215,178.387h1.4v-.477h-1.4Z" transform="translate(-295.309 -176.108)" fill="#fff" fill-rule="evenodd"/>
              <path id="Path_13036" data-name="Path 13036" d="M364.371,178.348h1.393v-.479h-1.393Z" transform="translate(-359.762 -176.069)" fill="#fff" fill-rule="evenodd"/>
              <path id="Path_13037" data-name="Path 13037" d="M468.571,194.221s0,.363,0,.363H467.2v-.477h2.616l.162.444s.156-.445.157-.445h2.636v.477H471.4v-.363l-.127.363H468.7Z" transform="translate(-457.001 -191.426)" fill="#fff" fill-rule="evenodd"/>
              <path id="Path_13038" data-name="Path 13038" d="M364.371,194.108h4a1.8,1.8,0,0,1-.4.477h-3.6Z" transform="translate(-359.762 -191.426)" fill="#fff" fill-rule="evenodd"/>
              <path id="Path_13039" data-name="Path 13039" d="M296.215,194.585h1.4v-.477h-1.4Z" transform="translate(-295.309 -191.426)" fill="#fff" fill-rule="evenodd"/>
              <path id="Path_13040" data-name="Path 13040" d="M544.588,211.124h1.366v-.477h-1.366Z" transform="translate(-530.185 -207.066)" fill="#fff" fill-rule="evenodd"/>
              <path id="Path_13041" data-name="Path 13041" d="M468.571,210.647H467.2v.477h1.373S468.572,210.647,468.571,210.647Z" transform="translate(-457.001 -207.066)" fill="#fff" fill-rule="evenodd"/>
              <path id="Path_13042" data-name="Path 13042" d="M499.774,210.647c-.006,0-.16.476-.167.477h-1.946s-.171-.478-.171-.477Z" transform="translate(-485.648 -207.066)" fill="#fff" fill-rule="evenodd"/>
              <path id="Path_13043" data-name="Path 13043" d="M364.367,210.643h3.6a2.362,2.362,0,0,1,.429.477h-4.025Z" transform="translate(-359.758 -207.062)" fill="#fff" fill-rule="evenodd"/>
              <path id="Path_13044" data-name="Path 13044" d="M297.649,211.12v-.477h-1.393s0,.477,0,.477Z" transform="translate(-295.348 -207.062)" fill="#fff" fill-rule="evenodd"/>
              <path id="Path_13045" data-name="Path 13045" d="M544.588,227.659h1.366v-.477h-1.366Z" transform="translate(-530.185 -222.702)" fill="#fff" fill-rule="evenodd"/>
              <path id="Path_13046" data-name="Path 13046" d="M467.193,227.659h1.373v-.477h-1.373Z" transform="translate(-456.996 -222.702)" fill="#fff" fill-rule="evenodd"/>
              <path id="Path_13047" data-name="Path 13047" d="M504.761,227.661s.169-.479.171-.479h-1.654s.17.477.17.477S504.761,227.663,504.761,227.661Z" transform="translate(-491.12 -222.702)" fill="#fff" fill-rule="evenodd"/>
              <path id="Path_13048" data-name="Path 13048" d="M364.369,227.659s0-.477,0-.477h1.414s0,.477,0,.477Z" transform="translate(-359.76 -222.702)" fill="#fff" fill-rule="evenodd"/>
              <path id="Path_13049" data-name="Path 13049" d="M417.571,227.182a1.384,1.384,0,0,1,.089.479h-1.5v-.479Z" transform="translate(-408.737 -222.702)" fill="#fff" fill-rule="evenodd"/>
              <path id="Path_13050" data-name="Path 13050" d="M296.256,227.659h1.393v-.477h-1.393Z" transform="translate(-295.348 -222.702)" fill="#fff" fill-rule="evenodd"/>
              <path id="Path_13051" data-name="Path 13051" d="M544.588,243.857h2.285v-.477h-2.285Z" transform="translate(-530.185 -238.02)" fill="#fff" fill-rule="evenodd"/>
              <path id="Path_13052" data-name="Path 13052" d="M450.366,243.857h2.287v-.477h-2.287Z" transform="translate(-441.083 -238.02)" fill="#fff" fill-rule="evenodd"/>
              <path id="Path_13053" data-name="Path 13053" d="M509.861,243.857h-.7L509,243.38h1.026Z" transform="translate(-496.527 -238.02)" fill="#fff" fill-rule="evenodd"/>
              <path id="Path_13054" data-name="Path 13054" d="M279.552,243.38v.477H282.8s0-.476,0-.476Z" transform="translate(-279.552 -238.02)" fill="#fff" fill-rule="evenodd"/>
              <path id="Path_13055" data-name="Path 13055" d="M352.272,243.38a1.024,1.024,0,0,1-.18.477h-5.013v-.477Z" transform="translate(-343.409 -238.02)" fill="#fff" fill-rule="evenodd"/>
              <path id="Path_13056" data-name="Path 13056" d="M515.138,260.393h-.064l-.163-.478h.395Z" transform="translate(-502.121 -253.657)" fill="#fff" fill-rule="evenodd"/>
              <path id="Path_13057" data-name="Path 13057" d="M544.588,260.394h2.285v-.479h-2.285Z" transform="translate(-530.185 -253.657)" fill="#fff" fill-rule="evenodd"/>
              <path id="Path_13058" data-name="Path 13058" d="M347.067,260.408v-.477h4.7a1.782,1.782,0,0,1-1.212.477h-3.49Z" transform="translate(-343.398 -253.672)" fill="#fff" fill-rule="evenodd"/>
              <path id="Path_13059" data-name="Path 13059" d="M450.366,260.394h2.287v-.479h-2.287Z" transform="translate(-441.083 -253.657)" fill="#fff" fill-rule="evenodd"/>
              <path id="Path_13060" data-name="Path 13060" d="M282.795,259.932s0,.476,0,.476-3.244,0-3.246,0,0-.478,0-.478S282.793,259.934,282.795,259.932Z" transform="translate(-279.549 -253.672)" fill="#fff" fill-rule="evenodd"/>
              <path id="Path_13061" data-name="Path 13061" d="M538.3,145.236h-2.778l.171-.479H538.3Z" transform="translate(-521.612 -144.757)" fill="#fff" fill-rule="evenodd"/>
              <path id="Path_13062" data-name="Path 13062" d="M592.063,250.919a.534.534,0,0,1,.257.068.477.477,0,0,1,.2.193.525.525,0,0,1,0,.522.484.484,0,0,1-.193.194.524.524,0,0,1-.52,0,.487.487,0,0,1-.194-.194.522.522,0,0,1,0-.522.481.481,0,0,1,.2-.193A.534.534,0,0,1,592.063,250.919Zm0,.087a.446.446,0,0,0-.215.057.4.4,0,0,0-.163.161.434.434,0,0,0,0,.435.41.41,0,0,0,.162.162.436.436,0,0,0,.434,0,.408.408,0,0,0,.161-.162.439.439,0,0,0,.057-.216.444.444,0,0,0-.059-.219.4.4,0,0,0-.163-.161A.447.447,0,0,0,592.063,251.006Zm-.23.725v-.562h.193a.467.467,0,0,1,.144.016.138.138,0,0,1,.071.054.143.143,0,0,1,.026.082.148.148,0,0,1-.044.107.174.174,0,0,1-.117.051.151.151,0,0,1,.048.03.618.618,0,0,1,.083.111l.068.11h-.11l-.05-.088a.451.451,0,0,0-.1-.131.116.116,0,0,0-.073-.019h-.053v.238Zm.091-.316h.11a.177.177,0,0,0,.108-.023.08.08,0,0,0,.015-.106.08.08,0,0,0-.038-.029.287.287,0,0,0-.091-.01h-.1Z" transform="translate(-574.586 -245.15)" fill="#fff" fill-rule="evenodd"/>
            </g>
          </g>
          <g id="Group_6342" data-name="Group 6342" transform="translate(0 14.762)">
            <path id="Path_13063" data-name="Path 13063" d="M226.973,316.249h23.864V301.43H226.973Z" transform="translate(-226.973 -301.43)" fill="#09af05" fill-rule="evenodd"/>
            <g id="Group_6341" data-name="Group 6341" transform="translate(3.48 1.116)">
              <path id="Path_13064" data-name="Path 13064" d="M291.007,328.6v-6.588h1.822q3.486,0,3.488,3.212a3.237,3.237,0,0,1-.969,2.451,3.6,3.6,0,0,1-2.593.925Zm.773-5.89V327.9h.985a2.8,2.8,0,0,0,2.02-.695,2.6,2.6,0,0,0,.722-1.967q0-2.531-2.7-2.531Zm5.834,5.89v-6.588h1.877a2.056,2.056,0,0,1,1.357.417,1.354,1.354,0,0,1,.5,1.09,1.6,1.6,0,0,1-.3.974,1.63,1.63,0,0,1-.837.588v.019a1.686,1.686,0,0,1,1.068.5,1.549,1.549,0,0,1,.4,1.106,1.723,1.723,0,0,1-.608,1.369,2.262,2.262,0,0,1-1.533.524Zm.773-5.89v2.128h.792a1.508,1.508,0,0,0,1-.306,1.065,1.065,0,0,0,.363-.863q0-.96-1.266-.96Zm0,2.821V327.9h1.049a1.578,1.578,0,0,0,1.055-.321,1.1,1.1,0,0,0,.375-.883q0-1.167-1.593-1.167Zm8.181,3.069h-3.977v-.671l1.924-1.924a8.037,8.037,0,0,0,1.051-1.225,1.9,1.9,0,0,0,.316-1.046,1.161,1.161,0,0,0-.327-.881,1.292,1.292,0,0,0-.93-.312,2.472,2.472,0,0,0-1.693.753v-.79a2.843,2.843,0,0,1,1.8-.6,1.941,1.941,0,0,1,1.388.478,1.68,1.68,0,0,1,.507,1.283,2.45,2.45,0,0,1-.35,1.237,7.859,7.859,0,0,1-1.256,1.5l-1.523,1.5v.017h3.07Z" transform="translate(-291.007 -321.901)" fill="#fff" fill-rule="evenodd"/>
              <path id="Path_13065" data-name="Path 13065" d="M583.283,435.434a.537.537,0,0,1,.258.068.48.48,0,0,1,.2.194.535.535,0,0,1,.07.263.53.53,0,0,1-.069.261.486.486,0,0,1-.194.194.528.528,0,0,1-.523,0,.488.488,0,0,1-.195-.194.524.524,0,0,1,0-.524.487.487,0,0,1,.2-.194A.538.538,0,0,1,583.283,435.434Zm0,.087a.45.45,0,0,0-.216.057.4.4,0,0,0-.164.162.435.435,0,0,0,0,.437.413.413,0,0,0,.163.162.438.438,0,0,0,.436,0,.411.411,0,0,0,.162-.162.438.438,0,0,0,0-.437.4.4,0,0,0-.164-.162A.449.449,0,0,0,583.283,435.521Zm-.231.727v-.564h.194a.473.473,0,0,1,.144.016.14.14,0,0,1,.071.055.145.145,0,0,1,.026.083.149.149,0,0,1-.044.107.175.175,0,0,1-.118.052.149.149,0,0,1,.048.03.643.643,0,0,1,.084.112l.069.11h-.111l-.05-.089a.452.452,0,0,0-.1-.131.116.116,0,0,0-.073-.019h-.054v.239Zm.091-.317h.111a.179.179,0,0,0,.108-.024.08.08,0,0,0,.015-.107.084.084,0,0,0-.039-.029.3.3,0,0,0-.092-.01h-.1Z" transform="translate(-566.903 -429.242)" fill="#fff" fill-rule="evenodd"/>
            </g>
          </g>
        </g>
      </g>
    </g>
  </g>
</svg>
