<svg xmlns="http://www.w3.org/2000/svg" xmlns:xlink="http://www.w3.org/1999/xlink" width="24" height="24" viewBox="0 0 24 24">
  <defs>
    <clipPath id="clip-path">
      <rect id="Rectangle_1408" data-name="Rectangle 1408" width="24" height="24" transform="translate(1449 229)" fill="red"/>
    </clipPath>
  </defs>
  <g id="maria-db" transform="translate(-1449 -229)" clip-path="url(#clip-path)">
    <path id="Path_13022" data-name="Path 13022" d="M17.984,1.274a.736.736,0,0,0-.8.579.6.6,0,0,0,.423.137.576.576,0,0,0,.579-.709,1.8,1.8,0,0,0-.2-.006M20.29,0h-.04c-.319.01-.369.183-1.058.353a11.474,11.474,0,0,0-2.119.321C14.834,1.614,14.357,4.853,12.321,6A20.989,20.989,0,0,1,7.95,7.676,6.984,6.984,0,0,0,5.322,8.995c-.638.55-.813.977-1.477,1.667s-2.763-.54-3.779.368a.2.2,0,0,0,0,.3,3.828,3.828,0,0,0,1.037.793c-.126.239-.84.944-.694,1.3.153.371,1.923.119,3.559-.869a5.978,5.978,0,0,1,2.555-1.281,19.7,19.7,0,0,1,5.082.387,7.986,7.986,0,0,1-1.217,1.937c-.132.142.264.157.714.072a7.142,7.142,0,0,0,2.009-.717c.752-.438.866-1.559,1.787-1.8a2.03,2.03,0,0,0,2.409.55c.047-.02.094-.042.139-.066.1-.09.043-.194-.021-.271q-.045-.042-.087-.087a2.8,2.8,0,0,1-.378-2.331c.243-.675.484-1.756.728-2.649a14.609,14.609,0,0,1,.678-2.656,6.284,6.284,0,0,1,1.467-1.4A2.058,2.058,0,0,0,20.7.468C20.7.176,20.554.007,20.29,0m.049,1a1.991,1.991,0,0,1-1.006,1.36A4.174,4.174,0,0,0,18.12,3.426a38.4,38.4,0,0,0-.995,3.791,5.844,5.844,0,0,1-2.025,3.36.111.111,0,0,1-.168-.072c-.072-.381-.057-1.076-.176-.851a9.037,9.037,0,0,1-.512,1.2,4.316,4.316,0,0,1-2.883,2.38.127.127,0,0,1-.132-.2,5.867,5.867,0,0,0,1.3-3.351A.132.132,0,0,0,12.3,9.6c-.307.379-.383,1.279-.832,1.556a6.373,6.373,0,0,1-1.069.017c-1.476-.088-2.99-.532-4.37-.089A30.04,30.04,0,0,0,3.3,12.59a5.021,5.021,0,0,1-2.56.76c-.121-.163.493-.866.7-1.17.066-.1-.076-.2-.209-.263-.32-.147-.641-.545-.982-.7A.842.842,0,0,1,.536,11c.775-.45,2.83.508,3.382-.034A5.986,5.986,0,0,0,4.72,10a4.905,4.905,0,0,1,.92-.968q.225-.18.464-.343a6.374,6.374,0,0,1,1.715-.733c.993-.369,2.222-.693,3.288-1.1a8.182,8.182,0,0,0,1.957-1,3.908,3.908,0,0,0,.391-.331c1.665-1.626,2-4.488,4.592-4.755.314-.032.538-.046.772-.053a1.913,1.913,0,0,0,.78-.2c.08-.035.556-.323.716-.184.107.093.028.6.021.65" transform="translate(1450.715 234.149)" fill="#444b5e"/>
  </g>
</svg>
