<svg xmlns="http://www.w3.org/2000/svg" xmlns:xlink="http://www.w3.org/1999/xlink" width="24" height="24" viewBox="0 0 24 24">
  <defs>
    <clipPath id="clip-path">
      <rect id="Rectangle_1404" data-name="Rectangle 1404" width="24" height="24" transform="translate(1449 229)" fill="red"/>
    </clipPath>
  </defs>
  <g id="postgre-db" transform="translate(-1449 -229)" clip-path="url(#clip-path)">
    <g id="postgresql-icon" transform="translate(1450.51 230.961)">
      <path id="Path_12958" data-name="Path 12958" d="M15.187,14.821c.128-1.062.089-1.217.88-1.046l.2.018a4.645,4.645,0,0,0,1.879-.315c1.006-.467,1.6-1.246.611-1.041-2.262.467-2.427-.3-2.427-.3,2.39-3.546,3.389-8.047,2.526-9.148-2.351-3.006-6.423-1.584-6.491-1.547l-.022,0a7.8,7.8,0,0,0-1.511-.157,3.739,3.739,0,0,0-2.391.715S1.18-.986,1.518,5.768c.072,1.437,2.059,10.881,4.431,8.024.868-1.044,1.706-1.926,1.706-1.926a2.194,2.194,0,0,0,1.436.366L9.13,12.2a1.573,1.573,0,0,0,.016.405c-.611.683-.431.8-1.652,1.054s-.509.708-.036.827a2.51,2.51,0,0,0,2.8-.91l-.036.143c.24.192.223,1.378.258,2.225a8.044,8.044,0,0,0,.264,2.1c.173.466.376,1.667,1.98,1.331,1.341-.287,2.366-.7,2.46-4.548" transform="translate(-0.004 -0.008)" stroke="#000" stroke-width="2.149"/>
      <path id="Path_12959" data-name="Path 12959" d="M18.749,12.447c-2.262.467-2.427-.3-2.427-.3C18.712,8.6,19.711,4.1,18.849,3,16.5-.007,12.426,1.415,12.358,1.452l-.022,0a8.071,8.071,0,0,0-1.51-.157,3.739,3.739,0,0,0-2.391.715S1.173-.978,1.511,5.777C1.583,7.214,3.57,16.658,5.941,13.8c.874-1.051,1.711-1.933,1.711-1.933a2.194,2.194,0,0,0,1.436.366l.041-.034a1.581,1.581,0,0,0,.016.405c-.611.683-.431.8-1.652,1.054s-.509.708-.036.827a2.51,2.51,0,0,0,2.8-.91l-.036.143a4.079,4.079,0,0,1,.379,2.2,6.088,6.088,0,0,0,.141,2.126c.188.514.376,1.667,1.98,1.331A2.369,2.369,0,0,0,14.857,17.1c.069-.883.224-.753.235-1.542l.125-.374c.143-1.2.023-1.584.849-1.4l.2.018a4.581,4.581,0,0,0,1.871-.315c1.006-.467,1.6-1.246.611-1.041Z" transform="translate(-0.002 -0.01)" fill="#336791"/>
      <g id="Group_6327" data-name="Group 6327" transform="translate(1.489 1.039)">
        <g id="Group_6325" data-name="Group 6325">
          <path id="Path_12960" data-name="Path 12960" d="M10.354,13.116a22,22,0,0,0,.233,5.01,1.8,1.8,0,0,0,2.29,1.262,2.2,2.2,0,0,0,2.041-2.072l.5-3.927M8.43,1.948S1.163-1.024,1.5,5.731c.072,1.437,2.059,10.881,4.431,8.024.866-1.043,1.649-1.86,1.649-1.86M12.355,1.405c-.25.078,4.042-1.569,6.483,1.548.861,1.1-.137,5.6-2.527,9.148" transform="translate(-1.489 -1.039)" fill="none" stroke="#fff" stroke-linecap="round" stroke-linejoin="round" stroke-width="0.716"/>
          <path id="Path_12961" data-name="Path 12961" d="M17.724,12.16s.157.767,2.427.3c.992-.205.395.575-.611,1.041-.825.384-2.676.481-2.706-.047-.078-1.366.974-.951.9-1.293-.069-.308-.54-.611-.85-1.365-.272-.658-3.726-5.707.958-4.957a5.939,5.939,0,0,0-5.6-4.526C7.851,1.247,7.99,6.7,7.99,6.7" transform="translate(-2.901 -1.098)" fill="none" stroke="#fff" stroke-linecap="round" stroke-linejoin="bevel" stroke-width="0.716"/>
        </g>
        <g id="Group_6326" data-name="Group 6326" transform="translate(5.015 4.759)">
          <path id="Path_12962" data-name="Path 12962" d="M10.6,15.7c-.611.683-.431.8-1.652,1.054s-.509.708-.036.827a2.51,2.51,0,0,0,2.8-.91.837.837,0,0,0-.377-1.149.554.554,0,0,0-.736.18Z" transform="translate(-7.976 -8.929)" fill="none" stroke="#fff" stroke-linejoin="round" stroke-width="0.716"/>
          <path id="Path_12963" data-name="Path 12963" d="M10.479,13.878a3.211,3.211,0,0,1,.339-1.437,5.629,5.629,0,0,0,.456-4.334c-.428-1.98-3.3-.413-3.3-.144A13.392,13.392,0,0,1,7.923,10.6a2.478,2.478,0,0,0,2.541,2.922" transform="translate(-7.896 -7.12)" fill="none" stroke="#fff" stroke-linecap="round" stroke-linejoin="round" stroke-width="0.716"/>
        </g>
      </g>
      <g id="Group_6328" data-name="Group 6328" transform="translate(8.403 6.298)">
        <path id="Path_12964" data-name="Path 12964" d="M10.322,8.113c-.013.092.168.337.4.369a.435.435,0,0,0,.45-.25c.013-.092-.168-.193-.4-.225S10.334,8.022,10.322,8.113Z" transform="translate(-10.321 -7.809)" fill="#fff" stroke="#fff" stroke-width="0.239"/>
        <path id="Path_12965" data-name="Path 12965" d="M19.249,7.874c.013.092-.168.337-.4.369a.433.433,0,0,1-.45-.25c-.012-.092.168-.193.4-.225S19.237,7.783,19.249,7.874Z" transform="translate(-12.075 -7.757)" fill="#fff" stroke="#fff" stroke-width="0.119"/>
      </g>
      <path id="Path_12966" data-name="Path 12966" d="M20.422,7.095c.039.72-.155,1.209-.18,1.976-.036,1.113.531,2.388-.323,3.663" transform="translate(-4.003 -1.315)" fill="none" stroke="#fff" stroke-linecap="round" stroke-linejoin="round" stroke-width="0.716"/>
    </g>
  </g>
</svg>
