<svg xmlns="http://www.w3.org/2000/svg" xmlns:xlink="http://www.w3.org/1999/xlink" width="580" height="611.1" viewBox="0 0 580 611.1">
  <defs>
    <linearGradient id="linear-gradient" x1="0.237" y1="-0.177" x2="0.597" y2="0.812" gradientUnits="objectBoundingBox">
      <stop offset="0" stop-color="#a13098"/>
      <stop offset="0.343" stop-color="#cd4d6e"/>
      <stop offset="1" stop-color="#fb6b43"/>
    </linearGradient>
    <linearGradient id="linear-gradient-2" x1="0.496" y1="0.298" x2="0.141" y2="0.872" gradientUnits="objectBoundingBox">
      <stop offset="0" stop-color="#fb6b43"/>
      <stop offset="1" stop-color="#e1d0bd"/>
    </linearGradient>
    <linearGradient id="linear-gradient-3" x1="0.813" y1="0.593" x2="-0.176" y2="0.298" gradientUnits="objectBoundingBox">
      <stop offset="0" stop-color="#b73f83"/>
      <stop offset="1" stop-color="#3fb0f7"/>
    </linearGradient>
    <linearGradient id="linear-gradient-4" x1="0.412" y1="0.658" x2="0.688" y2="0.191" gradientUnits="objectBoundingBox">
      <stop offset="0" stop-color="#965cf2"/>
      <stop offset="1" stop-color="#ff8adc"/>
    </linearGradient>
    <linearGradient id="linear-gradient-5" x1="0.705" y1="0.196" x2="0.374" y2="0.686" gradientUnits="objectBoundingBox">
      <stop offset="0" stop-color="#fb6b43"/>
      <stop offset="1" stop-color="#c1457a"/>
    </linearGradient>
    <linearGradient id="linear-gradient-6" x1="0.417" y1="0.617" x2="0.635" y2="0.247" xlink:href="#linear-gradient-4"/>
    <linearGradient id="linear-gradient-7" x1="0.546" y1="0.664" x2="0.374" y2="0.048" gradientUnits="objectBoundingBox">
      <stop offset="0" stop-color="#fb6b44"/>
      <stop offset="0.995" stop-color="#bd427d"/>
      <stop offset="1" stop-color="#00cfdd"/>
    </linearGradient>
    <linearGradient id="linear-gradient-8" x1="0.233" y1="-0.12" x2="0.537" y2="0.687" gradientUnits="objectBoundingBox">
      <stop offset="0" stop-color="#fd70cb"/>
      <stop offset="1" stop-color="#6e4dfd"/>
    </linearGradient>
    <linearGradient id="linear-gradient-9" x1="0.41" y1="0.622" x2="0.576" y2="0.131" gradientUnits="objectBoundingBox">
      <stop offset="0" stop-color="#bf447b"/>
      <stop offset="1" stop-color="#fb6b43"/>
    </linearGradient>
    <linearGradient id="linear-gradient-10" x1="0.346" y1="0.701" x2="0.654" y2="0.104" xlink:href="#linear-gradient-4"/>
    <linearGradient id="linear-gradient-11" x1="0.583" y1="0.284" x2="0.411" y2="0.799" gradientUnits="objectBoundingBox">
      <stop offset="0" stop-color="#be447d"/>
      <stop offset="1" stop-color="#ff8f00"/>
    </linearGradient>
    <linearGradient id="linear-gradient-12" x1="0.544" y1="0.788" x2="0.374" y2="-0.023" xlink:href="#linear-gradient-4"/>
    <linearGradient id="linear-gradient-13" x1="0.494" y1="0.622" x2="0.528" y2="0.238" gradientUnits="objectBoundingBox">
      <stop offset="0" stop-color="#f86946"/>
      <stop offset="1" stop-color="#bf447b"/>
    </linearGradient>
    <linearGradient id="linear-gradient-14" x1="0.391" y1="0.875" x2="0.638" y2="0.023" gradientUnits="objectBoundingBox">
      <stop offset="0" stop-color="#c54875"/>
      <stop offset="1" stop-color="#fb6b43"/>
    </linearGradient>
    <linearGradient id="linear-gradient-15" x1="0.491" y1="0.105" x2="0.522" y2="0.968" gradientUnits="objectBoundingBox">
      <stop offset="0" stop-color="#ff8a78"/>
      <stop offset="1" stop-color="#ffa799"/>
    </linearGradient>
    <linearGradient id="linear-gradient-16" x1="0.499" y1="0.251" x2="0.528" y2="1.439" xlink:href="#linear-gradient-15"/>
    <linearGradient id="linear-gradient-17" x1="0.424" y1="0.131" x2="0.615" y2="0.772" gradientUnits="objectBoundingBox">
      <stop offset="0" stop-color="#bf447d"/>
      <stop offset="1" stop-color="#fb6b43"/>
    </linearGradient>
    <linearGradient id="linear-gradient-18" x1="0.843" y1="0.229" x2="0.128" y2="0.771" gradientUnits="objectBoundingBox">
      <stop offset="0" stop-color="#235da3"/>
      <stop offset="1" stop-color="#123a76"/>
    </linearGradient>
    <linearGradient id="linear-gradient-19" x1="0.77" y1="0.21" x2="-0.149" y2="0.777" xlink:href="#linear-gradient-18"/>
    <linearGradient id="linear-gradient-20" x1="0.467" y1="0.191" x2="0.681" y2="0.907" gradientUnits="objectBoundingBox">
      <stop offset="0" stop-color="#fb6b43"/>
      <stop offset="1" stop-color="#bf447c"/>
    </linearGradient>
    <linearGradient id="linear-gradient-21" x1="0.435" y1="0.682" x2="0.545" y2="0.437" xlink:href="#linear-gradient-15"/>
    <linearGradient id="linear-gradient-22" x1="0.431" y1="0.163" x2="0.661" y2="0.931" gradientUnits="objectBoundingBox">
      <stop offset="0" stop-color="#fb6b43"/>
      <stop offset="1" stop-color="#c0457b"/>
    </linearGradient>
    <linearGradient id="linear-gradient-23" x1="0.558" y1="0.428" x2="0.306" y2="0.659" xlink:href="#linear-gradient-15"/>
    <linearGradient id="linear-gradient-24" x1="0.596" y1="0.24" x2="0.312" y2="0.78" gradientUnits="objectBoundingBox">
      <stop offset="0" stop-color="#ffb89e"/>
      <stop offset="1" stop-color="#ffa799"/>
    </linearGradient>
    <linearGradient id="linear-gradient-25" x1="0.652" y1="0.689" x2="0.447" y2="0.385" gradientUnits="objectBoundingBox">
      <stop offset="0" stop-color="#8a4791"/>
      <stop offset="1" stop-color="#562e65"/>
    </linearGradient>
    <linearGradient id="linear-gradient-26" x1="0.543" y1="0.433" x2="0.346" y2="0.803" gradientUnits="objectBoundingBox">
      <stop offset="0" stop-color="#5a2d68"/>
      <stop offset="1" stop-color="#22043d"/>
    </linearGradient>
    <linearGradient id="linear-gradient-27" x1="0.438" y1="0.586" x2="0.533" y2="0.507" xlink:href="#linear-gradient-15"/>
    <linearGradient id="linear-gradient-28" x1="0.097" y1="0.575" x2="0.794" y2="0.298" gradientUnits="objectBoundingBox">
      <stop offset="0" stop-color="#bd427e"/>
      <stop offset="1" stop-color="#f4664a"/>
    </linearGradient>
    <linearGradient id="linear-gradient-29" x1="0.215" y1="0.187" x2="1.066" y2="0.765" gradientUnits="objectBoundingBox">
      <stop offset="0" stop-color="#3e4795"/>
      <stop offset="1" stop-color="#273088"/>
    </linearGradient>
    <linearGradient id="linear-gradient-30" x1="-0.076" y1="0.23" x2="1.222" y2="0.707" xlink:href="#linear-gradient-29"/>
    <linearGradient id="linear-gradient-31" x1="0.385" y1="0.834" x2="0.553" y2="0.199" gradientUnits="objectBoundingBox">
      <stop offset="0" stop-color="#a13098"/>
      <stop offset="1" stop-color="#fb6b43"/>
    </linearGradient>
    <linearGradient id="linear-gradient-32" x1="0.556" y1="0.647" x2="0.472" y2="0.47" xlink:href="#linear-gradient-15"/>
    <linearGradient id="linear-gradient-33" x1="0.627" y1="0.743" x2="0.36" y2="0.067" gradientUnits="objectBoundingBox">
      <stop offset="0" stop-color="#bd427e"/>
      <stop offset="1" stop-color="#fb6b43"/>
    </linearGradient>
    <linearGradient id="linear-gradient-34" x1="0.522" y1="0.533" x2="0.593" y2="0.851" xlink:href="#linear-gradient-15"/>
    <linearGradient id="linear-gradient-35" x1="0.09" y1="0.372" x2="0.59" y2="0.782" xlink:href="#linear-gradient-24"/>
  </defs>
  <g id="company_info" transform="translate(-2.451 -3.758)">
    <g id="Group_6443" data-name="Group 6443" transform="translate(87.834 3.758)">
      <g id="Group_6414" data-name="Group 6414">
        <path id="Path_13209" data-name="Path 13209" d="M550.592,530.107l-1.972,3.528-7.091-3.924,1.972-3.526,7.091,3.923ZM493.236,78.952l4.685,2.592,1.972-3.528-4.686-2.592-1.972,3.527Zm8.231,4.553,1.972-3.527,7.092,3.923-1.972,3.527L501.467,83.5ZM512.1,89.389l1.972-3.527,7.091,3.923L519.2,93.312,512.1,89.389Zm10.637,5.883,1.972-3.527,7.091,3.923L529.833,99.2l-7.091-3.923Zm10.636,5.884,1.973-3.526,7.092,3.923-1.972,3.526-7.092-3.923Zm10.638,5.885,1.973-3.527,7.09,3.923-1.972,3.527-7.092-3.923Zm10.637,5.884,1.973-3.528,7.09,3.923-1.972,3.527-7.091-3.923Zm10.637,5.883,1.972-3.527,7.091,3.923-1.972,3.527-7.09-3.923Zm10.637,5.884,1.972-3.527,7.09,3.923-1.972,3.527-7.09-3.922Zm10.636,5.884,1.972-3.528,7.091,3.923-1.972,3.527-7.091-3.923Zm10.636,5.884,1.972-3.527,7.091,3.922-1.974,3.527-7.089-3.922Zm10.636,5.883,1.972-3.527,7.091,3.922-1.972,3.527-7.091-3.922Zm10.637,5.884,1.972-3.526,7.091,3.923-1.972,3.527-7.091-3.923Zm10.636,5.884,1.972-3.527,7.09,3.923-1.971,3.527-7.092-3.923Zm10.636,5.885,1.972-3.527,7.092,3.922-1.973,3.527-7.091-3.922Zm10.418,5.847a19.838,19.838,0,0,1,5.058,5.26l3.371-2.245a23.808,23.808,0,0,0-6.109-6.324l-2.32,3.309Zm6.895,8.507a25.023,25.023,0,0,1,2.143,7.122v-.009l4.021-.534a29.094,29.094,0,0,0-2.488-8.292l-3.675,1.713Zm2.341,10.792a72.592,72.592,0,0,1-1.03,7.787l4.012.585a76.337,76.337,0,0,0,1.073-8.212l-4.055-.16Zm-1.619,11.78,4.013.584-1.176,7.986-4.016-.584,1.178-7.986ZM656.011,208.9l4.014.585-1.176,7.985-4.014-.585,1.176-7.985Zm-1.764,11.979,4.013.585-1.175,7.985-4.014-.585,1.176-7.985Zm-1.763,11.978,4.013.585-1.176,7.986-4.013-.585,1.176-7.986Zm-1.764,11.979,4.013.585-1.176,7.986-4.014-.585,1.177-7.986Zm-1.766,11.978,4.014.586-1.176,7.986-4.013-.586,1.175-7.986Zm-1.763,11.979,4.014.585-1.175,7.985-4.014-.585,1.175-7.986Zm-1.764,11.979,4.015.586-1.177,7.986-4.013-.586,1.175-7.986Zm-1.764,11.979,4.013.585-1.176,7.986-4.014-.585,1.177-7.985ZM641.9,304.727l4.014.586-1.175,7.985-4.015-.585,1.176-7.986Zm-1.764,11.979,4.014.585-1.177,7.986-4.013-.584,1.176-7.986Zm-1.764,11.978,4.013.585-1.176,7.986-4.014-.585,1.177-7.986ZM636.6,340.663l4.015.586-1.177,7.985-4.014-.585,1.176-7.986Zm-1.763,11.98,4.013.585-1.175,7.985-4.014-.585,1.176-7.985Zm-1.763,11.978,4.014.585-1.177,7.986-4.013-.585,1.176-7.986ZM631.312,376.6l4.013.585-1.176,7.987-4.012-.586,1.175-7.986Zm-1.764,11.978,4.013.585-1.175,7.985-4.015-.585,1.177-7.985Zm-1.764,11.976,4.015.586-1.176,7.985-4.015-.585,1.177-7.987Zm-1.764,11.979,4.014.585-1.177,7.986-4.014-.586,1.177-7.985Zm-1.765,11.978,4.014.585-1.175,7.984-4.014-.585,1.175-7.985Zm-1.763,11.976,4.014.586-1.175,7.985-4.015-.587,1.176-7.985Zm-1.764,11.978,4.014.585-1.176,7.985-4.014-.584,1.176-7.985Zm-1.766,11.977,4.015.585-1.176,7.985-4.013-.585,1.175-7.985ZM617.2,472.418l4.013.586-1.175,7.985-4.014-.585,1.176-7.985ZM615.434,484.4l4.014.583-1.176,7.987-4.015-.585,1.177-7.985Zm-1.765,11.976,4.015.585-1.177,7.985-4.013-.585,1.176-7.985Zm-1.763,11.978,4.013.583-1.175,7.987-4.014-.585,1.177-7.985Zm-1.765,11.976,4.014.585-1.176,7.985-4.014-.586,1.176-7.985Zm-1.763,11.978,4.013.585-1.175,7.984-4.015-.585,1.177-7.985Zm-1.763,11.976,4.015.585-.273,1.848a17.35,17.35,0,0,1-2.3,6.595l-3.452-2.124a13.361,13.361,0,0,0,1.739-5.056l.272-1.848Zm-4.184,9.323a7.44,7.44,0,0,1-6.087,1.247l-.823,3.95a11.489,11.489,0,0,0,9.316-1.947l-2.406-3.25Zm-9.3.037-1.967,3.528-7.095-3.923,1.972-3.528,7.089,3.923ZM582.5,547.759l-1.972,3.526-7.09-3.923,1.972-3.528,7.09,3.924Zm-10.637-5.885-1.972,3.528L562.8,541.48l1.972-3.527,7.09,3.921Zm-10.636-5.882-1.972,3.526-7.09-3.923,1.972-3.526Z" transform="translate(-196.343 -19.603)" fill="#fff" fill-rule="evenodd"/>
        <g id="Group_6413" data-name="Group 6413" transform="translate(233.552)">
          <g id="Group_6411" data-name="Group 6411">
            <path id="Path_13210" data-name="Path 13210" d="M433.047,12.842a23.208,23.208,0,0,1,8.236,7.785c-.028-.591-.056,1.576-.038-1.773s-1.913-8.76.721-11.472c1.045-1.074,6.13-3.048,7.351-3.36a10.932,10.932,0,0,1,7.963,1.383c4.413,2.4,8.408,7.073,11.308,12.689a52.843,52.843,0,0,1,4.708,18.4c0,3.389-.018,1.171-.05,1.741,2.456-.734,4.66-.725,8.453,1.362s8.571,7.236,11.534,12.955a42.151,42.151,0,0,1,4.849,18.707c.012,4.885-1.108,8.764-3.014,11.451-1.919,2.707-5.632,4.306-8.263,5.174-7.545,2.606-22.089-12.607-29.764-16.929q-12.215-6.878-24.306-13.678c-4.393-2.471-8.331-7.184-11.152-12.809a41.062,41.062,0,0,1-4.454-18.25c.033-3.564-2.585-8.91.8-11.47C423.2,10.769,428.827,10.52,433.047,12.842Z" transform="translate(-412.862 -3.758)" fill="#b73f83" fill-rule="evenodd"/>
            <path id="Path_13211" data-name="Path 13211" d="M427.834,15.208a23.214,23.214,0,0,1,8.236,7.785c-.029-.591-.059,1.576-.039-1.773s1.843-10.667,4.739-13.1,6.884-2.749,11.3-.349,8.408,7.073,11.309,12.689a52.827,52.827,0,0,1,4.708,18.4c0,3.389-.017,1.17-.05,1.74,2.456-.733,4.661-.725,8.453,1.362s8.57,7.236,11.535,12.955a42.072,42.072,0,0,1,4.85,18.709c.014,6.284-1.829,10.964-4.8,13.428S481,89.74,476.485,87.2Q464.11,80.231,451.829,73.32q-12.216-6.878-24.307-13.678c-4.392-2.472-8.329-7.185-11.15-12.81a41.053,41.053,0,0,1-4.455-18.25c.057-6.1,1.855-10.631,4.725-13.046S424.146,13.179,427.834,15.208Z" transform="translate(-411.916 -4.281)" fill-rule="evenodd" fill="url(#linear-gradient)"/>
          </g>
          <g id="Group_6412" data-name="Group 6412" transform="translate(16.874 21.859)">
            <path id="Path_13212" data-name="Path 13212" d="M441.138,51.105l-7.559-4.339,11.89,20.481,11.962-6.782-7.555-4.341L449.9,36.84l-8.738-5.018Z" transform="translate(-433.579 -31.822)" fill="#fff" fill-rule="evenodd"/>
            <path id="Path_13213" data-name="Path 13213" d="M472.289,62.722l7.559,4.338-11.889-20.48L456,53.364l7.556,4.341-.022,19.283,8.738,5.018Z" transform="translate(-438.535 -35.085)" fill="#fff" fill-rule="evenodd"/>
          </g>
        </g>
        <path id="Path_13214" data-name="Path 13214" d="M170.7,84.872l1.719-3.076,6.185,3.42-1.72,3.076-6.184-3.42Zm9.1,287.885-4.649-2.572-1.719,3.075,4.649,2.572,1.72-3.075Zm-7.742-4.282-1.719,3.075-6.184-3.422,1.721-3.075,6.183,3.422Zm-9.276-5.131-1.719,3.075L154.886,363l1.719-3.075,6.184,3.421Zm-9.275-5.132-1.72,3.076-6.183-3.42,1.72-3.077,6.183,3.421Zm-9.275-5.131-1.719,3.077-6.184-3.42,1.72-3.076,6.184,3.419Zm-9.276-5.129-1.719,3.075-6.184-3.42,1.72-3.075,6.183,3.42Zm-9.275-5.131-1.719,3.075-3.183-1.759a14.722,14.722,0,0,1-3.111-2.347l2.488-2.5a10.517,10.517,0,0,0,2.34,1.772l3.184,1.761Zm-7.485-5.964a16.651,16.651,0,0,1-2.346-5.881l-3.478.644a20.178,20.178,0,0,0,2.838,7.123l2.987-1.886Zm-2.6-9a65.621,65.621,0,0,1,.92-6.781l-3.5-.51a67.578,67.578,0,0,0-.956,7.161l3.537.13ZM117.04,317.6l-3.5-.511,1.026-6.964,3.5.51L117.04,317.6Zm1.539-10.446-3.5-.511,1.028-6.964,3.5.51-1.027,6.964Zm1.54-10.446-3.5-.511,1.026-6.964,3.5.51-1.026,6.964Zm1.538-10.447-3.5-.51,1.026-6.964,3.5.51-1.026,6.963Zm1.538-10.445-3.5-.51,1.026-6.963,3.5.511-1.026,6.963Zm1.539-10.445-3.5-.51,1.027-6.963,3.5.511-1.026,6.963Zm1.538-10.445-3.5-.511,1.025-6.963,3.5.51-1.026,6.963Zm1.538-10.445-3.5-.511L125.338,237l3.5.51-1.026,6.963Zm1.539-10.445-3.5-.511,1.026-6.964,3.5.511-1.026,6.963Zm1.538-10.445-3.5-.51,1.025-6.964,3.5.51-1.026,6.964Zm1.539-10.445-3.5-.511,1.026-6.963,3.5.511-1.025,6.964Zm1.538-10.446-3.5-.51,1.024-6.963,3.5.511-1.027,6.963Zm1.538-10.446-3.5-.51,1.026-6.963,3.5.51-1.025,6.963Zm1.538-10.444-3.5-.511,1.025-6.963,3.5.51-1.026,6.963Zm1.538-10.445-3.5-.511,1.026-6.963,3.5.51-1.025,6.963Zm1.538-10.446-3.5-.51,1.025-6.963,3.5.51-1.025,6.963Zm1.538-10.445-3.5-.51,1.026-6.963,3.5.511-1.024,6.963Zm1.538-10.445-3.5-.51,1.026-6.963,3.5.51-1.025,6.964Zm1.538-10.444-3.5-.51,1.026-6.964,3.5.51-1.025,6.964Zm1.538-10.446-3.5-.511,1.025-6.963,3.5.51-1.026,6.964Zm1.538-10.445-3.5-.51,1.026-6.964,3.5.51-1.025,6.964Zm1.538-10.446-3.5-.51,1.025-6.963,3.5.51-1.027,6.963ZM150.884,87.8l-3.5-.51c.324-2.2.538-5.132,1.481-7.314l3.262,1.365c-.771,1.766-1.023,4.975-1.242,6.459Zm2.792-8.694a4.79,4.79,0,0,1,4.878-.81l1.154-3.328a8.317,8.317,0,0,0-8.388,1.514l2.356,2.624Zm7.752.638,1.72-3.076,6.183,3.421-1.72,3.076Z" transform="translate(-112.069 -19.387)" fill="#fff" fill-rule="evenodd"/>
      </g>
      <path id="Path_13215" data-name="Path 13215" d="M468.743,677.483,254.512,559.643c-5.259-2.389-12.987-4.645-18.143-1.521l-13.2,8c-2.654,1.607-11.386,6.949-5.546,10.108C234.8,585.519,417.1,686.656,434.548,696.095c3.3,1.784,8.126,2.43,13.192,2.012a33.286,33.286,0,0,0,14.289-4.233l5.272-3.235c3.726-2.286,5.79-4.783,5.989-7.178C473.484,681.12,471.972,678.951,468.743,677.483Z" transform="translate(-134.971 -125.986)" fill="#bb6ce9" fill-rule="evenodd" opacity="0.5"/>
      <g id="Group_6420" data-name="Group 6420" transform="translate(90.694 20.886)">
        <g id="Group_6418" data-name="Group 6418">
          <g id="Group_6415" data-name="Group 6415">
            <path id="Path_13216" data-name="Path 13216" d="M329.245,32.36a11.926,11.926,0,0,0-10.1-1.123l-7.583,2.948C308.807,48.358,468.587,567.91,472.1,571.514l6.768-2.541c4.443-1.74,6.774-6.342,7.426-10.813l57.143-387.974a.347.347,0,0,0,.006-.044,27.6,27.6,0,0,0-4.648-18.768,21.925,21.925,0,0,0-7.634-7.321Z" transform="translate(-246.862 -30.572)" fill-rule="evenodd" fill="url(#linear-gradient-2)"/>
            <path id="Path_13217" data-name="Path 13217" d="M505.331,147.736,303.415,36.042c-8.235-4.54-16.077-.182-17.532,9.7L228.741,433.715C227.287,443.6,232.76,455.3,241,459.834l201.92,111.7c8.234,4.539,16.093.191,17.549-9.688l57.142-387.977C519.062,163.988,513.565,152.276,505.331,147.736Z" transform="translate(-228.507 -31.384)" fill-rule="evenodd" fill="url(#linear-gradient-3)"/>
          </g>
          <g id="Group_6417" data-name="Group 6417" transform="translate(54.451 2.861)">
            <path id="Path_13218" data-name="Path 13218" d="M520.786,147.736,318.87,36.042c-8.233-4.54-16.075-.182-17.529,9.7l-2.926,19.868L530.128,193.783l2.933-19.917C534.518,163.988,529.021,152.276,520.786,147.736Z" transform="translate(-298.415 -34.244)" fill="#b73f83" fill-rule="evenodd"/>
            <g id="Group_6416" data-name="Group 6416" transform="translate(15.119 16.119)">
              <path id="Path_13219" data-name="Path 13219" d="M321.457,68.137a11.14,11.14,0,0,1-3.472-9.893c.68-3.332,3.34-4.307,5.94-2.176a11.15,11.15,0,0,1,3.473,9.894C326.718,69.295,324.058,70.266,321.457,68.137Z" transform="translate(-317.825 -54.939)" fill="#ff8f00" fill-rule="evenodd"/>
              <path id="Path_13220" data-name="Path 13220" d="M342.658,80.947a11.139,11.139,0,0,1-3.472-9.894c.68-3.332,3.34-4.308,5.94-2.175a11.147,11.147,0,0,1,3.474,9.893C347.918,82.105,345.257,83.078,342.658,80.947Z" transform="translate(-322.512 -57.771)" fill="#ff8f00" fill-rule="evenodd"/>
              <path id="Path_13221" data-name="Path 13221" d="M363.859,93.758a11.139,11.139,0,0,1-3.474-9.894c.68-3.331,3.34-4.307,5.941-2.175a11.152,11.152,0,0,1,3.474,9.893C369.119,94.915,366.458,95.888,363.859,93.758Z" transform="translate(-327.199 -60.603)" fill="#ff8f00" fill-rule="evenodd"/>
            </g>
          </g>
        </g>
        <g id="Group_6419" data-name="Group 6419" transform="translate(35.016 139.949)">
          <path id="Path_13222" data-name="Path 13222" d="M503.128,280.763a1.255,1.255,0,0,0-1.915,1.06,3.022,3.022,0,0,0,1.334,2.887,1.261,1.261,0,0,0,1.949-1.078,2.994,2.994,0,0,0-1.368-2.869Zm-229.666,52.7,1.567.863,16.5-112.017-1.566-.862-16.5,112.015ZM291.54,216.294c-.883-.488-1.759,0-1.919,1.1a3.021,3.021,0,0,0,1.333,2.872,1.269,1.269,0,0,0,1.964-1.054,3.031,3.031,0,0,0-1.379-2.915Zm6.683,136.615,1.565.863,16.5-112.032-1.566-.865-16.5,112.034Zm18.095-117.174a1.265,1.265,0,0,0-1.935,1.088,3.018,3.018,0,0,0,1.35,2.877,1.263,1.263,0,0,0,1.948-1.06,3.028,3.028,0,0,0-1.363-2.906Zm11.4,104.52,1.578.87,16.5-112.035-1.58-.871-16.5,112.036ZM345.839,223.1a1.269,1.269,0,0,0-1.951,1.079,3.024,3.024,0,0,0,1.367,2.889,1.258,1.258,0,0,0,1.915-1.079,3.027,3.027,0,0,0-1.332-2.889Zm11.41,104.529,1.532.846,16.5-112.032-1.534-.847-16.5,112.034Zm18.078-117.183c-.914-.505-1.756,0-1.921,1.114a2.969,2.969,0,0,0,1.337,2.852,1.246,1.246,0,0,0,1.928-1.052,2.987,2.987,0,0,0-1.345-2.914Zm8.26,125.906,1.564.863L401.65,225.2l-1.563-.861-16.5,112.013Zm18.094-117.157a1.268,1.268,0,0,0-1.937,1.088,3.02,3.02,0,0,0,1.352,2.879,1.263,1.263,0,0,0,1.947-1.06,3.029,3.029,0,0,0-1.362-2.908Zm5.878,141.952,1.582.872,16.5-112.033-1.579-.871-16.5,112.032Zm18.095-117.155c-.883-.488-1.756-.021-1.92,1.1a3.013,3.013,0,0,0,1.337,2.851,1.253,1.253,0,0,0,1.944-1.041,2.987,2.987,0,0,0-1.362-2.906Zm5.111,147.286,1.563.863,16.5-112.016-1.565-.862-16.5,112.015Zm18.106-117.148a1.268,1.268,0,0,0-1.95,1.078,3.033,3.033,0,0,0,1.367,2.889,1.262,1.262,0,0,0,1.933-1.069,3.027,3.027,0,0,0-1.349-2.9Zm6.675,136.448,1.55.856L473.6,299.4l-1.548-.852-16.5,112.031Zm18.093-117.156a1.243,1.243,0,0,0-1.914,1.06,3,3,0,0,0,1.33,2.889,1.272,1.272,0,0,0,1.954-1.079,3,3,0,0,0-1.371-2.87Zm11.4,104.5,1.577.872,16.5-112.033-1.581-.869Z" transform="translate(-273.462 -210.245)" fill="#3856d8" fill-rule="evenodd" opacity="0.5"/>
          <path id="Path_13223" data-name="Path 13223" d="M514.906,296.468a2.692,2.692,0,0,0-1.037-1.088,1.364,1.364,0,0,0-1.5.01c-3.833,2.941-7.336,5.479-10.624,7.675-3.238,2.219-6.286,4.043-9.111,5.605-13.146,7.137-22.668,7.642-32.04,2.469-9.17-5.256-18.021-16.336-29.571-31.927C418.1,261.768,406.7,249.953,395.214,243.62a49.293,49.293,0,0,0-5.1-2.447c-13.231-5.422-26.686-3.538-42.794,5.461-1.673.89-3.288,1.85-4.9,2.776-12.4,7.139-24.01,13.819-36.544,6.909-6.519-3.594-13.287-10.867-20.539-23.664a2.705,2.705,0,0,0-1.028-1.079,1.343,1.343,0,0,0-1.514.04,2.59,2.59,0,0,0-.176,3.126c8.1,14.312,15.59,22.384,22.764,26.34,13.509,7.448,25.9.29,39.128-7.319,1.639-.907,3.249-1.832,4.889-2.738,15.365-8.606,28.111-10.457,40.507-5.393a44.7,44.7,0,0,1,4.593,2.212c10.832,5.971,21.771,17.319,34.25,34.165,11.988,16.133,21.193,27.651,31.149,33.364.189.109.382.216.572.32,9.873,5.445,20.211,4.981,34.184-2.582q4.338-2.35,9.346-5.72c3.316-2.26,6.891-4.839,10.723-7.78A2.519,2.519,0,0,0,514.906,296.468Z" transform="translate(-275.393 -214.914)" fill="#3856d8" fill-rule="evenodd" opacity="0.5"/>
          <path id="Path_13224" data-name="Path 13224" d="M512.14,286.811a2.643,2.643,0,0,0-1.038-1.075,1.367,1.367,0,0,0-1.5.031c-3.832,2.994-7.337,5.581-10.623,7.823-3.24,2.264-6.289,4.13-9.112,5.732-13.145,7.319-22.668,7.956-32.041,2.913-9.171-5.128-18.02-16.087-29.571-31.516-12.923-17.265-24.324-28.921-35.809-35.095a48.232,48.232,0,0,0-5.1-2.376c-13.232-5.238-26.685-3.168-42.795,6.055-1.671.913-3.288,1.9-4.9,2.844-12.4,7.311-24.012,14.153-36.545,7.417-6.519-3.505-13.288-10.683-20.54-23.379a2.661,2.661,0,0,0-1.027-1.065,1.343,1.343,0,0,0-1.515.062,2.6,2.6,0,0,0-.176,3.127c8.1,14.2,15.589,22.168,22.764,26.025,13.51,7.261,25.9-.069,39.127-7.862,1.64-.93,3.25-1.877,4.89-2.806,15.366-8.818,28.111-10.845,40.506-5.956a43.958,43.958,0,0,1,4.6,2.148c10.832,5.821,21.77,17.017,34.25,33.689,11.987,15.967,21.192,27.357,31.15,32.932.188.105.38.211.57.312,9.873,5.308,20.209,4.7,34.183-3.057q4.339-2.41,9.347-5.848c3.315-2.307,6.892-4.936,10.724-7.931A2.527,2.527,0,0,0,512.14,286.811Z" transform="translate(-274.781 -213.489)" fill="#6bb6ff" fill-rule="evenodd"/>
          <path id="Path_13225" data-name="Path 13225" d="M510.2,285.825a162.754,162.754,0,0,1-19.735,13.555c-13.145,7.319-22.668,7.956-32.041,2.913-9.171-5.128-18.02-16.087-29.571-31.516-10.228-13.665-24.472-30.982-40.906-37.471-17.632-6.98-32.42-.088-47.691,8.9-12.4,7.311-24.011,14.153-36.545,7.417-6.519-3.505-13.288-10.683-20.54-23.379a2.661,2.661,0,0,0-1.027-1.065c2.056,5.257,11.287,20.862,20.2,25.655,13.508,7.262,25.127.893,38.353-6.9,14.755-8.356,30-15.87,47.039-9.146,15.474,6.146,30.369,24.116,40,36.991,11.988,15.968,20.612,26.876,30.568,32.45,8.3,4.626,15.252,4.377,22.572,1.66C488.548,303.045,506.307,291.9,510.2,285.825Z" transform="translate(-275.382 -213.547)" fill="aqua" fill-rule="evenodd"/>
        </g>
      </g>
      <g id="Group_6442" data-name="Group 6442" transform="translate(45.66 30.06)">
        <g id="Group_6425" data-name="Group 6425" transform="translate(12.882 142.015)">
          <path id="Path_13226" data-name="Path 13226" d="M385.751,320.691,267.06,255.269l-16.625,112.88L370.28,434.206c8.4,4.628,16.41.193,17.894-9.876l10.092-77C399.751,337.261,394.146,325.319,385.751,320.691Z" transform="translate(-201.202 -231.441)" fill-rule="evenodd" opacity="0.5" fill="url(#linear-gradient-4)"/>
          <g id="Group_6424" data-name="Group 6424">
            <g id="Group_6421" data-name="Group 6421">
              <path id="Path_13227" data-name="Path 13227" d="M373.771,337.806l-11.519,77.854,1.384.166,3.772-1.458c4.135-1.62,6.3-5.9,6.911-10.066l9.213-70.288a.209.209,0,0,0,.006-.04,25.679,25.679,0,0,0-4.326-17.47,20.382,20.382,0,0,0-7.1-6.814L220.933,226.341a11.1,11.1,0,0,0-9.4-1.045l-3.327,1.293c-1.673.625-2.191,1.125-2.18,1.229C207.6,242.368,375.972,322.881,373.771,337.806Z" transform="translate(-191.384 -224.677)" fill="#e5edff" fill-rule="evenodd"/>
              <path id="Path_13228" data-name="Path 13228" d="M364.148,311.6l-151.173-83.35c-3.358-1.853-6.648-2.113-9.4-1.048-3.523,1.364-6.159,4.91-6.921,10.076l-9.212,70.29c-1.356,9.2,3.741,20.088,11.4,24.313l151.175,83.349c7.665,4.225,14.98.178,16.335-9.017l9.214-70.293C376.928,326.725,371.812,315.823,364.148,311.6Z" transform="translate(-187.228 -225.096)" fill="#d1e7ff" fill-rule="evenodd"/>
            </g>
            <g id="Group_6422" data-name="Group 6422" transform="translate(82.856 68.291)">
              <path id="Path_13229" data-name="Path 13229" d="M392.25,359.871l-86.107-47.12a2.628,2.628,0,0,0-2.247-.249,2.865,2.865,0,0,0-1.655,2.409l-.576,3.465a6.054,6.054,0,0,0,2.727,5.811L390.5,371.306c1.832,1.011,3.583.043,3.907-2.155l.575-3.466A6.056,6.056,0,0,0,392.25,359.871Z" transform="translate(-295.374 -312.352)" fill="#fff" fill-rule="evenodd" opacity="0.5"/>
              <path id="Path_13230" data-name="Path 13230" d="M388.245,387.1l-86.107-47.12a2.631,2.631,0,0,0-2.247-.249,2.861,2.861,0,0,0-1.655,2.408l-.576,3.465a6.052,6.052,0,0,0,2.727,5.813l86.108,47.119c1.834,1.01,3.581.043,3.905-2.156l.576-3.465A6.062,6.062,0,0,0,388.245,387.1Z" transform="translate(-294.488 -318.371)" fill="#fff" fill-rule="evenodd" opacity="0.5"/>
              <path id="Path_13231" data-name="Path 13231" d="M332.379,385.334,298.13,367.2a2.627,2.627,0,0,0-2.246-.249,2.862,2.862,0,0,0-1.655,2.41l-.575,3.464a6.049,6.049,0,0,0,2.726,5.811l34.249,18.134c1.834,1.01,3.581.043,3.906-2.156l.575-3.465A6.06,6.06,0,0,0,332.379,385.334Z" transform="translate(-293.603 -324.39)" fill="#fff" fill-rule="evenodd" opacity="0.5"/>
            </g>
            <g id="Group_6423" data-name="Group 6423" transform="translate(11.5 20.473)">
              <path id="Path_13232" data-name="Path 13232" d="M202.332,284.959c-2.657,23.717,10.565,52.69,29.569,64.668s37.226-3.448,39.223-21.3-1.359-25.279-6.792-37.054c-3.308,1.816-6.616,3.631-9.919,5.41,3.525,7.567,5.7,12.409,4.413,23.886s-13,21.383-25.2,13.687-20.7-26.311-18.993-41.54C210.572,290.14,206.437,287.549,202.332,284.959Z" transform="translate(-201.992 -258.478)" fill="#b73f83" fill-rule="evenodd"/>
              <path id="Path_13233" data-name="Path 13233" d="M215.931,254.1c-7.1,3.83-12.173,12.156-13.5,24.033,4.106,2.59,8.241,5.18,12.3,7.753.853-7.614,4.092-12.983,8.662-15.447Q219.645,262.295,215.931,254.1Z" transform="translate(-202.088 -251.656)" fill="#f96a45" fill-rule="evenodd"/>
              <path id="Path_13234" data-name="Path 13234" d="M245.487,256.127c-9.51-5.987-18.64-6.583-25.718-2.753q3.7,8.206,7.454,16.375c4.57-2.461,10.44-2.088,16.515,1.753s11.3,10.428,14.73,17.934c3.3-1.779,6.607-3.558,9.914-5.372C263.047,272.35,255,262.114,245.487,256.127Z" transform="translate(-205.922 -250.961)" fill="#a44fe5" fill-rule="evenodd"/>
            </g>
          </g>
        </g>
        <g id="Group_6428" data-name="Group 6428" transform="translate(220.198 276.744)">
          <path id="Path_13235" data-name="Path 13235" d="M483.081,483.164c-17.417-13.813-27.828-42.5-23.264-64.1s22.375-27.909,39.791-14.1,27.825,42.514,23.262,64.1S500.488,496.967,483.081,483.164Z" transform="translate(-454.574 -397.649)" fill="#b73f83" fill-rule="evenodd" opacity="0.5"/>
          <g id="Group_6427" data-name="Group 6427" transform="translate(0 0.522)">
            <path id="Path_13236" data-name="Path 13236" d="M464.3,403.746c3.164-3.282,11.115-5.164,15.569-5.4,5.194-.277,10.993,1.82,16.743,6.532,15.088,12.369,24.119,38.094,20.165,57.436-1.174,5.746-3.291,10.34-6.251,13.5-2.762,2.946-11.649,6.666-15.753,6.993C470.172,486.21,454.987,413.4,464.3,403.746Z" transform="translate(-455.19 -398.319)" fill="#b73f83" fill-rule="evenodd"/>
            <g id="Group_6426" data-name="Group 6426" transform="translate(0 1.508)">
              <path id="Path_13237" data-name="Path 13237" d="M474.488,476.877c-15.1-12.377-24.125-38.083-20.167-57.436s19.4-25.006,34.495-12.63,24.12,38.094,20.164,57.436S489.578,489.246,474.488,476.877Z" transform="translate(-453.39 -400.255)" fill-rule="evenodd" fill="url(#linear-gradient-5)"/>
              <path id="Path_13238" data-name="Path 13238" d="M498.541,437.993l4.1,2.924-29.7,28.343-11.159-29.184,5.475,3.124,7.307,10.328Z" transform="translate(-455.247 -408.599)" fill="#fff" fill-rule="evenodd"/>
            </g>
          </g>
        </g>
        <g id="Group_6430" data-name="Group 6430" transform="translate(92.581 318.678)">
          <path id="Path_13239" data-name="Path 13239" d="M497.281,553.352,318.031,454.646a10.682,10.682,0,0,0-9.122-1.017c-3.42,1.323-5.979,4.765-6.716,9.78l-12.431,87.654c-1.316,8.926,3.632,19.5,11.072,23.6l164.954,90.831c1.8-.674,10.531-2.207,11.021-4.775Z" transform="translate(-289.549 -451.825)" fill-rule="evenodd" opacity="0.5" fill="url(#linear-gradient-6)"/>
          <g id="Group_6429" data-name="Group 6429" transform="translate(6.239)">
            <path id="Path_13240" data-name="Path 13240" d="M515.646,579.009l-13.994,90.644,1.281.154,3.493-1.349c.177-.07.348-.142.516-.221l.05-.02c3.83-1.5,5.841-5.467,6.4-9.324l11.861-83.638c0-.014,0-.027,0-.037a23.8,23.8,0,0,0-4.008-16.183,18.87,18.87,0,0,0-6.58-6.31l-181.056-99.7a10.277,10.277,0,0,0-8.708-.967l-3.081,1.2c-.322.121-.6.237-.836.346-1.335.529-1.76.942-1.749,1.033C320.7,468.115,517.686,565.184,515.646,579.009Z" transform="translate(-302.353 -451.485)" fill="#b73f83" fill-rule="evenodd"/>
            <path id="Path_13241" data-name="Path 13241" d="M505.788,554.8,324.736,455.1a10.2,10.2,0,0,0-8.7-.971c-3.264,1.264-5.706,4.547-6.41,9.333L297.761,547.1c-1.255,8.519,3.465,18.606,10.563,22.521l181.055,99.7c7.1,3.914,13.876.166,15.132-8.35l11.859-83.643C517.627,568.812,512.886,558.715,505.788,554.8Z" transform="translate(-297.559 -451.943)" fill-rule="evenodd" fill="url(#linear-gradient-7)"/>
            <path id="Path_13242" data-name="Path 13242" d="M309.911,532.473c2.042-11.808,6.656-15.8,12.561-14.156a12.486,12.486,0,0,1,2.805,1.186c5.79,3.284,11.693,11.867,12.593,26.158.576,9.047,2.314,17.338,9.935,21.661,20.036,10.668,12.81-52.469,31.78-41.7,16.334,9.274,6.56,42.808,12.919,64.052,2.21,7.366,6.186,10.833,8.932,12.389,11.535,6.119,12.812-13.225,14.314-21.364,6.952-37.613,11.361-39.685,18.395-35.7,7.352,4.245,10.62,7.127,9.259,46.41-.562,16.063,0,30.45,11.363,37.226,12.69,7.2,13.805-7.556,19.44-14.744,3.347-4.269,7.693-5.143,11.662-2.893,4.291,2.433,8.14,8.515,9.813,17.91,2.805,15.755,1.514,37.546.68,45.152l-191-107.556C307.007,554.978,308.147,542.683,309.911,532.473Z" transform="translate(-299.284 -466.183)" fill="#fff" fill-rule="evenodd" opacity="0.32"/>
          </g>
          <path id="Path_13325" data-name="Path 13325" d="M17.052,35.2l4-29.981S24.9-3.923,43.892,7.071s21.7,12.706,21.7,12.706Z" transform="translate(-2.015 -0.195)" fill="#c24679"/>
        </g>
        <g id="Group_6433" data-name="Group 6433" transform="translate(0 280.349)">
          <path id="Path_13243" data-name="Path 13243" d="M272.17,446.248,242.451,430.02l-12.868,87.369L259.64,533.8c8.371,4.611,16.356.193,17.835-9.844l7.167-51.155C286.122,462.764,280.537,450.86,272.17,446.248Z" transform="translate(-183.711 -408.411)" fill-rule="evenodd" opacity="0.5" fill="url(#linear-gradient-8)"/>
          <g id="Group_6432" data-name="Group 6432" transform="translate(0 0)">
            <g id="Group_6431" data-name="Group 6431">
              <path id="Path_13244" data-name="Path 13244" d="M260.585,463.685,251.716,518.1l1.382.168,3.771-1.457c4.137-1.62,6.307-5.9,6.913-10.068l6.566-46.851a.363.363,0,0,0,.005-.041,25.681,25.681,0,0,0-4.325-17.469,20.4,20.4,0,0,0-7.106-6.815L201,403.94a11.1,11.1,0,0,0-9.4-1.044l-3.326,1.292c-1.673.625-2.192,1.127-2.182,1.229C187.658,419.969,262.789,448.761,260.585,463.685Z" transform="translate(-174.094 -402.277)" fill="#d0e7ff" fill-rule="evenodd"/>
              <path id="Path_13245" data-name="Path 13245" d="M251.713,437.48l-57.922-31.631c-3.359-1.852-6.649-2.112-9.4-1.047-3.523,1.364-6.158,4.909-6.92,10.076l-6.566,46.855c-1.354,9.2,3.742,20.086,11.406,24.312l57.925,31.631c7.666,4.225,14.981.177,16.335-9.017l6.564-46.857C264.494,452.606,259.377,441.7,251.713,437.48Z" transform="translate(-170.689 -402.697)" fill="#fff" fill-rule="evenodd"/>
            </g>
            <path id="Path_13246" data-name="Path 13246" d="M246,464.054c-.586,3.99-3.724,5.794-7.041,3.965-3.376-1.861-5.551-6.594-4.965-10.586.584-3.961,3.713-5.69,7.088-3.83,3.316,1.828,5.5,6.49,4.917,10.451Zm-18.2,35.439c.588-3.987,3.715-5.716,7.092-3.855,3.317,1.826,5.5,6.488,4.916,10.475s-3.726,5.791-7.043,3.964c-3.377-1.861-5.553-6.6-4.966-10.584Zm-20.717-34.108c-.584,3.966-3.772,5.661-7.089,3.833-3.3-1.817-5.5-6.489-4.918-10.451.588-3.99,3.746-5.781,7.041-3.965,3.317,1.826,5.552,6.6,4.966,10.582Zm34.751-16.856c-5.643-3.116-11.059-.208-12.06,6.58l-.006.5L210.1,458.693a16.594,16.594,0,0,0-7.242-8.894c-5.642-3.112-10.98-.135-11.979,6.649-.99,6.714,2.729,14.735,8.374,17.846,3.254,1.794,6.357,1.577,8.586-.246L223.7,496.8l-.122.363c-1,6.783,2.814,14.779,8.455,17.889,5.58,3.077,10.977.162,11.978-6.626.987-6.712-2.786-14.792-8.37-17.87-4.014-2.214-7.858-1.359-10.133,1.673l-15.029-21.786a8.874,8.874,0,0,0,.764-2.766,12.065,12.065,0,0,0,.118-3.228l18.705-3.183c1.1,4.918,4.14,9.54,8.158,11.754,5.58,3.077,10.98.136,11.982-6.65S247.416,451.6,241.837,448.529Z" transform="translate(-175.118 -412.227)" fill-rule="evenodd" fill="url(#linear-gradient-9)"/>
          </g>
        </g>
        <g id="Group_6437" data-name="Group 6437" transform="translate(267.928 31.133)">
          <path id="Path_13247" data-name="Path 13247" d="M596.513,178.133l-65.245-33.692-6.806,3.249L514.9,216.813c-1.416,9.609,3.911,20.988,11.917,25.4L570.838,266.2l7.5-2.884Z" transform="translate(-514.669 -96.055)" fill-rule="evenodd" opacity="0.5" fill="url(#linear-gradient-10)"/>
          <g id="Group_6436" data-name="Group 6436" transform="translate(6.96)">
            <path id="Path_13248" data-name="Path 13248" d="M643.866,155.418,626.958,266.884l1.444.176,3.941-1.524c4.323-1.692,6.589-6.168,7.223-10.518l14.5-103.563a.243.243,0,0,0,.006-.043,26.844,26.844,0,0,0-4.521-18.253,21.309,21.309,0,0,0-7.424-7.12L565.082,84.06a11.6,11.6,0,0,0-9.825-1.092l-3.475,1.35c-1.747.654-2.288,1.177-2.278,1.285C551.143,100.807,646.166,139.821,643.866,155.418Z" transform="translate(-529.331 -82.321)" fill="#b73f83" fill-rule="evenodd"/>
            <path id="Path_13249" data-name="Path 13249" d="M632.427,128.034,555.384,86.053c-3.513-1.935-6.949-2.207-9.822-1.095-3.681,1.426-6.435,5.131-7.229,10.528l-14.5,103.564c-1.416,9.611,3.909,20.989,11.917,25.4l77.047,41.98c8.01,4.414,15.653.186,17.068-9.421l14.5-103.567C645.783,143.84,640.437,132.449,632.427,128.034Z" transform="translate(-523.604 -82.76)" fill="#fff" fill-rule="evenodd"/>
            <path id="Path_13250" data-name="Path 13250" d="M633.332,128.034,556.288,86.053c-3.512-1.935-6.949-2.207-9.822-1.095-3.681,1.426-6.435,5.13-7.229,10.528L527.69,177.948l106.056,57.789,11.52-82.29C646.686,143.839,641.34,132.449,633.332,128.034Z" transform="translate(-524.508 -82.76)" fill-rule="evenodd" fill="url(#linear-gradient-11)"/>
            <g id="Group_6434" data-name="Group 6434" transform="translate(8.885 106.812)">
              <path id="Path_13251" data-name="Path 13251" d="M538.328,221.691c.259-1.924,1.718-2.772,3.255-1.89l34.87,18.817a5.409,5.409,0,0,1,2.309,5.082l-.507,3.806c-.261,1.924-1.721,2.771-3.256,1.89l-34.871-18.817a5.4,5.4,0,0,1-2.309-5.082Z" transform="translate(-535.623 -219.452)" fill="#6d6afd" fill-rule="evenodd" opacity="0.25"/>
              <path id="Path_13252" data-name="Path 13252" d="M535.495,243.193c.229-1.695,1.514-2.442,2.866-1.665,19.771,10.669,52.181,28.076,71.951,38.744a4.766,4.766,0,0,1,2.034,4.478L611.9,288.1c-.231,1.694-1.516,2.441-2.868,1.665-19.77-10.67-52.181-28.076-71.951-38.746a4.76,4.76,0,0,1-2.034-4.476Z" transform="translate(-535.011 -224.265)" fill="#6d6afd" fill-rule="evenodd" opacity="0.25"/>
            </g>
            <path id="Path_13253" data-name="Path 13253" d="M623.263,154.72l-9.013,66.831,17.23,9.655,9.013-66.832-17.229-9.654ZM574.233,105.4l-12.088,89.459,17.23,9.654,12.088-89.459-17.23-9.654ZM598,135.192l17.23,9.655-10.009,74.148-17.229-9.655L598,135.192Zm-52.684-21.648,17.23,9.655-9.014,66.832L536.3,180.375Z" transform="translate(-526.412 -87.423)" fill="#fff" fill-rule="evenodd"/>
            <g id="Group_6435" data-name="Group 6435" transform="translate(14.901 50.211)">
              <path id="Path_13254" data-name="Path 13254" d="M543.044,148.886a1.144,1.144,0,0,1,.321-1.717,1.571,1.571,0,0,1,1.989-.056l15.486,15.431,8.086,3.08,18.882-5.019L600.6,147.573a1.69,1.69,0,0,1,2.017-.349.982.982,0,0,1,.272.264l22.471,26.472,15.462,2.867c.783-.076,1.368.4,1.307,1.065a1.672,1.672,0,0,1-1.529,1.344l-16.148-2.8a1.263,1.263,0,0,1-1.147-.386L601.36,150.214,589.5,162.29l0,0a1.842,1.842,0,0,1-.847.488l-19.9,5.289a1.557,1.557,0,0,1-.948-.029l-8.66-3.3a1.071,1.071,0,0,1-.469-.27Z" transform="translate(-542.744 -146.785)" fill="#b73f83" fill-rule="evenodd" opacity="0.5"/>
              <path id="Path_13255" data-name="Path 13255" d="M542.989,149.238a1.493,1.493,0,0,1,.36-2.013,1.392,1.392,0,0,1,1.988-.043l15.1,18.323,8,3.717,18.971-5.673,13.077-15.164a1.513,1.513,0,0,1,2.021-.386,1.056,1.056,0,0,1,.267.314l20.582,30.512L641,176.969a1.117,1.117,0,0,1,1.281,1.267,1.818,1.818,0,0,1-1.559,1.56l-18.332,1.929a1.15,1.15,0,0,1-1.136-.466L601.18,151.5,589.064,165.55l0,0a1.83,1.83,0,0,1-.855.563l-19.992,5.979a1.335,1.335,0,0,1-.944-.046l-8.57-3.982a1.056,1.056,0,0,1-.463-.323Z" transform="translate(-542.735 -146.785)" fill="#fff" fill-rule="evenodd"/>
            </g>
          </g>
        </g>
        <g id="Group_6441" data-name="Group 6441" transform="translate(4.022)">
          <path id="Path_13256" data-name="Path 13256" d="M289.689,102.106l32.612,14.9c7.783,4.483,10.113,18.968,8.838,28.639L324.513,194.2c-1.276,9.672-8.634,13.887-16.419,9.4l-29.552-17.842,1.171-8.04Z" transform="translate(-198.557 -55.562)" fill-rule="evenodd" opacity="0.5" fill="url(#linear-gradient-12)"/>
          <g id="Group_6440" data-name="Group 6440">
            <path id="Path_13257" data-name="Path 13257" d="M185.675,53.154c.429-3.254-.461-5.22,1.161-7.061,1.034-1.171,4.3-2.68,5.66-3.191,2.64-.989,5.789-.679,9.016,1.179l93.236,54.206c7.508,4.324,12.609,15.412,11.379,24.743l-6.392,46.84c-.38,2.892-1.464,6.623-3.942,8.752a15.369,15.369,0,0,1-6.8,3.35c-2.135.267-2.7-1.651-5.094-3.03l-93.235-54.206c-7.518-4.329-12.609-15.413-11.379-24.743Z" transform="translate(-176.571 -42.351)" fill="#d0e7ff" fill-rule="evenodd"/>
            <path id="Path_13258" data-name="Path 13258" d="M182.432,55.063c1.229-9.33,8.32-13.4,15.836-9.072L291.5,100.2c7.51,4.324,12.61,15.412,11.379,24.743l-6.391,46.841c-1.23,9.329-8.33,13.4-15.839,9.072l-93.234-54.206c-7.518-4.328-12.611-15.414-11.381-24.743Z" transform="translate(-175.854 -42.773)" fill="#fff" fill-rule="evenodd"/>
            <path id="Path_13259" data-name="Path 13259" d="M184.141,55.063c1.229-9.331,8.32-13.4,15.836-9.072L293.213,100.2c7.509,4.324,12.61,15.413,11.38,24.742l-.6,4.4a24.377,24.377,0,0,0-2.516-1.672L183.586,59.125Z" transform="translate(-177.563 -42.773)" fill-rule="evenodd" fill="url(#linear-gradient-13)"/>
            <g id="Group_6438" data-name="Group 6438" transform="translate(4.914 40.613)">
              <path id="Path_13260" data-name="Path 13260" d="M200.284,94.853c9.5,2.161,16.788,13.408,16.289,25.121s-8.6,19.456-18.1,17.294-16.789-13.407-16.289-25.12S190.787,92.692,200.284,94.853Z" transform="translate(-182.162 -94.491)" fill="#6d6afd" fill-rule="evenodd" opacity="0.2"/>
              <path id="Path_13261" data-name="Path 13261" d="M202.12,107.448c5.12,1.165,9.051,7.23,8.784,13.544s-4.638,10.489-9.758,9.324-9.051-7.228-8.783-13.543,4.637-10.489,9.758-9.325Zm-.228,5.362c-2.72-.619-5.041,1.6-5.183,4.953s1.947,6.574,4.666,7.193,5.039-1.6,5.182-4.952S204.61,113.428,201.891,112.81Z" transform="translate(-184.415 -97.313)" fill-rule="evenodd" fill="url(#linear-gradient-14)"/>
              <path id="Path_13262" data-name="Path 13262" d="M233.457,123.087c.327-2.49,2.215-3.547,4.217-2.355l60.882,34.335a7.223,7.223,0,0,1,3.028,6.668l-.637,4.924c-.328,2.491-2.218,3.547-4.218,2.356l-60.882-34.335a7.22,7.22,0,0,1-3.029-6.669Z" transform="translate(-193.352 -100.185)" fill="#6d6afd" fill-rule="evenodd" opacity="0.2"/>
              <path id="Path_13263" data-name="Path 13263" d="M230.534,146.677c.194-1.47,1.309-2.094,2.491-1.39l35.952,20.274a4.267,4.267,0,0,1,1.788,3.938l-.375,2.909c-.2,1.469-1.312,2.093-2.492,1.391l-35.952-20.276a4.265,4.265,0,0,1-1.788-3.937Z" transform="translate(-192.768 -105.658)" fill="#6d6afd" fill-rule="evenodd" opacity="0.2"/>
            </g>
            <g id="Group_6439" data-name="Group 6439" transform="translate(12.798 8.102)">
              <path id="Path_13264" data-name="Path 13264" d="M196.235,52.831c2.07.471,3.659,2.922,3.55,5.474s-1.875,4.241-3.944,3.77-3.659-2.922-3.551-5.475S194.167,52.36,196.235,52.831Z" transform="translate(-192.284 -52.752)" fill="#fff" fill-rule="evenodd"/>
              <path id="Path_13265" data-name="Path 13265" d="M208.336,59.743c2.07.47,3.66,2.922,3.551,5.476s-1.875,4.24-3.946,3.769-3.659-2.922-3.55-5.474S206.266,59.272,208.336,59.743Z" transform="translate(-194.96 -54.28)" fill="#fff" fill-rule="evenodd"/>
              <path id="Path_13266" data-name="Path 13266" d="M221.429,67.336c2.07.47,3.66,2.922,3.551,5.476s-1.875,4.241-3.946,3.769-3.659-2.923-3.549-5.475S219.359,66.865,221.429,67.336Z" transform="translate(-197.855 -55.959)" fill="#fff" fill-rule="evenodd"/>
            </g>
          </g>
        </g>
      </g>
    </g>
    <g id="Group_6470" data-name="Group 6470" transform="translate(2.451 181.395)">
      <g id="Group_6457" data-name="Group 6457">
        <path id="Path_13267" data-name="Path 13267" d="M8.832,631.012l67.474-38.223c7.356-3.343,17.883-6,25.378-2.124,6.828,3.533,18.077,10.768,23.05,13.59,3.779,2.143,16.893,9.958,8.724,14.376-24.027,13-47.807,27.612-72.206,40.814-4.614,2.5-11.364,3.4-18.451,2.814a49.046,49.046,0,0,1-19.985-5.919q-6.083-3.519-11.965-6.927c-5.293-3.066-8.1-6.69-8.377-10.043C2.2,636.1,4.317,633.064,8.832,631.012Z" transform="translate(-2.451 -310.731)" fill="#d99cc0" fill-rule="evenodd" opacity="0.5"/>
        <g id="Group_6456" data-name="Group 6456" transform="translate(8.842)">
          <g id="Group_6447" data-name="Group 6447" transform="translate(61.497 44.965)">
            <g id="Group_6445" data-name="Group 6445" transform="translate(78.291 26.315)">
              <path id="Path_13268" data-name="Path 13268" d="M211.711,329.712a11.527,11.527,0,0,1-1.588-.374c.581-.079,1.058-.156,1.39-.221a47.328,47.328,0,0,0,6.463-4.09c-1.943-3.912-6.764.149-7.7.224-.371.03-2.884-.414-5.323-.526-3.47-.159-5.671.574-8.052,3.194-1.108.774-2.356,1.718-3.627,2.716.3,3.267.716,6,2.724,8.838a6.365,6.365,0,0,1,1.885-.523c2.467-.258,4.834.305,10.279,2.1,5.522,1.824,6.5,1.766,15.026-4.337,6.243-4.471,9.647-6.974,8.58-10.257C229.267,318.781,219.412,328.64,211.711,329.712Z" transform="translate(-193.27 -323.329)" fill="#ffa698" fill-rule="evenodd"/>
              <g id="Group_6444" data-name="Group 6444" transform="translate(1.333 3.171)">
                <path id="Path_13269" data-name="Path 13269" d="M211.386,339.049c-5.31-.838-9.02-5.213-13.371-2.656-1.1.644-2.092,1.281-3.034,1.924a13.225,13.225,0,0,0,1.39,2.479,6.364,6.364,0,0,1,1.885-.523c2.467-.258,4.834.306,10.279,2.1,5.522,1.824,6.5,1.766,15.026-4.337,4.194-3,7.106-5.118,8.242-7.178.556-1.007-1.072-2.143-2.409-1.193C222.524,334.557,219.088,337.978,211.386,339.049Z" transform="translate(-194.982 -327.823)" fill-rule="evenodd" fill="url(#linear-gradient-15)"/>
                <path id="Path_13270" data-name="Path 13270" d="M231.145,327.4c-2.33,1.764-14.568,7.378-17.437,6.806-.768-.154-.648-1.636-.724-3.462-.589,1.215.137,3.941-1.034,3.347-6.563-3.321-9.4-3.932-13.195-1.538a13.655,13.655,0,0,1,7.5.535c2.287.766,4.406,2.105,6.827,2.761C219.436,333.986,223.294,333.342,231.145,327.4Z" transform="translate(-195.816 -327.4)" fill-rule="evenodd" fill="url(#linear-gradient-16)"/>
              </g>
            </g>
            <g id="Group_6446" data-name="Group 6446">
              <path id="Path_13271" data-name="Path 13271" d="M120.01,352.81c-1.323-1.285-2.585-2.654-3.448-3.45-6.662-6.152-17.629-26.117-23.806-55.849,2.232-1.806,8.838-3.512,10.029-3.745a12.367,12.367,0,0,1,11.1,3.481c2.763,3.246,5.585,9.171,7.313,18.634,1.168,6.381,5.949,14.908,9.178,22.795q.213.522.416,1.038a150.728,150.728,0,0,1,14.21-6.4c6.43-2.557,13.762-4.963,21.7-7.257.947-.273,1.823.345,2.76.079.52-.225,2.852-1.044,3.268-1.239a16.548,16.548,0,0,0,3.89,11.451c-.482.163-3.039,1.335-3.562,1.527a11.161,11.161,0,0,0-2.279,2.173c-5.972,6.132-23.2,15.314-39.05,20.133C126.345,357.818,122.284,356.926,120.01,352.81Z" transform="translate(-92.756 -289.545)" fill-rule="evenodd" fill="url(#linear-gradient-17)"/>
              <path id="Path_13272" data-name="Path 13272" d="M120.01,352.993c-1.323-1.285-2.585-2.654-3.448-3.45-6.662-6.152-17.629-26.117-23.806-55.849,13.28-10.749,25.995,7,28.17,18.909,2.819,15.424,5.575,28.587,5.721,44.524A7.52,7.52,0,0,1,120.01,352.993Z" transform="translate(-92.756 -289.728)" fill="#ff8f00" fill-rule="evenodd" opacity="0.35"/>
            </g>
          </g>
          <g id="Group_6448" data-name="Group 6448" transform="translate(22.94 130.03)">
            <path id="Path_13273" data-name="Path 13273" d="M47.769,618.056c-.367,1.324-.162,2.427-.817,4.166a48.13,48.13,0,0,0-2.153,6.693c-1.1,4.664.414,10.91-1.074,17.507-.768,2.639-.711,4.751,1.052,7.082,1.727,2.283,4.978,5.943,9.216,5.805a6.368,6.368,0,0,0,4.47-2.158,10.583,10.583,0,0,0,2.671-7.82,64.467,64.467,0,0,1-.7-9c.109-3.23.7-5.01.629-8.552-.08-3.744-.369-8.9-.427-11.317Z" transform="translate(-43.255 -447.242)" fill="#193161" fill-rule="evenodd"/>
            <path id="Path_13274" data-name="Path 13274" d="M96.515,592.391c-1.228,3.319-2.037,4.737-2.093,9.367.753,2.447,2.485,3.439,4.414,5.128l1.359.3c3.373,1.815,4.606,8.182,7.736,11.079,2.207,2.045,6.6,3.158,10.962,3.995,4.662.9,9.091-.43,7.877-4.076-3.014-9.059-16.046-19.291-16.344-29.412Z" transform="translate(-54.567 -440.767)" fill="#193161" fill-rule="evenodd"/>
            <path id="Path_13275" data-name="Path 13275" d="M112.839,485.812c-.335,17.355-4.137,49.833-3.557,66.936-4.457,4.445-13.383,3.07-16.284-1.48-1.81-15.736-3.92-38.092-4.128-46.728a66.624,66.624,0,0,1,2.32-20.249C88.6,465.3,77.574,439.39,80.2,421.524c1.153-7.847,6.322-16.294,7.828-22.768,13,15.936,22.913,8.3,28.295,6.914-.032,5.507.388,4.771.209,10.558-.606,19.569-1.522,40.464-2.6,60.77A27.657,27.657,0,0,1,112.839,485.812Z" transform="translate(-51.334 -398.756)" fill-rule="evenodd" fill="url(#linear-gradient-18)"/>
            <path id="Path_13276" data-name="Path 13276" d="M90,521c-.609-6.834-1.043-12.783-1.132-16.461a66.629,66.629,0,0,1,2.32-20.25C88.6,465.3,77.574,439.39,80.2,421.524c1.153-7.847,6.322-16.294,7.827-22.768,13,15.936,22.914,8.3,28.295,6.914,0,.614,0,1.15.005,1.626L99.284,419.823l4.2-.943c-.16,22.55-2.965,43.108-3.386,65.347-4.4,12.612-6.986,23.382-10.025,36.38Z" transform="translate(-51.334 -398.756)" fill="#1e2353" fill-rule="evenodd" opacity="0.3"/>
            <path id="Path_13277" data-name="Path 13277" d="M76.721,499.762c-3.133,17.354-12.277,59.47-14.454,76.572-5.63,3.11-12.821,1.486-14.81-3.062-.065-15.737,0-44.04,1.182-52.675.985-7.187,3.542-18.275,6.429-24.728-1.154-40.548-5.708-51.356-.2-69.221,2.418-7.847,8.748-15.418,11.3-21.892,3.491,5.331,8.876,12.9,20.412,11.962,1.129-.091,10.748-6.927,13.924-7.711-4.025,24.123-15.624,55.633-21.268,81.942A30.353,30.353,0,0,1,76.721,499.762Z" transform="translate(-44.18 -400.083)" fill-rule="evenodd" fill="url(#linear-gradient-19)"/>
          </g>
          <path id="Path_13278" data-name="Path 13278" d="M92.77,289.18a9.669,9.669,0,0,1,3.6,1.205c8.582,4.74,11.574,18.69,12.952,30.911,1.2,10.6.288,19.4-.049,29.1-.271,7.737.733,14.9.384,22.22-.1,2.17-.931,4.523-1.155,6.832.007,1.652-.582,3.294-.562,4.569-4.3,16.3-44.909,17.646-50.821,6.612a32.317,32.317,0,0,0,1.042-4.936c-3.824-3.462-1.615-11.906-2.218-17.8-.453-4.429-1.091-8.944-2.409-12.173-5.523-13.532-13.234-23.951-14.767-34.339-1.055-7.154,8.139-16.063,20.261-23.279C70.692,291.158,86.523,287.368,92.77,289.18Z" transform="translate(-19.304 -244.4)" fill-rule="evenodd" fill="url(#linear-gradient-20)"/>
          <g id="Group_6452" data-name="Group 6452" transform="translate(28.189 74.417)">
            <g id="Group_6451" data-name="Group 6451" transform="translate(1.561)">
              <g id="Group_6449" data-name="Group 6449" transform="translate(0 0.765)">
                <path id="Path_13279" data-name="Path 13279" d="M112.308,330.425c-4.314,4.35-30.888,29.609-60.311,23.117l.3-1.991c31.009,6.842,59.011-23.126,59.092-23.212l.757.721c.039.332.079.664.115.994Q112.287,330.24,112.308,330.425Z" transform="translate(-51.997 -328.339)" fill="#b73f83" fill-rule="evenodd"/>
                <path id="Path_13280" data-name="Path 13280" d="M114.2,350.3c-7.274,6.817-29.9,25.58-55.207,21.94-.175-.744-.368-1.459-.584-2.134,26.956,4.362,51.118-18.079,55.859-22.8Q114.25,348.806,114.2,350.3Z" transform="translate(-53.416 -332.531)" fill="#b73f83" fill-rule="evenodd"/>
              </g>
              <path id="Path_13281" data-name="Path 13281" d="M57.553,363.887l5.229-10.822,7.007,11.759,6.037-14.317,8.3,11.04,4.3-15.379,8.764,9.409,3.989-17.5,6.538,9.815,5.484-20.536q.162,1.246.3,2.479c.033.292.064.583.094.872L108.225,350.8l-6.466-9.706-3.868,16.971-8.846-9.495-4.374,15.666-8.5-11.309L70.017,367.52l-7.08-11.881-4.772,9.875q-.215-.654-.459-1.255C57.656,364.135,57.6,364.012,57.553,363.887Z" transform="translate(-53.226 -327.357)" fill="#b73f83" fill-rule="evenodd"/>
              <g id="Group_6450" data-name="Group 6450" transform="translate(2.098 11.12)">
                <path id="Path_13282" data-name="Path 13282" d="M64.594,371.826a1.147,1.147,0,0,1,1.033,1.142.966.966,0,0,1-1.033,1,1.148,1.148,0,0,1-1.034-1.143A.966.966,0,0,1,64.594,371.826Z" transform="translate(-56.652 -348.308)" fill="#b73f83" fill-rule="evenodd"/>
                <path id="Path_13283" data-name="Path 13283" d="M72.594,363.747a1.146,1.146,0,0,1,1.033,1.142.965.965,0,0,1-1.033,1,1.146,1.146,0,0,1-1.033-1.143A.965.965,0,0,1,72.594,363.747Z" transform="translate(-58.421 -346.522)" fill="#b73f83" fill-rule="evenodd"/>
                <path id="Path_13284" data-name="Path 13284" d="M81.942,369.731a1.147,1.147,0,0,1,1.031,1.143.966.966,0,0,1-1.031,1,1.148,1.148,0,0,1-1.033-1.143A.967.967,0,0,1,81.942,369.731Z" transform="translate(-60.488 -347.845)" fill="#b73f83" fill-rule="evenodd"/>
                <path id="Path_13285" data-name="Path 13285" d="M89.854,359.311a1.147,1.147,0,0,1,1.033,1.143.966.966,0,0,1-1.033,1,1.148,1.148,0,0,1-1.033-1.143A.966.966,0,0,1,89.854,359.311Z" transform="translate(-62.237 -345.542)" fill="#b73f83" fill-rule="evenodd"/>
                <path id="Path_13286" data-name="Path 13286" d="M99.767,363.218a1.148,1.148,0,0,1,1.034,1.143.967.967,0,0,1-1.034,1,1.149,1.149,0,0,1-1.033-1.143A.967.967,0,0,1,99.767,363.218Z" transform="translate(-64.429 -346.405)" fill="#b73f83" fill-rule="evenodd"/>
                <path id="Path_13287" data-name="Path 13287" d="M105.68,351.7a1.148,1.148,0,0,1,1.033,1.143.966.966,0,0,1-1.033,1,1.147,1.147,0,0,1-1.033-1.143A.967.967,0,0,1,105.68,351.7Z" transform="translate(-65.736 -343.859)" fill="#b73f83" fill-rule="evenodd"/>
                <path id="Path_13288" data-name="Path 13288" d="M115.68,354.145a1.147,1.147,0,0,1,1.033,1.142.965.965,0,0,1-1.033,1,1.148,1.148,0,0,1-1.033-1.142A.967.967,0,0,1,115.68,354.145Z" transform="translate(-67.947 -344.399)" fill="#b73f83" fill-rule="evenodd"/>
                <path id="Path_13289" data-name="Path 13289" d="M120.984,341.636a1.146,1.146,0,0,1,1.033,1.142.967.967,0,0,1-1.033,1,1.148,1.148,0,0,1-1.033-1.143A.966.966,0,0,1,120.984,341.636Z" transform="translate(-69.119 -341.634)" fill="#b73f83" fill-rule="evenodd"/>
                <path id="Path_13290" data-name="Path 13290" d="M129.506,342.957a1.052,1.052,0,0,1,.258.052q.014,1.041.009,2.069a1.006,1.006,0,0,1-.267.016,1.147,1.147,0,0,1-1.033-1.142A.966.966,0,0,1,129.506,342.957Z" transform="translate(-71.004 -341.926)" fill="#b73f83" fill-rule="evenodd"/>
                <path id="Path_13291" data-name="Path 13291" d="M55.724,364.016a1.146,1.146,0,0,1,1.034,1.142.967.967,0,0,1-1.034,1,1.147,1.147,0,0,1-1.033-1.142A.964.964,0,0,1,55.724,364.016Z" transform="translate(-54.691 -346.582)" fill="#b73f83" fill-rule="evenodd"/>
              </g>
            </g>
            <path id="Path_13292" data-name="Path 13292" d="M61.031,337.156c1.549,8.347-.409,22.483-4.545,29.956a94.791,94.791,0,0,0-6.494-13.717C50.229,352.751,59.118,326.833,61.031,337.156Z" transform="translate(-49.993 -328.987)" fill="#ff8f00" fill-rule="evenodd" opacity="0.35"/>
          </g>
          <g id="Group_6453" data-name="Group 6453" transform="translate(0 66.966)">
            <path id="Path_13293" data-name="Path 13293" d="M58.576,418.654c1.879.972,5.239,1.82,6.613,2.522.711.363,5.822,3.087,8.7,4.757,3.083,1.785,4.1,4.581,6.072,7.635a19.868,19.868,0,0,1,2.363,5.614c.275,1.321-2.968,4.108-4.438,3.882-3.338-.512-6.959-4.315-7.855-4.707-7.619-3.329-11.174-3.478-14.036-6.333-1.221-1.217-2.164-4.951-4.731-8.194l4.255-4.362Z" transform="translate(-22.086 -340.091)" fill-rule="evenodd" fill="url(#linear-gradient-21)"/>
            <path id="Path_13294" data-name="Path 13294" d="M32.636,322.849c-6.791,10.814-11.677,30.488-17.7,43.813a8.554,8.554,0,0,0-.782,2.832c-1.117,3.308.627,6.073,2.933,9.016,5.643,7.2,10.152,13.7,21.77,22.309.87.644,1.791.637,3.042.892.728.525,1.763,1.489,2.539,2.038-.991-1.115,4.1-7.442,6.611-7.211-.69-.745-1.4-1.556-2.117-2.417a7.549,7.549,0,0,0-.718-2.78c-2.03-3.879-8.855-13.441-15.38-20.259,2.7-3.5,4.983-7.562,6.868-10.434a172.676,172.676,0,0,0,8.974-15.442c1.055-2.038,1.645-3.046,2.659-5.141C58.866,324.509,40.87,309.732,32.636,322.849Z" transform="translate(-13.803 -317.791)" fill-rule="evenodd" fill="url(#linear-gradient-22)"/>
          </g>
          <g id="Group_6455" data-name="Group 6455" transform="translate(45.326)">
            <g id="Group_6454" data-name="Group 6454">
              <path id="Path_13295" data-name="Path 13295" d="M94.839,293.857c.122-.652.28-1.3.42-2,.4-2-.12-5.868.415-10.436l-17.39-7.308c-.291,9.713-1.889,11.716-3.687,19.63.194,7.782,19.627,11.265,20.035,2.123A14.077,14.077,0,0,1,94.839,293.857Z" transform="translate(-72.57 -241.168)" fill="#ffa698" fill-rule="evenodd"/>
              <path id="Path_13296" data-name="Path 13296" d="M95.764,293.857c.122-.652.28-1.3.42-2,.4-2-.12-5.868.415-10.436l-17.39-7.308c-.067,2.2-.2,4.021-.388,5.6-.619,6.433,5.581,17.638,16.735,16.152A14.083,14.083,0,0,1,95.764,293.857Z" transform="translate(-73.495 -241.168)" fill-rule="evenodd" fill="url(#linear-gradient-23)"/>
              <path id="Path_13297" data-name="Path 13297" d="M96.059,285.886c-2.134-1.4-7.967-4.925-9.878-6.32-4.181-3.051-3.674-6.943-4.885-13.042-3.909-2.78-5.223-4.985-5.573-7.479-.83-5.918,2.561-12.3,7.1-15.78a15.858,15.858,0,0,1,13.677-2.78c9.979,2.174,14.09,9.685,14.617,18.269a5.743,5.743,0,0,1-.28,2.132,26.829,26.829,0,0,0-.923,3.189c-.526,2.547,1.2,3.47.514,6.634-.939,4.3-4.528,12.7-6,14.106C103.3,285.894,98.262,286.244,96.059,285.886Z" transform="translate(-72.792 -233.63)" fill="#ffa698" fill-rule="evenodd"/>
              <path id="Path_13298" data-name="Path 13298" d="M115.154,259.271a27.69,27.69,0,0,1,.48,3.741,5.743,5.743,0,0,1-.28,2.132,26.831,26.831,0,0,0-.923,3.189c-.526,2.547,1.2,3.47.514,6.634a51.04,51.04,0,0,1-2.7,7.908c-6.424,4.86-12.043-1.076-12.9-2.178-4.025-5.164-4.335-12.889-1.289-20.1C102.688,262.141,110.267,261.835,115.154,259.271Z" transform="translate(-77.305 -237.887)" fill-rule="evenodd" fill="url(#linear-gradient-24)"/>
              <path id="Path_13299" data-name="Path 13299" d="M72.134,254.435c.266,3.281,2.849,11.712,4.8,14.838,2.026,3.24,1.144-.73,2.211-2.947.82-1.705,3.477-1.9,4.28-3.66.392,1.493.918,2.949,1.886,3.474.616.334,1.863.793,1.912-.969.171-6.09,3.067-6.514,2.154-10.163-.686-2.736-.521-3.912.152-4.9,2,.278,3.285,2.314,5.626,3.32,1.629.7,8.812,1.457,13.916-1.317,4.935-2.681,5.4-8.659,1.251-12.5-2.307-2.137-4.894-2.679-8.514-5.088a15.756,15.756,0,0,0-20.2,2.126C72.531,238.477,71.54,247.1,72.134,254.435Z" transform="translate(-71.995 -231.817)" fill="#562e65" fill-rule="evenodd"/>
              <path id="Path_13300" data-name="Path 13300" d="M83.437,267.338c-3.764-1.7-4.229,2.772-3.893,5.543.232,1.9,1.792,1.916,2.207,3.44a3.548,3.548,0,0,0,2.955,2.85c2.378.166,1.255-3.48,1.11-4.9C86.316,272.022,85.826,268.416,83.437,267.338Z" transform="translate(-73.644 -239.588)" fill="#ffa698" fill-rule="evenodd"/>
            </g>
            <path id="Path_13301" data-name="Path 13301" d="M97.812,249.469c-.366,2.543,2.924,5.535,7.552,5.786,4.289.234,10.1-.774,12.253-5.957a5.891,5.891,0,0,0-2.253-6.4c-1.435-.912-3.272-.792-5.143.025-3.171,1.385-5.817,4.909-8.085,5.776C99.978,249.524,97.85,249.2,97.812,249.469Z" transform="translate(-77.697 -234.127)" fill-rule="evenodd" fill="url(#linear-gradient-25)"/>
          </g>
        </g>
      </g>
      <g id="Group_6469" data-name="Group 6469" transform="translate(398.188 74.609)">
        <g id="Group_6458" data-name="Group 6458" transform="translate(72.667)">
          <path id="Path_13302" data-name="Path 13302" d="M627.363,329.536c-5.665-.872-10.141,3-12.409,8.179a30.394,30.394,0,0,0-1.388,18c3.692,13.365-2.812,19.187-5.2,25.413a27.014,27.014,0,0,0-1.381,10.3c.161,4.788,2.935,7.252,5.258,11.538a37.7,37.7,0,0,0,3.386,11.849c6.373,12.678,27.812,18.8,48.39,17.862,16.467-.749,32.385-6.547,39.591-13.208,7.909-7.311,8.932-25.874-4.353-27.764-3.094-.44-6.7-1.109-9.34-4.294-1.816-2.191-.06-7.962.376-15.647.423-7.442-1.285-15.272-12.161-17.884-4.166-1-8.226-1.412-11.7-3.682-7.6-4.959-4.816-14.171-13.054-19.593-4.974-3.274-12.98-3.986-21.72-1.571C630.24,329.2,628.81,329.378,627.363,329.536Z" transform="translate(-606.959 -327.604)" fill-rule="evenodd" fill="url(#linear-gradient-26)"/>
          <path id="Path_13303" data-name="Path 13303" d="M623.137,339.078c-.472,3.634.866,6.8,3.036,9.843,5.062,7.107,7.723,6.551,10.492,15.6,4.556-3.024,7.681-3.485,9-.516,2.112,4.775.779,7.6,1.271,12.539.8,8.029,10.448-2.976,18.014,3.176,7.437,6.05,2.334,10.3,5.208,18.86,1.074,3.206,1.909,7.419,4.917,8.836,9.355,4.407,12.94,15.5-3.716,21-10.318,3.411-25.3,2.557-37.82-1.688-16.529-5.6-26.723-29.859-22.505-41.379,1.746-4.769,6.46-8.33,6.484-12.055C617.595,360.5,615.111,352.293,623.137,339.078Z" transform="translate(-607.649 -330.141)" fill="#22043d" fill-rule="evenodd"/>
        </g>
        <g id="Group_6460" data-name="Group 6460" transform="translate(0 18.596)">
          <g id="Group_6459" data-name="Group 6459">
            <path id="Path_13304" data-name="Path 13304" d="M530.158,353.64c-2.521.814-1.184,3.722-.215,4.545,1.455,1.436,4.386,2.366,4.133,3.874-.284,1.692,9.184,4.952,9.161,4.815a17.178,17.178,0,0,0-4.363-7.633C533.791,355.882,534.371,358.037,530.158,353.64Z" transform="translate(-516.991 -351.957)" fill-rule="evenodd" fill="url(#linear-gradient-27)"/>
            <path id="Path_13305" data-name="Path 13305" d="M533.457,372.579c5.439,7.219,9.741,21.158,15.2,27.656,1.724,2.051,4.283,5.433,7.275,4.916,15.492-2.674,1.391-8.639,3.043-12.84-2.606-9.055-13.677-14.125-18.228-24.141a18.217,18.217,0,0,0-.83-2.028c-1.877-3.807-3.668-4.97-10.953-6.339a7.733,7.733,0,0,1-4.143-2.154l-4.775-4.7c-1.578-1.293-2.909-1.693-3.567-1.356-.733.375-2.708,4.144-2.766,6.176v.007c-.269.768.573,2.147,2.441,3.606l5.929,8.239.518.071C529.211,370.591,531.841,371.222,533.457,372.579Z" transform="translate(-513.665 -351.479)" fill="#ffa698" fill-rule="evenodd"/>
          </g>
          <path id="Path_13306" data-name="Path 13306" d="M563.807,412.961c10.708-1.053,26.051-2.743,34.34-6.994,5.387-2.763,15.106-14.627,9.634-21.217-1.155-3.088-11.49,3.395-16.578,5.318a203.477,203.477,0,0,1-24.795,7.526c-2.592-7.219-9.427-12.931-14.837-19.646a8.293,8.293,0,0,0-3-2.419,12.95,12.95,0,0,1-1.7-2.569c-.913-.37-6.723,2.031-8.241,4.9.416.552,1.317,1.807,1.721,2.423.578.878.446,1.966.905,2.978,1.562,3.44,8.962,18.4,13.877,24.252,1.872,2.227,4.612,6.164,7.861,5.6C563.272,413.06,563.542,413.011,563.807,412.961Z" transform="translate(-519.184 -356.22)" fill-rule="evenodd" fill="url(#linear-gradient-28)"/>
          <path id="Path_13307" data-name="Path 13307" d="M569.029,416.356c10.708-1.053,26.051-2.743,34.34-6.994,4.654-2.387,12.539-11.566,11.071-18.269-2-1.879-3.213-2.885-4.916-2.811-2.131.093-4.712,2.377-9.642,4.91-7.46,3.834-14.478,4.04-20.246,10.833-4.257,5.014-11.363,9.344-17.393,9.155,1.655,1.892,3.687,3.717,5.969,3.322C568.494,416.455,568.764,416.407,569.029,416.356Z" transform="translate(-524.406 -359.615)" fill="#fb6b43" fill-rule="evenodd" opacity="0.5"/>
        </g>
        <path id="Path_13308" data-name="Path 13308" d="M581.888,735.983l67.477-38.227c7.356-3.342,17.884-6,25.379-2.124,6.828,3.536,18.078,10.77,23.051,13.592,3.779,2.143,16.893,9.958,8.725,14.376-24.029,13-47.809,27.614-72.21,40.816-4.614,2.5-11.365,3.4-18.452,2.814a49.048,49.048,0,0,1-19.985-5.921q-6.081-3.517-11.966-6.926c-5.293-3.066-8.1-6.691-8.377-10.043C575.258,741.068,577.372,738.032,581.888,735.983Z" transform="translate(-527.338 -408.548)" fill="#b73f83" fill-rule="evenodd" opacity="0.5"/>
        <g id="Group_6465" data-name="Group 6465" transform="translate(73.451 124.099)">
          <g id="Group_6462" data-name="Group 6462">
            <g id="Group_6461" data-name="Group 6461" transform="translate(34.013 148.675)">
              <path id="Path_13309" data-name="Path 13309" d="M671.7,677.806a7.4,7.4,0,0,0,.834,4.151c3.912,5.651-.748,5.174-.542,13.238.018.739-3.294,13.48-3.294,13.48s-7.8,1.88-8.384,1.778-5.322-1.924-5.322-1.924c.4-.69.931-2.372,1.257-3,2.246-4.354,3.436-9.634,4.3-14.938.574-3.505,1.65-8.954.923-12.633Z" transform="translate(-652.376 -677.806)" fill="#ffa698" fill-rule="evenodd"/>
              <path id="Path_13310" data-name="Path 13310" d="M654,709.477a34.249,34.249,0,0,0-2.194,5.136,2.421,2.421,0,0,0,.106,2.085c1.784,2.554,11.291-1.679,14.522-4.328,2.086-1.71,2.195-3.812,2.757-6.367.845-3.834.982-4.263,2.044-8.194l.688,10.792.874.568a119.21,119.21,0,0,1,1.811-13.881c.32-1.484.842-3.17.935-3.993a8.524,8.524,0,0,0-3.973-8.783c.718,2.99-1.945,7.736-3.132,13.771C667,703.585,660.517,709.522,654,709.477Z" transform="translate(-651.632 -678.846)" fill="#161f69" fill-rule="evenodd"/>
            </g>
            <path id="Path_13311" data-name="Path 13311" d="M609.9,486.929c.74,3.315-2.664,14.759-1.794,19.162.83,14.489,3.388,26.751,13.2,55.728.005.33,8.967,18.05,9.568,19.9,6.112,18.9,13.729,39.427,20.2,58.526,2.4,1.846,9.661,1.273,10.593-3.22-2-19.079.18-37.889-3.109-50.942-2.506-9.947-5.792-14.483-11.166-21.853-1.651-18.75-2.842-56.362-7.132-70.779Z" transform="translate(-607.965 -486.929)" fill-rule="evenodd" fill="url(#linear-gradient-29)"/>
            <path id="Path_13312" data-name="Path 13312" d="M610.452,486.929c.74,3.315,2.937,9.453,3.807,13.854,2.738,6.671,8.5,15.8,12.4,23.471,1.165,9.3.84,21.659,6.677,38.892l5.283,39.84c4.349,12.478,8.913,25.157,13.018,37.264,2.4,1.846,9.661,1.273,10.593-3.22-2-19.079.18-37.889-3.109-50.942-2.506-9.947-5.792-14.483-11.166-21.853-1.651-18.75-2.842-56.362-7.132-70.779Z" transform="translate(-608.515 -486.929)" fill="#1e2353" fill-rule="evenodd" opacity="0.3"/>
          </g>
          <g id="Group_6464" data-name="Group 6464" transform="translate(5.771 8.477)">
            <g id="Group_6463" data-name="Group 6463" transform="translate(22.059 158.614)">
              <path id="Path_13313" data-name="Path 13313" d="M661.784,702.367c-.184,1.761.633,3.543.839,5.3a61.126,61.126,0,0,1,.58,9.377,83.113,83.113,0,0,1-2.1,16.861c-.541,2.346-1.591,3.351-2.3,6.566l-13.9,2.256c1.368-5.233,3.253-15.829,4.673-24.7l2.657-16.582Z" transform="translate(-643.96 -701.449)" fill="#ffa698" fill-rule="evenodd"/>
              <path id="Path_13314" data-name="Path 13314" d="M662.228,708.242c.8,2.776,1.724,4.257,1.845,8.045s-1.638,9.707-1.49,14.394l.233,7.443c.136,4.334-.971,7.342-5.922,10.924-4.487,3.249-8.859,4.579-11.236,3.425-1.751-.85-3.148-3.917-.466-12.011,2.235-6.744,2.81-13.332,4.124-20.648-.461,7.192-.634,9.594-2.379,16.635-.486,1.968-.775,5.262,1.573,5.595,9.716,1.381,10.2-1.216,11.006-4.2C661.657,729.881,663.221,715.71,662.228,708.242Z" transform="translate(-643.694 -702.951)" fill="#161f69" fill-rule="evenodd"/>
            </g>
            <path id="Path_13315" data-name="Path 13315" d="M659.547,500.78c10.794,13.441,11.067,20.894,8.726,37.045-1.565,10.8-4.753,23.9-5.547,42.882.935,9.788,2.7,20.752,1.356,35.959-.989,11.191-4.15,30.388-6.536,43.959-2.244,4.193-12.847,2.369-14.581.206.5-19.447.193-32.783-.743-48.488-.907-15.279-2.738-29.451-3.889-44.521-.952-12.469-4.758-29.428-5.261-42.9-2.02-6.349-21.136-27.378-17.154-27.109Z" transform="translate(-615.374 -497.812)" fill-rule="evenodd" fill="url(#linear-gradient-30)"/>
          </g>
        </g>
        <g id="Group_6466" data-name="Group 6466" transform="translate(71.394 46.902)">
          <path id="Path_13316" data-name="Path 13316" d="M656.012,446.218c-4.848,11.157,3.393,17.331.426,25.017l.916,5.2c-8.846,6.317-40.485,6.788-48.416-5.737l-.165-6.247c-1.367-2.99-.468-10.55-.068-12.545,1.273-6.341.678-9.706,1.375-17.042.176-1.853.525-3.019.7-4.9-7.044-5.238-6.6-15.369-2.424-21.436a53.381,53.381,0,0,0,5.479-9.625,43.742,43.742,0,0,1,1.218-5.512,9.167,9.167,0,0,1,1.476-3.011c2.012-2.855,5.262-3.2,11.9-1.682,13.159,3,26.711,9.8,32.76,16.207,4.4,4.662,4.225,9.834,1.7,21.011A119.222,119.222,0,0,1,656.012,446.218Z" transform="translate(-605.324 -387.819)" fill-rule="evenodd" fill="url(#linear-gradient-31)"/>
          <path id="Path_13317" data-name="Path 13317" d="M657.1,452.993c-4.848,11.157,3.192,17.531.227,25.215l.917,5.14c-8.847,6.847-40.486,6.523-48.418-6l.167-5.45c0-.217,15.536,13.7,33.217,5.964,3.841-1.682,7.319-10.042,2.347-26.007-.474-1.52-6.11-1.623-14.091-7.471,5.892,2.486,17,5.89,17.551-9.022.244-6.667,1.232-11.679,4.663-16.314,1.662-2.247,11.417,9.542,9.931,15.195A141.261,141.261,0,0,1,657.1,452.993Z" transform="translate(-606.32 -394.66)" fill="#b73f83" fill-rule="evenodd" opacity="0.5"/>
        </g>
        <g id="Group_6467" data-name="Group 6467" transform="translate(106.486 62.397)">
          <path id="Path_13318" data-name="Path 13318" d="M670.262,494.448c-1.609.971-4.54,1.914-5.719,2.614-.609.361-4.985,3.069-7.444,4.715-2.632,1.758-3.374,4.3-4.944,7.116a17.659,17.659,0,0,0-1.772,5.112c-.168,1.189,2.868,3.475,4.16,3.191,2.93-.645,5.922-4.225,6.694-4.624,6.564-3.385,9.708-3.719,12.081-6.414,1.013-1.149,1.632-4.515,3.723-7.538L673.017,495Z" transform="translate(-650.377 -426.889)" fill-rule="evenodd" fill="url(#linear-gradient-32)"/>
          <path id="Path_13319" data-name="Path 13319" d="M673.32,408.489c9.749,6.109,20.525,22.961,30.18,37.959a6.947,6.947,0,0,1,.408,7.449,18.54,18.54,0,0,1-1.9,3.4,93.253,93.253,0,0,1-18.877,20.984,7.3,7.3,0,0,1-2.856,1.177c-.615.507-1.476,1.422-2.134,1.952.815-1.043-4.065-6.272-6.278-5.924.569-.7,1.148-1.462,1.738-2.265a6.6,6.6,0,0,1,.393-2.478c3.194-7.225,7.257-14.489,12.324-20.01-8.8-9.464-13.834-11.754-22.028-21.683C654.34,416.986,666.853,404.438,673.32,408.489Z" transform="translate(-652.633 -407.713)" fill-rule="evenodd" fill="url(#linear-gradient-33)"/>
        </g>
        <g id="Group_6468" data-name="Group 6468" transform="translate(82.011 14.103)">
          <path id="Path_13320" data-name="Path 13320" d="M646.913,377.024a34.17,34.17,0,0,0,1.314,16.816c-4.744,4.368-13.181,2.513-15.141-1.447.415-2.562.9-4.912,1.175-7.542Z" transform="translate(-622.08 -352.634)" fill="#ffa698" fill-rule="evenodd"/>
          <path id="Path_13321" data-name="Path 13321" d="M647.025,377.024a32.729,32.729,0,0,0-.424,8.137c-1.391,5.595-11.913,9.372-13.01,4.923.3-1.719.59-3.409.783-5.232Z" transform="translate(-622.191 -352.634)" fill-rule="evenodd" fill="url(#linear-gradient-34)"/>
          <path id="Path_13322" data-name="Path 13322" d="M624.19,345.711a18.634,18.634,0,0,0-3.078,12.8,5.476,5.476,0,0,1-.441,3.059c-2.213,4.966-2.014,6.507-.918,10.486,1.066,3.871.993,5.892,2.321,7.221,1.362,1.365,3.4,1.679,5.128,1.786,3.542.224,9.621-2.1,13.154-4.023,2.621-1.425,2.519-2.4,3.626-4.868,3.7-3.2,1.3-5.535.062-5.774-3.553-.686-4.127,3.386-6.233,4.286C638.16,363.533,624.453,351.456,624.19,345.711Z" transform="translate(-618.956 -345.711)" fill="#ffa698" fill-rule="evenodd"/>
          <path id="Path_13323" data-name="Path 13323" d="M622.619,349.392a18.3,18.3,0,0,0-1.508,9.937,5.476,5.476,0,0,1-.441,3.059c-2.213,4.966-2.014,6.507-.917,10.486.477,1.735.726,3.1.976,4.2a3.328,3.328,0,0,0,4.133,1.189c1.478-.653,2.932-2.394,3.3-5.292.261-2.059,4.5-3.416,5.377-5.51.726-1.734-1.234-3.671-2.42-4.671C626.961,359.286,624.373,354.537,622.619,349.392Z" transform="translate(-618.956 -346.525)" fill-rule="evenodd" fill="url(#linear-gradient-35)"/>
          <path id="Path_13324" data-name="Path 13324" d="M625.667,345.711c1.99,8.786,13.525,15.435,13.62,24.976C636.133,360.772,624.943,353.985,625.667,345.711Z" transform="translate(-620.432 -345.711)" fill="#ff8f7f" fill-rule="evenodd"/>
        </g>
      </g>
    </g>
  </g>
</svg>
