<svg xmlns="http://www.w3.org/2000/svg" xmlns:xlink="http://www.w3.org/1999/xlink" width="40" height="40" viewBox="0 0 40 40">
  <defs>
    <radialGradient id="radial-gradient" cx="0.518" cy="0.493" r="0.447" gradientTransform="matrix(1.257, -0.032, 0.046, 1.149, -1.342, 0.089)" gradientUnits="objectBoundingBox">
      <stop offset="0" stop-color="#fefefc"/>
      <stop offset="0.757" stop-color="#fefefc"/>
      <stop offset="1" stop-color="#d4d4d4"/>
    </radialGradient>
    <radialGradient id="radial-gradient-2" cx="0.515" cy="0.455" r="0.355" gradientTransform="matrix(1.6, -0.024, 0.058, 1.529, -5.106, -0.041)" xlink:href="#radial-gradient"/>
    <linearGradient id="linear-gradient" x1="0.143" y1="0.961" x2="0.699" y2="0.087" gradientUnits="objectBoundingBox">
      <stop offset="0" stop-color="#3e2a06"/>
      <stop offset="1" stop-color="#ad780a"/>
    </linearGradient>
    <linearGradient id="linear-gradient-3" x1="0.076" y1="1.064" x2="0.711" y2="-0.012" xlink:href="#linear-gradient"/>
    <clipPath id="clip-path">
      <rect id="Rectangle_3490" data-name="Rectangle 3490" width="40" height="40" transform="translate(-20727 15987)" fill="#fff" stroke="#707070" stroke-width="1"/>
    </clipPath>
    <radialGradient id="radial-gradient-3" cx="0.515" cy="0.455" r="0.355" gradientTransform="matrix(1.6, -0.024, 0.058, 1.529, -7.384, -0.094)" xlink:href="#radial-gradient"/>
    <radialGradient id="radial-gradient-4" cx="0.518" cy="0.493" r="0.447" gradientTransform="matrix(1.257, -0.032, 0.046, 1.149, -2.074, 0.139)" xlink:href="#radial-gradient"/>
    <radialGradient id="radial-gradient-5" cx="0.378" cy="0.528" r="0.59" gradientTransform="matrix(0.591, -0.588, 0.39, 0.734, 3.529, 5.95)" gradientUnits="objectBoundingBox">
      <stop offset="0" stop-color="#020204"/>
      <stop offset="0.734" stop-color="#020204"/>
      <stop offset="1" stop-color="#5c5c5c"/>
    </radialGradient>
    <linearGradient id="linear-gradient-4" x1="-12.752" y1="-0.043" x2="-11.79" y2="1.114" gradientUnits="objectBoundingBox">
      <stop offset="0" stop-color="#949494" stop-opacity="0.392"/>
      <stop offset="0.5" stop-color="#949494"/>
      <stop offset="1" stop-color="#949494" stop-opacity="0.392"/>
    </linearGradient>
    <clipPath id="clip-path-2">
      <path id="Path_20206" data-name="Path 20206" d="M79.535,120.427a2.025,2.025,0,0,0-.774.96,2.358,2.358,0,0,0,.062,1.548,2.57,2.57,0,0,0,.914,1.3,1.673,1.673,0,0,0,.747.29,1.364,1.364,0,0,0,.785-.136,1.514,1.514,0,0,0,.652-.716,2.62,2.62,0,0,0,.215-.956,3.226,3.226,0,0,0-.155-1.239,2.08,2.08,0,0,0-.8-1.074,1.568,1.568,0,0,0-.633-.24,1.351,1.351,0,0,0-.671.075,1.7,1.7,0,0,0-.341.186" transform="translate(-78.656 -120.153)" fill="url(#radial-gradient)"/>
    </clipPath>
    <linearGradient id="linear-gradient-5" x1="5.414" y1="0.472" x2="5.853" y2="0.833" gradientUnits="objectBoundingBox">
      <stop offset="0" stop-color="#747474"/>
      <stop offset="0.125" stop-color="#8c8c8c"/>
      <stop offset="0.25" stop-color="#a4a4a4"/>
      <stop offset="0.5" stop-color="#d4d4d4"/>
      <stop offset="0.619" stop-color="#d4d4d4"/>
      <stop offset="1" stop-color="#7c7c7c"/>
    </linearGradient>
    <linearGradient id="linear-gradient-6" x1="18.206" y1="0.667" x2="19.134" y2="1.616" gradientUnits="objectBoundingBox">
      <stop offset="0" stop-color="#646464" stop-opacity="0"/>
      <stop offset="0.306" stop-color="#646464" stop-opacity="0.584"/>
      <stop offset="0.47" stop-color="#646464"/>
      <stop offset="0.728" stop-color="#646464" stop-opacity="0.259"/>
      <stop offset="1" stop-color="#646464" stop-opacity="0"/>
    </linearGradient>
    <linearGradient id="linear-gradient-7" x1="19.477" y1="0.681" x2="20.412" y2="1.705" xlink:href="#linear-gradient-6"/>
    <linearGradient id="linear-gradient-8" x1="-0.1" y1="-0.231" x2="1.012" y2="1.007" gradientUnits="objectBoundingBox">
      <stop offset="0" stop-color="#757574" stop-opacity="0"/>
      <stop offset="0.263" stop-color="#757574"/>
      <stop offset="0.5" stop-color="#757574"/>
      <stop offset="1" stop-color="#757574" stop-opacity="0"/>
    </linearGradient>
    <radialGradient id="radial-gradient-6" cx="0.62" cy="0.184" r="1.043" gradientTransform="matrix(0.457, -0.382, 0.133, 0.649, 2.041, 2.005)" gradientUnits="objectBoundingBox">
      <stop offset="0" stop-color="#d2940a"/>
      <stop offset="0.751" stop-color="#d89c08"/>
      <stop offset="0.866" stop-color="#b67e07"/>
      <stop offset="1" stop-color="#946106"/>
    </radialGradient>
    <linearGradient id="linear-gradient-9" x1="3.502" y1="0.516" x2="4.438" y2="0.502" gradientUnits="objectBoundingBox">
      <stop offset="0" stop-color="#ad780a"/>
      <stop offset="0.12" stop-color="#d89e08"/>
      <stop offset="0.255" stop-color="#edb80b"/>
      <stop offset="0.392" stop-color="#ebc80d"/>
      <stop offset="0.527" stop-color="#f5d838"/>
      <stop offset="0.769" stop-color="#f6d811"/>
      <stop offset="1" stop-color="#f5cd31"/>
    </linearGradient>
    <radialGradient id="radial-gradient-7" cx="0.43" cy="0.441" r="1.086" gradientTransform="translate(0.204 0.166) scale(0.525 0.583)" gradientUnits="objectBoundingBox">
      <stop offset="0" stop-color="#3a2903"/>
      <stop offset="0.555" stop-color="#735208"/>
      <stop offset="1" stop-color="#ac8c04"/>
    </radialGradient>
    <radialGradient id="radial-gradient-8" cx="0.558" cy="0.394" r="0.613" gradientTransform="translate(-0.057 -0.03) scale(1.101 1.075)" xlink:href="#radial-gradient-7"/>
    <linearGradient id="linear-gradient-10" x1="0.449" y1="0.228" x2="0.533" y2="0.819" gradientUnits="objectBoundingBox">
      <stop offset="0" stop-color="#f5ce2d"/>
      <stop offset="1" stop-color="#d79b08"/>
    </linearGradient>
    <clipPath id="clip-path-3">
      <path id="Path_20219" data-name="Path 20219" d="M46.862,122.353a.961.961,0,0,0-.593.265,1.34,1.34,0,0,0-.345.558,3.376,3.376,0,0,0-.077,1.314,3.873,3.873,0,0,0,.208,1.177,1.537,1.537,0,0,0,.32.5,1.1,1.1,0,0,0,.51.3,1.029,1.029,0,0,0,.555-.02,1.2,1.2,0,0,0,.476-.29,1.6,1.6,0,0,0,.4-.7,2.794,2.794,0,0,0,.093-.813,3.385,3.385,0,0,0-.157-1.011,2.276,2.276,0,0,0-.517-.878,1.459,1.459,0,0,0-.4-.3.975.975,0,0,0-.481-.106" transform="translate(-45.82 -122.352)" fill="url(#radial-gradient-2)"/>
    </clipPath>
    <radialGradient id="radial-gradient-9" cx="0.588" cy="0.625" r="0.223" gradientTransform="matrix(0.458, -0.162, 0.07, 0.912, 1.931, 0.64)" gradientUnits="objectBoundingBox">
      <stop offset="0" stop-color="#c8c8c8"/>
      <stop offset="1" stop-color="#797978"/>
    </radialGradient>
    <clipPath id="clip-path-4">
      <path id="Path_20222" data-name="Path 20222" d="M288.3,185.531a3.957,3.957,0,0,1,1.38,2.478,9.071,9.071,0,0,1-.813,4.4,4.25,4.25,0,0,0-.248.867,1.425,1.425,0,0,0,.13.878,1.342,1.342,0,0,0,.8.61,1.925,1.925,0,0,0,1.011.011,2.481,2.481,0,0,0,.906-.451,3.6,3.6,0,0,0,1.262-2.21,7.248,7.248,0,0,0-.069-2.577,17.665,17.665,0,0,0-.976-3.4,9.643,9.643,0,0,0-1.213-2.294c-.51-.678-1.155-1.25-1.653-1.937a11.379,11.379,0,0,0-1.033-1.426,2.124,2.124,0,0,0-.728-.5,1.4,1.4,0,0,0-.874-.06,1.265,1.265,0,0,0-.509.285,1.456,1.456,0,0,0-.34.471,1.964,1.964,0,0,0-.122,1.139,4.138,4.138,0,0,0,.563,1.386,4.933,4.933,0,0,0,1.057,1.32c.454.377,1,.629,1.464,1" transform="translate(-285.187 -179.886)" fill="none" stroke="#c17d11" stroke-width="1.009"/>
    </clipPath>
    <radialGradient id="radial-gradient-10" cx="0.111" cy="0.515" r="0.573" gradientTransform="matrix(-1.08, 0, 0, 1.093, 27.448, -0.053)" gradientUnits="objectBoundingBox">
      <stop offset="0"/>
      <stop offset="1" stop-opacity="0.247"/>
    </radialGradient>
    <radialGradient id="radial-gradient-11" cx="0.47" cy="0.856" r="0.735" gradientTransform="translate(1.793 0.296) scale(0.693 0.763)" xlink:href="#radial-gradient-10"/>
    <radialGradient id="radial-gradient-12" cx="0.463" cy="0.984" r="0.468" gradientTransform="translate(-0.955 -0.093) scale(1.069 1.069)" xlink:href="#radial-gradient-10"/>
    <linearGradient id="linear-gradient-11" x1="4.626" y1="0.351" x2="4.679" y2="0.706" gradientUnits="objectBoundingBox">
      <stop offset="0"/>
      <stop offset="1" stop-opacity="0"/>
    </linearGradient>
    <clipPath id="clip-path-5">
      <path id="Path_20230" data-name="Path 20230" d="M440.388,291.514a2.1,2.1,0,0,1-.349.587,3.806,3.806,0,0,1-1.226.87,24.232,24.232,0,0,0-2.282,1.2,9.376,9.376,0,0,0-1.345,1.083,10.77,10.77,0,0,1-1.094.993,3.145,3.145,0,0,1-1.361.576,3.262,3.262,0,0,1-1.771-.268,2.125,2.125,0,0,1-.986-.772,2.316,2.316,0,0,1-.276-1.229,12.8,12.8,0,0,1,.27-2.239c.109-.616.213-1.233.28-1.855a19.089,19.089,0,0,0,.04-3.408,2.591,2.591,0,0,1,0-.57.725.725,0,0,1,.738-.676,2.65,2.65,0,0,1,.525.044,11.092,11.092,0,0,1,1.225.213c.253.067.5.156.752.224a3.452,3.452,0,0,0,1.3.118,10.08,10.08,0,0,1,1.39-.219,2.054,2.054,0,0,1,.568.1,1.213,1.213,0,0,1,.511.284,1.122,1.122,0,0,1,.233.38,2.3,2.3,0,0,1,.145.65,5.638,5.638,0,0,0,.051.59,1.936,1.936,0,0,0,.437.859,5.559,5.559,0,0,0,.706.67c.248.208.5.416.764.6.125.086.255.166.374.26a1.178,1.178,0,0,1,.3.336.841.841,0,0,1,.085.6" transform="translate(-429.696 -285.807)" fill="url(#linear-gradient)"/>
    </clipPath>
    <clipPath id="clip-path-7">
      <path id="Path_20234" data-name="Path 20234" d="M509.384,368.575a2.19,2.19,0,0,1-.349.587,3.687,3.687,0,0,1-1.226.87,22.9,22.9,0,0,0-2.282,1.2,9.523,9.523,0,0,0-1.345,1.083,11.061,11.061,0,0,1-1.094.993,3.127,3.127,0,0,1-1.362.576,3.3,3.3,0,0,1-1.771-.268,2.057,2.057,0,0,1-.986-.772,2.391,2.391,0,0,1-.277-1.229,12.23,12.23,0,0,1,.27-2.239c.111-.615.216-1.232.28-1.855a22.874,22.874,0,0,0,.04-3.408,2.783,2.783,0,0,1,.011-.571.868.868,0,0,1,.238-.5.758.758,0,0,1,.489-.185,2.557,2.557,0,0,1,.525.053c.409.067.823.108,1.225.213.253.066.5.156.752.224a3.427,3.427,0,0,0,1.3.118,9.942,9.942,0,0,1,1.39-.219,2.089,2.089,0,0,1,.568.1,1.19,1.19,0,0,1,.511.284,1.144,1.144,0,0,1,.233.38,2.29,2.29,0,0,1,.145.65,5.9,5.9,0,0,0,.051.59,1.928,1.928,0,0,0,.441.871,5.543,5.543,0,0,0,.7.658,9.315,9.315,0,0,0,.764.6c.125.084.254.162.373.255a1.126,1.126,0,0,1,.3.341.884.884,0,0,1,.085.6" transform="translate(-498.692 -362.86)" fill="url(#linear-gradient-3)"/>
    </clipPath>
    <linearGradient id="linear-gradient-13" x1="5.974" y1="0.141" x2="5.948" y2="1.571" gradientUnits="objectBoundingBox">
      <stop offset="0" stop-color="#f3cd0c"/>
      <stop offset="1" stop-color="#f3cd0c" stop-opacity="0"/>
    </linearGradient>
    <radialGradient id="radial-gradient-13" cx="0.446" cy="0.43" r="0.782" gradientTransform="matrix(0.827, 0.259, -0.233, 1.014, 1.748, -2.479)" gradientUnits="objectBoundingBox">
      <stop offset="0" stop-color="#110800"/>
      <stop offset="0.591" stop-color="#a65a00" stop-opacity="0.8"/>
      <stop offset="1" stop-color="#ff921e" stop-opacity="0"/>
    </radialGradient>
    <clipPath id="clip-path-8">
      <path id="Path_20242" data-name="Path 20242" d="M354.922,278.226a.908.908,0,0,0-.247-.356,1.315,1.315,0,0,0-.37-.229,4.067,4.067,0,0,0-.846-.21c-.27-.051-.538-.112-.809-.158a2.206,2.206,0,0,0-.851-.015,1.451,1.451,0,0,0-.653.349,1.864,1.864,0,0,0-.432.606,2.615,2.615,0,0,0-.2,1.289,1.556,1.556,0,0,0,.323.909,1.409,1.409,0,0,0,.673.4,2.278,2.278,0,0,0,1.345-.019,3.541,3.541,0,0,0,1.775-1.335,1.952,1.952,0,0,0,.316-.669,1,1,0,0,0-.022-.559" transform="translate(-350.501 -277.222)" fill="none" stroke="#ce5c00" stroke-width="1"/>
    </clipPath>
    <radialGradient id="radial-gradient-15" cx="0.858" cy="0.401" r="0.494" gradientTransform="matrix(0.429, 0.399, -0.086, 0.424, 0.363, -1.406)" gradientUnits="objectBoundingBox">
      <stop offset="0" stop-color="#7c7c7c"/>
      <stop offset="1" stop-color="#7c7c7c" stop-opacity="0.329"/>
    </radialGradient>
    <linearGradient id="linear-gradient-14" x1="0.23" y1="0.179" x2="0.316" y2="0.172" gradientTransform="matrix(1, 0, 0, 1, 0, 0)" xlink:href="#radial-gradient-15"/>
    <clipPath id="clip-path-10">
      <path id="Path_20247" data-name="Path 20247" d="M206.487,184.612q-.483.639-.978,1.269-.527.67-1.064,1.332a8.065,8.065,0,0,0-1.171,1.726,13.173,13.173,0,0,0-.528,1.716,13,13,0,0,1-.74,1.9c-.268.568-.564,1.123-.86,1.677a4.214,4.214,0,0,0-.509,1.266,2.6,2.6,0,0,0,.066,1.074,4.956,4.956,0,0,0,.4,1,9.873,9.873,0,0,0,3,3.459,10.55,10.55,0,0,0,1.809,1.056,2.778,2.778,0,0,0,1.087.3,1.322,1.322,0,0,0,.554-.1.984.984,0,0,0,.431-.358,1.03,1.03,0,0,0,.144-.67,1.6,1.6,0,0,0-.237-.651,4.7,4.7,0,0,0-1.214-1.186c-.971-.752-1.911-1.546-2.81-2.383a3.673,3.673,0,0,1-.685-.778,2.917,2.917,0,0,1-.329-.953,5.285,5.285,0,0,1,.181-2.742c.121-.342.281-.668.436-1a12.283,12.283,0,0,1,.873-1.668,20.391,20.391,0,0,0,1.381-1.893,6.313,6.313,0,0,0,.54-1.9q.124-.749.216-1.5" transform="translate(-200.609 -184.612)" fill="none" stroke="#729fcf" stroke-width="0.125"/>
    </clipPath>
    <clipPath id="clip-path-11">
      <path id="Path_20252" data-name="Path 20252" d="M102.016,280.463a1.123,1.123,0,0,1,.632-.058,1.556,1.556,0,0,1,.588.25,3.734,3.734,0,0,1,.87.939c.579.8,1.136,1.611,1.641,2.456.41.686.786,1.395,1.259,2.038.309.42.657.81.968,1.229a4.238,4.238,0,0,1,.723,1.377,2.763,2.763,0,0,1-.2,1.976,2.61,2.61,0,0,1-.963,1.033,2.484,2.484,0,0,1-1.365.356,6.692,6.692,0,0,1-2.153-.687c-1.435-.571-2.993-.751-4.472-1.2-.454-.137-.9-.3-1.359-.424a4.035,4.035,0,0,1-.6-.192,1.038,1.038,0,0,1-.478-.4.9.9,0,0,1-.115-.469,1.468,1.468,0,0,1,.1-.477c.111-.306.29-.584.411-.887a3.723,3.723,0,0,0,.206-1.571c-.027-.532-.113-1.059-.149-1.589a2.75,2.75,0,0,1,.023-.711,1.066,1.066,0,0,1,.9-.913,2.881,2.881,0,0,1,.655-.042,6.3,6.3,0,0,0,.657,0,1.508,1.508,0,0,0,.628-.176,1.484,1.484,0,0,0,.451-.425,5.219,5.219,0,0,0,.323-.534,3.425,3.425,0,0,1,.34-.524,1.3,1.3,0,0,1,.488-.38" transform="translate(-96.988 -280.384)" fill="#402c07"/>
    </clipPath>
    <linearGradient id="linear-gradient-15" x1="0.274" y1="0.224" x2="0.775" y2="1.074" gradientUnits="objectBoundingBox">
      <stop offset="0" stop-color="#b98309"/>
      <stop offset="1" stop-color="#382605"/>
    </linearGradient>
    <linearGradient id="linear-gradient-16" x1="0.576" y1="0.587" x2="1.147" y2="1.18" gradientUnits="objectBoundingBox">
      <stop offset="0" stop-color="#ebc40c"/>
      <stop offset="1" stop-color="#ebc40c" stop-opacity="0"/>
    </linearGradient>
  </defs>
  <g id="linux" transform="translate(20727 -15987)" clip-path="url(#clip-path)">
    <g id="Linux-Logo.wine" transform="translate(-20722.199 15988.6)">
      <path id="Path_20191" data-name="Path 20191" d="M60.256,64.813c.4.878.854,1.735,1.254,2.615a18.9,18.9,0,0,1,1.6,5.326,12.552,12.552,0,0,1-.44,5.517,12.9,12.9,0,0,1-3.4,5.225,10.384,10.384,0,0,1-6.575,3.143,9.318,9.318,0,0,1-4.659-1.152,10.6,10.6,0,0,1-3.179-2.517,8.594,8.594,0,0,1-1.829-3.6,8.942,8.942,0,0,1,.359-4.945c.4-1.128,1-2.179,1.421-3.3a31.147,31.147,0,0,1,1.336-3.687,33.988,33.988,0,0,0,1.834-3.044,15.3,15.3,0,0,0,.551-2.051,4.516,4.516,0,0,1,.876-1.915,3.5,3.5,0,0,1,2.253-1.091,7.578,7.578,0,0,1,2.539.224,17.341,17.341,0,0,1,1.958.567,6.3,6.3,0,0,1,1.561.757,5.472,5.472,0,0,1,1.526,1.791C59.627,63.36,59.926,64.094,60.256,64.813Z" transform="translate(-37.52 -51.955)" fill="#020204"/>
      <path id="Path_20192" data-name="Path 20192" d="M117.918,240.243c.681.04,1.362.106,2.037.208q.89.135,1.766.348a13.517,13.517,0,0,0,2.764.531,3,3,0,0,0,.738-.058,1.641,1.641,0,0,0,.67-.306,1.569,1.569,0,0,0,.54-.94,2.333,2.333,0,0,0-.081-1.094,9.08,9.08,0,0,0-1.045-1.944c-.216-.363-.409-.741-.643-1.093a3.091,3.091,0,0,0-.869-.911,2.634,2.634,0,0,0-1.683-.362,4.648,4.648,0,0,0-1.659.537,4.218,4.218,0,0,0-1.81,1.612c-.138.25-.238.518-.356.778a2.473,2.473,0,0,1-.453.721c-.222.228-.509.382-.739.6a1.122,1.122,0,0,0-.274.386.667.667,0,0,0-.02.466.633.633,0,0,0,.187.264.9.9,0,0,0,.284.159A2.341,2.341,0,0,0,117.918,240.243Z" transform="translate(-102.303 -205.545)" fill="#020204"/>
      <path id="Path_20193" data-name="Path 20193" d="M53.8,34.655a9.438,9.438,0,0,0-1.686.23q-.8.164-1.586.37a11.7,11.7,0,0,1-2.69.531,2.916,2.916,0,0,1-.719-.062,1.63,1.63,0,0,1-.651-.3,1.567,1.567,0,0,1-.539-.938,2.34,2.34,0,0,1,.079-1.092,9.415,9.415,0,0,1,1.03-1.948c.21-.362.395-.739.622-1.091a3.024,3.024,0,0,1,.85-.912,2.541,2.541,0,0,1,1.639-.364,4.277,4.277,0,0,1,1.613.539,4.514,4.514,0,0,1,1.761,1.612,16.592,16.592,0,0,0,.787,1.5,7.685,7.685,0,0,1,.557.721,1.062,1.062,0,0,1,.143.43.677.677,0,0,1-.1.435.661.661,0,0,1-.222.2.971.971,0,0,1-.282.1,3.305,3.305,0,0,1-.6.04ZM50.628,11.008c-.08-.96-.061-1.925-.1-2.888-.034-.926-.12-1.851-.088-2.777A6.655,6.655,0,0,1,51.052,2.6,4.63,4.63,0,0,1,52.982.592,5.3,5.3,0,0,1,55.551,0a5.908,5.908,0,0,1,3.386,1.083,6.03,6.03,0,0,1,1.531,1.65,6.4,6.4,0,0,1,.784,1.758,18.556,18.556,0,0,1,.331,3.939,35.718,35.718,0,0,1,.2,3.747,2.014,2.014,0,0,1-.165.793,1.356,1.356,0,0,1-.548.56,2.177,2.177,0,0,1-.751.247c-.524.081-1.059.028-1.587.076-.766.071-1.5.355-2.256.472a14.246,14.246,0,0,1-2.744,0c-.367-.015-.734-.019-1.1-.065a3.027,3.027,0,0,1-1.051-.306,1.878,1.878,0,0,1-.532-.415,1.462,1.462,0,0,1-.319-.592,3.976,3.976,0,0,1-.039-1.014c0-.311-.035-.62-.061-.929Z" transform="translate(-40.212 0)" fill="#020204"/>
      <path id="Path_20194" data-name="Path 20194" d="M62.333,81.924a1.471,1.471,0,0,0-.265.559,2.98,2.98,0,0,0-.078.617,5.451,5.451,0,0,1-.1,1.24,3.808,3.808,0,0,1-.639,1.162,7.043,7.043,0,0,0-1.118,2.007A3.565,3.565,0,0,0,60,88.892a14.626,14.626,0,0,0-1.291,2.326A12.728,12.728,0,0,0,57.665,95.1a9.911,9.911,0,0,0,.7,4.843,7.937,7.937,0,0,0,2.067,2.88,7.067,7.067,0,0,0,1.51,1,6.77,6.77,0,0,0,6.067-.059,11.783,11.783,0,0,0,2.574-2.034,8.965,8.965,0,0,0,1.309-1.483,8.325,8.325,0,0,0,1.091-3.621,11.811,11.811,0,0,0-.7-6.546,7.22,7.22,0,0,0-1.311-1.876,10.278,10.278,0,0,0-.829-2.792c-.294-.639-.653-1.246-.925-1.894-.112-.266-.209-.538-.334-.8a2.4,2.4,0,0,0-.486-.711,2,2,0,0,0-.76-.442,3.306,3.306,0,0,0-.871-.15c-.59-.03-1.182.048-1.772.024-.47-.019-.939-.1-1.408-.073a2.164,2.164,0,0,0-.688.144A1.386,1.386,0,0,0,62.333,81.924Z" transform="translate(-50.476 -71.286)" fill="#fdfdfb"/>
      <path id="Path_20195" data-name="Path 20195" d="M-32.337,153.72a3.508,3.508,0,0,0,1.138,1.542,2.5,2.5,0,0,0,.541.349,1.278,1.278,0,0,0,.627.12,1.48,1.48,0,0,0,.593-.2c.183-.1.354-.229.532-.342.3-.193.632-.349.949-.523a5.465,5.465,0,0,0,1.073-.738,4.867,4.867,0,0,1,.447-.4.882.882,0,0,1,.556-.185,3.119,3.119,0,0,1,.435.105.619.619,0,0,0,.223.012.344.344,0,0,0,.2-.1.346.346,0,0,0,.088-.252.615.615,0,0,0-.078-.261,3.361,3.361,0,0,1-.273-.475,1.412,1.412,0,0,1-.036-.485.97.97,0,0,0-.074-.478.619.619,0,0,0-.263-.256.95.95,0,0,0-.356-.1,4.96,4.96,0,0,0-.743.039c-.329.019-.659-.023-.988,0-.41.025-.812.144-1.223.144a9.124,9.124,0,0,0-1.4-.079,3.656,3.656,0,0,0-.579.168,1.8,1.8,0,0,1-.589.117c-.228,0-.45-.082-.677-.1a.8.8,0,0,0-.338.04.472.472,0,0,0-.256.216.453.453,0,0,0-.048.189.683.683,0,0,0,.022.195,3.019,3.019,0,0,0,.138.368C-32.529,152.791-32.492,153.273-32.337,153.72Z" transform="translate(43.905 -140.878)" fill="rgba(0,0,0,0.26)"/>
      <path id="Path_20196" data-name="Path 20196" d="M-54.419,143.417a4.756,4.756,0,0,1,1.086.919,4.691,4.691,0,0,0,.9.946,1.994,1.994,0,0,0,.9.3,3.21,3.21,0,0,0,1.125-.12,4.149,4.149,0,0,0,.964-.39,10.206,10.206,0,0,1,1.674-1.011c.137-.046.28-.08.412-.137a.631.631,0,0,0,.32-.264,1.188,1.188,0,0,0,.078-.379c.021-.137.069-.27.095-.406a.631.631,0,0,0-.035-.407.551.551,0,0,0-.26-.238.946.946,0,0,0-.36-.081,5.79,5.79,0,0,0-.742.068c-.328.027-.659-.011-.988,0-.41.011-.814.1-1.223.115-.467.02-.933-.048-1.4-.063a3.16,3.16,0,0,0-.605.029,1.552,1.552,0,0,0-.564.2,5.02,5.02,0,0,0-.447.353,1.282,1.282,0,0,1-.242.153.744.744,0,0,1-.281.073c-.051,0-.1,0-.151.005a.326.326,0,0,0-.21.12.277.277,0,0,0-.052.223Z" transform="translate(65.398 -132.319)" opacity="0.3"/>
      <path id="Path_20197" data-name="Path 20197" d="M-32.138,113.353a.961.961,0,0,0-.593.265,1.34,1.34,0,0,0-.345.558,3.376,3.376,0,0,0-.077,1.314,3.873,3.873,0,0,0,.208,1.177,1.537,1.537,0,0,0,.32.5,1.1,1.1,0,0,0,.51.3,1.029,1.029,0,0,0,.555-.02,1.2,1.2,0,0,0,.476-.29,1.6,1.6,0,0,0,.4-.7,2.794,2.794,0,0,0,.093-.813,3.385,3.385,0,0,0-.157-1.011,2.277,2.277,0,0,0-.517-.878,1.46,1.46,0,0,0-.4-.3.975.975,0,0,0-.481-.106Z" transform="translate(44.185 -107.85)" fill="url(#radial-gradient-3)"/>
      <path id="Path_20198" data-name="Path 20198" d="M.535,111.427a2.025,2.025,0,0,0-.774.96,2.358,2.358,0,0,0,.062,1.548,2.57,2.57,0,0,0,.914,1.3,1.673,1.673,0,0,0,.747.29,1.364,1.364,0,0,0,.785-.136,1.515,1.515,0,0,0,.652-.716,2.62,2.62,0,0,0,.215-.956,3.226,3.226,0,0,0-.155-1.239,2.08,2.08,0,0,0-.8-1.074,1.568,1.568,0,0,0-.633-.24,1.351,1.351,0,0,0-.671.075,1.7,1.7,0,0,0-.341.186Z" transform="translate(15.416 -105.924)" fill="url(#radial-gradient-4)"/>
      <path id="Path_20199" data-name="Path 20199" d="M-32.344,133.8q-.332.275-.636.58a1.04,1.04,0,0,0-.274.384,2.566,2.566,0,0,0-.058.419.971.971,0,0,0-.019.144.24.24,0,0,0,.01.071.158.158,0,0,0,.035.063.2.2,0,0,0,.106.053c.039.008.08.009.12.013a1.1,1.1,0,0,1,.5.21c.149.1.287.223.44.32a2.294,2.294,0,0,0,1.143.326,5.117,5.117,0,0,0,1.193-.124,5.367,5.367,0,0,0,.92-.253,5.513,5.513,0,0,0,1.253-.746,5.251,5.251,0,0,0,.512-.423c.054-.052.107-.107.165-.154a.6.6,0,0,1,.194-.112.725.725,0,0,1,.34-.006,1.259,1.259,0,0,0,.257.03.381.381,0,0,0,.126-.025.26.26,0,0,0,.1-.074.25.25,0,0,0,.055-.158.32.32,0,0,0-.046-.162.554.554,0,0,0-.261-.21,2.573,2.573,0,0,0-.447-.131,6.4,6.4,0,0,1-1.342-.49c-.213-.105-.419-.222-.628-.334a3.7,3.7,0,0,0-.668-.3,2.623,2.623,0,0,0-1.608.073,3.438,3.438,0,0,0-1.482,1.014Z" transform="translate(44.317 -124.729)" opacity="0.3"/>
      <path id="Path_20200" data-name="Path 20200" d="M-20.518,128.083c.219-.246.369-.546.579-.8a1.385,1.385,0,0,1,.369-.324.819.819,0,0,1,.473-.115.832.832,0,0,1,.487.232,1.485,1.485,0,0,1,.312.449,2.341,2.341,0,0,0,.245.465,2.388,2.388,0,0,0,.427.362,1.2,1.2,0,0,1,.2.193.6.6,0,0,1,.123.25.522.522,0,0,1-.023.281.629.629,0,0,1-.156.236.918.918,0,0,1-.512.23,10.141,10.141,0,0,1-1.138-.049c-.385.011-.761.147-1.145.133a1.018,1.018,0,0,1-.546-.164.69.69,0,0,1-.2-.207.569.569,0,0,1-.083-.273.623.623,0,0,1,.055-.268,1,1,0,0,1,.146-.232c.116-.142.259-.261.381-.4Z" transform="translate(33.601 -119.669)" fill="url(#radial-gradient-5)"/>
      <path id="Path_20201" data-name="Path 20201" d="M317.813,104.531c-.317.224-.179.5-.042.785s-.3,1.09-.3,1.125a3.762,3.762,0,0,0,1.1-.7c.278-.342.982.462.943.34C319.505,105.862,318.131,104.307,317.813,104.531Z" transform="translate(-300.439 -102.931)" fill="#7c7c7c"/>
      <path id="Path_20202" data-name="Path 20202" d="M129.046,52.807a.8.8,0,0,0-.365.123.961.961,0,0,0-.277.27,1.4,1.4,0,0,0-.222.736,1.551,1.551,0,0,0,.078.576,1.086,1.086,0,0,0,.324.479.937.937,0,0,0,.548.213.92.92,0,0,0,.565-.162,1.016,1.016,0,0,0,.311-.356,1.326,1.326,0,0,0,.141-.453,1.4,1.4,0,0,0-.133-.818,1.147,1.147,0,0,0-.61-.552A.863.863,0,0,0,129.046,52.807Z" transform="translate(-112.301 -46.263)" fill="#020204"/>
      <path id="Path_20203" data-name="Path 20203" d="M302.3,137.419c-.107.042-.277.016-.324.121a.161.161,0,0,0,.075.191.329.329,0,0,0,.378-.17.144.144,0,0,0-.067-.167C302.341,137.385,302.32,137.411,302.3,137.419Z" transform="translate(-285.246 -130.027)" fill="#141413"/>
      <path id="Path_20204" data-name="Path 20204" d="M302.817,133.907c.144-.144-.1-.525-.294-.681-.139-.113-.544-.231-.526-.108s.2.281.321.4C302.468,133.667,302.749,133.976,302.817,133.907Z" transform="translate(-285.271 -126.236)" fill="url(#linear-gradient-4)"/>
      <g id="Group_9952" data-name="Group 9952" transform="translate(15.072 5.23)" clip-path="url(#clip-path-2)">
        <path id="Path_20205" data-name="Path 20205" d="M74.146,107.222a2.937,2.937,0,0,1,1.006-.545,2.776,2.776,0,0,1,2.277.282,8.006,8.006,0,0,1,.649.5,2.484,2.484,0,0,0,.7.418,1,1,0,0,0,.434.062.806.806,0,0,0,.37-.139.942.942,0,0,0,.27-.29,1.269,1.269,0,0,0,.158-.768,4,4,0,0,0-.6-1.467,4.361,4.361,0,0,0-.248-.434,2.4,2.4,0,0,0-1.237-.861,7.747,7.747,0,0,0-1.5-.285,2.8,2.8,0,0,0-.681-.031,6.036,6.036,0,0,0-.759.2c-.121.031-.243.053-.363.087a.958.958,0,0,0-.334.161.807.807,0,0,0-.27.461,1.474,1.474,0,0,0,0,.542,5.707,5.707,0,0,1,.178,1.072c-.009.249-.087.494-.077.743a1.066,1.066,0,0,0,.031.217" transform="translate(-74.567 -105.694)" fill="url(#linear-gradient-5)"/>
      </g>
      <path id="Path_20207" data-name="Path 20207" d="M15.311,105.125a1.275,1.275,0,0,0-.155.244,2.187,2.187,0,0,1,.747.317,3.006,3.006,0,0,1,1.007,1.192,1.235,1.235,0,0,0,.147-.2,3.032,3.032,0,0,0-1.03-1.242,2.2,2.2,0,0,0-.716-.314Z" transform="translate(1.836 -100.642)" fill="url(#linear-gradient-6)"/>
      <path id="Path_20208" data-name="Path 20208" d="M-26.01,107.08c-.03,0-.059,0-.089,0l-.058,0a1.6,1.6,0,0,1,.507.134,2.107,2.107,0,0,1,.573.391,2.926,2.926,0,0,1,.7,1.029,2.577,2.577,0,0,0-.255-.825,2.666,2.666,0,0,0-.194-.2,2.105,2.105,0,0,0-.573-.391A1.568,1.568,0,0,0-26.01,107.08Z" transform="translate(38.031 -102.355)" fill="url(#linear-gradient-7)"/>
      <path id="Path_20209" data-name="Path 20209" d="M92.734,54.383a1.669,1.669,0,0,0,.048.835,1.4,1.4,0,0,0,.294.471.978.978,0,0,0,.287.223.532.532,0,0,0,.356.045.524.524,0,0,0,.275-.185.9.9,0,0,0,.151-.3,1.669,1.669,0,0,0-.015-.982,1.279,1.279,0,0,0-.375-.61.744.744,0,0,0-.3-.159.53.53,0,0,0-.339.027.585.585,0,0,0-.266.268,1.224,1.224,0,0,0-.11.367Z" transform="translate(-81.219 -47.052)" fill="#020204"/>
      <path id="Path_20210" data-name="Path 20210" d="M164.587,134.2c.03.079.131.107.186.17a.715.715,0,0,1,.139.2c.056.146-.056.362.062.465a.123.123,0,0,0,.147,0c.142-.129.11-.389.054-.573a.7.7,0,0,0-.332-.4c-.072-.037-.18-.067-.241-.015A.147.147,0,0,0,164.587,134.2Z" transform="translate(-152.484 -127.066)" fill="url(#linear-gradient-8)"/>
      <g id="Group_9953" data-name="Group 9953" transform="translate(10.983 8.013)">
        <path id="Path_20211" data-name="Path 20211" d="M45.752,155.646a.337.337,0,0,0,.041.1.479.479,0,0,0,.133.137c.052.038.108.069.163.1a2.937,2.937,0,0,1,.734.707,4.61,4.61,0,0,0,.9,1.027,1.907,1.907,0,0,0,.9.324,2.96,2.96,0,0,0,1.125-.13,3.974,3.974,0,0,0,.964-.424,10.1,10.1,0,0,1,1.674-1.1c.137-.05.28-.086.412-.149a.646.646,0,0,0,.32-.287,1.387,1.387,0,0,0,.078-.412c.021-.149.069-.293.095-.441a.74.74,0,0,0-.035-.442.571.571,0,0,0-.26-.258.884.884,0,0,0-.36-.088,5.325,5.325,0,0,0-.742.074c-.328.03-.659-.012-.988,0-.41.012-.814.1-1.223.125-.467.023-.933-.049-1.4-.068a2.9,2.9,0,0,0-.606.028,1.4,1.4,0,0,0-.562.217,5.352,5.352,0,0,0-.441.394,1.137,1.137,0,0,1-.244.167.629.629,0,0,1-.285.068.465.465,0,0,0-.151.006.206.206,0,0,0-.08.05.467.467,0,0,0-.059.074A1.3,1.3,0,0,0,45.752,155.646Z" transform="translate(-45.739 -152.87)" fill="url(#radial-gradient-6)"/>
        <path id="Path_20212" data-name="Path 20212" d="M60.4,167.716a.821.821,0,0,0,.538.972.978.978,0,0,0,.75-.078.818.818,0,0,0,.331-.3.559.559,0,0,0,.075-.21.463.463,0,0,0-.023-.221.481.481,0,0,0-.142-.2.645.645,0,0,0-.215-.117,1.343,1.343,0,0,0-.487-.045,4.816,4.816,0,0,0-.74.093" transform="translate(-58.551 -164.436)" fill="#d9b30d"/>
        <path id="Path_20213" data-name="Path 20213" d="M48.715,152.082c-.166.1-.326.206-.483.318a.591.591,0,0,0-.208.21.491.491,0,0,0-.038.207,1.8,1.8,0,0,1-.006.212c-.006.048-.019.095-.021.143a.233.233,0,0,0,.007.072.149.149,0,0,0,.034.063.181.181,0,0,0,.081.046c.03.009.061.014.091.021a.9.9,0,0,1,.383.223c.111.1.211.212.327.307a1.841,1.841,0,0,0,1.135.368,5.107,5.107,0,0,0,1.2-.167,7.239,7.239,0,0,0,.92-.253,4.056,4.056,0,0,0,1.253-.746,4.3,4.3,0,0,1,.512-.423c.166-.1.352-.173.521-.273a.344.344,0,0,0,.044-.029.129.129,0,0,0,.033-.04.122.122,0,0,0,0-.089.236.236,0,0,0-.045-.079.546.546,0,0,0-.071-.072,1.118,1.118,0,0,0-.647-.224c-.232-.018-.466-.005-.695-.044a4.513,4.513,0,0,1-.628-.183,4.626,4.626,0,0,0-.668-.162,4.418,4.418,0,0,0-1.608.04A4.7,4.7,0,0,0,48.715,152.082Z" transform="translate(-47.672 -150.34)" fill="#604405"/>
        <path id="Path_20214" data-name="Path 20214" d="M46.64,143.8a2.944,2.944,0,0,0-.636.58,1.38,1.38,0,0,0-.251.423,3.2,3.2,0,0,0-.081.38.709.709,0,0,0-.021.144.234.234,0,0,0,.011.072.161.161,0,0,0,.036.062.2.2,0,0,0,.106.053c.039.008.08.009.12.014a1.116,1.116,0,0,1,.5.211c.149.1.287.222.44.319a2.3,2.3,0,0,0,1.143.325,5.1,5.1,0,0,0,1.193-.124,5.355,5.355,0,0,0,.92-.253,5.518,5.518,0,0,0,1.253-.746,5.251,5.251,0,0,0,.512-.423c.054-.052.107-.107.165-.154a.6.6,0,0,1,.194-.112.725.725,0,0,1,.34-.006,1.249,1.249,0,0,0,.257.03.381.381,0,0,0,.126-.025.26.26,0,0,0,.1-.074.25.25,0,0,0,.055-.158.319.319,0,0,0-.046-.162.554.554,0,0,0-.261-.21,2.573,2.573,0,0,0-.447-.131,6.4,6.4,0,0,1-1.342-.49c-.213-.105-.419-.222-.628-.334a3.7,3.7,0,0,0-.668-.3,2.623,2.623,0,0,0-1.608.073A3.438,3.438,0,0,0,46.64,143.8Z" transform="translate(-45.65 -142.618)" fill="url(#linear-gradient-9)"/>
        <path id="Path_20215" data-name="Path 20215" d="M72.5,152.485a.222.222,0,0,0-.112-.073.3.3,0,0,0-.134-.006.626.626,0,0,0-.244.115,2.764,2.764,0,0,0-.562.524,2,2,0,0,0-.454.9.576.576,0,0,0-.01.171.264.264,0,0,0,.069.154.236.236,0,0,0,.134.065.323.323,0,0,0,.149-.016.75.75,0,0,0,.25-.166,2.952,2.952,0,0,0,.937-1.348.6.6,0,0,0,.027-.164.254.254,0,0,0-.049-.156Z" transform="translate(-67.842 -151.189)" fill="#f6da4a"/>
        <path id="Path_20216" data-name="Path 20216" d="M75.239,146.031c.029.092.177.077.263.121s.136.124.22.126.206-.028.217-.108c.014-.106-.14-.173-.24-.212a.507.507,0,0,0-.411-.008C75.259,145.965,75.23,146,75.239,146.031Z" transform="translate(-71.572 -145.502)" opacity="0.8" fill="url(#radial-gradient-7)"/>
        <path id="Path_20217" data-name="Path 20217" d="M62.1,146.439c-.11-.036-.292.158-.233.258.016.027.066.062.1.043.051-.028.092-.128.147-.167C62.151,146.548,62.142,146.453,62.1,146.439Z" transform="translate(-59.848 -145.962)" opacity="0.8" fill="url(#radial-gradient-8)"/>
        <ellipse id="Ellipse_2100" data-name="Ellipse 2100" cx="0.358" cy="0.433" rx="0.358" ry="0.433" transform="translate(6.847 1.49) rotate(8.829)" fill="url(#linear-gradient-10)"/>
      </g>
      <g id="Group_9954" data-name="Group 9954" transform="translate(11.004 5.502)" clip-path="url(#clip-path-3)">
        <path id="Path_20218" data-name="Path 20218" d="M18.11,111.006a1.854,1.854,0,0,1,1.123-.207,6.778,6.778,0,0,1,1.132.251,4.892,4.892,0,0,1,.808.265,1.41,1.41,0,0,1,.637.545c.023.04.043.081.067.119a.369.369,0,0,0,.089.1.2.2,0,0,0,.127.043.142.142,0,0,0,.065-.019.123.123,0,0,0,.047-.049.148.148,0,0,0,.014-.076.364.364,0,0,0-.014-.077,4.7,4.7,0,0,0-.482-.942c-.1-.187-.183-.383-.285-.569a3.627,3.627,0,0,0-1.573-1.468,5.407,5.407,0,0,0-2.106-.525,10.9,10.9,0,0,0-2.518.2,3.263,3.263,0,0,0-1.045.317,1.429,1.429,0,0,0-.42.348,1.042,1.042,0,0,0-.221.5,1.07,1.07,0,0,0,.062.52,1.614,1.614,0,0,0,.267.454,6.7,6.7,0,0,0,.771.722,7.307,7.307,0,0,0,.8.689,1.689,1.689,0,0,0,.476.225,1.12,1.12,0,0,0,.523.025,1.219,1.219,0,0,0,.49-.236,2.662,2.662,0,0,0,.39-.384A3.412,3.412,0,0,1,18.11,111.006Z" transform="translate(-17.544 -110.118)" fill="url(#radial-gradient-9)"/>
      </g>
      <path id="Path_20220" data-name="Path 20220" d="M166.075,107.59a3.966,3.966,0,0,1,1.38,2.478,6,6,0,0,1-.128,2.246,18.313,18.313,0,0,1-.685,2.155,4.256,4.256,0,0,0-.247.866,1.435,1.435,0,0,0,.129.878,1.336,1.336,0,0,0,.8.61,1.928,1.928,0,0,0,1.009.013,2.465,2.465,0,0,0,.908-.452,3.617,3.617,0,0,0,1.255-2.207,7.275,7.275,0,0,0-.062-2.58,17.39,17.39,0,0,0-.976-3.4,9.721,9.721,0,0,0-1.213-2.294c-.51-.679-1.153-1.25-1.653-1.937a11.55,11.55,0,0,0-1.041-1.428,2.126,2.126,0,0,0-.726-.495,1.384,1.384,0,0,0-.868-.058,1.368,1.368,0,0,0-.843.753,1.973,1.973,0,0,0-.128,1.142,4.077,4.077,0,0,0,.563,1.386,4.976,4.976,0,0,0,1.057,1.32C165.065,106.97,165.615,107.219,166.075,107.59Z" transform="translate(-142.772 -89.316)" fill="#020204"/>
      <g id="Group_9955" data-name="Group 9955" transform="translate(20.185 12.629)" clip-path="url(#clip-path-4)">
        <path id="Path_20221" data-name="Path 20221" d="M296.035,216.018c.061.058.124.117.189.17.462.378.709.8,1.178,1.174a4.7,4.7,0,0,1,1.7,2.609,4.826,4.826,0,0,1-.228,2.03,31.164,31.164,0,0,1-1.018,2.972c-.116.338.235.2.189.555a2.155,2.155,0,0,0,0,.528c0-.034.005-.068.009-.1a6.476,6.476,0,0,1,.367-1.412c.312-.882.67-1.747.917-2.652a4.971,4.971,0,0,0,.091-2.334,3.927,3.927,0,0,0-1.537-2.478C297.314,216.657,296.642,216.387,296.035,216.018Z" transform="translate(-294.692 -211.542)" fill="#838384"/>
      </g>
      <path id="Path_20223" data-name="Path 20223" d="M-81.509,202.643c.126.189-.078.84,2.855.423a10.118,10.118,0,0,0-1.023.174,7.309,7.309,0,0,0-2.008.951c-.525.387-.91.892-1.393,1.325,0,0,.781-1.427.976-1.857s-.033-.41.121-1.042a4.953,4.953,0,0,1,.531-1.24s-.308.893-.06,1.266Z" transform="translate(91.286 -186.086)" opacity="0.25" fill="url(#radial-gradient-10)"/>
      <path id="Path_20224" data-name="Path 20224" d="M2.206,191.172a2.871,2.871,0,0,1-1.673.448c-.725.082-2.688.052-2.688.052a5.189,5.189,0,0,1,.914.112,17.462,17.462,0,0,1,2.638.5,6.84,6.84,0,0,1,1.427.632c.626.4,1.085,1.016,1.683,1.449a2.141,2.141,0,0,0-.212-1.005,9.328,9.328,0,0,1-1.082-1.739,11.8,11.8,0,0,1-.282-1.875,2.318,2.318,0,0,1-.724,1.42Z" transform="translate(17.003 -174.786)" opacity="0.42" fill="url(#radial-gradient-11)"/>
      <path id="Path_20225" data-name="Path 20225" d="M-22.113,194.04q-.033.271-.086.538a1.49,1.49,0,0,1-.069.259.58.58,0,0,1-.146.223.779.779,0,0,1-.2.121,3.018,3.018,0,0,1-.881.25q.182.013.364.033a1.608,1.608,0,0,1,.227.037.6.6,0,0,1,.209.094.568.568,0,0,1,.161.192,1.245,1.245,0,0,1,.12.484,3.943,3.943,0,0,1,0,.642,1.986,1.986,0,0,1,.089-.421,1.83,1.83,0,0,1,.386-.667,1.449,1.449,0,0,1,.23-.2,1.275,1.275,0,0,1,.9-.218,1.392,1.392,0,0,1-.891-.277,1.156,1.156,0,0,1-.32-.36,1,1,0,0,1-.093-.726Z" transform="translate(35.7 -178.543)" opacity="0.2" fill="url(#radial-gradient-12)"/>
      <path id="Path_20226" data-name="Path 20226" d="M-21.907,228.08a10.989,10.989,0,0,0-.313,1.769c-.079.844-.06,1.694-.105,2.54a9.494,9.494,0,0,0,0,2.152,3.7,3.7,0,0,0,.316.976,3.322,3.322,0,0,0,.052-.356,11.68,11.68,0,0,0-.077-1.726,26.882,26.882,0,0,1,.139-3.027,18.5,18.5,0,0,0-.015-2.327Z" transform="translate(34.73 -208.366)" opacity="0.11"/>
      <path id="Path_20227" data-name="Path 20227" d="M37.047,157.523c-.268.244.125.61.312,1.041.116.268.437.645.747.584.233-.045.378-.382.356-.618-.043-.457-.428-.564-.708-.721-.222-.124-.519-.458-.707-.286Z" transform="translate(-17.264 -146.507)" fill="#838384"/>
      <path id="Path_20228" data-name="Path 20228" d="M25.864,300.527a2.033,2.033,0,0,1-.261.546,3.759,3.759,0,0,1-.983.913c-.623.442-1.272.847-1.853,1.349a9.288,9.288,0,0,0-1.071,1.111,10.687,10.687,0,0,1-.865,1,3.021,3.021,0,0,1-1.113.685,2.7,2.7,0,0,1-1.505.032,1.557,1.557,0,0,1-.873-.508,1.826,1.826,0,0,1-.3-1,11.2,11.2,0,0,1,.1-1.929c.057-.536.11-1.072.132-1.607a16.16,16.16,0,0,0-.157-2.883,2.179,2.179,0,0,1-.033-.481.7.7,0,0,1,.583-.678,2.223,2.223,0,0,1,.444-.04,9.123,9.123,0,0,1,1.042,0c.217.019.429.059.645.079a2.908,2.908,0,0,0,1.1-.09,9.128,9.128,0,0,1,1.158-.388,1.692,1.692,0,0,1,.483,0,.911.911,0,0,1,.446.165.825.825,0,0,1,.217.287,1.812,1.812,0,0,1,.158.528,4.65,4.65,0,0,0,.076.49,1.437,1.437,0,0,0,.416.661,4.023,4.023,0,0,0,.631.463,7.089,7.089,0,0,0,.676.393c.11.054.224.1.329.165a.854.854,0,0,1,.273.24.679.679,0,0,1,.1.492" transform="translate(2.512 -269.534)" opacity="0.2" fill="url(#linear-gradient-11)"/>
      <g id="Group_9956" data-name="Group 9956" transform="translate(20.156 25.75)" clip-path="url(#clip-path-5)">
        <path id="Path_20229" data-name="Path 20229" d="M440.388,291.514a2.1,2.1,0,0,1-.349.587,3.806,3.806,0,0,1-1.226.87,24.232,24.232,0,0,0-2.282,1.2,9.376,9.376,0,0,0-1.345,1.083,10.77,10.77,0,0,1-1.094.993,3.145,3.145,0,0,1-1.361.576,3.262,3.262,0,0,1-1.771-.268,2.125,2.125,0,0,1-.986-.772,2.316,2.316,0,0,1-.276-1.229,12.8,12.8,0,0,1,.27-2.239c.109-.616.213-1.233.28-1.855a19.089,19.089,0,0,0,.04-3.408,2.591,2.591,0,0,1,0-.57.725.725,0,0,1,.738-.676,2.65,2.65,0,0,1,.525.044,11.092,11.092,0,0,1,1.225.213c.253.067.5.156.752.224a3.452,3.452,0,0,0,1.3.118,10.08,10.08,0,0,1,1.39-.219,2.054,2.054,0,0,1,.568.1,1.213,1.213,0,0,1,.511.284,1.122,1.122,0,0,1,.233.38,2.3,2.3,0,0,1,.145.65,5.638,5.638,0,0,0,.051.59,1.936,1.936,0,0,0,.437.859,5.559,5.559,0,0,0,.706.67c.248.208.5.416.764.6.125.086.255.166.374.26a1.178,1.178,0,0,1,.3.336A.841.841,0,0,1,440.388,291.514Z" transform="translate(-429.696 -285.807)" fill="url(#linear-gradient)"/>
      </g>
      <g id="Group_9957" data-name="Group 9957" transform="translate(20.156 25.75)" clip-path="url(#clip-path-5)">
        <path id="Path_20231" data-name="Path 20231" d="M443.834,292.427a1.9,1.9,0,0,1-.319.528,3.453,3.453,0,0,1-1.12.782,21.941,21.941,0,0,0-2.084,1.082,8.538,8.538,0,0,0-1.229.974,9.856,9.856,0,0,1-1,.893,2.894,2.894,0,0,1-1.243.518,3.025,3.025,0,0,1-1.618-.241,1.923,1.923,0,0,1-.9-.694,2.07,2.07,0,0,1-.253-1.105,11.235,11.235,0,0,1,.246-2.013c.1-.554.2-1.108.256-1.668a17.521,17.521,0,0,0,.036-3.064,2.329,2.329,0,0,1,0-.513.657.657,0,0,1,.672-.609,2.439,2.439,0,0,1,.479.041,10.651,10.651,0,0,1,1.119.191c.231.06.456.14.687.2a3.194,3.194,0,0,0,1.184.106,9.246,9.246,0,0,1,1.27-.2,1.922,1.922,0,0,1,.519.089,1.1,1.1,0,0,1,.466.255,1.059,1.059,0,0,1,.213.342,1.608,1.608,0,0,1,.132.585,5.47,5.47,0,0,0-.013.628,1.194,1.194,0,0,0,.186.472,3.775,3.775,0,0,0,.313.4,4.082,4.082,0,0,0,.693.7c.3.22.664.348.978.553a.931.931,0,0,1,.25.22.589.589,0,0,1,.077.538Z" transform="translate(-433.528 -287.111)" fill="#cd8907"/>
      </g>
      <g id="Group_9958" data-name="Group 9958" transform="translate(20.156 25.741)" clip-path="url(#clip-path-7)">
        <path id="Path_20233" data-name="Path 20233" d="M515.623,364.055a2.3,2.3,0,0,1-.327.533,2.712,2.712,0,0,1-1.15.789c-.714.27-1.493.306-2.194.613a7.593,7.593,0,0,0-1.2.736,6.056,6.056,0,0,1-.981.573,5.028,5.028,0,0,1-1.221.333,3.744,3.744,0,0,1-.8.059,1.727,1.727,0,0,1-.772-.214,1.08,1.08,0,0,1-.435-.446,1.565,1.565,0,0,1-.122-.71c.007-.648.145-1.289.141-1.937,0-.564-.115-1.121-.148-1.685a24.619,24.619,0,0,0-.034-3.247,2.573,2.573,0,0,1-.075-.514.743.743,0,0,1,.045-.254.47.47,0,0,1,.145-.2.422.422,0,0,1,.187-.08.623.623,0,0,1,.2,0,3.03,3.03,0,0,1,.393.112c.374.111.769.109,1.149.193.239.053.47.139.706.2a3.21,3.21,0,0,0,1.217.107,9.344,9.344,0,0,1,1.3-.2,2.052,2.052,0,0,1,.533.09,1.094,1.094,0,0,1,.479.258,1.125,1.125,0,0,1,.218.345,1.466,1.466,0,0,1,.135.59c0,.106-.017.212-.026.318a.965.965,0,0,0,.013.317.827.827,0,0,0,.139.281c.061.085.13.162.192.245a5.367,5.367,0,0,1,.438.762,2.379,2.379,0,0,0,.507.706,6.99,6.99,0,0,0,1,.559.855.855,0,0,1,.257.223.6.6,0,0,1,.1.26.617.617,0,0,1-.025.282Z" transform="translate(-505.36 -358.946)" fill="#f5c021"/>
      </g>
      <path id="Path_20235" data-name="Path 20235" d="M26.535,288.618c.406-.11.751.2,1.046.43a1.081,1.081,0,0,0,.7.129c.386-.014.771.065,1.158.017.761-.064,1.507-.251,2.272-.284a1.73,1.73,0,0,1,1.091.169c.128.089.316.464.442.323a1.067,1.067,0,0,0-.736-.88c-.307-.048-.618.036-.928.009-.919-.022-1.833-.193-2.754-.144-.641.006-1.282-.024-1.922-.049-.251-.051-.34.172-.477.258" transform="translate(-5.436 -262.268)" fill="url(#linear-gradient-13)"/>
      <path id="Path_20236" data-name="Path 20236" d="M182.846,152.285c.147-.023,1.055.749.931,1.036s-.357.114-.524.116-.623.209-.7.078.2-.436.347-.691C183.018,152.619,182.7,152.308,182.846,152.285Z" transform="translate(-159.928 -133.42)" fill="#7c7c7c" opacity="0.75"/>
      <path id="Path_20237" data-name="Path 20237" d="M77.929,111.9c-.015-.178-.269-.2-.382-.116-.1.075-.185.331-.1.431C77.579,112.374,77.949,112.141,77.929,111.9Z" transform="translate(-67.823 -97.891)" fill="#7c7c7c" opacity="0.25"/>
      <path id="Path_20238" data-name="Path 20238" d="M42.133,291.685a.66.66,0,0,0-.338-.3,1.141,1.141,0,0,0-.45-.077c-.307,0-.611.082-.917.056a5.091,5.091,0,0,1-.754-.18,1.6,1.6,0,0,0-.793-.018,1.167,1.167,0,0,0-.671.5,1.574,1.574,0,0,0-.218.716,4.188,4.188,0,0,0,.027.754,3.864,3.864,0,0,0,.083.54,1.432,1.432,0,0,0,.219.5,1.342,1.342,0,0,0,.628.455,1.745,1.745,0,0,0,1.255-.022,3.462,3.462,0,0,0,1.656-1.524,3.246,3.246,0,0,0,.3-.764A1.42,1.42,0,0,0,42.2,292a.683.683,0,0,0-.068-.316Z" transform="translate(-15.561 -264.716)" opacity="0.35" fill="url(#radial-gradient-13)"/>
      <path id="Path_20239" data-name="Path 20239" d="M42.133,210.868a.638.638,0,0,0-.338-.215,1.539,1.539,0,0,0-.45-.056c-.307,0-.611.059-.917.04a6.767,6.767,0,0,1-.754-.13,2.2,2.2,0,0,0-.793-.013,1.206,1.206,0,0,0-.671.362.928.928,0,0,0-.218.518,2.2,2.2,0,0,0,.027.545,2.086,2.086,0,0,0,.083.39.924.924,0,0,0,.219.36,1.408,1.408,0,0,0,.628.329,2.374,2.374,0,0,0,1.255-.016,3.285,3.285,0,0,0,1.656-1.1,2.011,2.011,0,0,0,.3-.552.766.766,0,0,0,.047-.233.382.382,0,0,0-.068-.228Z" transform="translate(-15.561 -184.042)" opacity="0.35" fill="url(#radial-gradient-13)"/>
      <path id="Path_20240" data-name="Path 20240" d="M187.934,200.289a.91.91,0,0,0-.247-.356,1.313,1.313,0,0,0-.37-.229,4.07,4.07,0,0,0-.846-.21c-.27-.051-.538-.112-.809-.158a2.206,2.206,0,0,0-.851-.015,1.451,1.451,0,0,0-.653.349,1.865,1.865,0,0,0-.432.606,2.615,2.615,0,0,0-.2,1.289,1.555,1.555,0,0,0,.323.909,1.408,1.408,0,0,0,.673.4,2.278,2.278,0,0,0,1.345-.019,3.541,3.541,0,0,0,1.775-1.335,1.954,1.954,0,0,0,.316-.669,1,1,0,0,0-.022-.559Z" transform="translate(-160.78 -174.598)" fill="#020204"/>
      <g id="Group_9959" data-name="Group 9959" transform="translate(22.733 24.687)" clip-path="url(#clip-path-8)">
        <path id="Path_20241" data-name="Path 20241" d="M351.922,276.433a1.642,1.642,0,0,0-.2.023,1.516,1.516,0,0,0-1.25,1.61,1.386,1.386,0,0,1,.17-.615,1.266,1.266,0,0,1,.859-.627,2.227,2.227,0,0,1,.674.012c.215.027.431.055.643.1a2.537,2.537,0,0,1,.925.372.9.9,0,0,1,.174.155.459.459,0,0,1,.1.205.491.491,0,0,1-.066.329,1.242,1.242,0,0,1-.213.267q-.1.1-.205.19a2.323,2.323,0,0,0,.9-.333.9.9,0,0,0,.279-.29.553.553,0,0,0,.062-.395.577.577,0,0,0-.132-.24,1.167,1.167,0,0,0-.209-.178,2.479,2.479,0,0,0-1.123-.43q-.387-.071-.778-.12a3.442,3.442,0,0,0-.616-.035Z" transform="translate(-350.471 -276.528)" fill="url(#radial-gradient-15)"/>
      </g>
      <g id="Group_9960" data-name="Group 9960" transform="translate(22.733 24.687)" clip-path="url(#clip-path-8)">
        <path id="Path_20243" data-name="Path 20243" d="M351.922,276.433a1.642,1.642,0,0,0-.2.023,1.516,1.516,0,0,0-1.25,1.61,1.386,1.386,0,0,1,.17-.615,1.266,1.266,0,0,1,.859-.627,2.227,2.227,0,0,1,.674.012c.215.027.431.055.643.1a2.537,2.537,0,0,1,.925.372.9.9,0,0,1,.174.155.459.459,0,0,1,.1.205.491.491,0,0,1-.066.329,1.242,1.242,0,0,1-.213.267q-.1.1-.205.19a2.323,2.323,0,0,0,.9-.333.9.9,0,0,0,.279-.29.553.553,0,0,0,.062-.395.577.577,0,0,0-.132-.24,1.167,1.167,0,0,0-.209-.178,2.479,2.479,0,0,0-1.123-.43q-.387-.071-.778-.12a3.442,3.442,0,0,0-.616-.035Z" transform="translate(-350.471 -276.528)" fill="url(#linear-gradient-14)"/>
      </g>
      <path id="Path_20245" data-name="Path 20245" d="M39.553,106.487q-.517.645-1.032,1.293c-.354.445-.707.89-1.064,1.332a8.138,8.138,0,0,0-1.171,1.726,13.143,13.143,0,0,0-.528,1.716,12.992,12.992,0,0,1-.74,1.9c-.268.568-.564,1.123-.86,1.677a4.209,4.209,0,0,0-.509,1.266,2.6,2.6,0,0,0,.066,1.074,4.958,4.958,0,0,0,.4,1,9.873,9.873,0,0,0,3,3.459,10.549,10.549,0,0,0,1.809,1.056,2.778,2.778,0,0,0,1.087.3,1.327,1.327,0,0,0,.554-.1.985.985,0,0,0,.431-.358,1.031,1.031,0,0,0,.144-.67,1.6,1.6,0,0,0-.237-.651,4.7,4.7,0,0,0-1.214-1.186c-.971-.752-1.911-1.546-2.81-2.383a3.671,3.671,0,0,1-.685-.779,2.915,2.915,0,0,1-.329-.953,5.286,5.286,0,0,1,.181-2.742c.121-.342.281-.668.436-1a12.19,12.19,0,0,1,.873-1.668,19.532,19.532,0,0,0,1.381-1.893,6.692,6.692,0,0,0,.54-1.9q.137-.763.271-1.526Z" transform="translate(-29.456 -93.296)" fill="#020204"/>
      <g id="Group_9961" data-name="Group 9961" transform="translate(4.165 13.215)" clip-path="url(#clip-path-10)">
        <path id="Path_20246" data-name="Path 20246" d="M214.787,222.422a4.088,4.088,0,0,0-.737.907,12.321,12.321,0,0,0-.765,1.77,4.369,4.369,0,0,0-.412,1.37c-.013.246.024.491.032.737a1.364,1.364,0,0,1-.135.717.868.868,0,0,1-.462.389,1.371,1.371,0,0,1,.661.479c.138.186.226.4.346.6a1.589,1.589,0,0,0,.365.427,1.044,1.044,0,0,0,.51.225.9.9,0,0,0,.714-.228,16.758,16.758,0,0,1,.638-6.665,1.886,1.886,0,0,0,.1-.414.593.593,0,0,0-.1-.4.437.437,0,0,0-.747.09Z" transform="translate(-210.857 -217.509)" fill="#7c7c7c" opacity="0.95"/>
      </g>
      <g id="Group_9962" data-name="Group 9962" transform="translate(0 25.079)" clip-path="url(#clip-path-11)">
        <path id="Path_20248" data-name="Path 20248" d="M102.016,280.463a1.123,1.123,0,0,1,.632-.058,1.556,1.556,0,0,1,.588.25,3.734,3.734,0,0,1,.87.939c.579.8,1.136,1.611,1.641,2.456.41.686.786,1.395,1.259,2.038.309.42.657.81.968,1.229a4.238,4.238,0,0,1,.723,1.377,2.763,2.763,0,0,1-.2,1.976,2.61,2.61,0,0,1-.963,1.033,2.484,2.484,0,0,1-1.365.356,6.692,6.692,0,0,1-2.153-.687c-1.435-.571-2.993-.751-4.472-1.2-.454-.137-.9-.3-1.359-.424a4.035,4.035,0,0,1-.6-.192,1.038,1.038,0,0,1-.478-.4.9.9,0,0,1-.115-.469,1.468,1.468,0,0,1,.1-.477c.111-.306.29-.584.411-.887a3.723,3.723,0,0,0,.206-1.571c-.027-.532-.113-1.059-.149-1.589a2.75,2.75,0,0,1,.023-.711,1.066,1.066,0,0,1,.9-.913,2.881,2.881,0,0,1,.655-.042,6.3,6.3,0,0,0,.657,0,1.508,1.508,0,0,0,.628-.176,1.484,1.484,0,0,0,.451-.425,5.219,5.219,0,0,0,.323-.534,3.425,3.425,0,0,1,.34-.524,1.3,1.3,0,0,1,.488-.38Z" transform="translate(-96.988 -280.384)" fill="url(#linear-gradient-15)"/>
        <path id="Path_20249" data-name="Path 20249" d="M105.664,283.328a.97.97,0,0,1,.573-.038,1.342,1.342,0,0,1,.519.254,3.28,3.28,0,0,1,.725.9c.492.8.973,1.6,1.427,2.424A16.081,16.081,0,0,0,110,288.686c.28.377.6.722.887,1.095a3.7,3.7,0,0,1,.668,1.231,2.424,2.424,0,0,1-.185,1.763,2.351,2.351,0,0,1-.89.931,2.292,2.292,0,0,1-1.25.308,6.987,6.987,0,0,1-1.98-.613c-1.252-.454-2.608-.515-3.892-.87-.46-.125-.909-.292-1.371-.408a4.163,4.163,0,0,1-.607-.176.985.985,0,0,1-.483-.392.855.855,0,0,1-.1-.453,1.423,1.423,0,0,1,.1-.458c.112-.293.287-.559.4-.852a3.286,3.286,0,0,0,.16-1.4c-.032-.473-.114-.943-.143-1.416a2.411,2.411,0,0,1,.028-.634,1.088,1.088,0,0,1,.284-.559,1.107,1.107,0,0,1,.617-.285,2.872,2.872,0,0,1,.688,0,4.633,4.633,0,0,0,.689.032,1.292,1.292,0,0,0,.653-.2,1.308,1.308,0,0,0,.4-.471,5.006,5.006,0,0,0,.245-.572,2.705,2.705,0,0,1,.275-.559,1.079,1.079,0,0,1,.471-.4" transform="translate(-100.323 -282.907)" fill="#d99a03"/>
        <path id="Path_20250" data-name="Path 20250" d="M108.142,275.586a.894.894,0,0,1,.572-.065,1.221,1.221,0,0,1,.52.255,2.843,2.843,0,0,1,.671.935,25.421,25.421,0,0,0,1.281,2.327c.355.536.766,1.036,1.125,1.57a6.5,6.5,0,0,1,1.048,2.373,2.6,2.6,0,0,1-.17,1.71,1.907,1.907,0,0,1-.825.794,2.138,2.138,0,0,1-1.138.211,7.081,7.081,0,0,1-1.749-.566c-1.025-.373-2.133-.463-3.188-.744-.445-.119-.881-.272-1.332-.366a3.954,3.954,0,0,1-.592-.144.869.869,0,0,1-.467-.366.737.737,0,0,1-.081-.408,1.293,1.293,0,0,1,.107-.407c.11-.26.273-.5.358-.766a2.318,2.318,0,0,0-.02-1.225,9.7,9.7,0,0,1-.272-1.209,1.672,1.672,0,0,1,.024-.549.968.968,0,0,1,.261-.48,1.09,1.09,0,0,1,.654-.271,3.04,3.04,0,0,1,.721.043,3.846,3.846,0,0,0,.72.061,1.18,1.18,0,0,0,.676-.222,1.155,1.155,0,0,0,.372-.588,4.068,4.068,0,0,0,.117-.693,2.542,2.542,0,0,1,.152-.685A1,1,0,0,1,108.142,275.586Z" transform="translate(-102.968 -275.615)" fill="#f5bd0c"/>
        <path id="Path_20251" data-name="Path 20251" d="M156.407,295.969c.323.584.52,1.254.84,1.843.295.542.63,1.1.929,1.6.133.222.444.564.758,1.095.285.481.572,1.152.733,1.377-.092-.264-.282-.972-.509-1.477a7.069,7.069,0,0,0-.61-.995c-.3-.5-.621-.949-.929-1.425-.424-.657-.748-1.392-1.212-2.017Z" transform="translate(-149.046 -294.038)" fill="url(#linear-gradient-16)"/>
      </g>
    </g>
  </g>
</svg>
