<svg xmlns="http://www.w3.org/2000/svg" xmlns:xlink="http://www.w3.org/1999/xlink" width="40" height="40" viewBox="0 0 40 40">
  <defs>
    <clipPath id="clip-path">
      <rect id="Rectangle_3492" data-name="Rectangle 3492" width="40" height="40" transform="translate(-20727 15987)" fill="#fff" stroke="#707070" stroke-width="1"/>
    </clipPath>
  </defs>
  <g id="solaris" transform="translate(20727 -15987)" clip-path="url(#clip-path)">
    <g id="layer1" transform="translate(-20730.041 15975.163)">
      <path id="path2453" d="M21.163,109.219l-9.825-5.3,10.9,2.08Z" transform="translate(-5.385 -74.466)" fill="#c1003f" stroke="#c1003f" stroke-width="1" fill-rule="evenodd"/>
      <path id="path2455" d="M54.343,54.888l-5.969-9.8,8.383,7.784Z" transform="translate(-37.056 -24.162)" fill="#c1003f" stroke="#c1003f" stroke-width="1" fill-rule="evenodd"/>
      <path id="path2457" d="M115.811,27.908l-2.683-11.072-.4,11.407Z" transform="translate(-92.086)" fill="#c1003f" stroke="#c1003f" stroke-width="1" fill-rule="evenodd"/>
      <path id="path2459" d="M141.66,38.63l6.325-9.451L144.41,40.073Z" transform="translate(-116.828 -10.554)" fill="#c1003f" stroke="#c1003f" stroke-width="1" fill-rule="evenodd"/>
      <path id="path2461" d="M168.039,86.625l-1.61-2.885,9.916-4.517Z" transform="translate(-138.009 -53.349)" fill="#c1003f" stroke="#c1003f" stroke-width="1" fill-rule="evenodd"/>
      <path id="path3241" d="M41.041,143.007c-10.522-1.793-36.239.034-36,5.3.12,4.164,16.416,5.189,26,5.076-9.069-.758-15.885-2.2-16-4.738C15.165,144.207,26.945,143.473,41.041,143.007Z" transform="translate(0 -107.321)" fill="#4a3c7b" stroke="#4a3c7b" stroke-width="1" fill-rule="evenodd"/>
    </g>
  </g>
</svg>
