<svg xmlns="http://www.w3.org/2000/svg" xmlns:xlink="http://www.w3.org/1999/xlink" width="18" height="18" viewBox="0 0 18 18">
  <defs>
    <clipPath id="clip-path">
      <rect id="Rectangle_861" data-name="Rectangle 861" width="18" height="18" transform="translate(1449 229)" fill="#fff" stroke="#707070" stroke-width="1"/>
    </clipPath>
  </defs>
  <g id="action" transform="translate(-1449 -229)" clip-path="url(#clip-path)">
    <path id="Configure" d="M14.142,12.255a1.816,1.816,0,0,1,1.706-.919.735.735,0,0,0,.735-.6,7.222,7.222,0,0,0,0-2.515.735.735,0,0,0-.735-.6A1.816,1.816,0,0,1,14.142,6.7a1.839,1.839,0,0,1,.066-1.949.735.735,0,0,0-.154-.971,7.354,7.354,0,0,0-2.14-1.243A.735.735,0,0,0,11,2.856a1.816,1.816,0,0,1-3.28,0A.735.735,0,0,0,6.81,2.5,7.354,7.354,0,0,0,4.67,3.775a.735.735,0,0,0-.154.971A1.839,1.839,0,0,1,4.582,6.7a1.816,1.816,0,0,1-1.706.919.735.735,0,0,0-.735.6,7.222,7.222,0,0,0,0,2.515.735.735,0,0,0,.735.6,1.816,1.816,0,0,1,1.706.919A1.839,1.839,0,0,1,4.516,14.2a.735.735,0,0,0,.154.971,7.354,7.354,0,0,0,2.14,1.243.735.735,0,0,0,.912-.324,1.816,1.816,0,0,1,3.28,0,.735.735,0,0,0,.912.353,7.354,7.354,0,0,0,2.14-1.243.735.735,0,0,0,.154-.971A1.839,1.839,0,0,1,14.142,12.255Zm-4.78.162A2.942,2.942,0,1,1,12.3,9.475,2.942,2.942,0,0,1,9.362,12.417Z" transform="translate(1448.638 228.043)" fill="none" stroke="#b73f83" stroke-width="1"/>
  </g>
</svg>
