<svg xmlns="http://www.w3.org/2000/svg" xmlns:xlink="http://www.w3.org/1999/xlink" width="18" height="18" viewBox="0 0 18 18">
  <defs>
    <clipPath id="clip-path">
      <rect id="Rectangle_771" data-name="Rectangle 771" width="18" height="18" transform="translate(-0.938 -1.099)" fill="#fff" stroke="#707070" stroke-width="1"/>
    </clipPath>
  </defs>
  <g id="edit" transform="translate(0.938 1.099)" clip-path="url(#clip-path)">
    <path id="Path_9264" data-name="Path 9264" d="M20.685,10.259,14.714,4.245a.8.8,0,0,0-1.186,0L4.254,13.519A.847.847,0,0,0,4,14.112v5.971a.847.847,0,0,0,.847.847h5.971a.847.847,0,0,0,.593-.254l9.274-9.232a.8.8,0,0,0,0-1.186ZM10.479,19.236H5.694V14.451L10.987,9.2l4.743,4.785ZM16.958,12.8,12.173,8.014l1.948-1.99,4.785,4.828Z" transform="translate(-3.883 -5.031)" fill="#8f9198"/>
  </g>
</svg>
