<svg xmlns="http://www.w3.org/2000/svg" xmlns:xlink="http://www.w3.org/1999/xlink" width="18" height="18" viewBox="0 0 18 18">
  <defs>
    <clipPath id="clip-path">
      <rect id="Rectangle_1236" data-name="Rectangle 1236" width="18" height="18" fill="#fff" stroke="#707070" stroke-width="1"/>
    </clipPath>
  </defs>
  <g id="infra-objects" clip-path="url(#clip-path)">
    <g id="Group_6062" data-name="Group 6062" transform="translate(0.479 0.769)">
      <path id="Path_12815" data-name="Path 12815" d="M.037,8.723V5.591" transform="translate(8.554 6.077)" fill="none" stroke="#b73f83" stroke-linecap="round" stroke-width="1"/>
      <path id="Path_12816" data-name="Path 12816" d="M481.223-339.583h-1.006a4.359,4.359,0,0,0-.581-1.408l.7-.715a.29.29,0,0,0,0-.425l-.916-.927a.325.325,0,0,0-.436,0l-.715.715a4.2,4.2,0,0,0-1.4-.581v-1.006a.306.306,0,0,0-.313-.313h-1.3a.312.312,0,0,0-.313.313v1.006a4.629,4.629,0,0,0-1.4.581l-.7-.715a.34.34,0,0,0-.447,0l-.916.927a.3.3,0,0,0,0,.436l.715.7a4.36,4.36,0,0,0-.581,1.408h-1.006a.3.3,0,0,0-.3.3v1.307a.3.3,0,0,0,.3.3h1.017a4.141,4.141,0,0,0,.57,1.4l-.7.715a.3.3,0,0,0,0,.436l.905.927a.34.34,0,0,0,.447,0l.715-.726a4.7,4.7,0,0,0,1.4.592v.994a.3.3,0,0,0,.3.313h1.3a.306.306,0,0,0,.313-.313v-1.006a4.2,4.2,0,0,0,1.4-.581l.726.715a.311.311,0,0,0,.425,0l.916-.916a.3.3,0,0,0,0-.436l-.7-.715a4.36,4.36,0,0,0,.581-1.408h1.006a.3.3,0,0,0,.313-.291v-1.307A.31.31,0,0,0,481.223-339.583Zm-5.307,2.57a1.629,1.629,0,0,1-1.62-1.62,1.621,1.621,0,0,1,1.62-1.62,1.617,1.617,0,0,1,1.631,1.62A1.624,1.624,0,0,1,475.915-337.013Z" transform="translate(-467.362 344.242)" fill="none" stroke="#b73f83" stroke-linecap="round" stroke-linejoin="round" stroke-width="1"/>
      <line id="Line_513" data-name="Line 513" x2="9" transform="translate(4.021 14.8)" fill="none" stroke="#b73f83" stroke-linecap="round" stroke-miterlimit="10" stroke-width="1"/>
      <ellipse id="Ellipse_1438" data-name="Ellipse 1438" cx="1.768" cy="1.768" rx="1.768" ry="1.768" transform="translate(0 13.032)" fill="none" stroke="#b73f83" stroke-linecap="round" stroke-miterlimit="10" stroke-width="1"/>
      <ellipse id="Ellipse_1439" data-name="Ellipse 1439" cx="1.768" cy="1.768" rx="1.768" ry="1.768" transform="translate(13 13.032)" fill="none" stroke="#b73f83" stroke-linecap="round" stroke-miterlimit="10" stroke-width="1"/>
    </g>
  </g>
</svg>
