<svg xmlns="http://www.w3.org/2000/svg" width="26" height="25.863" viewBox="0 0 26 25.863">
  <g id="monitoring-Service" transform="translate(-1787.65 -944.026)">
    <path id="Path_6955" data-name="Path 6955" d="M1800.65,968.493v-2.775a1.612,1.612,0,0,0-1.615-1.609h-8.246a2.135,2.135,0,0,1-2.139-2.131V947.157a2.135,2.135,0,0,1,2.139-2.131h19.722a2.135,2.135,0,0,1,2.139,2.131v14.821a2.135,2.135,0,0,1-2.139,2.131h-12.98" transform="translate(0)" fill="none" stroke="#8f9198" stroke-linecap="round" stroke-width="2"/>
    <line id="Line_347" data-name="Line 347" x2="7.671" transform="translate(1796.815 968.889)" fill="none" stroke="#8f9198" stroke-linecap="round" stroke-width="2"/>
    <path id="Path_6956" data-name="Path 6956" d="M1817.908,971.971a4.487,4.487,0,1,0-2.457-2.13,1.879,1.879,0,0,1-.333,2.206l-3.039,3.03" transform="translate(-17.719 -14.76)" fill="none" stroke="#8f9198" stroke-linecap="round" stroke-width="2"/>
  </g>
</svg>
