<svg xmlns="http://www.w3.org/2000/svg" width="19.6" height="23.917" viewBox="0 0 19.6 23.917">
  <g id="notification" transform="translate(-345.893 48.875)">
    <path id="Path_9277" data-name="Path 9277" d="M364.743-34.32v.374a3.136,3.136,0,0,1-3.142,3.117H349.784a3.129,3.129,0,0,1-3.141-3.117h0v-.374a3.109,3.109,0,0,1,1.205-2.459,2.516,2.516,0,0,0,1.035-1.967v-2.341a7,7,0,0,1,6.961-7.039h.073a6.8,6.8,0,0,1,4.587,1.98,6.691,6.691,0,0,1,2,4.768v2.63a2.511,2.511,0,0,0,1.032,1.967A3.108,3.108,0,0,1,364.743-34.32Z" fill="none" stroke="#8f9198" stroke-width="1.5"/>
    <path id="Path_9278" data-name="Path 9278" d="M356.471-34.181a2.427,2.427,0,0,1-2.427,2.427h0a2.426,2.426,0,0,1-2.427-2.426h4.855Z" transform="translate(1.649 6.045)" fill="none" stroke="#8f9198" stroke-width="1.5"/>
  </g>
</svg>
