<svg  width="24" height="24" viewBox="0 0 24 24">
  <defs>
    <clipPath id="clip-path">
      <rect id="Rectangle_1054" data-name="Rectangle 1054" width="24" height="24" transform="translate(1239.834 146)" fill="#fff" stroke="#707070" stroke-width="1"/>
    </clipPath>
  </defs>
  <g id="db_group_name" transform="translate(-1239.834 -146)" clip-path="url()">
    <g id="Group_6790" data-name="Group 6790" transform="translate(1013.121 -203.784)">
      <path id="Path_13784" data-name="Path 13784" d="M233.935,463.3c-.367-.039-.736-.069-1.1-.12a7.119,7.119,0,0,1-2.831-.863,2.394,2.394,0,0,1-.573-.517.8.8,0,0,1-.168-.465c-.016-.851-.008-1.7-.008-2.578a3.263,3.263,0,0,0,2.2,1.331,12.411,12.411,0,0,0,3.673.376,11.359,11.359,0,0,0,3.13-.487,6.56,6.56,0,0,0,.915-.383,1.89,1.89,0,0,0,.9-.85c0,.25,0,.468,0,.685,0,.579-.013,1.159.005,1.737a1.121,1.121,0,0,1-.483.969,4.669,4.669,0,0,1-2.014.843c-.668.131-1.349.195-2.024.289-.057.008-.114.021-.171.032Z" transform="translate(-0.032 -93.016)" fill="none" stroke="#b73f83" stroke-width="1"/>
      <path id="Path_13785" data-name="Path 13785" d="M234.636,399.412a12.523,12.523,0,0,1,3.746.586,3.387,3.387,0,0,1,1.344.762.993.993,0,0,1,.312.751,12.052,12.052,0,0,0,0,1.229,1.29,1.29,0,0,1-.726,1.274,6.306,6.306,0,0,1-2.272.78,13.541,13.541,0,0,1-5.365-.112,5.019,5.019,0,0,1-1.945-.814,1.168,1.168,0,0,1-.52-1.05c.02-.4.019-.807,0-1.21a1.157,1.157,0,0,1,.52-1.03,5.1,5.1,0,0,1,1.926-.81,8.3,8.3,0,0,1,1.034-.192C233.34,399.507,233.988,399.466,234.636,399.412Z" transform="translate(0 -40.291)" fill="none" stroke="#b73f83" stroke-width="1"/>
      <path id="Path_13786" data-name="Path 13786" d="M294.1,383.742c.021-.72-.554-1.094-1.126-1.472a8.013,8.013,0,0,0-1.241-.642c-.407-.176-.388-.156-.424-.6a1.318,1.318,0,0,1,.68-1.358,5.536,5.536,0,0,1,.621-.325,8.9,8.9,0,0,1,2.569-.613,13.805,13.805,0,0,1,3.077,0,7.592,7.592,0,0,1,3.158.912,1.173,1.173,0,0,1,.7.886,15.541,15.541,0,0,1,0,1.793c-.024.429-.36.676-.693.889a5.5,5.5,0,0,1-1.831.695,13,13,0,0,1-5.488,0C294.067,383.9,294.142,383.753,294.1,383.742Z" transform="translate(-54.079 -22.54)" fill="none" stroke="#b73f83" stroke-width="1"/>
      <path id="Path_13787" data-name="Path 13787" d="M250.444,357.753h-1.021a10.131,10.131,0,0,1-3.349-.648,2.949,2.949,0,0,1-1.032-.64.962.962,0,0,1-.3-.707q.006-.722,0-1.443a1.214,1.214,0,0,1,.718-1.045,5.843,5.843,0,0,1,2.059-.733,13.62,13.62,0,0,1,5.688.1,4.958,4.958,0,0,1,1.817.761,1.152,1.152,0,0,1,.54,1.064,7.1,7.1,0,0,0,0,.731c0,.128-.034.175-.17.188a10.46,10.46,0,0,0-2.7.568,5.978,5.978,0,0,0-.893.423C251.172,356.732,250.631,357.066,250.444,357.753Z" transform="translate(-14.276 1)" fill="none" stroke="#b73f83" stroke-width="1"/>
      <path id="Path_13788" data-name="Path 13788" d="M240.083,432.49c0,.859.006,1.717,0,2.576a1.031,1.031,0,0,1-.48.79,4.417,4.417,0,0,1-1.618.746,13.216,13.216,0,0,1-4.819.331,8.935,8.935,0,0,1-2.572-.6,2.921,2.921,0,0,1-1.03-.654.891.891,0,0,1-.287-.6c-.007-.863,0-1.725,0-2.621a2.74,2.74,0,0,0,1.767,1.223,12.362,12.362,0,0,0,4.707.473,9.08,9.08,0,0,0,3.216-.722A2.18,2.18,0,0,0,240.083,432.49Z" transform="translate(-0.049 -69.541)" fill="none" stroke="#b73f83" stroke-width="1"/>
      <path id="Path_13789" data-name="Path 13789" d="M308.958,439.18c.291.049.574.1.859.143a12.85,12.85,0,0,0,3.467.04,8.044,8.044,0,0,0,2.588-.672,2.016,2.016,0,0,0,1.07-.973c.006.093.013.146.013.2,0,.735-.01,1.47.005,2.2a1.18,1.18,0,0,1-.479,1,4.59,4.59,0,0,1-1.86.822,12.714,12.714,0,0,1-5.531.067c-.1-.021-.151-.049-.15-.169,0-.852,0-1.7,0-2.556A.924.924,0,0,1,308.958,439.18Z" transform="translate(-68.903 -75.041)" fill="none" stroke="#b73f83" stroke-width="1"/>
      <path id="Path_13790" data-name="Path 13790" d="M317.018,411.83c0,.838.008,1.7,0,2.553a1.051,1.051,0,0,1-.476.806,4.806,4.806,0,0,1-1.993.851,12.875,12.875,0,0,1-5.394.037,1.522,1.522,0,0,1-.147-.045v-2.8c.1.016.188.026.278.044a12.854,12.854,0,0,0,3.919.158,8.161,8.161,0,0,0,2.409-.551,5.654,5.654,0,0,0,1-.579A2.449,2.449,0,0,0,317.018,411.83Z" transform="translate(-68.968 -51.908)" fill="none" stroke="#b73f83" stroke-width="1"/>
      <g id="Path_13791" data-name="Path 13791" transform="translate(230.035 357.238)" fill="none">
        <path d="M0,0H1.167L1.24,2.436.6,2.325H0Z" stroke="none"/>
        <path d="M -2.86102294921875e-06 -2.384185791015625e-07 L 1.167277216911316 -2.384185791015625e-07 L 1.240237236022949 2.436279535293579 L 0.6018772125244141 2.324819564819336 L -2.86102294921875e-06 2.324819564819336 L -2.86102294921875e-06 -2.384185791015625e-07 Z" stroke="none" fill="#b73f83"/>
      </g>
    </g>
  </g>
</svg>
