<svg width="24" height="24" viewBox="0 0 24 24">
  <defs>
    <clipPath id="clip-path">
      <rect id="Rectangle_1054" data-name="Rectangle 1054" width="24" height="24" transform="translate(1239.834 145.5)" fill="#fff" stroke="#707070" stroke-width="1"/>
    </clipPath>
  </defs>
  <g id="instance_name" transform="translate(-1239.834 -145.5)" clip-path="url()">
    <g id="Group_6787" data-name="Group 6787" transform="translate(1241.334 149)">
      <path id="Path_5973" data-name="Path 5973" d="M1761.915,902.174" transform="translate(-1744.575 -890.092)" fill="none" stroke="#b73f83" stroke-linecap="round" stroke-miterlimit="10" stroke-width="1"/>
      <path id="Path_5974" data-name="Path 5974" d="M1671.876,849.136c-.083,0-.165,0-.247-.009a3.42,3.42,0,0,1-.5-6.75c-.015-.15-.022-.3-.022-.458a4.865,4.865,0,0,1,9.494-1.5,3.976,3.976,0,0,1,5.651,1.427" transform="translate(-1668.455 -837.054)" fill="none" stroke="#b73f83" stroke-linecap="round" stroke-miterlimit="10" stroke-width="1"/>
      <path id="Path_5975" data-name="Path 5975" d="M1762.377,862.884a3.659,3.659,0,0,1-.462,7.289" transform="translate(-1744.576 -858.092)" fill="none" stroke="#b73f83" stroke-linecap="round" stroke-miterlimit="10" stroke-width="1"/>
      <g id="Group_6787-2" data-name="Group 6787" transform="translate(5.418 6.377)">
        <path id="Path_13741" data-name="Path 13741" d="M15.03,7.441v3.466c0,.812-2.2,1.472-4.913,1.472S5.2,11.718,5.2,10.907V7.441c0,.805,2.2,1.466,4.913,1.466S15.03,8.246,15.03,7.441Z" transform="translate(-5.204 -5.976)" fill="rgba(0,0,0,0)" stroke="#b73f83" stroke-linecap="round" stroke-linejoin="round" stroke-width="1"/>
        <path id="Path_13742" data-name="Path 13742" d="M15.03,11.441v3.466c0,.812-2.2,1.472-4.913,1.472S5.2,15.718,5.2,14.907V11.441c0,.805,2.2,1.465,4.913,1.465S15.03,12.246,15.03,11.441Z" transform="translate(-5.204 -6.526)" fill="rgba(0,0,0,0)" stroke="#b73f83" stroke-linecap="round" stroke-linejoin="round" stroke-width="1"/>
        <path id="Path_13743" data-name="Path 13743" d="M15.03,7.207c0,.805-2.2,1.466-4.913,1.466S5.2,8.013,5.2,7.207c0-.455.693-.858,1.782-1.129h.006a13.367,13.367,0,0,1,3.125-.336c.532,0,1.039.027,1.516.072C13.6,6.006,15.03,6.56,15.03,7.207Z" transform="translate(-5.204 -5.742)" fill="rgba(0,0,0,0)" stroke="#b73f83" stroke-linecap="round" stroke-linejoin="round" stroke-width="1"/>
      </g>
    </g>
  </g>
</svg>
