<svg xmlns="http://www.w3.org/2000/svg" xmlns:xlink="http://www.w3.org/1999/xlink" width="24" height="24" viewBox="0 0 24 24">
  <defs>
    <clipPath id="clip-path">
      <rect id="Rectangle_1054" data-name="Rectangle 1054" width="24" height="24" transform="translate(1240.334 146)" fill="#fff" stroke="#707070" stroke-width="1"/>
    </clipPath>
  </defs>
  <g id="mailbox" transform="translate(-1240.334 -146)" clip-path="url(#clip-path)">
    <path id="Path_13929" data-name="Path 13929" d="M3.1,11.781a.443.443,0,0,1-.443-.443V10.42a.443.443,0,0,1,.887,0v.475H11V4.364A4.76,4.76,0,0,0,9.728,1.977h0L9.7,1.952h0l-.024-.022H9.668L9.643,1.9h0l-.024-.021h0l-.024-.02H9.58l-.024-.02h0l-.014-.012L9.524,1.8l-.013-.011,0,0,0,0-.012-.01L9.478,1.76l-.016-.013h0l0,0h0l-.024-.019h0L9.41,1.707h0L9.4,1.7h0L9.38,1.684l-.015-.011-.016-.011L9.333,1.65l-.017-.012L9.3,1.627h0l-.024-.016-.008-.006h0L9.246,1.59l-.011-.007-.021-.014L9.2,1.561l-.02-.013-.014-.009-.021-.013-.012-.007L9.112,1.5h0L9.1,1.5l-.024-.015h0l-.011-.007-.019-.011h0L9.03,1.455h0l-.017-.01h0L9,1.436l-.025-.014-.009-.005L8.935,1.4l-.008,0h0L8.9,1.382l-.009,0-.024-.013-.014-.007h0l-.023-.012L8.817,1.34l-.026-.013h0l-.009,0h0l-.028-.014h0l-.007,0h0l-.027-.013h0l-.009,0L8.68,1.274l-.011-.005-.028-.013-.009,0L8.6,1.24l-.01,0-.028-.012h0l-.011,0-.026-.011h0l-.011,0h0L8.5,1.2h-.01l-.007,0H8.47L8.457,1.18H8.445l0,0H8.431l-.021-.008H8.405l0,0H8.391l-.013,0H8.352l-.015-.006h-.01l-.007,0H8.311L8.3,1.12H8.271l-.019-.007H8.244l-.005,0h-.01l-.015-.005H8.19l-.02-.006H8.148l-.02-.006H8.106l-.021-.006H8.061l-.019-.005H8.025L8,1.028H7.973l-.015,0H7.93l-.016,0H7.905L7.9,1h0L7.821.982H7.809L7.774.972h0l-.009,0L7.727.961l-.009,0L7.682.951l-.009,0L7.646.944l-.009,0-.009,0h0L7.6.935H7.592l-.01,0L7.545.924l-.009,0L7.5.916l-.009,0L7.452.907H7.442L7.414.9H7.386l-.019,0H7.338l-.019,0a3.768,3.768,0,0,0-1.774.455A3.845,3.845,0,0,0,4.166,2.606a.441.441,0,0,1-.738-.485A4.738,4.738,0,0,1,5.126.562,4.645,4.645,0,0,1,7.343,0h7.2A5.475,5.475,0,0,1,20,5.461v5.877a.443.443,0,0,1-.443.443H15.413v1.273a.741.741,0,0,1-.217.523l0,0a.741.741,0,0,1-.521.217H11.343v3.962H10.024V13.8H6.7a.738.738,0,0,1-.522-.218h0a.74.74,0,0,1-.217-.524V11.781ZM.624,3.155H7.954A.614.614,0,0,1,8.19,3.2a.648.648,0,0,1,.2.134l0,0a.624.624,0,0,1,.182.44V8.817A.624.624,0,0,1,8.55,9a.6.6,0,0,1-.072.153.334.334,0,0,1-.026.047l-.006.008a.353.353,0,0,1-.039.047h0a.311.311,0,0,1-.04.034L8.356,9.3,8.344,9.3a.623.623,0,0,1-.178.1.616.616,0,0,1-.213.038H.624A.614.614,0,0,1,.388,9.4a.648.648,0,0,1-.2-.134h0A.622.622,0,0,1,0,8.819V3.782a.623.623,0,0,1,.183-.441l.009-.009a.619.619,0,0,1,.4-.174.158.158,0,0,1,.031,0Zm.038,5.1,2.2-2.2-2.2-1.79V8.256Zm2.711-1.78-2.3,2.3h6.41L5.3,6.479,4.571,7.1h0a.326.326,0,0,1-.214.082A.331.331,0,0,1,4.144,7.1l-.77-.626ZM5.8,6.048,7.913,8.263V4.25L5.8,6.048ZM1.167,3.82l3.184,2.6L7.4,3.82Zm13.359,7.961H6.84v1.128h7.686V11.781Zm-2.64-.886h7.227V5.461A4.589,4.589,0,0,0,14.54.887H9.785l.009.007L9.8.9h0l.016.012L9.83.919,9.84.925h0l.026.018h0l.009.007h0L9.9.97h0l.009.007L9.92.984h0L9.938,1h0l.022.017h0l.015.011.025.02.01.008h0l.02.016h.006l.008.007h0l.025.02.01.009h0l.023.019h.006l0,0h0l.027.023h.006l.025.022h0v0h0l0,0,0,0h0l.025.022h0l0,0h0l.026.024h0l0,0h0v0h0l.03.028h.006l.028.026h0a5.639,5.639,0,0,1,1.531,2.85.452.452,0,0,1,.018.127v6.581Z" transform="translate(1241.834 148.5)" fill="#b73f83"/>
  </g>
</svg>
