<svg xmlns="http://www.w3.org/2000/svg" xmlns:xlink="http://www.w3.org/1999/xlink" width="432.59" height="55.188" viewBox="0 0 432.59 55.188">
  <defs>
    <linearGradient id="linear-gradient" x1="-2.583" y1="1.81" x2="1.643" y2="2.02" gradientUnits="objectBoundingBox">
      <stop offset="0" stop-color="#a73493"/>
      <stop offset="1" stop-color="#f2654c"/>
    </linearGradient>
    <linearGradient id="linear-gradient-7" x1="0.726" y1="1" x2="1.087" y2="1.614" gradientUnits="objectBoundingBox">
      <stop offset="0" stop-color="#a13098"/>
      <stop offset="0.515" stop-color="#cd4d6e"/>
      <stop offset="1" stop-color="#fb6b43"/>
    </linearGradient>
    <linearGradient id="linear-gradient-8" x1="-0.065" y1="1.229" x2="1.087" y2="1.614" xlink:href="#linear-gradient-7"/>
    <linearGradient id="linear-gradient-9" x1="-0.63" y1="2.508" x2="-1.705" y2="2.014" xlink:href="#linear-gradient-7"/>
    <linearGradient id="linear-gradient-10" x1="2.078" y1="3.95" x2="-0.315" y2="0.097" xlink:href="#linear-gradient-7"/>
  </defs>
  <g id="svg_logo" data-name="svg logo" transform="translate(-1144 -282.018)">
    <g id="logo" transform="translate(786.354 108.462)">
      <g id="Logo-2" data-name="Logo" transform="translate(20 -57.303)">
        <text id="TM" transform="translate(749.235 249.067)" fill="#333" font-size="14" font-family="Roboto-Medium, Roboto" font-weight="500"><tspan x="0" y="0">TM</tspan></text>
        <g id="Group_1903" data-name="Group 1903" transform="translate(63.956 31.325)">
          <g id="Group_1702" data-name="Group 1702" transform="translate(373.023 213.242)">
            <path id="Path_6875" data-name="Path 6875" d="M155.3,55.371a10.233,10.233,0,0,1-4.547,5.576,15.164,15.164,0,0,1-13.571,1.035,13.782,13.782,0,0,1-4.573-3.1,14.473,14.473,0,0,1-2.992-4.685,15.886,15.886,0,0,1,0-11.608,14.453,14.453,0,0,1,2.992-4.669,13.826,13.826,0,0,1,4.573-3.082,15.344,15.344,0,0,1,13.3.849,10.017,10.017,0,0,1,4.52,5.13l-4.287,2.122a7.2,7.2,0,0,0-3.024-3.316,9.294,9.294,0,0,0-4.775-1.236,8.87,8.87,0,0,0-6.791,2.833A10.081,10.081,0,0,0,133.47,48.4a10.244,10.244,0,0,0,2.653,7.226,8.812,8.812,0,0,0,6.791,2.87,9.373,9.373,0,0,0,5.051-1.353,7.013,7.013,0,0,0,2.992-3.671Z" transform="translate(-128.52 -33.444)" fill="#333"/>
            <path id="Path_6876" data-name="Path 6876" d="M186.5,52.9a10.579,10.579,0,0,1,14.743,0,10.081,10.081,0,0,1,2.992,7.427,10.356,10.356,0,0,1-20.691.937q-.021-.469,0-.937A10.08,10.08,0,0,1,186.5,52.9Zm11.55,3.109A5.9,5.9,0,0,0,189.695,56l-.011.011a5.986,5.986,0,0,0-1.661,4.313,5.865,5.865,0,0,0,10.038,4.281,6.276,6.276,0,0,0,0-8.584Z" transform="translate(-154.345 -41.051)" fill="#333"/>
            <path id="Path_6877" data-name="Path 6877" d="M240.353,49.91a7.685,7.685,0,0,1,5.968,2.43,9.35,9.35,0,0,1,2.212,6.568V70.3h-4.568V59.624a5.359,5.359,0,0,0-1.289-3.788,4.415,4.415,0,0,0-3.422-1.4,5.909,5.909,0,0,0-2.9.759,5.578,5.578,0,0,0-2.122,2.037V70.3H229.7V50.329h4.525v2.69a6.415,6.415,0,0,1,2.578-2.271A7.7,7.7,0,0,1,240.353,49.91Z" transform="translate(-176.021 -41.05)" fill="#333"/>
            <path id="Path_6878" data-name="Path 6878" d="M282.43,61.711l.255,4.011a5.565,5.565,0,0,1-2.451.477,7.4,7.4,0,0,1-5.459-2.053,7.688,7.688,0,0,1-2.074-5.7v-8.17h-3.83V45.949h3.83V40.58h4.531v5.369h5.247v4.329h-5.247v7.958a3.518,3.518,0,0,0,3.313,3.711c.112.006.225.007.337,0A5.381,5.381,0,0,0,282.43,61.711Z" transform="translate(-194.41 -36.67)" fill="#333"/>
            <path id="Path_6879" data-name="Path 6879" d="M301.459,34.064a2.816,2.816,0,0,1,2.053-.854,2.855,2.855,0,0,1,2.069.854,2.77,2.77,0,0,1,.865,2.037,2.807,2.807,0,0,1-.854,2.074,2.838,2.838,0,0,1-2.069.859,2.907,2.907,0,0,1-2.053-4.971Zm-.239,8.425h4.531V62.458H301.22Z" transform="translate(-209.311 -33.21)" fill="#333"/>
            <path id="Path_6880" data-name="Path 6880" d="M330.018,49.91a7.668,7.668,0,0,1,5.963,2.43,9.4,9.4,0,0,1,2.218,6.568V70.3h-4.573V59.624a5.38,5.38,0,0,0-1.284-3.788,4.43,4.43,0,0,0-3.422-1.4,5.93,5.93,0,0,0-2.907.759,5.559,5.559,0,0,0-2.122,2.037V70.3H319.36V50.329h4.531v2.69a6.4,6.4,0,0,1,2.573-2.271A7.7,7.7,0,0,1,330.018,49.91Z" transform="translate(-218.114 -41.05)" fill="#333"/>
            <path id="Path_6881" data-name="Path 6881" d="M378.126,50.7h4.568V70.669h-4.568v-2.69a6.228,6.228,0,0,1-2.547,2.255,7.832,7.832,0,0,1-3.56.838,7.651,7.651,0,0,1-5.969-2.425,9.435,9.435,0,0,1-2.191-6.595V50.7h4.525V61.353a5.366,5.366,0,0,0,1.3,3.793,4.5,4.5,0,0,0,3.448,1.4A5.742,5.742,0,0,0,376,65.772a5.63,5.63,0,0,0,2.122-2.043Z" transform="translate(-239.005 -41.421)" fill="#333"/>
            <path id="Path_6882" data-name="Path 6882" d="M408.039,34.064a2.816,2.816,0,0,1,2.053-.854,2.855,2.855,0,0,1,2.069.854,2.771,2.771,0,0,1,.865,2.037,2.807,2.807,0,0,1-.865,2.074,2.838,2.838,0,0,1-2.069.859,2.907,2.907,0,0,1-2.053-4.971Zm-.239,8.425h4.531V62.458H407.8Z" transform="translate(-259.343 -33.21)" fill="#333"/>
            <path id="Path_6883" data-name="Path 6883" d="M435.81,61.711l.26,4.011a5.579,5.579,0,0,1-2.456.477,7.386,7.386,0,0,1-5.443-2.053,7.688,7.688,0,0,1-2.074-5.7v-8.17H422.26V45.949H426.1V40.58h4.515v5.369h5.247v4.329h-5.247v7.958a3.528,3.528,0,0,0,3.335,3.711c.107.006.214.007.32,0A5.346,5.346,0,0,0,435.81,61.711Z" transform="translate(-266.422 -36.67)" fill="#333"/>
            <path id="Path_6884" data-name="Path 6884" d="M467.133,50.7h4.907l-11.3,26.994h-4.886l3.592-8.08L451.53,50.7h4.886l5.369,13.608Z" transform="translate(-280.164 -41.421)" fill="#333"/>
            <g id="Group_3002" data-name="Group 3002">
              <path id="Path_6885" data-name="Path 6885" d="M523.924,34.405a9.1,9.1,0,0,1,6.584,2.493,8.324,8.324,0,0,1,2.6,6.266,8.376,8.376,0,0,1-2.6,6.324,9.089,9.089,0,0,1-6.557,2.5h-6.175v11.03H513V34.405Zm0,13.009a4.243,4.243,0,0,0,3.093-1.215,4.075,4.075,0,0,0,1.236-3.035,3.952,3.952,0,0,0-1.236-2.971,4.244,4.244,0,0,0-3.093-1.2h-6.149v8.42Z" transform="translate(-309.022 -33.768)" stroke="rgba(0,0,0,0)" stroke-miterlimit="10" stroke-width="1" fill="url(#linear-gradient)"/>
              <path id="Path_6886" data-name="Path 6886" d="M568.81,50.309h4.547V70.279H568.81v-2.69a5.877,5.877,0,0,1-2.584,2.223,8.553,8.553,0,0,1-3.783.87,8.918,8.918,0,0,1-6.812-3.013,11.2,11.2,0,0,1,0-14.786,8.9,8.9,0,0,1,6.812-3.013,8.494,8.494,0,0,1,3.772.875,5.934,5.934,0,0,1,2.594,2.234Zm-5.427,16.038a6.483,6.483,0,0,0,3.183-.833,5.714,5.714,0,0,0,2.244-2.122V57.249a5.635,5.635,0,0,0-2.234-2.18,6.365,6.365,0,0,0-3.183-.849A6.117,6.117,0,0,0,559.08,64.6,5.837,5.837,0,0,0,563.382,66.347Z" transform="translate(-327.727 -41.03)" stroke="rgba(0,0,0,0)" stroke-miterlimit="10" stroke-width="1" fill="url(#linear-gradient)"/>
              <path id="Path_6887" data-name="Path 6887" d="M610.43,61.711l.26,4.011a5.579,5.579,0,0,1-2.456.477,7.4,7.4,0,0,1-5.459-2.053,7.718,7.718,0,0,1-2.074-5.7v-8.17H596.87V45.949H600.7V40.58h4.531v5.369h5.247v4.329h-5.247v7.958a3.528,3.528,0,0,0,3.335,3.711q.158.008.315,0A5.363,5.363,0,0,0,610.43,61.711Z" transform="translate(-348.396 -36.67)" stroke="rgba(0,0,0,0)" stroke-miterlimit="10" stroke-width="1" fill="url(#linear-gradient)"/>
              <path id="Path_6888" data-name="Path 6888" d="M639.414,49.908a7.063,7.063,0,0,1,2.292.318l-.276,4.287a7.275,7.275,0,0,0-2.377-.4,4.693,4.693,0,0,0-2.61.928,6.2,6.2,0,0,0-2.122,2.5V70.28H629.79V50.327h4.531v2.732a5.741,5.741,0,0,1,2.218-2.276A5.642,5.642,0,0,1,639.414,49.908Z" transform="translate(-363.852 -41.048)" stroke="rgba(0,0,0,0)" stroke-miterlimit="10" stroke-width="1" fill="url(#linear-gradient)"/>
              <path id="Path_6889" data-name="Path 6889" d="M656.516,52.9a10.579,10.579,0,0,1,14.743,0,10.08,10.08,0,0,1,2.992,7.427,10.356,10.356,0,0,1-20.691.937q-.022-.469,0-.937A10.08,10.08,0,0,1,656.516,52.9Zm11.55,3.109a5.9,5.9,0,0,0-8.35-.011l-.011.011a5.985,5.985,0,0,0-1.671,4.313,5.859,5.859,0,0,0,10.032,4.281,6.276,6.276,0,0,0,0-8.584Z" transform="translate(-375.006 -41.051)" stroke="rgba(0,0,0,0)" stroke-miterlimit="10" stroke-width="1" fill="url(#linear-gradient)"/>
              <path id="Path_6890" data-name="Path 6890" d="M704.251,34.41V63.022H699.72V34.41Z" transform="translate(-396.682 -33.773)" stroke="rgba(0,0,0,0)" stroke-miterlimit="10" stroke-width="1" fill="url(#linear-gradient)"/>
            </g>
          </g>
        </g>
      </g>
      <g id="Layer_2" data-name="Layer 2" transform="translate(357.626 173.552)">
        <g id="Layer_1" data-name="Layer 1" transform="translate(0.019 0.005)">
          <path id="Path_9222" data-name="Path 9222" d="M44.935,47.16V64.425A19.1,19.1,0,0,1,18,47.778a13.209,13.209,0,0,0,.2,1.741A13.467,13.467,0,0,0,44.921,47.16Z" transform="translate(-9.519 -25.2)" fill="url(#linear-gradient-7)"/>
          <path id="Path_9223" data-name="Path 9223" d="M128.827,25.577a21.977,21.977,0,0,1-21.958,21.958h-.854a14.118,14.118,0,0,1-1.486-.108,21.755,21.755,0,0,1-5.741-1.415,4.245,4.245,0,0,1-2.458-5.316.58.58,0,0,1,.071-.2c.028-.066.094-.212.142-.311a4.245,4.245,0,0,1,5.368-2.076A13.463,13.463,0,1,0,93.67,22.9,19.218,19.218,0,0,1,120.949,8.746h0a22.357,22.357,0,0,1,2.3,2.231c.33.377.651.764.943,1.16a21.836,21.836,0,0,1,4.632,13.439Z" transform="translate(-49.493 -3.621)" fill="url(#linear-gradient-8)"/>
          <path id="Path_9224" data-name="Path 9224" d="M111.139,5.13A19.218,19.218,0,0,0,83.86,19.281c-.075.359-.132.726-.175,1.094a13.492,13.492,0,0,0-.094,1.585V50.947a4.245,4.245,0,0,1-8.491,0V21.961A21.944,21.944,0,0,1,111.139,5.13Z" transform="translate(-39.682 -0.005)" fill="url(#linear-gradient-9)"/>
          <path id="Path_9225" data-name="Path 9225" d="M35.436,39.832V39.9a21.793,21.793,0,0,1-10.255,4.387c-.561.085-1.127.146-1.7.184-.5.033-1,.057-1.509.057A21.958,21.958,0,1,1,27.96,1.439a4.245,4.245,0,0,1,3.01,4.887,1.368,1.368,0,0,1-.08.354.136.136,0,0,1-.033.1,4.245,4.245,0,0,1-5.189,2.83A13.548,13.548,0,0,0,21.993,9.1a13.406,13.406,0,0,0-5.859,1.34,13.68,13.68,0,0,0-2.288,1.415A13.449,13.449,0,0,0,8.5,22.209c0,.1,0,.212,0,.316V23.2A19.1,19.1,0,0,0,35.436,39.832Z" transform="translate(-0.02 -0.608)" fill="url(#linear-gradient-10)"/>
        </g>
      </g>
    </g>
  </g>
</svg>
