<svg id="Layer_1" data-name="Layer 1" xmlns="http://www.w3.org/2000/svg" xmlns:xlink="http://www.w3.org/1999/xlink" viewBox="0 0 50 50"><defs><style>.cls-1{fill:none;}.cls-2{clip-path:url(#clip-path);}.cls-3{fill:url(#linear-gradient);}.cls-4{fill:url(#linear-gradient-2);}.cls-5{fill:url(#linear-gradient-3);}.cls-6{fill:url(#linear-gradient-4);}</style><clipPath id="clip-path"><rect class="cls-1" width="50" height="50"/></clipPath><linearGradient id="linear-gradient" x1="11.31" y1="38.94" x2="11.67" y2="38.33" gradientTransform="matrix(14.97, 0, 0, -10.53, -148.04, 443.57)" gradientUnits="userSpaceOnUse"><stop offset="0" stop-color="#a13098"/><stop offset="0.52" stop-color="#cd4d6e"/><stop offset="1" stop-color="#fb6b43"/></linearGradient><linearGradient id="linear-gradient-2" x1="10.74" y1="38.97" x2="11.9" y2="38.58" gradientTransform="matrix(19.53, 0, 0, -22.61, -178.44, 904.17)" xlink:href="#linear-gradient"/><linearGradient id="linear-gradient-3" x1="10.87" y1="38.84" x2="9.79" y2="39.34" gradientTransform="matrix(20.03, 0, 0, -30.67, -188.74, 1216.64)" xlink:href="#linear-gradient"/><linearGradient id="linear-gradient-4" x1="13.05" y1="35.67" x2="10.65" y2="39.53" gradientTransform="matrix(19.68, 0, 0, -24.4, -204.56, 972.22)" xlink:href="#linear-gradient"/></defs><g class="cls-2"><g id="Mask_Group_143" data-name="Mask Group 143"><g id="Group_8803" data-name="Group 8803"><g id="Layer_2" data-name="Layer 2"><g id="Layer_1-2" data-name="Layer 1"><path id="Path_9222" data-name="Path 9222" class="cls-3" d="M22.55,24.06v9.59a10.61,10.61,0,0,1-14-5.32,10.47,10.47,0,0,1-.93-3.93,6.4,6.4,0,0,0,.11,1,7.48,7.48,0,0,0,14.85-1.31Z"/><path id="Path_9223" data-name="Path 9223" class="cls-4" d="M47,24.06a12.22,12.22,0,0,1-12.2,12.2h-.47c-.28,0-.56,0-.83-.06a12.12,12.12,0,0,1-3.19-.79,2.36,2.36,0,0,1-1.37-2.95.56.56,0,0,1,0-.12.91.91,0,0,0,.08-.17A2.37,2.37,0,0,1,32,31a7.48,7.48,0,1,0-4.21-9.71,7,7,0,0,0-.37,1.26A10.69,10.69,0,0,1,42.57,14.7h0a12.49,12.49,0,0,1,1.28,1.24c.19.21.36.43.53.65A12.15,12.15,0,0,1,47,24.05Z"/><path id="Path_9224" data-name="Path 9224" class="cls-5" d="M42.57,14.7a10.65,10.65,0,0,0-15.15,7.87,4.09,4.09,0,0,0-.1.61,6.4,6.4,0,0,0-.06.88v16.1a2.36,2.36,0,1,1-4.71,0h0V24.05a12.2,12.2,0,0,1,20-9.35Z"/><path id="Path_9225" data-name="Path 9225" class="cls-6" d="M22.55,33.65v0a12.22,12.22,0,0,1-5.7,2.44c-.32,0-.63.08-1,.1l-.84,0a12.2,12.2,0,1,1,0-24.4,12,12,0,0,1,3.31.46A2.35,2.35,0,0,1,20.06,15a.65.65,0,0,1,0,.2.08.08,0,0,1,0,.06,2.36,2.36,0,0,1-2.88,1.58,7.41,7.41,0,0,0-5.3.46,6.87,6.87,0,0,0-1.27.78,7.43,7.43,0,0,0-3,5.75v.55a10.61,10.61,0,0,0,15,9.24Z"/></g></g></g></g></g></svg>