<svg xmlns="http://www.w3.org/2000/svg" xmlns:xlink="http://www.w3.org/1999/xlink" width="50" height="50" viewBox="0 0 50 50">
  <defs>
    <clipPath id="clip-path">
      <rect id="Rectangle_2422" data-name="Rectangle 2422" width="50" height="50" transform="translate(-15180 -11160)" fill="#fff"/>
    </clipPath>
    <linearGradient id="linear-gradient" x1="0.726" y1="1" x2="1.087" y2="1.614" gradientUnits="objectBoundingBox">
      <stop offset="0" stop-color="#a13098"/>
      <stop offset="0.515" stop-color="#cd4d6e"/>
      <stop offset="1" stop-color="#fb6b43"/>
    </linearGradient>
    <linearGradient id="linear-gradient-2" x1="-0.065" y1="1.229" x2="1.087" y2="1.614" xlink:href="#linear-gradient"/>
    <linearGradient id="linear-gradient-3" x1="-0.63" y1="2.508" x2="-1.705" y2="2.014" xlink:href="#linear-gradient"/>
    <linearGradient id="linear-gradient-4" x1="2.078" y1="3.95" x2="-0.315" y2="0.097" xlink:href="#linear-gradient"/>
  </defs>
  <g id="Mask_Group_143" data-name="Mask Group 143" transform="translate(15180 11160)" clip-path="url(#clip-path)">
    <g id="Group_8803" data-name="Group 8803" transform="translate(333.888 1567.616)">
      <g id="Layer_2" data-name="Layer 2" transform="translate(-15513 -12718.001)">
        <g id="Layer_1" data-name="Layer 1" transform="translate(0 0)">
          <path id="Path_9222" data-name="Path 9222" d="M32.967,47.16v9.593A10.616,10.616,0,0,1,18,47.5a7.34,7.34,0,0,0,.11.967A7.483,7.483,0,0,0,32.959,47.16Z" transform="translate(-13.287 -34.958)" fill="url(#linear-gradient)"/>
          <path id="Path_9223" data-name="Path 9223" d="M113.206,17.255a12.212,12.212,0,0,1-12.2,12.2h-.474a7.846,7.846,0,0,1-.826-.06,12.089,12.089,0,0,1-3.19-.786,2.359,2.359,0,0,1-1.366-2.954.322.322,0,0,1,.039-.113c.016-.037.052-.118.079-.173a2.359,2.359,0,0,1,2.983-1.153,7.481,7.481,0,1,0-4.579-8.451A10.679,10.679,0,0,1,108.828,7.9h0a12.422,12.422,0,0,1,1.279,1.24c.184.21.362.425.524.645a12.133,12.133,0,0,1,2.574,7.468Z" transform="translate(-69.122 -5.055)" fill="url(#linear-gradient-2)"/>
          <path id="Path_9224" data-name="Path 9224" d="M95.126,2.853a10.679,10.679,0,0,0-15.158,7.863c-.042.2-.073.4-.1.608a7.5,7.5,0,0,0-.052.881V28.312a2.359,2.359,0,1,1-4.718,0V12.2A12.194,12.194,0,0,1,95.126,2.853Z" transform="translate(-55.419 -0.005)" fill="url(#linear-gradient-3)"/>
          <path id="Path_9225" data-name="Path 9225" d="M19.7,22.4v.037A12.11,12.11,0,0,1,14,24.878c-.312.047-.626.081-.946.1-.278.018-.556.031-.839.031A12.2,12.2,0,1,1,15.545,1.07a2.359,2.359,0,0,1,1.672,2.716.76.76,0,0,1-.045.2.076.076,0,0,1-.018.058,2.359,2.359,0,0,1-2.883,1.573,7.528,7.528,0,0,0-2.042-.283,7.449,7.449,0,0,0-3.255.744A7.6,7.6,0,0,0,7.7,6.86a7.473,7.473,0,0,0-2.97,5.751c0,.058,0,.118,0,.176v.375A10.616,10.616,0,0,0,19.7,22.4Z" transform="translate(-0.02 -0.608)" fill="url(#linear-gradient-4)"/>
        </g>
      </g>
      <text id="_6.0" data-name="6.0" transform="translate(-15478.776 -12683.835)" fill="#333" font-size="10" font-family="Hellix-Bold, Hellix" font-weight="700"><tspan x="0" y="0">6.0</tspan></text>
    </g>
  </g>
</svg>
