<svg xmlns="http://www.w3.org/2000/svg" xmlns:xlink="http://www.w3.org/1999/xlink" width="26" height="26" viewBox="0 0 26 26">
  <defs>
    <clipPath id="clip-path">
      <rect id="Rectangle_2441" data-name="Rectangle 2441" width="26" height="26" transform="translate(-6994 -9013)" fill="#fff" stroke="#fff" stroke-width="0.8"/>
    </clipPath>
  </defs>
  <g id="dr_site" transform="translate(6994 9013)" clip-path="url(#clip-path)">
    <g id="Group_8831" data-name="Group 8831" transform="translate(-6992.376 -9009.75)">
      <g id="Rectangle_2440" data-name="Rectangle 2440" transform="translate(5.84 0)" fill="none" stroke="#fff" stroke-linecap="round" stroke-linejoin="round" stroke-width="1">
        <rect width="10.902" height="15.963" rx="1" stroke="none"/>
        <rect x="0.5" y="0.5" width="9.902" height="14.963" rx="0.5" fill="none"/>
      </g>
      <path id="Path_17573" data-name="Path 17573" d="M-6971.374-9000.25h9.393" transform="translate(6978.252 9004.729)" fill="none" stroke="#fff" stroke-linecap="round" stroke-width="1"/>
      <path id="Path_17574" data-name="Path 17574" d="M-6971.375-9000.25h2.7" transform="translate(6982.397 9002.685)" fill="none" stroke="#fff" stroke-linecap="round" stroke-width="1"/>
      <path id="Path_17575" data-name="Path 17575" d="M-6971.375-9000.25h2.7" transform="translate(6982.397 9006.577)" fill="none" stroke="#fff" stroke-linecap="round" stroke-width="1"/>
      <path id="Path_17576" data-name="Path 17576" d="M-6971.375-9000.25h2.7" transform="translate(6982.397 9010.08)" fill="none" stroke="#fff" stroke-linecap="round" stroke-width="1"/>
      <path id="Path_17577" data-name="Path 17577" d="M-6971.375-9000.25h2.7" transform="translate(6982.397 9013.975)" fill="none" stroke="#fff" stroke-linecap="round" stroke-width="1"/>
      <path id="Path_17578" data-name="Path 17578" d="M-6971.374-9000.25h9.393" transform="translate(6978.252 9008.231)" fill="none" stroke="#fff" stroke-linecap="round" stroke-width="1"/>
      <path id="Path_17579" data-name="Path 17579" d="M-6971.374-9000.25h9.393" transform="translate(6978.252 9012.124)" fill="none" stroke="#fff" stroke-linecap="round" stroke-width="1"/>
      <path id="Path_17580" data-name="Path 17580" d="M-577.2,396.469a.487.487,0,0,1-.486.487.487.487,0,0,1-.487-.487.486.486,0,0,1,.487-.486A.486.486,0,0,1-577.2,396.469Z" transform="translate(585.994 -394.036)" fill="#fff"/>
      <path id="Path_17581" data-name="Path 17581" d="M-577.2,396.469a.487.487,0,0,1-.486.487.487.487,0,0,1-.487-.487.486.486,0,0,1,.487-.486A.486.486,0,0,1-577.2,396.469Z" transform="translate(585.994 -390.143)" fill="#fff"/>
      <path id="Path_17582" data-name="Path 17582" d="M-577.2,396.469a.487.487,0,0,1-.486.487.487.487,0,0,1-.487-.487.486.486,0,0,1,.487-.486A.486.486,0,0,1-577.2,396.469Z" transform="translate(585.994 -386.639)" fill="#fff"/>
      <path id="Path_17583" data-name="Path 17583" d="M-577.2,396.469a.487.487,0,0,1-.486.487.487.487,0,0,1-.487-.487.486.486,0,0,1,.487-.486A.486.486,0,0,1-577.2,396.469Z" transform="translate(585.994 -382.745)" fill="#fff"/>
      <path id="Path_17584" data-name="Path 17584" d="M-29.7,46.336h4.3a.894.894,0,0,0,.894-.894V33.6a.894.894,0,0,0-.894-.894h-4.3" transform="translate(47.251 -31.986)" fill="none" stroke="#fff" stroke-linejoin="round" stroke-width="1"/>
      <path id="Path_17585" data-name="Path 17585" d="M-6940.755-8987.5h-2.162" transform="translate(6961.249 8991.979)" fill="none" stroke="#fff" stroke-linecap="round" stroke-width="1"/>
      <path id="Path_17586" data-name="Path 17586" d="M-24.5,46.336h-4.3a.894.894,0,0,1-.894-.894V33.6a.894.894,0,0,1,.894-.894h4.3" transform="translate(29.699 -31.986)" fill="none" stroke="#fff" stroke-linejoin="round" stroke-width="1"/>
      <path id="Path_17587" data-name="Path 17587" d="M-6942.917-8987.5h2.177" transform="translate(6944.958 8991.979)" fill="none" stroke="#fff" stroke-linecap="round" stroke-width="1"/>
      <path id="Path_17588" data-name="Path 17588" d="M-6940.755-8987.5h-2.162" transform="translate(6961.249 8995.481)" fill="none" stroke="#fff" stroke-linecap="round" stroke-width="1"/>
      <path id="Path_17589" data-name="Path 17589" d="M-6942.917-8987.5h2.177" transform="translate(6944.958 8995.481)" fill="none" stroke="#fff" stroke-linecap="round" stroke-width="1"/>
      <path id="Path_17590" data-name="Path 17590" d="M-6940.755-8987.5h-2.162" transform="translate(6961.249 8998.986)" fill="none" stroke="#fff" stroke-linecap="round" stroke-width="1"/>
      <path id="Path_17591" data-name="Path 17591" d="M-6942.917-8987.5h2.177" transform="translate(6944.958 8998.986)" fill="none" stroke="#fff" stroke-linecap="round" stroke-width="1"/>
      <path id="Path_17592" data-name="Path 17592" d="M-10601-3686.4v3.35" transform="translate(10612.577 3702.168)" fill="none" stroke="#fff" stroke-width="1"/>
      <path id="Path_17593" data-name="Path 17593" d="M-10620.978-3672h-13.826" transform="translate(10638.92 3691.119)" fill="none" stroke="#fff" stroke-linecap="round" stroke-width="1"/>
      <ellipse id="Ellipse_1647" data-name="Ellipse 1647" cx="1.378" cy="1.378" rx="1.378" ry="1.378" transform="translate(10.144 17.617)" fill="#fff" stroke="#fff" stroke-width="0.8"/>
    </g>
  </g>
</svg>
