<svg xmlns="http://www.w3.org/2000/svg" xmlns:xlink="http://www.w3.org/1999/xlink" width="734.469" height="526" viewBox="0 0 734.469 526">
  <defs>
    <linearGradient id="linear-gradient" x1="1.308" y1="0.469" x2="-1.425" y2="0.575" gradientUnits="objectBoundingBox">
      <stop offset="0.005" stop-color="#ffaf03"/>
      <stop offset="1" stop-color="#d602fc"/>
    </linearGradient>
    <linearGradient id="linear-gradient-2" y1="0.5" x2="1" y2="0.5" gradientUnits="objectBoundingBox">
      <stop offset="0.005" stop-color="#ec5f6f"/>
      <stop offset="0.054" stop-color="#ef6b5e"/>
      <stop offset="0.137" stop-color="#f37c48"/>
      <stop offset="0.235" stop-color="#f68937"/>
      <stop offset="0.357" stop-color="#f8922b"/>
      <stop offset="0.527" stop-color="#f99724"/>
      <stop offset="1" stop-color="#fa9923"/>
    </linearGradient>
    <linearGradient id="linear-gradient-18" y1="0.5" x2="1" y2="0.5" gradientUnits="objectBoundingBox">
      <stop offset="0" stop-color="#4eb1ed"/>
      <stop offset="0.186" stop-color="#48a8ec"/>
      <stop offset="0.487" stop-color="#3a90ea"/>
      <stop offset="0.863" stop-color="#2269e8"/>
      <stop offset="1" stop-color="#195ae7"/>
    </linearGradient>
    <linearGradient id="linear-gradient-38" y1="0.5" x2="1" y2="0.5" gradientUnits="objectBoundingBox">
      <stop offset="0" stop-color="#ffaf03"/>
      <stop offset="0.005" stop-color="#ffaf03"/>
      <stop offset="0.378" stop-color="#fead04"/>
      <stop offset="0.512" stop-color="#fda80b"/>
      <stop offset="0.607" stop-color="#fba017"/>
      <stop offset="0.685" stop-color="#f89528"/>
      <stop offset="0.751" stop-color="#f5853e"/>
      <stop offset="0.81" stop-color="#f07259"/>
      <stop offset="0.863" stop-color="#eb5c7a"/>
      <stop offset="1" stop-color="#eb5c7a"/>
    </linearGradient>
    <linearGradient id="linear-gradient-39" x1="0" y1="0.5" x2="1" y2="0.5" xlink:href="#linear-gradient"/>
    <linearGradient id="linear-gradient-46" x1="0" y1="0.5" x2="1" y2="0.5" xlink:href="#linear-gradient"/>
  </defs>
  <g id="orchestration_automation" transform="translate(-602.434 -118.844)">
    <rect id="Rectangle_2026" data-name="Rectangle 2026" width="111.302" height="62.567" transform="translate(973.557 308.967)" fill="url(#linear-gradient)"/>
    <g id="Group_8375" data-name="Group 8375" transform="translate(602.434 153.282)">
      <path id="Path_15848" data-name="Path 15848" d="M1622.227,252.253l.9.259.895.265.941.286.846.266,1.029.331.927.31,1.008.345.745.262.337.121,1.278.467.427.161,1,.383.715.281.907.363,1.035.426.764.322.893.384.909.4.866.389.957.441.815.385.859.414.879.431-.007,0,.876.442.638.326.954.5.859.46.011,0,.095.051c.569.307,1.137.617,1.7.936l.821.466q.845.481,1.681.981l.912.547.792.487.761.476.818.518.9.582.715.47.8.539,1.044.714.534.373.6.426.99.712.747.548.592.441.957.724,1.055.818.226.177,1.064.847.015.015.633.514.335.275,1.146.959.722.617.341.295,1.108.975.712.638.988.9.292.272.916.864,2.11,2.046-1.976,1.891a116.268,116.268,0,0,1-17.025,13.484l-2.414,1.568-1.349-2.543q-1-1.883-2.056-3.734a129.547,129.547,0,0,0-30.839-36.487l-9.266-7.495,11.6,2.9q.948.238,1.89.5l1.023.283ZM1518.234,273.52l.014-.013.865-.689.534-.42.978-.758,1.025-.774.688-.51.594-.434.967-.7.719-.507.562-.39.109-.077.9-.611.7-.466.8-.528.827-.535.872-.553.74-.46.761-.468.877-.526q.835-.5,1.682-.982l.822-.466q.843-.478,1.7-.936l.1-.051.011,0,.877-.468.973-.508.629-.323.791-.4.048-.026,1.055-.517.713-.343.826-.389.995-.458.856-.384.861-.379.943-.407.706-.3,1.044-.43.9-.362.713-.279,1-.385.426-.159,1.174-.431.507-.181.6-.209,1.088-.374.938-.313.756-.244,1.111-.35.936-.285.8-.235,1.1-.318.948-.261.873-.233,1.027-.265,11.651-2.96-9.345,7.561a129.611,129.611,0,0,0-30.836,36.485q-1.059,1.852-2.059,3.736l-1.348,2.541-2.413-1.567a116.164,116.164,0,0,1-17.025-13.484l-1.976-1.891,2.212-2.143.83-.782.254-.235c.572-.531,1.148-1.059,1.733-1.576l.25-.221,1.056-.924.873-.748.73-.611.742-.613Zm17.83,191.714-.106-.056c-.567-.305-1.134-.616-1.695-.933l-1.015-.576-.662-.386-.828-.489-.911-.546-.74-.455-.818-.51-.728-.463-.045-.027-.936-.608-.712-.469-.709-.474-.916-.627-.756-.525-.606-.428-.963-.694-.773-.566-.6-.445-1.01-.765-.9-.7-.543-.426-.845-.673-.014-.014-.638-.518-.737-.611-.741-.621-.866-.742-1.13-.989-.159-.141q-.878-.778-1.733-1.577l-.27-.25-.908-.856-2.129-2.048,1.985-1.9a116.325,116.325,0,0,1,17.028-13.482l2.413-1.567,1.348,2.541q1,1.884,2.059,3.737a129.638,129.638,0,0,0,30.836,36.485l9.345,7.561-11.745-2.984-.963-.249-.861-.23-1.009-.279-1.041-.3-.794-.235-.943-.287-1.1-.347-.771-.249-.928-.31-1.082-.372-.6-.21-.514-.184-1.171-.429-.428-.161-1-.383-.715-.28-.907-.364-1.034-.426-.764-.321-.892-.384-.909-.4-.867-.39-.958-.442-.8-.378-.872-.42-.879-.431.007,0-.869-.437-.622-.319-1.095-.571ZM1663.31,453.38l-.015.015-1.077.856-.224.175-1.074.833-1.025.775-.51.38-.771.566-.964.693-.6.42-.548.383-1.141.781-.7.471-.8.525-.827.536-.853.541-.755.47-.769.473-.871.521c-.559.334-1.119.664-1.684.985l-.821.465q-.843.477-1.7.934l-.095.051-.012.005-.878.469-.951.494-.652.335-.791.4-.047.027-.913.446-.856.412-.879.415-.951.438-.844.379-.861.379-.944.407-.705.3-1.044.431-.9.361-.713.28-1,.384-.429.16-1.274.465-.338.122-.742.261-1.012.347-1.025.341-.929.3-.852.269-.939.285-.993.293-.783.224-.025.009-1.023.282q-.942.259-1.89.5l-11.6,2.9,9.26-7.494a129.615,129.615,0,0,0,30.84-36.488q1.058-1.85,2.056-3.735l1.349-2.543,2.413,1.567a116.059,116.059,0,0,1,17.029,13.483l1.984,1.9-2.223,2.137-.828.78-.289.268-.99.909-.71.637-1.2,1.058-.243.209-.818.7-1.057.883-.329.27Zm14.637-165.751a115.085,115.085,0,0,1,28.239,70.512l.124,2.753h-39.99l-.087-2.544a143.664,143.664,0,0,0-11.925-52.861l-.911-2.071,1.911-1.213a121.239,121.239,0,0,0,18.831-14.75l1.994-1.909Zm-202.588,70.512a115.086,115.086,0,0,1,28.238-70.513l1.813-2.082,2,1.908a121.351,121.351,0,0,0,18.831,14.752l1.91,1.213-.91,2.071a143.644,143.644,0,0,0-11.923,52.86l-.088,2.544h-39.991Zm28.235,81.13a115.08,115.08,0,0,1-28.235-70.512l-.124-2.754h39.991l.088,2.545a143.617,143.617,0,0,0,11.922,52.86l.909,2.071-1.909,1.212a121.347,121.347,0,0,0-18.833,14.75l-2,1.909Zm202.591-70.512a115.08,115.08,0,0,1-28.237,70.512l-1.813,2.082-1.994-1.909a121.322,121.322,0,0,0-18.833-14.751l-1.911-1.212.911-2.071a143.665,143.665,0,0,0,11.923-52.859l.087-2.545h39.991Zm-120.723-53.067a115.064,115.064,0,0,1-40.08-9.126q-4.217-1.8-8.283-3.942l-2.334-1.227,1.227-2.332q1.059-2.012,2.186-3.987c10.96-19.183,26.742-35.481,46.125-46.21l3.911-2.164v69.112Zm2.754,45.2h-67.884l.1-2.731a138.631,138.631,0,0,1,11.012-49.555l1.119-2.612,2.521,1.315q4.078,2.128,8.315,3.939a120.148,120.148,0,0,0,42.29,9.567l2.526.106Zm-56.77,57.4a138.626,138.626,0,0,1-11.012-49.554l-.1-2.732h67.884v39.97l-2.526.105a120.175,120.175,0,0,0-42.29,9.568q-4.231,1.81-8.315,3.94l-2.521,1.316Zm52.859,59.74C1564.922,467.3,1549.14,451,1538.18,431.822q-1.128-1.976-2.186-3.989l-1.227-2.332,2.334-1.227q4.061-2.134,8.283-3.942a115.042,115.042,0,0,1,40.08-9.127l2.754-.124V480.2Zm61.246-50.2q-1.058,2.012-2.186,3.987c-10.961,19.181-26.743,35.481-46.126,46.21l-3.911,2.165V411.082l2.755.124a115.036,115.036,0,0,1,40.078,9.127q4.221,1.8,8.286,3.942l2.332,1.227Zm-52.224-61.828h67.885l-.1,2.732a138.7,138.7,0,0,1-11.012,49.554l-1.121,2.613-2.519-1.315q-4.081-2.129-8.317-3.94a120.184,120.184,0,0,0-42.291-9.568l-2.525-.105Zm56.771-57.4a138.687,138.687,0,0,1,11.014,49.556l.1,2.731h-67.885V320.923l2.525-.106a120.157,120.157,0,0,0,42.291-9.567q4.232-1.81,8.314-3.94l2.521-1.316Zm-52.86-59.739c19.383,10.729,35.166,27.03,46.126,46.211q1.129,1.974,2.186,3.986l1.229,2.333-2.335,1.227q-4.062,2.134-8.285,3.942a115.049,115.049,0,0,1-40.078,9.126l-2.755.124V246.7Zm-4.888-6.054h-3.133l-1.522.029-1.514.046-.1.006-1.557.07-1.139.065-.682.044-1.2.083-.857.07-.771.066-.751.069-.17.019a120.652,120.652,0,0,0,.013,240.143l.122.013.766.071.776.067.842.069,1.238.086.652.042,1.168.067,1.563.07,1.548.049,1.556.031,1.561.01,1.572-.01,1.521-.03,1.514-.045.1-.006,1.557-.07,1.146-.065.66-.042,1.212-.085,1.153-.1.478-.041.758-.071.15-.015a120.652,120.652,0,0,0-.013-240.146l-.109-.012-.771-.071-.772-.067-.836-.068-1.214-.085-.69-.044-1.158-.066-1.561-.071-1.55-.049Z" transform="translate(-1035.395 -220.13)" fill="#b7d9f9" fill-rule="evenodd"/>
      <path id="Path_15849" data-name="Path 15849" d="M769.385,534.583l.384.111.38.112.4.122.361.112.438.142.395.132.429.147.318.111.143.052.544.2.183.068.427.164.3.119.386.155.441.181.326.137.38.163.386.171.37.166.407.188.347.164.366.177.375.183h0l.375.188.271.139.406.211.367.2,0,0,.041.021c.243.131.484.263.724.4l.349.2q.361.205.716.418l.388.233.338.208.325.2.348.22.381.248.305.2.342.23.444.3.228.158.257.182.421.3.318.233.252.188.408.308.449.349.1.076.454.36.006.006.271.219.143.117.488.408.307.263.145.126.472.415.3.272.421.386.124.116.39.368.9.872-.842.805a49.563,49.563,0,0,1-7.252,5.743l-1.028.668-.575-1.083q-.425-.8-.875-1.591A55.223,55.223,0,0,0,767.139,536.2l-3.947-3.192,4.941,1.235q.4.1.806.212l.435.12Zm-44.295,9.059.006-.006.368-.293.228-.179.417-.322.436-.33.294-.218.253-.184.411-.3.307-.216.238-.166.047-.033.381-.261.3-.2.342-.224.352-.228.371-.236.315-.2.324-.2.374-.224q.355-.213.715-.418l.35-.2c.24-.136.48-.268.723-.4l.041-.021.005,0,.374-.2.414-.216.268-.138.338-.169.02-.011.449-.22.3-.146.352-.165.424-.2.364-.164.367-.161.4-.174.3-.126.445-.183.385-.154.3-.118.428-.164.182-.068.5-.184.215-.077.255-.089.463-.16.4-.133.322-.1.474-.149.4-.121.338-.1.47-.135.4-.111.373-.1.437-.113,4.963-1.261-3.981,3.221A55.246,55.246,0,0,0,731.7,551.745q-.449.789-.876,1.592l-.574,1.082-1.028-.668a49.431,49.431,0,0,1-7.252-5.743l-.842-.805.942-.913.354-.333.108-.1c.244-.226.49-.451.739-.671l.106-.095.449-.393.372-.319.311-.261.316-.261Zm7.594,81.659-.045-.024q-.362-.195-.721-.4l-.433-.246-.282-.164-.353-.208-.387-.231-.316-.194-.349-.217-.31-.2-.019-.011-.4-.258-.3-.2-.3-.2-.39-.267-.322-.225-.259-.182-.41-.3-.33-.241-.254-.19-.43-.326-.383-.3-.231-.182-.359-.286-.006-.006-.272-.221-.315-.26-.315-.265-.369-.316-.481-.422-.068-.06c-.25-.221-.5-.446-.739-.671l-.115-.106-.386-.365-.907-.872.845-.809a49.582,49.582,0,0,1,7.253-5.743l1.028-.667.574,1.083q.426.8.876,1.592a55.214,55.214,0,0,0,13.135,15.54l3.981,3.222-5-1.271-.411-.106-.366-.1-.43-.119-.443-.128-.339-.1-.4-.122-.469-.148-.33-.106-.4-.132-.46-.158-.255-.09-.218-.078-.5-.183-.183-.068-.427-.162-.305-.121-.386-.154-.44-.182-.325-.136-.38-.164-.386-.171-.37-.166-.408-.188-.341-.161-.373-.178-.374-.185h0l-.37-.185-.265-.136L733,625.47Zm54.2-5.049-.006.006-.459.365-.1.075-.457.355-.436.33-.218.162-.328.241-.411.3-.254.178-.234.164-.485.332-.3.2-.339.224-.353.228-.362.231-.323.2-.326.2-.371.221q-.357.215-.717.42l-.35.2c-.239.136-.48.267-.722.4l-.041.022,0,0-.374.2-.4.211-.278.142-.337.169-.021.011-.388.19-.364.176-.375.176-.406.186-.359.162-.368.161-.4.174-.3.126-.444.182-.385.154-.3.119-.427.164-.182.068-.543.2-.144.053-.316.11-.43.148-.438.146-.4.127-.363.114-.4.121-.423.124-.333.1-.011,0-.435.121q-.4.11-.806.211l-4.939,1.236,3.945-3.193a55.217,55.217,0,0,0,13.136-15.541q.45-.788.875-1.591l.575-1.083,1.028.667a49.373,49.373,0,0,1,7.253,5.744l.845.809-.947.91-.352.332-.124.114-.421.387-.3.272-.513.45-.1.089-.349.3-.45.376-.141.115Zm6.235-70.6a49.022,49.022,0,0,1,12.027,30.035l.053,1.172H788.167l-.037-1.084a61.2,61.2,0,0,0-5.08-22.516l-.388-.883.814-.516a51.65,51.65,0,0,0,8.021-6.283l.849-.813Zm-86.291,30.035a49.021,49.021,0,0,1,12.027-30.035l.773-.887.849.813a51.717,51.717,0,0,0,8.022,6.283l.814.517-.388.882a61.2,61.2,0,0,0-5.079,22.515l-.037,1.084H706.775Zm12.027,34.556a49.016,49.016,0,0,1-12.027-30.033l-.053-1.173h17.034l.037,1.084a61.172,61.172,0,0,0,5.079,22.515l.386.882-.814.517a51.532,51.532,0,0,0-8.02,6.283l-.85.813Zm86.291-30.033a49.013,49.013,0,0,1-12.027,30.033l-.772.888-.85-.813a51.51,51.51,0,0,0-8.021-6.283l-.814-.518.388-.882a61.181,61.181,0,0,0,5.078-22.515l.038-1.084H805.2Zm-51.421-22.6a49.008,49.008,0,0,1-17.072-3.887q-1.795-.768-3.528-1.678l-.993-.523.523-.994q.452-.857.931-1.7a51.673,51.673,0,0,1,19.646-19.682l1.666-.922v29.438Zm1.173,19.253H725.985l.042-1.163a59.094,59.094,0,0,1,4.69-21.107l.478-1.113,1.073.56q1.738.907,3.542,1.678a51.188,51.188,0,0,0,18.014,4.075l1.075.045Zm-24.182,24.448a59.1,59.1,0,0,1-4.69-21.108l-.042-1.163H754.9v17.026l-1.075.044a51.177,51.177,0,0,0-18.014,4.076q-1.8.77-3.542,1.678l-1.073.56Zm22.516,25.445a51.677,51.677,0,0,1-19.646-19.682q-.482-.842-.931-1.7l-.523-1,.993-.522q1.73-.91,3.528-1.678a49,49,0,0,1,17.072-3.888l1.173-.053v29.439Zm26.087-21.38q-.451.856-.931,1.7a51.683,51.683,0,0,1-19.648,19.683l-1.666.922V602.235l1.173.053a48.987,48.987,0,0,1,17.071,3.888q1.8.768,3.53,1.678l.993.523Zm-22.244-26.336h28.915l-.042,1.163a59.09,59.09,0,0,1-4.691,21.108l-.477,1.112-1.073-.56q-1.738-.906-3.543-1.678a51.179,51.179,0,0,0-18.013-4.076l-1.076-.044Zm24.181-24.448a59.06,59.06,0,0,1,4.692,21.108l.042,1.163H757.076V563.833l1.076-.045a51.2,51.2,0,0,0,18.013-4.075q1.8-.771,3.542-1.678l1.074-.56Zm-22.515-25.445a51.68,51.68,0,0,1,19.648,19.683q.48.84.931,1.7l.523.994-.994.523q-1.731.909-3.529,1.678a49,49,0,0,1-17.071,3.887l-1.173.053V532.22Zm-2.083-2.579h-1.333l-.649.013-.644.02-.043,0-.663.03-.485.028-.291.019-.512.036-.364.03-.329.028-.32.03-.073.008a51.391,51.391,0,0,0,.006,102.287l.051.005.327.031.33.029.358.029.527.037.278.018.5.028.665.031.66.021.662.012.666,0,.669,0,.648-.012.644-.02.042,0,.664-.03.489-.028.281-.017.517-.037.491-.04.2-.018.322-.031.065-.007a51.391,51.391,0,0,0-.005-102.288l-.047-.005-.328-.03-.329-.029-.356-.029-.517-.036-.294-.019-.493-.028-.665-.03-.66-.021Z" transform="translate(-653.412 -363.711)" fill="#b7d9f9" fill-rule="evenodd"/>
      <path id="Path_15850" data-name="Path 15850" d="M1273.649,456.961a4.82,4.82,0,1,0,1.412,3.409,4.806,4.806,0,0,0-1.412-3.409m-4.809,40.948V467.966a7.72,7.72,0,1,1,2.9-.02v29.962Z" transform="translate(-931.802 -324.832)" fill="url(#linear-gradient-2)"/>
      <path id="Path_15851" data-name="Path 15851" d="M1364.62,362.718a4.821,4.821,0,1,0,1.412,3.409,4.806,4.806,0,0,0-1.412-3.409m-4.86,88.166v-77.17a7.719,7.719,0,1,1,2.9,0v77.17Z" transform="translate(-977.194 -277.807)" fill="url(#linear-gradient-2)"/>
      <path id="Path_15852" data-name="Path 15852" d="M1322.37,424.687a4.823,4.823,0,1,0,1.411,3.408,4.806,4.806,0,0,0-1.411-3.408m-3.409-4.315a7.725,7.725,0,0,1,1.451,15.312v46.121h-2.9V435.684a7.725,7.725,0,0,1,1.451-15.312Z" transform="translate(-956.113 -308.728)" fill="url(#linear-gradient-2)"/>
      <path id="Path_15853" data-name="Path 15853" d="M1404.123,397.62a4.821,4.821,0,1,0,1.412,3.409,4.807,4.807,0,0,0-1.412-3.409m-3.408-4.315a7.724,7.724,0,0,1,1.451,15.311V468.3h-2.9V408.616a7.724,7.724,0,0,1,1.452-15.311Z" transform="translate(-996.906 -295.222)" fill="url(#linear-gradient-2)"/>
      <path id="Path_15854" data-name="Path 15854" d="M1781.123,665.742a2.909,2.909,0,1,1-.852,2.057,2.9,2.9,0,0,1,.852-2.057m2.9,24.712v-18.07a4.66,4.66,0,1,0-1.751-.012v18.082Z" transform="translate(-1189.277 -429.864)" fill="url(#linear-gradient-2)"/>
      <path id="Path_15855" data-name="Path 15855" d="M1726.223,608.867a2.913,2.913,0,1,1-.851,2.058,2.9,2.9,0,0,1,.851-2.058m2.934,53.208V615.5a4.656,4.656,0,1,0-1.752,0v46.571Z" transform="translate(-1161.883 -401.484)" fill="url(#linear-gradient-2)"/>
      <path id="Path_15856" data-name="Path 15856" d="M1751.721,646.266a2.909,2.909,0,1,1-.853,2.057,2.9,2.9,0,0,1,.853-2.057m2.056-2.6a4.661,4.661,0,0,0-.876,9.239v27.835h1.753V652.9a4.661,4.661,0,0,0-.877-9.239Z" transform="translate(-1174.606 -420.145)" fill="url(#linear-gradient-2)"/>
      <path id="Path_15857" data-name="Path 15857" d="M1702.383,629.93a2.912,2.912,0,1,1-.851,2.058,2.9,2.9,0,0,1,.851-2.058m2.057-2.6a4.662,4.662,0,0,0-.875,9.24v36.019h1.752V636.566a4.661,4.661,0,0,0-.876-9.24Z" transform="translate(-1149.988 -411.994)" fill="url(#linear-gradient-2)"/>
      <path id="Path_15858" data-name="Path 15858" d="M875.208,641.259a3.536,3.536,0,1,0,1.035,2.5,3.522,3.522,0,0,0-1.035-2.5M871.68,671.29V649.33a5.662,5.662,0,1,1,2.129-.015V671.29Z" transform="translate(-734.469 -417.367)" fill="url(#linear-gradient-2)"/>
      <path id="Path_15859" data-name="Path 15859" d="M941.923,572.143a3.536,3.536,0,1,0,1.035,2.5,3.526,3.526,0,0,0-1.035-2.5m-3.565,64.66v-56.6a5.662,5.662,0,1,1,2.129,0v56.6Z" transform="translate(-767.758 -382.88)" fill="url(#linear-gradient-2)"/>
      <path id="Path_15860" data-name="Path 15860" d="M910.937,617.591a3.534,3.534,0,1,0,1.036,2.5,3.526,3.526,0,0,0-1.036-2.5m-2.5-3.164a5.665,5.665,0,0,1,1.064,11.228V659.48h-2.128V625.655a5.665,5.665,0,0,1,1.064-11.228Z" transform="translate(-752.297 -405.558)" fill="url(#linear-gradient-2)"/>
      <path id="Path_15861" data-name="Path 15861" d="M970.894,597.739a3.537,3.537,0,1,0,1.035,2.5,3.523,3.523,0,0,0-1.035-2.5m-2.5-3.164a5.665,5.665,0,0,1,1.064,11.229v43.771H967.33V605.8a5.665,5.665,0,0,1,1.065-11.229Z" transform="translate(-782.214 -395.652)" fill="url(#linear-gradient-2)"/>
      <path id="Path_15862" data-name="Path 15862" d="M984.456,1090.32c185.738,0,336.307,9.683,336.307,21.63s-150.569,21.63-336.307,21.63-336.308-9.686-336.308-21.63,150.57-21.63,336.308-21.63" transform="translate(-625.244 -642.019)" fill="#ebf5ff" fill-rule="evenodd"/>
      <path id="Path_15863" data-name="Path 15863" d="M1152.814,515.25h181.865c4.892,0,8.9,4.287,8.9,9.527V773.194c0,5.24-4,9.527-8.9,9.527H1152.814c-4.894,0-8.9-4.287-8.9-9.527V524.777c0-5.24,4-9.527,8.9-9.527" transform="translate(-872.623 -356.07)" fill="#2b2468" fill-rule="evenodd"/>
      <path id="Path_15864" data-name="Path 15864" d="M1123.86,508.275h108.46V571.49H1123.86a2.837,2.837,0,0,1-2.84-2.817v-21.3a1.936,1.936,0,0,1,1.941-1.924h67.812a.783.783,0,0,0,.784-.777v-9.575a.784.784,0,0,0-.784-.777h-67.812a1.936,1.936,0,0,1-1.941-1.924v-21.3a2.837,2.837,0,0,1,2.84-2.817" transform="translate(-861.198 -352.59)" fill="#ec5f6f" fill-rule="evenodd"/>
      <path id="Path_15865" data-name="Path 15865" d="M1261.8,508.275H1409.99c2.135,0,3.882,1.268,3.882,2.817v57.581c0,1.549-1.747,2.817-3.882,2.817H1261.8Z" transform="translate(-931.447 -352.59)" fill-rule="evenodd" fill="url(#linear-gradient-2)"/>
      <path id="Path_15866" data-name="Path 15866" d="M1250.558,568.264h71.948a.144.144,0,0,1,.147.138v2.826a.144.144,0,0,1-.147.138h-71.948a.143.143,0,0,1-.147-.138V568.4a.143.143,0,0,1,.147-.138" transform="translate(-925.762 -382.523)" fill="#2b2468" fill-rule="evenodd"/>
      <path id="Path_15867" data-name="Path 15867" d="M1144.472,560.253h57.954a.53.53,0,0,1,.555.5v10.137a.53.53,0,0,1-.555.5h-57.954a.53.53,0,0,1-.555-.5V560.749a.53.53,0,0,1,.555-.5" transform="translate(-872.623 -378.526)" fill="#2b2468" fill-rule="evenodd"/>
      <path id="Path_15868" data-name="Path 15868" d="M1123.86,648.82h108.46v63.214H1123.86a2.836,2.836,0,0,1-2.84-2.816v-21.3a1.937,1.937,0,0,1,1.941-1.926h67.812a.782.782,0,0,0,.784-.777v-9.575a.783.783,0,0,0-.784-.777h-67.812a1.937,1.937,0,0,1-1.941-1.925v-21.3a2.836,2.836,0,0,1,2.84-2.816" transform="translate(-861.198 -422.719)" fill="#ec5f6f" fill-rule="evenodd"/>
      <path id="Path_15869" data-name="Path 15869" d="M1261.421,648.82h148.372c2.138,0,3.887,1.267,3.887,2.816v57.581c0,1.549-1.749,2.816-3.887,2.816H1261.421Z" transform="translate(-931.255 -422.719)" fill-rule="evenodd" fill="url(#linear-gradient-2)"/>
      <path id="Path_15870" data-name="Path 15870" d="M1250.558,708.81h71.948a.143.143,0,0,1,.147.137v2.826a.143.143,0,0,1-.147.138h-71.948a.143.143,0,0,1-.147-.138v-2.826a.142.142,0,0,1,.147-.137" transform="translate(-925.762 -452.653)" fill="#2b2468" fill-rule="evenodd"/>
      <path id="Path_15871" data-name="Path 15871" d="M1144.472,700.8h57.954a.529.529,0,0,1,.555.5v10.138a.529.529,0,0,1-.555.5h-57.954a.529.529,0,0,1-.555-.5V701.293a.53.53,0,0,1,.555-.5" transform="translate(-872.623 -448.655)" fill="#2b2468" fill-rule="evenodd"/>
      <path id="Path_15872" data-name="Path 15872" d="M1123.86,789.364h108.46v63.214H1123.86a2.837,2.837,0,0,1-2.84-2.816v-21.3a1.936,1.936,0,0,1,1.941-1.924h67.812a.783.783,0,0,0,.784-.777v-9.576a.783.783,0,0,0-.784-.776h-67.812a1.938,1.938,0,0,1-1.941-1.926v-21.3a2.837,2.837,0,0,1,2.84-2.817" transform="translate(-861.198 -492.848)" fill="#ec5f6f" fill-rule="evenodd"/>
      <path id="Path_15873" data-name="Path 15873" d="M1261.421,789.364h148.372c2.138,0,3.887,1.268,3.887,2.817v57.581c0,1.548-1.749,2.816-3.887,2.816H1261.421Z" transform="translate(-931.255 -492.848)" fill-rule="evenodd" fill="url(#linear-gradient-2)"/>
      <path id="Path_15874" data-name="Path 15874" d="M1250.558,849.353h71.948a.144.144,0,0,1,.147.138v2.826a.143.143,0,0,1-.147.138h-71.948a.143.143,0,0,1-.147-.138v-2.826a.143.143,0,0,1,.147-.138" transform="translate(-925.762 -522.781)" fill="#2b2468" fill-rule="evenodd"/>
      <path id="Path_15875" data-name="Path 15875" d="M1144.472,841.344h57.954a.529.529,0,0,1,.555.5v10.138a.529.529,0,0,1-.555.5h-57.954a.529.529,0,0,1-.555-.5V841.839a.529.529,0,0,1,.555-.5" transform="translate(-872.623 -518.785)" fill="#2b2468" fill-rule="evenodd"/>
      <path id="Path_15876" data-name="Path 15876" d="M1123.86,929.909h108.46v63.214H1123.86a2.837,2.837,0,0,1-2.84-2.817v-21.3a1.936,1.936,0,0,1,1.941-1.924h67.812a.783.783,0,0,0,.784-.777v-9.576a.783.783,0,0,0-.784-.777h-67.812a1.936,1.936,0,0,1-1.941-1.924v-21.3a2.837,2.837,0,0,1,2.84-2.817" transform="translate(-861.198 -562.977)" fill="#ec5f6f" fill-rule="evenodd"/>
      <path id="Path_15877" data-name="Path 15877" d="M1261.421,929.909h148.372c2.138,0,3.887,1.268,3.887,2.817v57.58c0,1.549-1.749,2.817-3.887,2.817H1261.421Z" transform="translate(-931.255 -562.977)" fill-rule="evenodd" fill="url(#linear-gradient-2)"/>
      <path id="Path_15878" data-name="Path 15878" d="M1250.558,989.9h71.948a.143.143,0,0,1,.147.138v2.825a.144.144,0,0,1-.147.138h-71.948a.143.143,0,0,1-.147-.138v-2.825a.143.143,0,0,1,.147-.138" transform="translate(-925.762 -592.911)" fill="#2b2468" fill-rule="evenodd"/>
      <path id="Path_15879" data-name="Path 15879" d="M1144.472,981.887h57.954a.53.53,0,0,1,.555.5v10.139a.53.53,0,0,1-.555.5h-57.954a.53.53,0,0,1-.555-.5V982.383a.53.53,0,0,1,.555-.5" transform="translate(-872.623 -588.913)" fill="#2b2468" fill-rule="evenodd"/>
      <path id="Path_15880" data-name="Path 15880" d="M1434.49,562.78a6.815,6.815,0,1,0-2.5,9.309,6.814,6.814,0,0,0,2.5-9.309" transform="translate(-1011.267 -378.086)" fill="#4512b1" fill-rule="evenodd"/>
      <path id="Path_15881" data-name="Path 15881" d="M1527.769,562.78a6.815,6.815,0,1,0-2.5,9.309,6.815,6.815,0,0,0,2.5-9.309" transform="translate(-1057.811 -378.086)" fill="#4512b1" fill-rule="evenodd"/>
      <path id="Path_15882" data-name="Path 15882" d="M1481.128,562.78a6.815,6.815,0,1,0-2.494,9.309,6.813,6.813,0,0,0,2.494-9.309" transform="translate(-1034.539 -378.086)" fill="#4512b1" fill-rule="evenodd"/>
      <path id="Path_15883" data-name="Path 15883" d="M1515.965,703.324a6.815,6.815,0,1,1,2.494,9.309,6.814,6.814,0,0,1-2.494-9.309" transform="translate(-1057.811 -448.214)" fill="#4512b1" fill-rule="evenodd"/>
      <path id="Path_15884" data-name="Path 15884" d="M1422.686,703.324a6.815,6.815,0,1,1,2.495,9.309,6.814,6.814,0,0,1-2.495-9.309" transform="translate(-1011.267 -448.214)" fill="#4512b1" fill-rule="evenodd"/>
      <path id="Path_15885" data-name="Path 15885" d="M1469.325,703.324a6.815,6.815,0,1,1,2.494,9.309,6.814,6.814,0,0,1-2.494-9.309" transform="translate(-1034.539 -448.214)" fill="#4512b1" fill-rule="evenodd"/>
      <path id="Path_15886" data-name="Path 15886" d="M1434.49,843.87a6.815,6.815,0,1,0-2.5,9.308,6.816,6.816,0,0,0,2.5-9.308" transform="translate(-1011.267 -518.344)" fill="#4512b1" fill-rule="evenodd"/>
      <path id="Path_15887" data-name="Path 15887" d="M1527.769,843.87a6.815,6.815,0,1,0-2.5,9.308,6.817,6.817,0,0,0,2.5-9.308" transform="translate(-1057.811 -518.344)" fill="#4512b1" fill-rule="evenodd"/>
      <path id="Path_15888" data-name="Path 15888" d="M1481.128,843.87a6.814,6.814,0,1,0-2.494,9.308,6.815,6.815,0,0,0,2.494-9.308" transform="translate(-1034.539 -518.344)" fill="#4512b1" fill-rule="evenodd"/>
      <path id="Path_15889" data-name="Path 15889" d="M1515.965,984.413a6.815,6.815,0,1,1,2.494,9.31,6.814,6.814,0,0,1-2.494-9.31" transform="translate(-1057.811 -588.473)" fill="#4512b1" fill-rule="evenodd"/>
      <path id="Path_15890" data-name="Path 15890" d="M1422.686,984.413a6.815,6.815,0,1,1,2.495,9.31,6.814,6.814,0,0,1-2.495-9.31" transform="translate(-1011.267 -588.473)" fill="#4512b1" fill-rule="evenodd"/>
      <path id="Path_15891" data-name="Path 15891" d="M1469.325,984.413a6.815,6.815,0,1,1,2.494,9.31,6.814,6.814,0,0,1-2.494-9.31" transform="translate(-1034.539 -588.473)" fill="#4512b1" fill-rule="evenodd"/>
      <path id="Path_15892" data-name="Path 15892" d="M1431.964,561.164a6.815,6.815,0,1,0-2.495,9.309,6.815,6.815,0,0,0,2.495-9.309" transform="translate(-1010.007 -377.28)" fill="#1a1840" fill-rule="evenodd"/>
      <path id="Path_15893" data-name="Path 15893" d="M1525.243,561.164a6.815,6.815,0,1,0-2.495,9.309,6.814,6.814,0,0,0,2.495-9.309" transform="translate(-1056.551 -377.28)" fill="#fff" fill-rule="evenodd"/>
      <path id="Path_15894" data-name="Path 15894" d="M1478.6,561.164a6.815,6.815,0,1,0-2.494,9.309,6.814,6.814,0,0,0,2.494-9.309" transform="translate(-1033.279 -377.28)" fill-rule="evenodd" fill="url(#linear-gradient-18)"/>
      <path id="Path_15895" data-name="Path 15895" d="M1513.44,701.709a6.815,6.815,0,1,1,2.494,9.309,6.812,6.812,0,0,1-2.494-9.309" transform="translate(-1056.551 -447.409)" fill="#1a1840" fill-rule="evenodd"/>
      <path id="Path_15896" data-name="Path 15896" d="M1420.161,701.709a6.815,6.815,0,1,1,2.494,9.309,6.812,6.812,0,0,1-2.494-9.309" transform="translate(-1010.007 -447.409)" fill="#fff" fill-rule="evenodd"/>
      <path id="Path_15897" data-name="Path 15897" d="M1466.8,701.709a6.815,6.815,0,1,1,2.5,9.309,6.814,6.814,0,0,1-2.5-9.309" transform="translate(-1033.279 -447.409)" fill-rule="evenodd" fill="url(#linear-gradient-18)"/>
      <path id="Path_15898" data-name="Path 15898" d="M1431.964,842.253a6.815,6.815,0,1,0-2.495,9.309,6.816,6.816,0,0,0,2.495-9.309" transform="translate(-1010.007 -517.538)" fill="#1a1840" fill-rule="evenodd"/>
      <path id="Path_15899" data-name="Path 15899" d="M1525.243,842.253a6.815,6.815,0,1,0-2.495,9.309,6.815,6.815,0,0,0,2.495-9.309" transform="translate(-1056.551 -517.538)" fill="#fff" fill-rule="evenodd"/>
      <path id="Path_15900" data-name="Path 15900" d="M1478.6,842.253a6.815,6.815,0,1,0-2.494,9.309,6.815,6.815,0,0,0,2.494-9.309" transform="translate(-1033.279 -517.538)" fill-rule="evenodd" fill="url(#linear-gradient-18)"/>
      <path id="Path_15901" data-name="Path 15901" d="M1513.44,982.8a6.815,6.815,0,1,1,2.494,9.309,6.815,6.815,0,0,1-2.494-9.309" transform="translate(-1056.551 -587.667)" fill="#1a1840" fill-rule="evenodd"/>
      <path id="Path_15902" data-name="Path 15902" d="M1420.161,982.8a6.815,6.815,0,1,1,2.494,9.309,6.814,6.814,0,0,1-2.494-9.309" transform="translate(-1010.007 -587.667)" fill="#fff" fill-rule="evenodd"/>
      <path id="Path_15903" data-name="Path 15903" d="M1466.8,982.8a6.815,6.815,0,1,1,2.5,9.309,6.816,6.816,0,0,1-2.5-9.309" transform="translate(-1033.279 -587.667)" fill-rule="evenodd" fill="url(#linear-gradient-18)"/>
      <path id="Path_15904" data-name="Path 15904" d="M790.646,670.972h129.5a6.591,6.591,0,0,1,6.335,6.784v176.89a6.591,6.591,0,0,1-6.335,6.784h-129.5a6.59,6.59,0,0,1-6.334-6.784V677.756a6.59,6.59,0,0,1,6.334-6.784" transform="translate(-693.188 -433.773)" fill="#2b2468" fill-rule="evenodd"/>
      <path id="Path_15905" data-name="Path 15905" d="M770.028,666.006h77.231v45.012H770.028a2.021,2.021,0,0,1-2.023-2.005V693.846a1.38,1.38,0,0,1,1.382-1.372h48.287a.558.558,0,0,0,.558-.553V685.1a.557.557,0,0,0-.558-.553H769.387a1.38,1.38,0,0,1-1.382-1.371V668.01a2.02,2.02,0,0,1,2.023-2" transform="translate(-685.051 -431.295)" fill="#ec5f6f" fill-rule="evenodd"/>
      <path id="Path_15906" data-name="Path 15906" d="M868.255,666.006H973.773c1.52,0,2.763.9,2.763,2v41c0,1.1-1.243,2.005-2.763,2.005H868.255Z" transform="translate(-735.073 -431.295)" fill-rule="evenodd" fill="url(#linear-gradient-2)"/>
      <path id="Path_15907" data-name="Path 15907" d="M860.245,708.723h51.233a.1.1,0,0,1,.1.1v2.013a.1.1,0,0,1-.1.1H860.245a.1.1,0,0,1-.1-.1V708.82a.1.1,0,0,1,.1-.1" transform="translate(-731.025 -452.61)" fill="#fff" fill-rule="evenodd"/>
      <path id="Path_15908" data-name="Path 15908" d="M784.706,703.018h41.269a.377.377,0,0,1,.394.353v7.219a.377.377,0,0,1-.394.353H784.706a.376.376,0,0,1-.394-.353v-7.219a.376.376,0,0,1,.394-.353" transform="translate(-693.188 -449.763)" fill="#2b2468" fill-rule="evenodd"/>
      <path id="Path_15909" data-name="Path 15909" d="M770.028,766.082h77.231v45.013H770.028a2.021,2.021,0,0,1-2.023-2.006V793.922a1.379,1.379,0,0,1,1.382-1.371h48.287a.558.558,0,0,0,.558-.553v-6.819a.558.558,0,0,0-.558-.553H769.387a1.379,1.379,0,0,1-1.382-1.37V768.088a2.021,2.021,0,0,1,2.023-2.006" transform="translate(-685.051 -481.23)" fill="#ec5f6f" fill-rule="evenodd"/>
      <path id="Path_15910" data-name="Path 15910" d="M868.255,766.082H973.773c1.52,0,2.763.9,2.763,2.006v41c0,1.1-1.243,2.006-2.763,2.006H868.255Z" transform="translate(-735.073 -481.23)" fill-rule="evenodd" fill="url(#linear-gradient-2)"/>
      <path id="Path_15911" data-name="Path 15911" d="M860.245,808.8h51.233a.1.1,0,0,1,.1.1v2.012a.1.1,0,0,1-.1.1H860.245a.1.1,0,0,1-.1-.1V808.9a.1.1,0,0,1,.1-.1" transform="translate(-731.025 -502.545)" fill="#2b2468" fill-rule="evenodd"/>
      <path id="Path_15912" data-name="Path 15912" d="M784.706,803.094h41.269a.378.378,0,0,1,.394.354v7.219a.378.378,0,0,1-.394.353H784.706a.377.377,0,0,1-.394-.353v-7.219a.377.377,0,0,1,.394-.354" transform="translate(-693.188 -499.699)" fill="#2b2468" fill-rule="evenodd"/>
      <path id="Path_15913" data-name="Path 15913" d="M770.028,866.159h77.231v45.013H770.028a2.02,2.02,0,0,1-2.023-2.005V894a1.38,1.38,0,0,1,1.382-1.371h48.287a.558.558,0,0,0,.558-.553v-6.817a.558.558,0,0,0-.558-.554H769.387a1.38,1.38,0,0,1-1.382-1.371V868.165a2.02,2.02,0,0,1,2.023-2.006" transform="translate(-685.051 -531.167)" fill="#ec5f6f" fill-rule="evenodd"/>
      <path id="Path_15914" data-name="Path 15914" d="M868.255,866.159H973.773c1.52,0,2.763.9,2.763,2.006v41c0,1.1-1.243,2.005-2.763,2.005H868.255Z" transform="translate(-735.073 -531.167)" fill-rule="evenodd" fill="url(#linear-gradient-2)"/>
      <path id="Path_15915" data-name="Path 15915" d="M860.245,908.876h51.233a.1.1,0,0,1,.1.1v2.013a.1.1,0,0,1-.1.1H860.245a.1.1,0,0,1-.1-.1v-2.013a.1.1,0,0,1,.1-.1" transform="translate(-731.025 -552.482)" fill="#2b2468" fill-rule="evenodd"/>
      <path id="Path_15916" data-name="Path 15916" d="M784.706,903.173h41.269a.377.377,0,0,1,.394.353v7.218a.377.377,0,0,1-.394.353H784.706a.376.376,0,0,1-.394-.353v-7.218a.376.376,0,0,1,.394-.353" transform="translate(-693.188 -549.636)" fill="#2b2468" fill-rule="evenodd"/>
      <path id="Path_15917" data-name="Path 15917" d="M770.028,966.238h77.231v45.012H770.028a2.02,2.02,0,0,1-2.023-2.006V994.077a1.379,1.379,0,0,1,1.382-1.37h48.287a.558.558,0,0,0,.558-.555v-6.817a.558.558,0,0,0-.558-.553H769.387a1.379,1.379,0,0,1-1.382-1.371V968.243a2.02,2.02,0,0,1,2.023-2.005" transform="translate(-685.051 -581.104)" fill="#ec5f6f" fill-rule="evenodd"/>
      <path id="Path_15918" data-name="Path 15918" d="M868.255,966.238H973.773c1.52,0,2.763.9,2.763,2.005v41c0,1.1-1.243,2.006-2.763,2.006H868.255Z" transform="translate(-735.073 -581.104)" fill-rule="evenodd" fill="url(#linear-gradient-2)"/>
      <path id="Path_15919" data-name="Path 15919" d="M860.245,1008.954h51.233a.1.1,0,0,1,.1.1v2.012a.1.1,0,0,1-.1.1H860.245a.1.1,0,0,1-.1-.1v-2.012a.1.1,0,0,1,.1-.1" transform="translate(-731.025 -602.419)" fill="#2b2468" fill-rule="evenodd"/>
      <path id="Path_15920" data-name="Path 15920" d="M784.706,1003.25h41.269a.378.378,0,0,1,.394.353v7.218a.378.378,0,0,1-.394.354H784.706a.377.377,0,0,1-.394-.354V1003.6a.377.377,0,0,1,.394-.353" transform="translate(-693.188 -599.573)" fill="#2b2468" fill-rule="evenodd"/>
      <path id="Path_15921" data-name="Path 15921" d="M991.218,704.817a4.853,4.853,0,1,0-1.776,6.628,4.852,4.852,0,0,0,1.776-6.628" transform="translate(-791.91 -449.449)" fill="#4512b1" fill-rule="evenodd"/>
      <path id="Path_15922" data-name="Path 15922" d="M1057.639,704.817a4.852,4.852,0,1,0-1.776,6.628,4.852,4.852,0,0,0,1.776-6.628" transform="translate(-825.053 -449.449)" fill="#4512b1" fill-rule="evenodd"/>
      <path id="Path_15923" data-name="Path 15923" d="M1024.428,704.817a4.853,4.853,0,1,0-1.777,6.628,4.853,4.853,0,0,0,1.777-6.628" transform="translate(-808.482 -449.449)" fill="#4512b1" fill-rule="evenodd"/>
      <path id="Path_15924" data-name="Path 15924" d="M1049.234,804.894a4.852,4.852,0,1,1,1.776,6.629,4.852,4.852,0,0,1-1.776-6.629" transform="translate(-825.053 -499.386)" fill="#4512b1" fill-rule="evenodd"/>
      <path id="Path_15925" data-name="Path 15925" d="M982.812,804.894a4.853,4.853,0,1,1,1.776,6.629,4.853,4.853,0,0,1-1.776-6.629" transform="translate(-791.91 -499.386)" fill="#4512b1" fill-rule="evenodd"/>
      <path id="Path_15926" data-name="Path 15926" d="M1016.022,804.894a4.853,4.853,0,1,1,1.777,6.629,4.853,4.853,0,0,1-1.777-6.629" transform="translate(-808.482 -499.386)" fill="#4512b1" fill-rule="evenodd"/>
      <path id="Path_15927" data-name="Path 15927" d="M991.218,904.97a4.853,4.853,0,1,0-1.776,6.629,4.853,4.853,0,0,0,1.776-6.629" transform="translate(-791.91 -549.322)" fill="#4512b1" fill-rule="evenodd"/>
      <path id="Path_15928" data-name="Path 15928" d="M1057.639,904.97a4.852,4.852,0,1,0-1.776,6.629,4.853,4.853,0,0,0,1.776-6.629" transform="translate(-825.053 -549.322)" fill="#4512b1" fill-rule="evenodd"/>
      <path id="Path_15929" data-name="Path 15929" d="M1024.428,904.97a4.853,4.853,0,1,0-1.777,6.629,4.853,4.853,0,0,0,1.777-6.629" transform="translate(-808.482 -549.322)" fill="#4512b1" fill-rule="evenodd"/>
      <path id="Path_15930" data-name="Path 15930" d="M1049.234,1005.049a4.852,4.852,0,1,1,1.776,6.629,4.853,4.853,0,0,1-1.776-6.629" transform="translate(-825.053 -599.259)" fill="#4512b1" fill-rule="evenodd"/>
      <path id="Path_15931" data-name="Path 15931" d="M982.812,1005.049a4.853,4.853,0,1,1,1.776,6.629,4.854,4.854,0,0,1-1.776-6.629" transform="translate(-791.91 -599.259)" fill="#4512b1" fill-rule="evenodd"/>
      <path id="Path_15932" data-name="Path 15932" d="M1016.022,1005.049a4.853,4.853,0,1,1,1.777,6.629,4.854,4.854,0,0,1-1.777-6.629" transform="translate(-808.482 -599.259)" fill="#4512b1" fill-rule="evenodd"/>
      <path id="Path_15933" data-name="Path 15933" d="M989.42,703.665a4.853,4.853,0,1,0-1.777,6.63,4.854,4.854,0,0,0,1.777-6.63" transform="translate(-791.013 -448.875)" fill="#1a1840" fill-rule="evenodd"/>
      <path id="Path_15934" data-name="Path 15934" d="M1055.842,703.665a4.853,4.853,0,1,0-1.777,6.63,4.854,4.854,0,0,0,1.777-6.63" transform="translate(-824.156 -448.875)" fill="#ffa000" fill-rule="evenodd"/>
      <path id="Path_15935" data-name="Path 15935" d="M1022.63,703.665a4.853,4.853,0,1,0-1.776,6.63,4.853,4.853,0,0,0,1.776-6.63" transform="translate(-807.585 -448.875)" fill-rule="evenodd" fill="url(#linear-gradient-18)"/>
      <path id="Path_15936" data-name="Path 15936" d="M1047.437,803.742a4.853,4.853,0,1,1,1.776,6.629,4.852,4.852,0,0,1-1.776-6.629" transform="translate(-824.156 -498.811)" fill="#fb394b" fill-rule="evenodd"/>
      <path id="Path_15937" data-name="Path 15937" d="M981.014,803.742a4.853,4.853,0,1,1,1.777,6.629,4.853,4.853,0,0,1-1.777-6.629" transform="translate(-791.013 -498.811)" fill="#fff" fill-rule="evenodd"/>
      <path id="Path_15938" data-name="Path 15938" d="M1014.225,803.742a4.853,4.853,0,1,1,1.776,6.629,4.853,4.853,0,0,1-1.776-6.629" transform="translate(-807.585 -498.811)" fill-rule="evenodd" fill="url(#linear-gradient-18)"/>
      <path id="Path_15939" data-name="Path 15939" d="M989.42,903.821a4.853,4.853,0,1,0-1.777,6.629,4.853,4.853,0,0,0,1.777-6.629" transform="translate(-791.013 -548.748)" fill="#1a1840" fill-rule="evenodd"/>
      <path id="Path_15940" data-name="Path 15940" d="M1055.842,903.821a4.853,4.853,0,1,0-1.777,6.629,4.853,4.853,0,0,0,1.777-6.629" transform="translate(-824.156 -548.748)" fill="#fff" fill-rule="evenodd"/>
      <path id="Path_15941" data-name="Path 15941" d="M1022.63,903.821a4.853,4.853,0,1,0-1.776,6.629,4.853,4.853,0,0,0,1.776-6.629" transform="translate(-807.585 -548.748)" fill-rule="evenodd" fill="url(#linear-gradient-18)"/>
      <path id="Path_15942" data-name="Path 15942" d="M1047.437,1003.9a4.853,4.853,0,1,1,1.776,6.628,4.85,4.85,0,0,1-1.776-6.628" transform="translate(-824.156 -598.685)" fill="#1a1840" fill-rule="evenodd"/>
      <path id="Path_15943" data-name="Path 15943" d="M981.014,1003.9a4.853,4.853,0,1,1,1.777,6.628,4.851,4.851,0,0,1-1.777-6.628" transform="translate(-791.013 -598.685)" fill="#fff" fill-rule="evenodd"/>
      <path id="Path_15944" data-name="Path 15944" d="M1014.225,1003.9a4.853,4.853,0,1,1,1.776,6.628,4.851,4.851,0,0,1-1.776-6.628" transform="translate(-807.585 -598.685)" fill-rule="evenodd" fill="url(#linear-gradient-18)"/>
      <path id="Path_15945" data-name="Path 15945" d="M1623.207,700.232h119.662a6.089,6.089,0,0,1,5.852,6.268V869.951a6.089,6.089,0,0,1-5.852,6.268H1623.207a6.089,6.089,0,0,1-5.854-6.268V706.5a6.09,6.09,0,0,1,5.854-6.268" transform="translate(-1108.858 -448.373)" fill="#2b2468" fill-rule="evenodd"/>
      <path id="Path_15946" data-name="Path 15946" d="M1604.156,695.643h71.364v41.592h-71.364a1.867,1.867,0,0,1-1.869-1.853V721.367a1.275,1.275,0,0,1,1.277-1.267h44.618a.515.515,0,0,0,.516-.511v-6.3a.516.516,0,0,0-.516-.512h-44.618a1.274,1.274,0,0,1-1.277-1.267V697.5a1.866,1.866,0,0,1,1.869-1.853" transform="translate(-1101.34 -446.083)" fill="#ec5f6f" fill-rule="evenodd"/>
      <path id="Path_15947" data-name="Path 15947" d="M1694.919,695.643h97.5c1.4,0,2.554.834,2.554,1.853v37.886c0,1.019-1.15,1.853-2.554,1.853h-97.5Z" transform="translate(-1147.562 -446.083)" fill-rule="evenodd" fill="url(#linear-gradient-2)"/>
      <path id="Path_15948" data-name="Path 15948" d="M1687.519,735.114h47.339a.094.094,0,0,1,.1.09v1.86a.094.094,0,0,1-.1.091h-47.339a.094.094,0,0,1-.1-.091V735.2a.094.094,0,0,1,.1-.09" transform="translate(-1143.821 -465.778)" fill="#2b2468" fill-rule="evenodd"/>
      <path id="Path_15949" data-name="Path 15949" d="M1617.718,729.842h38.133a.348.348,0,0,1,.365.326v6.671a.348.348,0,0,1-.365.326h-38.133a.348.348,0,0,1-.365-.326v-6.671a.348.348,0,0,1,.365-.326" transform="translate(-1108.858 -463.147)" fill="#2b2468" fill-rule="evenodd"/>
      <path id="Path_15950" data-name="Path 15950" d="M1604.156,788.115h71.364v41.593h-71.364a1.867,1.867,0,0,1-1.869-1.853V813.839a1.274,1.274,0,0,1,1.277-1.266h44.618a.515.515,0,0,0,.516-.511v-6.3a.515.515,0,0,0-.516-.511h-44.618a1.274,1.274,0,0,1-1.277-1.267V789.968a1.867,1.867,0,0,1,1.869-1.853" transform="translate(-1101.34 -492.225)" fill="#ec5f6f" fill-rule="evenodd"/>
      <path id="Path_15951" data-name="Path 15951" d="M1694.919,788.115h97.5c1.4,0,2.554.834,2.554,1.853v37.887c0,1.019-1.15,1.853-2.554,1.853h-97.5Z" transform="translate(-1147.562 -492.225)" fill-rule="evenodd" fill="url(#linear-gradient-2)"/>
      <path id="Path_15952" data-name="Path 15952" d="M1687.519,827.588h47.339a.094.094,0,0,1,.1.09v1.86a.094.094,0,0,1-.1.09h-47.339a.093.093,0,0,1-.1-.09v-1.86a.094.094,0,0,1,.1-.09" transform="translate(-1143.821 -511.921)" fill="#2b2468" fill-rule="evenodd"/>
      <path id="Path_15953" data-name="Path 15953" d="M1617.718,822.316h38.133a.349.349,0,0,1,.365.326v6.671a.349.349,0,0,1-.365.326h-38.133a.349.349,0,0,1-.365-.326v-6.671a.349.349,0,0,1,.365-.326" transform="translate(-1108.858 -509.29)" fill="#360e94" fill-rule="evenodd"/>
      <path id="Path_15954" data-name="Path 15954" d="M1604.156,880.59h71.364v41.593h-71.364a1.867,1.867,0,0,1-1.869-1.854V906.314a1.274,1.274,0,0,1,1.277-1.267h44.618a.515.515,0,0,0,.516-.511v-6.3a.515.515,0,0,0-.516-.512h-44.618a1.274,1.274,0,0,1-1.277-1.267V882.443a1.866,1.866,0,0,1,1.869-1.853" transform="translate(-1101.34 -538.368)" fill="#ec5f6f" fill-rule="evenodd"/>
      <path id="Path_15955" data-name="Path 15955" d="M1694.919,880.59h97.5c1.4,0,2.554.834,2.554,1.853v37.886c0,1.02-1.15,1.854-2.554,1.854h-97.5Z" transform="translate(-1147.562 -538.368)" fill-rule="evenodd" fill="url(#linear-gradient-2)"/>
      <path id="Path_15956" data-name="Path 15956" d="M1687.519,920.06h47.339a.1.1,0,0,1,.1.092v1.859a.094.094,0,0,1-.1.09h-47.339a.094.094,0,0,1-.1-.09v-1.859a.1.1,0,0,1,.1-.092" transform="translate(-1143.821 -558.062)" fill="#fff" fill-rule="evenodd"/>
      <path id="Path_15957" data-name="Path 15957" d="M1617.718,914.79h38.133a.348.348,0,0,1,.365.327v6.67a.348.348,0,0,1-.365.326h-38.133a.348.348,0,0,1-.365-.326v-6.67a.348.348,0,0,1,.365-.327" transform="translate(-1108.858 -555.433)" fill="#2b2468" fill-rule="evenodd"/>
      <path id="Path_15958" data-name="Path 15958" d="M1604.156,973.063h71.364v41.593h-71.364a1.867,1.867,0,0,1-1.869-1.853V998.788a1.274,1.274,0,0,1,1.277-1.267h44.618a.515.515,0,0,0,.516-.511v-6.3a.516.516,0,0,0-.516-.512h-44.618a1.275,1.275,0,0,1-1.277-1.266V974.917a1.867,1.867,0,0,1,1.869-1.854" transform="translate(-1101.34 -584.51)" fill="#ec5f6f" fill-rule="evenodd"/>
      <path id="Path_15959" data-name="Path 15959" d="M1694.919,973.063h97.5c1.4,0,2.554.835,2.554,1.854V1012.8c0,1.02-1.15,1.853-2.554,1.853h-97.5Z" transform="translate(-1147.562 -584.51)" fill-rule="evenodd" fill="url(#linear-gradient-2)"/>
      <path id="Path_15960" data-name="Path 15960" d="M1687.519,1012.534h47.339a.094.094,0,0,1,.1.091v1.859a.094.094,0,0,1-.1.092h-47.339a.094.094,0,0,1-.1-.092v-1.859a.094.094,0,0,1,.1-.091" transform="translate(-1143.821 -604.205)" fill="#2b2468" fill-rule="evenodd"/>
      <path id="Path_15961" data-name="Path 15961" d="M1617.718,1007.264h38.133a.349.349,0,0,1,.365.326v6.67a.348.348,0,0,1-.365.327h-38.133a.348.348,0,0,1-.365-.327v-6.67a.348.348,0,0,1,.365-.326" transform="translate(-1108.858 -601.576)" fill="#2b2468" fill-rule="evenodd"/>
      <path id="Path_15962" data-name="Path 15962" d="M1808.539,731.5a4.484,4.484,0,1,0-1.642,6.125,4.484,4.484,0,0,0,1.642-6.125" transform="translate(-1200.081 -462.858)" fill="#4512b1" fill-rule="evenodd"/>
      <path id="Path_15963" data-name="Path 15963" d="M1869.915,731.5a4.484,4.484,0,1,0-1.642,6.125,4.484,4.484,0,0,0,1.642-6.125" transform="translate(-1230.706 -462.858)" fill="#4512b1" fill-rule="evenodd"/>
      <path id="Path_15964" data-name="Path 15964" d="M1839.226,731.5a4.484,4.484,0,1,0-1.641,6.125,4.484,4.484,0,0,0,1.641-6.125" transform="translate(-1215.393 -462.858)" fill="#4512b1" fill-rule="evenodd"/>
      <path id="Path_15965" data-name="Path 15965" d="M1862.148,823.978a4.484,4.484,0,1,1,1.641,6.126,4.483,4.483,0,0,1-1.641-6.126" transform="translate(-1230.706 -509)" fill="#4512b1" fill-rule="evenodd"/>
      <path id="Path_15966" data-name="Path 15966" d="M1800.772,823.978a4.484,4.484,0,1,1,1.642,6.126,4.484,4.484,0,0,1-1.642-6.126" transform="translate(-1200.081 -509)" fill="#4512b1" fill-rule="evenodd"/>
      <path id="Path_15967" data-name="Path 15967" d="M1831.459,823.978a4.484,4.484,0,1,1,1.641,6.126,4.484,4.484,0,0,1-1.641-6.126" transform="translate(-1215.393 -509)" fill="#4512b1" fill-rule="evenodd"/>
      <path id="Path_15968" data-name="Path 15968" d="M1808.539,916.451a4.485,4.485,0,1,0-1.642,6.125,4.484,4.484,0,0,0,1.642-6.125" transform="translate(-1200.081 -555.143)" fill="#4512b1" fill-rule="evenodd"/>
      <path id="Path_15969" data-name="Path 15969" d="M1869.915,916.451a4.484,4.484,0,1,0-1.642,6.125,4.484,4.484,0,0,0,1.642-6.125" transform="translate(-1230.706 -555.143)" fill="#4512b1" fill-rule="evenodd"/>
      <path id="Path_15970" data-name="Path 15970" d="M1839.226,916.451a4.484,4.484,0,1,0-1.641,6.125,4.484,4.484,0,0,0,1.641-6.125" transform="translate(-1215.393 -555.143)" fill="#4512b1" fill-rule="evenodd"/>
      <path id="Path_15971" data-name="Path 15971" d="M1862.148,1008.925a4.484,4.484,0,1,1,1.641,6.125,4.484,4.484,0,0,1-1.641-6.125" transform="translate(-1230.706 -601.285)" fill="#4512b1" fill-rule="evenodd"/>
      <path id="Path_15972" data-name="Path 15972" d="M1800.772,1008.925a4.485,4.485,0,1,1,1.642,6.125,4.485,4.485,0,0,1-1.642-6.125" transform="translate(-1200.081 -601.285)" fill="#4512b1" fill-rule="evenodd"/>
      <path id="Path_15973" data-name="Path 15973" d="M1831.459,1008.925a4.484,4.484,0,1,1,1.641,6.125,4.485,4.485,0,0,1-1.641-6.125" transform="translate(-1215.393 -601.285)" fill="#4512b1" fill-rule="evenodd"/>
      <path id="Path_15974" data-name="Path 15974" d="M1806.878,730.442a4.484,4.484,0,1,0-1.641,6.126,4.484,4.484,0,0,0,1.641-6.126" transform="translate(-1199.252 -462.328)" fill="#1a1840" fill-rule="evenodd"/>
      <path id="Path_15975" data-name="Path 15975" d="M1868.253,730.442a4.484,4.484,0,1,0-1.641,6.126,4.484,4.484,0,0,0,1.641-6.126" transform="translate(-1229.877 -462.328)" fill="#fff" fill-rule="evenodd"/>
      <path id="Path_15976" data-name="Path 15976" d="M1837.566,730.442a4.484,4.484,0,1,0-1.641,6.126,4.485,4.485,0,0,0,1.641-6.126" transform="translate(-1214.564 -462.328)" fill-rule="evenodd" fill="url(#linear-gradient-18)"/>
      <path id="Path_15977" data-name="Path 15977" d="M1860.486,822.916a4.484,4.484,0,1,1,1.642,6.124,4.484,4.484,0,0,1-1.642-6.124" transform="translate(-1229.877 -508.47)" fill="#1a1840" fill-rule="evenodd"/>
      <path id="Path_15978" data-name="Path 15978" d="M1799.112,822.916a4.484,4.484,0,1,1,1.641,6.124,4.483,4.483,0,0,1-1.641-6.124" transform="translate(-1199.252 -508.47)" fill="#fff" fill-rule="evenodd"/>
      <path id="Path_15979" data-name="Path 15979" d="M1829.8,822.916a4.484,4.484,0,1,1,1.641,6.124,4.483,4.483,0,0,1-1.641-6.124" transform="translate(-1214.564 -508.47)" fill-rule="evenodd" fill="url(#linear-gradient-18)"/>
      <path id="Path_15980" data-name="Path 15980" d="M1806.878,915.388a4.484,4.484,0,1,0-1.641,6.125,4.484,4.484,0,0,0,1.641-6.125" transform="translate(-1199.252 -554.612)" fill="#1a1840" fill-rule="evenodd"/>
      <path id="Path_15981" data-name="Path 15981" d="M1868.253,915.388a4.484,4.484,0,1,0-1.641,6.125,4.484,4.484,0,0,0,1.641-6.125" transform="translate(-1229.877 -554.612)" fill="#fff" fill-rule="evenodd"/>
      <path id="Path_15982" data-name="Path 15982" d="M1837.566,915.388a4.484,4.484,0,1,0-1.641,6.125,4.485,4.485,0,0,0,1.641-6.125" transform="translate(-1214.564 -554.612)" fill-rule="evenodd" fill="url(#linear-gradient-18)"/>
      <path id="Path_15983" data-name="Path 15983" d="M1860.486,1007.863a4.484,4.484,0,1,1,1.642,6.125,4.485,4.485,0,0,1-1.642-6.125" transform="translate(-1229.877 -600.756)" fill="#1a1840" fill-rule="evenodd"/>
      <path id="Path_15984" data-name="Path 15984" d="M1799.112,1007.863a4.484,4.484,0,1,1,1.641,6.125,4.484,4.484,0,0,1-1.641-6.125" transform="translate(-1199.252 -600.756)" fill="#fff" fill-rule="evenodd"/>
      <path id="Path_15985" data-name="Path 15985" d="M1829.8,1007.863a4.484,4.484,0,1,1,1.641,6.125,4.484,4.484,0,0,1-1.641-6.125" transform="translate(-1214.564 -600.756)" fill-rule="evenodd" fill="url(#linear-gradient-18)"/>
      <path id="Path_15986" data-name="Path 15986" d="M797.63,349.589a139.886,139.886,0,0,0-27.317-2.693h-.19c-77.337,0-140.694,63.358-140.694,140.694,0,72.33,60.188,139.429,133.8,140.4,59.451.784,118.9,1.461,178.356,1.275,80.478-.252,160.934-.919,241.421-1.006,62.7-.068,114.077-50.43,114.077-113.365v-.012c0-56.512-42.375-104.85-98.3-112.375l-17.662-2.377-2.667-17.62c-13.736-90.758-92.116-157.978-183.979-157.978a186.145,186.145,0,0,0-170.447,111.31l-7.68,17.474Zm-27.507-26.458h.19a163.49,163.49,0,0,1,31.961,3.151,209.887,209.887,0,0,1,192.2-125.514c105.138,0,192.211,77.315,207.477,178.187,66.889,9,118.9,66.68,118.9,135.928v.012c0,76.038-62,137.13-137.816,137.13-246.258.347-220.569,2.359-420.116-.272-86.826-1.148-157.254-79.036-157.254-164.165C605.664,397.136,679.669,323.132,770.123,323.132Z" transform="translate(-604.046 -199.151)" fill-rule="evenodd" fill="url(#linear-gradient-38)"/>
      <path id="Path_15987" data-name="Path 15987" d="M782.585,344.353q6.92.682,13.69,2.027l17.509,3.487,7.154-16.286a187.754,187.754,0,0,1,357.5,47.078l2.487,16.423,16.457,2.215a115.508,115.508,0,0,1,99.706,113.975v.012a114.058,114.058,0,0,1-33.834,81.232,116.028,116.028,0,0,1-81.862,33.745q-70.38.076-140.763.547-50.316.264-100.657.46-44.6.139-89.192-.274-44.611-.367-89.183-1c-36.781-.485-70.239-17.258-94.688-42.914-25.095-26.331-40.715-62.034-40.715-99.1A142.784,142.784,0,0,1,768.511,343.666h.19q6.909,0,13.884.687m13.061,5.2q-6.675-1.325-13.378-1.987T768.7,346.9h-.19A139.547,139.547,0,0,0,629.436,485.979c0,36.222,15.278,71.125,39.817,96.874,23.883,25.06,56.53,41.441,92.386,41.914q44.6.588,89.17,1,44.585.364,89.168.273,50.3-.157,100.644-.459,70.378-.372,140.775-.546a112.8,112.8,0,0,0,79.584-32.808,110.844,110.844,0,0,0,32.874-78.944v-.012a112.254,112.254,0,0,0-96.9-110.776l-17.662-2.376a1.615,1.615,0,0,1-1.381-1.36l-2.67-17.62A184.517,184.517,0,0,0,823.9,334.884l-7.679,17.469a1.615,1.615,0,0,1-1.8.938ZM768.7,323.139h-.19a163.32,163.32,0,0,0-162.84,162.838c0,42.672,17.875,83.511,46.683,113.585,28.089,29.323,66.56,48.407,108.971,48.967,128.053,1.688,163.344,1.465,237.278,1,41.275-.26,94.593-.6,182.819-.724V648.8a136.247,136.247,0,0,0,96.349-39.722,134.629,134.629,0,0,0,39.848-95.789v-.012a136.019,136.019,0,0,0-117.394-134.314,1.618,1.618,0,0,1-1.484-1.373,208.28,208.28,0,0,0-396.556-52.367,1.619,1.619,0,0,1-1.839,1.041q-7.793-1.553-15.742-2.344Q776.8,323.147,768.7,323.139Zm-.19-3.238h.19q8.156,0,16.219.8,7.533.742,14.792,2.134a211.513,211.513,0,0,1,402.042,53.076,139.274,139.274,0,0,1,119.1,137.36v.012a137.849,137.849,0,0,1-40.811,98.077,139.467,139.467,0,0,1-98.625,40.671v-.006c-88.21.124-141.53.462-182.807.724-73.955.468-109.257.692-237.328-1-43.329-.573-82.605-20.04-111.259-49.953-29.37-30.66-47.594-72.3-47.594-115.824A166.558,166.558,0,0,1,768.511,319.9Z" transform="translate(-602.434 -197.539)" fill="#cddcfb"/>
      <path id="Path_15988" data-name="Path 15988" d="M921.749,265.406c1.59-.717,3.71.544,4.737,2.818s.569,4.7-1.021,5.416-3.71-.545-4.736-2.819-.569-4.7,1.02-5.415" transform="translate(-760.983 -231.303)" fill="#fdcb90" fill-rule="evenodd"/>
      <path id="Path_15989" data-name="Path 15989" d="M970.806,264.442c-1.59-.717-3.711.545-4.737,2.819s-.569,4.7,1.02,5.415,3.71-.545,4.736-2.819.57-4.7-1.019-5.415" transform="translate(-783.608 -230.822)" fill="#fdcb90" fill-rule="evenodd"/>
      <path id="Path_15990" data-name="Path 15990" d="M901.939,556.129s-1.345,6.056-1.421,7.971a4.244,4.244,0,0,1,.706,2.94s-3.014,6.939-1.713,12.228c0,0,2.488,6.885,4.115,8.871,0,0,3.221,1.4,5.4-.225,5.806-4.339,4.229-13.687,3.758-18.508,0,0-1.226-1.414-.9-2.032a11.305,11.305,0,0,1,1.393-1.722,13.224,13.224,0,0,0,.777-3.813c-.1-1.307.189-4.595-1.6-6.131s-6.306-2.317-10.514.42" transform="translate(-750.507 -375.562)" fill="#1a1840" fill-rule="evenodd"/>
      <path id="Path_15991" data-name="Path 15991" d="M897.522,415.655l-19.579,14.272c-3.439,2.507-1.16,10.218-.789,13.924,1.055,10.54,11.746,43.761,11.746,43.761s10.878,1.673,15.794-.073c0,0-6.909-43.5-8.365-48.046,0,0,14.953-6.893,17.02-7.311l2.046-16.634Z" transform="translate(-738.973 -306.321)" fill="#2b2468" fill-rule="evenodd"/>
      <path id="Path_15992" data-name="Path 15992" d="M914.971,495.362a15.177,15.177,0,0,0,3.754-.7s-6.91-43.5-8.366-48.046c0,0,14.953-6.893,17.02-7.311l1.165-9.477c-9.712,5.891-24.356,14.9-24.356,14.9Z" transform="translate(-753.004 -313.449)" fill="#221e54" fill-rule="evenodd"/>
      <path id="Path_15993" data-name="Path 15993" d="M989.562,563.827s-2.39,4-1.469,6.138,3.985,3.765,3.985,3.765,1.869-1.946,6.63,9.328c0,0-.1,5.141,9.232,6.328,0,0,4.511,1.787,7.725-1.372,0,0,1.331-1.87-.413-4.849,0,0-5.741-5.058-6.725-12.39a19.031,19.031,0,0,0-5.02-8s-3.025-3.034-4.326-2.12c-.973.683-5.552-.762-7.965-.308-.812.152-1.654,3.481-1.654,3.481" transform="translate(-794.764 -378.527)" fill="#1a1840" fill-rule="evenodd"/>
      <path id="Path_15994" data-name="Path 15994" d="M949.644,432.181l21.938,7.911s-3.775,14.313-2.178,47.758c.375,1.291,9.3,5.894,16.907,4.143,0,0,2.151-36.806,4.108-49.99.6-4.038,2.87-7.82-.685-11.238-2.4-2.31-18.194-12.481-18.194-12.481l-19.851-2.736-2.881,10.6Z" transform="translate(-775.268 -306.321)" fill="#2b2468" fill-rule="evenodd"/>
      <path id="Path_15995" data-name="Path 15995" d="M949.644,441.054l21.938,7.911s-3.775,14.313-2.178,47.758c.154.531,1.755,1.622,4.114,2.6l3.031-54.634s-16.814-7.054-27.281-11.361l-.46,1.695Z" transform="translate(-775.268 -315.194)" fill="#221e54" fill-rule="evenodd"/>
      <path id="Path_15996" data-name="Path 15996" d="M902.369,302.772c-5.132,2.371-4.268,13.425,3.031,41.5,0,0,.224.66.613,1.725-.218,1.065-.441,2.082-.667,3.04-1.342,5.674,1.224,7.182,1.935,8.463.818,1.474,3.26,2.477,5.944,3.154a7.14,7.14,0,0,0,.785.784l4.657.2c2.1.262,3.643.341,3.643.341l2.247-.094,2.246.094s1.54-.08,3.642-.341l4.658-.2a7.179,7.179,0,0,0,.785-.784c2.683-.677,5.125-1.68,5.943-3.154.711-1.281,3.278-2.789,1.936-8.463-.227-.958-.449-1.975-.667-3.04.389-1.065.612-1.725.612-1.725,4.959-27.156,6.779-37.849.859-41.447l-13-5.856c-2.824-1.076-5.9-1.717-7.016-1.4-1.119-.318-4.193.323-7.016,1.4Z" transform="translate(-750.468 -246.412)" fill="#00a0e8" fill-rule="evenodd"/>
      <path id="Path_15997" data-name="Path 15997" d="M988.072,336.4c.984-5.881,5.494-26.946-2.969-27.376-2.324,4.872-4.808,15.814,2.969,27.376" transform="translate(-792.228 -253.169)" fill="#221e54" fill-rule="evenodd"/>
      <path id="Path_15998" data-name="Path 15998" d="M900.69,335.819c6.927-11.568,3.932-22.263,1.638-26.532-5.333-.426-7.7,14.277-1.638,26.532" transform="translate(-749.471 -253.294)" fill="#221e54" fill-rule="evenodd"/>
      <path id="Path_15999" data-name="Path 15999" d="M886.314,311.874c-8.425,1.976-19.313,30.107-16.956,36.914,0,0,10.7,16.589,17.157,22.648l10.057-2.143s-9.151-20.666-16.61-25.605c0,0,6.586-8.19,7.411-12.2,1.458-1.167,2.189-18.586-1.058-19.617" transform="translate(-735.461 -254.59)" fill="#fff" fill-rule="evenodd"/>
      <path id="Path_16000" data-name="Path 16000" d="M949.054,298.6v.216a8.329,8.329,0,0,1-1.85,5.378,12.184,12.184,0,0,1-9.322,4.433c-5.448-.1-10.855-3.867-11.018-9.74l-.005-.191,4.528-1.733c2.823-1.077,5.9-1.717,7.016-1.4,1.118-.318,4.193.323,7.016,1.4Z" transform="translate(-764.316 -246.412)" fill="#221e54" fill-rule="evenodd"/>
      <path id="Path_16001" data-name="Path 16001" d="M932.169,287.605s1.765,3.573-.837,6.029c.255,9.161,17.755,9.327,17.717,0-2.6-2.456-.837-6.029-.837-6.029l-7.829-2.412v-.117l-.192.059-.191-.059v.117Z" transform="translate(-766.547 -241.218)" fill="#fdcb90" fill-rule="evenodd"/>
      <path id="Path_16002" data-name="Path 16002" d="M921.9,247.925s1.171,7.654,2.867,11.049c.937,2.272,7.377,6.993,9.763,6.813,3.219-.243,8.732-3.474,10.111-6.813,1.7-3.4,2.868-11.049,2.868-11.049,1.936-4.126,2.062-5.847.988-11.961-.038-6.193-10.29-7.327-10.29-7.327a10.175,10.175,0,0,0-7.005,0s-10.12,1.135-10.159,7.327c-2.032,6.422-1.08,7.835.857,11.961" transform="translate(-760.849 -212.746)" fill="#fdddb6" fill-rule="evenodd"/>
      <path id="Path_16003" data-name="Path 16003" d="M905.839,237.624s4.57-.515,6.891-2.584c0,0-2.19.277-4.91-2.093,8.215,1.275,10-17.392,28.072-9.92A4.754,4.754,0,0,0,935.1,220c1.956,1.284,3.626,2.8,4.19,4.346l2.254-2.154.107,4s3.12,1.942,3.361,8.473c.207,5.623-3.627,8.287-4.637,13.178H939.5c.113-1.815.147-3.774.376-5.524,0,0-2.185-1.177-1.74-5.018-2.172,1.42-26.6,8.411-32.3.322" transform="translate(-753.827 -208.747)" fill="#221e54" fill-rule="evenodd"/>
      <path id="Path_16004" data-name="Path 16004" d="M981.6,311.293c8.424,1.976,19.313,30.107,16.956,36.913,0,0-10.7,16.589-17.157,22.648l-10.058-2.144s9.152-20.665,16.612-25.6c0,0-6.209-7.938-7.033-11.945-1.458-1.167-2.568-18.838.68-19.868" transform="translate(-786.51 -254.3)" fill="#fff" fill-rule="evenodd"/>
      <path id="Path_16005" data-name="Path 16005" d="M888.78,362.821h59.179a2.771,2.771,0,0,1,2.853,2.926l-4.207,31.826a2.987,2.987,0,0,1-2.854,2.79H892.171a2.962,2.962,0,0,1-2.856-2.8l-3.389-31.826a2.8,2.8,0,0,1,2.855-2.913" transform="translate(-743.884 -280.011)" fill="#8ac6f4" fill-rule="evenodd"/>
      <path id="Path_16006" data-name="Path 16006" d="M889.3,363.861h59.179a2.247,2.247,0,0,1,2.336,2.337l-4.207,31.826a2.471,2.471,0,0,1-2.338,2.337h-51.58a2.442,2.442,0,0,1-2.337-2.337l-3.39-31.826a2.265,2.265,0,0,1,2.337-2.337" transform="translate(-744.402 -280.53)" fill="#ebf5ff" fill-rule="evenodd"/>
      <path id="Path_16007" data-name="Path 16007" d="M1124.984,782.826h64.828V818.5a2.058,2.058,0,0,1-2.054,2.055h-60.72a2.058,2.058,0,0,1-2.055-2.055Z" transform="translate(-863.176 -489.585)" fill="#ebf5ff" fill-rule="evenodd"/>
      <path id="Path_16008" data-name="Path 16008" d="M1124.983,775.749h64.829v-.965a1.03,1.03,0,0,0-1.027-1.028h-36.874a2.09,2.09,0,0,1-1.266-.436l-5.875-4.239a2.085,2.085,0,0,0-1.266-.436h-16.466a2.061,2.061,0,0,0-2.055,2.055Z" transform="translate(-863.176 -482.509)" fill="#ff7c11" fill-rule="evenodd"/>
      <path id="Path_16009" data-name="Path 16009" d="M1120.439,782.826h64.828V818.5a2.058,2.058,0,0,1-2.055,2.055h-60.719a2.059,2.059,0,0,1-2.055-2.055Z" transform="translate(-860.908 -489.585)" fill="#fff" fill-rule="evenodd"/>
      <path id="Path_16010" data-name="Path 16010" d="M1120.439,775.749h64.828v-.965a1.03,1.03,0,0,0-1.028-1.028h-36.873a2.086,2.086,0,0,1-1.266-.436l-5.876-4.239a2.088,2.088,0,0,0-1.267-.436h-16.466a2.06,2.06,0,0,0-2.055,2.055Z" transform="translate(-860.908 -482.509)" fill="#ffae2b" fill-rule="evenodd"/>
      <path id="Path_16011" data-name="Path 16011" d="M1120.439,820.246V796.507H1135a3.9,3.9,0,0,1,3.885,3.886V816.36a3.9,3.9,0,0,1-3.885,3.886Z" transform="translate(-860.908 -496.412)" fill="#d3e8fd" fill-rule="evenodd"/>
      <path id="Path_16012" data-name="Path 16012" d="M1126.534,793.014h-15.968a3.9,3.9,0,0,0-3.886,3.885v15.967a3.9,3.9,0,0,0,3.886,3.885h15.968a3.9,3.9,0,0,0,3.885-3.885V796.9a3.9,3.9,0,0,0-3.885-3.885" transform="translate(-854.043 -494.669)" fill-rule="evenodd" fill="url(#linear-gradient-39)"/>
      <path id="Path_16013" data-name="Path 16013" d="M1130.414,814.156V798.428a2.6,2.6,0,0,0-2.591-2.591h-15.728a2.6,2.6,0,0,0-2.59,2.591v15.729a2.6,2.6,0,0,0,2.59,2.59h15.728a2.6,2.6,0,0,0,2.591-2.59" transform="translate(-855.452 -496.078)" fill="#f7f5ff" fill-rule="evenodd"/>
      <path id="Path_16014" data-name="Path 16014" d="M1131.517,810.648l-8.5-4.906a.627.627,0,0,0-.941.543V816.1a.627.627,0,0,0,.941.543l8.5-4.907a.627.627,0,0,0,0-1.086" transform="translate(-861.726 -500.977)" fill-rule="evenodd" fill="url(#linear-gradient-39)"/>
      <path id="Path_16015" data-name="Path 16015" d="M1032.342,1069.474s-3.336,7.167-2.612,9.051c.285.739.106,5.3.05,7.317-.024.859.749.5.9.66.406.439,1.356-4.817,1.356-4.817s2.825-2.81,6.576,7.112c3.3,2.215,12.073,2,15.068.875.621-.907.709-4.137-1.407-4.237-1.965-.092-6.372-.831-6.95-5.853a17.4,17.4,0,0,0-3.987-7.087s-2.4-2.023-3.455-1.265-5.541-1.757-5.541-1.757" transform="translate(-815.595 -632.617)" fill="#1a1840" fill-rule="evenodd"/>
      <path id="Path_16016" data-name="Path 16016" d="M1075.792,876.21l-7.13,52.162c-4.207,10.276-18.858,27.612-27.029,45.008-4.415.274-9.073-.867-10.816-2.212,11-15.291,14.036-37.935,24.086-44.809,3.559-13.269-11.505-46.487-1.6-54.751Z" transform="translate(-816.189 -533.886)" fill="#2b2468" fill-rule="evenodd"/>
      <path id="Path_16017" data-name="Path 16017" d="M1081.006,878.169l-7.13,52.162c-4.207,10.276-18.858,27.612-27.029,45.008a24,24,0,0,1-5.581-.336c5.074-12.192,27.427-46.137,27.427-46.137,2.855-5.561.885-35.662-.565-53.332Z" transform="translate(-821.402 -535.845)" fill="#221e54" fill-rule="evenodd"/>
      <path id="Path_16018" data-name="Path 16018" d="M1134.376,1077.6s1.45,9.1,3.144,10.2c.663.429,2.085,4.234,3.223,5.894.485.707,1.049.17,1.27.214.586.116-.772-4.912-.772-4.912s.381-3.53,9.133,3.594c4.125,1.784,13.163.52,14.3-4.326,0,0-.055-1.921-2.722-3.237a15.92,15.92,0,0,1-12.069-5.539s-1.832-2.382-6.534-3.386c0,0-2.664-.854-3.072.378s-5.906,1.121-5.906,1.121" transform="translate(-867.862 -635.78)" fill="#1a1840" fill-rule="evenodd"/>
      <path id="Path_16019" data-name="Path 16019" d="M1118.919,975.08s-13.153,3.178-12.5.857c3.682-13.135-9.215-33.33-4.6-49.339,1.468-5.1-7.428-20.212-14.1-30.423-4.1-6.278-8.365-13.126-3.483-23.892l22.233,5.587c5.314,9.558,8.912,34.344,8.391,48.355-.255,6.851,1.094,32.143,4.063,48.854" transform="translate(-841.752 -534.223)" fill="#2b2468" fill-rule="evenodd"/>
      <path id="Path_16020" data-name="Path 16020" d="M1132.238,977.88s-2.024.489-4.444.944c-8.3-46.789-3.907-56.528-3.907-56.528-1.421-19.468-9.69-35.649-15.145-44.4l11.042,2.775c5.314,9.558,8.912,34.344,8.391,48.355-.255,6.851,1.094,32.143,4.063,48.854" transform="translate(-855.072 -537.023)" fill="#221e54" fill-rule="evenodd"/>
      <path id="Path_16021" data-name="Path 16021" d="M1070.671,745.02c-1.547-.661-2.42-.079-5.859,4.346-3.156,4.059-8.6,11.335-3.4,30,8.833,31.692-.36,19.843-.16,33.672.036,2.458,1.693,4.458,3.326,5.966,0,0,24.176,4.295,31.044-4.494,1.012-2.361-1.027-8.268-2.894-11.076-4.86-7.317-3.594-12.77-2.8-22.772.184-2.322,8.638-8.132,4.48-14.991-2.788-4.6-6.891-8.04-10.658-12.5a10.457,10.457,0,0,0-1.938-1.563c-2.963-1.426-7.584-5.22-11.142-6.585" transform="translate(-830.379 -470.607)" fill-rule="evenodd" fill="url(#linear-gradient-18)"/>
      <path id="Path_16022" data-name="Path 16022" d="M1092.092,794.127a28.234,28.234,0,0,0-1.173-4.5c-.746-2.2-5.6-3.032-6.609-5.118-.452-.931-.927-1.878-1.434-2.783-1.282-4.461-3.256-9.944-6.233-13.533-1.715-2.069-4.158-3.892-6.94-3.268-3.686.829-3.912,4.938-4.463,8.352-.423,17.172,43.754,33.914,4.046,46.507a46.51,46.51,0,0,0,15.448-1.731c-6.825,4.785-12.693,7.108-20.541,7.186a11.269,11.269,0,0,0,2.849,3.752c6.176,1.89,27.7,2.147,31.044-4.494.827-3.144-.9-7.658-2.558-10.534-4.52-6.6-4.183-11.571-3.437-19.831" transform="translate(-832.843 -480.589)" fill-rule="evenodd" fill="url(#linear-gradient-18)"/>
      <path id="Path_16023" data-name="Path 16023" d="M1115.545,831.436c-9.295-5.147-19.369-8.3-27.286-11.044a56.985,56.985,0,0,0-1.424-11.749l-11.766,1.348c.16,4.593,2.03,10.02,2.306,15.128,9.249,8.778,31.4,6.515,37.573,11.872,5.68,2.488,7.45,2.909,11.564.871,4.671-2.315,4.046-4.42,3.414-5.28-.951-1.037-.791.614-6.381.284-.053,0-1.568-.474-1.475-1.255.082-.7,2.642-1.986,2.652-2.4.058-2.115-7.605,2.188-7.616,2.167-.337-.019-.494.388-1.56.058" transform="translate(-838.269 -502.468)" fill="#fdddb6" fill-rule="evenodd"/>
      <path id="Path_16024" data-name="Path 16024" d="M1085.72,781.535l.309,9.931a31.911,31.911,0,0,1-12.31,1.1l-2.078-11.721c-3.09-20.07,16.956-30.135,14.079.695" transform="translate(-836.397 -479.164)" fill-rule="evenodd" fill="url(#linear-gradient-18)"/>
      <path id="Path_16025" data-name="Path 16025" d="M1091.669,738.363s-4.224,6.634.519,10.271c.409,4.665-13.183-3.95-15.464-7.217,2.712-.524,3.894-7.01,3.358-9.29l1.828-.091Z" transform="translate(-839.095 -464.242)" fill="#fdcb90" fill-rule="evenodd"/>
      <path id="Path_16026" data-name="Path 16026" d="M1055.79,697.151s11.784-9.455,5.382-13.762c2.673-15.143-39.406-11.753-27.772,23.1,1.3,3.89,3.484,18.147-5.757,16.931,4.375,10.423,31.534,4.921,28.147-26.273" transform="translate(-814.605 -435.705)" fill="#221e54" fill-rule="evenodd"/>
      <path id="Path_16027" data-name="Path 16027" d="M1077.934,685.953a5.6,5.6,0,1,1-1.952,7.984,5.821,5.821,0,0,1,1.952-7.984" transform="translate(-838.292 -440.713)" fill="#f20010" fill-rule="evenodd"/>
      <path id="Path_16028" data-name="Path 16028" d="M1079.813,687.1c3.325-2.2,7.477-1.789,9.273.924s.559,6.7-2.766,8.9-7.476,1.789-9.273-.924-.559-6.7,2.766-8.9" transform="translate(-838.845 -441.116)" fill="#fb394b" fill-rule="evenodd"/>
      <path id="Path_16029" data-name="Path 16029" d="M1097.621,708.248c-.229,1.986,1.715,5.805,1.641,6.469-.071.635-2.8.2-2.979.656a46.51,46.51,0,0,0-2.29,6.93c-.755,2.681-13.787-3.93-15.315-9.737-.083-.315-.391.469-.891-.021-3.111-3.039-5.914-10.231-1.136-9.472,0,0,2.313-10.844,10.148-10.183,0,0,9.133-.708,10.212,3.851,2.588,4.388,1.337,8.138.61,11.507" transform="translate(-837.78 -444.689)" fill="#fdddb6" fill-rule="evenodd"/>
      <path id="Path_16030" data-name="Path 16030" d="M1101.073,704.071c-5.267-.123-11.091-3.656-12.682-8.373-.254,3.366-4.181,6.774-8.013,6.792l.575,7.2-2.728-8.163c-8.616-21.5,25.867-21.465,23.9-2.707Z" transform="translate(-839.153 -440.803)" fill="#2b2468" fill-rule="evenodd"/>
      <path id="Path_16031" data-name="Path 16031" d="M1234.324,1032.012h66.911v36.818a2.125,2.125,0,0,1-2.121,2.121h-62.669a2.125,2.125,0,0,1-2.121-2.121Z" transform="translate(-917.734 -613.924)" fill="#d3e8fd" fill-rule="evenodd"/>
      <path id="Path_16032" data-name="Path 16032" d="M1234.324,1024.709h66.911v-1a1.064,1.064,0,0,0-1.061-1.061h-38.057a2.159,2.159,0,0,1-1.307-.45l-6.064-4.375a2.152,2.152,0,0,0-1.307-.451h-16.994a2.127,2.127,0,0,0-2.121,2.121Z" transform="translate(-917.734 -606.621)" fill="#ff7c11" fill-rule="evenodd"/>
      <path id="Path_16033" data-name="Path 16033" d="M1229.633,1032.012h66.911v36.818a2.125,2.125,0,0,1-2.121,2.121h-62.669a2.125,2.125,0,0,1-2.121-2.121Z" transform="translate(-915.394 -613.924)" fill="#fff" fill-rule="evenodd"/>
      <path id="Path_16034" data-name="Path 16034" d="M1229.633,1024.709h66.91v-1a1.063,1.063,0,0,0-1.06-1.061h-38.057a2.16,2.16,0,0,1-1.307-.45l-6.064-4.375a2.152,2.152,0,0,0-1.307-.451h-16.995a2.127,2.127,0,0,0-2.121,2.121Z" transform="translate(-915.394 -606.621)" fill="#ffae2b" fill-rule="evenodd"/>
      <path id="Path_16035" data-name="Path 16035" d="M1229.633,1070.634v-24.5h15.025a4.022,4.022,0,0,1,4.011,4.01v16.481a4.022,4.022,0,0,1-4.011,4.01Z" transform="translate(-915.394 -620.97)" fill="#ebf5ff" fill-rule="evenodd"/>
      <path id="Path_16036" data-name="Path 16036" d="M1235.924,1042.529h-16.48a4.023,4.023,0,0,0-4.011,4.01v16.481a4.023,4.023,0,0,0,4.011,4.01h16.48a4.022,4.022,0,0,0,4.011-4.01v-16.481a4.022,4.022,0,0,0-4.011-4.01" transform="translate(-908.308 -619.172)" fill-rule="evenodd" fill="url(#linear-gradient-39)"/>
      <path id="Path_16037" data-name="Path 16037" d="M1239.929,1064.349v-16.232a2.681,2.681,0,0,0-2.674-2.674h-16.232a2.682,2.682,0,0,0-2.674,2.674v16.232a2.682,2.682,0,0,0,2.674,2.674h16.232a2.681,2.681,0,0,0,2.674-2.674" transform="translate(-909.763 -620.626)" fill="#f7f5ff" fill-rule="evenodd"/>
      <path id="Path_16038" data-name="Path 16038" d="M1227.13,1059.99l-5.165,9.519a1.336,1.336,0,0,0,1.175,1.974h15.439a1.337,1.337,0,0,0,1.175-1.974l-2.817-5.192a1.337,1.337,0,0,0-2.349,0l-.911,1.678a.534.534,0,0,1-.94,0l-3.259-6.005a1.336,1.336,0,0,0-2.35,0" transform="translate(-911.484 -627.536)" fill-rule="evenodd" fill="url(#linear-gradient-39)"/>
      <path id="Path_16039" data-name="Path 16039" d="M1249.434,1050.379a2.309,2.309,0,1,0,2.308,2.31,2.31,2.31,0,0,0-2.308-2.31" transform="translate(-924.121 -623.089)" fill-rule="evenodd" fill="url(#linear-gradient-46)"/>
      <path id="Path_16040" data-name="Path 16040" d="M1551.978,763.782h61.7v33.95a1.959,1.959,0,0,1-1.956,1.956h-57.785a1.959,1.959,0,0,1-1.956-1.956Z" transform="translate(-1076.237 -480.083)" fill="#d3e8fd" fill-rule="evenodd"/>
      <path id="Path_16041" data-name="Path 16041" d="M1551.976,757.048h61.7v-.918a.981.981,0,0,0-.979-.979H1577.6a1.985,1.985,0,0,1-1.2-.415l-5.592-4.035a1.989,1.989,0,0,0-1.2-.415h-15.67a1.962,1.962,0,0,0-1.957,1.956Z" transform="translate(-1076.236 -473.349)" fill="#ff7c11" fill-rule="evenodd"/>
      <path id="Path_16042" data-name="Path 16042" d="M1547.652,763.782h61.7v33.95a1.959,1.959,0,0,1-1.956,1.956h-57.785a1.96,1.96,0,0,1-1.956-1.956Z" transform="translate(-1074.079 -480.083)" fill="#fff" fill-rule="evenodd"/>
      <path id="Path_16043" data-name="Path 16043" d="M1547.652,757.048h61.7v-.918a.98.98,0,0,0-.978-.979h-35.091a1.987,1.987,0,0,1-1.2-.415l-5.592-4.035a1.989,1.989,0,0,0-1.2-.415h-15.67a1.961,1.961,0,0,0-1.956,1.956Z" transform="translate(-1074.079 -473.349)" fill="#ffae2b" fill-rule="evenodd"/>
      <path id="Path_16044" data-name="Path 16044" d="M1547.652,799.4V776.8h13.854a3.709,3.709,0,0,1,3.7,3.7v15.2a3.71,3.71,0,0,1-3.7,3.7Z" transform="translate(-1074.079 -486.58)" fill="#d3e8fd" fill-rule="evenodd"/>
      <path id="Path_16045" data-name="Path 16045" d="M1553.453,773.478h-15.2a3.709,3.709,0,0,0-3.7,3.7v15.2a3.71,3.71,0,0,0,3.7,3.7h15.2a3.708,3.708,0,0,0,3.7-3.7v-15.2a3.708,3.708,0,0,0-3.7-3.7" transform="translate(-1067.545 -484.921)" fill-rule="evenodd" fill="url(#linear-gradient-39)"/>
      <path id="Path_16046" data-name="Path 16046" d="M1557.146,793.6V778.631a2.473,2.473,0,0,0-2.465-2.466h-14.968a2.472,2.472,0,0,0-2.464,2.466V793.6a2.472,2.472,0,0,0,2.464,2.466h14.968a2.473,2.473,0,0,0,2.465-2.466" transform="translate(-1068.887 -486.262)" fill="#f7f5ff" fill-rule="evenodd"/>
      <path id="Path_16047" data-name="Path 16047" d="M1625.558,1072.982l.734,9.352,10.668.129.707-10.307Z" transform="translate(-1112.952 -633.955)" fill="#2b2468" fill-rule="evenodd"/>
      <path id="Path_16048" data-name="Path 16048" d="M1719.974,1067.714l1.758,8.12,10.192-.569-.65-9.825Z" transform="translate(-1160.064 -630.604)" fill="#2b2468" fill-rule="evenodd"/>
      <path id="Path_16049" data-name="Path 16049" d="M1696.135,970.7s16.186.245,15.191-2.163c-6.085-14.743-4.067-29.316-17.218-44.232-.882-9.5-1.712-19.848,3.043-32.114,1.986-5.122,5.864-15.492.543-26.992l-22.363,5.543a181.147,181.147,0,0,0,1.847,53.82c2.324,12.684,17.789,29.96,18.957,46.139" transform="translate(-1137.192 -530.688)" fill="#221e54" fill-rule="evenodd"/>
      <path id="Path_16050" data-name="Path 16050" d="M1696.135,971.826s5.258.08,9.6-.3c-5.045-14.325-5.351-32.077-17.711-46.1-.883-9.5-1.711-19.848,3.042-32.114,1.749-4.511,4.966-15.457,2.07-25.862l-17.8,4.412a181.189,181.189,0,0,0,1.848,53.82c2.324,12.684,17.789,29.96,18.957,46.139" transform="translate(-1137.192 -531.814)" fill="#2b2468" fill-rule="evenodd"/>
      <path id="Path_16051" data-name="Path 16051" d="M1621.914,971.828a29.456,29.456,0,0,0,15.59,0c-1.269-19.924,7.3-33.83,3.317-49.342,5.712-14.126,15.474-22.461,24-35.761,5.75-9,5.592-17.789,2.992-23.931-8.886,1.083-18.285,1.4-27.17,2.479-3.772,19.828-13.264,37.661-16.358,53.586-1.035,16.2-.831,39.147-2.374,52.97" transform="translate(-1111.134 -529.488)" fill="#221e54" fill-rule="evenodd"/>
      <path id="Path_16052" data-name="Path 16052" d="M1621.914,972.525a35.625,35.625,0,0,0,7.952,1.051c-1.107-19.7,7.3-35,3.342-50.394,5.713-14.126,15.474-22.461,24-35.761a29.354,29.354,0,0,0,3.77-23.231c-6.779.591-13.7.97-20.336,1.779-3.772,19.828-13.264,37.661-16.358,53.586-1.035,16.2-.831,39.147-2.374,52.97" transform="translate(-1111.134 -530.185)" fill="#2b2468" fill-rule="evenodd"/>
      <path id="Path_16053" data-name="Path 16053" d="M1686.088,722.233c1.626-.549,3.069-.108,6.218,4.666s9.538,17.225-.134,39.657c-3.124,9.787,1.242,18.995.551,26.451-.231,2.5-2.077,4.4-3.858,5.8,0,0-19.735,9.6-32.115-1.9-.841-2.484.177-6.685,2.3-9.394,5.528-7.058,3.154-21.965,2.692-32.2-.226-4.99,1.637-17.641,9.6-26.341a10.661,10.661,0,0,1,2.1-1.436c3.128-1.214,8.918-4.2,12.646-5.31" transform="translate(-1128.369 -459.259)" fill-rule="evenodd" fill="url(#linear-gradient-18)"/>
      <path id="Path_16054" data-name="Path 16054" d="M1683.407,741.93c3.878,1.2,4.408,6.253,4.714,9.955,1.673,20.3-39.338,41.781-2.443,48.454a50,50,0,0,1-16.4-3.147c6.993,5.766,13.148,8.749,21.708,9.443l-2.118,2-.013.006,0,0-.038.019c-1.169.552-20.065,9.216-32.058-1.932-.84-2.484.177-6.685,2.3-9.394,1.934-2.47,2.9-5.9,3.32-9.757a4.477,4.477,0,0,0,.258-.778c21.124-3.307,9.13-48.463,20.779-44.869" transform="translate(-1128.37 -469.078)" fill-rule="evenodd" fill="url(#linear-gradient-18)"/>
      <path id="Path_16055" data-name="Path 16055" d="M1612.434,805.363c10.416-4.524,21.458-6.85,30.16-8.951a60.875,60.875,0,0,1,2.721-12.353l12.379,2.64c-.643,4.869-3.188,10.451-4.005,15.858-10.74,8.39-34.073,3.711-41.189,8.776-6.3,2.065-9.483,2.333-13.65-.258-4.733-2.942-3.853-5.117-3.092-5.968,1.119-1.005,2.038.734,8.02.956.057,0,1.716-.345,1.7-1.185-.017-.751-2.607-2.383-2.576-2.823.156-2.256,7.867,3.107,7.88,3.085.36.015.487.464,1.654.222" transform="translate(-1097.782 -490.201)" fill="#fdcb90" fill-rule="evenodd"/>
      <path id="Path_16056" data-name="Path 16056" d="M1693.1,755.654l-1.348,10.534a34.112,34.112,0,0,0,12.984,2.426l3.412-12.256c5.346-21.034-14.949-33.8-15.049-.7" transform="translate(-1145.981 -465.922)" fill-rule="evenodd" fill="url(#linear-gradient-18)"/>
      <path id="Path_16057" data-name="Path 16057" d="M1681.588,710.2s5.677,7.787,1.939,10.9c-.276,4.976,13.882-4.651,16.2-8.2,0,0-1.286-.206-1.513-1.074a18.725,18.725,0,0,1-.879-9.407l-3.443.683Z" transform="translate(-1140.91 -449.463)" fill="#fdcb90" fill-rule="evenodd"/>
      <path id="Path_16058" data-name="Path 16058" d="M1668.189,679.251c.312,2.1-1.625,6.232-1.524,6.935.1.673,2.981.116,3.191.6a49.462,49.462,0,0,1,2.672,7.29c.81,2.558,11.7-2.966,13.3-4.879a8.4,8.4,0,0,0,2.622-5.842c.022-.347.47.194.978-.209,5.807-4.622,4.088-9.751,2.616-12.264,0,0-4.564-9.3-12.874-8.33,0,0-9.735-.439-10.726,4.445-2.6,4.757-1.144,8.7-.255,12.259" transform="translate(-1133.462 -429.533)" fill="#fdcb90" fill-rule="evenodd"/>
      <path id="Path_16059" data-name="Path 16059" d="M1650.287,662.794c8.532.563,15.662-27.439,35.977-9.1,7.015.5,5.049,15.523-.711,20.94,0,0-1.994,5.658-3.827,8.027-.1-2.157-.74-4.227-1.129-6.884,3.84-2.665,5.364-11.156.155-8.715a23.372,23.372,0,0,0-1.612,6.89s-3.141-7.051-2.69-9.581c0,0-23.4,6-26.162-1.574" transform="translate(-1125.292 -422.039)" fill="#221e54" fill-rule="evenodd"/>
      <path id="Path_16060" data-name="Path 16060" d="M1608.965,1099.017c-4.908.055-8.031-.565-13.3-.058-14.445,1.388-16.823-.087-16.286-4.2,0-1.208,16.178-6.56,21.979-12.415.73-.737,3.427.189,3.968,1.173a3.952,3.952,0,0,1,.214,2.665c2.357.875,5.936-.144,8.091-.64,1.076-.247,1.265,1.722,1.318,4.054.153,6.634.716,9.347-5.984,9.423" transform="translate(-1089.876 -638.906)" fill="#1a1840" fill-rule="evenodd"/>
      <path id="Path_16061" data-name="Path 16061" d="M1708.048,1091.6c-4.841.82-8.021.695-13.148,2.018-14.05,3.625-16.63,2.539-16.742-1.609-.189-1.193,14.958-9,19.774-15.693.605-.842,3.414-.347,4.1.54a3.955,3.955,0,0,1,.627,2.6c2.466.495,5.841-1.07,7.894-1.9,1.025-.412,1.517,1.5,1.933,3.8,1.187,6.529,2.166,9.121-4.44,10.241" transform="translate(-1139.198 -635.813)" fill="#1a1840" fill-rule="evenodd"/>
      <path id="Path_16156" data-name="Path 16156" d="M1863.5,442.9h.031a26.5,26.5,0,0,1,5.185.512,34.049,34.049,0,0,1,64.835,8.544,22.329,22.329,0,0,1,19.287,22.05v0a22.3,22.3,0,0,1-22.356,22.245c-39.948.057-35.781.383-68.15-.044-14.085-.186-25.509-12.822-25.509-26.631A26.757,26.757,0,0,1,1863.5,442.9" transform="translate(-1218.367 -310.066)" fill="#ebf5ff" fill-rule="evenodd"/>
      <path id="Path_16157" data-name="Path 16157" d="M1534.067,122.894h.021a18.836,18.836,0,0,1,3.671.361,24.1,24.1,0,0,1,45.891,6.049,15.8,15.8,0,0,1,13.652,15.607v0a15.784,15.784,0,0,1-15.824,15.745c-28.275.04-25.326.271-48.238-.031-9.97-.132-18.057-9.075-18.057-18.85a18.939,18.939,0,0,1,18.884-18.883" transform="translate(-1057.877 -143.282)" fill="#ebf5ff" fill-rule="evenodd"/>
      <path id="Path_16158" data-name="Path 16158" d="M688.759,312.054h.023a19.962,19.962,0,0,1,3.9.384,25.616,25.616,0,0,1,48.777,6.429,16.8,16.8,0,0,1,14.511,16.589h0a16.777,16.777,0,0,1-16.819,16.736c-30.054.043-26.919.288-51.272-.033-10.6-.141-19.191-9.646-19.191-20.035a20.129,20.129,0,0,1,20.071-20.071" transform="translate(-635.493 -247.229)" fill="#ebf5ff" fill-rule="evenodd"/>
    </g>
    <path id="Path_16062" data-name="Path 16062" d="M1556.746,789.834a1.444,1.444,0,0,1,1.279,1.429v5.18a1.443,1.443,0,0,1-1.439,1.438h-6.4a1.443,1.443,0,0,1-1.438-1.438v-5.18a1.444,1.444,0,0,1,1.206-1.419V788.6a3.4,3.4,0,0,1,6.793,0v.006c0,.051,0,.1,0,.153s0,.081,0,.122Zm-3.362,1.533a1.447,1.447,0,0,1,.674,2.727v2.39h-1.347v-2.39a1.446,1.446,0,0,1,.673-2.727Zm-2.194-1.542h4.316v-.973c0-.032,0-.064,0-.1s0-.064,0-.1v0h0a2.163,2.163,0,0,0-4.316,0v1.169Z" transform="translate(-472.19 -337.589)" fill-rule="evenodd" fill="url(#linear-gradient-39)"/>
  </g>
</svg>
