<svg xmlns="http://www.w3.org/2000/svg" xmlns:xlink="http://www.w3.org/1999/xlink" width="679.721" height="505" viewBox="0 0 679.721 505">
  <defs>
    <linearGradient id="linear-gradient" y1="0.5" x2="1" y2="0.5" gradientUnits="objectBoundingBox">
      <stop offset="0.005" stop-color="#ec5f6f"/>
      <stop offset="0.597" stop-color="#f4833f"/>
      <stop offset="1" stop-color="#fa9923"/>
    </linearGradient>
    <linearGradient id="linear-gradient-5" y1="0.5" x2="1" y2="0.5" gradientUnits="objectBoundingBox">
      <stop offset="0.005" stop-color="#ffaf03"/>
      <stop offset="0.378" stop-color="#fead04"/>
      <stop offset="0.512" stop-color="#fda80b"/>
      <stop offset="0.607" stop-color="#fba017"/>
      <stop offset="0.685" stop-color="#f89528"/>
      <stop offset="0.751" stop-color="#f5853e"/>
      <stop offset="0.81" stop-color="#f07259"/>
      <stop offset="0.863" stop-color="#eb5c7a"/>
      <stop offset="0.912" stop-color="#e5429f"/>
      <stop offset="0.956" stop-color="#de24c9"/>
      <stop offset="0.996" stop-color="#d605f7"/>
      <stop offset="1" stop-color="#d602fc"/>
    </linearGradient>
    <linearGradient id="linear-gradient-7" y1="0.5" x2="1" y2="0.5" gradientUnits="objectBoundingBox">
      <stop offset="0.005" stop-color="#ec5f6f"/>
      <stop offset="0.054" stop-color="#ef6b5e"/>
      <stop offset="0.137" stop-color="#f37c48"/>
      <stop offset="0.235" stop-color="#f68937"/>
      <stop offset="0.357" stop-color="#f8922b"/>
      <stop offset="0.527" stop-color="#f99724"/>
      <stop offset="1" stop-color="#fa9923"/>
    </linearGradient>
    <linearGradient id="linear-gradient-19" y1="0.5" x2="1" y2="0.5" gradientUnits="objectBoundingBox">
      <stop offset="0" stop-color="#d3d0ff"/>
      <stop offset="0.999" stop-color="#f1f9fe"/>
    </linearGradient>
    <linearGradient id="linear-gradient-20" x1="1.063" y1="0.365" x2="0.091" y2="0.606" xlink:href="#linear-gradient"/>
    <linearGradient id="linear-gradient-21" y1="0.5" x2="1" y2="0.5" gradientUnits="objectBoundingBox">
      <stop offset="0" stop-color="#a2ed94"/>
      <stop offset="1" stop-color="#69c7b3"/>
    </linearGradient>
    <linearGradient id="linear-gradient-22" y1="0.5" x2="1" y2="0.5" gradientUnits="objectBoundingBox">
      <stop offset="0.001" stop-color="#febf00"/>
      <stop offset="0.984" stop-color="#ffdf00"/>
    </linearGradient>
    <linearGradient id="linear-gradient-23" y1="0.5" x2="1" y2="0.5" gradientUnits="objectBoundingBox">
      <stop offset="0" stop-color="#3393eb"/>
      <stop offset="0.998" stop-color="#37bedf"/>
    </linearGradient>
    <linearGradient id="linear-gradient-24" y1="0.5" x2="1" y2="0.5" gradientUnits="objectBoundingBox">
      <stop offset="0" stop-color="#4eb1ed"/>
      <stop offset="0.186" stop-color="#48a8ec"/>
      <stop offset="0.487" stop-color="#3a90ea"/>
      <stop offset="0.863" stop-color="#2269e8"/>
      <stop offset="1" stop-color="#195ae7"/>
    </linearGradient>
    <linearGradient id="linear-gradient-34" x1="0.765" y1="4.919" x2="0.235" y2="-3.919" xlink:href="#linear-gradient-24"/>
  </defs>
  <g id="Group_8430" data-name="Group 8430" transform="translate(-706.977 -198.314)">
    <path id="Path_16159" data-name="Path 16159" d="M999.277,1140.538c215.606,0,401.819-1.31,401.819,2.247s-196.854,23.981-412.46,23.981-258.756-22.673-258.756-26.229,53.79,0,269.4,0" transform="translate(-14.398 -463.453)" fill="#ebf5ff" fill-rule="evenodd"/>
    <g id="Group_8428" data-name="Group 8428" transform="translate(571.21 198.314)">
      <g id="Group_8388" data-name="Group 8388" transform="translate(267.648 17.712)">
        <path id="Path_16160" data-name="Path 16160" d="M1273.285,441.553h-2.855v20.609h273.2V566.211h2.855v-106.9h-273.2Z" transform="translate(-1183.659 -335.973)" fill="#fff"/>
        <rect id="Rectangle_2100" data-name="Rectangle 2100" width="2.855" height="44.539" transform="translate(78.899 105.58)" fill="#fff"/>
        <rect id="Rectangle_2101" data-name="Rectangle 2101" width="2.855" height="71.649" transform="translate(0 78.662)" fill="#fff"/>
        <path id="Path_16161" data-name="Path 16161" d="M1259.358,233.258l2.254,2.849h332.281V462.672h2.855V233.258Z" transform="translate(-1178.199 -233.258)" fill="#fff"/>
      </g>
      <g id="Group_8399" data-name="Group 8399" transform="translate(135.767 165.433)">
        <g id="Group_8389" data-name="Group 8389">
          <rect id="Rectangle_2102" data-name="Rectangle 2102" width="406.857" height="281.76" rx="17.688" fill="#cddcfb"/>
          <path id="Path_16162" data-name="Path 16162" d="M1028.338,1112.061a3.449,3.449,0,0,0-1.466.327l-17.3,8.134a3.445,3.445,0,0,0,1.466,6.563h229.108a3.445,3.445,0,0,0,1.481-6.556l-17.092-8.134a3.439,3.439,0,0,0-1.48-.334H1153.9v-.039h-56.62v.039Z" transform="translate(-922.166 -814.316)" fill="#363868"/>
          <rect id="Rectangle_2103" data-name="Rectangle 2103" width="394.554" height="234.909" rx="2.968" transform="translate(6.152 7.152)" fill="url(#linear-gradient)"/>
          <rect id="Rectangle_2104" data-name="Rectangle 2104" width="88.336" height="15.926" transform="translate(159.26 281.78)" fill="#afc0dd"/>
          <path id="Path_16163" data-name="Path 16163" d="M1028.338,1112.061a3.449,3.449,0,0,0-1.466.327l-17.3,8.134a3.445,3.445,0,0,0,1.466,6.563h229.108a3.445,3.445,0,0,0,1.481-6.556l-17.092-8.134a3.439,3.439,0,0,0-1.48-.334H1153.9v-.039h-56.62v.039Z" transform="translate(-922.166 -814.316)" fill="#5479af"/>
        </g>
        <g id="Group_8398" data-name="Group 8398" transform="translate(16.43 30.196)">
          <g id="Group_8390" data-name="Group 8390" transform="translate(21.05 2.822)">
            <path id="Path_16164" data-name="Path 16164" d="M1146,589.831H915.019c-1.114,0-2.017,1.23-2.017,2.747v.969c0,1.517.9,2.747,2.017,2.747H1146c1.114,0,2.017-1.23,2.017-2.747v-.969C1148.012,591.061,1147.109,589.831,1146,589.831Z" transform="translate(-913.002 -589.831)" fill="#fff"/>
            <path id="Path_16165" data-name="Path 16165" d="M1146,618.984H915.019c-1.114,0-2.017,1.23-2.017,2.747v.969c0,1.517.9,2.747,2.017,2.747H1146c1.114,0,2.017-1.23,2.017-2.747v-.969C1148.012,620.214,1147.109,618.984,1146,618.984Z" transform="translate(-913.002 -604.207)" fill="#fff"/>
            <path id="Path_16166" data-name="Path 16166" d="M1089.193,648.137H915.019c-1.114,0-2.017,1.23-2.017,2.747v.969c0,1.517.9,2.747,2.017,2.747h174.174c1.114,0,2.017-1.23,2.017-2.747v-.969C1091.21,649.367,1090.306,648.137,1089.193,648.137Z" transform="translate(-913.002 -618.583)" fill="#fff"/>
          </g>
          <g id="Group_8397" data-name="Group 8397">
            <g id="Group_8392" data-name="Group 8392">
              <ellipse id="Ellipse_1607" data-name="Ellipse 1607" cx="5.498" cy="5.391" rx="5.498" ry="5.391" fill="#fff"/>
              <g id="Group_8391" data-name="Group 8391" transform="translate(1.409 2.4)">
                <path id="Path_16167" data-name="Path 16167" d="M876.98,594.659a.234.234,0,0,1-.321-.006l-2.407-2.359.746-.731,1.686,1.653a.236.236,0,0,0,.322.006L881.633,589l.719.758Z" transform="translate(-874.252 -588.998)" fill="url(#linear-gradient)"/>
              </g>
            </g>
            <g id="Group_8394" data-name="Group 8394" transform="translate(0 14.579)">
              <ellipse id="Ellipse_1608" data-name="Ellipse 1608" cx="5.498" cy="5.391" rx="5.498" ry="5.391" fill="#fff"/>
              <g id="Group_8393" data-name="Group 8393" transform="translate(1.409 2.4)">
                <path id="Path_16168" data-name="Path 16168" d="M876.98,623.421a.234.234,0,0,1-.321-.006l-2.407-2.359.746-.731,1.686,1.653a.235.235,0,0,0,.322.006l4.627-4.225.719.758Z" transform="translate(-874.252 -617.76)" fill="url(#linear-gradient)"/>
              </g>
            </g>
            <g id="Group_8396" data-name="Group 8396" transform="translate(0 29.158)">
              <ellipse id="Ellipse_1609" data-name="Ellipse 1609" cx="5.498" cy="5.391" rx="5.498" ry="5.391" fill="#fff"/>
              <g id="Group_8395" data-name="Group 8395" transform="translate(1.409 2.4)">
                <path id="Path_16169" data-name="Path 16169" d="M876.98,652.184a.235.235,0,0,1-.321-.006l-2.407-2.359.746-.731,1.686,1.653a.235.235,0,0,0,.322.006l4.627-4.224.719.758Z" transform="translate(-874.252 -646.523)" fill="url(#linear-gradient)"/>
              </g>
            </g>
          </g>
        </g>
      </g>
      <path id="Path_16170" data-name="Path 16170" d="M1072.708,295.429h17.431c.177,0,.353-.008.529-.012.228.008.462.012.708.012h40.072a24.279,24.279,0,0,0,24.279-24.279h0a24.283,24.283,0,0,0-18.7-23.628c0-.217.015-.432.015-.65a48.56,48.56,0,0,0-94.782-14.882,35.2,35.2,0,1,0-35.653,60.25,25.1,25.1,0,0,0,12.276,3.19h53.831Z" transform="translate(-775.772 -198.314)" fill="url(#linear-gradient-5)"/>
      <path id="Path_16171" data-name="Path 16171" d="M1203.332,354.475h16.356c.166,0,.331-.008.5-.011.214.007.434.011.665.011h37.6a22.782,22.782,0,0,0,22.782-22.782h0a22.786,22.786,0,0,0-17.552-22.171c0-.2.014-.405.014-.61a45.566,45.566,0,0,0-88.939-13.965,33.03,33.03,0,1,0-33.456,56.535,23.548,23.548,0,0,0,11.519,2.994h50.512Z" transform="translate(-842.821 -230.383)" fill="url(#linear-gradient)"/>
      <g id="Group_8415" data-name="Group 8415" transform="translate(556.658 238.239)">
        <g id="Group_8404" data-name="Group 8404">
          <path id="Path_16172" data-name="Path 16172" d="M1674.486,742.891h177.156a5.067,5.067,0,0,0,5.067-5.067V674.882a6.556,6.556,0,0,0-6.556-6.556H1675.975a6.556,6.556,0,0,0-6.556,6.556v62.942A5.067,5.067,0,0,0,1674.486,742.891Z" transform="translate(-1669.419 -668.326)" fill="url(#linear-gradient-7)"/>
          <g id="Group_8403" data-name="Group 8403" transform="translate(8.913 7.835)">
            <g id="Group_8401" data-name="Group 8401">
              <g id="Group_8400" data-name="Group 8400">
                <path id="Path_16173" data-name="Path 16173" d="M1745.52,683.784h137.135a2.667,2.667,0,0,1,2.668,2.668v17.915a2.668,2.668,0,0,1-2.668,2.668H1745.52Z" transform="translate(-1715.859 -683.784)" fill="#fff"/>
                <path id="Path_16174" data-name="Path 16174" d="M1689.671,683.784h21.4v23.251h-21.4a2.668,2.668,0,0,1-2.668-2.668V686.452A2.667,2.667,0,0,1,1689.671,683.784Z" transform="translate(-1687.003 -683.784)" fill="#fff"/>
              </g>
            </g>
            <g id="Group_8402" data-name="Group 8402" transform="translate(135.602 6.326)">
              <rect id="Rectangle_2105" data-name="Rectangle 2105" width="6.915" height="6.754" transform="translate(20.953)" fill="url(#linear-gradient-7)"/>
              <rect id="Rectangle_2106" data-name="Rectangle 2106" width="6.915" height="6.754" transform="translate(10.476)" fill="url(#linear-gradient-7)"/>
              <rect id="Rectangle_2107" data-name="Rectangle 2107" width="6.915" height="6.754" fill="url(#linear-gradient-7)"/>
            </g>
          </g>
        </g>
        <g id="Group_8409" data-name="Group 8409" transform="translate(0 78.994)">
          <path id="Path_16175" data-name="Path 16175" d="M1674.486,898.735h177.156a5.067,5.067,0,0,0,5.067-5.067V830.726a6.556,6.556,0,0,0-6.556-6.556H1675.975a6.556,6.556,0,0,0-6.556,6.556v62.942A5.067,5.067,0,0,0,1674.486,898.735Z" transform="translate(-1669.419 -824.17)" fill="url(#linear-gradient-7)"/>
          <g id="Group_8408" data-name="Group 8408" transform="translate(8.913 7.835)">
            <g id="Group_8406" data-name="Group 8406">
              <g id="Group_8405" data-name="Group 8405">
                <path id="Path_16176" data-name="Path 16176" d="M1745.52,839.628h137.135a2.667,2.667,0,0,1,2.668,2.668v17.915a2.668,2.668,0,0,1-2.668,2.668H1745.52Z" transform="translate(-1715.859 -839.628)" fill="#fff"/>
                <path id="Path_16177" data-name="Path 16177" d="M1689.671,839.628h21.4v23.251h-21.4a2.668,2.668,0,0,1-2.668-2.668V842.3A2.667,2.667,0,0,1,1689.671,839.628Z" transform="translate(-1687.003 -839.628)" fill="#fff"/>
              </g>
            </g>
            <g id="Group_8407" data-name="Group 8407" transform="translate(135.602 6.326)">
              <rect id="Rectangle_2108" data-name="Rectangle 2108" width="6.915" height="6.754" transform="translate(20.953)" fill="url(#linear-gradient-7)"/>
              <rect id="Rectangle_2109" data-name="Rectangle 2109" width="6.915" height="6.754" transform="translate(10.476)" fill="url(#linear-gradient-7)"/>
              <rect id="Rectangle_2110" data-name="Rectangle 2110" width="6.915" height="6.754" fill="url(#linear-gradient-7)"/>
            </g>
          </g>
        </g>
        <g id="Group_8414" data-name="Group 8414" transform="translate(0 157.988)">
          <path id="Path_16178" data-name="Path 16178" d="M1674.486,1054.579h177.156a5.067,5.067,0,0,0,5.067-5.067V986.57a6.556,6.556,0,0,0-6.556-6.556H1675.975a6.556,6.556,0,0,0-6.556,6.556v62.942A5.067,5.067,0,0,0,1674.486,1054.579Z" transform="translate(-1669.419 -980.014)" fill="url(#linear-gradient-7)"/>
          <g id="Group_8413" data-name="Group 8413" transform="translate(8.913 7.835)">
            <g id="Group_8411" data-name="Group 8411">
              <g id="Group_8410" data-name="Group 8410">
                <path id="Path_16179" data-name="Path 16179" d="M1745.52,995.472h137.135a2.668,2.668,0,0,1,2.668,2.668v17.915a2.668,2.668,0,0,1-2.668,2.668H1745.52Z" transform="translate(-1715.859 -995.472)" fill="#fff"/>
                <path id="Path_16180" data-name="Path 16180" d="M1689.671,995.472h21.4v23.251h-21.4a2.668,2.668,0,0,1-2.668-2.668V998.14A2.667,2.667,0,0,1,1689.671,995.472Z" transform="translate(-1687.003 -995.472)" fill="#fff"/>
              </g>
            </g>
            <g id="Group_8412" data-name="Group 8412" transform="translate(135.602 6.326)">
              <rect id="Rectangle_2111" data-name="Rectangle 2111" width="6.915" height="6.754" transform="translate(20.953)" fill="url(#linear-gradient-7)"/>
              <rect id="Rectangle_2112" data-name="Rectangle 2112" width="6.915" height="6.754" transform="translate(10.476)" fill="url(#linear-gradient-7)"/>
              <rect id="Rectangle_2113" data-name="Rectangle 2113" width="6.915" height="6.754" fill="url(#linear-gradient-7)"/>
            </g>
          </g>
        </g>
        <rect id="Rectangle_2114" data-name="Rectangle 2114" width="19.046" height="7.41" transform="translate(13.936 232.553)" fill="#2c325e"/>
        <rect id="Rectangle_2115" data-name="Rectangle 2115" width="19.046" height="7.41" transform="translate(152.383 232.553)" fill="#2c325e"/>
      </g>
      <g id="Group_8419" data-name="Group 8419" transform="translate(157.208 251.346)">
        <g id="Group_8418" data-name="Group 8418">
          <g id="Group_8416" data-name="Group 8416" transform="translate(0 0.029)" opacity="0.3" style="mix-blend-mode: multiply;isolation: isolate">
            <path id="Path_16181" data-name="Path 16181" d="M1102.028,712.3H901.581a8.131,8.131,0,0,0-8.131,8.131V843.7a7.431,7.431,0,0,0,7.431,7.431h201.846a7.431,7.431,0,0,0,7.431-7.431V720.434A8.131,8.131,0,0,0,1102.028,712.3Z" transform="translate(-887.321 -703.148)" fill="#fff"/>
            <path id="Path_16182" data-name="Path 16182" d="M1101.98,712.232H901.533a8.131,8.131,0,0,0-8.13,8.131V843.63a7.431,7.431,0,0,0,7.431,7.431H1102.68a7.431,7.431,0,0,0,7.431-7.431V720.363A8.131,8.131,0,0,0,1101.98,712.232Z" transform="translate(-887.298 -703.113)" fill="#fefefe"/>
            <path id="Path_16183" data-name="Path 16183" d="M1101.933,712.162H901.486a8.131,8.131,0,0,0-8.131,8.13V843.559a7.431,7.431,0,0,0,7.431,7.431h201.846a7.43,7.43,0,0,0,7.431-7.431V720.292A8.13,8.13,0,0,0,1101.933,712.162Z" transform="translate(-887.274 -703.078)" fill="#fdfdfd"/>
            <path id="Path_16184" data-name="Path 16184" d="M1101.886,712.091H901.438a8.13,8.13,0,0,0-8.13,8.13V843.488a7.431,7.431,0,0,0,7.431,7.431h201.846a7.431,7.431,0,0,0,7.431-7.431V720.221A8.13,8.13,0,0,0,1101.886,712.091Z" transform="translate(-887.251 -703.043)" fill="#fcfcfc"/>
            <path id="Path_16185" data-name="Path 16185" d="M1101.838,712.02H901.391a8.13,8.13,0,0,0-8.13,8.13V843.417a7.43,7.43,0,0,0,7.431,7.431h201.846a7.431,7.431,0,0,0,7.431-7.431V720.15A8.13,8.13,0,0,0,1101.838,712.02Z" transform="translate(-887.228 -703.008)" fill="#fbfbfb"/>
            <path id="Path_16186" data-name="Path 16186" d="M1101.791,711.949H901.344a8.131,8.131,0,0,0-8.131,8.131V843.347a7.431,7.431,0,0,0,7.431,7.431H1102.49a7.431,7.431,0,0,0,7.431-7.431V720.08A8.131,8.131,0,0,0,1101.791,711.949Z" transform="translate(-887.204 -702.973)" fill="#fafafa"/>
            <path id="Path_16187" data-name="Path 16187" d="M1101.743,711.878H901.3a8.131,8.131,0,0,0-8.13,8.131V843.276a7.431,7.431,0,0,0,7.431,7.431h201.846a7.431,7.431,0,0,0,7.431-7.431V720.009A8.131,8.131,0,0,0,1101.743,711.878Z" transform="translate(-887.181 -702.938)" fill="#f9f9f9"/>
            <path id="Path_16188" data-name="Path 16188" d="M1101.7,711.807H901.249a8.131,8.131,0,0,0-8.131,8.131V843.2a7.431,7.431,0,0,0,7.431,7.431H1102.4a7.431,7.431,0,0,0,7.431-7.431V719.938A8.131,8.131,0,0,0,1101.7,711.807Z" transform="translate(-887.158 -702.903)" fill="#f8f8f8"/>
            <path id="Path_16189" data-name="Path 16189" d="M1101.649,711.737H901.2a8.13,8.13,0,0,0-8.13,8.13V843.134a7.43,7.43,0,0,0,7.431,7.431h201.846a7.431,7.431,0,0,0,7.431-7.431V719.867A8.13,8.13,0,0,0,1101.649,711.737Z" transform="translate(-887.134 -702.869)" fill="#f7f7f7"/>
            <path id="Path_16190" data-name="Path 16190" d="M1101.6,711.666H901.154a8.13,8.13,0,0,0-8.13,8.13V843.063a7.43,7.43,0,0,0,7.431,7.431H1102.3a7.43,7.43,0,0,0,7.43-7.431V719.8A8.13,8.13,0,0,0,1101.6,711.666Z" transform="translate(-887.111 -702.834)" fill="#f6f6f6"/>
            <path id="Path_16191" data-name="Path 16191" d="M1101.554,711.595H901.107a8.131,8.131,0,0,0-8.131,8.13V842.992a7.431,7.431,0,0,0,7.431,7.431h201.846a7.431,7.431,0,0,0,7.431-7.431V719.725A8.13,8.13,0,0,0,1101.554,711.595Z" transform="translate(-887.088 -702.799)" fill="#f5f5f5"/>
            <path id="Path_16192" data-name="Path 16192" d="M1101.506,711.524H901.059a8.131,8.131,0,0,0-8.13,8.131V842.922a7.431,7.431,0,0,0,7.431,7.431h201.846a7.431,7.431,0,0,0,7.431-7.431V719.655A8.131,8.131,0,0,0,1101.506,711.524Z" transform="translate(-887.064 -702.764)" fill="#f4f4f4"/>
            <path id="Path_16193" data-name="Path 16193" d="M1101.459,711.453H901.012a8.131,8.131,0,0,0-8.131,8.131V842.851a7.431,7.431,0,0,0,7.431,7.431h201.846a7.431,7.431,0,0,0,7.431-7.431V719.584A8.131,8.131,0,0,0,1101.459,711.453Z" transform="translate(-887.041 -702.729)" fill="#f3f3f3"/>
            <path id="Path_16194" data-name="Path 16194" d="M1101.411,711.382H900.964a8.131,8.131,0,0,0-8.13,8.131V842.78a7.431,7.431,0,0,0,7.431,7.431h201.846a7.431,7.431,0,0,0,7.431-7.431V719.513A8.131,8.131,0,0,0,1101.411,711.382Z" transform="translate(-887.018 -702.694)" fill="#f2f2f2"/>
            <path id="Path_16195" data-name="Path 16195" d="M1101.364,711.312H900.917a8.131,8.131,0,0,0-8.131,8.13V842.709a7.431,7.431,0,0,0,7.431,7.431h201.846a7.431,7.431,0,0,0,7.431-7.431V719.442A8.13,8.13,0,0,0,1101.364,711.312Z" transform="translate(-886.994 -702.659)" fill="#f1f1f1"/>
            <path id="Path_16196" data-name="Path 16196" d="M1101.317,711.241H900.869a8.13,8.13,0,0,0-8.13,8.13V842.638a7.431,7.431,0,0,0,7.431,7.431h201.846a7.431,7.431,0,0,0,7.431-7.431V719.371A8.13,8.13,0,0,0,1101.317,711.241Z" transform="translate(-886.971 -702.624)" fill="#f0f0f0"/>
            <path id="Path_16197" data-name="Path 16197" d="M1101.269,711.17H900.822a8.13,8.13,0,0,0-8.13,8.13V842.568A7.431,7.431,0,0,0,900.123,850h201.846a7.431,7.431,0,0,0,7.431-7.431V719.3A8.131,8.131,0,0,0,1101.269,711.17Z" transform="translate(-886.948 -702.589)" fill="#efefef"/>
            <path id="Path_16198" data-name="Path 16198" d="M1101.222,711.1H900.775a8.131,8.131,0,0,0-8.131,8.131V842.5a7.431,7.431,0,0,0,7.431,7.431h201.846a7.431,7.431,0,0,0,7.431-7.431V719.23A8.131,8.131,0,0,0,1101.222,711.1Z" transform="translate(-886.924 -702.554)" fill="#eee"/>
            <path id="Path_16199" data-name="Path 16199" d="M1101.174,711.028H900.727a8.131,8.131,0,0,0-8.13,8.131V842.426a7.431,7.431,0,0,0,7.431,7.431h201.846a7.431,7.431,0,0,0,7.431-7.431V719.159A8.131,8.131,0,0,0,1101.174,711.028Z" transform="translate(-886.901 -702.519)" fill="#ededed"/>
            <path id="Path_16200" data-name="Path 16200" d="M1101.127,710.957H900.68a8.131,8.131,0,0,0-8.131,8.131V842.355a7.431,7.431,0,0,0,7.431,7.431h201.846a7.431,7.431,0,0,0,7.431-7.431V719.088A8.131,8.131,0,0,0,1101.127,710.957Z" transform="translate(-886.877 -702.484)" fill="#ececec"/>
            <path id="Path_16201" data-name="Path 16201" d="M1101.08,710.887H900.632a8.13,8.13,0,0,0-8.13,8.13V842.284a7.431,7.431,0,0,0,7.431,7.431h201.846a7.431,7.431,0,0,0,7.431-7.431V719.017A8.13,8.13,0,0,0,1101.08,710.887Z" transform="translate(-886.854 -702.45)" fill="#ebebeb"/>
            <path id="Path_16202" data-name="Path 16202" d="M1101.032,710.816H900.585a8.13,8.13,0,0,0-8.13,8.13V842.213a7.43,7.43,0,0,0,7.431,7.431h201.846a7.43,7.43,0,0,0,7.43-7.431V718.946A8.13,8.13,0,0,0,1101.032,710.816Z" transform="translate(-886.831 -702.414)" fill="#eaeaea"/>
            <path id="Path_16203" data-name="Path 16203" d="M1100.985,710.745H900.538a8.131,8.131,0,0,0-8.131,8.13V842.142a7.431,7.431,0,0,0,7.431,7.431h201.846a7.431,7.431,0,0,0,7.431-7.431V718.875A8.13,8.13,0,0,0,1100.985,710.745Z" transform="translate(-886.807 -702.38)" fill="#e9e9e9"/>
            <path id="Path_16204" data-name="Path 16204" d="M1100.937,710.674H900.49a8.131,8.131,0,0,0-8.13,8.131V842.072a7.431,7.431,0,0,0,7.431,7.431h201.846a7.431,7.431,0,0,0,7.431-7.431V718.8A8.131,8.131,0,0,0,1100.937,710.674Z" transform="translate(-886.784 -702.344)" fill="#e8e8e8"/>
            <path id="Path_16205" data-name="Path 16205" d="M1100.89,710.6H900.443a8.131,8.131,0,0,0-8.131,8.131V842a7.431,7.431,0,0,0,7.431,7.431h201.846A7.431,7.431,0,0,0,1109.02,842V718.734A8.131,8.131,0,0,0,1100.89,710.6Z" transform="translate(-886.76 -702.31)" fill="#e7e7e7"/>
            <path id="Path_16206" data-name="Path 16206" d="M1100.842,710.532H900.4a8.131,8.131,0,0,0-8.13,8.131V841.93a7.431,7.431,0,0,0,7.431,7.431h201.846a7.431,7.431,0,0,0,7.431-7.431V718.663A8.131,8.131,0,0,0,1100.842,710.532Z" transform="translate(-886.737 -702.274)" fill="#e6e6e6"/>
            <path id="Path_16207" data-name="Path 16207" d="M1100.795,710.462H900.348a8.131,8.131,0,0,0-8.131,8.13V841.859a7.431,7.431,0,0,0,7.431,7.431h201.846a7.431,7.431,0,0,0,7.431-7.431V718.592A8.13,8.13,0,0,0,1100.795,710.462Z" transform="translate(-886.713 -702.24)" fill="#e5e5e5"/>
            <path id="Path_16208" data-name="Path 16208" d="M1100.748,710.391H900.3a8.13,8.13,0,0,0-8.13,8.13V841.788a7.431,7.431,0,0,0,7.431,7.431h201.846a7.431,7.431,0,0,0,7.431-7.431V718.521A8.13,8.13,0,0,0,1100.748,710.391Z" transform="translate(-886.69 -702.205)" fill="#e4e4e4"/>
            <path id="Path_16209" data-name="Path 16209" d="M1100.7,710.32H900.253a8.13,8.13,0,0,0-8.13,8.13V841.717a7.43,7.43,0,0,0,7.431,7.431H1101.4a7.43,7.43,0,0,0,7.43-7.431V718.45A8.13,8.13,0,0,0,1100.7,710.32Z" transform="translate(-886.667 -702.17)" fill="#e3e3e3"/>
            <path id="Path_16210" data-name="Path 16210" d="M1100.653,710.249H900.206a8.131,8.131,0,0,0-8.131,8.131V841.647a7.431,7.431,0,0,0,7.431,7.431h201.846a7.431,7.431,0,0,0,7.431-7.431V718.38A8.131,8.131,0,0,0,1100.653,710.249Z" transform="translate(-886.643 -702.135)" fill="#e2e2e2"/>
            <path id="Path_16211" data-name="Path 16211" d="M1100.605,710.178H900.158a8.13,8.13,0,0,0-8.13,8.131V841.576a7.431,7.431,0,0,0,7.431,7.431h201.846a7.431,7.431,0,0,0,7.431-7.431V718.309A8.131,8.131,0,0,0,1100.605,710.178Z" transform="translate(-886.62 -702.1)" fill="#e1e1e1"/>
            <path id="Path_16212" data-name="Path 16212" d="M1100.558,710.107H900.111a8.131,8.131,0,0,0-8.131,8.131V841.5a7.431,7.431,0,0,0,7.431,7.431h201.846a7.431,7.431,0,0,0,7.431-7.431V718.238A8.13,8.13,0,0,0,1100.558,710.107Z" transform="translate(-886.596 -702.065)" fill="#e0e0e0"/>
            <path id="Path_16213" data-name="Path 16213" d="M1100.511,710.037H900.063a8.13,8.13,0,0,0-8.13,8.13V841.434a7.431,7.431,0,0,0,7.431,7.431H1101.21a7.431,7.431,0,0,0,7.431-7.431V718.167A8.13,8.13,0,0,0,1100.511,710.037Z" transform="translate(-886.573 -702.03)" fill="#dfdfdf"/>
            <path id="Path_16214" data-name="Path 16214" d="M1100.463,709.966H900.016a8.13,8.13,0,0,0-8.13,8.13V841.363a7.431,7.431,0,0,0,7.431,7.431h201.846a7.43,7.43,0,0,0,7.43-7.431V718.1A8.13,8.13,0,0,0,1100.463,709.966Z" transform="translate(-886.55 -701.995)" fill="#dedede"/>
            <path id="Path_16215" data-name="Path 16215" d="M1100.416,709.9H899.969a8.131,8.131,0,0,0-8.131,8.13V841.292a7.431,7.431,0,0,0,7.431,7.431h201.846a7.431,7.431,0,0,0,7.431-7.431V718.025A8.13,8.13,0,0,0,1100.416,709.9Z" transform="translate(-886.526 -701.96)" fill="#ddd"/>
            <path id="Path_16216" data-name="Path 16216" d="M1100.368,709.824H899.921a8.131,8.131,0,0,0-8.13,8.131V841.222a7.431,7.431,0,0,0,7.431,7.431h201.846a7.431,7.431,0,0,0,7.431-7.431V717.955A8.131,8.131,0,0,0,1100.368,709.824Z" transform="translate(-886.503 -701.925)" fill="#dcdcdc"/>
            <path id="Path_16217" data-name="Path 16217" d="M1100.321,709.753H899.874a8.131,8.131,0,0,0-8.131,8.131V841.151a7.431,7.431,0,0,0,7.431,7.431H1101.02a7.431,7.431,0,0,0,7.431-7.431V717.884A8.131,8.131,0,0,0,1100.321,709.753Z" transform="translate(-886.48 -701.89)" fill="#dbdbdb"/>
            <path id="Path_16218" data-name="Path 16218" d="M1100.273,709.682H899.826a8.131,8.131,0,0,0-8.13,8.131V841.08a7.431,7.431,0,0,0,7.431,7.431h201.846a7.431,7.431,0,0,0,7.431-7.431V717.813A8.131,8.131,0,0,0,1100.273,709.682Z" transform="translate(-886.456 -701.855)" fill="#dadada"/>
            <path id="Path_16219" data-name="Path 16219" d="M1100.226,709.612H899.779a8.131,8.131,0,0,0-8.131,8.13V841.009a7.431,7.431,0,0,0,7.431,7.431h201.846a7.431,7.431,0,0,0,7.431-7.431V717.742A8.13,8.13,0,0,0,1100.226,709.612Z" transform="translate(-886.433 -701.821)" fill="#d9d9d9"/>
            <path id="Path_16220" data-name="Path 16220" d="M1100.179,709.541H899.731a8.13,8.13,0,0,0-8.13,8.13V840.938a7.431,7.431,0,0,0,7.431,7.431h201.846a7.431,7.431,0,0,0,7.431-7.431V717.671A8.13,8.13,0,0,0,1100.179,709.541Z" transform="translate(-886.41 -701.786)" fill="#d8d8d8"/>
            <path id="Path_16221" data-name="Path 16221" d="M1100.131,709.47H899.684a8.13,8.13,0,0,0-8.13,8.13V840.867a7.43,7.43,0,0,0,7.431,7.431h201.846a7.43,7.43,0,0,0,7.43-7.431V717.6A8.13,8.13,0,0,0,1100.131,709.47Z" transform="translate(-886.386 -701.751)" fill="#d7d7d7"/>
            <path id="Path_16222" data-name="Path 16222" d="M1100.084,709.4H899.637a8.131,8.131,0,0,0-8.131,8.131V840.8a7.431,7.431,0,0,0,7.431,7.431h201.846a7.431,7.431,0,0,0,7.431-7.431V717.53A8.131,8.131,0,0,0,1100.084,709.4Z" transform="translate(-886.363 -701.716)" fill="#d6d6d6"/>
            <path id="Path_16223" data-name="Path 16223" d="M1100.036,709.328H899.589a8.131,8.131,0,0,0-8.13,8.131V840.726a7.431,7.431,0,0,0,7.431,7.431h201.846a7.431,7.431,0,0,0,7.431-7.431V717.459A8.131,8.131,0,0,0,1100.036,709.328Z" transform="translate(-886.34 -701.681)" fill="#d5d5d5"/>
            <path id="Path_16224" data-name="Path 16224" d="M1099.989,709.257H899.542a8.131,8.131,0,0,0-8.131,8.131V840.655a7.431,7.431,0,0,0,7.431,7.431h201.846a7.431,7.431,0,0,0,7.431-7.431V717.388A8.131,8.131,0,0,0,1099.989,709.257Z" transform="translate(-886.316 -701.646)" fill="#d4d4d4"/>
            <path id="Path_16225" data-name="Path 16225" d="M1099.942,709.187H899.494a8.13,8.13,0,0,0-8.13,8.13V840.584a7.43,7.43,0,0,0,7.431,7.431h201.846a7.431,7.431,0,0,0,7.431-7.431V717.317A8.13,8.13,0,0,0,1099.942,709.187Z" transform="translate(-886.293 -701.611)" fill="#d3d3d3"/>
            <path id="Path_16226" data-name="Path 16226" d="M1099.894,709.116H899.447a8.131,8.131,0,0,0-8.131,8.13V840.513a7.431,7.431,0,0,0,7.431,7.431h201.846a7.43,7.43,0,0,0,7.43-7.431V717.246A8.13,8.13,0,0,0,1099.894,709.116Z" transform="translate(-886.269 -701.576)" fill="#d2d2d2"/>
            <path id="Path_16227" data-name="Path 16227" d="M1099.847,709.045H899.4a8.13,8.13,0,0,0-8.13,8.13V840.443a7.431,7.431,0,0,0,7.431,7.431h201.846a7.431,7.431,0,0,0,7.431-7.431V717.175A8.13,8.13,0,0,0,1099.847,709.045Z" transform="translate(-886.246 -701.541)" fill="#d1d1d1"/>
            <path id="Path_16228" data-name="Path 16228" d="M1099.8,708.974H899.352a8.131,8.131,0,0,0-8.13,8.131V840.372a7.431,7.431,0,0,0,7.431,7.431H1100.5a7.431,7.431,0,0,0,7.431-7.431V717.1A8.131,8.131,0,0,0,1099.8,708.974Z" transform="translate(-886.223 -701.506)" fill="#d0d0d0"/>
            <path id="Path_16229" data-name="Path 16229" d="M1099.752,708.9H899.3a8.131,8.131,0,0,0-8.131,8.131V840.3a7.431,7.431,0,0,0,7.431,7.431h201.846a7.431,7.431,0,0,0,7.431-7.431V717.034A8.131,8.131,0,0,0,1099.752,708.9Z" transform="translate(-886.199 -701.471)" fill="#cfcfcf"/>
            <path id="Path_16230" data-name="Path 16230" d="M1099.7,708.832H899.257a8.131,8.131,0,0,0-8.13,8.131V840.23a7.431,7.431,0,0,0,7.431,7.431H1100.4a7.431,7.431,0,0,0,7.431-7.431V716.963A8.131,8.131,0,0,0,1099.7,708.832Z" transform="translate(-886.176 -701.436)" fill="#cecece"/>
            <path id="Path_16231" data-name="Path 16231" d="M1099.657,708.762H899.21a8.13,8.13,0,0,0-8.131,8.13V840.159a7.431,7.431,0,0,0,7.431,7.431h201.846a7.431,7.431,0,0,0,7.431-7.431V716.892A8.13,8.13,0,0,0,1099.657,708.762Z" transform="translate(-886.152 -701.402)" fill="#cdcdcd"/>
            <path id="Path_16232" data-name="Path 16232" d="M1099.61,708.691H899.162a8.13,8.13,0,0,0-8.13,8.13V840.088a7.431,7.431,0,0,0,7.431,7.431h201.846a7.431,7.431,0,0,0,7.431-7.431V716.821A8.13,8.13,0,0,0,1099.61,708.691Z" transform="translate(-886.129 -701.367)" fill="#ccc"/>
            <path id="Path_16233" data-name="Path 16233" d="M1099.562,708.62H899.115a8.13,8.13,0,0,0-8.13,8.13V840.017a7.43,7.43,0,0,0,7.431,7.431h201.846a7.43,7.43,0,0,0,7.43-7.431V716.75A8.13,8.13,0,0,0,1099.562,708.62Z" transform="translate(-886.106 -701.332)" fill="#cbcbcb"/>
            <path id="Path_16234" data-name="Path 16234" d="M1099.515,708.549H899.068a8.131,8.131,0,0,0-8.131,8.131V839.947a7.431,7.431,0,0,0,7.431,7.431h201.846a7.431,7.431,0,0,0,7.431-7.431V716.68A8.131,8.131,0,0,0,1099.515,708.549Z" transform="translate(-886.082 -701.297)" fill="#cacaca"/>
            <path id="Path_16235" data-name="Path 16235" d="M1099.467,708.478H899.02a8.131,8.131,0,0,0-8.13,8.131V839.876a7.431,7.431,0,0,0,7.431,7.431h201.846a7.431,7.431,0,0,0,7.431-7.431V716.609A8.131,8.131,0,0,0,1099.467,708.478Z" transform="translate(-886.059 -701.262)" fill="#c9c9c9"/>
            <path id="Path_16236" data-name="Path 16236" d="M1099.42,708.407H898.973a8.131,8.131,0,0,0-8.131,8.131V839.8a7.431,7.431,0,0,0,7.431,7.431h201.846a7.431,7.431,0,0,0,7.431-7.431V716.538A8.131,8.131,0,0,0,1099.42,708.407Z" transform="translate(-886.035 -701.227)" fill="#c8c8c8"/>
            <path id="Path_16237" data-name="Path 16237" d="M1099.373,708.337H898.925a8.13,8.13,0,0,0-8.13,8.13V839.734a7.43,7.43,0,0,0,7.431,7.431h201.846a7.431,7.431,0,0,0,7.431-7.431V716.467A8.13,8.13,0,0,0,1099.373,708.337Z" transform="translate(-886.012 -701.192)" fill="#c7c7c7"/>
            <path id="Path_16238" data-name="Path 16238" d="M1099.325,708.266H898.878a8.131,8.131,0,0,0-8.131,8.13V839.663a7.431,7.431,0,0,0,7.431,7.431h201.846a7.43,7.43,0,0,0,7.43-7.431V716.4A8.13,8.13,0,0,0,1099.325,708.266Z" transform="translate(-885.988 -701.157)" fill="#c6c6c6"/>
            <path id="Path_16239" data-name="Path 16239" d="M1099.278,708.2H898.83a8.13,8.13,0,0,0-8.13,8.13V839.592a7.431,7.431,0,0,0,7.431,7.431h201.846a7.431,7.431,0,0,0,7.431-7.431V716.325A8.13,8.13,0,0,0,1099.278,708.2Z" transform="translate(-885.965 -701.122)" fill="#c5c5c5"/>
            <path id="Path_16240" data-name="Path 16240" d="M1099.23,708.124H898.783a8.13,8.13,0,0,0-8.13,8.131V839.522a7.431,7.431,0,0,0,7.431,7.431H1099.93a7.431,7.431,0,0,0,7.431-7.431V716.255A8.131,8.131,0,0,0,1099.23,708.124Z" transform="translate(-885.942 -701.087)" fill="#c4c4c4"/>
            <path id="Path_16241" data-name="Path 16241" d="M1099.183,708.053H898.736a8.131,8.131,0,0,0-8.131,8.131V839.451a7.431,7.431,0,0,0,7.431,7.431h201.846a7.431,7.431,0,0,0,7.431-7.431V716.184A8.131,8.131,0,0,0,1099.183,708.053Z" transform="translate(-885.918 -701.052)" fill="#c3c3c3"/>
            <path id="Path_16242" data-name="Path 16242" d="M1099.135,707.982H898.688a8.131,8.131,0,0,0-8.13,8.131V839.38a7.431,7.431,0,0,0,7.431,7.431h201.846a7.431,7.431,0,0,0,7.431-7.431V716.113A8.131,8.131,0,0,0,1099.135,707.982Z" transform="translate(-885.895 -701.017)" fill="#c2c2c2"/>
            <path id="Path_16243" data-name="Path 16243" d="M1099.088,707.912H898.641a8.131,8.131,0,0,0-8.131,8.13V839.309a7.431,7.431,0,0,0,7.431,7.431h201.846a7.43,7.43,0,0,0,7.431-7.431V716.042A8.13,8.13,0,0,0,1099.088,707.912Z" transform="translate(-885.872 -700.982)" fill="#c1c1c1"/>
            <path id="Path_16244" data-name="Path 16244" d="M1099.041,707.841H898.593a8.13,8.13,0,0,0-8.13,8.13V839.238a7.431,7.431,0,0,0,7.431,7.431H1099.74a7.431,7.431,0,0,0,7.431-7.431V715.971A8.13,8.13,0,0,0,1099.041,707.841Z" transform="translate(-885.848 -700.947)" fill="silver"/>
            <path id="Path_16245" data-name="Path 16245" d="M1098.993,707.77H898.546a8.13,8.13,0,0,0-8.13,8.13V839.167a7.43,7.43,0,0,0,7.431,7.431h201.846a7.43,7.43,0,0,0,7.43-7.431V715.9A8.13,8.13,0,0,0,1098.993,707.77Z" transform="translate(-885.825 -700.912)" fill="#bfbfbf"/>
            <path id="Path_16246" data-name="Path 16246" d="M1098.946,707.7H898.5a8.131,8.131,0,0,0-8.131,8.13V839.1a7.431,7.431,0,0,0,7.431,7.431h201.846a7.431,7.431,0,0,0,7.431-7.431V715.829A8.131,8.131,0,0,0,1098.946,707.7Z" transform="translate(-885.802 -700.877)" fill="#bebebe"/>
            <path id="Path_16247" data-name="Path 16247" d="M1098.9,707.628H898.451a8.131,8.131,0,0,0-8.13,8.131V839.026a7.431,7.431,0,0,0,7.431,7.431H1099.6a7.431,7.431,0,0,0,7.431-7.431V715.759A8.131,8.131,0,0,0,1098.9,707.628Z" transform="translate(-885.778 -700.842)" fill="#bdbdbd"/>
            <path id="Path_16248" data-name="Path 16248" d="M1098.851,707.557H898.4a8.131,8.131,0,0,0-8.131,8.131V838.955a7.431,7.431,0,0,0,7.431,7.431H1099.55a7.431,7.431,0,0,0,7.431-7.431V715.688A8.131,8.131,0,0,0,1098.851,707.557Z" transform="translate(-885.755 -700.807)" fill="#bcbcbc"/>
            <path id="Path_16249" data-name="Path 16249" d="M1098.8,707.487H898.356a8.13,8.13,0,0,0-8.13,8.13V838.885a7.431,7.431,0,0,0,7.431,7.431H1099.5a7.431,7.431,0,0,0,7.431-7.431V715.617A8.13,8.13,0,0,0,1098.8,707.487Z" transform="translate(-885.732 -700.773)" fill="#bbb"/>
            <path id="Path_16250" data-name="Path 16250" d="M1098.756,707.416H898.309a8.131,8.131,0,0,0-8.131,8.13V838.813a7.431,7.431,0,0,0,7.431,7.431h201.846a7.43,7.43,0,0,0,7.43-7.431V715.546A8.13,8.13,0,0,0,1098.756,707.416Z" transform="translate(-885.708 -700.738)" fill="#bababa"/>
            <path id="Path_16251" data-name="Path 16251" d="M1098.709,707.345H898.261a8.13,8.13,0,0,0-8.13,8.13V838.742a7.431,7.431,0,0,0,7.431,7.431h201.846a7.431,7.431,0,0,0,7.431-7.431V715.475A8.131,8.131,0,0,0,1098.709,707.345Z" transform="translate(-885.685 -700.703)" fill="#b9b9b9"/>
            <path id="Path_16252" data-name="Path 16252" d="M1098.661,707.274H898.214a8.13,8.13,0,0,0-8.13,8.13V838.672a7.431,7.431,0,0,0,7.431,7.431h201.846a7.431,7.431,0,0,0,7.431-7.431V715.4A8.131,8.131,0,0,0,1098.661,707.274Z" transform="translate(-885.661 -700.668)" fill="#b8b8b8"/>
            <path id="Path_16253" data-name="Path 16253" d="M1098.614,707.2H898.167a8.131,8.131,0,0,0-8.131,8.131V838.6a7.431,7.431,0,0,0,7.431,7.431h201.846a7.431,7.431,0,0,0,7.431-7.431V715.334A8.131,8.131,0,0,0,1098.614,707.2Z" transform="translate(-885.638 -700.633)" fill="#b7b7b7"/>
            <path id="Path_16254" data-name="Path 16254" d="M1098.566,707.132H898.119a8.131,8.131,0,0,0-8.13,8.131V838.53a7.431,7.431,0,0,0,7.431,7.431h201.846a7.431,7.431,0,0,0,7.431-7.431V715.263A8.131,8.131,0,0,0,1098.566,707.132Z" transform="translate(-885.615 -700.598)" fill="#b6b6b6"/>
            <path id="Path_16255" data-name="Path 16255" d="M1098.519,707.062H898.072a8.131,8.131,0,0,0-8.131,8.13V838.459a7.431,7.431,0,0,0,7.431,7.431h201.846a7.43,7.43,0,0,0,7.431-7.431V715.192A8.13,8.13,0,0,0,1098.519,707.062Z" transform="translate(-885.591 -700.563)" fill="#b5b5b5"/>
            <path id="Path_16256" data-name="Path 16256" d="M1098.472,706.991H898.024a8.13,8.13,0,0,0-8.13,8.13V838.388a7.431,7.431,0,0,0,7.431,7.431h201.846a7.431,7.431,0,0,0,7.431-7.431V715.121A8.13,8.13,0,0,0,1098.472,706.991Z" transform="translate(-885.568 -700.528)" fill="#b4b4b4"/>
            <path id="Path_16257" data-name="Path 16257" d="M1098.424,706.92H897.977a8.13,8.13,0,0,0-8.13,8.13V838.317a7.43,7.43,0,0,0,7.431,7.431h201.846a7.43,7.43,0,0,0,7.43-7.431V715.05A8.13,8.13,0,0,0,1098.424,706.92Z" transform="translate(-885.545 -700.493)" fill="#b3b3b3"/>
            <path id="Path_16258" data-name="Path 16258" d="M1098.377,706.849H897.93a8.131,8.131,0,0,0-8.131,8.13V838.247a7.431,7.431,0,0,0,7.431,7.431h201.846a7.431,7.431,0,0,0,7.431-7.431V714.979A8.131,8.131,0,0,0,1098.377,706.849Z" transform="translate(-885.521 -700.458)" fill="#b2b2b2"/>
            <path id="Path_16259" data-name="Path 16259" d="M1098.329,706.778H897.882a8.131,8.131,0,0,0-8.13,8.131V838.176a7.431,7.431,0,0,0,7.431,7.431h201.846a7.431,7.431,0,0,0,7.431-7.431V714.909A8.131,8.131,0,0,0,1098.329,706.778Z" transform="translate(-885.498 -700.423)" fill="#b1b1b1"/>
            <path id="Path_16260" data-name="Path 16260" d="M1098.282,706.707H897.835a8.131,8.131,0,0,0-8.131,8.131V838.1a7.431,7.431,0,0,0,7.431,7.431h201.846a7.431,7.431,0,0,0,7.431-7.431V714.838A8.131,8.131,0,0,0,1098.282,706.707Z" transform="translate(-885.474 -700.388)" fill="#b0b0b0"/>
            <path id="Path_16261" data-name="Path 16261" d="M1098.235,706.637H897.787a8.13,8.13,0,0,0-8.13,8.13V838.034a7.431,7.431,0,0,0,7.431,7.431h201.846a7.431,7.431,0,0,0,7.431-7.431V714.767A8.13,8.13,0,0,0,1098.235,706.637Z" transform="translate(-885.451 -700.354)" fill="#afafaf"/>
            <path id="Path_16262" data-name="Path 16262" d="M1098.187,706.566H897.74a8.131,8.131,0,0,0-8.131,8.13V837.963a7.431,7.431,0,0,0,7.431,7.431h201.846a7.431,7.431,0,0,0,7.431-7.431V714.7A8.13,8.13,0,0,0,1098.187,706.566Z" transform="translate(-885.427 -700.319)" fill="#aeaeae"/>
            <path id="Path_16263" data-name="Path 16263" d="M1098.14,706.495H897.692a8.13,8.13,0,0,0-8.13,8.13V837.892a7.431,7.431,0,0,0,7.431,7.431h201.846a7.431,7.431,0,0,0,7.431-7.431V714.625A8.13,8.13,0,0,0,1098.14,706.495Z" transform="translate(-885.404 -700.284)" fill="#adadad"/>
            <path id="Path_16264" data-name="Path 16264" d="M1098.092,706.424H897.645a8.13,8.13,0,0,0-8.13,8.13V837.822a7.431,7.431,0,0,0,7.431,7.431h201.846a7.431,7.431,0,0,0,7.431-7.431V714.554A8.131,8.131,0,0,0,1098.092,706.424Z" transform="translate(-885.381 -700.249)" fill="#acacac"/>
            <path id="Path_16265" data-name="Path 16265" d="M1098.045,706.353H897.6a8.131,8.131,0,0,0-8.131,8.131V837.751a7.431,7.431,0,0,0,7.431,7.431h201.846a7.431,7.431,0,0,0,7.431-7.431V714.484A8.131,8.131,0,0,0,1098.045,706.353Z" transform="translate(-885.357 -700.214)" fill="#ababab"/>
            <path id="Path_16266" data-name="Path 16266" d="M1098,706.282H897.55a8.131,8.131,0,0,0-8.13,8.131V837.68a7.431,7.431,0,0,0,7.431,7.431H1098.7a7.431,7.431,0,0,0,7.431-7.431V714.413A8.131,8.131,0,0,0,1098,706.282Z" transform="translate(-885.334 -700.179)" fill="#aaa"/>
            <path id="Path_16267" data-name="Path 16267" d="M1097.95,706.212H897.5a8.131,8.131,0,0,0-8.131,8.13V837.609a7.431,7.431,0,0,0,7.431,7.431h201.846a7.431,7.431,0,0,0,7.431-7.431V714.342A8.13,8.13,0,0,0,1097.95,706.212Z" transform="translate(-885.31 -700.144)" fill="#a9a9a9"/>
            <path id="Path_16268" data-name="Path 16268" d="M1097.9,706.141H897.455a8.13,8.13,0,0,0-8.13,8.13V837.538a7.431,7.431,0,0,0,7.431,7.431H1098.6a7.431,7.431,0,0,0,7.431-7.431V714.271A8.13,8.13,0,0,0,1097.9,706.141Z" transform="translate(-885.287 -700.109)" fill="#a8a8a8"/>
            <path id="Path_16269" data-name="Path 16269" d="M1097.855,706.07H897.408a8.13,8.13,0,0,0-8.13,8.13V837.467a7.43,7.43,0,0,0,7.431,7.431h201.846a7.43,7.43,0,0,0,7.43-7.431V714.2A8.13,8.13,0,0,0,1097.855,706.07Z" transform="translate(-885.264 -700.074)" fill="#a7a7a7"/>
            <path id="Path_16270" data-name="Path 16270" d="M1097.808,706H897.361a8.131,8.131,0,0,0-8.131,8.13V837.4a7.431,7.431,0,0,0,7.431,7.431h201.846a7.431,7.431,0,0,0,7.431-7.431V714.129A8.131,8.131,0,0,0,1097.808,706Z" transform="translate(-885.24 -700.039)" fill="#a6a6a6"/>
            <path id="Path_16271" data-name="Path 16271" d="M1097.76,705.928H897.313a8.131,8.131,0,0,0-8.13,8.131V837.326a7.431,7.431,0,0,0,7.431,7.431H1098.46a7.431,7.431,0,0,0,7.431-7.431V714.059A8.131,8.131,0,0,0,1097.76,705.928Z" transform="translate(-885.217 -700.004)" fill="#a5a5a5"/>
            <path id="Path_16272" data-name="Path 16272" d="M1097.713,705.857H897.266a8.131,8.131,0,0,0-8.131,8.131V837.255a7.431,7.431,0,0,0,7.431,7.431h201.846a7.431,7.431,0,0,0,7.431-7.431V713.988A8.131,8.131,0,0,0,1097.713,705.857Z" transform="translate(-885.194 -699.969)" fill="#a4a4a4"/>
            <path id="Path_16273" data-name="Path 16273" d="M1097.666,705.787H897.218a8.13,8.13,0,0,0-8.13,8.13V837.184a7.431,7.431,0,0,0,7.431,7.431h201.846a7.431,7.431,0,0,0,7.431-7.431V713.917A8.13,8.13,0,0,0,1097.666,705.787Z" transform="translate(-885.17 -699.935)" fill="#a3a3a3"/>
            <path id="Path_16274" data-name="Path 16274" d="M1097.618,705.716H897.171a8.131,8.131,0,0,0-8.131,8.13V837.113a7.431,7.431,0,0,0,7.431,7.431h201.846a7.431,7.431,0,0,0,7.431-7.431V713.846A8.13,8.13,0,0,0,1097.618,705.716Z" transform="translate(-885.147 -699.9)" fill="#a2a2a2"/>
            <path id="Path_16275" data-name="Path 16275" d="M1097.571,705.645H897.123a8.13,8.13,0,0,0-8.13,8.13V837.042a7.431,7.431,0,0,0,7.431,7.431H1098.27a7.431,7.431,0,0,0,7.431-7.431V713.775A8.13,8.13,0,0,0,1097.571,705.645Z" transform="translate(-885.123 -699.865)" fill="#a1a1a1"/>
            <path id="Path_16276" data-name="Path 16276" d="M1097.523,705.574H897.076a8.13,8.13,0,0,0-8.13,8.13V836.972a7.431,7.431,0,0,0,7.431,7.431h201.846a7.431,7.431,0,0,0,7.431-7.431V713.7A8.131,8.131,0,0,0,1097.523,705.574Z" transform="translate(-885.1 -699.83)" fill="#a0a0a0"/>
            <path id="Path_16277" data-name="Path 16277" d="M1097.476,705.5H897.029a8.131,8.131,0,0,0-8.131,8.131V836.9a7.431,7.431,0,0,0,7.431,7.431h201.846a7.431,7.431,0,0,0,7.431-7.431V713.634A8.131,8.131,0,0,0,1097.476,705.5Z" transform="translate(-885.077 -699.795)" fill="#9f9f9f"/>
            <path id="Path_16278" data-name="Path 16278" d="M1097.428,705.432H896.981a8.131,8.131,0,0,0-8.13,8.131V836.83a7.431,7.431,0,0,0,7.431,7.431h201.846a7.431,7.431,0,0,0,7.431-7.431V713.563A8.131,8.131,0,0,0,1097.428,705.432Z" transform="translate(-885.053 -699.76)" fill="#9e9e9e"/>
            <path id="Path_16279" data-name="Path 16279" d="M1097.381,705.362H896.934a8.131,8.131,0,0,0-8.131,8.13V836.76a7.431,7.431,0,0,0,7.431,7.431H1098.08a7.43,7.43,0,0,0,7.431-7.431V713.492A8.13,8.13,0,0,0,1097.381,705.362Z" transform="translate(-885.03 -699.725)" fill="#9d9d9d"/>
            <path id="Path_16280" data-name="Path 16280" d="M1097.334,705.291H896.886a8.13,8.13,0,0,0-8.13,8.13V836.688a7.431,7.431,0,0,0,7.431,7.431h201.846a7.431,7.431,0,0,0,7.431-7.431V713.421A8.13,8.13,0,0,0,1097.334,705.291Z" transform="translate(-885.007 -699.69)" fill="#9c9c9c"/>
            <path id="Path_16281" data-name="Path 16281" d="M1097.286,705.22H896.839a8.13,8.13,0,0,0-8.13,8.13V836.617a7.431,7.431,0,0,0,7.431,7.431h201.846a7.43,7.43,0,0,0,7.43-7.431V713.35A8.13,8.13,0,0,0,1097.286,705.22Z" transform="translate(-884.983 -699.655)" fill="#9b9b9b"/>
            <path id="Path_16282" data-name="Path 16282" d="M1097.239,705.149H896.792a8.131,8.131,0,0,0-8.131,8.13V836.547a7.431,7.431,0,0,0,7.431,7.431h201.846a7.431,7.431,0,0,0,7.431-7.431V713.279A8.131,8.131,0,0,0,1097.239,705.149Z" transform="translate(-884.96 -699.62)" fill="#9a9a9a"/>
            <path id="Path_16283" data-name="Path 16283" d="M1097.191,705.078H896.744a8.131,8.131,0,0,0-8.13,8.131V836.476a7.431,7.431,0,0,0,7.431,7.431h201.846a7.431,7.431,0,0,0,7.431-7.431V713.209A8.131,8.131,0,0,0,1097.191,705.078Z" transform="translate(-884.937 -699.585)" fill="#999"/>
            <path id="Path_16284" data-name="Path 16284" d="M1097.144,705.007H896.7a8.131,8.131,0,0,0-8.131,8.131V836.405A7.431,7.431,0,0,0,896,843.836h201.846a7.431,7.431,0,0,0,7.431-7.431V713.138A8.131,8.131,0,0,0,1097.144,705.007Z" transform="translate(-884.913 -699.55)" fill="#989898"/>
            <path id="Path_16285" data-name="Path 16285" d="M1097.1,704.937H896.649a8.13,8.13,0,0,0-8.13,8.13V836.334a7.43,7.43,0,0,0,7.431,7.431H1097.8a7.431,7.431,0,0,0,7.431-7.431V713.067A8.131,8.131,0,0,0,1097.1,704.937Z" transform="translate(-884.89 -699.515)" fill="#979797"/>
            <path id="Path_16286" data-name="Path 16286" d="M1097.049,704.866H896.6a8.131,8.131,0,0,0-8.131,8.13V836.263a7.431,7.431,0,0,0,7.431,7.431h201.846a7.431,7.431,0,0,0,7.431-7.431V713A8.13,8.13,0,0,0,1097.049,704.866Z" transform="translate(-884.866 -699.48)" fill="#969696"/>
            <path id="Path_16287" data-name="Path 16287" d="M1097,704.795H896.554a8.13,8.13,0,0,0-8.13,8.13V836.192a7.431,7.431,0,0,0,7.431,7.431H1097.7a7.431,7.431,0,0,0,7.431-7.431V712.925A8.13,8.13,0,0,0,1097,704.795Z" transform="translate(-884.843 -699.445)" fill="#959595"/>
            <path id="Path_16288" data-name="Path 16288" d="M1096.954,704.724H896.507a8.13,8.13,0,0,0-8.13,8.13V836.122a7.431,7.431,0,0,0,7.431,7.431h201.846a7.431,7.431,0,0,0,7.431-7.431V712.854A8.131,8.131,0,0,0,1096.954,704.724Z" transform="translate(-884.82 -699.41)" fill="#949494"/>
            <path id="Path_16289" data-name="Path 16289" d="M1096.907,704.653H896.46a8.131,8.131,0,0,0-8.131,8.131V836.051a7.431,7.431,0,0,0,7.431,7.431h201.846a7.431,7.431,0,0,0,7.431-7.431V712.784A8.131,8.131,0,0,0,1096.907,704.653Z" transform="translate(-884.796 -699.375)" fill="#939393"/>
            <path id="Path_16290" data-name="Path 16290" d="M1096.859,704.582H896.412a8.131,8.131,0,0,0-8.13,8.131V835.98a7.431,7.431,0,0,0,7.431,7.431h201.846a7.431,7.431,0,0,0,7.431-7.431V712.713A8.131,8.131,0,0,0,1096.859,704.582Z" transform="translate(-884.773 -699.34)" fill="#929292"/>
            <path id="Path_16291" data-name="Path 16291" d="M1096.812,704.512H896.365a8.13,8.13,0,0,0-8.131,8.13V835.909a7.431,7.431,0,0,0,7.431,7.431h201.846a7.431,7.431,0,0,0,7.431-7.431V712.642A8.13,8.13,0,0,0,1096.812,704.512Z" transform="translate(-884.749 -699.306)" fill="#919191"/>
            <path id="Path_16292" data-name="Path 16292" d="M1096.765,704.441H896.317a8.13,8.13,0,0,0-8.13,8.13V835.838a7.431,7.431,0,0,0,7.431,7.431h201.846a7.431,7.431,0,0,0,7.431-7.431V712.571A8.13,8.13,0,0,0,1096.765,704.441Z" transform="translate(-884.726 -699.271)" fill="#909090"/>
            <path id="Path_16293" data-name="Path 16293" d="M1096.717,704.37H896.27a8.13,8.13,0,0,0-8.13,8.13V835.767a7.43,7.43,0,0,0,7.431,7.431h201.846a7.43,7.43,0,0,0,7.43-7.431V712.5A8.13,8.13,0,0,0,1096.717,704.37Z" transform="translate(-884.703 -699.236)" fill="#8f8f8f"/>
            <path id="Path_16294" data-name="Path 16294" d="M1096.67,704.3H896.223a8.131,8.131,0,0,0-8.131,8.13V835.7a7.431,7.431,0,0,0,7.431,7.431h201.846a7.431,7.431,0,0,0,7.431-7.431V712.429A8.131,8.131,0,0,0,1096.67,704.3Z" transform="translate(-884.679 -699.201)" fill="#8e8e8e"/>
            <path id="Path_16295" data-name="Path 16295" d="M1096.622,704.228H896.175a8.131,8.131,0,0,0-8.13,8.131V835.626a7.431,7.431,0,0,0,7.431,7.431h201.846a7.431,7.431,0,0,0,7.431-7.431V712.359A8.131,8.131,0,0,0,1096.622,704.228Z" transform="translate(-884.656 -699.166)" fill="#8d8d8d"/>
            <path id="Path_16296" data-name="Path 16296" d="M1096.575,704.157H896.128A8.131,8.131,0,0,0,888,712.288V835.555a7.431,7.431,0,0,0,7.431,7.431h201.846a7.431,7.431,0,0,0,7.431-7.431V712.288A8.131,8.131,0,0,0,1096.575,704.157Z" transform="translate(-884.632 -699.131)" fill="#8c8c8c"/>
            <path id="Path_16297" data-name="Path 16297" d="M1096.527,704.087H896.08a8.13,8.13,0,0,0-8.13,8.13V835.484a7.431,7.431,0,0,0,7.431,7.431h201.846a7.431,7.431,0,0,0,7.431-7.431V712.217A8.131,8.131,0,0,0,1096.527,704.087Z" transform="translate(-884.609 -699.096)" fill="#8b8b8b"/>
            <path id="Path_16298" data-name="Path 16298" d="M1096.48,704.016H896.033a8.131,8.131,0,0,0-8.131,8.13V835.413a7.431,7.431,0,0,0,7.431,7.431h201.846a7.431,7.431,0,0,0,7.431-7.431V712.146A8.13,8.13,0,0,0,1096.48,704.016Z" transform="translate(-884.586 -699.061)" fill="#8a8a8a"/>
            <path id="Path_16299" data-name="Path 16299" d="M1096.433,703.945H895.985a8.13,8.13,0,0,0-8.13,8.13V835.342a7.431,7.431,0,0,0,7.431,7.431h201.846a7.431,7.431,0,0,0,7.431-7.431V712.075A8.13,8.13,0,0,0,1096.433,703.945Z" transform="translate(-884.562 -699.026)" fill="#898989"/>
            <path id="Path_16300" data-name="Path 16300" d="M1096.385,703.874H895.938a8.13,8.13,0,0,0-8.13,8.13V835.272a7.431,7.431,0,0,0,7.431,7.431h201.846a7.431,7.431,0,0,0,7.43-7.431V712A8.13,8.13,0,0,0,1096.385,703.874Z" transform="translate(-884.539 -698.991)" fill="#888"/>
            <path id="Path_16301" data-name="Path 16301" d="M1096.338,703.8H895.891a8.131,8.131,0,0,0-8.131,8.131V835.2a7.431,7.431,0,0,0,7.431,7.431h201.846a7.431,7.431,0,0,0,7.431-7.431V711.934A8.131,8.131,0,0,0,1096.338,703.8Z" transform="translate(-884.516 -698.956)" fill="#878787"/>
            <path id="Path_16302" data-name="Path 16302" d="M1096.29,703.732H895.843a8.131,8.131,0,0,0-8.13,8.131V835.13a7.431,7.431,0,0,0,7.431,7.431H1096.99a7.431,7.431,0,0,0,7.431-7.431V711.863A8.131,8.131,0,0,0,1096.29,703.732Z" transform="translate(-884.492 -698.921)" fill="#868686"/>
            <path id="Path_16303" data-name="Path 16303" d="M1096.243,703.662H895.8a8.131,8.131,0,0,0-8.131,8.13V835.059a7.431,7.431,0,0,0,7.431,7.431h201.846a7.431,7.431,0,0,0,7.431-7.431V711.792A8.13,8.13,0,0,0,1096.243,703.662Z" transform="translate(-884.469 -698.887)" fill="#858585"/>
            <path id="Path_16304" data-name="Path 16304" d="M1096.2,703.591H895.748a8.13,8.13,0,0,0-8.13,8.13V834.988a7.431,7.431,0,0,0,7.431,7.431H1096.9a7.431,7.431,0,0,0,7.431-7.431V711.721A8.13,8.13,0,0,0,1096.2,703.591Z" transform="translate(-884.445 -698.852)" fill="#848484"/>
            <path id="Path_16305" data-name="Path 16305" d="M1096.148,703.52H895.7a8.13,8.13,0,0,0-8.13,8.13V834.917A7.43,7.43,0,0,0,895,842.348h201.846a7.43,7.43,0,0,0,7.43-7.431V711.65A8.13,8.13,0,0,0,1096.148,703.52Z" transform="translate(-884.422 -698.817)" fill="#838383"/>
            <path id="Path_16306" data-name="Path 16306" d="M1096.1,703.449H895.654a8.131,8.131,0,0,0-8.131,8.13V834.847a7.431,7.431,0,0,0,7.431,7.431H1096.8a7.431,7.431,0,0,0,7.431-7.431V711.579A8.131,8.131,0,0,0,1096.1,703.449Z" transform="translate(-884.399 -698.782)" fill="#828282"/>
            <path id="Path_16307" data-name="Path 16307" d="M1096.053,703.378H895.606a8.131,8.131,0,0,0-8.13,8.131V834.776a7.431,7.431,0,0,0,7.431,7.431h201.846a7.431,7.431,0,0,0,7.431-7.431V711.509A8.131,8.131,0,0,0,1096.053,703.378Z" transform="translate(-884.375 -698.747)" fill="#818181"/>
            <path id="Path_16308" data-name="Path 16308" d="M1096.006,703.307H895.559a8.131,8.131,0,0,0-8.131,8.131V834.7a7.431,7.431,0,0,0,7.431,7.431h201.846a7.431,7.431,0,0,0,7.431-7.431V711.438A8.131,8.131,0,0,0,1096.006,703.307Z" transform="translate(-884.352 -698.712)" fill="gray"/>
            <path id="Path_16309" data-name="Path 16309" d="M1095.958,703.237H895.511a8.13,8.13,0,0,0-8.13,8.13V834.635a7.431,7.431,0,0,0,7.431,7.431h201.846a7.431,7.431,0,0,0,7.431-7.431V711.367A8.131,8.131,0,0,0,1095.958,703.237Z" transform="translate(-884.329 -698.677)" fill="#7f7f7f"/>
            <path id="Path_16310" data-name="Path 16310" d="M1095.911,703.166H895.464a8.131,8.131,0,0,0-8.131,8.13V834.563a7.431,7.431,0,0,0,7.431,7.431H1096.61a7.43,7.43,0,0,0,7.431-7.431V711.3A8.13,8.13,0,0,0,1095.911,703.166Z" transform="translate(-884.305 -698.642)" fill="#7e7e7e"/>
            <path id="Path_16311" data-name="Path 16311" d="M1095.864,703.095H895.416a8.13,8.13,0,0,0-8.13,8.13V834.492a7.431,7.431,0,0,0,7.431,7.431h201.846a7.431,7.431,0,0,0,7.431-7.431V711.225A8.13,8.13,0,0,0,1095.864,703.095Z" transform="translate(-884.282 -698.607)" fill="#7d7d7d"/>
            <path id="Path_16312" data-name="Path 16312" d="M1095.816,703.024H895.369a8.13,8.13,0,0,0-8.13,8.13V834.422a7.431,7.431,0,0,0,7.431,7.431h201.846a7.431,7.431,0,0,0,7.43-7.431V711.154A8.13,8.13,0,0,0,1095.816,703.024Z" transform="translate(-884.259 -698.572)" fill="#7c7c7c"/>
            <path id="Path_16313" data-name="Path 16313" d="M1095.769,702.953H895.322a8.131,8.131,0,0,0-8.131,8.131V834.351a7.431,7.431,0,0,0,7.431,7.431h201.846a7.431,7.431,0,0,0,7.431-7.431V711.084A8.131,8.131,0,0,0,1095.769,702.953Z" transform="translate(-884.235 -698.537)" fill="#7b7b7b"/>
            <path id="Path_16314" data-name="Path 16314" d="M1095.721,702.882H895.274a8.131,8.131,0,0,0-8.13,8.131V834.28a7.431,7.431,0,0,0,7.431,7.431h201.846a7.431,7.431,0,0,0,7.431-7.431V711.013A8.131,8.131,0,0,0,1095.721,702.882Z" transform="translate(-884.212 -698.502)" fill="#7a7a7a"/>
            <path id="Path_16315" data-name="Path 16315" d="M1095.674,702.812H895.227a8.131,8.131,0,0,0-8.131,8.13V834.209a7.431,7.431,0,0,0,7.431,7.431h201.846a7.43,7.43,0,0,0,7.431-7.431V710.942A8.13,8.13,0,0,0,1095.674,702.812Z" transform="translate(-884.188 -698.468)" fill="#797979"/>
            <path id="Path_16316" data-name="Path 16316" d="M1095.627,702.741H895.179a8.13,8.13,0,0,0-8.13,8.13V834.138a7.431,7.431,0,0,0,7.431,7.431h201.846a7.431,7.431,0,0,0,7.431-7.431V710.871A8.13,8.13,0,0,0,1095.627,702.741Z" transform="translate(-884.165 -698.433)" fill="#787878"/>
            <path id="Path_16317" data-name="Path 16317" d="M1095.579,702.67H895.132A8.131,8.131,0,0,0,887,710.8V834.067a7.431,7.431,0,0,0,7.431,7.431h201.846a7.43,7.43,0,0,0,7.43-7.431V710.8A8.13,8.13,0,0,0,1095.579,702.67Z" transform="translate(-884.141 -698.398)" fill="#777"/>
            <path id="Path_16318" data-name="Path 16318" d="M1095.532,702.6H895.085a8.131,8.131,0,0,0-8.131,8.13V834a7.431,7.431,0,0,0,7.431,7.431h201.846a7.431,7.431,0,0,0,7.431-7.431V710.729A8.131,8.131,0,0,0,1095.532,702.6Z" transform="translate(-884.118 -698.363)" fill="#767676"/>
            <path id="Path_16319" data-name="Path 16319" d="M1095.484,702.528H895.037a8.131,8.131,0,0,0-8.13,8.131V833.926a7.431,7.431,0,0,0,7.431,7.431h201.846a7.431,7.431,0,0,0,7.431-7.431V710.659A8.131,8.131,0,0,0,1095.484,702.528Z" transform="translate(-884.095 -698.328)" fill="#757575"/>
            <path id="Path_16320" data-name="Path 16320" d="M1095.437,702.457H894.99a8.131,8.131,0,0,0-8.131,8.131V833.855a7.431,7.431,0,0,0,7.431,7.431h201.846a7.431,7.431,0,0,0,7.431-7.431V710.588A8.131,8.131,0,0,0,1095.437,702.457Z" transform="translate(-884.071 -698.292)" fill="#747474"/>
            <path id="Path_16321" data-name="Path 16321" d="M1095.389,702.387H894.942a8.13,8.13,0,0,0-8.13,8.13V833.784a7.431,7.431,0,0,0,7.431,7.431h201.846a7.431,7.431,0,0,0,7.431-7.431V710.517A8.131,8.131,0,0,0,1095.389,702.387Z" transform="translate(-884.048 -698.258)" fill="#737373"/>
            <path id="Path_16322" data-name="Path 16322" d="M1095.342,702.316H894.895a8.131,8.131,0,0,0-8.131,8.13V833.713a7.431,7.431,0,0,0,7.431,7.431h201.846a7.431,7.431,0,0,0,7.431-7.431V710.446A8.13,8.13,0,0,0,1095.342,702.316Z" transform="translate(-884.024 -698.223)" fill="#727272"/>
            <path id="Path_16323" data-name="Path 16323" d="M1095.295,702.245H894.847a8.13,8.13,0,0,0-8.13,8.13V833.642a7.431,7.431,0,0,0,7.431,7.431h201.846a7.431,7.431,0,0,0,7.431-7.431V710.375A8.13,8.13,0,0,0,1095.295,702.245Z" transform="translate(-884.001 -698.188)" fill="#717171"/>
            <path id="Path_16324" data-name="Path 16324" d="M1095.247,702.174H894.8a8.13,8.13,0,0,0-8.13,8.13V833.572A7.431,7.431,0,0,0,894.1,841h201.846a7.431,7.431,0,0,0,7.43-7.431V710.3A8.13,8.13,0,0,0,1095.247,702.174Z" transform="translate(-883.978 -698.153)" fill="#707070"/>
            <path id="Path_16325" data-name="Path 16325" d="M1095.2,702.1H894.753a8.131,8.131,0,0,0-8.131,8.131V833.5a7.431,7.431,0,0,0,7.431,7.431H1095.9a7.431,7.431,0,0,0,7.431-7.431V710.234A8.131,8.131,0,0,0,1095.2,702.1Z" transform="translate(-883.954 -698.118)" fill="#6f6f6f"/>
            <path id="Path_16326" data-name="Path 16326" d="M1095.152,702.032H894.705a8.13,8.13,0,0,0-8.13,8.131V833.43a7.431,7.431,0,0,0,7.431,7.431h201.846a7.431,7.431,0,0,0,7.431-7.431V710.163A8.131,8.131,0,0,0,1095.152,702.032Z" transform="translate(-883.931 -698.083)" fill="#6e6e6e"/>
            <path id="Path_16327" data-name="Path 16327" d="M1095.1,701.962H894.658a8.131,8.131,0,0,0-8.131,8.13V833.359a7.431,7.431,0,0,0,7.431,7.431H1095.8a7.431,7.431,0,0,0,7.431-7.431V710.092A8.13,8.13,0,0,0,1095.1,701.962Z" transform="translate(-883.907 -698.048)" fill="#6d6d6d"/>
            <path id="Path_16328" data-name="Path 16328" d="M1095.058,701.891H894.61a8.13,8.13,0,0,0-8.13,8.13V833.288a7.431,7.431,0,0,0,7.431,7.431h201.846a7.431,7.431,0,0,0,7.431-7.431V710.021A8.13,8.13,0,0,0,1095.058,701.891Z" transform="translate(-883.884 -698.013)" fill="#6c6c6c"/>
            <path id="Path_16329" data-name="Path 16329" d="M1095.01,701.82H894.563a8.13,8.13,0,0,0-8.131,8.13V833.217a7.431,7.431,0,0,0,7.431,7.431H1095.71a7.43,7.43,0,0,0,7.43-7.431V709.95A8.13,8.13,0,0,0,1095.01,701.82Z" transform="translate(-883.861 -697.978)" fill="#6b6b6b"/>
            <path id="Path_16330" data-name="Path 16330" d="M1094.963,701.749H894.516a8.131,8.131,0,0,0-8.131,8.13V833.147a7.431,7.431,0,0,0,7.431,7.431h201.846a7.431,7.431,0,0,0,7.431-7.431V709.879A8.131,8.131,0,0,0,1094.963,701.749Z" transform="translate(-883.837 -697.943)" fill="#6a6a6a"/>
            <path id="Path_16331" data-name="Path 16331" d="M1094.915,701.678H894.468a8.131,8.131,0,0,0-8.13,8.131V833.076a7.431,7.431,0,0,0,7.431,7.431h201.846a7.431,7.431,0,0,0,7.431-7.431V709.809A8.131,8.131,0,0,0,1094.915,701.678Z" transform="translate(-883.814 -697.908)" fill="#696969"/>
            <path id="Path_16332" data-name="Path 16332" d="M1094.868,701.607H894.421a8.131,8.131,0,0,0-8.131,8.131V833.005a7.431,7.431,0,0,0,7.431,7.431h201.846a7.431,7.431,0,0,0,7.431-7.431V709.738A8.131,8.131,0,0,0,1094.868,701.607Z" transform="translate(-883.791 -697.873)" fill="#686868"/>
            <path id="Path_16333" data-name="Path 16333" d="M1094.82,701.537H894.373a8.13,8.13,0,0,0-8.13,8.13V832.934a7.431,7.431,0,0,0,7.431,7.431H1095.52a7.431,7.431,0,0,0,7.431-7.431V709.667A8.131,8.131,0,0,0,1094.82,701.537Z" transform="translate(-883.767 -697.839)" fill="#676767"/>
            <path id="Path_16334" data-name="Path 16334" d="M1094.773,701.466H894.326a8.131,8.131,0,0,0-8.131,8.13V832.864a7.431,7.431,0,0,0,7.431,7.431h201.846a7.431,7.431,0,0,0,7.431-7.431V709.6A8.13,8.13,0,0,0,1094.773,701.466Z" transform="translate(-883.744 -697.804)" fill="#666"/>
            <path id="Path_16335" data-name="Path 16335" d="M1094.726,701.4H894.278a8.13,8.13,0,0,0-8.13,8.13V832.792a7.431,7.431,0,0,0,7.431,7.431h201.846a7.431,7.431,0,0,0,7.431-7.431V709.525A8.13,8.13,0,0,0,1094.726,701.4Z" transform="translate(-883.721 -697.769)" fill="#656565"/>
            <path id="Path_16336" data-name="Path 16336" d="M1094.678,701.324H894.231a8.13,8.13,0,0,0-8.13,8.13V832.722a7.431,7.431,0,0,0,7.431,7.431h201.846a7.431,7.431,0,0,0,7.43-7.431V709.454A8.13,8.13,0,0,0,1094.678,701.324Z" transform="translate(-883.697 -697.734)" fill="#646464"/>
            <path id="Path_16337" data-name="Path 16337" d="M1094.631,701.253H894.184a8.131,8.131,0,0,0-8.131,8.131V832.651a7.431,7.431,0,0,0,7.431,7.431H1095.33a7.431,7.431,0,0,0,7.431-7.431V709.384A8.131,8.131,0,0,0,1094.631,701.253Z" transform="translate(-883.674 -697.699)" fill="#636363"/>
            <path id="Path_16338" data-name="Path 16338" d="M1094.583,701.182H894.136a8.131,8.131,0,0,0-8.13,8.131V832.58a7.431,7.431,0,0,0,7.431,7.431h201.846a7.431,7.431,0,0,0,7.431-7.431V709.313A8.131,8.131,0,0,0,1094.583,701.182Z" transform="translate(-883.651 -697.664)" fill="#626262"/>
            <path id="Path_16339" data-name="Path 16339" d="M1094.536,701.112H894.089a8.131,8.131,0,0,0-8.131,8.13V832.509a7.431,7.431,0,0,0,7.431,7.431h201.846a7.431,7.431,0,0,0,7.431-7.431V709.242A8.13,8.13,0,0,0,1094.536,701.112Z" transform="translate(-883.627 -697.629)" fill="#616161"/>
            <path id="Path_16340" data-name="Path 16340" d="M1094.489,701.041H894.041a8.13,8.13,0,0,0-8.13,8.13V832.438a7.43,7.43,0,0,0,7.431,7.431h201.846a7.431,7.431,0,0,0,7.431-7.431V709.171A8.13,8.13,0,0,0,1094.489,701.041Z" transform="translate(-883.604 -697.594)" fill="#606060"/>
            <path id="Path_16341" data-name="Path 16341" d="M1094.441,700.97H893.994a8.131,8.131,0,0,0-8.131,8.13V832.367a7.431,7.431,0,0,0,7.431,7.431h201.846a7.43,7.43,0,0,0,7.43-7.431V709.1A8.13,8.13,0,0,0,1094.441,700.97Z" transform="translate(-883.58 -697.559)" fill="#5f5f5f"/>
            <path id="Path_16342" data-name="Path 16342" d="M1094.394,700.9H893.947a8.131,8.131,0,0,0-8.131,8.13V832.3a7.431,7.431,0,0,0,7.431,7.431h201.846a7.431,7.431,0,0,0,7.431-7.431V709.029A8.131,8.131,0,0,0,1094.394,700.9Z" transform="translate(-883.557 -697.524)" fill="#5e5e5e"/>
            <path id="Path_16343" data-name="Path 16343" d="M1094.346,700.828H893.9a8.131,8.131,0,0,0-8.13,8.131V832.226a7.431,7.431,0,0,0,7.431,7.431h201.846a7.431,7.431,0,0,0,7.431-7.431V708.959A8.131,8.131,0,0,0,1094.346,700.828Z" transform="translate(-883.534 -697.489)" fill="#5d5d5d"/>
            <path id="Path_16344" data-name="Path 16344" d="M1094.3,700.757H893.852a8.131,8.131,0,0,0-8.131,8.131V832.155a7.431,7.431,0,0,0,7.431,7.431H1095a7.431,7.431,0,0,0,7.431-7.431V708.888A8.131,8.131,0,0,0,1094.3,700.757Z" transform="translate(-883.51 -697.454)" fill="#5c5c5c"/>
            <path id="Path_16345" data-name="Path 16345" d="M1094.251,700.687H893.8a8.13,8.13,0,0,0-8.13,8.13V832.084a7.43,7.43,0,0,0,7.431,7.431h201.846a7.431,7.431,0,0,0,7.431-7.431V708.817A8.131,8.131,0,0,0,1094.251,700.687Z" transform="translate(-883.487 -697.42)" fill="#5b5b5b"/>
            <path id="Path_16346" data-name="Path 16346" d="M1094.2,700.616H893.757a8.13,8.13,0,0,0-8.131,8.13V832.013a7.431,7.431,0,0,0,7.431,7.431H1094.9a7.43,7.43,0,0,0,7.431-7.431V708.746A8.13,8.13,0,0,0,1094.2,700.616Z" transform="translate(-883.463 -697.385)" fill="#5a5a5a"/>
            <path id="Path_16347" data-name="Path 16347" d="M1094.157,700.545H893.709a8.13,8.13,0,0,0-8.13,8.13V831.942a7.431,7.431,0,0,0,7.431,7.431h201.846a7.431,7.431,0,0,0,7.431-7.431V708.675A8.13,8.13,0,0,0,1094.157,700.545Z" transform="translate(-883.44 -697.35)" fill="#595959"/>
            <path id="Path_16348" data-name="Path 16348" d="M1094.109,700.474H893.662a8.13,8.13,0,0,0-8.13,8.13V831.872a7.431,7.431,0,0,0,7.431,7.431h201.846a7.431,7.431,0,0,0,7.43-7.431V708.6A8.13,8.13,0,0,0,1094.109,700.474Z" transform="translate(-883.417 -697.315)" fill="#585858"/>
            <path id="Path_16349" data-name="Path 16349" d="M1094.062,700.4H893.615a8.131,8.131,0,0,0-8.131,8.131V831.8a7.431,7.431,0,0,0,7.431,7.431h201.846a7.431,7.431,0,0,0,7.431-7.431V708.534A8.131,8.131,0,0,0,1094.062,700.4Z" transform="translate(-883.393 -697.28)" fill="#575757"/>
            <path id="Path_16350" data-name="Path 16350" d="M1094.014,700.332H893.567a8.131,8.131,0,0,0-8.13,8.131V831.73a7.431,7.431,0,0,0,7.431,7.431h201.846a7.431,7.431,0,0,0,7.431-7.431V708.463A8.131,8.131,0,0,0,1094.014,700.332Z" transform="translate(-883.37 -697.245)" fill="#565656"/>
            <path id="Path_16351" data-name="Path 16351" d="M1093.967,700.262H893.52a8.131,8.131,0,0,0-8.131,8.13V831.659a7.431,7.431,0,0,0,7.431,7.431h201.846a7.431,7.431,0,0,0,7.431-7.431V708.392A8.13,8.13,0,0,0,1093.967,700.262Z" transform="translate(-883.346 -697.21)" fill="#555"/>
            <path id="Path_16352" data-name="Path 16352" d="M1093.92,700.191H893.472a8.13,8.13,0,0,0-8.13,8.13V831.588a7.431,7.431,0,0,0,7.431,7.431h201.846a7.431,7.431,0,0,0,7.431-7.431V708.321A8.13,8.13,0,0,0,1093.92,700.191Z" transform="translate(-883.323 -697.175)" fill="#545454"/>
            <path id="Path_16353" data-name="Path 16353" d="M1093.872,700.12H893.425a8.131,8.131,0,0,0-8.131,8.13V831.517a7.431,7.431,0,0,0,7.431,7.431h201.846a7.43,7.43,0,0,0,7.43-7.431V708.25A8.13,8.13,0,0,0,1093.872,700.12Z" transform="translate(-883.299 -697.14)" fill="#535353"/>
            <path id="Path_16354" data-name="Path 16354" d="M1093.825,700.049H893.378a8.131,8.131,0,0,0-8.131,8.13V831.447a7.431,7.431,0,0,0,7.431,7.431h201.846a7.431,7.431,0,0,0,7.431-7.431V708.179A8.131,8.131,0,0,0,1093.825,700.049Z" transform="translate(-883.276 -697.105)" fill="#525252"/>
            <path id="Path_16355" data-name="Path 16355" d="M1093.777,699.978H893.33a8.13,8.13,0,0,0-8.13,8.131V831.376a7.431,7.431,0,0,0,7.431,7.431h201.846a7.431,7.431,0,0,0,7.431-7.431V708.109A8.131,8.131,0,0,0,1093.777,699.978Z" transform="translate(-883.253 -697.07)" fill="#515151"/>
            <path id="Path_16356" data-name="Path 16356" d="M1093.73,699.907H893.283a8.131,8.131,0,0,0-8.131,8.131V831.3a7.431,7.431,0,0,0,7.431,7.431h201.846a7.431,7.431,0,0,0,7.431-7.431V708.038A8.131,8.131,0,0,0,1093.73,699.907Z" transform="translate(-883.229 -697.035)" fill="#505050"/>
            <path id="Path_16357" data-name="Path 16357" d="M1093.682,699.837H893.235a8.13,8.13,0,0,0-8.13,8.13V831.234a7.431,7.431,0,0,0,7.431,7.431h201.846a7.431,7.431,0,0,0,7.431-7.431V707.967A8.131,8.131,0,0,0,1093.682,699.837Z" transform="translate(-883.206 -697)" fill="#4f4f4f"/>
            <path id="Path_16358" data-name="Path 16358" d="M1093.635,699.766H893.188a8.131,8.131,0,0,0-8.131,8.13V831.163a7.431,7.431,0,0,0,7.431,7.431h201.846a7.431,7.431,0,0,0,7.431-7.431V707.9A8.13,8.13,0,0,0,1093.635,699.766Z" transform="translate(-883.183 -696.966)" fill="#4e4e4e"/>
            <path id="Path_16359" data-name="Path 16359" d="M1093.588,699.7H893.14a8.13,8.13,0,0,0-8.13,8.13V831.092a7.431,7.431,0,0,0,7.431,7.431h201.846a7.431,7.431,0,0,0,7.431-7.431V707.825A8.13,8.13,0,0,0,1093.588,699.7Z" transform="translate(-883.159 -696.93)" fill="#4d4d4d"/>
            <path id="Path_16360" data-name="Path 16360" d="M1093.54,699.624H893.093a8.13,8.13,0,0,0-8.13,8.13V831.022a7.431,7.431,0,0,0,7.431,7.431H1094.24a7.431,7.431,0,0,0,7.43-7.431V707.754A8.13,8.13,0,0,0,1093.54,699.624Z" transform="translate(-883.136 -696.896)" fill="#4c4c4c"/>
            <path id="Path_16361" data-name="Path 16361" d="M1093.493,699.553H893.046a8.131,8.131,0,0,0-8.131,8.131V830.951a7.431,7.431,0,0,0,7.431,7.431h201.846a7.431,7.431,0,0,0,7.431-7.431V707.684A8.131,8.131,0,0,0,1093.493,699.553Z" transform="translate(-883.113 -696.86)" fill="#4b4b4b"/>
            <path id="Path_16362" data-name="Path 16362" d="M1093.445,699.482H893a8.131,8.131,0,0,0-8.13,8.131V830.88a7.431,7.431,0,0,0,7.431,7.431h201.846a7.431,7.431,0,0,0,7.431-7.431V707.613A8.131,8.131,0,0,0,1093.445,699.482Z" transform="translate(-883.089 -696.825)" fill="#4a4a4a"/>
            <path id="Path_16363" data-name="Path 16363" d="M1093.4,699.412H892.951a8.131,8.131,0,0,0-8.131,8.13V830.809a7.431,7.431,0,0,0,7.431,7.431H1094.1a7.431,7.431,0,0,0,7.431-7.431V707.542A8.13,8.13,0,0,0,1093.4,699.412Z" transform="translate(-883.066 -696.791)" fill="#494949"/>
            <path id="Path_16364" data-name="Path 16364" d="M1093.351,699.341H892.9a8.13,8.13,0,0,0-8.13,8.13V830.739a7.431,7.431,0,0,0,7.431,7.431H1094.05a7.431,7.431,0,0,0,7.431-7.431V707.471A8.13,8.13,0,0,0,1093.351,699.341Z" transform="translate(-883.043 -696.756)" fill="#484848"/>
            <path id="Path_16365" data-name="Path 16365" d="M1093.3,699.27H892.856a8.131,8.131,0,0,0-8.131,8.13V830.667a7.431,7.431,0,0,0,7.431,7.431H1094a7.43,7.43,0,0,0,7.43-7.431V707.4A8.13,8.13,0,0,0,1093.3,699.27Z" transform="translate(-883.019 -696.721)" fill="#474747"/>
            <path id="Path_16366" data-name="Path 16366" d="M1093.256,699.2H892.808a8.131,8.131,0,0,0-8.13,8.13V830.6a7.431,7.431,0,0,0,7.431,7.431h201.846a7.431,7.431,0,0,0,7.431-7.431V707.329A8.131,8.131,0,0,0,1093.256,699.2Z" transform="translate(-882.996 -696.686)" fill="#464646"/>
            <path id="Path_16367" data-name="Path 16367" d="M1093.208,699.128H892.761a8.131,8.131,0,0,0-8.13,8.131V830.526a7.431,7.431,0,0,0,7.431,7.431h201.846a7.431,7.431,0,0,0,7.431-7.431V707.259A8.131,8.131,0,0,0,1093.208,699.128Z" transform="translate(-882.972 -696.651)" fill="#454545"/>
            <path id="Path_16368" data-name="Path 16368" d="M1093.161,699.057H892.714a8.131,8.131,0,0,0-8.131,8.131V830.455a7.431,7.431,0,0,0,7.431,7.431H1093.86a7.431,7.431,0,0,0,7.431-7.431V707.188A8.131,8.131,0,0,0,1093.161,699.057Z" transform="translate(-882.949 -696.616)" fill="#444"/>
            <path id="Path_16369" data-name="Path 16369" d="M1093.113,698.987H892.666a8.13,8.13,0,0,0-8.13,8.13V830.384a7.431,7.431,0,0,0,7.431,7.431h201.846a7.431,7.431,0,0,0,7.431-7.431V707.117A8.131,8.131,0,0,0,1093.113,698.987Z" transform="translate(-882.926 -696.581)" fill="#434343"/>
            <path id="Path_16370" data-name="Path 16370" d="M1093.066,698.916H892.619a8.131,8.131,0,0,0-8.131,8.13V830.313a7.431,7.431,0,0,0,7.431,7.431h201.846a7.43,7.43,0,0,0,7.431-7.431V707.046A8.13,8.13,0,0,0,1093.066,698.916Z" transform="translate(-882.902 -696.546)" fill="#424242"/>
            <path id="Path_16371" data-name="Path 16371" d="M1093.019,698.845H892.571a8.13,8.13,0,0,0-8.13,8.13V830.242a7.431,7.431,0,0,0,7.431,7.431h201.846a7.431,7.431,0,0,0,7.431-7.431V706.975A8.13,8.13,0,0,0,1093.019,698.845Z" transform="translate(-882.879 -696.511)" fill="#414141"/>
            <path id="Path_16372" data-name="Path 16372" d="M1092.971,698.774H892.524a8.13,8.13,0,0,0-8.13,8.13V830.172a7.431,7.431,0,0,0,7.431,7.431h201.846a7.431,7.431,0,0,0,7.43-7.431V706.9A8.13,8.13,0,0,0,1092.971,698.774Z" transform="translate(-882.856 -696.476)" fill="#404040"/>
            <path id="Path_16373" data-name="Path 16373" d="M1092.924,698.7H892.477a8.131,8.131,0,0,0-8.131,8.131V830.1a7.431,7.431,0,0,0,7.431,7.431h201.846a7.431,7.431,0,0,0,7.431-7.431V706.834A8.131,8.131,0,0,0,1092.924,698.7Z" transform="translate(-882.832 -696.441)" fill="#3f3f3f"/>
            <path id="Path_16374" data-name="Path 16374" d="M1092.876,698.632H892.429a8.13,8.13,0,0,0-8.13,8.131V830.03a7.431,7.431,0,0,0,7.431,7.431h201.846a7.431,7.431,0,0,0,7.431-7.431V706.763A8.131,8.131,0,0,0,1092.876,698.632Z" transform="translate(-882.809 -696.406)" fill="#3e3e3e"/>
            <path id="Path_16375" data-name="Path 16375" d="M1092.829,698.562H892.382a8.131,8.131,0,0,0-8.131,8.13V829.959a7.431,7.431,0,0,0,7.431,7.431h201.846a7.43,7.43,0,0,0,7.431-7.431V706.692A8.13,8.13,0,0,0,1092.829,698.562Z" transform="translate(-882.785 -696.372)" fill="#3d3d3d"/>
            <path id="Path_16376" data-name="Path 16376" d="M1092.782,698.491H892.334a8.13,8.13,0,0,0-8.13,8.13V829.888a7.431,7.431,0,0,0,7.431,7.431h201.846a7.431,7.431,0,0,0,7.431-7.431V706.621A8.13,8.13,0,0,0,1092.782,698.491Z" transform="translate(-882.762 -696.337)" fill="#3c3c3c"/>
            <path id="Path_16377" data-name="Path 16377" d="M1092.734,698.42H892.287a8.131,8.131,0,0,0-8.131,8.13V829.817a7.431,7.431,0,0,0,7.431,7.431h201.846a7.43,7.43,0,0,0,7.43-7.431V706.55A8.13,8.13,0,0,0,1092.734,698.42Z" transform="translate(-882.738 -696.302)" fill="#3b3b3b"/>
            <path id="Path_16378" data-name="Path 16378" d="M1092.687,698.349H892.239a8.131,8.131,0,0,0-8.13,8.13V829.747a7.431,7.431,0,0,0,7.431,7.431h201.846a7.431,7.431,0,0,0,7.431-7.431V706.479A8.131,8.131,0,0,0,1092.687,698.349Z" transform="translate(-882.715 -696.267)" fill="#3a3a3a"/>
            <path id="Path_16379" data-name="Path 16379" d="M1092.639,698.278H892.192a8.131,8.131,0,0,0-8.13,8.131V829.676a7.431,7.431,0,0,0,7.431,7.431h201.846a7.431,7.431,0,0,0,7.43-7.431V706.409A8.13,8.13,0,0,0,1092.639,698.278Z" transform="translate(-882.692 -696.232)" fill="#393939"/>
            <path id="Path_16380" data-name="Path 16380" d="M1092.592,698.207H892.145a8.131,8.131,0,0,0-8.131,8.131V829.6a7.431,7.431,0,0,0,7.431,7.431h201.846a7.431,7.431,0,0,0,7.431-7.431V706.338A8.131,8.131,0,0,0,1092.592,698.207Z" transform="translate(-882.668 -696.197)" fill="#383838"/>
            <path id="Path_16381" data-name="Path 16381" d="M1092.544,698.137H892.1a8.13,8.13,0,0,0-8.13,8.13V829.534a7.431,7.431,0,0,0,7.431,7.431h201.846a7.431,7.431,0,0,0,7.431-7.431V706.267A8.13,8.13,0,0,0,1092.544,698.137Z" transform="translate(-882.645 -696.162)" fill="#373737"/>
            <path id="Path_16382" data-name="Path 16382" d="M1092.5,698.066H892.05a8.131,8.131,0,0,0-8.131,8.13V829.463a7.431,7.431,0,0,0,7.431,7.431H1093.2a7.431,7.431,0,0,0,7.431-7.431V706.2A8.13,8.13,0,0,0,1092.5,698.066Z" transform="translate(-882.621 -696.127)" fill="#363636"/>
            <path id="Path_16383" data-name="Path 16383" d="M1092.45,697.995H892a8.13,8.13,0,0,0-8.13,8.13V829.392a7.431,7.431,0,0,0,7.431,7.431h201.846a7.431,7.431,0,0,0,7.431-7.431V706.125A8.13,8.13,0,0,0,1092.45,697.995Z" transform="translate(-882.598 -696.092)" fill="#353535"/>
            <path id="Path_16384" data-name="Path 16384" d="M1092.4,697.924H891.955a8.13,8.13,0,0,0-8.13,8.13V829.322a7.431,7.431,0,0,0,7.431,7.431H1093.1a7.431,7.431,0,0,0,7.43-7.431V706.054A8.13,8.13,0,0,0,1092.4,697.924Z" transform="translate(-882.575 -696.057)" fill="#343434"/>
            <path id="Path_16385" data-name="Path 16385" d="M1092.355,697.853H891.908a8.131,8.131,0,0,0-8.131,8.131V829.251a7.431,7.431,0,0,0,7.431,7.431h201.846a7.431,7.431,0,0,0,7.431-7.431V705.984A8.131,8.131,0,0,0,1092.355,697.853Z" transform="translate(-882.551 -696.022)" fill="#333"/>
            <path id="Path_16386" data-name="Path 16386" d="M1092.307,697.782H891.86a8.131,8.131,0,0,0-8.13,8.131V829.18a7.431,7.431,0,0,0,7.431,7.431h201.846a7.431,7.431,0,0,0,7.431-7.431V705.913A8.131,8.131,0,0,0,1092.307,697.782Z" transform="translate(-882.528 -695.987)" fill="#323232"/>
            <path id="Path_16387" data-name="Path 16387" d="M1092.26,697.712H891.813a8.131,8.131,0,0,0-8.131,8.13V829.109a7.431,7.431,0,0,0,7.431,7.431h201.846a7.431,7.431,0,0,0,7.431-7.431V705.842A8.13,8.13,0,0,0,1092.26,697.712Z" transform="translate(-882.505 -695.953)" fill="#313131"/>
            <path id="Path_16388" data-name="Path 16388" d="M1092.213,697.641H891.765a8.13,8.13,0,0,0-8.13,8.13V829.038a7.431,7.431,0,0,0,7.431,7.431h201.846a7.431,7.431,0,0,0,7.431-7.431V705.771A8.131,8.131,0,0,0,1092.213,697.641Z" transform="translate(-882.481 -695.918)" fill="#303030"/>
            <path id="Path_16389" data-name="Path 16389" d="M1092.165,697.57H891.718a8.131,8.131,0,0,0-8.131,8.13V828.967a7.431,7.431,0,0,0,7.431,7.431h201.846a7.43,7.43,0,0,0,7.43-7.431V705.7A8.13,8.13,0,0,0,1092.165,697.57Z" transform="translate(-882.458 -695.883)" fill="#2f2f2f"/>
            <path id="Path_16390" data-name="Path 16390" d="M1092.118,697.5H891.67a8.131,8.131,0,0,0-8.13,8.13V828.9a7.431,7.431,0,0,0,7.431,7.431h201.846a7.431,7.431,0,0,0,7.431-7.431V705.629A8.131,8.131,0,0,0,1092.118,697.5Z" transform="translate(-882.435 -695.848)" fill="#2e2e2e"/>
            <path id="Path_16391" data-name="Path 16391" d="M1092.07,697.428H891.623a8.131,8.131,0,0,0-8.13,8.131V828.826a7.431,7.431,0,0,0,7.431,7.431H1092.77a7.431,7.431,0,0,0,7.43-7.431V705.559A8.131,8.131,0,0,0,1092.07,697.428Z" transform="translate(-882.411 -695.813)" fill="#2d2d2d"/>
            <path id="Path_16392" data-name="Path 16392" d="M1092.023,697.357H891.576a8.131,8.131,0,0,0-8.131,8.131V828.755a7.431,7.431,0,0,0,7.431,7.431h201.846a7.431,7.431,0,0,0,7.431-7.431V705.488A8.131,8.131,0,0,0,1092.023,697.357Z" transform="translate(-882.388 -695.778)" fill="#2c2c2c"/>
            <path id="Path_16393" data-name="Path 16393" d="M1091.975,697.287H891.528a8.13,8.13,0,0,0-8.13,8.13V828.684a7.431,7.431,0,0,0,7.431,7.431h201.846a7.431,7.431,0,0,0,7.431-7.431V705.417A8.131,8.131,0,0,0,1091.975,697.287Z" transform="translate(-882.365 -695.743)" fill="#2b2b2b"/>
            <path id="Path_16394" data-name="Path 16394" d="M1091.928,697.216H891.481a8.131,8.131,0,0,0-8.131,8.13V828.614a7.431,7.431,0,0,0,7.431,7.431h201.846a7.431,7.431,0,0,0,7.431-7.431V705.346A8.13,8.13,0,0,0,1091.928,697.216Z" transform="translate(-882.341 -695.708)" fill="#2a2a2a"/>
            <path id="Path_16395" data-name="Path 16395" d="M1091.881,697.145H891.433a8.13,8.13,0,0,0-8.13,8.13V828.542a7.43,7.43,0,0,0,7.431,7.431H1092.58a7.431,7.431,0,0,0,7.431-7.431V705.275A8.13,8.13,0,0,0,1091.881,697.145Z" transform="translate(-882.318 -695.673)" fill="#292929"/>
            <path id="Path_16396" data-name="Path 16396" d="M1091.833,697.074H891.386a8.131,8.131,0,0,0-8.131,8.13V828.472a7.431,7.431,0,0,0,7.431,7.431h201.846a7.431,7.431,0,0,0,7.43-7.431V705.2A8.13,8.13,0,0,0,1091.833,697.074Z" transform="translate(-882.294 -695.638)" fill="#282828"/>
            <path id="Path_16397" data-name="Path 16397" d="M1091.786,697H891.339a8.131,8.131,0,0,0-8.131,8.131V828.4a7.431,7.431,0,0,0,7.431,7.431h201.846a7.431,7.431,0,0,0,7.431-7.431V705.134A8.131,8.131,0,0,0,1091.786,697Z" transform="translate(-882.271 -695.603)" fill="#272727"/>
            <path id="Path_16398" data-name="Path 16398" d="M1091.738,696.932H891.291a8.131,8.131,0,0,0-8.13,8.131V828.33a7.431,7.431,0,0,0,7.431,7.431h201.846a7.431,7.431,0,0,0,7.431-7.431V705.063A8.131,8.131,0,0,0,1091.738,696.932Z" transform="translate(-882.248 -695.568)" fill="#262626"/>
            <path id="Path_16399" data-name="Path 16399" d="M1091.691,696.862H891.244a8.131,8.131,0,0,0-8.131,8.13V828.259a7.431,7.431,0,0,0,7.431,7.431H1092.39a7.431,7.431,0,0,0,7.431-7.431V704.992A8.13,8.13,0,0,0,1091.691,696.862Z" transform="translate(-882.224 -695.534)" fill="#252525"/>
            <path id="Path_16400" data-name="Path 16400" d="M1091.644,696.791H891.2a8.13,8.13,0,0,0-8.13,8.13V828.188a7.43,7.43,0,0,0,7.431,7.431h201.846a7.431,7.431,0,0,0,7.431-7.431V704.921A8.13,8.13,0,0,0,1091.644,696.791Z" transform="translate(-882.201 -695.498)" fill="#242424"/>
            <path id="Path_16401" data-name="Path 16401" d="M1091.6,696.72H891.149a8.131,8.131,0,0,0-8.131,8.13V828.117a7.431,7.431,0,0,0,7.431,7.431H1092.3a7.431,7.431,0,0,0,7.431-7.431V704.85A8.13,8.13,0,0,0,1091.6,696.72Z" transform="translate(-882.177 -695.463)" fill="#232323"/>
            <path id="Path_16402" data-name="Path 16402" d="M1091.549,696.649H891.1a8.131,8.131,0,0,0-8.13,8.13V828.047a7.431,7.431,0,0,0,7.431,7.431h201.846a7.431,7.431,0,0,0,7.431-7.431V704.779A8.131,8.131,0,0,0,1091.549,696.649Z" transform="translate(-882.154 -695.428)" fill="#222"/>
            <path id="Path_16403" data-name="Path 16403" d="M1091.5,696.578H891.054a8.13,8.13,0,0,0-8.13,8.131V827.976a7.431,7.431,0,0,0,7.431,7.431H1092.2a7.431,7.431,0,0,0,7.43-7.431V704.709A8.131,8.131,0,0,0,1091.5,696.578Z" transform="translate(-882.131 -695.393)" fill="#212121"/>
            <path id="Path_16404" data-name="Path 16404" d="M1091.454,696.507H891.007a8.131,8.131,0,0,0-8.131,8.131V827.9a7.431,7.431,0,0,0,7.431,7.431h201.846a7.431,7.431,0,0,0,7.431-7.431V704.638A8.131,8.131,0,0,0,1091.454,696.507Z" transform="translate(-882.107 -695.358)" fill="#202020"/>
            <path id="Path_16405" data-name="Path 16405" d="M1091.406,696.437H890.959a8.13,8.13,0,0,0-8.13,8.13V827.834a7.43,7.43,0,0,0,7.431,7.431h201.846a7.431,7.431,0,0,0,7.431-7.431V704.567A8.131,8.131,0,0,0,1091.406,696.437Z" transform="translate(-882.084 -695.324)" fill="#1f1f1f"/>
            <path id="Path_16406" data-name="Path 16406" d="M1091.359,696.366H890.912a8.13,8.13,0,0,0-8.131,8.13V827.763a7.431,7.431,0,0,0,7.431,7.431h201.846a7.431,7.431,0,0,0,7.431-7.431V704.5A8.13,8.13,0,0,0,1091.359,696.366Z" transform="translate(-882.06 -695.289)" fill="#1e1e1e"/>
            <path id="Path_16407" data-name="Path 16407" d="M1091.312,696.295H890.864a8.13,8.13,0,0,0-8.13,8.13V827.692a7.431,7.431,0,0,0,7.431,7.431h201.846a7.431,7.431,0,0,0,7.431-7.431V704.425A8.13,8.13,0,0,0,1091.312,696.295Z" transform="translate(-882.037 -695.254)" fill="#1d1d1d"/>
            <path id="Path_16408" data-name="Path 16408" d="M1091.264,696.224H890.817a8.131,8.131,0,0,0-8.131,8.13V827.622a7.431,7.431,0,0,0,7.431,7.431h201.846a7.431,7.431,0,0,0,7.43-7.431V704.354A8.13,8.13,0,0,0,1091.264,696.224Z" transform="translate(-882.013 -695.219)" fill="#1c1c1c"/>
            <path id="Path_16409" data-name="Path 16409" d="M1091.217,696.153H890.77a8.131,8.131,0,0,0-8.131,8.131V827.551a7.431,7.431,0,0,0,7.431,7.431h201.846a7.431,7.431,0,0,0,7.431-7.431V704.284A8.131,8.131,0,0,0,1091.217,696.153Z" transform="translate(-881.99 -695.184)" fill="#1b1b1b"/>
            <path id="Path_16410" data-name="Path 16410" d="M1091.169,696.082H890.722a8.131,8.131,0,0,0-8.13,8.131V827.48a7.431,7.431,0,0,0,7.431,7.431h201.846a7.431,7.431,0,0,0,7.431-7.431V704.213A8.131,8.131,0,0,0,1091.169,696.082Z" transform="translate(-881.967 -695.149)" fill="#1a1a1a"/>
            <path id="Path_16411" data-name="Path 16411" d="M1091.122,696.012H890.675a8.131,8.131,0,0,0-8.131,8.13V827.409a7.431,7.431,0,0,0,7.431,7.431h201.846a7.431,7.431,0,0,0,7.431-7.431V704.142A8.13,8.13,0,0,0,1091.122,696.012Z" transform="translate(-881.943 -695.114)" fill="#191919"/>
            <path id="Path_16412" data-name="Path 16412" d="M1091.075,695.941H890.627a8.13,8.13,0,0,0-8.13,8.13V827.338a7.431,7.431,0,0,0,7.431,7.431h201.846a7.431,7.431,0,0,0,7.431-7.431V704.071A8.13,8.13,0,0,0,1091.075,695.941Z" transform="translate(-881.92 -695.079)" fill="#181818"/>
            <path id="Path_16413" data-name="Path 16413" d="M1091.027,695.87H890.58a8.131,8.131,0,0,0-8.131,8.13V827.267a7.431,7.431,0,0,0,7.431,7.431h201.846a7.43,7.43,0,0,0,7.431-7.431V704A8.13,8.13,0,0,0,1091.027,695.87Z" transform="translate(-881.896 -695.044)" fill="#171717"/>
            <path id="Path_16414" data-name="Path 16414" d="M1090.98,695.8H890.532a8.131,8.131,0,0,0-8.13,8.13V827.2a7.431,7.431,0,0,0,7.431,7.431h201.846a7.431,7.431,0,0,0,7.431-7.431V703.929A8.131,8.131,0,0,0,1090.98,695.8Z" transform="translate(-881.873 -695.009)" fill="#161616"/>
            <path id="Path_16415" data-name="Path 16415" d="M1090.932,695.728H890.485a8.131,8.131,0,0,0-8.13,8.131V827.126a7.431,7.431,0,0,0,7.431,7.431h201.846a7.431,7.431,0,0,0,7.43-7.431V703.859A8.13,8.13,0,0,0,1090.932,695.728Z" transform="translate(-881.85 -694.974)" fill="#151515"/>
            <path id="Path_16416" data-name="Path 16416" d="M1090.885,695.657H890.438a8.131,8.131,0,0,0-8.131,8.131V827.055a7.431,7.431,0,0,0,7.431,7.431h201.846a7.431,7.431,0,0,0,7.431-7.431V703.788A8.131,8.131,0,0,0,1090.885,695.657Z" transform="translate(-881.826 -694.939)" fill="#141414"/>
            <path id="Path_16417" data-name="Path 16417" d="M1090.837,695.587H890.39a8.13,8.13,0,0,0-8.13,8.13V826.984a7.431,7.431,0,0,0,7.431,7.431h201.846a7.431,7.431,0,0,0,7.431-7.431V703.717A8.131,8.131,0,0,0,1090.837,695.587Z" transform="translate(-881.803 -694.905)" fill="#131313"/>
            <path id="Path_16418" data-name="Path 16418" d="M1090.79,695.516H890.343a8.131,8.131,0,0,0-8.131,8.13V826.913a7.431,7.431,0,0,0,7.431,7.431h201.846a7.431,7.431,0,0,0,7.431-7.431V703.646A8.13,8.13,0,0,0,1090.79,695.516Z" transform="translate(-881.78 -694.87)" fill="#121212"/>
            <path id="Path_16419" data-name="Path 16419" d="M1090.743,695.445H890.3a8.13,8.13,0,0,0-8.13,8.13V826.843a7.431,7.431,0,0,0,7.431,7.431h201.846a7.431,7.431,0,0,0,7.431-7.431V703.575A8.13,8.13,0,0,0,1090.743,695.445Z" transform="translate(-881.756 -694.835)" fill="#111"/>
            <path id="Path_16420" data-name="Path 16420" d="M1090.695,695.374H890.248a8.131,8.131,0,0,0-8.131,8.13V826.772a7.431,7.431,0,0,0,7.431,7.431h201.846a7.431,7.431,0,0,0,7.43-7.431V703.5A8.13,8.13,0,0,0,1090.695,695.374Z" transform="translate(-881.733 -694.8)" fill="#101010"/>
            <path id="Path_16421" data-name="Path 16421" d="M1090.648,695.3H890.2a8.131,8.131,0,0,0-8.131,8.131V826.7a7.431,7.431,0,0,0,7.431,7.431h201.846a7.431,7.431,0,0,0,7.431-7.431V703.434A8.131,8.131,0,0,0,1090.648,695.3Z" transform="translate(-881.71 -694.765)" fill="#0f0f0f"/>
            <path id="Path_16422" data-name="Path 16422" d="M1090.6,695.232H890.153a8.131,8.131,0,0,0-8.13,8.131V826.63a7.431,7.431,0,0,0,7.431,7.431H1091.3a7.431,7.431,0,0,0,7.431-7.431V703.363A8.131,8.131,0,0,0,1090.6,695.232Z" transform="translate(-881.686 -694.73)" fill="#0e0e0e"/>
            <path id="Path_16423" data-name="Path 16423" d="M1090.553,695.162H890.106a8.131,8.131,0,0,0-8.131,8.13V826.559a7.431,7.431,0,0,0,7.431,7.431h201.846a7.431,7.431,0,0,0,7.431-7.431V703.292A8.13,8.13,0,0,0,1090.553,695.162Z" transform="translate(-881.663 -694.695)" fill="#0d0d0d"/>
            <path id="Path_16424" data-name="Path 16424" d="M1090.505,695.091H890.058a8.13,8.13,0,0,0-8.13,8.13V826.488a7.431,7.431,0,0,0,7.431,7.431h201.846a7.431,7.431,0,0,0,7.431-7.431V703.221A8.131,8.131,0,0,0,1090.505,695.091Z" transform="translate(-881.64 -694.66)" fill="#0c0c0c"/>
            <path id="Path_16425" data-name="Path 16425" d="M1090.458,695.02H890.011a8.131,8.131,0,0,0-8.131,8.13V826.417a7.431,7.431,0,0,0,7.431,7.431h201.846a7.43,7.43,0,0,0,7.431-7.431V703.15A8.13,8.13,0,0,0,1090.458,695.02Z" transform="translate(-881.616 -694.625)" fill="#0b0b0b"/>
            <path id="Path_16426" data-name="Path 16426" d="M1090.411,694.949H889.963a8.131,8.131,0,0,0-8.13,8.13V826.347a7.431,7.431,0,0,0,7.431,7.431H1091.11a7.431,7.431,0,0,0,7.431-7.431V703.079A8.131,8.131,0,0,0,1090.411,694.949Z" transform="translate(-881.593 -694.59)" fill="#0a0a0a"/>
            <path id="Path_16427" data-name="Path 16427" d="M1090.363,694.878H889.916a8.131,8.131,0,0,0-8.13,8.131V826.276a7.431,7.431,0,0,0,7.431,7.431h201.846a7.431,7.431,0,0,0,7.43-7.431V703.009A8.13,8.13,0,0,0,1090.363,694.878Z" transform="translate(-881.57 -694.555)" fill="#090909"/>
            <path id="Path_16428" data-name="Path 16428" d="M1090.316,694.807H889.869a8.131,8.131,0,0,0-8.131,8.131V826.2a7.431,7.431,0,0,0,7.431,7.431h201.846a7.431,7.431,0,0,0,7.431-7.431V702.938A8.131,8.131,0,0,0,1090.316,694.807Z" transform="translate(-881.546 -694.52)" fill="#080808"/>
            <path id="Path_16429" data-name="Path 16429" d="M1090.268,694.737H889.821a8.13,8.13,0,0,0-8.13,8.13V826.134a7.431,7.431,0,0,0,7.431,7.431h201.846a7.431,7.431,0,0,0,7.431-7.431V702.867A8.131,8.131,0,0,0,1090.268,694.737Z" transform="translate(-881.523 -694.486)" fill="#070707"/>
            <path id="Path_16430" data-name="Path 16430" d="M1090.221,694.666H889.774a8.131,8.131,0,0,0-8.131,8.13V826.063a7.431,7.431,0,0,0,7.431,7.431H1090.92a7.43,7.43,0,0,0,7.431-7.431V702.8A8.13,8.13,0,0,0,1090.221,694.666Z" transform="translate(-881.499 -694.451)" fill="#060606"/>
            <path id="Path_16431" data-name="Path 16431" d="M1090.174,694.595H889.726a8.13,8.13,0,0,0-8.13,8.13V825.992a7.43,7.43,0,0,0,7.431,7.431h201.846a7.431,7.431,0,0,0,7.431-7.431V702.725A8.13,8.13,0,0,0,1090.174,694.595Z" transform="translate(-881.476 -694.416)" fill="#050505"/>
            <path id="Path_16432" data-name="Path 16432" d="M1090.126,694.524H889.679a8.131,8.131,0,0,0-8.131,8.13V825.922a7.431,7.431,0,0,0,7.431,7.431h201.846a7.431,7.431,0,0,0,7.43-7.431V702.654A8.13,8.13,0,0,0,1090.126,694.524Z" transform="translate(-881.452 -694.381)" fill="#040404"/>
            <path id="Path_16433" data-name="Path 16433" d="M1090.079,694.453H889.632a8.131,8.131,0,0,0-8.131,8.131V825.851a7.431,7.431,0,0,0,7.431,7.431h201.846a7.431,7.431,0,0,0,7.431-7.431V702.584A8.131,8.131,0,0,0,1090.079,694.453Z" transform="translate(-881.429 -694.346)" fill="#030303"/>
            <path id="Path_16434" data-name="Path 16434" d="M1090.031,694.382H889.584a8.131,8.131,0,0,0-8.13,8.131V825.78a7.431,7.431,0,0,0,7.431,7.431h201.846a7.431,7.431,0,0,0,7.431-7.431V702.513A8.131,8.131,0,0,0,1090.031,694.382Z" transform="translate(-881.406 -694.311)" fill="#020202"/>
            <path id="Path_16435" data-name="Path 16435" d="M1089.984,694.312H889.537a8.131,8.131,0,0,0-8.131,8.13V825.709a7.431,7.431,0,0,0,7.431,7.431h201.846a7.43,7.43,0,0,0,7.431-7.431V702.442A8.13,8.13,0,0,0,1089.984,694.312Z" transform="translate(-881.382 -694.276)" fill="#010101"/>
            <path id="Path_16436" data-name="Path 16436" d="M1089.936,694.241H889.489a8.13,8.13,0,0,0-8.13,8.13V825.638a7.431,7.431,0,0,0,7.431,7.431h201.846a7.431,7.431,0,0,0,7.431-7.431V702.371A8.13,8.13,0,0,0,1089.936,694.241Z" transform="translate(-881.359 -694.241)"/>
          </g>
          <g id="Group_8417" data-name="Group 8417">
            <path id="Path_16437" data-name="Path 16437" d="M888.79,855.413h201.846a7.431,7.431,0,0,0,7.431-7.431V739.61H881.359V847.983A7.431,7.431,0,0,0,888.79,855.413Z" transform="translate(-881.359 -716.585)" fill="url(#linear-gradient-19)"/>
            <path id="Path_16438" data-name="Path 16438" d="M1089.936,694.184H889.489a8.131,8.131,0,0,0-8.13,8.13v14.9h216.708v-14.9A8.131,8.131,0,0,0,1089.936,694.184Z" transform="translate(-881.359 -694.184)" fill="url(#linear-gradient-20)"/>
            <circle id="Ellipse_1610" data-name="Ellipse 1610" cx="3.5" cy="3.5" r="3.5" transform="translate(9.402 7.41)" fill="url(#linear-gradient-21)"/>
            <circle id="Ellipse_1611" data-name="Ellipse 1611" cx="3.5" cy="3.5" r="3.5" transform="translate(21.987 7.41)" fill="url(#linear-gradient-22)"/>
            <circle id="Ellipse_1612" data-name="Ellipse 1612" cx="3.5" cy="3.5" r="3.5" transform="translate(34.571 7.41)" fill="url(#linear-gradient-23)"/>
          </g>
          <rect id="Rectangle_2116" data-name="Rectangle 2116" width="98.382" height="2.726" transform="translate(113.747 29.237)" fill="#fff"/>
          <rect id="Rectangle_2117" data-name="Rectangle 2117" width="49.191" height="2.726" transform="translate(113.747 37.208)" fill="#fff"/>
          <rect id="Rectangle_2118" data-name="Rectangle 2118" width="49.191" height="2.726" transform="translate(113.747 45.179)" fill="#fff"/>
          <rect id="Rectangle_2119" data-name="Rectangle 2119" width="98.382" height="2.726" transform="translate(113.747 106.301)" fill="#fff"/>
          <rect id="Rectangle_2120" data-name="Rectangle 2120" width="49.191" height="2.726" transform="translate(113.747 114.272)" fill="#fff"/>
          <rect id="Rectangle_2121" data-name="Rectangle 2121" width="49.191" height="2.726" transform="translate(113.747 122.242)" fill="#fff"/>
          <rect id="Rectangle_2122" data-name="Rectangle 2122" width="98.382" height="2.726" transform="translate(113.747 81.469)" fill="#fff"/>
          <rect id="Rectangle_2123" data-name="Rectangle 2123" width="49.191" height="2.726" transform="translate(113.747 89.44)" fill="#fff"/>
          <rect id="Rectangle_2124" data-name="Rectangle 2124" width="49.191" height="2.726" transform="translate(113.747 97.41)" fill="#fff"/>
          <rect id="Rectangle_2125" data-name="Rectangle 2125" width="98.382" height="2.726" transform="translate(113.747 55.353)" fill="#fff"/>
          <rect id="Rectangle_2126" data-name="Rectangle 2126" width="49.191" height="2.726" transform="translate(113.747 63.324)" fill="#fff"/>
          <rect id="Rectangle_2127" data-name="Rectangle 2127" width="49.191" height="2.726" transform="translate(113.747 71.295)" fill="#fff"/>
          <rect id="Rectangle_2128" data-name="Rectangle 2128" width="99.744" height="6.806" transform="translate(105.872 36.043) rotate(180)" fill="#fff"/>
          <rect id="Rectangle_2129" data-name="Rectangle 2129" width="99.744" height="83.202" transform="translate(6.129 41.766)" fill="#fff"/>
        </g>
      </g>
      <g id="Group_8423" data-name="Group 8423" transform="translate(392.895 241.728)">
        <g id="Group_8421" data-name="Group 8421">
          <g id="Group_8420" data-name="Group 8420">
            <path id="Path_16439" data-name="Path 16439" d="M1408.5,807.4s-23.734-9.557-36.14-25.631-21.576-80.8-21.576-80.8l57.716-20.852.012,0v-4.9l-.012,0-62.163,22.459s9.876,69.718,23.239,87.029S1408.5,812.3,1408.5,812.3l.012,0v-4.9Z" transform="translate(-1346.337 -675.209)" fill="url(#linear-gradient-24)"/>
            <path id="Path_16440" data-name="Path 16440" d="M1355.112,705.737s9.17,64.729,21.576,80.8,36.14,25.631,36.14,25.631l.012,0V684.889l-.012,0Z" transform="translate(-1350.664 -679.98)" fill="url(#linear-gradient-24)"/>
            <path id="Path_16441" data-name="Path 16441" d="M1507.913,784.7c13.362-17.312,23.238-87.029,23.238-87.029L1469,675.217v4.9l57.7,20.848s-9.169,64.729-21.576,80.8c-12.34,15.987-35.876,25.524-36.128,25.626v4.9C1469.252,812.2,1494.617,801.928,1507.913,784.7Z" transform="translate(-1406.825 -675.213)" fill="url(#linear-gradient-24)"/>
            <path id="Path_16442" data-name="Path 16442" d="M1505.128,786.543c12.406-16.074,21.576-80.8,21.576-80.8L1469,684.893V812.17C1469.252,812.068,1492.788,802.531,1505.128,786.543Z" transform="translate(-1406.825 -679.984)" fill="url(#linear-gradient-24)"/>
            <path id="Path_16443" data-name="Path 16443" d="M1420.8,702.716l-49.519,17.891s7.867,55.536,18.512,69.327,31.007,21.991,31.007,21.991,20.363-8.2,31.007-21.991,18.512-69.327,18.512-69.327Z" transform="translate(-1358.638 -688.773)" fill="#fff"/>
          </g>
          <path id="Path_16444" data-name="Path 16444" d="M1464.987,759.1h-.087v-2.39a17.68,17.68,0,0,0-35.36,0v2.39h-.086a4.6,4.6,0,0,0-4.6,4.6v30.039a4.6,4.6,0,0,0,4.6,4.6h35.533a4.6,4.6,0,0,0,4.6-4.6V763.695A4.6,4.6,0,0,0,1464.987,759.1Zm-14.647,16.794v13.847H1444.1V775.892a6.143,6.143,0,0,1,1.471-11.224,6.531,6.531,0,0,1,3.3,0,6.142,6.142,0,0,1,1.471,11.224Zm7.2-16.794H1436.9v-2.39a10.318,10.318,0,0,1,20.636,0Z" transform="translate(-1385.056 -706.681)" fill="url(#linear-gradient)"/>
        </g>
        <g id="Group_8422" data-name="Group 8422" transform="translate(39.479 94.879)">
          <path id="Path_16445" data-name="Path 16445" d="M1430.427,865.36l-1.465-2.968-1.464,2.968-3.275.476,2.37,2.31-.559,3.262,2.929-1.54,2.929,1.54-.559-3.262,2.37-2.31Z" transform="translate(-1424.223 -862.393)" fill="url(#linear-gradient-7)"/>
          <path id="Path_16446" data-name="Path 16446" d="M1452.082,865.36l-1.465-2.968-1.465,2.968-3.275.476,2.37,2.31-.56,3.262,2.929-1.54,2.929,1.54-.559-3.262,2.37-2.31Z" transform="translate(-1434.902 -862.393)" fill="url(#linear-gradient-7)"/>
          <path id="Path_16447" data-name="Path 16447" d="M1473.738,865.36l-1.465-2.968-1.465,2.968-3.275.476,2.37,2.31-.56,3.262,2.929-1.54,2.929,1.54-.559-3.262,2.37-2.31Z" transform="translate(-1445.58 -862.393)" fill="url(#linear-gradient-7)"/>
          <path id="Path_16448" data-name="Path 16448" d="M1498.667,865.836l-3.275-.476-1.465-2.968-1.464,2.968-3.275.476,2.369,2.31-.559,3.262,2.929-1.54,2.929,1.54-.559-3.262Z" transform="translate(-1456.259 -862.393)" fill="url(#linear-gradient-7)"/>
        </g>
      </g>
      <path id="Path_16449" data-name="Path 16449" d="M1263.681,309.147c0-.2.014-.406.014-.61a45.566,45.566,0,0,0-88.939-13.965,33.03,33.03,0,1,0-33.456,56.536,23.548,23.548,0,0,0,11.519,2.994h30.958V336.763h-14.8l24.577-42.568,24.576,42.568h-14.8V354.1h16.356c.166,0,.331-.008.5-.011.214.007.434.011.665.011h37.6a22.782,22.782,0,0,0,22.782-22.782h0A22.786,22.786,0,0,0,1263.681,309.147Z" transform="translate(-842.821 -230.198)" fill="#ebf5ff"/>
      <g id="Group_8427" data-name="Group 8427" transform="translate(746.685 359.027)">
        <path id="Path_16472" data-name="Path 16472" d="M2092.64,973.007a18.7,18.7,0,0,1-2.895-4.1,10.2,10.2,0,0,1,.085-6.888c.69-2.241,1.746-4.361,2.348-6.626a17.634,17.634,0,0,0-3.939-16.113,25.54,25.54,0,0,1-2.542-2.862c-1.649-2.467-1.66-5.676-1.22-8.61s1.27-5.851,1.092-8.813a13.235,13.235,0,0,0-4.736-9.3c-2.707-2.229-6.346-3.012-9.857-3.063v0h-.111l-.111,0v0c-3.512.011-7.159.753-9.891,2.951a13.232,13.232,0,0,0-4.841,9.25c-.211,2.96.586,5.885.993,8.824s.359,6.148-1.317,8.6a25.615,25.615,0,0,1-2.575,2.833,17.633,17.633,0,0,0-4.12,16.068c.577,2.272,1.608,4.4,2.273,6.652a10.207,10.207,0,0,1,.007,6.889,18.681,18.681,0,0,1-2.941,4.066c-3.905,4.834-5.588,12.08-2.205,17.293a17.689,17.689,0,0,0,5.448,4.989,32.536,32.536,0,0,0,10.587,4.578,11,11,0,0,0,5.034.267,36.468,36.468,0,0,1,6.266.036,10.993,10.993,0,0,0,5.037-.21,32.536,32.536,0,0,0,10.638-4.457,17.685,17.685,0,0,0,5.5-4.927C2098.092,985.15,2096.491,977.884,2092.64,973.007Z" transform="translate(-2044.316 -906.624)" fill="url(#linear-gradient-24)"/>
        <path id="Path_16473" data-name="Path 16473" d="M2080.7,993.154c3.159-4.2,16.175-21.53,16.175-21.53l-16.244,17.4-.577-34.222c2.449-3.258,12.181-16.214,12.181-16.214L2080,951.7l-.35-20.794c1.061-1.41,8.8-11.712,8.8-11.712l-8.837,9.468-.247-14.614-.293,18.748-8.456-9.267s6.759,9.213,8.421,11.477l-.331,21.132-12.093-13.252s9.718,13.246,12.043,16.414l-.543,34.662-16.513-18.1s14.753,20.109,16.446,22.414l-.08,5.115h.03v5.59h2.915v-5.59h-.042Z" transform="translate(-2052.841 -910.283)" fill="#fff" opacity="0.3"/>
        <path id="Path_16474" data-name="Path 16474" d="M2071.365,1101.477h25.812l-4.835,20.408h-16.07Z" transform="translate(-2057.655 -1002.711)" fill="#4c4c4c"/>
        <rect id="Rectangle_2130" data-name="Rectangle 2130" width="25.812" height="1.548" transform="translate(13.71 97.219)" fill="url(#linear-gradient-34)"/>
      </g>
    </g>
  </g>
</svg>
