<svg xmlns="http://www.w3.org/2000/svg" xmlns:xlink="http://www.w3.org/1999/xlink" width="28" height="28" viewBox="0 0 28 28">
  <defs>
    <clipPath id="clip-path">
      <rect id="Rectangle_1169" data-name="Rectangle 1169" width="28" height="28" transform="translate(682 304)" fill="#fff" stroke="#707070" stroke-width="1"/>
    </clipPath>
    <linearGradient id="linear-gradient" x1="0.726" y1="1" x2="1.087" y2="1.614" gradientUnits="objectBoundingBox">
      <stop offset="0" stop-color="#a13098"/>
      <stop offset="0.515" stop-color="#cd4d6e"/>
      <stop offset="1" stop-color="#fb6b43"/>
    </linearGradient>
    <linearGradient id="linear-gradient-2" x1="-0.065" y1="1.229" x2="1.087" y2="1.614" xlink:href="#linear-gradient"/>
    <linearGradient id="linear-gradient-3" x1="-0.63" y1="2.508" x2="-1.705" y2="2.014" xlink:href="#linear-gradient"/>
    <linearGradient id="linear-gradient-4" x1="2.078" y1="3.95" x2="-0.315" y2="0.097" xlink:href="#linear-gradient"/>
  </defs>
  <g id="logo" transform="translate(-682 -304)" clip-path="url(#clip-path)">
    <g id="Group_5585" data-name="Group 5585" transform="translate(-461.369 26.636)">
      <g id="logo-2" data-name="logo" transform="translate(1144 282.018)">
        <g id="Layer_2" data-name="Layer 2" transform="translate(0 0)">
          <g id="Layer_1" data-name="Layer 1" transform="translate(0 0)">
            <path id="Path_9222" data-name="Path 9222" d="M27.122,47.16v5.847A6.47,6.47,0,0,1,18,47.369a4.474,4.474,0,0,0,.067.59,4.561,4.561,0,0,0,9.051-.8Z" transform="translate(-15.128 -39.723)" fill="url(#linear-gradient)"/>
            <path id="Path_9223" data-name="Path 9223" d="M105.577,13.192a7.443,7.443,0,0,1-7.437,7.437h-.289a4.782,4.782,0,0,1-.5-.037,7.368,7.368,0,0,1-1.944-.479,1.438,1.438,0,0,1-.832-1.8.2.2,0,0,1,.024-.069c.01-.022.032-.072.048-.105a1.438,1.438,0,0,1,1.818-.7,4.56,4.56,0,1,0-2.791-5.151,6.509,6.509,0,0,1,9.239-4.793h0a7.571,7.571,0,0,1,.78.756c.112.128.22.259.32.393a7.4,7.4,0,0,1,1.569,4.552Z" transform="translate(-78.708 -5.756)" fill="url(#linear-gradient-2)"/>
            <path id="Path_9224" data-name="Path 9224" d="M87.306,1.741a6.509,6.509,0,0,0-9.239,4.793c-.026.121-.045.246-.059.371a4.565,4.565,0,0,0-.032.537v9.817a1.438,1.438,0,0,1-2.876,0V7.441a7.432,7.432,0,0,1,12.206-5.7Z" transform="translate(-63.105 -0.005)" fill="url(#linear-gradient-3)"/>
            <path id="Path_9225" data-name="Path 9225" d="M12.015,13.893v.022A7.381,7.381,0,0,1,8.542,15.4c-.19.029-.382.05-.577.062-.169.011-.339.019-.511.019A7.437,7.437,0,1,1,9.483.89,1.438,1.438,0,0,1,10.5,2.545a.463.463,0,0,1-.027.12.046.046,0,0,1-.011.035,1.438,1.438,0,0,1-1.757.959,4.588,4.588,0,0,0-1.245-.173,4.54,4.54,0,0,0-1.984.454,4.633,4.633,0,0,0-.775.479,4.555,4.555,0,0,0-1.81,3.505c0,.035,0,.072,0,.107V8.26a6.47,6.47,0,0,0,9.122,5.633Z" transform="translate(-0.02 -0.608)" fill="url(#linear-gradient-4)"/>
          </g>
        </g>
      </g>
    </g>
  </g>
</svg>
