<svg xmlns="http://www.w3.org/2000/svg" xmlns:xlink="http://www.w3.org/1999/xlink" width="26" height="26" viewBox="0 0 26 26">
  <defs>
    <clipPath id="clip-path">
      <rect id="Rectangle_2444" data-name="Rectangle 2444" width="26" height="26" transform="translate(1449 229)" fill="red"/>
    </clipPath>
  </defs>
  <g id="near_dr_site" transform="translate(-1449 -229)" clip-path="url(#clip-path)">
    <g id="Group_8834" data-name="Group 8834" transform="translate(1450.084 232.25)">
      <g id="Group_8833" data-name="Group 8833" transform="translate(0)">
        <g id="Group_8832" data-name="Group 8832" transform="translate(0 0)">
          <g id="Rectangle_2442" data-name="Rectangle 2442" fill="none" stroke="#fff" stroke-linecap="round" stroke-linejoin="round" stroke-width="1">
            <rect width="10.448" height="15.299" rx="1" stroke="none"/>
            <rect x="0.5" y="0.5" width="9.448" height="14.299" rx="0.5" fill="none"/>
          </g>
          <g id="Rectangle_2443" data-name="Rectangle 2443" transform="translate(13.342)" fill="none" stroke="#fff" stroke-linecap="round" stroke-linejoin="round" stroke-width="1">
            <rect width="10.448" height="15.299" rx="1" stroke="none"/>
            <rect x="0.5" y="0.5" width="9.448" height="14.299" rx="0.5" fill="none"/>
          </g>
          <path id="Path_17594" data-name="Path 17594" d="M-6971.374-9000.25h8.542" transform="translate(6972.369 9004.541)" fill="none" stroke="#fff" stroke-linecap="round" stroke-width="1"/>
          <path id="Path_17595" data-name="Path 17595" d="M-6971.374-9000.25h8.478" transform="translate(6985.709 9004.541)" fill="none" stroke="#fff" stroke-linecap="round" stroke-width="1"/>
          <path id="Path_17596" data-name="Path 17596" d="M-6971.375-9000.25h2.589" transform="translate(6976.342 9002.583)" fill="none" stroke="#fff" stroke-linecap="round" stroke-width="1"/>
          <path id="Path_17597" data-name="Path 17597" d="M-6971.375-9000.25h2.589" transform="translate(6989.684 9002.583)" fill="none" stroke="#fff" stroke-linecap="round" stroke-width="1"/>
          <path id="Path_17598" data-name="Path 17598" d="M-6971.375-9000.25h2.589" transform="translate(6976.342 9006.314)" fill="none" stroke="#fff" stroke-linecap="round" stroke-width="1"/>
          <path id="Path_17599" data-name="Path 17599" d="M-6971.375-9000.25h2.589" transform="translate(6989.684 9006.314)" fill="none" stroke="#fff" stroke-linecap="round" stroke-width="1"/>
          <path id="Path_17600" data-name="Path 17600" d="M-6971.375-9000.25h2.589" transform="translate(6976.342 9009.672)" fill="none" stroke="#fff" stroke-linecap="round" stroke-width="1"/>
          <path id="Path_17601" data-name="Path 17601" d="M-6971.375-9000.25h2.589" transform="translate(6989.684 9009.672)" fill="none" stroke="#fff" stroke-linecap="round" stroke-width="1"/>
          <path id="Path_17602" data-name="Path 17602" d="M-6971.375-9000.25h2.589" transform="translate(6976.342 9013.403)" fill="none" stroke="#fff" stroke-linecap="round" stroke-width="1"/>
          <path id="Path_17603" data-name="Path 17603" d="M-6971.375-9000.25h2.589" transform="translate(6989.684 9013.403)" fill="none" stroke="#fff" stroke-linecap="round" stroke-width="1"/>
          <path id="Path_17604" data-name="Path 17604" d="M-6971.374-9000.25h8.542" transform="translate(6972.369 9007.9)" fill="none" stroke="#fff" stroke-linecap="round" stroke-width="1"/>
          <path id="Path_17605" data-name="Path 17605" d="M-6971.374-9000.25h8.478" transform="translate(6985.709 9007.9)" fill="none" stroke="#fff" stroke-linecap="round" stroke-width="1"/>
          <path id="Path_17606" data-name="Path 17606" d="M-6971.374-9000.25h8.542" transform="translate(6972.369 9011.631)" fill="none" stroke="#fff" stroke-linecap="round" stroke-width="1"/>
          <path id="Path_17607" data-name="Path 17607" d="M3.439,13.06H.857A.857.857,0,0,1,0,12.2V.857A.857.857,0,0,1,.857,0H3.439" transform="translate(5.492 18.204) rotate(-90)" fill="none" stroke="#fff" stroke-linejoin="round" stroke-width="1"/>
          <path id="Path_17608" data-name="Path 17608" d="M-6971.374-9000.25h8.478" transform="translate(6985.709 9011.631)" fill="none" stroke="#fff" stroke-linecap="round" stroke-width="1"/>
          <path id="Path_17609" data-name="Path 17609" d="M-577.245,396.449a.467.467,0,0,1-.466.467.467.467,0,0,1-.467-.467.466.466,0,0,1,.467-.466A.466.466,0,0,1-577.245,396.449Z" transform="translate(580.072 -394.117)" fill="#fff"/>
          <path id="Path_17610" data-name="Path 17610" d="M-577.245,396.449a.467.467,0,0,1-.466.467.467.467,0,0,1-.467-.467.466.466,0,0,1,.467-.466A.466.466,0,0,1-577.245,396.449Z" transform="translate(593.414 -394.117)" fill="#fff"/>
          <path id="Path_17611" data-name="Path 17611" d="M-577.245,396.449a.467.467,0,0,1-.466.467.467.467,0,0,1-.467-.467.466.466,0,0,1,.467-.466A.466.466,0,0,1-577.245,396.449Z" transform="translate(580.072 -390.386)" fill="#fff"/>
          <path id="Path_17612" data-name="Path 17612" d="M-577.245,396.449a.467.467,0,0,1-.466.467.467.467,0,0,1-.467-.467.466.466,0,0,1,.467-.466A.466.466,0,0,1-577.245,396.449Z" transform="translate(593.414 -390.386)" fill="#fff"/>
          <path id="Path_17613" data-name="Path 17613" d="M-577.245,396.449a.467.467,0,0,1-.466.467.467.467,0,0,1-.467-.467.466.466,0,0,1,.467-.466A.466.466,0,0,1-577.245,396.449Z" transform="translate(580.072 -387.028)" fill="#fff"/>
          <path id="Path_17614" data-name="Path 17614" d="M-577.245,396.449a.467.467,0,0,1-.466.467.467.467,0,0,1-.467-.467.466.466,0,0,1,.467-.466A.466.466,0,0,1-577.245,396.449Z" transform="translate(593.414 -387.028)" fill="#fff"/>
          <path id="Path_17615" data-name="Path 17615" d="M-577.245,396.449a.467.467,0,0,1-.466.467.467.467,0,0,1-.467-.467.466.466,0,0,1,.467-.466A.466.466,0,0,1-577.245,396.449Z" transform="translate(580.072 -383.296)" fill="#fff"/>
          <path id="Path_17616" data-name="Path 17616" d="M-577.245,396.449a.467.467,0,0,1-.466.467.467.467,0,0,1-.467-.467.466.466,0,0,1,.467-.466A.466.466,0,0,1-577.245,396.449Z" transform="translate(593.414 -383.296)" fill="#fff"/>
          <ellipse id="Ellipse_1648" data-name="Ellipse 1648" cx="1.321" cy="1.321" rx="1.321" ry="1.321" transform="translate(10.701 16.883)" fill="#fff" stroke="#fff" stroke-width="0.8"/>
        </g>
      </g>
    </g>
  </g>
</svg>
