<svg xmlns="http://www.w3.org/2000/svg" xmlns:xlink="http://www.w3.org/1999/xlink" viewBox="0 0 550 550"><defs><style>.cls-1{fill:none;}.cls-2{isolation:isolate;}.cls-3{clip-path:url(#clip-path);}.cls-4{fill:url(#linear-gradient);}.cls-5{fill:url(#linear-gradient-2);}.cls-6{fill:url(#linear-gradient-3);}.cls-7{fill:url(#linear-gradient-4);}.cls-8{fill:#edb48e;}.cls-9{fill:#363969;}.cls-10{fill:#f7eddf;}.cls-11{fill:#f68c44;}.cls-12{fill:#e66125;}.cls-13{fill:url(#linear-gradient-5);}.cls-14{fill:url(#linear-gradient-6);}.cls-15{fill:url(#linear-gradient-7);}.cls-16{fill:url(#linear-gradient-8);}.cls-17{fill:#fff;}.cls-18{fill:url(#linear-gradient-9);}.cls-19{fill:url(#linear-gradient-10);}.cls-20{fill:url(#linear-gradient-11);}.cls-21{fill:url(#linear-gradient-12);}.cls-22{fill:url(#linear-gradient-13);}.cls-23{fill:url(#linear-gradient-14);}.cls-24{fill:url(#linear-gradient-15);}.cls-25{fill:url(#linear-gradient-16);}.cls-26{fill:url(#linear-gradient-17);}.cls-27{fill:url(#linear-gradient-18);}.cls-28{fill:url(#linear-gradient-19);}.cls-29{fill:url(#linear-gradient-20);}.cls-30{fill:url(#linear-gradient-21);}.cls-31{fill:url(#linear-gradient-22);}.cls-32{fill:url(#linear-gradient-23);}.cls-33{fill:url(#linear-gradient-24);}.cls-34{fill:url(#linear-gradient-25);}.cls-35{fill:url(#linear-gradient-26);}.cls-36{fill:url(#linear-gradient-27);}.cls-37{fill:url(#linear-gradient-28);}.cls-38{fill:url(#linear-gradient-29);}.cls-39{fill:url(#linear-gradient-30);}.cls-40{fill:url(#linear-gradient-31);}.cls-41{fill:url(#linear-gradient-32);}.cls-42{fill:url(#linear-gradient-33);}.cls-43{fill:url(#linear-gradient-34);}.cls-44{fill:url(#linear-gradient-35);}.cls-45{fill:url(#linear-gradient-36);}.cls-46{fill:#2d335f;}.cls-47{opacity:0.3;mix-blend-mode:multiply;}.cls-48{fill:#fcfcfb;}.cls-49{fill:#f9f8f8;}.cls-50{fill:#f6f6f5;}.cls-51{fill:#f4f3f3;}.cls-52{fill:#f2f1f1;}.cls-53{fill:#f0efee;}.cls-54{fill:#eeedec;}.cls-55{fill:#ecebeb;}.cls-56{fill:#eae9e9;}.cls-57{fill:#e9e7e7;}.cls-58{fill:#e7e6e5;}.cls-59{fill:#e5e4e4;}.cls-60{fill:#e4e2e2;}.cls-61{fill:#e2e1e0;}.cls-62{fill:#e1dfdf;}.cls-63{fill:#dfdedd;}.cls-64{fill:#dedcdc;}.cls-65{fill:#dcdada;}.cls-66{fill:#dbd9d9;}.cls-67{fill:#d9d7d7;}.cls-68{fill:#d8d6d6;}.cls-69{fill:#d6d5d4;}.cls-70{fill:#d5d3d3;}.cls-71{fill:#d3d1d1;}.cls-72{fill:#d2d0d0;}.cls-73{fill:#d1cfce;}.cls-74{fill:#cfcdcd;}.cls-75{fill:#cecccc;}.cls-76{fill:#cccaca;}.cls-77{fill:#cbc9c9;}.cls-78{fill:#c9c7c7;}.cls-79{fill:#c8c6c6;}.cls-80{fill:#c7c4c4;}.cls-81{fill:#c5c3c3;}.cls-82{fill:#c4c2c2;}.cls-83{fill:#c3c0c0;}.cls-84{fill:#c1bfbf;}.cls-85{fill:#c0bebd;}.cls-86{fill:#bebcbc;}.cls-87{fill:#bdbbbb;}.cls-88{fill:#bcb9b9;}.cls-89{fill:#bbb8b8;}.cls-90{fill:#b9b7b7;}.cls-91{fill:#b8b5b5;}.cls-92{fill:#b7b4b4;}.cls-93{fill:#b5b3b3;}.cls-94{fill:#b4b1b1;}.cls-95{fill:#b3b0b0;}.cls-96{fill:#b1afaf;}.cls-97{fill:#b0adad;}.cls-98{fill:#afacac;}.cls-99{fill:#aeabab;}.cls-100{fill:#acaaa9;}.cls-101{fill:#aba8a8;}.cls-102{fill:#aaa7a7;}.cls-103{fill:#a9a6a6;}.cls-104{fill:#a7a5a4;}.cls-105{fill:#a6a3a3;}.cls-106{fill:#a5a2a2;}.cls-107{fill:#a4a1a1;}.cls-108{fill:#a3a09f;}.cls-109{fill:#a19e9e;}.cls-110{fill:#a09d9d;}.cls-111{fill:#9f9c9c;}.cls-112{fill:#9e9b9b;}.cls-113{fill:#9d9a99;}.cls-114{fill:#9b9898;}.cls-115{fill:#9a9797;}.cls-116{fill:#999696;}.cls-117{fill:#989595;}.cls-118{fill:#979393;}.cls-119{fill:#959292;}.cls-120{fill:#949191;}.cls-121{fill:#939090;}.cls-122{fill:#928f8f;}.cls-123{fill:#918e8e;}.cls-124{fill:#908c8c;}.cls-125{fill:#8e8b8b;}.cls-126{fill:#8d8a8a;}.cls-127{fill:#8c8989;}.cls-128{fill:#8b8888;}.cls-129{fill:#8a8787;}.cls-130{fill:#898686;}.cls-131{fill:#888484;}.cls-132{fill:#868383;}.cls-133{fill:#858282;}.cls-134{fill:#848181;}.cls-135{fill:#838080;}.cls-136{fill:#827f7f;}.cls-137{fill:#817e7e;}.cls-138{fill:#807d7d;}.cls-139{fill:#7f7c7c;}.cls-140{fill:#7e7b7a;}.cls-141{fill:#7d7979;}.cls-142{fill:#7c7878;}.cls-143{fill:#7b7777;}.cls-144{fill:#7a7676;}.cls-145{fill:#797575;}.cls-146{fill:#777474;}.cls-147{fill:#767373;}.cls-148{fill:#757272;}.cls-149{fill:#747171;}.cls-150{fill:#737070;}.cls-151{fill:#726f6f;}.cls-152{fill:#716e6e;}.cls-153{fill:#706d6d;}.cls-154{fill:#6f6c6c;}.cls-155{fill:#6e6b6b;}.cls-156{fill:#6d6a6a;}.cls-157{fill:#6c6969;}.cls-158{fill:#6b6868;}.cls-159{fill:#6a6767;}.cls-160{fill:#696666;}.cls-161{fill:#686565;}.cls-162{fill:#676464;}.cls-163{fill:#666363;}.cls-164{fill:#656262;}.cls-165{fill:#646261;}.cls-166{fill:#646160;}.cls-167{fill:#63605f;}.cls-168{fill:#625f5e;}.cls-169{fill:#615e5d;}.cls-170{fill:#605d5d;}.cls-171{fill:#5f5c5c;}.cls-172{fill:#5e5b5b;}.cls-173{fill:#5d5a5a;}.cls-174{fill:#5c5959;}.cls-175{fill:#5b5858;}.cls-176{fill:#5a5857;}.cls-177{fill:#595756;}.cls-178{fill:#595655;}.cls-179{fill:#585554;}.cls-180{fill:#575454;}.cls-181{fill:#565353;}.cls-182{fill:#555252;}.cls-183{fill:#545251;}.cls-184{fill:#535150;}.cls-185{fill:#53504f;}.cls-186{fill:#524f4e;}.cls-187{fill:#514e4e;}.cls-188{fill:#504d4d;}.cls-189{fill:#4f4d4c;}.cls-190{fill:#4e4c4b;}.cls-191{fill:#4d4b4a;}.cls-192{fill:#4d4a4a;}.cls-193{fill:#4c4949;}.cls-194{fill:#4b4848;}.cls-195{fill:#4a4847;}.cls-196{fill:#494746;}.cls-197{fill:#484646;}.cls-198{fill:#484545;}.cls-199{fill:#474444;}.cls-200{fill:#464443;}.cls-201{fill:#454342;}.cls-202{fill:#444242;}.cls-203{fill:#444141;}.cls-204{fill:#434140;}.cls-205{fill:#42403f;}.cls-206{fill:#413f3e;}.cls-207{fill:#403e3e;}.cls-208{fill:#403d3d;}.cls-209{fill:#3f3d3c;}.cls-210{fill:#3e3c3b;}.cls-211{fill:#3d3b3b;}.cls-212{fill:#3c3a3a;}.cls-213{fill:#3c3a39;}.cls-214{fill:#3b3938;}.cls-215{fill:#3a3838;}.cls-216{fill:#393737;}.cls-217{fill:#383736;}.cls-218{fill:#383635;}.cls-219{fill:#373535;}.cls-220{fill:#363434;}.cls-221{fill:#353433;}.cls-222{fill:#353332;}.cls-223{fill:#343232;}.cls-224{fill:#333131;}.cls-225{fill:#323130;}.cls-226{fill:#31302f;}.cls-227{fill:#312f2f;}.cls-228{fill:#302e2e;}.cls-229{fill:#2f2e2d;}.cls-230{fill:#2e2d2c;}.cls-231{fill:#2d2c2c;}.cls-232{fill:#2d2b2b;}.cls-233{fill:#2c2b2a;}.cls-234{fill:#2b2a29;}.cls-235{fill:#2a2929;}.cls-236{fill:#292828;}.cls-237{fill:#292827;}.cls-238{fill:#282726;}.cls-239{fill:#272626;}.cls-240{fill:#262525;}.cls-241{fill:#252424;}.cls-242{fill:#242423;}.cls-243{fill:#242323;}.cls-244{fill:#232222;}.cls-245{fill:#222121;}.cls-246{fill:#212020;}.cls-247{fill:#20201f;}.cls-248{fill:#1f1f1e;}.cls-249{fill:#1e1e1e;}.cls-250{fill:#1e1d1d;}.cls-251{fill:#1d1c1c;}.cls-252{fill:#1c1b1b;}.cls-253{fill:#1b1b1a;}.cls-254{fill:#1a1a19;}.cls-255{fill:#191919;}.cls-256{fill:#181818;}.cls-257{fill:#171717;}.cls-258{fill:#161616;}.cls-259{fill:#151515;}.cls-260{fill:#141414;}.cls-261{fill:#131313;}.cls-262{fill:#121212;}.cls-263{fill:#111;}.cls-264{fill:#101010;}.cls-265{fill:#0f0f0f;}.cls-266{fill:#0e0e0e;}.cls-267{fill:#0d0d0d;}.cls-268{fill:#0b0b0b;}.cls-269{fill:#0a0a0a;}.cls-270{fill:#090909;}.cls-271{fill:#070707;}.cls-272{fill:#060606;}.cls-273{fill:#050505;}.cls-274{fill:#040404;}.cls-275{fill:#020202;}.cls-276{fill:#010101;}.cls-277{fill:#f2cbe0;}.cls-278{fill:url(#linear-gradient-37);}.cls-279{fill:url(#linear-gradient-38);}.cls-280{fill:url(#linear-gradient-39);}.cls-281{fill:url(#linear-gradient-40);}.cls-282{fill:url(#linear-gradient-41);}.cls-283{fill:url(#linear-gradient-42);}.cls-284{fill:url(#linear-gradient-43);}.cls-285{fill:url(#linear-gradient-44);}.cls-286{fill:url(#linear-gradient-45);}.cls-287{fill:url(#linear-gradient-46);}.cls-288{fill:url(#linear-gradient-47);}.cls-289{fill:url(#linear-gradient-48);}</style><clipPath id="clip-path"><rect class="cls-1" width="550" height="550"/></clipPath><linearGradient id="linear-gradient" x1="205.28" y1="165.73" x2="378.37" y2="165.73" gradientUnits="userSpaceOnUse"><stop offset="0" stop-color="#9f3694"/><stop offset="0.52" stop-color="#cd4f6f"/><stop offset="1" stop-color="#f26c46"/></linearGradient><linearGradient id="linear-gradient-2" x1="151.9" y1="190.01" x2="154.4" y2="190.01" xlink:href="#linear-gradient"/><linearGradient id="linear-gradient-3" x1="100.51" y1="190.09" x2="103.01" y2="190.09" xlink:href="#linear-gradient"/><linearGradient id="linear-gradient-4" x1="178.6" y1="94.61" x2="489.02" y2="94.61" xlink:href="#linear-gradient"/><linearGradient id="linear-gradient-5" x1="38.66" y1="292.92" x2="244.99" y2="292.92" xlink:href="#linear-gradient"/><linearGradient id="linear-gradient-6" x1="38.66" y1="305.89" x2="244.99" y2="305.89" xlink:href="#linear-gradient"/><linearGradient id="linear-gradient-7" x1="38.66" y1="318.86" x2="195.12" y2="318.86" xlink:href="#linear-gradient"/><linearGradient id="linear-gradient-8" x1="20.18" y1="292.34" x2="29.84" y2="292.34" xlink:href="#linear-gradient"/><linearGradient id="linear-gradient-9" x1="20.18" y1="305.14" x2="29.84" y2="305.14" xlink:href="#linear-gradient"/><linearGradient id="linear-gradient-10" x1="20.18" y1="317.94" x2="29.84" y2="317.94" xlink:href="#linear-gradient"/><linearGradient id="linear-gradient-11" x1="16.74" y1="50.67" x2="165.72" y2="50.67" xlink:href="#linear-gradient"/><linearGradient id="linear-gradient-12" x1="77.25" y1="76.99" x2="217.04" y2="76.99" xlink:href="#linear-gradient"/><linearGradient id="linear-gradient-13" x1="375.29" y1="357.75" x2="539.72" y2="357.75" xlink:href="#linear-gradient"/><linearGradient id="linear-gradient-14" x1="520.56" y1="340.41" x2="526.63" y2="340.41" xlink:href="#linear-gradient"/><linearGradient id="linear-gradient-15" x1="511.36" y1="340.41" x2="517.43" y2="340.41" xlink:href="#linear-gradient"/><linearGradient id="linear-gradient-16" x1="502.17" y1="340.41" x2="508.24" y2="340.41" xlink:href="#linear-gradient"/><linearGradient id="linear-gradient-17" x1="375.29" y1="285.09" x2="539.72" y2="285.09" xlink:href="#linear-gradient"/><linearGradient id="linear-gradient-18" x1="520.56" y1="267.75" x2="526.63" y2="267.75" xlink:href="#linear-gradient"/><linearGradient id="linear-gradient-19" x1="511.36" y1="267.75" x2="517.43" y2="267.75" xlink:href="#linear-gradient"/><linearGradient id="linear-gradient-20" x1="502.17" y1="267.75" x2="508.24" y2="267.75" xlink:href="#linear-gradient"/><linearGradient id="linear-gradient-21" x1="375.29" y1="212.43" x2="539.72" y2="212.43" xlink:href="#linear-gradient"/><linearGradient id="linear-gradient-22" x1="520.56" y1="195.1" x2="526.63" y2="195.1" xlink:href="#linear-gradient"/><linearGradient id="linear-gradient-23" x1="511.36" y1="195.1" x2="517.43" y2="195.1" xlink:href="#linear-gradient"/><linearGradient id="linear-gradient-24" x1="502.17" y1="195.1" x2="508.24" y2="195.1" xlink:href="#linear-gradient"/><linearGradient id="linear-gradient-25" x1="375.29" y1="139.78" x2="539.72" y2="139.78" xlink:href="#linear-gradient"/><linearGradient id="linear-gradient-26" x1="520.56" y1="122.44" x2="526.63" y2="122.44" xlink:href="#linear-gradient"/><linearGradient id="linear-gradient-27" x1="511.36" y1="122.44" x2="517.43" y2="122.44" xlink:href="#linear-gradient"/><linearGradient id="linear-gradient-28" x1="502.17" y1="122.44" x2="508.24" y2="122.44" xlink:href="#linear-gradient"/><linearGradient id="linear-gradient-29" x1="375.29" y1="427.1" x2="539.72" y2="427.1" xlink:href="#linear-gradient"/><linearGradient id="linear-gradient-30" x1="520.56" y1="409.76" x2="526.63" y2="409.76" xlink:href="#linear-gradient"/><linearGradient id="linear-gradient-31" x1="511.36" y1="409.76" x2="517.43" y2="409.76" xlink:href="#linear-gradient"/><linearGradient id="linear-gradient-32" x1="502.17" y1="409.76" x2="508.24" y2="409.76" xlink:href="#linear-gradient"/><linearGradient id="linear-gradient-33" x1="375.29" y1="496.45" x2="539.72" y2="496.45" xlink:href="#linear-gradient"/><linearGradient id="linear-gradient-34" x1="520.56" y1="479.12" x2="526.63" y2="479.12" xlink:href="#linear-gradient"/><linearGradient id="linear-gradient-35" x1="511.36" y1="479.12" x2="517.43" y2="479.12" xlink:href="#linear-gradient"/><linearGradient id="linear-gradient-36" x1="502.17" y1="479.12" x2="508.24" y2="479.12" xlink:href="#linear-gradient"/><linearGradient id="linear-gradient-37" x1="226.84" y1="343.9" x2="41.8" y2="348.77" xlink:href="#linear-gradient"/><linearGradient id="linear-gradient-38" x1="38.27" y1="407.99" x2="100.67" y2="407.99" gradientUnits="userSpaceOnUse"><stop offset="0" stop-color="#57afe2"/><stop offset="0.19" stop-color="#54a6dc"/><stop offset="0.49" stop-color="#508bc9"/><stop offset="0.86" stop-color="#436ab3"/><stop offset="1" stop-color="#4061ad"/></linearGradient><linearGradient id="linear-gradient-39" x1="68.81" y1="399.95" x2="75.22" y2="399.95" xlink:href="#linear-gradient"/><linearGradient id="linear-gradient-40" x1="231.51" y1="388.26" x2="286.09" y2="388.26" xlink:href="#linear-gradient"/><linearGradient id="linear-gradient-41" x1="235.41" y1="388.26" x2="286.09" y2="388.26" xlink:href="#linear-gradient"/><linearGradient id="linear-gradient-42" x1="286.09" y1="388.26" x2="340.66" y2="388.26" xlink:href="#linear-gradient"/><linearGradient id="linear-gradient-43" x1="286.09" y1="388.26" x2="336.76" y2="388.26" xlink:href="#linear-gradient"/><linearGradient id="linear-gradient-44" x1="266.45" y1="382.51" x2="305.72" y2="382.51" xlink:href="#linear-gradient"/><linearGradient id="linear-gradient-45" x1="266.17" y1="415.33" x2="274.49" y2="415.33" xlink:href="#linear-gradient"/><linearGradient id="linear-gradient-46" x1="275.81" y1="415.33" x2="284.13" y2="415.33" xlink:href="#linear-gradient"/><linearGradient id="linear-gradient-47" x1="285.44" y1="415.33" x2="293.76" y2="415.33" xlink:href="#linear-gradient"/><linearGradient id="linear-gradient-48" x1="295.08" y1="415.33" x2="303.4" y2="415.33" xlink:href="#linear-gradient"/></defs><g class="cls-2"><g id="Layer_1" data-name="Layer 1"><g class="cls-3"><polygon class="cls-4" points="378.37 207 205.28 207 205.28 124.47 208.28 124.47 208.28 204 378.37 204 378.37 207"/><rect class="cls-5" x="151.9" y="116.82" width="2.51" height="146.37"/><rect class="cls-6" x="100.51" y="116.82" width="2.51" height="146.54"/><polygon class="cls-7" points="178.6 65.95 178.6 68.45 486.51 68.45 486.51 123.27 489.02 123.27 489.02 65.95 178.6 65.95"/><rect class="cls-8" x="5.76" y="261.09" width="357.21" height="247.38" rx="7.87"/><path class="cls-9" d="M99,522.5a3,3,0,0,0-1.28.29L82.5,529.93a3,3,0,0,0,1.29,5.76H284.94a3,3,0,0,0,1.3-5.75l-15-7.15a3.08,3.08,0,0,0-1.3-.29H209.22v0H159.51v0Z"/><rect class="cls-10" x="11.16" y="267.37" width="346.41" height="206.24" rx="2.97"/><rect class="cls-11" x="145.58" y="508.49" width="77.56" height="13.98"/><path class="cls-12" d="M99,522.5a3,3,0,0,0-1.28.29L82.5,529.93a3,3,0,0,0,1.29,5.76H284.94a3,3,0,0,0,1.3-5.75l-15-7.15a3.08,3.08,0,0,0-1.3-.29H209.22v0H159.51v0Z"/><path class="cls-13" d="M243.22,290.08H40.43c-1,0-1.77,1.08-1.77,2.41v.85c0,1.33.8,2.41,1.77,2.41H243.22c1,0,1.77-1.08,1.77-2.41v-.85C245,291.16,244.2,290.08,243.22,290.08Z"/><path class="cls-14" d="M243.22,303.05H40.43c-1,0-1.77,1.08-1.77,2.42v.85c0,1.33.8,2.41,1.77,2.41H243.22c1,0,1.77-1.08,1.77-2.41v-.85C245,304.13,244.2,303.05,243.22,303.05Z"/><path class="cls-15" d="M193.35,316H40.43c-1,0-1.77,1.08-1.77,2.41v.85c0,1.33.8,2.41,1.77,2.41H193.35c1,0,1.77-1.08,1.77-2.41v-.85C195.12,317.11,194.33,316,193.35,316Z"/><ellipse class="cls-16" cx="25.01" cy="292.34" rx="4.83" ry="4.73"/><path class="cls-17" d="M23.81,294.68a.2.2,0,0,1-.28,0l-2.11-2.07.65-.64,1.48,1.45a.22.22,0,0,0,.29,0l4.06-3.71.63.66Z"/><ellipse class="cls-18" cx="25.01" cy="305.14" rx="4.83" ry="4.73"/><path class="cls-17" d="M23.81,307.48a.21.21,0,0,1-.28,0l-2.11-2.08.65-.64,1.48,1.45a.22.22,0,0,0,.29,0l4.06-3.71.63.66Z"/><ellipse class="cls-19" cx="25.01" cy="317.94" rx="4.83" ry="4.73"/><path class="cls-17" d="M23.81,320.28a.21.21,0,0,1-.28,0l-2.11-2.08.65-.64L23.55,319a.22.22,0,0,0,.29,0l4.06-3.71.63.67Z"/><path class="cls-20" d="M92.83,93.3H144.4A21.31,21.31,0,0,0,165.72,72h0A21.33,21.33,0,0,0,149.3,51.24c0-.19,0-.38,0-.57A42.63,42.63,0,0,0,66.1,37.61,30.9,30.9,0,1,0,34.79,90.5a22.07,22.07,0,0,0,10.78,2.8H92.83Z"/><path class="cls-21" d="M148.65,117H197a20,20,0,0,0,20-20h0a20,20,0,0,0-15.41-19.47c0-.18,0-.36,0-.53a40,40,0,0,0-78.09-12.27,29,29,0,1,0-29.37,49.64A20.68,20.68,0,0,0,104.3,117h44.35Z"/><path class="cls-22" d="M379.73,390.48H535.27a4.45,4.45,0,0,0,4.45-4.45V330.77A5.76,5.76,0,0,0,534,325H381a5.75,5.75,0,0,0-5.75,5.76V386A4.44,4.44,0,0,0,379.73,390.48Z"/><path class="cls-17" d="M409.15,331.89h120.4a2.35,2.35,0,0,1,2.35,2.34V350a2.35,2.35,0,0,1-2.35,2.35H409.15Z"/><path class="cls-17" d="M385.45,331.89h18.79v20.42H385.45a2.35,2.35,0,0,1-2.34-2.35V334.23A2.34,2.34,0,0,1,385.45,331.89Z"/><rect class="cls-23" x="520.56" y="337.45" width="6.07" height="5.93"/><rect class="cls-24" x="511.36" y="337.45" width="6.07" height="5.93"/><rect class="cls-25" x="502.17" y="337.45" width="6.07" height="5.93"/><path class="cls-26" d="M379.73,317.82H535.27a4.45,4.45,0,0,0,4.45-4.45V258.11a5.75,5.75,0,0,0-5.75-5.75H381a5.74,5.74,0,0,0-5.75,5.75v55.26A4.44,4.44,0,0,0,379.73,317.82Z"/><path class="cls-17" d="M409.15,259.24h120.4a2.34,2.34,0,0,1,2.35,2.34v15.73a2.35,2.35,0,0,1-2.35,2.34H409.15Z"/><path class="cls-17" d="M385.45,259.24h18.79v20.41H385.45a2.34,2.34,0,0,1-2.34-2.34V261.58A2.34,2.34,0,0,1,385.45,259.24Z"/><rect class="cls-27" x="520.56" y="264.79" width="6.07" height="5.93"/><rect class="cls-28" x="511.36" y="264.79" width="6.07" height="5.93"/><rect class="cls-29" x="502.17" y="264.79" width="6.07" height="5.93"/><path class="cls-30" d="M379.73,245.17H535.27a4.45,4.45,0,0,0,4.45-4.45V185.46A5.76,5.76,0,0,0,534,179.7H381a5.75,5.75,0,0,0-5.75,5.76v55.26A4.45,4.45,0,0,0,379.73,245.17Z"/><path class="cls-17" d="M409.15,186.58h120.4a2.35,2.35,0,0,1,2.35,2.34v15.73a2.35,2.35,0,0,1-2.35,2.34H409.15Z"/><path class="cls-17" d="M385.45,186.58h18.79V207H385.45a2.34,2.34,0,0,1-2.34-2.34V188.92A2.34,2.34,0,0,1,385.45,186.58Z"/><rect class="cls-31" x="520.56" y="192.13" width="6.07" height="5.93"/><rect class="cls-32" x="511.36" y="192.13" width="6.07" height="5.93"/><rect class="cls-33" x="502.17" y="192.13" width="6.07" height="5.93"/><path class="cls-34" d="M379.73,172.51H535.27a4.45,4.45,0,0,0,4.45-4.45V112.8A5.76,5.76,0,0,0,534,107H381a5.75,5.75,0,0,0-5.75,5.76v55.26A4.44,4.44,0,0,0,379.73,172.51Z"/><path class="cls-17" d="M409.15,113.92h120.4a2.35,2.35,0,0,1,2.35,2.34V132a2.35,2.35,0,0,1-2.35,2.35H409.15Z"/><path class="cls-17" d="M385.45,113.92h18.79v20.42H385.45a2.35,2.35,0,0,1-2.34-2.35V116.26A2.34,2.34,0,0,1,385.45,113.92Z"/><rect class="cls-35" x="520.56" y="119.48" width="6.07" height="5.93"/><rect class="cls-36" x="511.36" y="119.48" width="6.07" height="5.93"/><rect class="cls-37" x="502.17" y="119.48" width="6.07" height="5.93"/><path class="cls-38" d="M379.73,459.83H535.27a4.45,4.45,0,0,0,4.45-4.45V400.12a5.75,5.75,0,0,0-5.75-5.75H381a5.74,5.74,0,0,0-5.75,5.75v55.26A4.44,4.44,0,0,0,379.73,459.83Z"/><path class="cls-17" d="M409.15,401.25h120.4a2.34,2.34,0,0,1,2.35,2.34v15.73a2.35,2.35,0,0,1-2.35,2.34H409.15Z"/><path class="cls-17" d="M385.45,401.25h18.79v20.41H385.45a2.34,2.34,0,0,1-2.34-2.34V403.59A2.34,2.34,0,0,1,385.45,401.25Z"/><rect class="cls-39" x="520.56" y="406.8" width="6.07" height="5.93"/><rect class="cls-40" x="511.36" y="406.8" width="6.07" height="5.93"/><rect class="cls-41" x="502.17" y="406.8" width="6.07" height="5.93"/><path class="cls-42" d="M379.73,529.19H535.27a4.45,4.45,0,0,0,4.45-4.45V469.48a5.76,5.76,0,0,0-5.75-5.76H381a5.75,5.75,0,0,0-5.75,5.76v55.26A4.45,4.45,0,0,0,379.73,529.19Z"/><path class="cls-17" d="M409.15,470.6h120.4a2.35,2.35,0,0,1,2.35,2.34v15.73a2.34,2.34,0,0,1-2.35,2.34H409.15Z"/><path class="cls-17" d="M385.45,470.6h18.79V491H385.45a2.34,2.34,0,0,1-2.34-2.34V472.94A2.34,2.34,0,0,1,385.45,470.6Z"/><rect class="cls-43" x="520.56" y="476.15" width="6.07" height="5.93"/><rect class="cls-44" x="511.36" y="476.15" width="6.07" height="5.93"/><rect class="cls-45" x="502.17" y="476.15" width="6.07" height="5.93"/><rect class="cls-46" x="387.52" y="529.19" width="16.72" height="6.51"/><rect class="cls-46" x="509.07" y="529.19" width="16.72" height="6.51"/><g class="cls-47"><path class="cls-17" d="M213.09,344.58H37.1A7.14,7.14,0,0,0,30,351.72V460a6.52,6.52,0,0,0,6.53,6.52H213.7a6.52,6.52,0,0,0,6.52-6.52V351.72A7.14,7.14,0,0,0,213.09,344.58Z"/><path class="cls-48" d="M213.06,344.55h-176a7.13,7.13,0,0,0-7.14,7.14V459.91a6.53,6.53,0,0,0,6.52,6.53H213.68a6.53,6.53,0,0,0,6.52-6.53V351.69A7.13,7.13,0,0,0,213.06,344.55Z"/><path class="cls-49" d="M213,344.51h-176a7.14,7.14,0,0,0-7.14,7.14V459.88a6.53,6.53,0,0,0,6.53,6.52H213.65a6.52,6.52,0,0,0,6.53-6.52V351.65A7.14,7.14,0,0,0,213,344.51Z"/><path class="cls-50" d="M213,344.48H37a7.14,7.14,0,0,0-7.14,7.14V459.84a6.53,6.53,0,0,0,6.53,6.53H213.63a6.53,6.53,0,0,0,6.52-6.53V351.62A7.13,7.13,0,0,0,213,344.48Z"/><path class="cls-51" d="M213,344.44H37a7.14,7.14,0,0,0-7.14,7.14V459.81a6.52,6.52,0,0,0,6.52,6.52H213.61a6.52,6.52,0,0,0,6.52-6.52V351.58A7.14,7.14,0,0,0,213,344.44Z"/><path class="cls-52" d="M213,344.41H37a7.14,7.14,0,0,0-7.14,7.14V459.77a6.54,6.54,0,0,0,6.53,6.53H213.58a6.53,6.53,0,0,0,6.53-6.53V351.55A7.14,7.14,0,0,0,213,344.41Z"/><path class="cls-53" d="M213,344.37H37a7.14,7.14,0,0,0-7.14,7.14V459.74a6.52,6.52,0,0,0,6.52,6.52H213.56a6.52,6.52,0,0,0,6.52-6.52V351.51A7.14,7.14,0,0,0,213,344.37Z"/><path class="cls-54" d="M212.92,344.34h-176a7.13,7.13,0,0,0-7.14,7.14V459.7a6.53,6.53,0,0,0,6.52,6.53H213.54a6.53,6.53,0,0,0,6.52-6.53V351.48A7.14,7.14,0,0,0,212.92,344.34Z"/><path class="cls-55" d="M212.9,344.3h-176a7.14,7.14,0,0,0-7.14,7.14V459.67a6.52,6.52,0,0,0,6.53,6.52H213.51a6.52,6.52,0,0,0,6.53-6.52V351.44A7.14,7.14,0,0,0,212.9,344.3Z"/><path class="cls-56" d="M212.88,344.27h-176a7.14,7.14,0,0,0-7.14,7.14V459.63a6.52,6.52,0,0,0,6.52,6.52H213.49a6.52,6.52,0,0,0,6.52-6.52V351.41A7.13,7.13,0,0,0,212.88,344.27Z"/><path class="cls-57" d="M212.85,344.23h-176a7.14,7.14,0,0,0-7.14,7.14V459.6a6.52,6.52,0,0,0,6.52,6.52H213.47A6.52,6.52,0,0,0,220,459.6V351.37A7.14,7.14,0,0,0,212.85,344.23Z"/><path class="cls-58" d="M212.83,344.2h-176a7.14,7.14,0,0,0-7.14,7.14V459.56a6.52,6.52,0,0,0,6.53,6.52H213.44a6.52,6.52,0,0,0,6.53-6.52V351.34A7.14,7.14,0,0,0,212.83,344.2Z"/><path class="cls-59" d="M212.8,344.16h-176a7.14,7.14,0,0,0-7.14,7.14V459.53a6.52,6.52,0,0,0,6.52,6.52H213.42a6.52,6.52,0,0,0,6.52-6.52V351.3A7.14,7.14,0,0,0,212.8,344.16Z"/><path class="cls-60" d="M212.78,344.13h-176a7.13,7.13,0,0,0-7.13,7.14V459.49A6.52,6.52,0,0,0,36.18,466H213.4a6.52,6.52,0,0,0,6.52-6.52V351.27A7.14,7.14,0,0,0,212.78,344.13Z"/><path class="cls-61" d="M212.76,344.09h-176a7.14,7.14,0,0,0-7.14,7.14V459.46A6.52,6.52,0,0,0,36.16,466H213.37a6.53,6.53,0,0,0,6.53-6.52V351.23A7.14,7.14,0,0,0,212.76,344.09Z"/><path class="cls-62" d="M212.73,344.06h-176a7.14,7.14,0,0,0-7.14,7.14V459.42a6.52,6.52,0,0,0,6.52,6.52H213.35a6.52,6.52,0,0,0,6.52-6.52V351.2A7.13,7.13,0,0,0,212.73,344.06Z"/><path class="cls-63" d="M212.71,344h-176a7.14,7.14,0,0,0-7.13,7.14V459.39a6.52,6.52,0,0,0,6.52,6.52H213.32a6.52,6.52,0,0,0,6.53-6.52V351.16A7.14,7.14,0,0,0,212.71,344Z"/><path class="cls-64" d="M212.69,344H36.7a7.14,7.14,0,0,0-7.14,7.14V459.35a6.52,6.52,0,0,0,6.53,6.52H213.3a6.53,6.53,0,0,0,6.53-6.52V351.13A7.14,7.14,0,0,0,212.69,344Z"/><path class="cls-65" d="M212.66,344h-176a7.14,7.14,0,0,0-7.14,7.14V459.31a6.52,6.52,0,0,0,6.52,6.53H213.28a6.52,6.52,0,0,0,6.52-6.53V351.09A7.14,7.14,0,0,0,212.66,344Z"/><path class="cls-66" d="M212.64,343.92h-176a7.13,7.13,0,0,0-7.13,7.13V459.28A6.52,6.52,0,0,0,36,465.8H213.25a6.52,6.52,0,0,0,6.53-6.52V351.05A7.14,7.14,0,0,0,212.64,343.92Z"/><path class="cls-67" d="M212.62,343.88h-176A7.14,7.14,0,0,0,29.49,351V459.24A6.53,6.53,0,0,0,36,465.77H213.23a6.52,6.52,0,0,0,6.52-6.53V351A7.14,7.14,0,0,0,212.62,343.88Z"/><path class="cls-68" d="M212.59,343.85h-176A7.13,7.13,0,0,0,29.47,351V459.21A6.52,6.52,0,0,0,36,465.73H213.21a6.52,6.52,0,0,0,6.52-6.52V351A7.13,7.13,0,0,0,212.59,343.85Z"/><path class="cls-69" d="M212.57,343.81h-176A7.14,7.14,0,0,0,29.44,351V459.17A6.53,6.53,0,0,0,36,465.7H213.18a6.53,6.53,0,0,0,6.53-6.53V351A7.14,7.14,0,0,0,212.57,343.81Z"/><path class="cls-70" d="M212.55,343.78h-176a7.14,7.14,0,0,0-7.14,7.13V459.14A6.52,6.52,0,0,0,36,465.66H213.16a6.52,6.52,0,0,0,6.52-6.52V350.91A7.13,7.13,0,0,0,212.55,343.78Z"/><path class="cls-71" d="M212.52,343.74h-176a7.14,7.14,0,0,0-7.14,7.14V459.1a6.52,6.52,0,0,0,6.52,6.53H213.14a6.52,6.52,0,0,0,6.52-6.53V350.88A7.14,7.14,0,0,0,212.52,343.74Z"/><path class="cls-72" d="M212.5,343.71h-176a7.14,7.14,0,0,0-7.14,7.13V459.07a6.53,6.53,0,0,0,6.53,6.52H213.11a6.52,6.52,0,0,0,6.53-6.52V350.84A7.14,7.14,0,0,0,212.5,343.71Z"/><path class="cls-73" d="M212.48,343.67h-176a7.14,7.14,0,0,0-7.14,7.14V459a6.52,6.52,0,0,0,6.52,6.53H213.09a6.52,6.52,0,0,0,6.52-6.53V350.81A7.14,7.14,0,0,0,212.48,343.67Z"/><path class="cls-74" d="M212.45,343.64h-176a7.13,7.13,0,0,0-7.14,7.13V459a6.52,6.52,0,0,0,6.52,6.52H213.07a6.52,6.52,0,0,0,6.52-6.52V350.77A7.14,7.14,0,0,0,212.45,343.64Z"/><path class="cls-75" d="M212.43,343.6h-176a7.14,7.14,0,0,0-7.14,7.14V459a6.53,6.53,0,0,0,6.53,6.53H213a6.53,6.53,0,0,0,6.53-6.53V350.74A7.14,7.14,0,0,0,212.43,343.6Z"/><path class="cls-76" d="M212.41,343.57h-176a7.14,7.14,0,0,0-7.14,7.13V458.93a6.52,6.52,0,0,0,6.52,6.52H213a6.52,6.52,0,0,0,6.52-6.52V350.7A7.13,7.13,0,0,0,212.41,343.57Z"/><path class="cls-77" d="M212.38,343.53H36.4a7.14,7.14,0,0,0-7.14,7.14V458.89a6.52,6.52,0,0,0,6.52,6.53H213a6.52,6.52,0,0,0,6.52-6.53V350.67A7.14,7.14,0,0,0,212.38,343.53Z"/><path class="cls-78" d="M212.36,343.5h-176a7.14,7.14,0,0,0-7.14,7.13V458.86a6.52,6.52,0,0,0,6.53,6.52H213a6.52,6.52,0,0,0,6.53-6.52V350.63A7.14,7.14,0,0,0,212.36,343.5Z"/><path class="cls-79" d="M212.33,343.46h-176a7.14,7.14,0,0,0-7.14,7.14V458.82a6.52,6.52,0,0,0,6.52,6.53H213a6.52,6.52,0,0,0,6.52-6.53V350.6A7.14,7.14,0,0,0,212.33,343.46Z"/><path class="cls-80" d="M212.31,343.43h-176a7.13,7.13,0,0,0-7.13,7.13V458.79a6.52,6.52,0,0,0,6.52,6.52H212.93a6.52,6.52,0,0,0,6.52-6.52V350.56A7.14,7.14,0,0,0,212.31,343.43Z"/><path class="cls-81" d="M212.29,343.39H36.3a7.14,7.14,0,0,0-7.14,7.14V458.75a6.53,6.53,0,0,0,6.53,6.53H212.9a6.53,6.53,0,0,0,6.53-6.53V350.53A7.14,7.14,0,0,0,212.29,343.39Z"/><path class="cls-82" d="M212.26,343.35h-176a7.14,7.14,0,0,0-7.14,7.14V458.72a6.52,6.52,0,0,0,6.52,6.52H212.88a6.52,6.52,0,0,0,6.52-6.52V350.49A7.14,7.14,0,0,0,212.26,343.35Z"/><path class="cls-83" d="M212.24,343.32h-176a7.14,7.14,0,0,0-7.13,7.14V458.68a6.52,6.52,0,0,0,6.52,6.53H212.86a6.52,6.52,0,0,0,6.52-6.53V350.46A7.14,7.14,0,0,0,212.24,343.32Z"/><path class="cls-84" d="M212.22,343.28h-176a7.14,7.14,0,0,0-7.14,7.14V458.65a6.52,6.52,0,0,0,6.53,6.52H212.83a6.53,6.53,0,0,0,6.53-6.52V350.42A7.14,7.14,0,0,0,212.22,343.28Z"/><path class="cls-85" d="M212.19,343.25h-176a7.14,7.14,0,0,0-7.14,7.14V458.61a6.52,6.52,0,0,0,6.52,6.53H212.81a6.52,6.52,0,0,0,6.52-6.53V350.39A7.14,7.14,0,0,0,212.19,343.25Z"/><path class="cls-86" d="M212.17,343.21h-176a7.14,7.14,0,0,0-7.13,7.14V458.58a6.52,6.52,0,0,0,6.52,6.52H212.78a6.52,6.52,0,0,0,6.53-6.52V350.35A7.14,7.14,0,0,0,212.17,343.21Z"/><path class="cls-87" d="M212.15,343.18h-176A7.14,7.14,0,0,0,29,350.32V458.54a6.53,6.53,0,0,0,6.53,6.53H212.76a6.53,6.53,0,0,0,6.53-6.53V350.32A7.14,7.14,0,0,0,212.15,343.18Z"/><path class="cls-88" d="M212.12,343.14h-176A7.14,7.14,0,0,0,29,350.28V458.51A6.52,6.52,0,0,0,35.52,465H212.74a6.52,6.52,0,0,0,6.52-6.52V350.28A7.14,7.14,0,0,0,212.12,343.14Z"/><path class="cls-89" d="M212.1,343.11h-176A7.14,7.14,0,0,0,29,350.25V458.47A6.53,6.53,0,0,0,35.5,465H212.71a6.53,6.53,0,0,0,6.53-6.53V350.25A7.14,7.14,0,0,0,212.1,343.11Z"/><path class="cls-90" d="M212.08,343.07h-176A7.14,7.14,0,0,0,29,350.21V458.44A6.52,6.52,0,0,0,35.48,465H212.69a6.52,6.52,0,0,0,6.52-6.52V350.21A7.14,7.14,0,0,0,212.08,343.07Z"/><path class="cls-91" d="M212.05,343h-176a7.13,7.13,0,0,0-7.14,7.14V458.4a6.52,6.52,0,0,0,6.52,6.53H212.67a6.52,6.52,0,0,0,6.52-6.53V350.18A7.13,7.13,0,0,0,212.05,343Z"/><path class="cls-92" d="M212,343H36a7.14,7.14,0,0,0-7.14,7.14V458.37a6.53,6.53,0,0,0,6.53,6.52H212.64a6.52,6.52,0,0,0,6.53-6.52V350.14A7.14,7.14,0,0,0,212,343Z"/><path class="cls-93" d="M212,343H36a7.14,7.14,0,0,0-7.14,7.14V458.33a6.52,6.52,0,0,0,6.52,6.53H212.62a6.52,6.52,0,0,0,6.52-6.53V350.11A7.13,7.13,0,0,0,212,343Z"/><path class="cls-94" d="M212,342.93H36a7.14,7.14,0,0,0-7.14,7.14V458.3a6.52,6.52,0,0,0,6.52,6.52H212.6a6.52,6.52,0,0,0,6.52-6.52V350.07A7.14,7.14,0,0,0,212,342.93Z"/><path class="cls-95" d="M212,342.9H36A7.14,7.14,0,0,0,28.83,350V458.26a6.53,6.53,0,0,0,6.53,6.53H212.57a6.53,6.53,0,0,0,6.53-6.53V350A7.14,7.14,0,0,0,212,342.9Z"/><path class="cls-96" d="M211.94,342.86H36A7.14,7.14,0,0,0,28.81,350V458.23a6.52,6.52,0,0,0,6.52,6.52H212.55a6.52,6.52,0,0,0,6.52-6.52V350A7.14,7.14,0,0,0,211.94,342.86Z"/><path class="cls-97" d="M211.91,342.83h-176A7.13,7.13,0,0,0,28.79,350V458.19a6.53,6.53,0,0,0,6.52,6.53H212.53a6.53,6.53,0,0,0,6.52-6.53V350A7.14,7.14,0,0,0,211.91,342.83Z"/><path class="cls-98" d="M211.89,342.79H35.9a7.14,7.14,0,0,0-7.14,7.14V458.16a6.52,6.52,0,0,0,6.53,6.52H212.5a6.52,6.52,0,0,0,6.53-6.52V349.93A7.14,7.14,0,0,0,211.89,342.79Z"/><path class="cls-99" d="M211.86,342.76h-176a7.14,7.14,0,0,0-7.14,7.14V458.12a6.53,6.53,0,0,0,6.52,6.53H212.48a6.53,6.53,0,0,0,6.52-6.53V349.9A7.13,7.13,0,0,0,211.86,342.76Z"/><path class="cls-100" d="M211.84,342.72h-176a7.14,7.14,0,0,0-7.13,7.14V458.09a6.52,6.52,0,0,0,6.52,6.52H212.46a6.52,6.52,0,0,0,6.52-6.52V349.86A7.14,7.14,0,0,0,211.84,342.72Z"/><path class="cls-101" d="M211.82,342.69h-176a7.14,7.14,0,0,0-7.14,7.14V458.05a6.53,6.53,0,0,0,6.53,6.53H212.43a6.53,6.53,0,0,0,6.53-6.53V349.83A7.14,7.14,0,0,0,211.82,342.69Z"/><path class="cls-102" d="M211.79,342.65h-176a7.14,7.14,0,0,0-7.14,7.14V458a6.52,6.52,0,0,0,6.52,6.52H212.41a6.52,6.52,0,0,0,6.52-6.52V349.79A7.14,7.14,0,0,0,211.79,342.65Z"/><path class="cls-103" d="M211.77,342.62h-176a7.13,7.13,0,0,0-7.13,7.14V458a6.53,6.53,0,0,0,6.52,6.53H212.39a6.53,6.53,0,0,0,6.52-6.53V349.76A7.14,7.14,0,0,0,211.77,342.62Z"/><path class="cls-104" d="M211.75,342.58h-176a7.14,7.14,0,0,0-7.14,7.14V458a6.52,6.52,0,0,0,6.53,6.52H212.36a6.53,6.53,0,0,0,6.53-6.52V349.72A7.14,7.14,0,0,0,211.75,342.58Z"/><path class="cls-105" d="M211.72,342.55h-176a7.13,7.13,0,0,0-7.14,7.14V457.91a6.52,6.52,0,0,0,6.52,6.52H212.34a6.52,6.52,0,0,0,6.52-6.52V349.69A7.13,7.13,0,0,0,211.72,342.55Z"/><path class="cls-106" d="M211.7,342.51h-176a7.14,7.14,0,0,0-7.13,7.14V457.88a6.52,6.52,0,0,0,6.52,6.52H212.31a6.52,6.52,0,0,0,6.53-6.52V349.65A7.14,7.14,0,0,0,211.7,342.51Z"/><path class="cls-107" d="M211.68,342.48h-176a7.14,7.14,0,0,0-7.14,7.14V457.84a6.52,6.52,0,0,0,6.53,6.52H212.29a6.53,6.53,0,0,0,6.53-6.52V349.62A7.14,7.14,0,0,0,211.68,342.48Z"/><path class="cls-108" d="M211.65,342.44h-176a7.14,7.14,0,0,0-7.14,7.14V457.81a6.52,6.52,0,0,0,6.52,6.52H212.27a6.52,6.52,0,0,0,6.52-6.52V349.58A7.14,7.14,0,0,0,211.65,342.44Z"/><path class="cls-109" d="M211.63,342.41h-176a7.14,7.14,0,0,0-7.14,7.14V457.77A6.53,6.53,0,0,0,35,464.29H212.24a6.52,6.52,0,0,0,6.53-6.52V349.55A7.14,7.14,0,0,0,211.63,342.41Z"/><path class="cls-110" d="M211.61,342.37h-176a7.14,7.14,0,0,0-7.14,7.14V457.74A6.52,6.52,0,0,0,35,464.26H212.22a6.52,6.52,0,0,0,6.52-6.52V349.51A7.14,7.14,0,0,0,211.61,342.37Z"/><path class="cls-111" d="M211.58,342.34H35.6a7.13,7.13,0,0,0-7.14,7.14V457.7A6.52,6.52,0,0,0,35,464.22H212.2a6.52,6.52,0,0,0,6.52-6.52V349.48A7.13,7.13,0,0,0,211.58,342.34Z"/><path class="cls-112" d="M211.56,342.3h-176a7.14,7.14,0,0,0-7.14,7.14V457.67A6.53,6.53,0,0,0,35,464.19H212.17a6.52,6.52,0,0,0,6.53-6.52V349.44A7.14,7.14,0,0,0,211.56,342.3Z"/><path class="cls-113" d="M211.54,342.27h-176a7.14,7.14,0,0,0-7.14,7.14V457.63a6.52,6.52,0,0,0,6.53,6.52H212.15a6.52,6.52,0,0,0,6.52-6.52V349.41A7.13,7.13,0,0,0,211.54,342.27Z"/><path class="cls-114" d="M211.51,342.23h-176a7.14,7.14,0,0,0-7.14,7.14V457.59a6.52,6.52,0,0,0,6.52,6.53H212.13a6.52,6.52,0,0,0,6.52-6.53V349.37A7.14,7.14,0,0,0,211.51,342.23Z"/><path class="cls-115" d="M211.49,342.2H35.5a7.14,7.14,0,0,0-7.14,7.13V457.56a6.52,6.52,0,0,0,6.53,6.52H212.1a6.52,6.52,0,0,0,6.53-6.52V349.33A7.14,7.14,0,0,0,211.49,342.2Z"/><path class="cls-116" d="M211.47,342.16h-176a7.14,7.14,0,0,0-7.14,7.14V457.52a6.52,6.52,0,0,0,6.52,6.53H212.08a6.52,6.52,0,0,0,6.52-6.53V349.3A7.14,7.14,0,0,0,211.47,342.16Z"/><path class="cls-117" d="M211.44,342.13h-176a7.13,7.13,0,0,0-7.14,7.13V457.49A6.52,6.52,0,0,0,34.84,464H212.06a6.52,6.52,0,0,0,6.52-6.52V349.26A7.14,7.14,0,0,0,211.44,342.13Z"/><path class="cls-118" d="M211.42,342.09h-176a7.14,7.14,0,0,0-7.14,7.14V457.45A6.53,6.53,0,0,0,34.82,464H212a6.53,6.53,0,0,0,6.53-6.53V349.23A7.14,7.14,0,0,0,211.42,342.09Z"/><path class="cls-119" d="M211.39,342.06h-176a7.14,7.14,0,0,0-7.14,7.13V457.42a6.52,6.52,0,0,0,6.52,6.52H212a6.52,6.52,0,0,0,6.52-6.52V349.19A7.13,7.13,0,0,0,211.39,342.06Z"/><path class="cls-120" d="M211.37,342h-176a7.14,7.14,0,0,0-7.13,7.14V457.38a6.52,6.52,0,0,0,6.52,6.53H212a6.52,6.52,0,0,0,6.52-6.53V349.16A7.14,7.14,0,0,0,211.37,342Z"/><path class="cls-121" d="M211.35,342h-176a7.14,7.14,0,0,0-7.14,7.13V457.35a6.52,6.52,0,0,0,6.53,6.52H212a6.52,6.52,0,0,0,6.53-6.52V349.12A7.14,7.14,0,0,0,211.35,342Z"/><path class="cls-122" d="M211.32,342h-176a7.14,7.14,0,0,0-7.14,7.14V457.31a6.52,6.52,0,0,0,6.52,6.53H211.94a6.52,6.52,0,0,0,6.52-6.53V349.09A7.14,7.14,0,0,0,211.32,342Z"/><path class="cls-123" d="M211.3,341.92h-176a7.13,7.13,0,0,0-7.13,7.13V457.28a6.52,6.52,0,0,0,6.52,6.52H211.92a6.52,6.52,0,0,0,6.52-6.52V349.05A7.14,7.14,0,0,0,211.3,341.92Z"/><path class="cls-124" d="M211.28,341.88h-176A7.14,7.14,0,0,0,28.15,349V457.24a6.53,6.53,0,0,0,6.53,6.53H211.89a6.53,6.53,0,0,0,6.53-6.53V349A7.14,7.14,0,0,0,211.28,341.88Z"/><path class="cls-125" d="M211.25,341.85h-176A7.14,7.14,0,0,0,28.13,349V457.21a6.52,6.52,0,0,0,6.52,6.52H211.87a6.52,6.52,0,0,0,6.52-6.52V349A7.13,7.13,0,0,0,211.25,341.85Z"/><path class="cls-126" d="M211.23,341.81h-176A7.14,7.14,0,0,0,28.11,349V457.17a6.52,6.52,0,0,0,6.52,6.53H211.84a6.53,6.53,0,0,0,6.53-6.53V349A7.14,7.14,0,0,0,211.23,341.81Z"/><path class="cls-127" d="M211.21,341.78h-176a7.14,7.14,0,0,0-7.14,7.13V457.14a6.52,6.52,0,0,0,6.53,6.52H211.82a6.53,6.53,0,0,0,6.53-6.52V348.91A7.14,7.14,0,0,0,211.21,341.78Z"/><path class="cls-128" d="M211.18,341.74H35.2a7.14,7.14,0,0,0-7.14,7.14V457.1a6.52,6.52,0,0,0,6.52,6.53H211.8a6.52,6.52,0,0,0,6.52-6.53V348.88A7.14,7.14,0,0,0,211.18,341.74Z"/><path class="cls-129" d="M211.16,341.71h-176A7.14,7.14,0,0,0,28,348.84V457.07a6.53,6.53,0,0,0,6.53,6.52H211.77a6.52,6.52,0,0,0,6.53-6.52V348.84A7.14,7.14,0,0,0,211.16,341.71Z"/><path class="cls-130" d="M211.14,341.67h-176A7.14,7.14,0,0,0,28,348.81V457a6.53,6.53,0,0,0,6.53,6.53H211.75a6.52,6.52,0,0,0,6.52-6.53V348.81A7.14,7.14,0,0,0,211.14,341.67Z"/><path class="cls-131" d="M211.11,341.63h-176A7.14,7.14,0,0,0,28,348.77V457a6.52,6.52,0,0,0,6.52,6.52H211.73a6.52,6.52,0,0,0,6.52-6.52V348.77A7.14,7.14,0,0,0,211.11,341.63Z"/><path class="cls-132" d="M211.09,341.6H35.1A7.14,7.14,0,0,0,28,348.74V457a6.53,6.53,0,0,0,6.53,6.53H211.7a6.53,6.53,0,0,0,6.53-6.53V348.74A7.14,7.14,0,0,0,211.09,341.6Z"/><path class="cls-133" d="M211.07,341.56h-176a7.14,7.14,0,0,0-7.14,7.14V456.93a6.52,6.52,0,0,0,6.53,6.52H211.68a6.52,6.52,0,0,0,6.52-6.52V348.7A7.14,7.14,0,0,0,211.07,341.56Z"/><path class="cls-134" d="M211,341.53h-176a7.14,7.14,0,0,0-7.14,7.14V456.89a6.52,6.52,0,0,0,6.52,6.53H211.66a6.52,6.52,0,0,0,6.52-6.53V348.67A7.14,7.14,0,0,0,211,341.53Z"/><path class="cls-135" d="M211,341.49H35a7.14,7.14,0,0,0-7.14,7.14V456.86a6.52,6.52,0,0,0,6.53,6.52H211.63a6.52,6.52,0,0,0,6.53-6.52V348.63A7.14,7.14,0,0,0,211,341.49Z"/><path class="cls-136" d="M211,341.46H35a7.14,7.14,0,0,0-7.14,7.14V456.82a6.52,6.52,0,0,0,6.52,6.53H211.61a6.52,6.52,0,0,0,6.52-6.53V348.6A7.14,7.14,0,0,0,211,341.46Z"/><path class="cls-137" d="M211,341.42H35a7.14,7.14,0,0,0-7.14,7.14V456.79a6.52,6.52,0,0,0,6.52,6.52H211.59a6.52,6.52,0,0,0,6.52-6.52V348.56A7.14,7.14,0,0,0,211,341.42Z"/><path class="cls-138" d="M211,341.39H35a7.14,7.14,0,0,0-7.14,7.14V456.75a6.53,6.53,0,0,0,6.53,6.53H211.56a6.53,6.53,0,0,0,6.53-6.53V348.53A7.14,7.14,0,0,0,211,341.39Z"/><path class="cls-139" d="M210.92,341.35h-176a7.14,7.14,0,0,0-7.14,7.14V456.72a6.52,6.52,0,0,0,6.52,6.52H211.54a6.52,6.52,0,0,0,6.52-6.52V348.49A7.14,7.14,0,0,0,210.92,341.35Z"/><path class="cls-140" d="M210.9,341.32h-176a7.13,7.13,0,0,0-7.13,7.14V456.68a6.52,6.52,0,0,0,6.52,6.53H211.52a6.52,6.52,0,0,0,6.52-6.53V348.46A7.14,7.14,0,0,0,210.9,341.32Z"/><path class="cls-141" d="M210.88,341.28h-176a7.14,7.14,0,0,0-7.14,7.14V456.65a6.52,6.52,0,0,0,6.53,6.52H211.49a6.52,6.52,0,0,0,6.53-6.52V348.42A7.14,7.14,0,0,0,210.88,341.28Z"/><path class="cls-142" d="M210.85,341.25h-176a7.14,7.14,0,0,0-7.14,7.14V456.61a6.52,6.52,0,0,0,6.52,6.53H211.47a6.52,6.52,0,0,0,6.52-6.53V348.39A7.13,7.13,0,0,0,210.85,341.25Z"/><path class="cls-143" d="M210.83,341.21h-176a7.14,7.14,0,0,0-7.13,7.14V456.58a6.52,6.52,0,0,0,6.52,6.52H211.45a6.52,6.52,0,0,0,6.52-6.52V348.35A7.14,7.14,0,0,0,210.83,341.21Z"/><path class="cls-144" d="M210.81,341.18h-176a7.14,7.14,0,0,0-7.14,7.14V456.54a6.53,6.53,0,0,0,6.53,6.53H211.42a6.54,6.54,0,0,0,6.53-6.53V348.32A7.14,7.14,0,0,0,210.81,341.18Z"/><path class="cls-145" d="M210.78,341.14H34.8a7.14,7.14,0,0,0-7.14,7.14V456.51A6.52,6.52,0,0,0,34.18,463H211.4a6.52,6.52,0,0,0,6.52-6.52V348.28A7.14,7.14,0,0,0,210.78,341.14Z"/><path class="cls-146" d="M210.76,341.11h-176a7.13,7.13,0,0,0-7.13,7.14V456.47A6.53,6.53,0,0,0,34.16,463H211.37a6.53,6.53,0,0,0,6.53-6.53V348.25A7.14,7.14,0,0,0,210.76,341.11Z"/><path class="cls-147" d="M210.74,341.07h-176a7.14,7.14,0,0,0-7.14,7.14V456.44A6.52,6.52,0,0,0,34.14,463H211.35a6.53,6.53,0,0,0,6.53-6.52V348.21A7.14,7.14,0,0,0,210.74,341.07Z"/><path class="cls-148" d="M210.71,341h-176a7.13,7.13,0,0,0-7.14,7.14V456.4a6.53,6.53,0,0,0,6.52,6.53H211.33a6.53,6.53,0,0,0,6.52-6.53V348.18A7.13,7.13,0,0,0,210.71,341Z"/><path class="cls-149" d="M210.69,341H34.7a7.14,7.14,0,0,0-7.13,7.14V456.37a6.52,6.52,0,0,0,6.52,6.52H211.3a6.52,6.52,0,0,0,6.53-6.52V348.14A7.14,7.14,0,0,0,210.69,341Z"/><path class="cls-150" d="M210.67,341h-176a7.14,7.14,0,0,0-7.14,7.14V456.33a6.53,6.53,0,0,0,6.53,6.53H211.28a6.53,6.53,0,0,0,6.52-6.53V348.11A7.13,7.13,0,0,0,210.67,341Z"/><path class="cls-151" d="M210.64,340.93h-176a7.14,7.14,0,0,0-7.14,7.14V456.3A6.52,6.52,0,0,0,34,462.82H211.26a6.52,6.52,0,0,0,6.52-6.52V348.07A7.14,7.14,0,0,0,210.64,340.93Z"/><path class="cls-152" d="M210.62,340.9h-176A7.14,7.14,0,0,0,27.49,348V456.26A6.54,6.54,0,0,0,34,462.79H211.23a6.53,6.53,0,0,0,6.53-6.53V348A7.14,7.14,0,0,0,210.62,340.9Z"/><path class="cls-153" d="M210.6,340.86h-176A7.14,7.14,0,0,0,27.47,348V456.23A6.52,6.52,0,0,0,34,462.75H211.21a6.52,6.52,0,0,0,6.52-6.52V348A7.14,7.14,0,0,0,210.6,340.86Z"/><path class="cls-154" d="M210.57,340.83h-176A7.13,7.13,0,0,0,27.45,348V456.19A6.52,6.52,0,0,0,34,462.71H211.19a6.52,6.52,0,0,0,6.52-6.52V348A7.14,7.14,0,0,0,210.57,340.83Z"/><path class="cls-155" d="M210.55,340.79h-176a7.14,7.14,0,0,0-7.14,7.14V456.16A6.52,6.52,0,0,0,34,462.68H211.16a6.52,6.52,0,0,0,6.53-6.52V347.93A7.14,7.14,0,0,0,210.55,340.79Z"/><path class="cls-156" d="M210.53,340.76h-176a7.14,7.14,0,0,0-7.14,7.14V456.12a6.52,6.52,0,0,0,6.52,6.52H211.14a6.52,6.52,0,0,0,6.52-6.52V347.9A7.13,7.13,0,0,0,210.53,340.76Z"/><path class="cls-157" d="M210.5,340.72h-176a7.14,7.14,0,0,0-7.14,7.14V456.09a6.52,6.52,0,0,0,6.52,6.52H211.12a6.52,6.52,0,0,0,6.52-6.52V347.86A7.14,7.14,0,0,0,210.5,340.72Z"/><path class="cls-158" d="M210.48,340.69h-176a7.14,7.14,0,0,0-7.14,7.14V456.05a6.52,6.52,0,0,0,6.53,6.52H211.09a6.52,6.52,0,0,0,6.53-6.52V347.83A7.14,7.14,0,0,0,210.48,340.69Z"/><path class="cls-159" d="M210.45,340.65h-176a7.14,7.14,0,0,0-7.14,7.14V456a6.52,6.52,0,0,0,6.52,6.52H211.07a6.52,6.52,0,0,0,6.52-6.52V347.79A7.14,7.14,0,0,0,210.45,340.65Z"/><path class="cls-160" d="M210.43,340.62h-176a7.13,7.13,0,0,0-7.13,7.14V456a6.52,6.52,0,0,0,6.52,6.52H211.05a6.52,6.52,0,0,0,6.52-6.52V347.76A7.14,7.14,0,0,0,210.43,340.62Z"/><path class="cls-161" d="M210.41,340.58h-176a7.14,7.14,0,0,0-7.14,7.14V456a6.52,6.52,0,0,0,6.53,6.52H211a6.52,6.52,0,0,0,6.53-6.52V347.72A7.14,7.14,0,0,0,210.41,340.58Z"/><path class="cls-162" d="M210.38,340.55H34.4a7.14,7.14,0,0,0-7.14,7.14V455.91a6.52,6.52,0,0,0,6.52,6.52H211a6.52,6.52,0,0,0,6.52-6.52V347.69A7.13,7.13,0,0,0,210.38,340.55Z"/><path class="cls-163" d="M210.36,340.51h-176a7.14,7.14,0,0,0-7.13,7.14V455.87a6.52,6.52,0,0,0,6.52,6.53H211a6.52,6.52,0,0,0,6.52-6.53V347.65A7.14,7.14,0,0,0,210.36,340.51Z"/><path class="cls-164" d="M210.34,340.48h-176a7.14,7.14,0,0,0-7.14,7.13V455.84a6.52,6.52,0,0,0,6.53,6.52H211a6.53,6.53,0,0,0,6.53-6.52V347.61A7.14,7.14,0,0,0,210.34,340.48Z"/><path class="cls-165" d="M210.31,340.44h-176a7.14,7.14,0,0,0-7.14,7.14V455.8a6.52,6.52,0,0,0,6.52,6.53H210.93a6.52,6.52,0,0,0,6.52-6.53V347.58A7.14,7.14,0,0,0,210.31,340.44Z"/><path class="cls-166" d="M210.29,340.41H34.3a7.13,7.13,0,0,0-7.13,7.13V455.77a6.52,6.52,0,0,0,6.52,6.52H210.9a6.52,6.52,0,0,0,6.53-6.52V347.54A7.14,7.14,0,0,0,210.29,340.41Z"/><path class="cls-167" d="M210.27,340.37h-176a7.14,7.14,0,0,0-7.14,7.14V455.73a6.53,6.53,0,0,0,6.53,6.53H210.88a6.53,6.53,0,0,0,6.53-6.53V347.51A7.14,7.14,0,0,0,210.27,340.37Z"/><path class="cls-168" d="M210.24,340.34h-176a7.13,7.13,0,0,0-7.14,7.13V455.7a6.52,6.52,0,0,0,6.52,6.52H210.86a6.52,6.52,0,0,0,6.52-6.52V347.47A7.13,7.13,0,0,0,210.24,340.34Z"/><path class="cls-169" d="M210.22,340.3h-176a7.14,7.14,0,0,0-7.13,7.14V455.66a6.52,6.52,0,0,0,6.52,6.53H210.83a6.53,6.53,0,0,0,6.53-6.53V347.44A7.14,7.14,0,0,0,210.22,340.3Z"/><path class="cls-170" d="M210.2,340.27h-176a7.14,7.14,0,0,0-7.14,7.13V455.63a6.52,6.52,0,0,0,6.53,6.52H210.81a6.52,6.52,0,0,0,6.52-6.52V347.4A7.13,7.13,0,0,0,210.2,340.27Z"/><path class="cls-171" d="M210.17,340.23h-176a7.14,7.14,0,0,0-7.14,7.14V455.59a6.52,6.52,0,0,0,6.52,6.53H210.79a6.52,6.52,0,0,0,6.52-6.53V347.37A7.14,7.14,0,0,0,210.17,340.23Z"/><path class="cls-172" d="M210.15,340.2h-176A7.14,7.14,0,0,0,27,347.33V455.56a6.53,6.53,0,0,0,6.53,6.52H210.76a6.52,6.52,0,0,0,6.53-6.52V347.33A7.14,7.14,0,0,0,210.15,340.2Z"/><path class="cls-173" d="M210.13,340.16h-176A7.14,7.14,0,0,0,27,347.3V455.52a6.53,6.53,0,0,0,6.53,6.53H210.74a6.52,6.52,0,0,0,6.52-6.53V347.3A7.14,7.14,0,0,0,210.13,340.16Z"/><path class="cls-174" d="M210.1,340.13h-176A7.13,7.13,0,0,0,27,347.26V455.49A6.52,6.52,0,0,0,33.5,462H210.72a6.52,6.52,0,0,0,6.52-6.52V347.26A7.14,7.14,0,0,0,210.1,340.13Z"/><path class="cls-175" d="M210.08,340.09h-176A7.14,7.14,0,0,0,27,347.23V455.45A6.53,6.53,0,0,0,33.48,462H210.69a6.53,6.53,0,0,0,6.53-6.53V347.23A7.14,7.14,0,0,0,210.08,340.09Z"/><path class="cls-176" d="M210.06,340.06h-176a7.14,7.14,0,0,0-7.14,7.13V455.42a6.52,6.52,0,0,0,6.52,6.52H210.67a6.52,6.52,0,0,0,6.52-6.52V347.19A7.13,7.13,0,0,0,210.06,340.06Z"/><path class="cls-177" d="M210,340h-176a7.14,7.14,0,0,0-7.14,7.14V455.38a6.52,6.52,0,0,0,6.52,6.53H210.65a6.52,6.52,0,0,0,6.52-6.53V347.16A7.14,7.14,0,0,0,210,340Z"/><path class="cls-178" d="M210,340H34a7.14,7.14,0,0,0-7.14,7.13V455.35a6.52,6.52,0,0,0,6.53,6.52H210.62a6.52,6.52,0,0,0,6.53-6.52V347.12A7.14,7.14,0,0,0,210,340Z"/><path class="cls-179" d="M210,340H34a7.14,7.14,0,0,0-7.14,7.14V455.31a6.52,6.52,0,0,0,6.52,6.53H210.6a6.52,6.52,0,0,0,6.52-6.53V347.09A7.14,7.14,0,0,0,210,340Z"/><path class="cls-180" d="M210,339.91H34a7.14,7.14,0,0,0-7.13,7.14V455.28a6.52,6.52,0,0,0,6.52,6.52H210.58a6.52,6.52,0,0,0,6.52-6.52V347.05A7.14,7.14,0,0,0,210,339.91Z"/><path class="cls-181" d="M209.94,339.88H34A7.14,7.14,0,0,0,26.81,347V455.24a6.53,6.53,0,0,0,6.53,6.53H210.55a6.53,6.53,0,0,0,6.53-6.53V347A7.14,7.14,0,0,0,209.94,339.88Z"/><path class="cls-182" d="M209.91,339.84h-176A7.14,7.14,0,0,0,26.79,347V455.21a6.52,6.52,0,0,0,6.52,6.52H210.53a6.52,6.52,0,0,0,6.52-6.52V347A7.14,7.14,0,0,0,209.91,339.84Z"/><path class="cls-183" d="M209.89,339.81H33.9A7.14,7.14,0,0,0,26.77,347V455.17a6.52,6.52,0,0,0,6.52,6.53H210.51a6.52,6.52,0,0,0,6.52-6.53V347A7.14,7.14,0,0,0,209.89,339.81Z"/><path class="cls-184" d="M209.87,339.77h-176a7.14,7.14,0,0,0-7.14,7.14V455.14a6.52,6.52,0,0,0,6.53,6.52H210.48a6.53,6.53,0,0,0,6.53-6.52V346.91A7.14,7.14,0,0,0,209.87,339.77Z"/><path class="cls-185" d="M209.84,339.74h-176a7.14,7.14,0,0,0-7.14,7.14V455.1a6.52,6.52,0,0,0,6.52,6.53H210.46A6.52,6.52,0,0,0,217,455.1V346.88A7.14,7.14,0,0,0,209.84,339.74Z"/><path class="cls-186" d="M209.82,339.7h-176a7.14,7.14,0,0,0-7.13,7.14V455.07a6.52,6.52,0,0,0,6.52,6.52H210.43a6.52,6.52,0,0,0,6.53-6.52V346.84A7.14,7.14,0,0,0,209.82,339.7Z"/><path class="cls-187" d="M209.8,339.67h-176a7.14,7.14,0,0,0-7.14,7.14V455a6.53,6.53,0,0,0,6.53,6.53H210.41a6.53,6.53,0,0,0,6.53-6.53V346.81A7.14,7.14,0,0,0,209.8,339.67Z"/><path class="cls-188" d="M209.77,339.63h-176a7.14,7.14,0,0,0-7.14,7.14V455a6.52,6.52,0,0,0,6.52,6.52H210.39a6.52,6.52,0,0,0,6.52-6.52V346.77A7.14,7.14,0,0,0,209.77,339.63Z"/><path class="cls-189" d="M209.75,339.6h-176a7.13,7.13,0,0,0-7.13,7.14V455a6.52,6.52,0,0,0,6.52,6.53H210.36a6.53,6.53,0,0,0,6.53-6.53V346.74A7.14,7.14,0,0,0,209.75,339.6Z"/><path class="cls-190" d="M209.73,339.56h-176a7.14,7.14,0,0,0-7.14,7.14V454.93a6.52,6.52,0,0,0,6.53,6.52H210.34a6.52,6.52,0,0,0,6.52-6.52V346.7A7.14,7.14,0,0,0,209.73,339.56Z"/><path class="cls-191" d="M209.7,339.53h-176a7.13,7.13,0,0,0-7.14,7.14V454.89a6.52,6.52,0,0,0,6.52,6.53H210.32a6.52,6.52,0,0,0,6.52-6.53V346.67A7.13,7.13,0,0,0,209.7,339.53Z"/><path class="cls-192" d="M209.68,339.49h-176a7.14,7.14,0,0,0-7.14,7.14V454.86a6.53,6.53,0,0,0,6.53,6.52H210.29a6.52,6.52,0,0,0,6.53-6.52V346.63A7.14,7.14,0,0,0,209.68,339.49Z"/><path class="cls-193" d="M209.66,339.46h-176a7.14,7.14,0,0,0-7.14,7.14V454.82a6.53,6.53,0,0,0,6.53,6.53H210.27a6.53,6.53,0,0,0,6.52-6.53V346.6A7.13,7.13,0,0,0,209.66,339.46Z"/><path class="cls-194" d="M209.63,339.42h-176a7.14,7.14,0,0,0-7.14,7.14V454.79A6.52,6.52,0,0,0,33,461.31H210.25a6.52,6.52,0,0,0,6.52-6.52V346.56A7.14,7.14,0,0,0,209.63,339.42Z"/><path class="cls-195" d="M209.61,339.39h-176a7.14,7.14,0,0,0-7.14,7.14V454.75A6.54,6.54,0,0,0,33,461.28H210.22a6.53,6.53,0,0,0,6.53-6.53V346.53A7.14,7.14,0,0,0,209.61,339.39Z"/><path class="cls-196" d="M209.59,339.35H33.6a7.14,7.14,0,0,0-7.14,7.14V454.72A6.52,6.52,0,0,0,33,461.24H210.2a6.52,6.52,0,0,0,6.52-6.52V346.49A7.14,7.14,0,0,0,209.59,339.35Z"/><path class="cls-197" d="M209.56,339.32h-176a7.13,7.13,0,0,0-7.14,7.14V454.68A6.53,6.53,0,0,0,33,461.21H210.18a6.53,6.53,0,0,0,6.52-6.53V346.46A7.14,7.14,0,0,0,209.56,339.32Z"/><path class="cls-198" d="M209.54,339.28h-176a7.14,7.14,0,0,0-7.14,7.14V454.65a6.52,6.52,0,0,0,6.53,6.52H210.15a6.52,6.52,0,0,0,6.53-6.52V346.42A7.14,7.14,0,0,0,209.54,339.28Z"/><path class="cls-199" d="M209.51,339.25h-176a7.14,7.14,0,0,0-7.14,7.14V454.61a6.53,6.53,0,0,0,6.52,6.53H210.13a6.53,6.53,0,0,0,6.52-6.53V346.39A7.13,7.13,0,0,0,209.51,339.25Z"/><path class="cls-200" d="M209.49,339.21h-176a7.14,7.14,0,0,0-7.14,7.14V454.58a6.52,6.52,0,0,0,6.52,6.52H210.11a6.52,6.52,0,0,0,6.52-6.52V346.35A7.14,7.14,0,0,0,209.49,339.21Z"/><path class="cls-201" d="M209.47,339.18h-176a7.14,7.14,0,0,0-7.14,7.14V454.54a6.53,6.53,0,0,0,6.53,6.53H210.08a6.53,6.53,0,0,0,6.53-6.53V346.32A7.14,7.14,0,0,0,209.47,339.18Z"/><path class="cls-202" d="M209.44,339.14h-176a7.14,7.14,0,0,0-7.14,7.14V454.51A6.52,6.52,0,0,0,32.84,461H210.06a6.52,6.52,0,0,0,6.52-6.52V346.28A7.14,7.14,0,0,0,209.44,339.14Z"/><path class="cls-203" d="M209.42,339.11h-176a7.13,7.13,0,0,0-7.13,7.14V454.47A6.52,6.52,0,0,0,32.82,461H210a6.52,6.52,0,0,0,6.52-6.52V346.25A7.14,7.14,0,0,0,209.42,339.11Z"/><path class="cls-204" d="M209.4,339.07h-176a7.14,7.14,0,0,0-7.14,7.14V454.44A6.52,6.52,0,0,0,32.8,461H210a6.53,6.53,0,0,0,6.53-6.52V346.21A7.14,7.14,0,0,0,209.4,339.07Z"/><path class="cls-205" d="M209.37,339h-176a7.14,7.14,0,0,0-7.14,7.14V454.4a6.52,6.52,0,0,0,6.52,6.52H210a6.52,6.52,0,0,0,6.52-6.52V346.18A7.13,7.13,0,0,0,209.37,339Z"/><path class="cls-206" d="M209.35,339h-176a7.14,7.14,0,0,0-7.13,7.14V454.37a6.52,6.52,0,0,0,6.52,6.52H210a6.52,6.52,0,0,0,6.53-6.52V346.14A7.14,7.14,0,0,0,209.35,339Z"/><path class="cls-207" d="M209.33,339h-176a7.14,7.14,0,0,0-7.14,7.14V454.33a6.52,6.52,0,0,0,6.53,6.52H209.94a6.53,6.53,0,0,0,6.53-6.52V346.11A7.14,7.14,0,0,0,209.33,339Z"/><path class="cls-208" d="M209.3,338.93h-176a7.14,7.14,0,0,0-7.14,7.14V454.3a6.52,6.52,0,0,0,6.52,6.52H209.92a6.52,6.52,0,0,0,6.52-6.52V346.07A7.14,7.14,0,0,0,209.3,338.93Z"/><path class="cls-209" d="M209.28,338.9h-176A7.13,7.13,0,0,0,26.16,346V454.26a6.52,6.52,0,0,0,6.52,6.52H209.89a6.52,6.52,0,0,0,6.53-6.52V346A7.14,7.14,0,0,0,209.28,338.9Z"/><path class="cls-210" d="M209.26,338.86h-176A7.14,7.14,0,0,0,26.13,346V454.23a6.52,6.52,0,0,0,6.53,6.52H209.87a6.52,6.52,0,0,0,6.52-6.52V346A7.14,7.14,0,0,0,209.26,338.86Z"/><path class="cls-211" d="M209.23,338.83h-176A7.13,7.13,0,0,0,26.11,346V454.19a6.52,6.52,0,0,0,6.52,6.52H209.85a6.52,6.52,0,0,0,6.52-6.52V346A7.13,7.13,0,0,0,209.23,338.83Z"/><path class="cls-212" d="M209.21,338.79h-176a7.14,7.14,0,0,0-7.14,7.14V454.15a6.53,6.53,0,0,0,6.53,6.53H209.82a6.53,6.53,0,0,0,6.53-6.53V345.93A7.14,7.14,0,0,0,209.21,338.79Z"/><path class="cls-213" d="M209.19,338.76H33.2a7.14,7.14,0,0,0-7.14,7.13V454.12a6.52,6.52,0,0,0,6.53,6.52H209.8a6.52,6.52,0,0,0,6.52-6.52V345.89A7.13,7.13,0,0,0,209.19,338.76Z"/><path class="cls-214" d="M209.16,338.72h-176A7.14,7.14,0,0,0,26,345.86V454.08a6.52,6.52,0,0,0,6.52,6.53H209.78a6.52,6.52,0,0,0,6.52-6.53V345.86A7.14,7.14,0,0,0,209.16,338.72Z"/><path class="cls-215" d="M209.14,338.69h-176A7.14,7.14,0,0,0,26,345.82V454.05a6.53,6.53,0,0,0,6.53,6.52H209.75a6.52,6.52,0,0,0,6.53-6.52V345.82A7.14,7.14,0,0,0,209.14,338.69Z"/><path class="cls-216" d="M209.12,338.65h-176A7.14,7.14,0,0,0,26,345.79V454a6.52,6.52,0,0,0,6.52,6.53H209.73a6.52,6.52,0,0,0,6.52-6.53V345.79A7.14,7.14,0,0,0,209.12,338.65Z"/><path class="cls-217" d="M209.09,338.62h-176A7.13,7.13,0,0,0,26,345.75V454a6.52,6.52,0,0,0,6.52,6.52H209.71a6.52,6.52,0,0,0,6.52-6.52V345.75A7.14,7.14,0,0,0,209.09,338.62Z"/><path class="cls-218" d="M209.07,338.58h-176a7.14,7.14,0,0,0-7.14,7.14V453.94a6.53,6.53,0,0,0,6.53,6.53H209.68a6.53,6.53,0,0,0,6.53-6.53V345.72A7.14,7.14,0,0,0,209.07,338.58Z"/><path class="cls-219" d="M209.05,338.55h-176a7.14,7.14,0,0,0-7.14,7.13V453.91a6.52,6.52,0,0,0,6.52,6.52H209.66a6.52,6.52,0,0,0,6.52-6.52V345.68A7.13,7.13,0,0,0,209.05,338.55Z"/><path class="cls-220" d="M209,338.51H33a7.14,7.14,0,0,0-7.14,7.14V453.87a6.52,6.52,0,0,0,6.52,6.53H209.64a6.52,6.52,0,0,0,6.52-6.53V345.65A7.14,7.14,0,0,0,209,338.51Z"/><path class="cls-221" d="M209,338.48H33a7.14,7.14,0,0,0-7.14,7.13V453.84a6.52,6.52,0,0,0,6.53,6.52H209.61a6.52,6.52,0,0,0,6.53-6.52V345.61A7.14,7.14,0,0,0,209,338.48Z"/><path class="cls-222" d="M209,338.44H33a7.14,7.14,0,0,0-7.14,7.14V453.8a6.52,6.52,0,0,0,6.52,6.53H209.59a6.52,6.52,0,0,0,6.52-6.53V345.58A7.14,7.14,0,0,0,209,338.44Z"/><path class="cls-223" d="M209,338.41H33a7.13,7.13,0,0,0-7.13,7.13V453.77a6.52,6.52,0,0,0,6.52,6.52H209.57a6.52,6.52,0,0,0,6.52-6.52V345.54A7.14,7.14,0,0,0,209,338.41Z"/><path class="cls-224" d="M208.93,338.37h-176a7.14,7.14,0,0,0-7.14,7.14V453.73a6.53,6.53,0,0,0,6.53,6.53H209.54a6.53,6.53,0,0,0,6.53-6.53V345.51A7.14,7.14,0,0,0,208.93,338.37Z"/><path class="cls-225" d="M208.9,338.34h-176a7.14,7.14,0,0,0-7.14,7.13V453.7a6.52,6.52,0,0,0,6.52,6.52H209.52A6.52,6.52,0,0,0,216,453.7V345.47A7.13,7.13,0,0,0,208.9,338.34Z"/><path class="cls-226" d="M208.88,338.3h-176a7.14,7.14,0,0,0-7.13,7.14V453.66a6.52,6.52,0,0,0,6.52,6.53H209.49a6.53,6.53,0,0,0,6.53-6.53V345.44A7.14,7.14,0,0,0,208.88,338.3Z"/><path class="cls-227" d="M208.86,338.27h-176a7.14,7.14,0,0,0-7.14,7.13V453.63a6.52,6.52,0,0,0,6.53,6.52H209.47a6.53,6.53,0,0,0,6.53-6.52V345.4A7.14,7.14,0,0,0,208.86,338.27Z"/><path class="cls-228" d="M208.83,338.23h-176a7.14,7.14,0,0,0-7.14,7.14V453.59a6.52,6.52,0,0,0,6.52,6.53H209.45a6.52,6.52,0,0,0,6.52-6.53V345.37A7.14,7.14,0,0,0,208.83,338.23Z"/><path class="cls-229" d="M208.81,338.19h-176a7.14,7.14,0,0,0-7.13,7.14V453.56a6.52,6.52,0,0,0,6.52,6.52H209.42a6.52,6.52,0,0,0,6.53-6.52V345.33A7.14,7.14,0,0,0,208.81,338.19Z"/><path class="cls-230" d="M208.79,338.16H32.8a7.14,7.14,0,0,0-7.14,7.14V453.52a6.53,6.53,0,0,0,6.53,6.53H209.4a6.52,6.52,0,0,0,6.52-6.53V345.3A7.14,7.14,0,0,0,208.79,338.16Z"/><path class="cls-231" d="M208.76,338.12h-176a7.14,7.14,0,0,0-7.14,7.14V453.49A6.52,6.52,0,0,0,32.16,460H209.38a6.52,6.52,0,0,0,6.52-6.52V345.26A7.14,7.14,0,0,0,208.76,338.12Z"/><path class="cls-232" d="M208.74,338.09h-176a7.14,7.14,0,0,0-7.14,7.14V453.45A6.53,6.53,0,0,0,32.14,460H209.35a6.53,6.53,0,0,0,6.53-6.53V345.23A7.14,7.14,0,0,0,208.74,338.09Z"/><path class="cls-233" d="M208.72,338.05h-176a7.14,7.14,0,0,0-7.14,7.14V453.42a6.52,6.52,0,0,0,6.53,6.52H209.33a6.52,6.52,0,0,0,6.52-6.52V345.19A7.14,7.14,0,0,0,208.72,338.05Z"/><path class="cls-234" d="M208.69,338h-176a7.14,7.14,0,0,0-7.14,7.14V453.38a6.52,6.52,0,0,0,6.52,6.53H209.31a6.52,6.52,0,0,0,6.52-6.53V345.16A7.14,7.14,0,0,0,208.69,338Z"/><path class="cls-235" d="M208.67,338h-176a7.14,7.14,0,0,0-7.14,7.14V453.35a6.53,6.53,0,0,0,6.53,6.52H209.28a6.52,6.52,0,0,0,6.53-6.52V345.12A7.14,7.14,0,0,0,208.67,338Z"/><path class="cls-236" d="M208.65,338h-176a7.14,7.14,0,0,0-7.14,7.14V453.31A6.52,6.52,0,0,0,32,459.84H209.26a6.52,6.52,0,0,0,6.52-6.53V345.09A7.14,7.14,0,0,0,208.65,338Z"/><path class="cls-237" d="M208.62,337.91h-176a7.14,7.14,0,0,0-7.14,7.14V453.28A6.52,6.52,0,0,0,32,459.8H209.24a6.52,6.52,0,0,0,6.52-6.52V345.05A7.14,7.14,0,0,0,208.62,337.91Z"/><path class="cls-238" d="M208.6,337.88h-176A7.14,7.14,0,0,0,25.47,345V453.24A6.53,6.53,0,0,0,32,459.77H209.21a6.53,6.53,0,0,0,6.53-6.53V345A7.14,7.14,0,0,0,208.6,337.88Z"/><path class="cls-239" d="M208.58,337.84h-176A7.14,7.14,0,0,0,25.45,345V453.21A6.52,6.52,0,0,0,32,459.73H209.19a6.52,6.52,0,0,0,6.52-6.52V345A7.14,7.14,0,0,0,208.58,337.84Z"/><path class="cls-240" d="M208.55,337.81h-176A7.13,7.13,0,0,0,25.43,345V453.17A6.52,6.52,0,0,0,32,459.7H209.17a6.52,6.52,0,0,0,6.52-6.53V345A7.14,7.14,0,0,0,208.55,337.81Z"/><path class="cls-241" d="M208.53,337.77h-176a7.14,7.14,0,0,0-7.14,7.14V453.14a6.52,6.52,0,0,0,6.53,6.52H209.14a6.52,6.52,0,0,0,6.53-6.52V344.91A7.14,7.14,0,0,0,208.53,337.77Z"/><path class="cls-242" d="M208.5,337.74h-176a7.14,7.14,0,0,0-7.14,7.14V453.1a6.53,6.53,0,0,0,6.52,6.53H209.12a6.53,6.53,0,0,0,6.52-6.53V344.88A7.13,7.13,0,0,0,208.5,337.74Z"/><path class="cls-243" d="M208.48,337.7h-176a7.14,7.14,0,0,0-7.13,7.14V453.07a6.52,6.52,0,0,0,6.52,6.52H209.1a6.52,6.52,0,0,0,6.52-6.52V344.84A7.14,7.14,0,0,0,208.48,337.7Z"/><path class="cls-244" d="M208.46,337.67h-176a7.14,7.14,0,0,0-7.14,7.14V453a6.53,6.53,0,0,0,6.53,6.53H209.07A6.54,6.54,0,0,0,215.6,453V344.81A7.14,7.14,0,0,0,208.46,337.67Z"/><path class="cls-245" d="M208.43,337.63h-176a7.14,7.14,0,0,0-7.14,7.14V453a6.52,6.52,0,0,0,6.52,6.52H209.05a6.52,6.52,0,0,0,6.52-6.52V344.77A7.14,7.14,0,0,0,208.43,337.63Z"/><path class="cls-246" d="M208.41,337.6h-176a7.13,7.13,0,0,0-7.13,7.14V453a6.53,6.53,0,0,0,6.52,6.53H209a6.53,6.53,0,0,0,6.53-6.53V344.74A7.14,7.14,0,0,0,208.41,337.6Z"/><path class="cls-247" d="M208.39,337.56H32.4a7.14,7.14,0,0,0-7.14,7.14V452.93a6.52,6.52,0,0,0,6.53,6.52H209a6.53,6.53,0,0,0,6.53-6.52V344.7A7.14,7.14,0,0,0,208.39,337.56Z"/><path class="cls-248" d="M208.36,337.53h-176a7.13,7.13,0,0,0-7.14,7.14V452.89a6.53,6.53,0,0,0,6.52,6.53H209a6.53,6.53,0,0,0,6.52-6.53V344.67A7.13,7.13,0,0,0,208.36,337.53Z"/><path class="cls-249" d="M208.34,337.49h-176a7.14,7.14,0,0,0-7.13,7.14V452.86a6.52,6.52,0,0,0,6.52,6.52H209a6.52,6.52,0,0,0,6.53-6.52V344.63A7.14,7.14,0,0,0,208.34,337.49Z"/><path class="cls-250" d="M208.32,337.46h-176a7.14,7.14,0,0,0-7.14,7.14V452.82a6.53,6.53,0,0,0,6.53,6.53H208.93a6.53,6.53,0,0,0,6.52-6.53V344.6A7.13,7.13,0,0,0,208.32,337.46Z"/><path class="cls-251" d="M208.29,337.42h-176a7.14,7.14,0,0,0-7.14,7.14V452.79a6.52,6.52,0,0,0,6.52,6.52H208.91a6.52,6.52,0,0,0,6.52-6.52V344.56A7.14,7.14,0,0,0,208.29,337.42Z"/><path class="cls-252" d="M208.27,337.39h-176a7.14,7.14,0,0,0-7.14,7.14V452.75a6.53,6.53,0,0,0,6.53,6.52H208.88a6.52,6.52,0,0,0,6.53-6.52V344.53A7.14,7.14,0,0,0,208.27,337.39Z"/><path class="cls-253" d="M208.25,337.35h-176a7.14,7.14,0,0,0-7.14,7.14V452.72a6.52,6.52,0,0,0,6.53,6.52H208.86a6.52,6.52,0,0,0,6.52-6.52V344.49A7.14,7.14,0,0,0,208.25,337.35Z"/><path class="cls-254" d="M208.22,337.32h-176a7.13,7.13,0,0,0-7.14,7.14V452.68a6.52,6.52,0,0,0,6.52,6.52H208.84a6.52,6.52,0,0,0,6.52-6.52V344.46A7.14,7.14,0,0,0,208.22,337.32Z"/><path class="cls-255" d="M208.2,337.28h-176a7.14,7.14,0,0,0-7.14,7.14V452.65a6.53,6.53,0,0,0,6.53,6.52H208.81a6.52,6.52,0,0,0,6.53-6.52V344.42A7.14,7.14,0,0,0,208.2,337.28Z"/><path class="cls-256" d="M208.18,337.25h-176a7.14,7.14,0,0,0-7.14,7.14V452.61a6.52,6.52,0,0,0,6.52,6.52H208.79a6.52,6.52,0,0,0,6.52-6.52V344.39A7.13,7.13,0,0,0,208.18,337.25Z"/><path class="cls-257" d="M208.15,337.21h-176A7.14,7.14,0,0,0,25,344.35V452.58a6.52,6.52,0,0,0,6.52,6.52H208.77a6.52,6.52,0,0,0,6.52-6.52V344.35A7.14,7.14,0,0,0,208.15,337.21Z"/><path class="cls-258" d="M208.13,337.18h-176A7.14,7.14,0,0,0,25,344.32V452.54a6.52,6.52,0,0,0,6.53,6.52H208.74a6.52,6.52,0,0,0,6.53-6.52V344.32A7.14,7.14,0,0,0,208.13,337.18Z"/><path class="cls-259" d="M208.11,337.14h-176A7.14,7.14,0,0,0,25,344.28V452.51A6.52,6.52,0,0,0,31.5,459H208.72a6.52,6.52,0,0,0,6.52-6.52V344.28A7.14,7.14,0,0,0,208.11,337.14Z"/><path class="cls-260" d="M208.08,337.11H32.1A7.13,7.13,0,0,0,25,344.25V452.47A6.52,6.52,0,0,0,31.48,459H208.7a6.52,6.52,0,0,0,6.52-6.52V344.25A7.14,7.14,0,0,0,208.08,337.11Z"/><path class="cls-261" d="M208.06,337.07h-176a7.14,7.14,0,0,0-7.14,7.14V452.43A6.53,6.53,0,0,0,31.46,459H208.67a6.53,6.53,0,0,0,6.53-6.53V344.21A7.14,7.14,0,0,0,208.06,337.07Z"/><path class="cls-262" d="M208,337h-176a7.14,7.14,0,0,0-7.14,7.13V452.4a6.52,6.52,0,0,0,6.52,6.52H208.65a6.52,6.52,0,0,0,6.52-6.52V344.17A7.13,7.13,0,0,0,208,337Z"/><path class="cls-263" d="M208,337H32a7.14,7.14,0,0,0-7.13,7.14V452.36a6.52,6.52,0,0,0,6.52,6.53H208.63a6.52,6.52,0,0,0,6.52-6.53V344.14A7.14,7.14,0,0,0,208,337Z"/><path class="cls-264" d="M208,337H32a7.14,7.14,0,0,0-7.14,7.13V452.33a6.52,6.52,0,0,0,6.53,6.52H208.6a6.53,6.53,0,0,0,6.53-6.52V344.1A7.14,7.14,0,0,0,208,337Z"/><path class="cls-265" d="M208,336.93H32a7.14,7.14,0,0,0-7.14,7.14V452.29a6.52,6.52,0,0,0,6.52,6.53H208.58a6.52,6.52,0,0,0,6.52-6.53V344.07A7.14,7.14,0,0,0,208,336.93Z"/><path class="cls-266" d="M207.94,336.9H32A7.13,7.13,0,0,0,24.82,344V452.26a6.52,6.52,0,0,0,6.52,6.52H208.55a6.52,6.52,0,0,0,6.53-6.52V344A7.14,7.14,0,0,0,207.94,336.9Z"/><path class="cls-267" d="M207.92,336.86h-176A7.14,7.14,0,0,0,24.79,344V452.22a6.53,6.53,0,0,0,6.53,6.53H208.53a6.53,6.53,0,0,0,6.53-6.53V344A7.14,7.14,0,0,0,207.92,336.86Z"/><path class="cls-268" d="M207.89,336.83h-176A7.13,7.13,0,0,0,24.77,344V452.19a6.52,6.52,0,0,0,6.52,6.52H208.51a6.52,6.52,0,0,0,6.52-6.52V344A7.13,7.13,0,0,0,207.89,336.83Z"/><path class="cls-269" d="M207.87,336.79h-176a7.14,7.14,0,0,0-7.13,7.14V452.15a6.52,6.52,0,0,0,6.52,6.53H208.48a6.53,6.53,0,0,0,6.53-6.53V343.93A7.14,7.14,0,0,0,207.87,336.79Z"/><path class="cls-270" d="M207.85,336.76h-176a7.14,7.14,0,0,0-7.14,7.13V452.12a6.52,6.52,0,0,0,6.53,6.52H208.46a6.52,6.52,0,0,0,6.52-6.52V343.89A7.13,7.13,0,0,0,207.85,336.76Z"/><path class="cls-271" d="M207.82,336.72h-176a7.14,7.14,0,0,0-7.14,7.14V452.08a6.52,6.52,0,0,0,6.52,6.53H208.44a6.52,6.52,0,0,0,6.52-6.53V343.86A7.14,7.14,0,0,0,207.82,336.72Z"/><path class="cls-272" d="M207.8,336.69h-176a7.14,7.14,0,0,0-7.14,7.13V452.05a6.53,6.53,0,0,0,6.53,6.52H208.41a6.52,6.52,0,0,0,6.53-6.52V343.82A7.14,7.14,0,0,0,207.8,336.69Z"/><path class="cls-273" d="M207.78,336.65h-176a7.14,7.14,0,0,0-7.14,7.14V452a6.53,6.53,0,0,0,6.53,6.53H208.39a6.52,6.52,0,0,0,6.52-6.53V343.79A7.14,7.14,0,0,0,207.78,336.65Z"/><path class="cls-274" d="M207.75,336.62h-176a7.13,7.13,0,0,0-7.14,7.13V452a6.52,6.52,0,0,0,6.52,6.52H208.37a6.52,6.52,0,0,0,6.52-6.52V343.75A7.14,7.14,0,0,0,207.75,336.62Z"/><path class="cls-275" d="M207.73,336.58h-176a7.14,7.14,0,0,0-7.14,7.14V451.94a6.53,6.53,0,0,0,6.53,6.53H208.34a6.53,6.53,0,0,0,6.53-6.53V343.72A7.14,7.14,0,0,0,207.73,336.58Z"/><path class="cls-276" d="M207.71,336.55h-176a7.14,7.14,0,0,0-7.14,7.13V451.91a6.52,6.52,0,0,0,6.52,6.52H208.32a6.52,6.52,0,0,0,6.52-6.52V343.68A7.13,7.13,0,0,0,207.71,336.55Z"/></g><path class="cls-277" d="M31.1,458.41H208.32a6.52,6.52,0,0,0,6.52-6.53V356.74H24.58v95.14A6.52,6.52,0,0,0,31.1,458.41Z"/><path class="cls-278" d="M207.71,336.52h-176a7.14,7.14,0,0,0-7.14,7.14v13.08H214.84V343.66A7.14,7.14,0,0,0,207.71,336.52Z"/><circle class="cls-17" cx="35.91" cy="346.1" r="3.07"/><circle class="cls-17" cx="46.96" cy="346.1" r="3.07"/><circle class="cls-17" cx="58.01" cy="346.1" r="3.07"/><rect class="cls-17" x="124.45" y="362.19" width="86.38" height="2.39"/><rect class="cls-17" x="124.45" y="369.19" width="43.19" height="2.39"/><rect class="cls-17" x="124.45" y="376.19" width="43.19" height="2.39"/><rect class="cls-17" x="124.45" y="429.85" width="86.38" height="2.39"/><rect class="cls-17" x="124.45" y="436.85" width="43.19" height="2.39"/><rect class="cls-17" x="124.45" y="443.84" width="43.19" height="2.39"/><rect class="cls-17" x="124.45" y="408.05" width="86.38" height="2.39"/><rect class="cls-17" x="124.45" y="415.05" width="43.19" height="2.39"/><rect class="cls-17" x="124.45" y="422.04" width="43.19" height="2.39"/><rect class="cls-17" x="124.45" y="385.12" width="86.38" height="2.39"/><rect class="cls-17" x="124.45" y="392.12" width="43.19" height="2.39"/><rect class="cls-17" x="124.45" y="399.11" width="43.19" height="2.39"/><rect class="cls-17" x="29.96" y="362.19" width="87.57" height="5.98" transform="translate(147.5 730.35) rotate(180)"/><rect class="cls-17" x="29.96" y="373.19" width="87.57" height="73.05"/><rect class="cls-17" x="35.11" y="379.97" width="68.73" height="44.73" rx="5.91"/><path class="cls-279" d="M38.73,417.89,54,395.07a2.72,2.72,0,0,1,4.41-.16l11.32,14.55a2.72,2.72,0,0,0,4.07.25l7-7a2.72,2.72,0,0,1,3.81,0l15.31,14.74A2.72,2.72,0,0,1,98,422.12H41A2.72,2.72,0,0,1,38.73,417.89Z"/><circle class="cls-280" cx="72.02" cy="399.95" r="3.2"/><path class="cls-281" d="M286.08,444.13s-20.83-8.39-31.72-22.5-19-70.94-19-70.94l50.67-18.31h0v-4.31h0l-54.57,19.71s8.67,61.21,20.4,76.41,34.17,24.24,34.17,24.24h0v-4.31Z"/><path class="cls-282" d="M235.41,350.69s8.05,56.83,19,70.94,31.72,22.5,31.72,22.5h0V332.39h0Z"/><path class="cls-283" d="M320.26,424.2c11.73-15.2,20.4-76.41,20.4-76.41l-54.57-19.71v4.31l50.67,18.3s-8.05,56.83-18.95,70.94-31.49,22.41-31.72,22.5v4.31C286.32,448.35,308.59,439.33,320.26,424.2Z"/><path class="cls-284" d="M317.81,421.63c10.9-14.11,18.95-70.94,18.95-70.94l-50.67-18.3V444.13C286.32,444,307,435.67,317.81,421.63Z"/><path class="cls-17" d="M286.08,340.32,242.61,356s6.91,48.76,16.25,60.87,27.22,19.31,27.22,19.31S304,429,313.31,416.89,329.56,356,329.56,356Z"/><path class="cls-285" d="M301.68,374.1h-.07V372a15.53,15.53,0,0,0-31.05,0v2.1h-.07a4,4,0,0,0-4,4v26.38a4,4,0,0,0,4,4h31.19a4,4,0,0,0,4-4V378.13A4,4,0,0,0,301.68,374.1Zm-12.86,14.74V401h-5.47V388.84a5.39,5.39,0,0,1,1.29-9.85,5.59,5.59,0,0,1,2.89,0,5.39,5.39,0,0,1,1.29,9.85Zm6.32-14.74H277V372a9.06,9.06,0,1,1,18.11,0Z"/><polygon class="cls-286" points="271.62 413.98 270.33 411.38 269.04 413.98 266.17 414.4 268.25 416.43 267.76 419.29 270.33 417.94 272.9 419.29 272.41 416.43 274.49 414.4 271.62 413.98"/><polygon class="cls-287" points="281.25 413.98 279.97 411.38 278.68 413.98 275.81 414.4 277.89 416.43 277.39 419.29 279.97 417.94 282.54 419.29 282.05 416.43 284.13 414.4 281.25 413.98"/><polygon class="cls-288" points="290.89 413.98 289.6 411.38 288.32 413.98 285.44 414.4 287.52 416.43 287.03 419.29 289.6 417.94 292.18 419.29 291.68 416.43 293.76 414.4 290.89 413.98"/><polygon class="cls-289" points="303.4 414.4 300.53 413.98 299.24 411.38 297.95 413.98 295.08 414.4 297.16 416.43 296.67 419.29 299.24 417.94 301.81 419.29 301.32 416.43 303.4 414.4"/><path class="cls-17" d="M201.63,77.35c0-.17,0-.35,0-.53a40,40,0,0,0-78.09-12.26,29,29,0,1,0-29.37,49.63,20.57,20.57,0,0,0,10.11,2.63h27.18V101.6h-13l21.58-37.37,21.57,37.37h-13v15.22H197a20,20,0,0,0,20-20h0A20,20,0,0,0,201.63,77.35Z"/></g></g></g></svg>