<svg xmlns="http://www.w3.org/2000/svg" xmlns:xlink="http://www.w3.org/1999/xlink" viewBox="0 0 550 550"><defs><style>.cls-1{mask:url(#mask);filter:url(#luminosity-noclip-2);}.cls-2,.cls-86{mix-blend-mode:multiply;}.cls-2{fill:url(#linear-gradient);}.cls-3{fill:none;}.cls-4{isolation:isolate;}.cls-5{clip-path:url(#clip-path);}.cls-6{fill:url(#linear-gradient-2);}.cls-19,.cls-7{opacity:0.5;}.cls-8{fill:#fff;}.cls-9{fill:url(#linear-gradient-3);}.cls-10{fill:url(#linear-gradient-4);}.cls-11{fill:#151b48;}.cls-12{fill:#25336e;}.cls-13{fill:url(#linear-gradient-5);}.cls-14{fill:#2b4d8d;}.cls-15{fill:url(#linear-gradient-6);}.cls-16{fill:url(#linear-gradient-7);}.cls-17,.cls-19{fill:#f0f5fc;}.cls-18{fill:url(#linear-gradient-8);}.cls-20{fill:url(#linear-gradient-9);}.cls-21{fill:url(#linear-gradient-10);}.cls-22{fill:#90a8d7;}.cls-23{mask:url(#mask-2);}.cls-24{fill:url(#linear-gradient-11);}.cls-25{fill:url(#linear-gradient-12);}.cls-26{fill:url(#linear-gradient-13);}.cls-27{fill:url(#linear-gradient-14);}.cls-28{fill:url(#linear-gradient-15);}.cls-29{fill:#e7edf8;}.cls-30{fill:url(#linear-gradient-16);}.cls-31{fill:url(#linear-gradient-17);}.cls-32{fill:url(#linear-gradient-18);}.cls-33{fill:#d9e1f3;}.cls-34{fill:url(#linear-gradient-19);}.cls-35{fill:url(#linear-gradient-20);}.cls-36{fill:url(#linear-gradient-21);}.cls-37{fill:url(#linear-gradient-22);}.cls-38{fill:url(#linear-gradient-23);}.cls-39{fill:url(#linear-gradient-24);}.cls-40{fill:url(#linear-gradient-25);}.cls-41{fill:url(#linear-gradient-26);}.cls-42{fill:url(#linear-gradient-27);}.cls-43{fill:url(#linear-gradient-28);}.cls-44{fill:url(#linear-gradient-29);}.cls-45{fill:url(#linear-gradient-30);}.cls-46{fill:url(#linear-gradient-31);}.cls-47{fill:url(#linear-gradient-32);}.cls-48{fill:url(#linear-gradient-33);}.cls-49{fill:#fbc717;}.cls-50{fill:url(#linear-gradient-34);}.cls-51{fill:url(#linear-gradient-35);}.cls-52{fill:url(#linear-gradient-36);}.cls-53{fill:url(#linear-gradient-37);}.cls-54{fill:url(#linear-gradient-38);}.cls-55{fill:url(#linear-gradient-39);}.cls-56{fill:url(#linear-gradient-40);}.cls-57{fill:url(#linear-gradient-41);}.cls-58{fill:url(#linear-gradient-42);}.cls-59{fill:url(#linear-gradient-43);}.cls-60{fill:url(#linear-gradient-44);}.cls-61{fill:url(#linear-gradient-45);}.cls-62{fill:url(#linear-gradient-46);}.cls-63{fill:url(#linear-gradient-47);}.cls-64{fill:url(#linear-gradient-48);}.cls-65{fill:url(#linear-gradient-49);}.cls-66{fill:url(#linear-gradient-50);}.cls-67{fill:url(#linear-gradient-51);}.cls-68{fill:#c1cde9;}.cls-69{fill:url(#linear-gradient-52);}.cls-70{fill:url(#linear-gradient-53);}.cls-71{fill:#4783c4;}.cls-72{fill:url(#linear-gradient-54);}.cls-73{fill:url(#linear-gradient-55);}.cls-74{fill:url(#linear-gradient-56);}.cls-75{fill:url(#linear-gradient-57);}.cls-76{fill:url(#linear-gradient-58);}.cls-77{fill:url(#linear-gradient-59);}.cls-78{fill:#f48e9e;}.cls-79{fill:#6c86b5;}.cls-80{fill:#557ab0;}.cls-81{fill:#0e1426;opacity:0.27;}.cls-82{fill:#5dbdeb;}.cls-83{fill:#f27487;}.cls-84{fill:#1a2b57;}.cls-85{fill:#c4e0f5;}.cls-86{fill:#f69181;opacity:0.46;}.cls-87{filter:url(#luminosity-noclip);}</style><filter id="luminosity-noclip" x="435.68" y="-8467" width="44" height="32766" filterUnits="userSpaceOnUse" color-interpolation-filters="sRGB"><feFlood flood-color="#fff" result="bg"/><feBlend in="SourceGraphic" in2="bg"/></filter><mask id="mask" x="435.68" y="-8467" width="44" height="32766" maskUnits="userSpaceOnUse"><g class="cls-87"/></mask><linearGradient id="linear-gradient" x1="422.51" y1="311.99" x2="522.56" y2="744.06" gradientUnits="userSpaceOnUse"><stop offset="0"/><stop offset="1" stop-color="#fff"/></linearGradient><clipPath id="clip-path"><rect class="cls-3" width="550" height="550"/></clipPath><linearGradient id="linear-gradient-2" x1="8.8" y1="446.92" x2="84.82" y2="446.92" gradientUnits="userSpaceOnUse"><stop offset="0" stop-color="#57afe2"/><stop offset="0.19" stop-color="#54a6dc"/><stop offset="0.49" stop-color="#508bc9"/><stop offset="0.86" stop-color="#436ab3"/><stop offset="1" stop-color="#4061ad"/></linearGradient><linearGradient id="linear-gradient-3" x1="33.57" y1="420.15" x2="84.82" y2="420.15" xlink:href="#linear-gradient-2"/><linearGradient id="linear-gradient-4" x1="70.1" y1="405.27" x2="100.04" y2="405.27" xlink:href="#linear-gradient-2"/><linearGradient id="linear-gradient-5" x1="49.74" y1="447.35" x2="137.55" y2="447.35" gradientUnits="userSpaceOnUse"><stop offset="0" stop-color="#9f3694"/><stop offset="0.52" stop-color="#cd4f6f"/><stop offset="1" stop-color="#f26c46"/></linearGradient><linearGradient id="linear-gradient-6" x1="56.02" y1="469.43" x2="116.32" y2="469.43" xlink:href="#linear-gradient-2"/><linearGradient id="linear-gradient-7" x1="77.33" y1="429.62" x2="112.01" y2="429.62" xlink:href="#linear-gradient-2"/><linearGradient id="linear-gradient-8" x1="440.75" y1="384.41" x2="546.74" y2="384.41" xlink:href="#linear-gradient-2"/><linearGradient id="linear-gradient-9" x1="449.37" y1="416.36" x2="549.61" y2="416.36" xlink:href="#linear-gradient-2"/><linearGradient id="linear-gradient-10" x1="427.61" y1="361.29" x2="491.19" y2="361.29" xlink:href="#linear-gradient-2"/><filter id="luminosity-noclip-2" x="435.68" y="456.63" width="44" height="25.15" filterUnits="userSpaceOnUse" color-interpolation-filters="sRGB"><feFlood flood-color="#fff" result="bg"/><feBlend in="SourceGraphic" in2="bg"/></filter><mask id="mask-2" x="435.68" y="456.63" width="44" height="25.15" maskUnits="userSpaceOnUse"><g class="cls-1"><path class="cls-2" d="M479.68,458.84l-1.86,16.53c-2.15-.63-4.19-1.62-6.32-2.32a11.52,11.52,0,0,0-7.28-.37c-3.66,1.26-5.75,5.13-9,7.19-3,1.87-6.72,2.09-10.24,1.8a31.3,31.3,0,0,1-6.58-1.23l-2.68-23.81a61.59,61.59,0,0,1,6.5,4.1c2.74,1.8,5.8,3.41,9.07,3.39,5.21,0,9.47-4.08,14.44-5.63,4.45-1.39,9.26-.71,13.81.31Z"/></g></mask><linearGradient id="linear-gradient-11" x1="422.51" y1="311.99" x2="522.56" y2="744.06" gradientUnits="userSpaceOnUse"><stop offset="0" stop-color="#fff"/><stop offset="1" stop-color="#fff"/></linearGradient><linearGradient id="linear-gradient-12" x1="467.91" y1="250.98" x2="129.41" y2="258.38" gradientUnits="userSpaceOnUse"><stop offset="0.01" stop-color="#fcaf17"/><stop offset="1" stop-color="#9f519f"/></linearGradient><linearGradient id="linear-gradient-13" x1="105.13" y1="20.99" x2="102.99" y2="71.58" xlink:href="#linear-gradient-5"/><linearGradient id="linear-gradient-14" x1="20.26" y1="92.08" x2="24.34" y2="92.08" xlink:href="#linear-gradient-5"/><linearGradient id="linear-gradient-15" x1="20.26" y1="58.35" x2="74.77" y2="58.35" xlink:href="#linear-gradient-5"/><linearGradient id="linear-gradient-16" x1="13.41" y1="110.39" x2="176.45" y2="177.61" xlink:href="#linear-gradient-5"/><linearGradient id="linear-gradient-17" x1="59.6" y1="100.19" x2="153.97" y2="100.19" xlink:href="#linear-gradient-5"/><linearGradient id="linear-gradient-18" x1="174.87" y1="85.27" x2="167.29" y2="143.7" xlink:href="#linear-gradient-5"/><linearGradient id="linear-gradient-19" x1="224.8" y1="422.15" x2="608.94" y2="535.54" gradientUnits="userSpaceOnUse"><stop offset="0" stop-color="#5c61ab"/><stop offset="1" stop-color="#80d1de"/></linearGradient><linearGradient id="linear-gradient-20" x1="366.77" y1="650.19" x2="368.01" y2="302.75" xlink:href="#linear-gradient-19"/><linearGradient id="linear-gradient-21" x1="97.55" y1="445.04" x2="716.87" y2="576.52" xlink:href="#linear-gradient-19"/><linearGradient id="linear-gradient-22" x1="474.35" y1="244.49" x2="137.53" y2="251.86" xlink:href="#linear-gradient-5"/><linearGradient id="linear-gradient-23" x1="390.43" y1="244.31" x2="406.43" y2="244.31" xlink:href="#linear-gradient-5"/><linearGradient id="linear-gradient-24" x1="390.43" y1="249.03" x2="406.43" y2="249.03" xlink:href="#linear-gradient-5"/><linearGradient id="linear-gradient-25" x1="474.35" y1="211.1" x2="137.53" y2="218.46" xlink:href="#linear-gradient-5"/><linearGradient id="linear-gradient-26" x1="390.43" y1="210.92" x2="406.43" y2="210.92" xlink:href="#linear-gradient-5"/><linearGradient id="linear-gradient-27" x1="390.43" y1="215.63" x2="406.43" y2="215.63" xlink:href="#linear-gradient-5"/><linearGradient id="linear-gradient-28" x1="474.35" y1="177.7" x2="137.53" y2="185.07" xlink:href="#linear-gradient-5"/><linearGradient id="linear-gradient-29" x1="390.43" y1="177.52" x2="406.43" y2="177.52" xlink:href="#linear-gradient-5"/><linearGradient id="linear-gradient-30" x1="390.43" y1="182.24" x2="406.43" y2="182.24" xlink:href="#linear-gradient-5"/><linearGradient id="linear-gradient-31" x1="474.35" y1="144.3" x2="137.53" y2="151.67" xlink:href="#linear-gradient-5"/><linearGradient id="linear-gradient-32" x1="390.43" y1="144.12" x2="406.43" y2="144.12" xlink:href="#linear-gradient-5"/><linearGradient id="linear-gradient-33" x1="390.43" y1="148.84" x2="406.43" y2="148.84" xlink:href="#linear-gradient-5"/><linearGradient id="linear-gradient-34" x1="476.59" y1="347.25" x2="139.77" y2="354.62" xlink:href="#linear-gradient-5"/><linearGradient id="linear-gradient-35" x1="390.43" y1="347.12" x2="406.43" y2="347.12" xlink:href="#linear-gradient-5"/><linearGradient id="linear-gradient-36" x1="390.43" y1="351.84" x2="406.43" y2="351.84" xlink:href="#linear-gradient-5"/><linearGradient id="linear-gradient-37" x1="477.34" y1="381.51" x2="140.52" y2="388.87" xlink:href="#linear-gradient-5"/><linearGradient id="linear-gradient-38" x1="390.43" y1="381.39" x2="406.43" y2="381.39" xlink:href="#linear-gradient-5"/><linearGradient id="linear-gradient-39" x1="390.43" y1="386.11" x2="406.43" y2="386.11" xlink:href="#linear-gradient-5"/><linearGradient id="linear-gradient-40" x1="478.09" y1="415.76" x2="141.27" y2="423.13" xlink:href="#linear-gradient-5"/><linearGradient id="linear-gradient-41" x1="390.43" y1="415.66" x2="406.43" y2="415.66" xlink:href="#linear-gradient-5"/><linearGradient id="linear-gradient-42" x1="390.43" y1="420.38" x2="406.43" y2="420.38" xlink:href="#linear-gradient-5"/><linearGradient id="linear-gradient-43" x1="478.84" y1="450.01" x2="142.02" y2="457.38" xlink:href="#linear-gradient-5"/><linearGradient id="linear-gradient-44" x1="390.43" y1="449.93" x2="406.43" y2="449.93" xlink:href="#linear-gradient-5"/><linearGradient id="linear-gradient-45" x1="390.43" y1="454.65" x2="406.43" y2="454.65" xlink:href="#linear-gradient-5"/><linearGradient id="linear-gradient-46" x1="467.91" y1="312.75" x2="129.41" y2="320.15" xlink:href="#linear-gradient-5"/><linearGradient id="linear-gradient-47" x1="393.63" y1="312.42" x2="408.74" y2="312.42" xlink:href="#linear-gradient-5"/><linearGradient id="linear-gradient-48" x1="393.63" y1="317.14" x2="408.74" y2="317.14" xlink:href="#linear-gradient-5"/><linearGradient id="linear-gradient-49" x1="467.91" y1="278.91" x2="129.41" y2="286.32" xlink:href="#linear-gradient-5"/><linearGradient id="linear-gradient-50" x1="393.63" y1="278.58" x2="408.74" y2="278.58" xlink:href="#linear-gradient-5"/><linearGradient id="linear-gradient-51" x1="393.63" y1="283.3" x2="408.74" y2="283.3" xlink:href="#linear-gradient-5"/><linearGradient id="linear-gradient-52" x1="330" y1="94.89" x2="342.67" y2="94.89" xlink:href="#linear-gradient-5"/><linearGradient id="linear-gradient-53" x1="334.69" y1="114.45" x2="337.97" y2="114.45" xlink:href="#linear-gradient-5"/><linearGradient id="linear-gradient-54" x1="353.72" y1="94.89" x2="366.39" y2="94.89" xlink:href="#linear-gradient-5"/><linearGradient id="linear-gradient-55" x1="358.41" y1="114.45" x2="361.69" y2="114.45" xlink:href="#linear-gradient-5"/><linearGradient id="linear-gradient-56" x1="377.44" y1="94.89" x2="390.11" y2="94.89" xlink:href="#linear-gradient-5"/><linearGradient id="linear-gradient-57" x1="382.13" y1="114.45" x2="385.41" y2="114.45" xlink:href="#linear-gradient-5"/><linearGradient id="linear-gradient-58" x1="401.16" y1="94.89" x2="413.83" y2="94.89" xlink:href="#linear-gradient-5"/><linearGradient id="linear-gradient-59" x1="405.85" y1="114.45" x2="409.13" y2="114.45" xlink:href="#linear-gradient-5"/></defs><g class="cls-4"><g id="Layer_1" data-name="Layer 1"><g class="cls-5"><path class="cls-6" d="M84.82,484.12s-61.94-16.39-76-74.41C8.8,409.71,49.66,421.38,84.82,484.12Z"/><g class="cls-7"><path class="cls-8" d="M84.82,484.39a.24.24,0,0,1-.18-.07C43.2,445.89,20.72,423,20.5,422.81a.27.27,0,0,1,0-.38.26.26,0,0,1,.38,0c.22.23,22.69,23.07,64.11,61.5a.27.27,0,0,1,0,.38A.32.32,0,0,1,84.82,484.39Z"/></g><path class="cls-9" d="M84.82,484.12c-10.31-11.82-20.66-23.72-29-37a148.75,148.75,0,0,1-21.74-90.92c12.37,9.82,20.14,22.32,27.3,36.39,6.4,12.58,12.28,25.52,16,39.15C82.2,449.68,84,465.53,84.82,484.12Z"/><g class="cls-7"><path class="cls-8" d="M82.66,478.35a.28.28,0,0,1-.25-.17L40.22,372.53a.26.26,0,0,1,.15-.35.27.27,0,0,1,.35.15L82.91,478a.26.26,0,0,1-.15.35Z"/></g><path class="cls-10" d="M84.82,484.12s-37.52-94.6,7.23-157.7C92.05,326.42,114.15,383,84.82,484.12Z"/><g class="cls-7"><path class="cls-8" d="M82.66,475.79a.25.25,0,0,1-.26-.23C78.35,445.78,89,348,89.09,347.06a.26.26,0,0,1,.29-.24.27.27,0,0,1,.24.3c-.11,1-10.72,98.66-6.69,128.37a.26.26,0,0,1-.23.3Z"/></g><path class="cls-11" d="M101.4,478.57a20.24,20.24,0,0,0-8.66,1.94,32.92,32.92,0,0,0-60.25,18.34h89.19A20.28,20.28,0,0,0,101.4,478.57Z"/><path class="cls-12" d="M147.65,408s25.63,48.69,26.88,68.34-12.45,30.85-41.92,5.39l2.49-4.39s14.8,15.86,24.63,15.39,12.31-9.89,9.54-19.58-13.56-39.84-25.45-57Z"/><path class="cls-12" d="M129.17,408s25.64,48.69,26.88,68.34-12.45,30.85-41.92,5.39l2.49-4.39s14.81,15.86,24.63,15.39,12.31-9.89,9.55-19.58-13.56-39.84-25.46-57Z"/><path class="cls-13" d="M104.83,496.05h-47c-5.78,0-9.22-4.88-7.7-10.91l19.15-75.57c1.52-6,7.44-10.91,13.22-10.91h47c5.78,0,9.23,4.88,7.7,10.91l-19.14,75.57C116.53,491.17,110.6,496.05,104.83,496.05Z"/><path class="cls-14" d="M147.53,409.57l-7.89,54-3.16,21.59c-.88,6-6.27,10.91-12,10.91h-19.6c5.77,0,11.69-4.88,13.22-10.91l5.47-21.59,13.67-54c1.53-6-1.92-10.92-7.7-10.92H139C144.6,398.86,148.39,403.67,147.53,409.57Z"/><path class="cls-8" d="M142.88,408.41c-1.57,9.63-11.11,55.79-11.21,56.25a.28.28,0,0,1-.27.23h-.06a.28.28,0,0,1-.22-.33c.09-.47,9.63-46.62,11.2-56.23a9.11,9.11,0,0,0-1.36-7.06,9.27,9.27,0,0,0-3.06-2.61H139a9.47,9.47,0,0,1,2.4,2.27A9.67,9.67,0,0,1,142.88,408.41Z"/><path class="cls-12" d="M139.64,463.55l-3.16,21.59c-.88,6-6.27,10.91-12,10.91h-19.6c5.77,0,11.69-4.88,13.22-10.91l5.47-21.59Z"/><path class="cls-14" d="M106.27,490.77H60.59a3.1,3.1,0,0,1-3-3.85l8.56-32.51A2.94,2.94,0,0,1,69,452.23h45.69a3.1,3.1,0,0,1,3,3.86l-8.56,32.5A2.93,2.93,0,0,1,106.27,490.77Z"/><path class="cls-15" d="M104.81,488.7H59.12a3.1,3.1,0,0,1-3-3.85l8.56-32.51a2.93,2.93,0,0,1,2.85-2.18h45.68a3.11,3.11,0,0,1,3,3.86l-8.56,32.5A2.94,2.94,0,0,1,104.81,488.7Z"/><path class="cls-14" d="M106.23,441.89H80a1.79,1.79,0,0,1-1.73-2.22L83.15,421a1.69,1.69,0,0,1,1.64-1.25h26.27a1.78,1.78,0,0,1,1.73,2.21l-4.92,18.7A1.69,1.69,0,0,1,106.23,441.89Z"/><path class="cls-16" d="M105.39,440.7H79.12a1.78,1.78,0,0,1-1.73-2.22l4.92-18.69A1.69,1.69,0,0,1,84,418.54h26.27a1.78,1.78,0,0,1,1.73,2.21L107,439.45A1.69,1.69,0,0,1,105.39,440.7Z"/><path class="cls-17" d="M-.45,498.85h550s-6.24,40.91-66.54,30-38.57,31.2-115.72,12-180.11.59-224.54-10.1S24.5,558.79-.45,498.85Z"/><path class="cls-18" d="M460.69,451.79A44.86,44.86,0,0,1,473,408.31c3-2.81,6.61-5.55,7.42-9.58.86-4.26-1.73-8.38-2.55-12.64A18.71,18.71,0,0,1,482.15,371a28.32,28.32,0,0,1,13.4-8.62c5.58-1.79,12-2.59,15.73-7.14,4.52-5.57,2.68-14.14,6.25-20.35,6-10.45,23.74-9.18,29.21-19.93-24.27.77-47,13.25-64.64,30-14.63,13.9-26.79,30.62-34.06,49.44s-9.5,39.79-4.85,59.43C449,453.19,454.86,452.43,460.69,451.79Z"/><path class="cls-19" d="M451.84,460.14a.31.31,0,0,1-.31-.26,113.21,113.21,0,0,1-.74-20.1c.81-20.49,4.92-38.88,12.2-54.67,8.4-18.19,20.95-32.77,36.29-42.15a.31.31,0,0,1,.33.53c-15.24,9.32-27.71,23.8-36.06,41.88-7.25,15.71-11.34,34-12.14,54.43a112.88,112.88,0,0,0,.73,20,.3.3,0,0,1-.26.35Z"/><path class="cls-20" d="M463.61,406.72a67.56,67.56,0,0,1,41.31-24.64,92.62,92.62,0,0,1,21-.86,46.68,46.68,0,0,1,13.24,2.28,19.83,19.83,0,0,1,10.47,8.07c-5.45-2.14-11.73-.67-16.85,2.16s-9.43,6.9-14.1,10.42-10,6.61-15.84,6.92c-3,.16-6.07-.39-8.83.7-5.3,2.1-6.67,8.82-10,13.41-2.23,3.05-5.43,5.2-8.52,7.38s-6.2,4.52-8.1,7.78S465,448,467.3,451c-4.69.05-9.88,1.05-14.51.56-4.07-.43-3.47-4.22-3.27-7.49a68,68,0,0,1,6.54-25.18A66.24,66.24,0,0,1,463.61,406.72Z"/><path class="cls-19" d="M458.51,458.86a.32.32,0,0,1-.31-.29,70.4,70.4,0,0,1,63.67-73.79.31.31,0,0,1,.06.62,69.77,69.77,0,0,0-63.11,73.14.3.3,0,0,1-.29.32Z"/><path class="cls-21" d="M450,406.29c5.51-16.79,13.94-33.23,14.27-50.67.23-12-3.29-24.8,2.85-35.63,4.46-7.87,13.6-13.63,16.24-22.08,1.94-6.22,0-12.78-.4-19.21s1.53-13.88,8.21-16.84c-9.16.81-16.62,6.91-21.19,13.75s-7,14.58-10.67,21.8c-4.77,9.28-11.73,17.74-15.27,27.42-4.9,13.37-2.86,27.94-6.74,41.55-3.06,10.76-9.81,20.94-9.71,32,.09,10.15,6,19.62,7.4,29.69,1.15,7.94-.49,16.08,1.16,23.95.76,3.64,4.76,11.26,10.43,7.8,4.89-3,2.41-9.59,1.13-13.41C443.35,433.32,445.8,419.17,450,406.29Z"/><path class="cls-19" d="M446.32,464.3a.3.3,0,0,1-.3-.21,158.88,158.88,0,0,1-1.39-92.35c1.24-4.27,2.68-8.56,4.08-12.71,3.21-9.53,6.53-19.39,7.55-29.53.21-2.08.33-4.25.45-6.34.36-6.51.74-13.24,3.83-19a50.54,50.54,0,0,1,4.95-7.1c3.46-4.4,6.73-8.57,6.59-13.81a.32.32,0,0,1,.31-.32.3.3,0,0,1,.31.3c.15,5.47-3.35,9.91-6.73,14.21a49.54,49.54,0,0,0-4.88,7c-3,5.68-3.41,12.34-3.77,18.79-.11,2.09-.23,4.26-.45,6.37-1,10.2-4.35,20.09-7.58,29.66-1.39,4.15-2.83,8.43-4.07,12.68a158.25,158.25,0,0,0,1.39,92,.3.3,0,0,1-.2.38A.15.15,0,0,1,446.32,464.3Z"/><path class="cls-22" d="M480.52,450.23l-1,8.61-1.86,16.53-2.34,20.78a3.08,3.08,0,0,1-3.06,2.73H443.06a3.08,3.08,0,0,1-3.06-2.73l-1.77-15.71-2.68-23.81-.72-6.4a3.08,3.08,0,0,1,3.06-3.42h39.57A3.07,3.07,0,0,1,480.52,450.23Z"/><g class="cls-23"><path class="cls-24" d="M479.68,458.84l-1.86,16.53c-2.15-.63-4.19-1.62-6.32-2.32a11.52,11.52,0,0,0-7.28-.37c-3.66,1.26-5.75,5.13-9,7.19-3,1.87-6.72,2.09-10.24,1.8a31.3,31.3,0,0,1-6.58-1.23l-2.68-23.81a61.59,61.59,0,0,1,6.5,4.1c2.74,1.8,5.8,3.41,9.07,3.39,5.21,0,9.47-4.08,14.44-5.63,4.45-1.39,9.26-.71,13.81.31Z"/></g><rect class="cls-25" x="312.71" y="238.02" width="124.72" height="29.98"/><rect class="cls-17" x="7.16" y="36.81" width="193.91" height="142" rx="5.49"/><path class="cls-26" d="M201.07,42.31v5.2H7.16v-5.2a5.5,5.5,0,0,1,5.5-5.5H195.58A5.49,5.49,0,0,1,201.07,42.31Z"/><circle class="cls-8" cx="20.26" cy="42.16" r="2.09" transform="translate(-25.43 52.19) rotate(-76.72)"/><circle class="cls-8" cx="29.38" cy="42.16" r="2.09" transform="translate(-13.9 14.45) rotate(-22.5)"/><circle class="cls-8" cx="38.51" cy="42.16" r="2.09"/><rect class="cls-8" x="20.26" y="56.62" width="54.51" height="70.93" rx="2.49"/><path class="cls-27" d="M24.34,81.86v20.45a2.43,2.43,0,0,1-2.43,2.42H20.26V79.44h1.65A2.42,2.42,0,0,1,24.34,81.86Z"/><path class="cls-28" d="M74.77,59.1v1H20.26v-1a2.48,2.48,0,0,1,2.49-2.48H72.28A2.48,2.48,0,0,1,74.77,59.1Z"/><path class="cls-8" d="M23.79,58.35a.7.7,0,1,1-.7-.7A.7.7,0,0,1,23.79,58.35Z"/><path class="cls-8" d="M26.84,58.35a.7.7,0,1,1-.7-.7A.7.7,0,0,1,26.84,58.35Z"/><path class="cls-8" d="M29.89,58.35a.7.7,0,1,1-.7-.7A.7.7,0,0,1,29.89,58.35Z"/><rect class="cls-8" x="59.6" y="97.54" width="94.36" height="52.25" rx="2.81"/><polygon class="cls-29" points="149.9 141.15 148.15 145.78 63.67 145.78 65.42 141.15 149.9 141.15"/><polygon class="cls-30" points="123.58 141.15 122.36 145.78 63.67 145.78 65.42 141.15 123.58 141.15"/><path class="cls-29" d="M114.34,125.14l-1.43-3.79-2.19.82a9,9,0,0,0-2-2.13l1-2.13-3.7-1.68-1,2.14a8.85,8.85,0,0,0-2.91-.1l-.82-2.2-3.8,1.43.82,2.19a8.83,8.83,0,0,0-2.13,2l-2.13-1-1.68,3.69,2.14,1a8.87,8.87,0,0,0-.1,2.91l-2.2.83,1.43,3.79,2.19-.82a9,9,0,0,0,2,2.13l-1,2.13,3.69,1.68,1-2.14a8.87,8.87,0,0,0,2.91.1l.83,2.2,3.8-1.43-.83-2.19a8.83,8.83,0,0,0,2.13-2l2.14,1,1.67-3.69-2.13-1a8.87,8.87,0,0,0,.1-2.91Zm-9.45,6.27a4.57,4.57,0,1,1,2.67-5.89A4.58,4.58,0,0,1,104.89,131.41Z"/><path class="cls-29" d="M123.39,109.18l-2.19-2.1L120,108.34a6.64,6.64,0,0,0-2-.79l0-1.74-3,.06,0,1.75a6.89,6.89,0,0,0-2,.87l-1.26-1.21-2.1,2.19,1.27,1.21a6.59,6.59,0,0,0-.79,2l-1.75,0,.06,3,1.75,0a6.77,6.77,0,0,0,.87,2L109.78,119l2.19,2.1,1.21-1.26a6.64,6.64,0,0,0,2,.79l0,1.75,3-.07,0-1.75a6.34,6.34,0,0,0,2-.87l1.26,1.21,2.1-2.19-1.27-1.21a6.59,6.59,0,0,0,.79-2l1.75,0-.06-3-1.75,0a6.55,6.55,0,0,0-.88-2Zm-4.34,7.26a3.41,3.41,0,1,1-.1-4.82A3.41,3.41,0,0,1,119.05,116.44Z"/><path class="cls-31" d="M154,100.35v2.49H59.6v-2.49a2.81,2.81,0,0,1,2.81-2.81h88.75A2.81,2.81,0,0,1,154,100.35Z"/><path class="cls-8" d="M66.71,100.19A1.17,1.17,0,1,1,65.54,99,1.17,1.17,0,0,1,66.71,100.19Z"/><path class="cls-8" d="M70.74,100.19A1.17,1.17,0,1,1,69.57,99,1.18,1.18,0,0,1,70.74,100.19Z"/><path class="cls-8" d="M74.76,100.19A1.17,1.17,0,1,1,73.6,99,1.17,1.17,0,0,1,74.76,100.19Z"/><rect class="cls-8" x="148.72" y="113.25" width="44.36" height="55.3" rx="1.8"/><path class="cls-32" d="M193.08,115.05v1.68H148.72v-1.68a1.81,1.81,0,0,1,1.8-1.8h40.76A1.81,1.81,0,0,1,193.08,115.05Z"/><rect class="cls-29" x="157.99" y="121.71" width="25.82" height="5.84"/><rect class="cls-17" x="295.6" y="124.83" width="132.01" height="352.13"/><rect class="cls-33" x="308.75" y="124.83" width="132.01" height="352.13"/><rect class="cls-17" x="312.71" y="130.57" width="124.1" height="340.66"/><rect class="cls-34" x="312.71" y="461.6" width="124.1" height="9.63"/><rect class="cls-33" x="314.32" y="461.6" width="1.17" height="9.63"/><rect class="cls-33" x="317.75" y="461.6" width="1.17" height="9.63"/><rect class="cls-33" x="321.17" y="461.6" width="1.17" height="9.63"/><rect class="cls-33" x="324.6" y="461.6" width="1.17" height="9.63"/><rect class="cls-33" x="328.02" y="461.6" width="1.17" height="9.63"/><rect class="cls-33" x="331.45" y="461.6" width="1.17" height="9.63"/><rect class="cls-33" x="334.88" y="461.6" width="1.17" height="9.63"/><rect class="cls-33" x="338.3" y="461.6" width="1.17" height="9.63"/><rect class="cls-33" x="341.73" y="461.6" width="1.17" height="9.63"/><rect class="cls-33" x="345.16" y="461.6" width="1.17" height="9.63"/><rect class="cls-33" x="348.58" y="461.6" width="1.17" height="9.63"/><rect class="cls-33" x="352.01" y="461.6" width="1.17" height="9.63"/><rect class="cls-33" x="355.43" y="461.6" width="1.17" height="9.63"/><rect class="cls-33" x="358.86" y="461.6" width="1.17" height="9.63"/><rect class="cls-33" x="362.29" y="461.6" width="1.17" height="9.63"/><rect class="cls-33" x="365.71" y="461.6" width="1.17" height="9.63"/><rect class="cls-33" x="369.14" y="461.6" width="1.17" height="9.63"/><rect class="cls-33" x="372.57" y="461.6" width="1.17" height="9.63"/><rect class="cls-33" x="375.99" y="461.6" width="1.17" height="9.63"/><rect class="cls-33" x="379.42" y="461.6" width="1.17" height="9.63"/><rect class="cls-33" x="382.84" y="461.6" width="1.17" height="9.63"/><rect class="cls-33" x="386.27" y="461.6" width="1.17" height="9.63"/><rect class="cls-33" x="389.7" y="461.6" width="1.17" height="9.63"/><rect class="cls-33" x="393.12" y="461.6" width="1.17" height="9.63"/><rect class="cls-33" x="396.55" y="461.6" width="1.17" height="9.63"/><rect class="cls-33" x="399.98" y="461.6" width="1.17" height="9.63"/><rect class="cls-33" x="403.4" y="461.6" width="1.17" height="9.63"/><rect class="cls-33" x="406.83" y="461.6" width="1.17" height="9.63"/><rect class="cls-33" x="410.25" y="461.6" width="1.17" height="9.63"/><rect class="cls-33" x="413.68" y="461.6" width="1.17" height="9.63"/><rect class="cls-33" x="417.11" y="461.6" width="1.17" height="9.63"/><rect class="cls-33" x="420.53" y="461.6" width="1.17" height="9.63"/><rect class="cls-33" x="423.96" y="461.6" width="1.17" height="9.63"/><rect class="cls-33" x="427.39" y="461.6" width="1.17" height="9.63"/><rect class="cls-33" x="430.81" y="461.6" width="1.17" height="9.63"/><rect class="cls-33" x="434.24" y="461.6" width="1.17" height="9.63"/><rect class="cls-35" x="292.46" y="476.97" width="149.78" height="21.94"/><rect class="cls-36" x="292.46" y="476.97" width="14.29" height="21.94"/><rect class="cls-37" x="312.71" y="231.68" width="124.1" height="29.98"/><rect class="cls-17" x="388.97" y="235.09" width="45.15" height="23.17" rx="8.19"/><rect class="cls-38" x="390.43" y="243.12" width="16" height="2.39"/><rect class="cls-39" x="390.43" y="247.83" width="16" height="2.39"/><rect class="cls-17" x="370.15" y="236.92" width="2.75" height="19.5" rx="1.19"/><rect class="cls-17" x="365.01" y="236.92" width="2.75" height="19.5" rx="1.19"/><rect class="cls-17" x="359.88" y="236.92" width="2.75" height="19.5" rx="1.19"/><path class="cls-17" d="M337.5,254.75a1.5,1.5,0,1,1-1.5-1.5A1.5,1.5,0,0,1,337.5,254.75Z"/><path class="cls-17" d="M344.16,254.75a1.5,1.5,0,1,1-1.49-1.5A1.5,1.5,0,0,1,344.16,254.75Z"/><path class="cls-17" d="M350.83,254.75a1.5,1.5,0,1,1-1.5-1.5A1.5,1.5,0,0,1,350.83,254.75Z"/><rect class="cls-40" x="312.71" y="198.29" width="124.1" height="29.98"/><rect class="cls-17" x="388.97" y="201.69" width="45.15" height="23.17" rx="8.19"/><rect class="cls-41" x="390.43" y="209.72" width="16" height="2.39"/><rect class="cls-42" x="390.43" y="214.44" width="16" height="2.39"/><rect class="cls-17" x="370.15" y="203.53" width="2.75" height="19.5" rx="1.19"/><rect class="cls-17" x="365.01" y="203.53" width="2.75" height="19.5" rx="1.19"/><rect class="cls-17" x="359.88" y="203.53" width="2.75" height="19.5" rx="1.19"/><path class="cls-17" d="M337.5,221.35a1.5,1.5,0,1,1-1.5-1.5A1.5,1.5,0,0,1,337.5,221.35Z"/><path class="cls-17" d="M344.16,221.35a1.5,1.5,0,1,1-1.49-1.5A1.5,1.5,0,0,1,344.16,221.35Z"/><path class="cls-17" d="M350.83,221.35a1.5,1.5,0,1,1-1.5-1.5A1.5,1.5,0,0,1,350.83,221.35Z"/><rect class="cls-43" x="312.71" y="164.89" width="124.1" height="29.98"/><rect class="cls-17" x="388.97" y="168.29" width="45.15" height="23.17" rx="8.19"/><rect class="cls-44" x="390.43" y="176.32" width="16" height="2.39"/><rect class="cls-45" x="390.43" y="181.04" width="16" height="2.39"/><rect class="cls-17" x="370.15" y="170.13" width="2.75" height="19.5" rx="1.19"/><rect class="cls-17" x="365.01" y="170.13" width="2.75" height="19.5" rx="1.19"/><rect class="cls-17" x="359.88" y="170.13" width="2.75" height="19.5" rx="1.19"/><path class="cls-17" d="M337.5,188a1.5,1.5,0,1,1-1.5-1.5A1.5,1.5,0,0,1,337.5,188Z"/><path class="cls-17" d="M344.16,188a1.5,1.5,0,1,1-1.49-1.5A1.5,1.5,0,0,1,344.16,188Z"/><path class="cls-17" d="M350.83,188a1.5,1.5,0,1,1-1.5-1.5A1.5,1.5,0,0,1,350.83,188Z"/><rect class="cls-46" x="312.71" y="131.49" width="124.1" height="29.98"/><rect class="cls-17" x="388.97" y="134.9" width="45.15" height="23.17" rx="8.19"/><rect class="cls-47" x="390.43" y="142.93" width="16" height="2.39"/><rect class="cls-48" x="390.43" y="147.64" width="16" height="2.39"/><rect class="cls-17" x="370.15" y="136.73" width="2.75" height="19.5" rx="1.19"/><rect class="cls-17" x="365.01" y="136.73" width="2.75" height="19.5" rx="1.19"/><rect class="cls-17" x="359.88" y="136.73" width="2.75" height="19.5" rx="1.19"/><path class="cls-17" d="M337.5,154.56a1.5,1.5,0,1,1-1.5-1.5A1.5,1.5,0,0,1,337.5,154.56Z"/><path class="cls-17" d="M344.16,154.56a1.5,1.5,0,1,1-1.49-1.5A1.5,1.5,0,0,1,344.16,154.56Z"/><path class="cls-17" d="M350.83,154.56a1.5,1.5,0,1,1-1.5-1.5A1.5,1.5,0,0,1,350.83,154.56Z"/><rect class="cls-17" x="388.97" y="303.63" width="45.15" height="23.17" rx="8.19"/><rect class="cls-49" x="390.43" y="311.66" width="16" height="2.39"/><rect class="cls-49" x="390.43" y="316.37" width="16" height="2.39"/><rect class="cls-17" x="370.15" y="305.46" width="2.75" height="19.5" rx="1.19"/><rect class="cls-17" x="365.01" y="305.46" width="2.75" height="19.5" rx="1.19"/><rect class="cls-17" x="359.88" y="305.46" width="2.75" height="19.5" rx="1.19"/><path class="cls-17" d="M337.5,323.29a1.5,1.5,0,1,1-1.5-1.5A1.5,1.5,0,0,1,337.5,323.29Z"/><path class="cls-17" d="M344.16,323.29a1.5,1.5,0,1,1-1.49-1.5A1.5,1.5,0,0,1,344.16,323.29Z"/><path class="cls-17" d="M350.83,323.29a1.5,1.5,0,1,1-1.5-1.5A1.5,1.5,0,0,1,350.83,323.29Z"/><rect class="cls-50" x="312.71" y="334.49" width="124.1" height="29.98"/><rect class="cls-17" x="388.97" y="337.9" width="45.15" height="23.17" rx="8.19"/><rect class="cls-51" x="390.43" y="345.93" width="16" height="2.39"/><rect class="cls-52" x="390.43" y="350.64" width="16" height="2.39"/><rect class="cls-17" x="370.15" y="339.73" width="2.75" height="19.5" rx="1.19"/><rect class="cls-17" x="365.01" y="339.73" width="2.75" height="19.5" rx="1.19"/><rect class="cls-17" x="359.88" y="339.73" width="2.75" height="19.5" rx="1.19"/><path class="cls-17" d="M337.5,357.56a1.5,1.5,0,1,1-1.5-1.5A1.5,1.5,0,0,1,337.5,357.56Z"/><path class="cls-17" d="M344.16,357.56a1.5,1.5,0,1,1-1.49-1.5A1.5,1.5,0,0,1,344.16,357.56Z"/><path class="cls-17" d="M350.83,357.56a1.5,1.5,0,1,1-1.5-1.5A1.5,1.5,0,0,1,350.83,357.56Z"/><rect class="cls-53" x="312.71" y="368.76" width="124.1" height="29.98"/><rect class="cls-17" x="388.97" y="372.17" width="45.15" height="23.17" rx="8.19"/><rect class="cls-54" x="390.43" y="380.2" width="16" height="2.39"/><rect class="cls-55" x="390.43" y="384.91" width="16" height="2.39"/><rect class="cls-17" x="370.15" y="374" width="2.75" height="19.5" rx="1.19"/><rect class="cls-17" x="365.01" y="374" width="2.75" height="19.5" rx="1.19"/><rect class="cls-17" x="359.88" y="374" width="2.75" height="19.5" rx="1.19"/><path class="cls-17" d="M337.5,391.83a1.5,1.5,0,1,1-1.5-1.5A1.5,1.5,0,0,1,337.5,391.83Z"/><path class="cls-17" d="M344.16,391.83a1.5,1.5,0,1,1-1.49-1.5A1.5,1.5,0,0,1,344.16,391.83Z"/><path class="cls-17" d="M350.83,391.83a1.5,1.5,0,1,1-1.5-1.5A1.5,1.5,0,0,1,350.83,391.83Z"/><rect class="cls-56" x="312.71" y="403.03" width="124.1" height="29.98"/><rect class="cls-17" x="388.97" y="406.44" width="45.15" height="23.17" rx="8.19"/><rect class="cls-57" x="390.43" y="414.47" width="16" height="2.39"/><rect class="cls-58" x="390.43" y="419.18" width="16" height="2.39"/><rect class="cls-17" x="370.15" y="408.27" width="2.75" height="19.5" rx="1.19"/><rect class="cls-17" x="365.01" y="408.27" width="2.75" height="19.5" rx="1.19"/><rect class="cls-17" x="359.88" y="408.27" width="2.75" height="19.5" rx="1.19"/><path class="cls-17" d="M337.5,426.1a1.5,1.5,0,1,1-1.5-1.5A1.5,1.5,0,0,1,337.5,426.1Z"/><path class="cls-17" d="M344.16,426.1a1.5,1.5,0,1,1-1.49-1.5A1.5,1.5,0,0,1,344.16,426.1Z"/><path class="cls-17" d="M350.83,426.1a1.5,1.5,0,1,1-1.5-1.5A1.5,1.5,0,0,1,350.83,426.1Z"/><rect class="cls-59" x="312.71" y="437.3" width="124.1" height="29.98"/><rect class="cls-17" x="388.97" y="440.7" width="45.15" height="23.17" rx="8.19"/><rect class="cls-60" x="390.43" y="448.73" width="16" height="2.39"/><rect class="cls-61" x="390.43" y="453.45" width="16" height="2.39"/><rect class="cls-17" x="370.15" y="442.54" width="2.75" height="19.5" rx="1.19"/><rect class="cls-17" x="365.01" y="442.54" width="2.75" height="19.5" rx="1.19"/><rect class="cls-17" x="359.88" y="442.54" width="2.75" height="19.5" rx="1.19"/><circle class="cls-17" cx="336" cy="460.37" r="1.5"/><circle class="cls-17" cx="342.67" cy="460.37" r="1.5"/><path class="cls-17" d="M350.83,460.37a1.5,1.5,0,1,1-1.5-1.5A1.5,1.5,0,0,1,350.83,460.37Z"/><rect class="cls-62" x="312.71" y="299.79" width="124.72" height="29.98"/><rect class="cls-17" x="392.26" y="303.19" width="42.64" height="23.17" rx="8.19"/><rect class="cls-63" x="393.63" y="311.22" width="15.11" height="2.39"/><rect class="cls-64" x="393.63" y="315.94" width="15.11" height="2.39"/><rect class="cls-17" x="374.48" y="305.03" width="2.59" height="19.5" rx="1.12"/><rect class="cls-17" x="369.63" y="305.03" width="2.59" height="19.5" rx="1.12"/><rect class="cls-17" x="364.78" y="305.03" width="2.59" height="19.5" rx="1.12"/><path class="cls-17" d="M343.64,322.86a1.42,1.42,0,1,1-1.41-1.5A1.46,1.46,0,0,1,343.64,322.86Z"/><path class="cls-17" d="M349.94,322.86a1.42,1.42,0,1,1-1.42-1.5A1.47,1.47,0,0,1,349.94,322.86Z"/><path class="cls-17" d="M356.23,322.86a1.42,1.42,0,1,1-1.42-1.5A1.46,1.46,0,0,1,356.23,322.86Z"/><rect class="cls-65" x="312.71" y="265.95" width="124.72" height="29.98"/><rect class="cls-17" x="392.26" y="269.36" width="42.64" height="23.17" rx="8.19"/><rect class="cls-66" x="393.63" y="277.39" width="15.11" height="2.39"/><rect class="cls-67" x="393.63" y="282.1" width="15.11" height="2.39"/><rect class="cls-17" x="374.48" y="271.19" width="2.59" height="19.5" rx="1.12"/><rect class="cls-17" x="369.63" y="271.19" width="2.59" height="19.5" rx="1.12"/><rect class="cls-17" x="364.78" y="271.19" width="2.59" height="19.5" rx="1.12"/><path class="cls-17" d="M343.64,289a1.42,1.42,0,1,1-1.41-1.5A1.46,1.46,0,0,1,343.64,289Z"/><path class="cls-17" d="M349.94,289a1.42,1.42,0,1,1-1.42-1.5A1.46,1.46,0,0,1,349.94,289Z"/><path class="cls-17" d="M356.23,289a1.42,1.42,0,1,1-1.42-1.5A1.46,1.46,0,0,1,356.23,289Z"/><path class="cls-68" d="M417.08,66.31a13.26,13.26,0,0,0-6.36,1.62,23.79,23.79,0,0,0-26.14-22.32,33.31,33.31,0,0,0-63.47,14.14c0,.46,0,.93,0,1.39A16.38,16.38,0,1,0,316,93.06H417.08a13.38,13.38,0,0,0,0-26.75Z"/><path class="cls-17" d="M425,66.31a13.26,13.26,0,0,0-6.36,1.62,23.79,23.79,0,0,0-26.14-22.32A33.31,33.31,0,0,0,329,59.75c0,.46,0,.93,0,1.39a16.38,16.38,0,1,0-5.19,31.92H425a13.38,13.38,0,1,0,0-26.75Z"/><path class="cls-69" d="M330,93.06h12.66a0,0,0,0,1,0,0v.49a3.17,3.17,0,0,1-3.17,3.17h-7.18A2.31,2.31,0,0,1,330,94.41V93.06A0,0,0,0,1,330,93.06Z"/><rect class="cls-70" x="334.69" y="104.08" width="3.28" height="20.76"/><path class="cls-71" d="M332.66,96.72H340a0,0,0,0,1,0,0v4.16a3.2,3.2,0,0,1-3.2,3.2h-1a3.18,3.18,0,0,1-3.18-3.18V96.72A0,0,0,0,1,332.66,96.72Z"/><path class="cls-8" d="M337.29,99.62v1.83a1,1,0,0,1-.77,1V97.64h-.39v3.26a1.19,1.19,0,0,1-.93-1.15v-.92h-.38v.92a1.56,1.56,0,0,0,1.31,1.54v1.87h.39v-.37a1.36,1.36,0,0,0,1.16-1.34V99.62Z"/><path class="cls-72" d="M353.72,93.06h12.66a0,0,0,0,1,0,0v.49a3.17,3.17,0,0,1-3.17,3.17H356a2.31,2.31,0,0,1-2.31-2.31V93.06A0,0,0,0,1,353.72,93.06Z"/><rect class="cls-73" x="358.41" y="104.08" width="3.28" height="20.76"/><path class="cls-71" d="M356.38,96.72h7.36a0,0,0,0,1,0,0v4.16a3.2,3.2,0,0,1-3.2,3.2h-1a3.18,3.18,0,0,1-3.18-3.18V96.72A0,0,0,0,1,356.38,96.72Z"/><path class="cls-8" d="M361,99.62v1.83a1,1,0,0,1-.77,1V97.64h-.39v3.26a1.19,1.19,0,0,1-.93-1.15v-.92h-.38v.92a1.56,1.56,0,0,0,1.31,1.54v1.87h.39v-.37a1.36,1.36,0,0,0,1.16-1.34V99.62Z"/><path class="cls-74" d="M377.44,93.06h12.66a0,0,0,0,1,0,0v.49a3.17,3.17,0,0,1-3.17,3.17h-7.18a2.31,2.31,0,0,1-2.31-2.31V93.06A0,0,0,0,1,377.44,93.06Z"/><rect class="cls-75" x="382.13" y="104.08" width="3.28" height="20.76"/><path class="cls-71" d="M380.1,96.72h7.36a0,0,0,0,1,0,0v4.16a3.2,3.2,0,0,1-3.2,3.2h-1a3.18,3.18,0,0,1-3.18-3.18V96.72A0,0,0,0,1,380.1,96.72Z"/><path class="cls-8" d="M384.73,99.62v1.83a1,1,0,0,1-.77,1V97.64h-.39v3.26a1.19,1.19,0,0,1-.93-1.15v-.92h-.38v.92a1.56,1.56,0,0,0,1.31,1.54v1.87H384v-.37a1.36,1.36,0,0,0,1.16-1.34V99.62Z"/><path class="cls-76" d="M401.16,93.06h12.66a0,0,0,0,1,0,0v.49a3.17,3.17,0,0,1-3.17,3.17h-7.18a2.31,2.31,0,0,1-2.31-2.31V93.06A0,0,0,0,1,401.16,93.06Z"/><rect class="cls-77" x="405.85" y="104.08" width="3.28" height="20.76"/><path class="cls-71" d="M403.82,96.72h7.36a0,0,0,0,1,0,0v4.16a3.2,3.2,0,0,1-3.2,3.2h-1a3.18,3.18,0,0,1-3.18-3.18V96.72a0,0,0,0,1,0,0Z"/><path class="cls-8" d="M408.45,99.62v1.83a1,1,0,0,1-.77,1V97.64h-.39v3.26a1.19,1.19,0,0,1-.93-1.15v-.92H406v.92a1.56,1.56,0,0,0,1.31,1.54v1.87h.39v-.37a1.36,1.36,0,0,0,1.16-1.34V99.62Z"/><rect class="cls-78" x="282.8" y="369.96" width="13.2" height="14.48" transform="translate(-87.8 666.6) rotate(-90)"/><path class="cls-12" d="M293.4,370.6s3.8,8.79-.64,13.2c0,0,12.61,22.85,14.94,23.78h0a1,1,0,0,0,1.05-1.05V369.28a1.9,1.9,0,0,0-2.36-1.85Z"/><path class="cls-8" d="M304.83,396.2a1,1,0,0,1-.42.73,7,7,0,0,1-2.39,1.43.16.16,0,0,1-.18-.09.14.14,0,0,1,.09-.18,6.85,6.85,0,0,0,2.29-1.37c.18-.16.38-.4.31-.61s-.47-.27-.69-.24a2.93,2.93,0,0,0-1.55.72l-.08.08a1.18,1.18,0,0,1-1,.47.67.67,0,0,1-.45-.36.89.89,0,0,1,0-.75,1.51,1.51,0,0,1,.94-.75l.35-.11a3.71,3.71,0,0,0,.68-.27.84.84,0,0,0,.48-.76.79.79,0,0,0-.87-.58,2.11,2.11,0,0,0-1.11.61l-.07.06a2.17,2.17,0,0,1-.75.51.85.85,0,0,1-1-.3.87.87,0,0,1,.28-1.05,2.63,2.63,0,0,1,.63-.36l.26-.12a2.7,2.7,0,0,0,1-.9c.12-.18.21-.41.1-.55s-.3-.11-.46-.09a2.89,2.89,0,0,0-1.5.67l-.16.15a2.52,2.52,0,0,1-.47.38.87.87,0,0,1-.91,0,.82.82,0,0,1-.14-1.11,1.83,1.83,0,0,1,.92-.61l.17-.06a2.88,2.88,0,0,0,.73-.34.61.61,0,0,0-.52-1.1,2.57,2.57,0,0,0-.93.56,2.19,2.19,0,0,1-.73.45.84.84,0,0,1-.87-.2.69.69,0,0,1-.16-.54,1.11,1.11,0,0,1,.44-.75,2.72,2.72,0,0,1,.73-.35c.15-.06.3-.11.44-.18.32-.16.62-.48.55-.82a.65.65,0,0,0-.62-.43,1.36,1.36,0,0,0-.83.32l-.36.29a4.54,4.54,0,0,1-.41.33,1.19,1.19,0,0,1-.62.27.66.66,0,0,1-.65-.33.71.71,0,0,1,.26-.86,2.1,2.1,0,0,1,.56-.28l.18-.07a2.54,2.54,0,0,0,1.21-1,.15.15,0,0,1,.25.15,3,3,0,0,1-1.35,1.15l-.2.07a2.37,2.37,0,0,0-.48.23.47.47,0,0,0-.18.51.37.37,0,0,0,.38.17.87.87,0,0,0,.47-.21c.14-.09.26-.2.4-.31a2.85,2.85,0,0,1,.38-.31,1.65,1.65,0,0,1,1-.38.92.92,0,0,1,.88.65,1.09,1.09,0,0,1-.7,1.14,3.9,3.9,0,0,1-.47.2,2.44,2.44,0,0,0-.65.31.84.84,0,0,0-.33.55.44.44,0,0,0,.09.32.56.56,0,0,0,.58.11,1.82,1.82,0,0,0,.61-.37,2.55,2.55,0,0,1,1.07-.63,1,1,0,0,1,1.15.54,1,1,0,0,1-.4,1.05,2.88,2.88,0,0,1-.81.39l-.16.05a1.59,1.59,0,0,0-.78.51.53.53,0,0,0,.06.72.61.61,0,0,0,.61,0,3.2,3.2,0,0,0,.42-.33,1.29,1.29,0,0,1,.17-.16,3.16,3.16,0,0,1,1.64-.74.64.64,0,0,1,.64,1.08,2.94,2.94,0,0,1-1.11,1l-.28.13a2.2,2.2,0,0,0-.56.32.6.6,0,0,0-.21.69.57.57,0,0,0,.67.17A2,2,0,0,0,301,394L301,394a2.44,2.44,0,0,1,1.28-.67,1.08,1.08,0,0,1,1.18.82,1.16,1.16,0,0,1-.63,1,3.92,3.92,0,0,1-.74.29l-.33.11a1.23,1.23,0,0,0-.78.6.58.58,0,0,0,0,.5.36.36,0,0,0,.25.21c.25.05.5-.18.73-.4l.09-.07a3.13,3.13,0,0,1,1.7-.8c.38,0,.87,0,1,.43A.57.57,0,0,1,304.83,396.2Z"/><rect class="cls-78" x="249.02" y="472.26" width="13.2" height="14.48"/><path class="cls-12" d="M262.22,483.5s-8.79,3.8-13.2-.64c0,0-22.84,12.61-23.78,14.94h0a1.06,1.06,0,0,0,1.06,1.05h37.25a1.91,1.91,0,0,0,1.85-2.36Z"/><path class="cls-8" d="M236.62,494.93a1,1,0,0,1-.73-.42,7.15,7.15,0,0,1-1.42-2.39.14.14,0,0,1,.08-.18.14.14,0,0,1,.19.09,6.66,6.66,0,0,0,1.36,2.29c.16.18.4.38.61.31s.27-.47.24-.69a2.82,2.82,0,0,0-.72-1.55l-.08-.08c-.24-.26-.55-.59-.46-1a.66.66,0,0,1,.35-.45.86.86,0,0,1,.75,0,1.48,1.48,0,0,1,.75.94l.12.35a3.09,3.09,0,0,0,.26.68.85.85,0,0,0,.77.48.78.78,0,0,0,.57-.87,2.09,2.09,0,0,0-.6-1.11l-.07-.07a2.32,2.32,0,0,1-.51-.75.85.85,0,0,1,.31-1,.86.86,0,0,1,1,.28,2.63,2.63,0,0,1,.36.63l.12.26a2.7,2.7,0,0,0,.9,1c.18.12.42.21.55.1s.12-.3.09-.46a2.89,2.89,0,0,0-.67-1.5l-.15-.16a2.84,2.84,0,0,1-.37-.47.87.87,0,0,1,0-.91.84.84,0,0,1,1.12-.14,1.83,1.83,0,0,1,.61.92l.06.17a2.57,2.57,0,0,0,.34.73.69.69,0,0,0,.73.3.7.7,0,0,0,.36-.82,2.44,2.44,0,0,0-.56-.93,2.26,2.26,0,0,1-.44-.73.84.84,0,0,1,.2-.87.68.68,0,0,1,.54-.16,1.13,1.13,0,0,1,.75.44,3,3,0,0,1,.34.73c.06.15.11.3.18.44.16.32.49.62.82.55a.63.63,0,0,0,.43-.62,1.41,1.41,0,0,0-.31-.83l-.3-.36c-.11-.13-.23-.27-.33-.41a1.27,1.27,0,0,1-.26-.62.64.64,0,0,1,.32-.65.71.71,0,0,1,.86.26,1.84,1.84,0,0,1,.28.56,1.34,1.34,0,0,0,.07.18,2.59,2.59,0,0,0,1,1.21.15.15,0,0,1,0,.2.13.13,0,0,1-.19,0,2.83,2.83,0,0,1-1.15-1.34l-.08-.2a1.64,1.64,0,0,0-.23-.48c-.12-.15-.35-.27-.51-.18a.39.39,0,0,0-.17.37.94.94,0,0,0,.21.48c.1.14.2.26.32.4s.21.24.31.38a1.64,1.64,0,0,1,.37,1,.91.91,0,0,1-.65.88,1.11,1.11,0,0,1-1.14-.7A2.72,2.72,0,0,1,244,488a2.78,2.78,0,0,0-.31-.65.82.82,0,0,0-.55-.33.42.42,0,0,0-.32.09.56.56,0,0,0-.12.58,1.85,1.85,0,0,0,.38.61,2.78,2.78,0,0,1,.63,1.07.89.89,0,0,1-1.6.75,2.6,2.6,0,0,1-.38-.81l-.06-.17a1.48,1.48,0,0,0-.5-.77.55.55,0,0,0-.73.06.63.63,0,0,0,0,.61,2.18,2.18,0,0,0,.34.41l.16.18a3.32,3.32,0,0,1,.74,1.64.74.74,0,0,1-.2.72.75.75,0,0,1-.88-.08,3,3,0,0,1-1-1.11l-.13-.28a2.52,2.52,0,0,0-.31-.56.6.6,0,0,0-.69-.21.56.56,0,0,0-.18.67,2.11,2.11,0,0,0,.45.65l.07.07a2.34,2.34,0,0,1,.67,1.27,1.08,1.08,0,0,1-.82,1.19,1.14,1.14,0,0,1-1-.63,3.38,3.38,0,0,1-.3-.74c0-.11-.07-.22-.1-.33a1.26,1.26,0,0,0-.6-.78.61.61,0,0,0-.51,0,.39.39,0,0,0-.21.25c-.05.25.18.5.4.73l.08.09a3.12,3.12,0,0,1,.79,1.7c.05.38,0,.87-.43,1A.57.57,0,0,1,236.62,494.93Z"/><path class="cls-79" d="M289.86,369.7v15.24s-72.59,5-90.78,5-22.7-13.86-18.19-26.68,43.64-56.16,43.64-56.16c12.23-.39,20.66-1,26.28-1.3,12-.67,11.17,0,7.12,6.7-7.53,12.5-41.78,53-41.78,53Z"/><path class="cls-80" d="M289.86,369.7v.51c-27.43.33-54.68.18-82.17-.54,7.12-11.44,15.84-21.79,24-32.54,7.42-9.76,14.44-20,19.13-31.3,12-.67,11.17,0,7.12,6.7-7.53,12.5-41.78,53-41.78,53Z"/><path class="cls-79" d="M268.69,382.91c-5.59,14.08-4.44,94.7-4.44,94.7h-17s-4.63-50.53-6.17-79.27,9.65-91.21,9.65-91.21h37.5C288.76,317.79,274.28,368.82,268.69,382.91Z"/><path class="cls-80" d="M268.69,382.91c-5.59,14.08-4.44,94.7-4.44,94.7h-2.1q-.47-14.85-.95-29.72c-.47-14.48-.49-29.83,1.17-44.22,3.07-26.61,12.48-52,18.74-78.06,1.45-6.05,2.72-12.45,1.58-18.48h5.57C288.76,317.79,274.28,368.82,268.69,382.91Z"/><path class="cls-12" d="M291.34,215.49h0c-.13,2.73-.46,7.53-1.22,16-.38,4.13-.74,8.36-1.08,12.56-.3,3.57-.57,7.12-.82,10.55-.67,9.25-1.17,17.75-1.33,23.94a69.29,69.29,0,0,0,.13,8.61c.4,3.44.73,8.84.94,13.16.19,3.84.3,6.84.3,6.84H224.53s-.05-2.55-.08-6.84c0-5.94,0-15.23.25-25.74l.09-3.15c.24-8.26.64-17.12,1.29-25.62,1.22-16,3.33-30.74,6.92-37.88h0a69.26,69.26,0,0,1,17.75-6.59h0a41.68,41.68,0,0,1,12-.92s2.32.54,5.69,1.49c6.92,2,18.24,5.67,22.82,10C291.34,211.89,291.51,212,291.34,215.49Z"/><path class="cls-81" d="M288,300.29c.19,3.85.3,6.84.3,6.84H224.53s-.05-2.55-.08-6.84c0-5.94,0-15.23.25-25.74a140,140,0,0,0,44.49,5.6,169.19,169.19,0,0,0,17.7-1.63,69.29,69.29,0,0,0,.13,8.61C287.42,290.57,287.75,296,288,300.29Z"/><path class="cls-81" d="M289,244c-.3,3.57-.57,7.12-.82,10.55-1.77.94-3.57,1.82-5.38,2.63-18.25,8.2-38.14,11.82-58,14.19.24-8.26.64-17.12,1.29-25.62A101.39,101.39,0,0,0,244.71,249a112.79,112.79,0,0,0,15.16.13A135.78,135.78,0,0,0,289,244Z"/><path class="cls-82" d="M229.56,259.19c-2.61,5.4-6.48,8.13-9.57,7.83a4.16,4.16,0,0,1-1.75-.54h0a4.74,4.74,0,0,1-.61-.42l0,0a6,6,0,0,1-1.74-2.52,16.74,16.74,0,0,1-.6-8.22c.62-4.93,2.8-11.84,5.43-18.85,5.26-14,12.32-28.55,12.32-28.55,2.5-1.36,9.85-3.47,10.53,4.28C244,217.71,235,248,229.56,259.19Z"/><path class="cls-82" d="M229.56,259.19c-2.61,5.4-6.48,8.13-9.57,7.83a12.9,12.9,0,0,1-1.75-.54h0a2,2,0,0,1-.61-.42l0,0a10.64,10.64,0,0,1-1.74-2.52c-5.25-9.62-13.11-38.93-13.11-38.93l10.48-7.07,7.46,18.93C225,247.37,229.54,259,229.56,259.19Z"/><path class="cls-83" d="M212.67,217.89s-3.22-7.19-4.41-8.24-8.94,3.61-8.94,3.61,3.9,11,4,10.94Z"/><path class="cls-78" d="M208.35,210.35a51.84,51.84,0,0,0,1.57,8.71c1.23,4.47,2.37,8.65,1.8,9.94s-1.38-.05-1.85-1.95-3.17-9.42-3.17-9.42-1.11,3.19-1.83,2.66-1.09,2.33-2.23,2.1-2.14,1.8-3.47,1.33-3-8-2.95-9.13,1.71-1,2.76-2.62,1.57-.71,3-1.81S207.92,207,208.35,210.35Z"/><path class="cls-82" d="M250.76,201.29c-.51.23-8.75,5.28-10.78,99H221.43S220.9,230.12,233,207.9h0A69.5,69.5,0,0,1,250.76,201.29Z"/><path class="cls-11" d="M241.72,270.37H194.18a1.6,1.6,0,0,1-1.59-1.39l-4.1-31.08a1.61,1.61,0,0,1,1.58-1.82h47.55a1.61,1.61,0,0,1,1.59,1.4l4.1,31.08A1.6,1.6,0,0,1,241.72,270.37Z"/><path class="cls-84" d="M194.18,270.37H271a0,0,0,0,1,0,0v.48a1.2,1.2,0,0,1-1.2,1.2h-74.4a1.2,1.2,0,0,1-1.2-1.2v-.48A0,0,0,0,1,194.18,270.37Z"/><path class="cls-85" d="M246.05,215.16l-1.23-5-2.44,5.54s.17-14.39,8.61-17.89l-.23,3.5S248.77,203.28,246.05,215.16Z"/><path class="cls-82" d="M291.41,300.29H264.17c-6.35-54.41,4.35-98.43,4.35-98.43,6.92,2,18.24,5.67,22.82,10v3.6h0Z"/><path class="cls-85" d="M265.05,196.27s7.52,3.44,5.51,21.9l-3.14-4.77L265,217.62s2.13-11.23.54-16.57l-2-1.27S263.08,194.59,265.05,196.27Z"/><path class="cls-82" d="M291.34,211.89s-12.16,2.82-9.29,18.56,7.39,38.31,7.39,38.31l-39.62,3.31,1.05,13.47s49.8,5,54-5.14S299.71,220,291.34,211.89Z"/><path class="cls-78" d="M249.82,272.59l-7.07-.44s-7.7-5.5-9.61-6.18-2.36.88-1.18,2.11,3.53,4,3.53,4H219.25s3.93,2.85,7.36,3.14,9.72,4.12,13.54,5.06l10.61,2.6Z"/><path class="cls-14" d="M236.45,175.92c1.68,5.28,4.66-3.26,12.36-2.83.34,0,.69.06,1.05.11a41.21,41.21,0,0,1,5.47,1.1,5.07,5.07,0,0,1,3.24,2.41c.12.21.23.42.34.66a20.61,20.61,0,0,1,.76,2.08c.06.2.12.42.19.64.17.56.34,1.18.54,1.86l.06.2c.06.21.12.43.18.63.22.73.43,1.41.65,2.06l.21.64c.25.73.5,1.42.74,2.06l.24.63c.3.77.58,1.46.84,2.05.1.23.19.44.28.63.61,1.36,1,2.08,1,2.08s.43-.74,1.08-2c.1-.2.21-.4.31-.62.3-.59.62-1.26,1-2,.09-.2.19-.41.28-.62.29-.63.59-1.3.89-2,.09-.2.17-.41.26-.62.27-.65.53-1.33.8-2,.07-.2.15-.41.23-.62.24-.66.48-1.34.7-2,.07-.21.14-.42.2-.63.21-.67.42-1.35.61-2,.05-.2.11-.41.16-.62.18-.68.34-1.36.49-2,0-.21.09-.42.13-.62.13-.68.25-1.36.35-2,0-.2.06-.41.08-.62.07-.57.13-1.15.17-1.72,0,0,.21-5.31-10-9.71s-19.38-3.84-22.45,1.38S234.69,170.4,236.45,175.92Z"/><path class="cls-11" d="M256.53,169s12.34,3.32,16.26.79-2-4.2-2-4.2-.07-8.69-9.67-8.55a8.35,8.35,0,0,0-5.44-3.73,8.14,8.14,0,0,0-6.35,1.46,14.66,14.66,0,0,0-8.21-3.81,7.77,7.77,0,0,0-4.47.6,4.19,4.19,0,0,0-2.36,3.64,12.06,12.06,0,0,0-2.66.74,3.9,3.9,0,0,0-1.95,1.76,3,3,0,0,0,1.2,3.79,9.86,9.86,0,0,0-1.74,1.86,3.72,3.72,0,0,0-.49,2.32,2.44,2.44,0,0,0,1.33,1.88,3.77,3.77,0,0,0-1.55,3,5.44,5.44,0,0,0,.83,3.53,5.79,5.79,0,0,0,3.53,2.6,4.78,4.78,0,0,0,4.21-1,4.1,4.1,0,0,0,1.23-4.08,13.67,13.67,0,0,0,3.55,1.26,4.56,4.56,0,0,0,3.58-.81,9.7,9.7,0,0,1,1-.89,4.73,4.73,0,0,1,2.7-.28A12.17,12.17,0,0,0,256.53,169Z"/><path class="cls-78" d="M257.14,208.88a8.4,8.4,0,0,0,8.32-9.52l-2-15.36-.12-.85v0h-5.54a6.35,6.35,0,0,0-6.37,6.07l-.51,11.3-.08,1.76A6.36,6.36,0,0,0,257.14,208.88Z"/><path class="cls-83" d="M250.87,200.48c12.81-3.13,12.83-13.4,12.54-16.48-.05-.47-.1-.77-.12-.85v0h-5.54a6.35,6.35,0,0,0-6.37,6.07Z"/><path class="cls-78" d="M263.11,179.91a7.7,7.7,0,0,1,.75-3.33,2.58,2.58,0,0,1,2.88-1.33,3.08,3.08,0,0,1,1.72,2.68,5.45,5.45,0,0,1-1.09,4.25,3.46,3.46,0,0,1-4.08.94c0,3.82-.58,6-2.32,8.29a17.83,17.83,0,0,1-6.87,5.23c-3,1.4-6.57,2.26-9.59.9a9.3,9.3,0,0,1-4-3.75,20.06,20.06,0,0,1-2.07-5.15c-1.94-6.9-1.28-6.78-2-12.72a8.29,8.29,0,0,0,.72-6.56,11.11,11.11,0,0,0,7.68,2.5A7.44,7.44,0,0,1,242,169a31.83,31.83,0,0,0,14.56,0,17.33,17.33,0,0,1,4,5.29,18,18,0,0,1,1.11,7.09H263C263.07,180.8,263.07,180.44,263.11,179.91Z"/><path class="cls-11" d="M232.38,180.73a5.11,5.11,0,0,0,10.22,0,5.17,5.17,0,0,0-.25-1.58h2.48a5.17,5.17,0,0,0-.25,1.58,5.11,5.11,0,1,0,8.48-3.84h10.8a.31.31,0,0,0,.31-.31.3.3,0,0,0-.31-.3H252.19a5,5,0,0,0-2.5-.66,5.11,5.11,0,0,0-4.61,2.91h-3a5.11,5.11,0,0,0-9.72,2.2Zm12.82,0a4.49,4.49,0,1,1,4.49,4.49A4.49,4.49,0,0,1,245.2,180.73Zm-12.2,0a4.49,4.49,0,1,1,4.49,4.49A4.49,4.49,0,0,1,233,180.73Z"/><path class="cls-11" d="M248.89,180.73c0,.88.36,1.6.8,1.6s.8-.72.8-1.6-.36-1.61-.8-1.61S248.89,179.84,248.89,180.73Z"/><path class="cls-11" d="M237.88,180.73c0,.88.36,1.6.8,1.6s.8-.72.8-1.6-.36-1.61-.8-1.61S237.88,179.84,237.88,180.73Z"/><path class="cls-86" d="M251.88,178.27a2,2,0,0,0-.81-.78,2.35,2.35,0,0,0-1.11-.32,2.56,2.56,0,0,0-1.13.21,2.09,2.09,0,0,0-.87.71,3.89,3.89,0,0,1,1-.4,3.14,3.14,0,0,1,1-.11,3.17,3.17,0,0,1,1,.2A4,4,0,0,1,251.88,178.27Z"/><path class="cls-86" d="M240.74,178.27a2,2,0,0,0-.81-.78,2.34,2.34,0,0,0-1.1-.32,2.6,2.6,0,0,0-1.14.21,2.09,2.09,0,0,0-.87.71,3.89,3.89,0,0,1,1-.4,3.3,3.3,0,0,1,2,.09A4,4,0,0,1,240.74,178.27Z"/><path class="cls-11" d="M253.36,175.44a4.91,4.91,0,0,0-1.51-1,5.6,5.6,0,0,0-1.77-.43,5.8,5.8,0,0,0-1.81.17,5,5,0,0,0-1.63.76,9.45,9.45,0,0,1,1.7-.44,7.55,7.55,0,0,1,1.71-.08,7.42,7.42,0,0,1,1.69.32A9.12,9.12,0,0,1,253.36,175.44Z"/><path class="cls-11" d="M242,175.76a4.74,4.74,0,0,0-1.51-1,5.67,5.67,0,0,0-1.77-.43,5.52,5.52,0,0,0-1.81.17,4.76,4.76,0,0,0-1.63.75,9.35,9.35,0,0,1,1.69-.44,8.29,8.29,0,0,1,1.72-.07,7.53,7.53,0,0,1,1.69.32A9.12,9.12,0,0,1,242,175.76Z"/><path class="cls-86" d="M242.82,188.12a.2.2,0,0,0,.2-.16.22.22,0,0,0-.16-.25,4.9,4.9,0,0,1-1.56-.58.6.6,0,0,1-.25-.21c-.06-.14,0-.34.16-.52a17.66,17.66,0,0,0,2.12-5.12.19.19,0,0,0-.15-.24.21.21,0,0,0-.25.15,17.17,17.17,0,0,1-2.07,5,1,1,0,0,0-.19.9,1,1,0,0,0,.43.41,5.59,5.59,0,0,0,1.68.63Z"/><path class="cls-8" d="M252.22,188.94a7,7,0,0,1-1.59,1.66,6.32,6.32,0,0,1-4.25,1.27,7.09,7.09,0,0,1-2.24-.52,5.09,5.09,0,0,0,2.21.84,5.7,5.7,0,0,0,2.39-.18,5.59,5.59,0,0,0,2.09-1.16A5.23,5.23,0,0,0,252.22,188.94Z"/><path class="cls-83" d="M267,179.35a1.76,1.76,0,0,0,0-1.28,1,1,0,0,0-.74-.49,1,1,0,0,0-.83.29,1.71,1.71,0,0,0-.32,1.41,4.43,4.43,0,0,1,.08,1.49c-.08.33-.31.81.08,1s.6-.19.78-.43A5.81,5.81,0,0,0,267,179.35Z"/></g></g></g></svg>