<svg id="Layer_1" data-name="Layer 1" xmlns="http://www.w3.org/2000/svg" xmlns:xlink="http://www.w3.org/1999/xlink" viewBox="0 0 550 550"><defs><style>.cls-1{fill:none;}.cls-2{clip-path:url(#clip-path);}.cls-17,.cls-18,.cls-19,.cls-20,.cls-21,.cls-22,.cls-23,.cls-24,.cls-25,.cls-26,.cls-27,.cls-28,.cls-29,.cls-3,.cls-30,.cls-31,.cls-32,.cls-33,.cls-34,.cls-35,.cls-36,.cls-37,.cls-38,.cls-39,.cls-4,.cls-40,.cls-41,.cls-42,.cls-43,.cls-44,.cls-45,.cls-46,.cls-47,.cls-48,.cls-49,.cls-50,.cls-51,.cls-52,.cls-53,.cls-54,.cls-55,.cls-56,.cls-57,.cls-58,.cls-59,.cls-60,.cls-61,.cls-62,.cls-63,.cls-64,.cls-65,.cls-66,.cls-67,.cls-68,.cls-69,.cls-70,.cls-71,.cls-72,.cls-73,.cls-74,.cls-75,.cls-76{fill-rule:evenodd;}.cls-3,.cls-75{opacity:0.5;}.cls-3{fill:url(#linear-gradient);}.cls-4{fill:#b9d8f2;}.cls-5{fill:url(#linear-gradient-2);}.cls-6{fill:url(#linear-gradient-3);}.cls-7{fill:url(#linear-gradient-4);}.cls-8{fill:url(#linear-gradient-5);}.cls-9{fill:url(#linear-gradient-6);}.cls-10{fill:url(#linear-gradient-7);}.cls-11{fill:url(#linear-gradient-8);}.cls-12{fill:url(#linear-gradient-9);}.cls-13{fill:url(#linear-gradient-10);}.cls-14{fill:url(#linear-gradient-11);}.cls-15{fill:url(#linear-gradient-12);}.cls-16{fill:url(#linear-gradient-13);}.cls-17{fill:#f2cbe0;}.cls-18{fill:#2b2868;}.cls-19{fill:#ec6070;}.cls-20{fill:url(#linear-gradient-14);}.cls-21{fill:#fff;}.cls-22{fill:url(#linear-gradient-15);}.cls-23{fill:url(#linear-gradient-16);}.cls-24{fill:url(#linear-gradient-17);}.cls-25{fill:#4d3c97;}.cls-26{fill:#191840;}.cls-27{fill:url(#linear-gradient-18);}.cls-28{fill:url(#linear-gradient-19);}.cls-29{fill:url(#linear-gradient-20);}.cls-30{fill:url(#linear-gradient-21);}.cls-31{fill:url(#linear-gradient-22);}.cls-32{fill:url(#linear-gradient-23);}.cls-33{fill:url(#linear-gradient-24);}.cls-34{fill:url(#linear-gradient-25);}.cls-35{fill:#f9a01b;}.cls-36{fill:url(#linear-gradient-26);}.cls-37{fill:#ef3e4e;}.cls-38{fill:url(#linear-gradient-27);}.cls-39{fill:url(#linear-gradient-28);}.cls-40{fill:url(#linear-gradient-29);}.cls-41{fill:url(#linear-gradient-30);}.cls-42{fill:url(#linear-gradient-31);}.cls-43{fill:url(#linear-gradient-32);}.cls-44{fill:url(#linear-gradient-33);}.cls-45{fill:url(#linear-gradient-34);}.cls-46{fill:url(#linear-gradient-35);}.cls-47{fill:url(#linear-gradient-36);}.cls-48{fill:#ec684e;opacity:0.3;}.cls-49{fill:url(#linear-gradient-37);}.cls-50{fill:url(#linear-gradient-38);}.cls-51{fill:#fecc90;}.cls-52{fill:#221f54;}.cls-53{fill:url(#linear-gradient-39);}.cls-54{fill:#fcc08f;}.cls-55{fill:#fcdcb6;}.cls-56{fill:#8ec5eb;}.cls-57{fill:#ecf4fb;}.cls-58{fill:#f47b20;}.cls-59{fill:#fbae2e;}.cls-60{fill:#d4e7f7;}.cls-61{fill:url(#linear-gradient-40);}.cls-62{fill:#f7f4fa;}.cls-63{fill:url(#linear-gradient-41);}.cls-64{fill:url(#linear-gradient-42);}.cls-65{fill:url(#linear-gradient-43);}.cls-66{fill:url(#linear-gradient-44);}.cls-67{fill:#ed1c24;}.cls-68{fill:url(#linear-gradient-45);}.cls-69{fill:url(#linear-gradient-46);}.cls-70{fill:url(#linear-gradient-47);}.cls-71{fill:url(#linear-gradient-48);}.cls-72{fill:url(#linear-gradient-49);}.cls-73{fill:url(#linear-gradient-50);}.cls-74{fill:url(#linear-gradient-51);}.cls-75{fill:url(#linear-gradient-52);}.cls-76{fill:url(#linear-gradient-53);}</style><clipPath id="clip-path"><rect class="cls-1" width="550" height="550"/></clipPath><linearGradient id="linear-gradient" x1="284.62" y1="157.74" x2="529.78" y2="157.74" gradientUnits="userSpaceOnUse"><stop offset="0" stop-color="#9f3694"/><stop offset="0.52" stop-color="#cd4f6f"/><stop offset="1" stop-color="#f26c46"/></linearGradient><linearGradient id="linear-gradient-2" x1="253.99" y1="282.44" x2="265.7" y2="282.44" xlink:href="#linear-gradient"/><linearGradient id="linear-gradient-3" x1="288.54" y1="264.55" x2="300.25" y2="264.55" xlink:href="#linear-gradient"/><linearGradient id="linear-gradient-4" x1="272.49" y1="276.31" x2="284.2" y2="276.31" xlink:href="#linear-gradient"/><linearGradient id="linear-gradient-5" x1="303.54" y1="271.18" x2="315.25" y2="271.18" xlink:href="#linear-gradient"/><linearGradient id="linear-gradient-6" x1="449.94" y1="355.57" x2="457.01" y2="355.57" xlink:href="#linear-gradient"/><linearGradient id="linear-gradient-7" x1="429.09" y1="344.78" x2="436.16" y2="344.78" xlink:href="#linear-gradient"/><linearGradient id="linear-gradient-8" x1="438.78" y1="351.88" x2="445.84" y2="351.88" xlink:href="#linear-gradient"/><linearGradient id="linear-gradient-9" x1="420.04" y1="348.78" x2="427.11" y2="348.78" xlink:href="#linear-gradient"/><linearGradient id="linear-gradient-10" x1="103.81" y1="348.29" x2="112.4" y2="348.29" xlink:href="#linear-gradient"/><linearGradient id="linear-gradient-11" x1="129.15" y1="335.17" x2="137.73" y2="335.17" xlink:href="#linear-gradient"/><linearGradient id="linear-gradient-12" x1="117.38" y1="343.8" x2="125.97" y2="343.8" xlink:href="#linear-gradient"/><linearGradient id="linear-gradient-13" x1="140.15" y1="340.03" x2="148.74" y2="340.03" xlink:href="#linear-gradient"/><linearGradient id="linear-gradient-14" x1="200.26" y1="310.37" x2="368.98" y2="310.37" xlink:href="#linear-gradient"/><linearGradient id="linear-gradient-15" x1="200.09" y1="363.74" x2="368.98" y2="363.74" xlink:href="#linear-gradient"/><linearGradient id="linear-gradient-16" x1="200.09" y1="417.11" x2="368.98" y2="417.11" xlink:href="#linear-gradient"/><linearGradient id="linear-gradient-17" x1="200.09" y1="470.48" x2="368.98" y2="470.48" xlink:href="#linear-gradient"/><linearGradient id="linear-gradient-18" x1="331.98" y1="311.13" x2="342.31" y2="311.13" gradientUnits="userSpaceOnUse"><stop offset="0" stop-color="#57afe2"/><stop offset="0.19" stop-color="#54a6dc"/><stop offset="0.49" stop-color="#508bc9"/><stop offset="0.86" stop-color="#436ab3"/><stop offset="1" stop-color="#4061ad"/></linearGradient><linearGradient id="linear-gradient-19" x1="331.98" y1="364.12" x2="342.31" y2="364.12" xlink:href="#linear-gradient-18"/><linearGradient id="linear-gradient-20" x1="331.98" y1="417.49" x2="342.31" y2="417.49" xlink:href="#linear-gradient-18"/><linearGradient id="linear-gradient-21" x1="331.98" y1="471.24" x2="342.31" y2="471.24" xlink:href="#linear-gradient-18"/><linearGradient id="linear-gradient-22" x1="66.2" y1="363.37" x2="186.34" y2="363.37" xlink:href="#linear-gradient"/><linearGradient id="linear-gradient-23" x1="66.2" y1="401.37" x2="186.34" y2="401.37" xlink:href="#linear-gradient"/><linearGradient id="linear-gradient-24" x1="66.2" y1="439.38" x2="186.34" y2="439.38" xlink:href="#linear-gradient"/><linearGradient id="linear-gradient-25" x1="66.2" y1="477.38" x2="186.34" y2="477.38" xlink:href="#linear-gradient"/><linearGradient id="linear-gradient-26" x1="160.22" y1="363.75" x2="167.57" y2="363.75" xlink:href="#linear-gradient-18"/><linearGradient id="linear-gradient-27" x1="160.22" y1="401.75" x2="167.57" y2="401.75" xlink:href="#linear-gradient-18"/><linearGradient id="linear-gradient-28" x1="160.1" y1="439.76" x2="167.19" y2="439.76" xlink:href="#linear-gradient-18"/><linearGradient id="linear-gradient-29" x1="160.22" y1="477.76" x2="167.57" y2="477.76" xlink:href="#linear-gradient-18"/><linearGradient id="linear-gradient-30" x1="383.02" y1="373.33" x2="494.03" y2="373.33" xlink:href="#linear-gradient"/><linearGradient id="linear-gradient-31" x1="383.02" y1="408.44" x2="494.03" y2="408.44" xlink:href="#linear-gradient"/><linearGradient id="linear-gradient-32" x1="383.02" y1="443.56" x2="494.03" y2="443.56" xlink:href="#linear-gradient"/><linearGradient id="linear-gradient-33" x1="383.02" y1="478.68" x2="494.03" y2="478.68" xlink:href="#linear-gradient"/><linearGradient id="linear-gradient-34" x1="469.95" y1="373.71" x2="476.74" y2="373.71" xlink:href="#linear-gradient-18"/><linearGradient id="linear-gradient-35" x1="469.95" y1="408.82" x2="476.74" y2="408.82" xlink:href="#linear-gradient-18"/><linearGradient id="linear-gradient-36" x1="469.95" y1="443.94" x2="476.74" y2="443.94" xlink:href="#linear-gradient-18"/><linearGradient id="linear-gradient-37" x1="469.95" y1="479.06" x2="476.74" y2="479.06" xlink:href="#linear-gradient-18"/><linearGradient id="linear-gradient-38" x1="4.56" y1="341.06" x2="546.63" y2="341.06" xlink:href="#linear-gradient"/><linearGradient id="linear-gradient-39" x1="115.99" y1="230.8" x2="153.26" y2="230.8" xlink:href="#linear-gradient"/><linearGradient id="linear-gradient-40" x1="194.81" y1="403.54" x2="212.81" y2="403.54" gradientUnits="userSpaceOnUse"><stop offset="0.01" stop-color="#fcaf17"/><stop offset="1" stop-color="#9f519f"/></linearGradient><linearGradient id="linear-gradient-41" x1="200.66" y1="403.54" x2="208.05" y2="403.54" xlink:href="#linear-gradient"/><linearGradient id="linear-gradient-42" x1="176.81" y1="404.75" x2="204.57" y2="404.75" xlink:href="#linear-gradient-18"/><linearGradient id="linear-gradient-43" x1="178.68" y1="408.59" x2="204.53" y2="408.59" xlink:href="#linear-gradient-18"/><linearGradient id="linear-gradient-44" x1="181.38" y1="394.41" x2="192.54" y2="394.41" xlink:href="#linear-gradient-18"/><linearGradient id="linear-gradient-45" x1="236.11" y1="498.58" x2="254.68" y2="498.58" xlink:href="#linear-gradient-40"/><linearGradient id="linear-gradient-46" x1="238.53" y1="500.28" x2="252.27" y2="500.28" xlink:href="#linear-gradient"/><linearGradient id="linear-gradient-47" x1="248.15" y1="494.03" x2="251.65" y2="494.03" xlink:href="#linear-gradient-40"/><linearGradient id="linear-gradient-48" x1="357.3" y1="395.69" x2="374.42" y2="395.69" xlink:href="#linear-gradient-40"/><linearGradient id="linear-gradient-49" x1="403.59" y1="398.11" x2="434.55" y2="398.11" xlink:href="#linear-gradient-18"/><linearGradient id="linear-gradient-50" x1="403.59" y1="401.84" x2="429.76" y2="401.84" xlink:href="#linear-gradient-18"/><linearGradient id="linear-gradient-51" x1="416.99" y1="385.25" x2="430.1" y2="385.25" xlink:href="#linear-gradient-18"/><linearGradient id="linear-gradient-52" x1="12.84" y1="74.23" x2="147.66" y2="74.23" xlink:href="#linear-gradient"/><linearGradient id="linear-gradient-53" x1="362.15" y1="395.38" x2="369.18" y2="395.38" xlink:href="#linear-gradient"/></defs><g class="cls-2"><path class="cls-3" d="M439.16,44.76l.92.26.91.27.95.29.86.27,1.05.34.94.31,1,.35.76.27.34.12,1.3.48.43.16,1,.39.73.28.92.37,1.05.44.78.32.9.39.93.41.88.4,1,.44.83.4.87.42.89.43h0l.89.45.65.33,1,.51.88.46h0l.1.05,1.72.95.84.47c.57.33,1.14.66,1.7,1l.93.56.8.49.78.49.83.52.91.59.73.48.81.55,1.06.72.54.38.62.44,1,.72.76.56.6.44,1,.74,1.08.83.23.18,1.08.86v0l.65.52.34.28,1.16,1,.73.63.35.3,1.13,1,.72.65,1,.92.3.27.93.88,2.14,2.08-2,1.92a117.7,117.7,0,0,1-17.3,13.7l-2.46,1.6-1.37-2.59c-.67-1.27-1.37-2.54-2.08-3.79A131.68,131.68,0,0,0,433.8,48.63L424.39,41l11.78,3,1.93.5,1,.29ZM333.5,66.37v0l.88-.7.55-.42,1-.77,1-.79.7-.52.6-.44,1-.71.74-.51.57-.4.11-.07.91-.63.7-.47.82-.54.84-.54.88-.56.76-.47.77-.47.89-.54,1.71-1,.83-.47,1.73-.95.1-.05h0l.89-.47,1-.52.64-.33.8-.4.05,0,1.07-.52.72-.35.84-.39,1-.47.87-.39.88-.39,1-.41.72-.3,1.06-.44.91-.36.73-.29,1-.39.43-.16,1.19-.44.52-.18.61-.21,1.1-.38,1-.32.76-.25,1.13-.36.95-.29.81-.23,1.12-.33,1-.26.88-.24,1.05-.27,11.83-3-9.49,7.69A131.64,131.64,0,0,0,349.27,85.7c-.72,1.25-1.42,2.52-2.09,3.79l-1.37,2.58-2.46-1.59a117.62,117.62,0,0,1-17.29-13.7l-2-1.92,2.25-2.18.84-.79.26-.24c.58-.54,1.16-1.08,1.76-1.6l.25-.23,1.08-.94.88-.76.74-.62.76-.62Zm18.12,194.79-.11-.06c-.58-.31-1.15-.63-1.72-1l-1-.58-.67-.4-.84-.49-.93-.56-.75-.46-.83-.52-.74-.47,0,0-1-.61-.72-.48-.72-.48-.93-.64-.77-.53-.61-.44-1-.7-.79-.58-.61-.45-1-.78-.92-.71-.55-.43-.86-.68v0l-.65-.52-.75-.62-.75-.64-.88-.75-1.15-1-.16-.15c-.6-.53-1.18-1.06-1.76-1.6l-.28-.25-.92-.87L324,240.62l2-1.92a118.23,118.23,0,0,1,17.3-13.7l2.46-1.6,1.37,2.59c.67,1.27,1.37,2.54,2.09,3.79a131.64,131.64,0,0,0,31.33,37.07l9.49,7.69-11.93-3-1-.25-.87-.23-1-.29-1.06-.3-.8-.24-1-.29-1.12-.35-.78-.26-.95-.31-1.1-.38-.6-.21-.53-.19-1.19-.44-.43-.16-1-.39-.73-.28-.92-.37-1-.44-.77-.32-.91-.39-.92-.41-.88-.4-1-.45-.81-.38-.89-.43-.89-.43h0l-.88-.45-.63-.32-1.11-.58ZM480.9,249.11v0l-1.1.87-.23.18-1.09.84-1,.79-.52.39-.78.57-1,.7-.61.43-.55.39-1.16.79-.72.48-.81.54-.84.54-.86.55-.77.48-.78.48-.89.53c-.56.34-1.13.67-1.71,1l-.83.47-1.72,1-.1,0h0l-.9.47-1,.51-.66.34-.81.4,0,0-.92.45-.87.42-.9.42-1,.44-.86.39-.88.39-.95.41-.72.3-1.06.44-.92.36-.73.29-1,.39-.44.16-1.29.47-.35.13-.75.26-1,.35-1,.35-1,.3-.86.28-1,.29-1,.29-.79.23h0l-1,.29-1.93.5-11.78,3,9.41-7.62a131.84,131.84,0,0,0,31.34-37.07c.71-1.25,1.41-2.52,2.08-3.79l1.37-2.59,2.46,1.6a117.7,117.7,0,0,1,17.3,13.7l2,1.93-2.25,2.17-.85.79-.29.27-1,.92-.72.65L484,246.51l-.25.21-.83.71-1.07.9-.34.27ZM495.77,80.7a116.92,116.92,0,0,1,28.7,71.65l.12,2.79H484l-.09-2.58a146,146,0,0,0-12.11-53.71l-.93-2.11,1.94-1.23a123.19,123.19,0,0,0,19.14-15l2-1.94ZM289.94,152.35A116.85,116.85,0,0,1,318.63,80.7l1.84-2.11,2,1.94a123.11,123.11,0,0,0,19.13,15l1.94,1.24-.92,2.1a145.8,145.8,0,0,0-12.12,53.71l-.09,2.58H289.81Zm28.68,82.43a116.9,116.9,0,0,1-28.68-71.65l-.13-2.79h40.63l.09,2.58a146,146,0,0,0,12.11,53.71l.93,2.1L341.63,220a123.19,123.19,0,0,0-19.14,15l-2,1.94Zm205.85-71.65a117,117,0,0,1-28.69,71.65l-1.85,2.11-2-1.94a122.59,122.59,0,0,0-19.14-15l-1.94-1.24.93-2.1a146,146,0,0,0,12.11-53.71l.09-2.58h40.63ZM401.81,109.22a116.94,116.94,0,0,1-40.73-9.28q-4.27-1.83-8.41-4l-2.37-1.25,1.24-2.37q1.08-2,2.23-4c11.13-19.49,27.17-36,46.86-46.95l4-2.2v70.22Zm2.79,45.92h-69l.1-2.77A141,141,0,0,1,346.92,102l1.14-2.66,2.56,1.34q4.14,2.16,8.45,4a121.84,121.84,0,0,0,43,9.72l2.56.11Zm-57.68,58.32a141,141,0,0,1-11.19-50.35l-.1-2.77h69V201l-2.56.1a122.07,122.07,0,0,0-43,9.73q-4.31,1.83-8.45,4l-2.56,1.34Zm53.71,60.7c-19.69-10.9-35.73-27.46-46.86-47q-1.15-2-2.23-4.05l-1.24-2.37,2.37-1.25q4.13-2.17,8.41-4a117.15,117.15,0,0,1,40.73-9.27l2.79-.12v70.22Zm62.23-51q-1.08,2-2.22,4.05c-11.14,19.49-27.18,36-46.87,47l-4,2.2V206.14l2.8.12a117.15,117.15,0,0,1,40.72,9.27q4.29,1.84,8.42,4l2.37,1.25ZM409.8,160.34h69l-.1,2.77a141,141,0,0,1-11.19,50.35l-1.14,2.66-2.56-1.34q-4.14-2.16-8.45-4a122.07,122.07,0,0,0-43-9.73l-2.56-.1ZM467.48,102a141,141,0,0,1,11.19,50.35l.1,2.77h-69V114.53l2.56-.11a121.84,121.84,0,0,0,43-9.72q4.31-1.83,8.45-4l2.56-1.34Zm-53.71-60.7c19.69,10.9,35.73,27.46,46.87,46.95q1.14,2,2.22,4l1.25,2.37-2.38,1.25q-4.12,2.18-8.41,4a116.94,116.94,0,0,1-40.72,9.28l-2.8.12V39.12Zm-5-6.15h-3.18l-1.55,0-1.53,0h-.1l-1.59.07-1.15.07-.7,0-1.22.09-.87.07-.78.06-.76.07-.18,0a122.59,122.59,0,0,0,0,244h.12l.78.07.79.07.85.07,1.26.09.66,0,1.19.07,1.58.07,1.58,0,1.58,0h3.18l1.55,0,1.54,0h.1l1.58-.07,1.16-.07.67,0,1.24-.09,1.17-.09.48,0,.77-.08h.16a122.59,122.59,0,0,0,0-244h-.11l-.78-.07-.78-.07-.85-.07-1.24-.09-.7,0-1.18-.07L412,35.25l-1.58,0Z"/><path class="cls-4" d="M91.23,297.92l.29.09.29.08.3.1.28.08.33.11.3.1.32.11.24.08.11,0,.42.15.13.06.33.12.23.09.29.12.33.14.25.1.29.12.29.13.28.13.31.14.26.13.28.13.29.14h0l.29.14.2.11.31.16.28.14h0l.55.3.26.16.55.31.29.18.26.16.24.15.27.17.29.18.23.16.26.17.33.23.18.12.19.14.32.23.24.18.19.14.31.23.34.27.07.05.35.28h0l.21.17.11.09.37.31.23.19.11.1.36.31.23.21.32.29.09.09.29.28.69.66-.64.61a36.65,36.65,0,0,1-5.5,4.35l-.78.51-.43-.82c-.22-.41-.44-.81-.67-1.21a41.87,41.87,0,0,0-10-11.78l-3-2.42,3.74.94.61.16.33.09Zm-33.57,6.87h0l.28-.23.17-.13.32-.25.33-.25.22-.16.19-.14.32-.23.23-.16.18-.12,0,0,.29-.2.23-.15.26-.17.26-.17.29-.18.23-.15.25-.15.28-.17.55-.32.26-.15.55-.3h0l.29-.15.31-.16.2-.11.26-.12h0l.35-.17.23-.11.26-.12.32-.15.28-.13.28-.12.3-.13.23-.1.34-.13.29-.12.23-.09.32-.13.14-.05.38-.14.16-.05.2-.07.35-.12.3-.1.24-.08.36-.12.31-.09.25-.07.36-.11.3-.08.29-.08.33-.08,3.76-1-3,2.44a42,42,0,0,0-10,11.78c-.23.4-.45.8-.67,1.21l-.43.82-.78-.51a37.17,37.17,0,0,1-5.5-4.35l-.64-.61.72-.69.27-.25.08-.08.56-.51.08-.07.34-.3.28-.24.24-.2.24-.2Zm5.75,61.89h0l-.55-.3-.33-.19-.21-.13L62,365.9l-.29-.18-.24-.15-.26-.16-.24-.15h0l-.31-.2-.23-.15-.22-.15-.3-.2-.24-.17-.2-.14-.31-.22-.25-.19-.19-.14-.33-.25-.29-.22-.18-.14-.27-.22h0l-.21-.17-.24-.2-.24-.2-.28-.24-.36-.32,0,0-.56-.51-.09-.08-.29-.28-.69-.66.64-.61a37.9,37.9,0,0,1,5.5-4.36l.78-.5.43.82c.22.4.44.81.67,1.21a41.86,41.86,0,0,0,10,11.77l3,2.45-3.79-1-.31-.08-.28-.07-.33-.09-.33-.1-.26-.08-.3-.09-.36-.11-.25-.08-.3-.1-.35-.12-.19-.07-.17-.06-.37-.14-.14,0-.33-.12-.23-.09-.29-.12-.33-.14-.25-.1-.29-.13-.29-.12-.28-.13-.31-.14-.26-.13-.28-.13-.29-.14h0l-.28-.14L64,367l-.36-.19Zm41.08-3.82h0l-.35.28-.07.06-.35.26-.33.25-.16.13L103,364l-.31.22-.2.14-.17.12-.37.25-.23.16-.26.17-.26.17-.28.17-.24.16-.25.15-.28.17-.55.31-.26.15-.55.31h0l-.29.16-.3.16-.21.1-.26.13h0l-.3.14-.27.14-.29.13-.31.14-.27.12L96,368l-.3.13-.23.09-.34.14-.29.12-.23.09-.32.12-.14.06-.41.15-.11,0-.24.08-.33.11-.33.11-.3.1-.27.08-.31.1-.32.09-.25.07h0l-.33.09-.61.16-3.74.93,3-2.42a41.6,41.6,0,0,0,10-11.78c.23-.39.45-.8.67-1.2l.43-.82.78.5a37.37,37.37,0,0,1,5.5,4.36l.64.61-.72.69-.26.25-.1.09-.32.29-.23.21-.39.34-.07.07-.27.22-.34.29-.11.08Zm4.73-53.51a37.2,37.2,0,0,1,9.12,22.76l0,.89H105.47l0-.82a46.5,46.5,0,0,0-3.85-17.07l-.3-.67.62-.39a38.9,38.9,0,0,0,6.08-4.76l.64-.62Zm-65.4,22.76a37.13,37.13,0,0,1,9.11-22.76l.59-.68.64.62a38.9,38.9,0,0,0,6.08,4.76l.62.39-.3.67a46.5,46.5,0,0,0-3.85,17.07l0,.82H43.78Zm9.11,26.19a37.16,37.16,0,0,1-9.11-22.76l0-.89H56.69l0,.82a46.5,46.5,0,0,0,3.85,17.07l.3.66-.62.4a38.9,38.9,0,0,0-6.08,4.76l-.64.61Zm65.41-22.76a37.23,37.23,0,0,1-9.12,22.76l-.59.67-.64-.61a38.9,38.9,0,0,0-6.08-4.76l-.62-.4.3-.66a46.5,46.5,0,0,0,3.85-17.07l0-.82h12.91Zm-39-17.13a37.42,37.42,0,0,1-12.94-3c-.91-.39-1.8-.81-2.67-1.27l-.76-.4.4-.75c.23-.43.46-.86.71-1.29A39.22,39.22,0,0,1,79,296.83l1.26-.7v22.32ZM80.25,333H58.34l0-.88a44.73,44.73,0,0,1,3.55-16l.36-.84.82.42c.88.46,1.77.88,2.68,1.27a38.93,38.93,0,0,0,13.66,3.09l.81,0ZM61.92,351.53a44.73,44.73,0,0,1-3.55-16l0-.88H80.25v12.9l-.81,0a38.5,38.5,0,0,0-13.66,3.09c-.91.39-1.8.81-2.68,1.27l-.82.42ZM79,370.82A39.22,39.22,0,0,1,64.1,355.9c-.25-.43-.48-.86-.71-1.29l-.4-.75.76-.4c.87-.46,1.76-.88,2.67-1.27a37,37,0,0,1,12.94-2.95l.89,0v22.31Zm19.77-16.21c-.23.43-.46.86-.71,1.29a39.15,39.15,0,0,1-14.89,14.92l-1.26.69V349.2l.89,0a37,37,0,0,1,12.94,2.95c.91.39,1.8.81,2.67,1.27l.76.4Zm-16.86-20h21.92l0,.88a44.73,44.73,0,0,1-3.55,16l-.36.84-.82-.42c-.87-.46-1.77-.88-2.68-1.27a38.49,38.49,0,0,0-13.65-3.09l-.82,0Zm18.33-18.53a44.73,44.73,0,0,1,3.55,16l0,.88H81.9V320.09l.82,0A38.93,38.93,0,0,0,96.37,317c.91-.39,1.81-.81,2.68-1.27l.82-.43ZM83.16,296.83a39.15,39.15,0,0,1,14.89,14.92c.25.43.48.86.71,1.29l.4.75-.76.4c-.87.46-1.76.88-2.67,1.27a37.47,37.47,0,0,1-12.94,3l-.89,0V296.13Zm-1.58-1.95h-2l-.5,0-.37,0h-.22l-.39,0-.27,0-.25,0-.25,0h0a39,39,0,0,0,0,77.53h0l.25,0,.25,0,.27,0,.4,0h.21l.38,0,.5,0,.5,0h2.53l.5,0,.37,0h.22l.39,0,.37,0h.15l.25,0h0a39,39,0,0,0,0-77.53h0l-.25,0-.25,0-.27,0-.39,0h-.23l-.37,0-.5,0h-1Z"/><path class="cls-5" d="M262.43,268.56a3.66,3.66,0,1,0,1.07,2.58,3.65,3.65,0,0,0-1.07-2.58m-3.65,31V276.9a5.83,5.83,0,1,1,2.2,0V299.6Z"/><path class="cls-6" d="M297,232.77a3.68,3.68,0,0,0-2.59-1.07,3.66,3.66,0,0,0,0,7.31,3.66,3.66,0,0,0,2.59-6.24m-3.69,66.83V241.11a5.9,5.9,0,0,1-3-1.62,5.83,5.83,0,1,1,5.24,1.62V299.6Z"/><path class="cls-7" d="M280.93,256.3a3.63,3.63,0,0,0-2.58-1.07,3.65,3.65,0,0,0-3.66,3.66,3.63,3.63,0,0,0,1.07,2.58,3.68,3.68,0,0,0,2.59,1.07,3.65,3.65,0,0,0,3.65-3.65,3.68,3.68,0,0,0-1.07-2.59M278.35,253a5.86,5.86,0,0,1,4.14,10,6,6,0,0,1-3,1.61v35h-2.2v-35a5.86,5.86,0,0,1,1.1-11.61Z"/><path class="cls-8" d="M312,246a3.64,3.64,0,0,0-2.59-1.08,3.66,3.66,0,0,0,0,7.31,3.68,3.68,0,0,0,2.59-1.07,3.65,3.65,0,0,0,0-5.16m-2.59-3.28a5.86,5.86,0,0,1,1.1,11.61V299.6h-2.2V254.36a5.88,5.88,0,0,1-3-1.61,5.86,5.86,0,0,1,4.14-10Z"/><path class="cls-9" d="M451.92,347.2a2.18,2.18,0,0,1,1.55-.65,2.22,2.22,0,0,1,2.21,2.21,2.18,2.18,0,0,1-.65,1.55,2.2,2.2,0,0,1-1.56.65,2.22,2.22,0,0,1-2.2-2.2,2.2,2.2,0,0,1,.65-1.56m2.2,18.73v-13.7a3.48,3.48,0,0,0,1.85-1,3.52,3.52,0,1,0-3.18,1v13.71Z"/><path class="cls-10" d="M431.07,325.6a2.2,2.2,0,0,1,3.12,0,2.22,2.22,0,0,1,0,3.12,2.21,2.21,0,1,1-3.12-3.12m2.22,40.33v-35.3a3.53,3.53,0,0,0,1.83-6,3.54,3.54,0,0,0-6,2.5,3.54,3.54,0,0,0,2.87,3.47v35.3Z"/><path class="cls-11" d="M440.75,339.8a2.2,2.2,0,1,1-.65,1.56,2.2,2.2,0,0,1,.65-1.56m1.56-2a3.54,3.54,0,0,0-2.5,6,3.58,3.58,0,0,0,1.84,1v21.1H443v-21.1a3.58,3.58,0,0,0,1.84-1,3.53,3.53,0,0,0-2.5-6Z"/><path class="cls-12" d="M422,333.6a2.21,2.21,0,1,1,3.12,3.12,2.22,2.22,0,0,1-3.12,0,2.22,2.22,0,0,1,0-3.12m1.56-2a3.53,3.53,0,0,0-2.49,6,3.56,3.56,0,0,0,1.83,1v27.3h1.33v-27.3a3.56,3.56,0,0,0,1.83-1,3.54,3.54,0,0,0-2.5-6Z"/><path class="cls-13" d="M110,338.11a2.67,2.67,0,0,0-1.89-.78,2.66,2.66,0,0,0-2.68,2.68,2.68,2.68,0,0,0,2.68,2.68,2.7,2.7,0,0,0,2.68-2.68,2.68,2.68,0,0,0-.79-1.9m-2.67,22.76V344.23a4.27,4.27,0,1,1,1.61,0v16.65Z"/><path class="cls-14" d="M135.34,311.86a2.71,2.71,0,0,0-1.9-.78,2.68,2.68,0,0,0-2.68,2.68,2.7,2.7,0,0,0,2.68,2.68,2.68,2.68,0,0,0,2.68-2.68,2.71,2.71,0,0,0-.78-1.9m-2.71,49V318a4.3,4.3,0,0,1-3.48-4.22,4.29,4.29,0,1,1,8.58,0,4.33,4.33,0,0,1-1.25,3,4.4,4.4,0,0,1-2.23,1.18v42.89Z"/><path class="cls-15" d="M123.57,329.12a2.71,2.71,0,0,0-1.9-.78,2.67,2.67,0,0,0-1.89.78A2.71,2.71,0,0,0,119,331a2.67,2.67,0,0,0,.78,1.89,2.64,2.64,0,0,0,1.89.79,2.68,2.68,0,0,0,2.68-2.68,2.71,2.71,0,0,0-.78-1.9m-1.9-2.4A4.3,4.3,0,0,1,126,331a4.25,4.25,0,0,1-1.26,3,4.34,4.34,0,0,1-2.23,1.19v25.63h-1.61V335.24a4.3,4.3,0,0,1-2.23-1.19,4.29,4.29,0,0,1,0-6.07A4.31,4.31,0,0,1,121.67,326.72Z"/><path class="cls-16" d="M146.34,321.58a2.71,2.71,0,0,0-1.9-.78,2.68,2.68,0,0,0-2.68,2.68,2.7,2.7,0,0,0,2.68,2.68,2.68,2.68,0,0,0,2.68-2.68,2.71,2.71,0,0,0-.78-1.9m-1.9-2.39a4.28,4.28,0,0,1,4.3,4.29,4.25,4.25,0,0,1-1.26,3,4.34,4.34,0,0,1-2.23,1.19v33.17h-1.61V327.7a4.29,4.29,0,0,1,.8-8.51Z"/><path class="cls-17" d="M275.59,507.44c140.78,0,254.9,2.16,254.9,4.83s-121.07,22.42-261.85,22.42S20.69,514.93,20.69,512.27s114.12-4.83,254.9-4.83"/><path class="cls-18" d="M215.7,289.06H353.54a7,7,0,0,1,6.74,7.22V484.57a7,7,0,0,1-6.74,7.22H215.7a7,7,0,0,1-6.75-7.22V296.28a7,7,0,0,1,6.75-7.22"/><path class="cls-19" d="M202.41,286.41h82.21v47.92H202.41a2.15,2.15,0,0,1-2.15-2.14V316.05a1.46,1.46,0,0,1,1.47-1.46h51.4a.6.6,0,0,0,.59-.59v-7.26a.6.6,0,0,0-.59-.59h-51.4a1.46,1.46,0,0,1-1.47-1.46V288.55a2.15,2.15,0,0,1,2.15-2.14"/><path class="cls-20" d="M200.26,288.52a2.11,2.11,0,0,1,2.11-2.11h162.3c2.37,0,4.31,1,4.31,2.14v43.64c0,1.18-1.94,2.14-4.31,2.14H202.37a2.11,2.11,0,0,1-2.11-2.11Z"/><path class="cls-21" d="M249.51,309.19H304a.11.11,0,0,1,.11.11v2.14a.11.11,0,0,1-.11.11H249.51a.12.12,0,0,1-.12-.11V309.3a.12.12,0,0,1,.12-.11"/><path class="cls-21" d="M209.38,306.15H253.3a.4.4,0,0,1,.42.38v7.68a.4.4,0,0,1-.42.38H209.38a.41.41,0,0,1-.43-.38v-7.68a.41.41,0,0,1,.43-.38"/><path class="cls-19" d="M202.41,339.79h82.21V387.7H202.41a2.15,2.15,0,0,1-2.15-2.14V369.42a1.46,1.46,0,0,1,1.47-1.46h51.4a.6.6,0,0,0,.59-.59v-7.26a.6.6,0,0,0-.59-.59h-51.4a1.46,1.46,0,0,1-1.47-1.46V341.92a2.15,2.15,0,0,1,2.15-2.13"/><path class="cls-22" d="M200.09,342.16a2.38,2.38,0,0,1,2.38-2.37h162.2c2.37,0,4.31,1,4.31,2.13v43.64c0,1.18-1.94,2.14-4.31,2.14H202.47a2.38,2.38,0,0,1-2.38-2.37Z"/><path class="cls-21" d="M249.51,362.57H304a.1.1,0,0,1,.11.1v2.14a.11.11,0,0,1-.11.11H249.51a.12.12,0,0,1-.12-.11v-2.14a.11.11,0,0,1,.12-.1"/><path class="cls-21" d="M209.38,359.52H253.3a.4.4,0,0,1,.42.38v7.68a.4.4,0,0,1-.42.38H209.38a.41.41,0,0,1-.43-.38V359.9a.41.41,0,0,1,.43-.38"/><path class="cls-19" d="M202.41,393.16h82.21v47.91H202.41a2.15,2.15,0,0,1-2.15-2.14V422.79a1.47,1.47,0,0,1,1.47-1.46h51.4a.6.6,0,0,0,.59-.59v-7.26a.59.59,0,0,0-.59-.58h-51.4a1.47,1.47,0,0,1-1.47-1.46V395.29a2.15,2.15,0,0,1,2.15-2.13"/><path class="cls-23" d="M200.09,395.53a2.38,2.38,0,0,1,2.38-2.37h162.2c2.37,0,4.31,1,4.31,2.13v43.64c0,1.18-1.94,2.14-4.31,2.14H202.47a2.38,2.38,0,0,1-2.38-2.37Z"/><path class="cls-21" d="M249.51,415.94H304a.1.1,0,0,1,.11.1v2.14a.11.11,0,0,1-.11.11H249.51a.12.12,0,0,1-.12-.11V416a.11.11,0,0,1,.12-.1"/><path class="cls-21" d="M209.38,412.9H253.3a.39.39,0,0,1,.42.37V421a.4.4,0,0,1-.42.38H209.38A.41.41,0,0,1,209,421v-7.68a.4.4,0,0,1,.43-.37"/><path class="cls-19" d="M202.41,446.53h82.21v47.91H202.41a2.15,2.15,0,0,1-2.15-2.13V476.16a1.47,1.47,0,0,1,1.47-1.46h51.4a.59.59,0,0,0,.59-.59v-7.26a.59.59,0,0,0-.59-.58h-51.4a1.47,1.47,0,0,1-1.47-1.46V448.66a2.15,2.15,0,0,1,2.15-2.13"/><path class="cls-24" d="M200.09,448.9a2.38,2.38,0,0,1,2.38-2.37h162.2c2.37,0,4.31,1,4.31,2.13v43.65c0,1.17-1.94,2.13-4.31,2.13H202.47a2.38,2.38,0,0,1-2.38-2.37Z"/><path class="cls-21" d="M249.51,469.31H304a.11.11,0,0,1,.11.1v2.14a.11.11,0,0,1-.11.11H249.51a.12.12,0,0,1-.12-.11v-2.14a.12.12,0,0,1,.12-.1"/><path class="cls-21" d="M209.38,466.27H253.3a.4.4,0,0,1,.42.37v7.69a.4.4,0,0,1-.42.37H209.38a.4.4,0,0,1-.43-.37v-7.69a.4.4,0,0,1,.43-.37"/><path class="cls-25" d="M324.11,308.4a5.17,5.17,0,1,0-1.89,7.06,5.17,5.17,0,0,0,1.89-7.06"/><path class="cls-25" d="M359.53,308.4a5.17,5.17,0,1,0-1.89,7.06,5.17,5.17,0,0,0,1.89-7.06"/><path class="cls-25" d="M341.82,308.4a5.17,5.17,0,1,0-1.89,7.06,5.17,5.17,0,0,0,1.89-7.06"/><path class="cls-25" d="M350.58,361.77a5.17,5.17,0,1,1,1.89,7.06,5.17,5.17,0,0,1-1.89-7.06"/><path class="cls-25" d="M315.16,361.77a5.17,5.17,0,1,1,1.89,7.06,5.17,5.17,0,0,1-1.89-7.06"/><path class="cls-25" d="M332.87,361.77a5.17,5.17,0,1,1,1.89,7.06,5.17,5.17,0,0,1-1.89-7.06"/><path class="cls-25" d="M324.11,415.14a5.17,5.17,0,1,0-1.89,7.06,5.18,5.18,0,0,0,1.89-7.06"/><path class="cls-25" d="M359.53,415.14a5.17,5.17,0,1,0-1.89,7.06,5.18,5.18,0,0,0,1.89-7.06"/><path class="cls-25" d="M341.82,415.14a5.17,5.17,0,1,0-1.89,7.06,5.18,5.18,0,0,0,1.89-7.06"/><path class="cls-25" d="M350.58,468.51a5.17,5.17,0,1,1,1.89,7.06,5.18,5.18,0,0,1-1.89-7.06"/><path class="cls-25" d="M315.16,468.51a5.17,5.17,0,1,1,1.89,7.06,5.18,5.18,0,0,1-1.89-7.06"/><path class="cls-25" d="M332.87,468.51a5.17,5.17,0,1,1,1.89,7.06,5.18,5.18,0,0,1-1.89-7.06"/><path class="cls-26" d="M323.91,308.55A5.17,5.17,0,1,0,322,315.6a5.17,5.17,0,0,0,1.89-7.05"/><path class="cls-21" d="M359.33,308.55a5.17,5.17,0,1,0-1.89,7.05,5.17,5.17,0,0,0,1.89-7.05"/><path class="cls-27" d="M341.62,308.55a5.17,5.17,0,1,0-1.89,7.05,5.17,5.17,0,0,0,1.89-7.05"/><path class="cls-26" d="M350.38,361.54a5.17,5.17,0,1,1,1.89,7,5.17,5.17,0,0,1-1.89-7"/><path class="cls-21" d="M315,361.54a5.17,5.17,0,1,1,1.89,7,5.17,5.17,0,0,1-1.89-7"/><path class="cls-28" d="M332.67,361.54a5.17,5.17,0,1,1,1.89,7,5.17,5.17,0,0,1-1.89-7"/><path class="cls-26" d="M323.91,414.91A5.17,5.17,0,1,0,322,422a5.17,5.17,0,0,0,1.89-7.06"/><path class="cls-21" d="M359.33,414.91a5.17,5.17,0,1,0-1.89,7.06,5.17,5.17,0,0,0,1.89-7.06"/><path class="cls-29" d="M341.62,414.91a5.17,5.17,0,1,0-1.89,7.06,5.17,5.17,0,0,0,1.89-7.06"/><path class="cls-26" d="M350.38,468.66a5.17,5.17,0,1,1,1.89,7.06,5.17,5.17,0,0,1-1.89-7.06"/><path class="cls-21" d="M315,468.66a5.17,5.17,0,1,1,1.89,7.06,5.17,5.17,0,0,1-1.89-7.06"/><path class="cls-30" d="M332.67,468.66a5.17,5.17,0,1,1,1.89,7.06,5.17,5.17,0,0,1-1.89-7.06"/><path class="cls-18" d="M77.2,348.2h98.15a5,5,0,0,1,4.8,5.14V487.41a5,5,0,0,1-4.8,5.14H77.2a5,5,0,0,1-4.8-5.14V353.34a5,5,0,0,1,4.8-5.14"/><path class="cls-19" d="M67.74,346.31h58.53v34.12H67.74a1.54,1.54,0,0,1-1.54-1.52v-11.5a1,1,0,0,1,1-1h36.6a.42.42,0,0,0,.42-.42v-5.16a.42.42,0,0,0-.42-.42H67.25a1,1,0,0,1-1-1v-11.5a1.54,1.54,0,0,1,1.54-1.52"/><path class="cls-31" d="M66.2,347.64a1.34,1.34,0,0,1,1.33-1.33H183.28c1.68,0,3.06.69,3.06,1.52v31.08c0,.83-1.38,1.52-3.06,1.52H67.53a1.34,1.34,0,0,1-1.33-1.33Z"/><path class="cls-21" d="M101.27,362.53H140.1a.08.08,0,0,1,.08.08v1.52a.08.08,0,0,1-.08.08H101.27a.09.09,0,0,1-.08-.08v-1.52a.09.09,0,0,1,.08-.08"/><path class="cls-21" d="M72.7,360.37H104a.28.28,0,0,1,.3.26v5.48a.28.28,0,0,1-.3.26H72.7a.28.28,0,0,1-.3-.26v-5.48a.28.28,0,0,1,.3-.26"/><path class="cls-19" d="M67.74,384.32h58.53v34.11H67.74a1.53,1.53,0,0,1-1.54-1.52V405.42a1,1,0,0,1,1-1h36.6a.42.42,0,0,0,.42-.42v-5.17a.42.42,0,0,0-.42-.42H67.25a1,1,0,0,1-1-1V385.84a1.53,1.53,0,0,1,1.54-1.52"/><path class="cls-32" d="M66.2,385.64a1.33,1.33,0,0,1,1.33-1.32H183.28c1.68,0,3.06.68,3.06,1.52v31.07c0,.84-1.38,1.52-3.06,1.52H67.53a1.33,1.33,0,0,1-1.33-1.33Z"/><path class="cls-21" d="M101.27,400.54H140.1a.07.07,0,0,1,.08.07v1.53a.07.07,0,0,1-.08.07H101.27a.08.08,0,0,1-.08-.07v-1.53a.08.08,0,0,1,.08-.07"/><path class="cls-21" d="M72.7,398.37H104a.28.28,0,0,1,.3.27v5.47a.28.28,0,0,1-.3.27H72.7a.28.28,0,0,1-.3-.27v-5.47a.28.28,0,0,1,.3-.27"/><path class="cls-19" d="M67.74,422.32h58.53v34.12H67.74a1.54,1.54,0,0,1-1.54-1.52v-11.5a1,1,0,0,1,1-1h36.6a.42.42,0,0,0,.42-.42v-5.17a.42.42,0,0,0-.42-.42H67.25a1,1,0,0,1-1-1v-11.5a1.53,1.53,0,0,1,1.54-1.52"/><path class="cls-33" d="M66.2,423.65a1.33,1.33,0,0,1,1.33-1.33H183.28c1.68,0,3.06.68,3.06,1.52v31.08c0,.83-1.38,1.52-3.06,1.52H67.53a1.34,1.34,0,0,1-1.33-1.33Z"/><path class="cls-21" d="M101.27,438.54H140.1a.07.07,0,0,1,.08.07v1.53a.07.07,0,0,1-.08.07H101.27a.08.08,0,0,1-.08-.07v-1.53a.08.08,0,0,1,.08-.07"/><path class="cls-21" d="M72.7,436.37H104a.28.28,0,0,1,.3.27v5.47a.28.28,0,0,1-.3.27H72.7a.28.28,0,0,1-.3-.27v-5.47a.28.28,0,0,1,.3-.27"/><path class="cls-19" d="M67.74,460.32h58.53v34.12H67.74a1.53,1.53,0,0,1-1.54-1.52v-11.5a1,1,0,0,1,1-1h36.6a.42.42,0,0,0,.42-.43V474.8a.42.42,0,0,0-.42-.42H67.25a1,1,0,0,1-1-1v-11.5a1.54,1.54,0,0,1,1.54-1.52"/><path class="cls-34" d="M66.2,461.65a1.34,1.34,0,0,1,1.33-1.33H183.28c1.68,0,3.06.69,3.06,1.52v31.08c0,.84-1.38,1.52-3.06,1.52H67.53a1.33,1.33,0,0,1-1.33-1.33Z"/><path class="cls-21" d="M101.27,476.54H140.1a.08.08,0,0,1,.08.08v1.52a.07.07,0,0,1-.08.08H101.27a.08.08,0,0,1-.08-.08v-1.52a.09.09,0,0,1,.08-.08"/><path class="cls-21" d="M72.7,474.38H104a.28.28,0,0,1,.3.27v5.47a.29.29,0,0,1-.3.27H72.7a.29.29,0,0,1-.3-.27v-5.47a.28.28,0,0,1,.3-.27"/><path class="cls-25" d="M154.39,362a3.68,3.68,0,1,0-1.34,5,3.68,3.68,0,0,0,1.34-5"/><path class="cls-25" d="M179.62,362a3.68,3.68,0,1,0-1.35,5,3.69,3.69,0,0,0,1.35-5"/><path class="cls-25" d="M167,362a3.68,3.68,0,1,0-1.34,5,3.68,3.68,0,0,0,1.34-5"/><path class="cls-25" d="M173.25,400a3.68,3.68,0,1,1,1.34,5,3.67,3.67,0,0,1-1.34-5"/><path class="cls-25" d="M148,400a3.68,3.68,0,1,1,1.35,5,3.68,3.68,0,0,1-1.35-5"/><path class="cls-25" d="M160.63,400a3.68,3.68,0,1,1,1.35,5,3.68,3.68,0,0,1-1.35-5"/><path class="cls-25" d="M154.39,438a3.68,3.68,0,1,0-1.34,5,3.67,3.67,0,0,0,1.34-5"/><path class="cls-25" d="M179.62,438a3.68,3.68,0,1,0-1.35,5,3.68,3.68,0,0,0,1.35-5"/><path class="cls-25" d="M167,438a3.68,3.68,0,1,0-1.34,5,3.67,3.67,0,0,0,1.34-5"/><path class="cls-25" d="M173.25,476a3.68,3.68,0,1,1,1.34,5,3.68,3.68,0,0,1-1.34-5"/><path class="cls-25" d="M148,476a3.68,3.68,0,1,1,1.35,5,3.69,3.69,0,0,1-1.35-5"/><path class="cls-25" d="M160.63,476a3.68,3.68,0,1,1,1.35,5,3.69,3.69,0,0,1-1.35-5"/><path class="cls-26" d="M154.47,361.91a3.68,3.68,0,1,0-1.35,5,3.68,3.68,0,0,0,1.35-5"/><path class="cls-35" d="M178.93,361.53a3.68,3.68,0,1,0-1.34,5,3.68,3.68,0,0,0,1.34-5"/><path class="cls-36" d="M167.08,361.91a3.68,3.68,0,1,0-1.35,5,3.68,3.68,0,0,0,1.35-5"/><path class="cls-37" d="M173.32,399.91a3.68,3.68,0,1,1,1.35,5,3.69,3.69,0,0,1-1.35-5"/><path class="cls-21" d="M148.1,399.91a3.68,3.68,0,1,1,1.35,5,3.67,3.67,0,0,1-1.35-5"/><path class="cls-38" d="M160.71,399.91a3.68,3.68,0,1,1,1.35,5,3.68,3.68,0,0,1-1.35-5"/><path class="cls-26" d="M154.47,437.92a3.68,3.68,0,1,0-1.35,5,3.68,3.68,0,0,0,1.35-5"/><path class="cls-21" d="M179.69,437.92a3.68,3.68,0,1,0-1.34,5,3.68,3.68,0,0,0,1.34-5"/><path class="cls-39" d="M166.7,437.92a3.68,3.68,0,0,0-5-1.35c-1.76,1-2,3.27-1,5a3.24,3.24,0,0,0,4.64,1.34,3.67,3.67,0,0,0,1.35-5"/><path class="cls-26" d="M173.32,475.92a3.68,3.68,0,1,1,1.35,5,3.68,3.68,0,0,1-1.35-5"/><path class="cls-21" d="M147.72,475.92a3.67,3.67,0,0,1,5-1.34c1.76,1,2.74,3.26,1.73,5a4.14,4.14,0,0,1-5.4,1.35,3.68,3.68,0,0,1-1.35-5"/><path class="cls-40" d="M160.71,475.92a3.68,3.68,0,1,1,1.35,5,3.67,3.67,0,0,1-1.35-5"/><path class="cls-18" d="M393.18,359.31h90.69a4.62,4.62,0,0,1,4.44,4.75V488a4.62,4.62,0,0,1-4.44,4.75H393.18a4.62,4.62,0,0,1-4.44-4.75V364.06a4.62,4.62,0,0,1,4.44-4.75"/><path class="cls-19" d="M384.43,357.57h54.09v31.52H384.43a1.41,1.41,0,0,1-1.41-1.4V377.06a1,1,0,0,1,1-1H417.8a.39.39,0,0,0,.4-.38v-4.78a.4.4,0,0,0-.4-.39H384a1,1,0,0,1-1-1V359a1.41,1.41,0,0,1,1.41-1.4"/><path class="cls-41" d="M383,359.1a1.52,1.52,0,0,1,1.53-1.53H491.2c1.56,0,2.83.63,2.83,1.4v28.72c0,.77-1.27,1.4-2.83,1.4H384.55a1.53,1.53,0,0,1-1.53-1.53Z"/><path class="cls-21" d="M415.42,372.55H451.3a.09.09,0,0,1,.08.07V374a.08.08,0,0,1-.08.07H415.42a.07.07,0,0,1-.07-.07v-1.41a.08.08,0,0,1,.07-.07"/><path class="cls-21" d="M389,370.55h28.9a.27.27,0,0,1,.28.25v5.06a.27.27,0,0,1-.28.24H389a.26.26,0,0,1-.28-.24V370.8a.26.26,0,0,1,.28-.25"/><path class="cls-19" d="M384.43,392.68h54.09v31.53H384.43A1.41,1.41,0,0,1,383,422.8V412.18a1,1,0,0,1,1-1H417.8a.39.39,0,0,0,.4-.39v-4.77a.39.39,0,0,0-.4-.39H384a1,1,0,0,1-1-1V394.09a1.41,1.41,0,0,1,1.41-1.41"/><path class="cls-42" d="M383,394.21a1.53,1.53,0,0,1,1.53-1.53H491.2c1.56,0,2.83.63,2.83,1.41V422.8c0,.78-1.27,1.41-2.83,1.41H384.55a1.53,1.53,0,0,1-1.53-1.53Z"/><path class="cls-21" d="M415.42,407.67H451.3a.08.08,0,0,1,.08.07v1.41a.08.08,0,0,1-.08.07H415.42a.07.07,0,0,1-.07-.07v-1.41a.07.07,0,0,1,.07-.07"/><path class="cls-21" d="M389,405.67h28.9a.27.27,0,0,1,.28.25V411a.27.27,0,0,1-.28.25H389a.26.26,0,0,1-.28-.25v-5.05a.26.26,0,0,1,.28-.25"/><path class="cls-19" d="M384.43,427.8h54.09v31.52H384.43a1.41,1.41,0,0,1-1.41-1.4V447.3a1,1,0,0,1,1-1H417.8a.4.4,0,0,0,.4-.39v-4.78a.39.39,0,0,0-.4-.38H384a1,1,0,0,1-1-1V429.2a1.41,1.41,0,0,1,1.41-1.4"/><path class="cls-43" d="M383,429.33a1.52,1.52,0,0,1,1.53-1.53H491.2c1.56,0,2.83.63,2.83,1.4v28.72c0,.77-1.27,1.4-2.83,1.4H384.55a1.52,1.52,0,0,1-1.53-1.53Z"/><path class="cls-21" d="M415.42,442.79H451.3a.08.08,0,0,1,.08.07v1.41s0,.06-.08.06H415.42a.07.07,0,0,1-.07-.06v-1.41a.07.07,0,0,1,.07-.07"/><path class="cls-21" d="M389,440.79h28.9a.27.27,0,0,1,.28.24v5.06a.27.27,0,0,1-.28.25H389a.26.26,0,0,1-.28-.25V441a.26.26,0,0,1,.28-.24"/><path class="cls-19" d="M384.43,462.91h54.09v31.53H384.43A1.41,1.41,0,0,1,383,493V482.41a1,1,0,0,1,1-1H417.8a.39.39,0,0,0,.4-.38v-4.78a.4.4,0,0,0-.4-.39H384a1,1,0,0,1-1-1V464.32a1.42,1.42,0,0,1,1.41-1.41"/><path class="cls-44" d="M383,464.45a1.53,1.53,0,0,1,1.53-1.54H491.2c1.56,0,2.83.64,2.83,1.41V493c0,.77-1.27,1.4-2.83,1.4H384.55a1.53,1.53,0,0,1-1.53-1.53Z"/><path class="cls-21" d="M415.42,477.9H451.3a.09.09,0,0,1,.08.07v1.41a.08.08,0,0,1-.08.07H415.42a.07.07,0,0,1-.07-.07V478a.08.08,0,0,1,.07-.07"/><path class="cls-21" d="M389,475.9h28.9a.27.27,0,0,1,.28.25v5.06a.27.27,0,0,1-.28.24H389a.26.26,0,0,1-.28-.24v-5.06a.26.26,0,0,1,.28-.25"/><path class="cls-25" d="M464.51,372a3.4,3.4,0,1,0-1.25,4.65,3.41,3.41,0,0,0,1.25-4.65"/><path class="cls-25" d="M487.81,372a3.4,3.4,0,1,0-1.24,4.65,3.39,3.39,0,0,0,1.24-4.65"/><path class="cls-25" d="M476.16,372a3.4,3.4,0,1,0-1.24,4.65,3.4,3.4,0,0,0,1.24-4.65"/><path class="cls-25" d="M481.93,407.15a3.4,3.4,0,1,1,1.24,4.64,3.39,3.39,0,0,1-1.24-4.64"/><path class="cls-25" d="M458.62,407.15a3.4,3.4,0,1,1,1.24,4.64,3.39,3.39,0,0,1-1.24-4.64"/><path class="cls-25" d="M470.27,407.15a3.4,3.4,0,1,1,1.25,4.64,3.4,3.4,0,0,1-1.25-4.64"/><path class="cls-25" d="M464.51,442.27a3.4,3.4,0,1,0-1.25,4.64,3.4,3.4,0,0,0,1.25-4.64"/><path class="cls-25" d="M487.81,442.27a3.39,3.39,0,1,0-1.24,4.64,3.39,3.39,0,0,0,1.24-4.64"/><path class="cls-25" d="M476.16,442.27a3.4,3.4,0,1,0-1.24,4.64,3.39,3.39,0,0,0,1.24-4.64"/><path class="cls-25" d="M481.93,477.38a3.4,3.4,0,1,1,1.24,4.64,3.4,3.4,0,0,1-1.24-4.64"/><path class="cls-25" d="M458.62,477.38a3.4,3.4,0,1,1,1.24,4.64,3.4,3.4,0,0,1-1.24-4.64"/><path class="cls-25" d="M470.27,477.38a3.4,3.4,0,1,1,1.25,4.64,3.41,3.41,0,0,1-1.25-4.64"/><path class="cls-26" d="M464.64,372a3.4,3.4,0,1,0-1.25,4.64,3.41,3.41,0,0,0,1.25-4.64"/><path class="cls-21" d="M487.94,372a3.4,3.4,0,1,0-1.24,4.64,3.4,3.4,0,0,0,1.24-4.64"/><path class="cls-45" d="M476.29,372a3.4,3.4,0,1,0-1.25,4.64,3.4,3.4,0,0,0,1.25-4.64"/><path class="cls-26" d="M482.06,407.13a3.39,3.39,0,1,1,1.24,4.64,3.39,3.39,0,0,1-1.24-4.64"/><path class="cls-21" d="M458.75,407.13a3.4,3.4,0,1,1,1.24,4.64,3.39,3.39,0,0,1-1.24-4.64"/><path class="cls-46" d="M470.4,407.13a3.4,3.4,0,1,1,1.25,4.64,3.39,3.39,0,0,1-1.25-4.64"/><path class="cls-26" d="M464.64,442.24a3.4,3.4,0,1,0-1.25,4.64,3.41,3.41,0,0,0,1.25-4.64"/><path class="cls-21" d="M487.94,442.24a3.4,3.4,0,1,0-1.24,4.64,3.4,3.4,0,0,0,1.24-4.64"/><path class="cls-47" d="M476.29,442.24a3.4,3.4,0,1,0-1.25,4.64,3.4,3.4,0,0,0,1.25-4.64"/><path class="cls-26" d="M482.06,477.36A3.4,3.4,0,1,1,483.3,482a3.4,3.4,0,0,1-1.24-4.64"/><path class="cls-21" d="M458.75,477.36A3.4,3.4,0,1,1,460,482a3.4,3.4,0,0,1-1.24-4.64"/><path class="cls-48" d="M172.14,109.59h0a26.71,26.71,0,0,1,5.25.52A34.41,34.41,0,0,1,243,118.74,22.57,22.57,0,0,1,262.44,141h0a22.54,22.54,0,0,1-22.59,22.49c-40.38,0-36.17.38-68.89-.05-14.23-.19-25.78-13-25.78-26.92a27,27,0,0,1,27-27"/><path class="cls-49" d="M470.4,477.36a3.4,3.4,0,1,1,1.25,4.64,3.4,3.4,0,0,1-1.25-4.64"/><path class="cls-50" d="M150.05,282.44a105.74,105.74,0,0,0-20.7-2h-.14c-58.62,0-106.64,48-106.64,106.63,0,54.83,45.62,105.68,101.41,106.42,45.06.6,90.12,1.11,135.19,1,61-.19,122-.7,183-.76,47.52-.06,86.46-38.23,86.46-85.93h0a86.31,86.31,0,0,0-74.5-85.17l-13.39-1.8-2-13.36A141.08,141.08,0,0,0,170.06,272l-5.82,13.24Zm-20.84-20.06h.14a124,124,0,0,1,24.22,2.39A159.1,159.1,0,0,1,456.51,304.7c50.7,6.82,90.12,50.54,90.12,103h0c0,57.63-47,103.94-104.46,103.94-186.65.26-167.18,1.79-318.43-.21C57.94,510.59,4.56,451.56,4.56,387,4.56,318.48,60.65,262.38,129.21,262.38Z"/><path class="cls-1" d="M139.87,279.69q5.25.53,10.38,1.54l13.27,2.64,5.42-12.34a142.3,142.3,0,0,1,271,35.68l1.89,12.45,12.47,1.68a87.53,87.53,0,0,1,75.57,86.38h0A86.46,86.46,0,0,1,504.2,469.3a88,88,0,0,1-62.05,25.58q-53.34.06-106.69.41-38.13.19-76.29.35-33.81.11-67.61-.21T124,494.67c-27.88-.36-53.24-13.08-71.77-32.52-19-20-30.86-47-30.86-75.12A108.23,108.23,0,0,1,129.21,279.17h.14q5.24,0,10.52.52m9.9,3.94q-5.06-1-10.14-1.5t-10.28-.51h-.14A105.77,105.77,0,0,0,23.79,387c0,27.46,11.58,53.91,30.18,73.43,18.11,19,42.85,31.41,70,31.77q33.8.45,67.58.76t67.59.2q38.13-.1,76.28-.34,53.34-.28,106.7-.42a85.5,85.5,0,0,0,60.32-24.86,84,84,0,0,0,24.92-59.84h0a85.11,85.11,0,0,0-73.45-84L440.56,322a1.24,1.24,0,0,1-1.05-1l-2-13.36a139.86,139.86,0,0,0-266.3-35.06l-5.82,13.24a1.22,1.22,0,0,1-1.37.71Zm-20.42-20h-.14A123.8,123.8,0,0,0,5.78,387c0,32.35,13.55,63.3,35.39,86.1,21.29,22.22,50.44,36.68,82.59,37.11,97.06,1.28,123.81,1.11,179.84.75,31.29-.19,71.7-.45,138.57-.54h0a103.25,103.25,0,0,0,73-30.11,102,102,0,0,0,30.2-72.6h0a103.11,103.11,0,0,0-89-101.8,1.21,1.21,0,0,1-1.12-1,157.87,157.87,0,0,0-300.57-39.69,1.23,1.23,0,0,1-1.4.79q-5.9-1.19-11.93-1.78T129.35,263.61Zm-.14-2.45h.14q6.18,0,12.29.6,5.72.57,11.21,1.62a160.32,160.32,0,0,1,304.73,40.23,105.55,105.55,0,0,1,90.27,104.11h0a104.49,104.49,0,0,1-30.93,74.34,105.69,105.69,0,0,1-74.75,30.82h0c-66.86.09-107.27.35-138.56.55-56.05.35-82.81.52-179.88-.76-32.84-.43-62.61-15.19-84.33-37.86C17.14,451.58,3.33,420,3.33,387A126.23,126.23,0,0,1,129.21,261.16Z"/><path class="cls-51" d="M125.18,194.26c1.21-.54,2.81.41,3.59,2.14s.43,3.56-.77,4.1-2.82-.41-3.59-2.13-.43-3.57.77-4.11"/><path class="cls-51" d="M145.21,193.9c-1.2-.55-2.81.41-3.59,2.13s-.43,3.56.78,4.11,2.81-.42,3.59-2.14.43-3.56-.78-4.1"/><path class="cls-26" d="M118.11,305.27s-1,4.59-1.08,6a3.23,3.23,0,0,1,.53,2.23s-2.28,5.26-1.29,9.27c0,0,1.88,5.22,3.12,6.73,0,0,2.44,1.06,4.09-.18,4.4-3.28,3.2-10.37,2.84-14,0,0-.92-1.07-.68-1.54a8.86,8.86,0,0,1,1.06-1.31,10.29,10.29,0,0,0,.59-2.89c-.08-1,.14-3.48-1.22-4.65s-4.77-1.75-8,.32"/><path class="cls-18" d="M123.5,251.28,108.66,262.1c-2.61,1.9-.88,7.74-.6,10.55.8,8,8.91,33.17,8.91,33.17s8.24,1.27,12-.05c0,0-5.24-33-6.34-36.42,0,0,11.33-5.22,12.9-5.54l1.55-12.61Z"/><path class="cls-52" d="M126.09,306.29a11.33,11.33,0,0,0,2.85-.52s-5.24-33-6.34-36.42c0,0,11.33-5.22,12.9-5.54l.88-7.18c-7.36,4.46-18.46,11.29-18.46,11.29Z"/><path class="cls-26" d="M151,308.86s-1.81,3-1.11,4.65a7.66,7.66,0,0,0,3,2.86s1.42-1.48,5,7.07c0,0-.08,3.89,7,4.79,0,0,3.42,1.36,5.86-1,0,0,1-1.42-.31-3.67,0,0-4.36-3.84-5.1-9.39a14.49,14.49,0,0,0-3.81-6.07s-2.29-2.3-3.28-1.6c-.73.51-4.2-.58-6-.24-.62.12-1.26,2.64-1.26,2.64"/><path class="cls-18" d="M135.5,263.81l16.62,6s-2.86,10.85-1.65,36.2c.29,1,7.05,4.47,12.82,3.14,0,0,1.63-27.89,3.11-37.89.46-3.06,2.18-5.92-.52-8.52-1.82-1.75-13.79-9.46-13.79-9.46l-15-2.07-2.19,8Z"/><path class="cls-52" d="M135.5,263.81l16.62,6s-2.86,10.85-1.65,36.2c.12.41,1.33,1.23,3.12,2l2.3-41.41s-12.75-5.34-20.68-8.61l-.35,1.29Z"/><path class="cls-53" d="M118.46,211.13c-3.89,1.8-3.23,10.18,2.3,31.45,0,0,.17.5.46,1.31-.16.81-.33,1.58-.5,2.3-1,4.31.93,5.45,1.46,6.42s2.47,1.88,4.51,2.39a5.46,5.46,0,0,0,.59.59l3.53.15c1.6.2,2.76.26,2.76.26l1.71-.07,1.7.07s1.17-.06,2.76-.26l3.53-.15a4.73,4.73,0,0,0,.6-.59c2-.51,3.88-1.27,4.5-2.39s2.49-2.11,1.47-6.42c-.17-.72-.34-1.49-.51-2.3.3-.81.47-1.31.47-1.31,3.75-20.58,5.13-28.68.65-31.41l-9.85-4.44c-2.14-.82-4.47-1.3-5.32-1.06-.85-.24-3.18.24-5.32,1.06Z"/><path class="cls-52" d="M151.77,231.5c.74-4.46,4.16-20.42-2.25-20.75-1.76,3.69-3.65,12,2.25,20.75"/><path class="cls-52" d="M117.94,231c5.25-8.77,3-16.87,1.25-20.11-4-.32-5.84,10.82-1.25,20.11"/><path class="cls-54" d="M117.67,211.83c-6.39,1.5-14.64,22.82-12.85,28,0,0,8.11,12.57,13,17.17l7.62-1.63s-6.93-15.66-12.59-19.41c0,0,5-6.2,5.62-9.24,1.11-.88,1.66-14.09-.8-14.87"/><path class="cls-52" d="M143.35,208v.17a6.27,6.27,0,0,1-1.4,4.07,9.22,9.22,0,0,1-7.07,3.36c-4.13-.08-8.22-2.93-8.35-7.38V208l3.43-1.31c2.14-.82,4.47-1.3,5.32-1.06.85-.24,3.18.24,5.32,1.06Z"/><path class="cls-51" d="M128.86,203.57s1.34,2.71-.63,4.57c.19,7,13.45,7.07,13.42,0-2-1.86-.63-4.57-.63-4.57l-5.93-1.83v-.08l-.15,0-.14,0v.08Z"/><path class="cls-55" d="M125.4,195.08s.89,5.8,2.17,8.37c.71,1.72,5.59,5.3,7.4,5.17,2.44-.19,6.62-2.64,7.66-5.17,1.29-2.57,2.18-8.37,2.18-8.37,1.47-3.13,1.56-4.43.75-9.07,0-4.69-7.8-5.55-7.8-5.55a7.7,7.7,0,0,0-5.31,0s-7.67.86-7.7,5.55c-1.54,4.87-.82,5.94.65,9.07"/><path class="cls-52" d="M118.55,190.3s3.46-.39,5.22-2a5.21,5.21,0,0,1-3.72-1.58c6.22,1,7.58-13.19,21.27-7.52a3.58,3.58,0,0,0-.59-2.3,7.83,7.83,0,0,1,3.17,3.3l1.71-1.64.08,3s2.37,1.47,2.55,6.42c.16,4.26-2.75,6.28-3.51,10h-.67c.08-1.38.11-2.86.28-4.19,0,0-1.65-.89-1.31-3.8-1.65,1.07-20.17,6.37-24.48.24"/><path class="cls-54" d="M151.19,211.61c6.39,1.5,14.64,22.82,12.86,28,0,0-8.11,12.57-13,17.17l-7.62-1.63s6.93-15.66,12.59-19.41c0,0-4.71-6-5.33-9.05-1.11-.88-2-14.28.51-15.06"/><path class="cls-56" d="M113.15,231.18H158a2.1,2.1,0,0,1,2.16,2.22L157,257.52a2.26,2.26,0,0,1-2.16,2.11h-39.1a2.24,2.24,0,0,1-2.16-2.12L111,233.39a2.12,2.12,0,0,1,2.16-2.21"/><path class="cls-57" d="M113.15,231.57H158a1.71,1.71,0,0,1,1.77,1.78l-3.19,24.12a1.88,1.88,0,0,1-1.77,1.77h-39.1a1.85,1.85,0,0,1-1.77-1.77l-2.57-24.12a1.73,1.73,0,0,1,1.77-1.78"/><path class="cls-57" d="M201.76,390.67H250.9v27a1.56,1.56,0,0,1-1.56,1.56h-46a1.56,1.56,0,0,1-1.56-1.56Z"/><path class="cls-58" d="M201.76,390.67H250.9v-.73a.78.78,0,0,0-.78-.78h-28a1.62,1.62,0,0,1-1-.33l-4.45-3.21a1.59,1.59,0,0,0-1-.33H203.32a1.57,1.57,0,0,0-1.56,1.56Z"/><path class="cls-21" d="M200,390.67h49.14v27a1.56,1.56,0,0,1-1.56,1.56h-46a1.56,1.56,0,0,1-1.56-1.56Z"/><path class="cls-59" d="M200,390.67h49.14v-.73a.79.79,0,0,0-.78-.78h-28a1.59,1.59,0,0,1-1-.33L215,385.62a1.62,1.62,0,0,0-1-.33H201.6a1.56,1.56,0,0,0-1.56,1.56Z"/><path class="cls-60" d="M200,413.86v-18h11a3,3,0,0,1,3,2.94v12.11a3,3,0,0,1-3,2.94Z"/><path class="cls-61" d="M209.86,394.54h-12.1a3,3,0,0,0-2.95,2.95v12.1a3,3,0,0,0,2.95,2.94h12.1a3,3,0,0,0,2.95-2.94v-12.1a3,3,0,0,0-2.95-2.95"/><path class="cls-62" d="M211.73,409.5V397.58a2,2,0,0,0-2-2H197.85a2,2,0,0,0-2,2V409.5a2,2,0,0,0,2,2h11.92a2,2,0,0,0,2-2"/><path class="cls-63" d="M207.82,403.13l-6.45-3.72a.44.44,0,0,0-.47,0,.47.47,0,0,0-.24.41v7.44a.47.47,0,0,0,.24.41.44.44,0,0,0,.47,0l6.45-3.72a.47.47,0,0,0,.23-.41.44.44,0,0,0-.23-.41"/><path class="cls-26" d="M167.61,499.53s-2.53,5.43-2,6.86a37.74,37.74,0,0,1,0,5.54c0,.65.57.38.68.5.31.34,1-3.65,1-3.65s2.14-2.13,5,5.39c2.5,1.68,9.15,1.52,11.43.67.47-.69.53-3.14-1.07-3.22s-4.83-.62-5.27-4.43a13.09,13.09,0,0,0-3-5.37s-1.82-1.54-2.62-1-4.2-1.33-4.2-1.33"/><path class="cls-18" d="M200.09,427.88l-5.4,39.53c-3.19,7.79-14.29,20.93-20.49,34.12-3.34.2-6.87-.66-8.19-1.68,8.33-11.59,10.63-28.75,18.25-34,2.7-10.06-8.72-35.24-1.21-41.5Z"/><path class="cls-52" d="M200.09,427.88l-5.4,39.53c-3.19,7.79-14.29,20.93-20.49,34.12a18.38,18.38,0,0,1-4.23-.26c3.85-9.24,20.79-35,20.79-35,2.17-4.21.67-27-.43-40.42Z"/><path class="cls-26" d="M205.33,503.29s1.1,6.9,2.38,7.73c.51.32,1.58,3.21,2.45,4.47.37.53.79.12,1,.16.44.09-.59-3.72-.59-3.72s.29-2.68,6.93,2.72c3.12,1.35,10,.39,10.84-3.28,0,0,0-1.46-2.06-2.45a12.07,12.07,0,0,1-9.15-4.2,8.63,8.63,0,0,0-5-2.57s-2-.64-2.33.29-4.48.85-4.48.85"/><path class="cls-18" d="M213.41,502.56s-10,2.41-9.48.65c2.79-10-7-25.26-3.49-37.4,1.11-3.86-5.63-15.32-10.69-23.06-3.1-4.76-6.34-9.95-2.64-18.11L204,428.88c4,7.24,6.75,26,6.36,36.65-.2,5.19.83,24.36,3.08,37"/><path class="cls-52" d="M213.41,502.56s-1.54.37-3.37.71c-6.29-35.46-3-42.84-3-42.84-1.08-14.76-7.35-27-11.48-33.65l8.37,2.1c4,7.24,6.75,26,6.36,36.65-.2,5.19.83,24.36,3.08,37"/><path class="cls-64" d="M185.46,376.4c-1.18-.5-1.84-.06-4.44,3.3-2.4,3.07-6.52,8.59-2.58,22.74,6.69,24-.27,15-.12,25.52a6.61,6.61,0,0,0,2.52,4.52s18.32,3.25,23.53-3.41c.77-1.79-.78-6.26-2.19-8.39-3.69-5.55-2.73-9.68-2.13-17.26.14-1.76,6.55-6.16,3.4-11.36-2.11-3.49-5.22-6.1-8.08-9.48a7.92,7.92,0,0,0-1.47-1.19c-2.24-1.08-5.75-3.95-8.44-5"/><path class="cls-65" d="M199.83,406.06a22,22,0,0,0-.89-3.42c-.57-1.66-4.25-2.29-5-3.88-.35-.7-.71-1.42-1.09-2.1-1-3.39-2.47-7.54-4.72-10.26-1.3-1.57-3.16-2.95-5.26-2.48-2.8.63-3,3.74-3.39,6.33-.32,13,33.17,25.71,3.07,35.25a35.36,35.36,0,0,0,11.71-1.31c-5.17,3.63-9.62,5.39-15.57,5.45a8.68,8.68,0,0,0,2.16,2.84c4.68,1.43,21,1.63,23.53-3.41.63-2.38-.68-5.8-1.94-8-3.43-5-3.17-8.77-2.6-15"/><path class="cls-55" d="M213.49,417.75c-7.05-3.9-14.68-6.29-20.68-8.37a43.59,43.59,0,0,0-1.08-8.9l-8.92,1c.12,3.48,1.54,7.59,1.75,11.47,7,6.65,23.8,4.93,28.48,9,4.3,1.89,5.64,2.21,8.76.66,3.54-1.75,3.07-3.35,2.59-4-.72-.78-.6.47-4.84.22,0,0-1.19-.36-1.12-.95s2-1.51,2-1.82c.05-1.61-5.76,1.66-5.77,1.64-.25,0-.37.29-1.18,0"/><path class="cls-66" d="M192.3,397.59l.24,7.53a24.1,24.1,0,0,1-9.33.83l-1.58-8.88c-2.34-15.22,12.85-22.84,10.67.52"/><path class="cls-51" d="M194.77,376.18s-3.21,5,.39,7.79c.31,3.53-10-3-11.72-5.47,2.05-.4,2.95-5.32,2.54-7l1.39-.07Z"/><path class="cls-52" d="M186.13,366.58s8.94-7.17,4.08-10.43c2-11.48-29.86-8.91-21.05,17.51,1,2.95,2.64,13.75-4.36,12.83,3.32,7.9,23.9,3.73,21.33-19.91"/><path class="cls-67" d="M185,354.29a4.24,4.24,0,1,1-1.47,6,4.41,4.41,0,0,1,1.47-6"/><path class="cls-37" d="M186,354.86c2.52-1.67,5.67-1.36,7,.7s.42,5.08-2.1,6.74-5.67,1.36-7-.7-.42-5.07,2.1-6.74"/><path class="cls-55" d="M200.27,368.18c-.17,1.5,1.3,4.4,1.25,4.9s-2.12.15-2.26.5a35,35,0,0,0-1.74,5.25c-.57,2-10.45-3-11.6-7.38-.07-.24-.3.35-.68,0-2.36-2.3-4.48-7.75-.86-7.18,0,0,1.75-8.22,7.69-7.71,0,0,6.92-.54,7.74,2.91,2,3.33,1,6.17.46,8.73"/><path class="cls-18" d="M201.85,368c-4-.1-8.41-2.77-9.61-6.35-.2,2.55-3.17,5.13-6.08,5.15l.44,5.46L184.53,366c-6.53-16.3,19.61-16.27,18.11-2Z"/><path class="cls-60" d="M243.29,485.3H294v27.91a1.61,1.61,0,0,1-1.61,1.6h-47.5a1.6,1.6,0,0,1-1.6-1.6Z"/><path class="cls-58" d="M243.29,485.3H294v-.75a.8.8,0,0,0-.8-.81H264.35a1.63,1.63,0,0,1-1-.34l-4.59-3.32a1.72,1.72,0,0,0-1-.34H244.89a1.61,1.61,0,0,0-1.6,1.61Z"/><path class="cls-21" d="M241.5,485.3h50.72v27.91a1.61,1.61,0,0,1-1.61,1.6h-47.5a1.61,1.61,0,0,1-1.61-1.6Z"/><path class="cls-59" d="M241.5,485.3h50.72v-.75a.8.8,0,0,0-.8-.81H262.57a1.63,1.63,0,0,1-1-.34l-4.6-3.32a1.67,1.67,0,0,0-1-.34H243.11a1.62,1.62,0,0,0-1.61,1.61Z"/><path class="cls-57" d="M241.5,509.23V490.66h11.39a3.05,3.05,0,0,1,3,3v12.49a3,3,0,0,1-3,3Z"/><path class="cls-68" d="M251.64,489.29H239.15a3.05,3.05,0,0,0-3,3v12.5a3,3,0,0,0,3,3h12.49a3,3,0,0,0,3-3v-12.5a3,3,0,0,0-3-3"/><path class="cls-62" d="M253.58,504.73v-12.3a2,2,0,0,0-2-2h-12.3a2,2,0,0,0-2,2v12.3a2,2,0,0,0,2,2h12.3a2,2,0,0,0,2-2"/><path class="cls-69" d="M242.57,496.19l-3.91,7.21a1,1,0,0,0,.89,1.5h11.7a1,1,0,0,0,.87-.49,1,1,0,0,0,0-1L250,499.47a1,1,0,0,0-.89-.53,1,1,0,0,0-.89.53l-.69,1.27a.37.37,0,0,1-.35.21.38.38,0,0,1-.36-.21l-2.47-4.55a1,1,0,0,0-1.78,0"/><path class="cls-70" d="M249.9,492.28a1.75,1.75,0,1,0,1.75,1.75,1.75,1.75,0,0,0-1.75-1.75"/><path class="cls-60" d="M363.91,383.44h46.77v25.73a1.49,1.49,0,0,1-1.49,1.49H365.4a1.49,1.49,0,0,1-1.49-1.49Z"/><path class="cls-58" d="M363.91,383.44h46.77v-.69a.76.76,0,0,0-.75-.75H383.34a1.52,1.52,0,0,1-.92-.31l-4.23-3.06a1.52,1.52,0,0,0-.92-.31H365.4a1.49,1.49,0,0,0-1.49,1.48Z"/><path class="cls-21" d="M362.27,383.44H409v25.73a1.49,1.49,0,0,1-1.48,1.49h-43.8a1.49,1.49,0,0,1-1.48-1.49Z"/><path class="cls-59" d="M362.27,383.44H409v-.69a.75.75,0,0,0-.74-.75h-26.6a1.52,1.52,0,0,1-.91-.31l-4.24-3.06a1.52,1.52,0,0,0-.91-.31H363.75a1.48,1.48,0,0,0-1.48,1.48Z"/><path class="cls-60" d="M362.27,405.51V388.39h10.5a2.81,2.81,0,0,1,2.8,2.8v11.52a2.81,2.81,0,0,1-2.8,2.8Z"/><path class="cls-71" d="M371.62,387.12H360.1a2.81,2.81,0,0,0-2.8,2.81v11.51a2.81,2.81,0,0,0,2.8,2.81h11.52a2.81,2.81,0,0,0,2.8-2.81V389.93a2.81,2.81,0,0,0-2.8-2.81"/><path class="cls-62" d="M373.4,401.36V390a1.88,1.88,0,0,0-1.87-1.87H360.19a1.88,1.88,0,0,0-1.87,1.87v11.35a1.87,1.87,0,0,0,1.87,1.87h11.34a1.87,1.87,0,0,0,1.87-1.87"/><polygon class="cls-18" points="391.86 501.17 392.41 508.26 400.5 508.36 401.03 500.55 391.86 501.17"/><polygon class="cls-18" points="427.71 499.72 429.04 505.87 436.77 505.44 436.27 498 427.71 499.72"/><path class="cls-52" d="M427,501.92s12.26.18,11.51-1.64c-4.61-11.18-3.08-22.22-13.05-33.53-.67-7.2-1.3-15,2.31-24.34,1.5-3.88,4.44-11.74.41-20.46l-17,4.21a137.16,137.16,0,0,0,1.4,40.79c1.76,9.61,13.48,22.71,14.37,35"/><path class="cls-18" d="M427,501.92s4,.06,7.27-.23c-3.82-10.85-4.06-24.31-13.42-34.94-.67-7.2-1.3-15,2.3-24.34,1.33-3.42,3.76-11.71,1.57-19.6l-13.49,3.35a137.16,137.16,0,0,0,1.4,40.79c1.76,9.61,13.48,22.71,14.37,35"/><path class="cls-52" d="M390.47,503.68a22.26,22.26,0,0,0,11.82,0c-1-15.1,5.53-25.64,2.51-37.4,4.33-10.7,11.73-17,18.19-27.1,4.36-6.82,4.24-13.48,2.27-18.14-6.73.82-13.86,1.06-20.59,1.88-2.86,15-10.05,28.54-12.4,40.61-.78,12.28-.63,29.68-1.8,40.15"/><path class="cls-18" d="M390.47,503.68a26.78,26.78,0,0,0,6,.8c-.84-14.93,5.53-26.53,2.53-38.2,4.33-10.7,11.73-17,18.2-27.1a22.28,22.28,0,0,0,2.85-17.61c-5.14.45-10.38.74-15.41,1.35-2.86,15-10.05,28.54-12.4,40.61-.78,12.28-.63,29.68-1.8,40.15"/><path class="cls-72" d="M426.05,367.73c1.23-.41,2.33-.08,4.71,3.54s7.23,13.06-.1,30.06c-2.37,7.42.94,14.39.42,20.05-.18,1.89-1.58,3.33-2.93,4.4,0,0-15,7.28-24.34-1.45-.64-1.88.14-5.06,1.75-7.12,4.18-5.35,2.39-16.65,2-24.4-.18-3.78,1.24-13.37,7.27-20a8.14,8.14,0,0,1,1.59-1.09c2.37-.92,6.76-3.19,9.59-4"/><path class="cls-73" d="M424,375.22c2.94.91,3.34,4.74,3.57,7.55,1.27,15.38-29.82,31.66-1.85,36.72a38,38,0,0,1-12.44-2.38c5.3,4.37,10,6.63,16.46,7.15l-1.61,1.52h0l0,0c-.89.42-15.21,7-24.3-1.47-.64-1.88.14-5.06,1.75-7.12a14.54,14.54,0,0,0,2.51-7.39,3.41,3.41,0,0,0,.2-.59c16-2.51,6.92-36.73,15.75-34"/><path class="cls-51" d="M393.41,407.29c7.89-3.43,16.26-5.19,22.86-6.79a45.68,45.68,0,0,1,2.06-9.36l9.38,2c-.49,3.69-2.41,7.92-3,12-8.14,6.36-25.83,2.81-31.22,6.65-4.78,1.57-7.19,1.77-10.35-.19-3.59-2.23-2.92-3.88-2.34-4.52.85-.77,1.54.55,6.08.72,0,0,1.3-.26,1.28-.9s-2-1.8-1.95-2.14c.12-1.71,6,2.36,6,2.34.28,0,.37.35,1.26.17"/><path class="cls-74" d="M418,388l-1,8a25.89,25.89,0,0,0,9.84,1.84l2.59-9.29c4.05-15.95-11.33-25.62-11.41-.54"/><path class="cls-51" d="M413.13,366s4.31,5.9,1.47,8.26c-.21,3.77,10.52-3.53,12.28-6.22,0,0-1-.15-1.15-.81a14.26,14.26,0,0,1-.67-7.13l-2.61.52Z"/><path class="cls-51" d="M408.62,357.69c.24,1.59-1.23,4.72-1.15,5.25s2.26.09,2.42.45a38.6,38.6,0,0,1,2,5.53c.61,1.94,8.87-2.25,10.08-3.7a6.38,6.38,0,0,0,2-4.43c0-.26.35.15.74-.16,4.4-3.5,3.1-7.39,2-9.29,0,0-3.46-7-9.76-6.31,0,0-7.37-.34-8.12,3.36-2,3.61-.87,6.6-.2,9.3"/><path class="cls-52" d="M401.25,350.89c6.46.43,11.87-20.8,27.26-6.9,5.32.38,3.83,11.77-.53,15.87a29.92,29.92,0,0,1-2.91,6.09c-.07-1.64-.56-3.2-.85-5.22,2.91-2,4.06-8.45.12-6.6a17.89,17.89,0,0,0-1.23,5.22s-2.38-5.35-2-7.26c0,0-17.74,4.54-19.83-1.2"/><path class="cls-26" d="M396.77,517.15c-3.72,0-6.09-.43-10.08,0-10.95,1-12.75-.07-12.35-3.19,0-.91,12.27-5,16.66-9.41.56-.55,2.6.15,3,.89a2.94,2.94,0,0,1,.16,2c1.79.67,4.5-.11,6.14-.48.81-.19,1,1.3,1,3.07.11,5,.54,7.09-4.54,7.14"/><path class="cls-26" d="M434.49,513.87c-3.67.62-6.08.53-10,1.53-10.65,2.75-12.6,1.93-12.69-1.22-.14-.9,11.34-6.82,15-11.89.46-.64,2.59-.27,3.11.41a3,3,0,0,1,.47,2c1.87.37,4.43-.81,6-1.44.77-.31,1.15,1.14,1.46,2.88.9,4.95,1.64,6.91-3.36,7.76"/><path class="cls-75" d="M43.84,54.67h0a30.65,30.65,0,0,1,6,.59,39.57,39.57,0,0,1,75.34,9.93,26,26,0,0,1,22.42,25.62h0a25.91,25.91,0,0,1-26,25.85c-46.42.07-41.58.45-79.2,0-16.36-.21-29.64-14.9-29.64-30.94a31.09,31.09,0,0,1,31-31"/><path class="cls-76" d="M368.21,394a1.1,1.1,0,0,1,1,1.09V399a1.09,1.09,0,0,1-1.09,1.09h-4.85a1.09,1.09,0,0,1-1.09-1.09V395.1a1.1,1.1,0,0,1,.91-1.08v-.94a2.58,2.58,0,0,1,5.15,0h0V394Zm-2.55,1.17a1.09,1.09,0,0,1,.51,2.06v1.81h-1v-1.81a1.09,1.09,0,0,1,.51-2.06ZM364,394h3.27v-.89h0a1.64,1.64,0,0,0-3.27,0V394Z"/></g></svg>