<svg xmlns="http://www.w3.org/2000/svg" xmlns:xlink="http://www.w3.org/1999/xlink" width="34" height="34" viewBox="0 0 34 34">
  <defs>
    <clipPath id="clip-path">
      <rect id="Rectangle_1572" data-name="Rectangle 1572" width="34" height="34" transform="translate(474.333 229.332)" fill="#fff" stroke="#707070" stroke-width="1"/>
    </clipPath>
  </defs>
  <g id="db_mapped" transform="translate(-474.333 -229.332)" clip-path="url(#clip-path)">
    <g id="noun_database_setting_2939543" data-name="noun_database setting_2939543" transform="translate(475.833 230.833)">
      <path id="Path_13783" data-name="Path 13783" d="M29.424,18.83v-8.7C29.418,7.205,24.17,5,17.21,5S5,7.205,5,10.13V26.147c0,2.924,5.249,5.13,12.21,5.13.708,0,1.4-.024,2.07-.072l-.085-1.2c-.638.045-1.306.068-1.983.068-6.49,0-11.01-2.071-11.01-3.93V23.1c1.934,1.712,6.034,2.84,11.01,2.84.673,0,1.323-.021,1.933-.065l-.085-1.2c-.582.041-1.2.061-1.848.061-6.49,0-11.01-2.073-11.01-3.934V17.761c1.934,1.711,6.034,2.839,11.01,2.839s9.076-1.128,11.01-2.839V18.83ZM17.21,6.2c6.49,0,11.01,2.072,11.01,3.93s-4.521,3.93-11.01,3.93S6.2,11.99,6.2,10.13,10.721,6.2,17.21,6.2Zm11.01,9.269c0,1.86-4.521,3.93-11.01,3.93S6.2,17.328,6.2,15.469V12.423c1.934,1.711,6.034,2.839,11.01,2.839s9.076-1.128,11.01-2.839Zm-.5,9.055a3.2,3.2,0,1,0,3.2,3.2A3.2,3.2,0,0,0,27.722,24.524Zm0,5.192a1.994,1.994,0,1,1,1.416-.584A1.994,1.994,0,0,1,27.722,29.716Zm7.15-3.359a.6.6,0,0,0-.5-.481l-1.6-.251.953-1.307a.6.6,0,0,0,.012-.691A7.247,7.247,0,0,0,31.814,21.7a.6.6,0,0,0-.69.012l-1.307.953-.251-1.6a.6.6,0,0,0-.481-.5,7.341,7.341,0,0,0-2.724,0,.6.6,0,0,0-.481.5l-.25,1.6-1.307-.953a.6.6,0,0,0-.69-.012A7.247,7.247,0,0,0,21.7,23.625a.6.6,0,0,0,.012.691l.953,1.307-1.6.251a.6.6,0,0,0-.5.481,7.315,7.315,0,0,0,0,2.724.6.6,0,0,0,.5.481l1.6.251-.953,1.307a.6.6,0,0,0-.012.691,7.245,7.245,0,0,0,1.928,1.928.6.6,0,0,0,.69-.012l1.307-.953.25,1.6a.6.6,0,0,0,.481.5,7.315,7.315,0,0,0,2.724,0,.6.6,0,0,0,.481-.5l.251-1.6,1.307.953a.6.6,0,0,0,.69.012,7.245,7.245,0,0,0,1.928-1.928.6.6,0,0,0-.012-.691l-.953-1.307,1.6-.251a.6.6,0,0,0,.5-.481,7.33,7.33,0,0,0,0-2.723Zm-1.115,2.087-1.359.214a1.081,1.081,0,0,0-.708,1.7l.811,1.11A6.034,6.034,0,0,1,31.474,32.5l-1.11-.811a1.081,1.081,0,0,0-1.7.708l-.214,1.359a6.113,6.113,0,0,1-1.451,0L26.781,32.4a1.081,1.081,0,0,0-1.7-.708l-1.11.811a6.035,6.035,0,0,1-1.027-1.027l.811-1.11a1.081,1.081,0,0,0-.708-1.7l-1.359-.214a6.1,6.1,0,0,1,0-1.451l1.359-.214a1.081,1.081,0,0,0,.708-1.7l-.811-1.11a6.035,6.035,0,0,1,1.027-1.027l1.11.811a1.081,1.081,0,0,0,1.7-.708l.212-1.359a6.114,6.114,0,0,1,1.451,0l.214,1.359a1.081,1.081,0,0,0,1.7.708l1.11-.811A6.034,6.034,0,0,1,32.5,23.964l-.811,1.11a1.081,1.081,0,0,0,.708,1.7l1.359.214A6.1,6.1,0,0,1,33.757,28.444Z" transform="translate(-5 -5)" fill="#fff"/>
    </g>
  </g>
</svg>
