<svg xmlns="http://www.w3.org/2000/svg" xmlns:xlink="http://www.w3.org/1999/xlink" width="18" height="18" viewBox="0 0 18 18">
  <defs>
    <clipPath id="clip-path">
      <rect id="Rectangle_1674" data-name="Rectangle 1674" width="18" height="18" transform="translate(1449 229)" fill="red"/>
    </clipPath>
  </defs>
  <g id="instance_name" transform="translate(-1449 -229)" clip-path="url(#clip-path)">
    <g id="Group_6908" data-name="Group 6908" transform="translate(1450 231)">
      <line id="Line_736" data-name="Line 736" x2="16" transform="translate(0 12.692)" fill="none" stroke="#b73f83" stroke-linecap="round" stroke-linejoin="round" stroke-width="1"/>
      <line id="Line_737" data-name="Line 737" y1="3.009" transform="translate(7.85 8.66)" fill="none" stroke="#b73f83" stroke-linecap="round" stroke-linejoin="round" stroke-width="1"/>
      <path id="Path_13916" data-name="Path 13916" d="M450.719,282.057l5.963.168h5.747v8.229H450.9S450.719,282.093,450.719,282.057Z" transform="translate(-448.689 -282.057)" fill="none" stroke="#b73f83" stroke-linecap="round" stroke-linejoin="round" stroke-width="1"/>
      <rect id="Rectangle_1673" data-name="Rectangle 1673" width="4.562" height="2.05" transform="translate(5.653 11.667)" fill="#b73f83" stroke="#b73f83" stroke-linecap="round" stroke-linejoin="round" stroke-width="1"/>
      <g id="Group_9171" data-name="Group 9171" transform="translate(5.135 1.581)">
        <path id="Path_18536" data-name="Path 18536" d="M454.426,283.946h.875v5.231h-.875Z" transform="translate(-454.426 -283.945)" fill="#b73f83"/>
        <path id="Path_18537" data-name="Path 18537" d="M458.612,283.946a1.66,1.66,0,0,1,1.2.457,1.627,1.627,0,0,1,0,2.3,1.664,1.664,0,0,1-1.2.456h-1.127v2.017h-.875v-5.231Zm0,2.379a.773.773,0,0,0,.565-.223.747.747,0,0,0,.227-.554.728.728,0,0,0-.227-.544.78.78,0,0,0-.565-.219h-1.127v1.539Z" transform="translate(-454.781 -283.945)" fill="#b73f83"/>
      </g>
    </g>
  </g>
</svg>
