<svg xmlns="http://www.w3.org/2000/svg" xmlns:xlink="http://www.w3.org/1999/xlink" width="35" height="35" viewBox="0 0 35 35">
  <defs>
    <clipPath id="clip-path">
      <rect id="Rectangle_1619" data-name="Rectangle 1619" width="35" height="35" transform="translate(1490.5 236.496)" fill="none" stroke="#707070" stroke-width="1"/>
    </clipPath>
  </defs>
  <g id="server_mapped" transform="translate(-1490.5 -236.496)" clip-path="url(#clip-path)">
    <g id="noun_Server_1687642" transform="translate(1483.518 229.302)">
      <g id="Layer_2" data-name="Layer 2" transform="translate(9.482 9.696)">
        <g id="Group_12383" data-name="Group 12383" transform="translate(0 0)">
          <g id="Layer_13" data-name="Layer 13">
            <g id="Path_19966" data-name="Path 19966" transform="translate(5.781 3.222)">
              <path id="Path_20086" data-name="Path 20086" d="M12.608,6.2a1.508,1.508,0,1,0,1.505,1.508A1.508,1.508,0,0,0,12.608,6.2Zm0,1.975a.468.468,0,1,1,.468-.468A.468.468,0,0,1,12.608,8.175Z" transform="translate(-11.098 -6.2)" fill="none"/>
              <path id="Path_20087" data-name="Path 20087" d="M12.608,6.2A1.508,1.508,0,1,1,11.1,7.708,1.508,1.508,0,0,1,12.608,6.2Zm0,1.975a.468.468,0,1,0-.468-.468.468.468,0,0,0,.468.468Z" transform="translate(-11.098 -6.2)" fill="#fff"/>
            </g>
            <g id="Path_19967" data-name="Path 19967" transform="translate(14.15 4.209)">
              <path id="Path_20088" data-name="Path 20088" d="M36.5,8.1H27.719a.519.519,0,1,0,0,1.039H36.5a.519.519,0,0,0,0-1.039Z" transform="translate(-27.2 -8.1)" fill="none"/>
              <path id="Path_20089" data-name="Path 20089" d="M27.719,8.1H36.5a.519.519,0,0,1,0,1.039H27.719a.519.519,0,1,1,0-1.039Z" transform="translate(-27.2 -8.1)" fill="#fff"/>
            </g>
            <g id="Path_19968" data-name="Path 19968" transform="translate(5.781 11.794)">
              <path id="Path_20090" data-name="Path 20090" d="M11.1,24.208A1.508,1.508,0,1,0,12.608,22.7,1.508,1.508,0,0,0,11.1,24.208Zm1.975,0a.468.468,0,1,1-.468-.468A.468.468,0,0,1,13.075,24.208Z" transform="translate(-11.098 -22.698)" fill="none"/>
              <path id="Path_20091" data-name="Path 20091" d="M12.608,25.713a1.508,1.508,0,1,1,1.505-1.505A1.508,1.508,0,0,1,12.608,25.713Zm0-1.975a.468.468,0,1,0,.468.468.468.468,0,0,0-.468-.468Z" transform="translate(-11.098 -22.698)" fill="#fff"/>
            </g>
            <g id="Path_19969" data-name="Path 19969">
              <path id="Path_20092" data-name="Path 20092" d="M17.4,25.568H4.775a3.742,3.742,0,0,1,0-7.483H16.149a.519.519,0,0,0,0-1.039H4.775a3.742,3.742,0,0,1,0-7.483h19.8A3.674,3.674,0,0,1,27.948,11.7a.521.521,0,0,0,.946-.436,4.724,4.724,0,0,0-2.169-2.234A4.765,4.765,0,0,0,24.574,0H4.775A4.776,4.776,0,0,0,2.618,9.038a4.771,4.771,0,0,0,0,8.522A4.776,4.776,0,0,0,4.775,26.6H17.4a.519.519,0,1,0,0-1.039ZM1.033,4.781A3.747,3.747,0,0,1,4.769,1.045h19.8a3.742,3.742,0,1,1-.052,7.483H4.775A3.747,3.747,0,0,1,1.039,4.793Z" transform="translate(0.021 0)" fill="none"/>
              <path id="Path_20093" data-name="Path 20093" d="M4.766,26.607A4.776,4.776,0,0,1,2.62,17.569a4.771,4.771,0,0,1,0-8.522A4.776,4.776,0,0,1,4.777,0h19.8a4.765,4.765,0,0,1,2.146,9.032,4.724,4.724,0,0,1,2.169,2.234.521.521,0,1,1-.946.436,3.674,3.674,0,0,0-3.374-2.141H4.777a3.742,3.742,0,1,0,0,7.483H16.152a.519.519,0,0,1,0,1.039H4.777a3.742,3.742,0,1,0,0,7.483H17.405a.52.52,0,1,1,0,1.04ZM24.529,8.522a3.742,3.742,0,0,0,.052-7.483H4.777a3.742,3.742,0,1,0,0,7.483Z" transform="translate(0.019 0)" fill="#fff"/>
            </g>
            <g id="Path_19970" data-name="Path 19970" transform="translate(5.781 20.316)">
              <path id="Path_20094" data-name="Path 20094" d="M11.1,40.608A1.508,1.508,0,1,0,12.608,39.1,1.508,1.508,0,0,0,11.1,40.608Zm1.975,0a.468.468,0,1,1-.468-.468A.468.468,0,0,1,13.075,40.608Z" transform="translate(-11.098 -39.098)" fill="none"/>
              <path id="Path_20095" data-name="Path 20095" d="M12.608,42.113a1.508,1.508,0,1,1,1.505-1.505A1.508,1.508,0,0,1,12.608,42.113Zm0-1.975a.468.468,0,1,0,.468.468.468.468,0,0,0-.468-.468Z" transform="translate(-11.098 -39.098)" fill="#fff"/>
            </g>
            <g id="Path_19971" data-name="Path 19971" transform="translate(18.577 12.992)">
              <path id="Path_20096" data-name="Path 20096" d="M41.325,39.264l-.95-.518h-.014a7.57,7.57,0,0,1-4.141-6.693V26.808l2.6-.354a7.023,7.023,0,0,0,2.517-.866,7.019,7.019,0,0,0,2.514.866l2.591.354v5.243A7.568,7.568,0,0,1,42.3,38.738h-.012Zm-2.892-8.629a1.382,1.382,0,0,0-1.058,2.272l.024.029.028.025,2.131,1.975a1.365,1.365,0,0,0,.924.369h.007a1.393,1.393,0,0,0,1-.431l3.794-4,.975-1.028h-.613a1.379,1.379,0,0,0-2.38-.872l-2.851,3.007-1.122-1.044-.033-.029-.036-.025a1.375,1.375,0,0,0-.784-.245Z" transform="translate(-35.617 -24.88)" fill="#fff"/>
              <path id="Path_20097" data-name="Path 20097" d="M41.437,26.393A7.64,7.64,0,0,1,39,27.17l-2.076.284v3.531a1.983,1.983,0,0,1,2.748-.482l.072.049.75.7,2.432-2.572a1.985,1.985,0,0,1,2.805-.08,2.015,2.015,0,0,1,.2.222V27.455l-2.067-.286a7.626,7.626,0,0,1-2.431-.777m4.5,4.9-3.9,4.116a2,2,0,0,1-1.436.619h-.013a1.968,1.968,0,0,1-1.332-.531l-2.2-2.038a6.965,6.965,0,0,0,3.68,4.865l.03.016.662.362.7-.377a6.969,6.969,0,0,0,3.813-6.157V31.29M41.437,25a6.364,6.364,0,0,0,2.6.977l3.108.427v5.769a8.2,8.2,0,0,1-4.47,7.223l-1.247.676L40.19,39.4a8.2,8.2,0,0,1-4.47-7.223V26.4l3.117-.427A6.364,6.364,0,0,0,41.437,25Zm3.5,5.576A.78.78,0,1,0,43.807,29.5l-3.263,3.441L38.984,31.5a.78.78,0,0,0-1.039,1.144l2.131,1.975a.769.769,0,0,0,.519.207.785.785,0,0,0,.566-.241l3.794-4Z" transform="translate(-35.72 -25)" fill="#fff"/>
            </g>
          </g>
        </g>
      </g>
    </g>
  </g>
</svg>
