<svg xmlns="http://www.w3.org/2000/svg" xmlns:xlink="http://www.w3.org/1999/xlink" width="35" height="35" viewBox="0 0 35 35">
  <defs>
    <clipPath id="clip-path">
      <rect id="Rectangle_1618" data-name="Rectangle 1618" width="35" height="35" transform="translate(596.5 233.5)" fill="none" stroke="#707070" stroke-width="1"/>
    </clipPath>
  </defs>
  <g id="user_license" transform="translate(-596.5 -233.5)" clip-path="url(#clip-path)">
    <g id="Group_12384" data-name="Group 12384" transform="translate(518.64 8.274)">
      <path id="Path_19972" data-name="Path 19972" d="M99.847,256.562H81.36V227.726H98.544l7.393,7.393V245.5" transform="translate(0 0)" fill="none" stroke="#fff" stroke-linecap="round" stroke-linejoin="round" stroke-width="2"/>
      <path id="Path_19973" data-name="Path 19973" d="M90.248,227.726v5.08a2.39,2.39,0,0,0,2.391,2.389h5.825" transform="translate(7.472 0)" fill="none" stroke="#fff" stroke-linecap="round" stroke-miterlimit="10" stroke-width="2"/>
      <line id="Line_808" data-name="Line 808" x2="9.45" transform="translate(85.346 246.303)" fill="none" stroke="#fff" stroke-linecap="round" stroke-miterlimit="10" stroke-width="2"/>
      <line id="Line_809" data-name="Line 809" x2="9.45" transform="translate(85.346 241.423)" fill="none" stroke="#fff" stroke-linecap="round" stroke-miterlimit="10" stroke-width="2"/>
      <line id="Line_810" data-name="Line 810" x2="9.45" transform="translate(85.346 236.541)" fill="none" stroke="#fff" stroke-linecap="round" stroke-miterlimit="10" stroke-width="2"/>
      <circle id="Ellipse_1571" data-name="Ellipse 1571" cx="6.807" cy="6.807" r="6.807" transform="translate(95.719 244.111)" fill="#f8b425" stroke="#fff" stroke-linecap="round" stroke-linejoin="round" stroke-width="1.2"/>
      <g id="Path_13704" data-name="Path 13704" transform="translate(97.944 246.303)">
        <path id="Path_20084" data-name="Path 20084" d="M15.147,9.743a.457.457,0,0,0-.371-.311l-2.6-.38L10.987,6.694a.457.457,0,0,0-.823,0L9,9.053l-2.6.384a.448.448,0,0,0-.257.768l1.889,1.829-.462,2.6a.457.457,0,0,0,.672.49L10.581,13.9l2.331,1.225a.426.426,0,0,0,.211.055.459.459,0,0,0,.448-.544l-.457-2.6L15,10.2A.457.457,0,0,0,15.147,9.743Z" transform="translate(-6.003 -6.435)" fill="none"/>
        <path id="Path_20085" data-name="Path 20085" d="M10.581,8.378l-.839,1.7L7.9,10.348l1.338,1.295-.329,1.863,1.67-.872,1.657.87-.327-1.858,1.344-1.305-1.817-.265-.858-1.7m-.006-1.942a.457.457,0,0,1,.411.258l1.189,2.359,2.6.38A.438.438,0,0,1,15,10.21l-1.888,1.828.457,2.6a.459.459,0,0,1-.448.544.426.426,0,0,1-.211-.055L10.576,13.9,8.24,15.12a.457.457,0,0,1-.663-.49l.457-2.6L6.141,10.2A.448.448,0,0,1,6.4,9.436L9,9.052l1.166-2.358A.457.457,0,0,1,10.576,6.436Z" transform="translate(-6.003 -6.435)" fill="#fff"/>
      </g>
    </g>
  </g>
</svg>
