<svg xmlns="http://www.w3.org/2000/svg" xmlns:xlink="http://www.w3.org/1999/xlink" width="40" height="40" viewBox="0 0 40 40">
  <defs>
    <clipPath id="clip-path">
      <rect id="Rectangle_3525" data-name="Rectangle 3525" width="40" height="40" transform="translate(-20727 15987)" fill="#fff" stroke="#707070" stroke-width="1"/>
    </clipPath>
    <linearGradient id="linear-gradient" x1="0.124" y1="0.432" x2="1" y2="0.5" gradientUnits="objectBoundingBox">
      <stop offset="0" stop-color="#28b495"/>
      <stop offset="1" stop-color="#009d9a"/>
    </linearGradient>
  </defs>
  <g id="aix" transform="translate(20727 -15987)" clip-path="url(#clip-path)">
    <g id="Group_10073" data-name="Group 10073" transform="translate(96.999 2152.289)">
      <path id="Path_20475" data-name="Path 20475" d="M11.665,15.572l-1.083-3.639H5.533L4.449,15.572H1.113L6.1.272h4.073l4.919,15.3ZM8.089,3.3H7.981L6.312,9.106H9.778Z" transform="translate(-20824.113 13846.443)" fill="#6fdc8c"/>
      <path id="Path_20476" data-name="Path 20476" d="M40.167,15.566V12.914h1.95v-10h-1.95V.263H47.36V2.916H45.41v10h1.95v2.653Z" transform="translate(-20847.674 13846.449)" fill="#3fc192"/>
      <path id="Path_20477" data-name="Path 20477" d="M75.786,15.566H71.973L68.7,9.932h-.065l-3.185,5.635H61.9l4.854-7.914L62.135.263H65.97l2.947,5.174h.065L71.972.263h3.553L70.867,7.718Z" transform="translate(-20860.785 13846.449)" fill="url(#linear-gradient)"/>
    </g>
  </g>
</svg>
