<svg xmlns="http://www.w3.org/2000/svg" xmlns:xlink="http://www.w3.org/1999/xlink" width="40" height="40" viewBox="0 0 40 40">
  <defs>
    <clipPath id="clip-path">
      <rect id="Rectangle_3502" data-name="Rectangle 3502" width="40" height="40" transform="translate(-20727 15987)" fill="#fff" stroke="#707070" stroke-width="1"/>
    </clipPath>
  </defs>
  <g id="as400" transform="translate(20727 -15987)" clip-path="url(#clip-path)">
    <g id="Group_10018" data-name="Group 10018" transform="translate(-20726.9 15986.992)">
      <path id="Path_20398" data-name="Path 20398" d="M1.9,8.008V9H8.946V8.008Zm8.044,0V9h10.04A3.82,3.82,0,0,0,17.6,8.008Zm12.01,0V9h6.073l-.36-.991Zm10.428,0L32.023,9h6.02V8.008ZM1.9,9.935v.99H8.946v-.99Zm8.044,0v.989h11.2a2.59,2.59,0,0,0-.359-.989Zm12.01,0v.989H28.7l-.333-.989Zm9.707,0-.333.989h6.713V9.936ZM3.926,11.861v.992H6.977v-.992Zm8.044,0v.992h3.051v-.992Zm6.019,0v.992H21.04a3.372,3.372,0,0,0,.194-.992Zm5.991,0v.992h5.405l-.36-.992Zm7.018,0-.362.992h5.437v-.992ZM3.926,13.789v.99H6.978v-.99Zm8.044,0v.99h7.793a3.344,3.344,0,0,0,.86-.99Zm12.01,0v.99h3.051v-.551l.194.551h5.59l.208-.551v.551h3.051v-.99H30.346l-.3.839-.305-.839ZM3.926,15.715v.991H6.977v-.991Zm8.044,0v.991h8.652a3.37,3.37,0,0,0-.859-.991Zm12.009,0v.991h3.052v-.991Zm3.606,0,.37.991h4.191l.351-.991Zm5.436,0v.991h3.052v-.991ZM3.927,17.642v.99H6.978v-.99Zm8.044,0v.99h3.051v-.99Zm6.019,0v.99h3.245a3.36,3.36,0,0,0-.194-.99Zm5.991,0v.99h3.051v-.99Zm4.3,0,.357.99h2.809l.361-.99Zm4.743,0v.99h3.052v-.99ZM1.957,19.568v.992H9v-.992Zm7.989,0v.992H20.792a2.617,2.617,0,0,0,.359-.992Zm12.065,0v.992H27.03v-.992Zm6.962,0,.367.992h1.43l.345-.992Zm4.049,0v.992H38.1v-.992ZM1.957,21.5v.99H9V21.5Zm7.989,0v.989H17.6a3.823,3.823,0,0,0,2.384-.989Zm12.065,0v.99H27.03V21.5Zm7.659,0,.354.988h.061l.359-.989Zm3.353,0v.99H38.1V21.5Z" fill="#04f"/>
      <g id="Group_10018-2" data-name="Group 10018">
        <path id="Path_20399" data-name="Path 20399" d="M12.635,31.543H11.5l-.408-.964H9.006l-.415.964H7.459l2.149-5.008h.871ZM9.374,29.735h1.352l-.676-1.6Z" fill="#04f"/>
        <path id="Path_20400" data-name="Path 20400" d="M16.1,26.876A1.42,1.42,0,0,1,16.625,28l-1.058.054a.691.691,0,0,0-.777-.7c-.462,0-.743.234-.743.6a.425.425,0,0,0,.208.4,3.178,3.178,0,0,0,.77.255,3.7,3.7,0,0,1,1.279.535,1.092,1.092,0,0,1,.421.937,1.342,1.342,0,0,1-.522,1.145,2.113,2.113,0,0,1-1.319.389,2.319,2.319,0,0,1-1.446-.422,1.428,1.428,0,0,1-.562-1.185l1.051-.054a.857.857,0,0,0,.957.763c.529,0,.79-.194.79-.575,0-.355-.288-.5-1.031-.69-.268-.067-.482-.127-.649-.187a2.814,2.814,0,0,1-.509-.255,1.109,1.109,0,0,1-.5-1.017,1.437,1.437,0,0,1,.462-1.092,1.84,1.84,0,0,1,1.319-.442A2.03,2.03,0,0,1,16.1,26.876Z" fill="#04f"/>
        <path id="Path_20401" data-name="Path 20401" d="M18.084,31.992H17.06l1.707-5.457h1.018Z" fill="#04f"/>
        <path id="Path_20402" data-name="Path 20402" d="M22.972,29.749h.743v.917h-.743v.877h-.931v-.877H20.013v-.85l2.142-3.281h.817Zm-1.908,0h.971v-1.48Z" fill="#04f"/>
        <path id="Path_20403" data-name="Path 20403" d="M27.424,27.138a3.043,3.043,0,0,1,.522,1.9,3.07,3.07,0,0,1-.522,1.9,1.644,1.644,0,0,1-1.372.677,1.67,1.67,0,0,1-1.386-.677,3.11,3.11,0,0,1-.516-1.9,3.081,3.081,0,0,1,.516-1.9,1.67,1.67,0,0,1,1.386-.677A1.644,1.644,0,0,1,27.424,27.138Zm-2.223,1.9c0,1.1.282,1.66.851,1.66s.843-.555.843-1.66-.281-1.66-.843-1.66S25.2,27.934,25.2,29.039Z" fill="#04f"/>
        <path id="Path_20404" data-name="Path 20404" d="M31.783,27.138a3.043,3.043,0,0,1,.522,1.9,3.07,3.07,0,0,1-.522,1.9,1.647,1.647,0,0,1-1.373.677,1.671,1.671,0,0,1-1.386-.677,3.116,3.116,0,0,1-.515-1.9,3.088,3.088,0,0,1,.515-1.9,1.671,1.671,0,0,1,1.386-.677A1.647,1.647,0,0,1,31.783,27.138Zm-2.223,1.9c0,1.1.281,1.66.85,1.66s.844-.555.844-1.66-.281-1.66-.844-1.66S29.56,27.934,29.56,29.039Z" fill="#04f"/>
      </g>
    </g>
  </g>
</svg>
