<svg id="button" xmlns="http://www.w3.org/2000/svg" width="30" height="28.636" viewBox="0 0 30 28.636">
  <path id="Path_21306" data-name="Path 21306" d="M3.409,783.6,0,783.6a3.409,3.409,0,1,0,3.409-3.409A3.409,3.409,0,0,0,0,783.6Z" transform="translate(0 -758.372)" fill="#454545"/>
  <path id="Path_21307" data-name="Path 21307" d="M417.885,393.5m-3.409,0a3.409,3.409,0,1,0,3.409-3.409A3.409,3.409,0,0,0,414.476,393.5Z" transform="translate(-402.885 -379.186)" fill="#454545"/>
  <path id="Path_21308" data-name="Path 21308" d="M417.885,3.409m-3.409,0A3.409,3.409,0,1,0,417.885,0a3.409,3.409,0,0,0-3.409,3.409Z" transform="translate(-402.885)" fill="#454545"/>
  <path id="Path_21309" data-name="Path 21309" d="M3.409,3.409,0,3.409A3.409,3.409,0,1,0,3.409,0,3.409,3.409,0,0,0,0,3.409Z" transform="translate(0 0)" fill="#454545"/>
  <path id="Path_21310" data-name="Path 21310" d="M3.409,393.5,0,393.5a3.409,3.409,0,1,0,3.409-3.409A3.409,3.409,0,0,0,0,393.5Z" transform="translate(0 -379.186)" fill="#454545"/>
  <path id="Path_21311" data-name="Path 21311" d="M417.885,783.6m-3.409,0a3.409,3.409,0,1,0,3.409-3.409A3.409,3.409,0,0,0,414.476,783.6Z" transform="translate(-402.885 -758.372)" fill="#454545"/>
  <path id="Path_21312" data-name="Path 21312" d="M832.361,783.6m-3.409,0a3.409,3.409,0,1,0,3.409-3.409A3.409,3.409,0,0,0,828.952,783.6Z" transform="translate(-805.77 -758.372)" fill="#454545"/>
  <path id="Path_21313" data-name="Path 21313" d="M832.361,3.409m-3.409,0A3.409,3.409,0,1,0,832.361,0,3.409,3.409,0,0,0,828.952,3.409Z" transform="translate(-805.77 0)" fill="#454545"/>
  <path id="Path_21314" data-name="Path 21314" d="M832.361,393.5m-3.409,0a3.409,3.409,0,1,0,3.409-3.409A3.409,3.409,0,0,0,828.952,393.5Z" transform="translate(-805.77 -379.186)" fill="#454545"/>
</svg>
