<svg id="checkbox" xmlns="http://www.w3.org/2000/svg" width="30" height="30" viewBox="0 0 30 30">
  <path id="Path_21267" data-name="Path 21267" d="M27,0H3A3.009,3.009,0,0,0,0,3V27a3.009,3.009,0,0,0,3,3H27a3.009,3.009,0,0,0,3-3V3A3.009,3.009,0,0,0,27,0Zm1.5,27A1.5,1.5,0,0,1,27,28.5H3A1.5,1.5,0,0,1,1.5,27V3A1.5,1.5,0,0,1,3,1.5H27A1.5,1.5,0,0,1,28.5,3Z" fill="#454545"/>
  <path id="Path_21268" data-name="Path 21268" d="M178.825,277.112a.783.783,0,0,0-.995.115l-11.716,11.716-6.367-6.367a.793.793,0,0,0-1.017-.117.752.752,0,0,0-.087,1.135l6.94,6.94a.752.752,0,0,0,1.06,0l12.279-12.279A.751.751,0,0,0,178.825,277.112Z" transform="translate(-153.784 -268.868)" fill="#454545"/>
</svg>
