<svg xmlns="http://www.w3.org/2000/svg" xmlns:xlink="http://www.w3.org/1999/xlink" width="61" height="61" viewBox="0 0 61 61">
  <defs>
    <linearGradient id="linear-gradient" x1="0.5" x2="0.5" y2="1" gradientUnits="objectBoundingBox">
      <stop offset="0" stop-color="#8f9198"/>
      <stop offset="1" stop-color="#68696d"/>
    </linearGradient>
    <filter id="Rectangle_805" x="0" y="0" width="61" height="61" filterUnits="userSpaceOnUse">
      <feOffset dy="3" input="SourceAlpha"/>
      <feGaussianBlur stdDeviation="3" result="blur"/>
      <feFlood flood-opacity="0.161"/>
      <feComposite operator="in" in2="blur"/>
      <feComposite in="SourceGraphic"/>
    </filter>
    <clipPath id="clip-path">
      <rect id="Rectangle_825" data-name="Rectangle 825" width="22" height="22" fill="#fff" stroke="#707070" stroke-width="1"/>
    </clipPath>
  </defs>
  <g id="copy" transform="translate(-637 -596)">
    <g transform="matrix(1, 0, 0, 1, 637, 596)" filter="url(#Rectangle_805)">
      <rect id="Rectangle_805-2" data-name="Rectangle 805" width="43" height="43" rx="21.5" transform="translate(52 6) rotate(90)" fill="url(#linear-gradient)"/>
    </g>
    <g id="Failed" transform="translate(657.75 613.765)">
      <g id="Group_42" data-name="Group 42" transform="translate(-0.75 -0.765)" clip-path="url(#clip-path)">
        <g id="copy-2" data-name="copy" transform="translate(89.526 957.387)">
          <path id="Path_21315" data-name="Path 21315" d="M-72.1-953.408h.687a.814.814,0,0,1,.852.77V-938.6a1.1,1.1,0,0,1-1.146,1.036H-83.769a1.041,1.041,0,0,1-1.09-.985" transform="translate(0.239 0.177)" fill="none" stroke="#fff" stroke-linecap="round" stroke-linejoin="round" stroke-width="1"/>
          <path id="Path_21316" data-name="Path 21316" d="M-83.164-955.387h9.087a.814.814,0,0,1,.851.77v14.037a1.1,1.1,0,0,1-1.146,1.036H-86.436a1.042,1.042,0,0,1-1.09-.985v-11a.734.734,0,0,1,.258-.552l3.512-3.086A.9.9,0,0,1-83.164-955.387Z" transform="translate(0 0)" fill="none" stroke="#fff" stroke-linecap="round" stroke-miterlimit="10" stroke-width="1"/>
          <path id="Path_21317" data-name="Path 21317" d="M-83.431-954.907v2.887a.387.387,0,0,1-.4.38h-3.131" transform="translate(0.051 0.043)" fill="none" stroke="#fff" stroke-linecap="round" stroke-miterlimit="10" stroke-width="1"/>
        </g>
      </g>
    </g>
  </g>
</svg>
