<svg xmlns="http://www.w3.org/2000/svg" xmlns:xlink="http://www.w3.org/1999/xlink" width="40" height="40" viewBox="0 0 40 40">
  <defs>
    <clipPath id="clip-path">
      <rect id="Rectangle_3526" data-name="Rectangle 3526" width="40" height="40" transform="translate(-20727 15987)" fill="#fff" stroke="#707070" stroke-width="1"/>
    </clipPath>
  </defs>
  <g id="custom" transform="translate(20727 -15987)" clip-path="url(#clip-path)">
    <g id="Group_9996" data-name="Group 9996" transform="translate(-22513.398 15044.242)">
      <path id="Path_6955" data-name="Path 6955" d="M1806.4,979.864v-4.12a2.389,2.389,0,0,0-2.389-2.389h-12.2a3.163,3.163,0,0,1-3.163-3.163v-22a3.163,3.163,0,0,1,3.163-3.163h29.169a3.163,3.163,0,0,1,3.163,3.163v22a3.163,3.163,0,0,1-3.163,3.163h-11.8" transform="translate(0 0)" fill="none" stroke="#2f2e41" stroke-linecap="round" stroke-width="2"/>
      <line id="Line_347" data-name="Line 347" x2="8.801" transform="translate(1801.997 980.319)" fill="none" stroke="#2f2e41" stroke-linecap="round" stroke-width="2"/>
      <g id="Group_9997" data-name="Group 9997" transform="translate(1793.82 953.291)">
        <path id="Path_19710" data-name="Path 19710" d="M7.229,5.245a6.538,6.538,0,0,1,3.3-.849,6.556,6.556,0,0,1,3.308.849A6.12,6.12,0,0,1,16.171,7.59a6.62,6.62,0,0,1,.844,3.324,6.623,6.623,0,0,1-.844,3.327,6.1,6.1,0,0,1-2.331,2.343,6.532,6.532,0,0,1-3.308.849,6.514,6.514,0,0,1-3.3-.849,6.074,6.074,0,0,1-2.322-2.343,6.693,6.693,0,0,1-.839-3.327A6.691,6.691,0,0,1,4.907,7.59,6.1,6.1,0,0,1,7.229,5.245Zm5.958,2.88a3.515,3.515,0,0,0-2.655-1.118A3.507,3.507,0,0,0,7.879,8.125a3.9,3.9,0,0,0-1.062,2.79,3.913,3.913,0,0,0,1.062,2.795,3.494,3.494,0,0,0,2.653,1.123,3.5,3.5,0,0,0,2.655-1.123,3.911,3.911,0,0,0,1.059-2.795A3.9,3.9,0,0,0,13.187,8.125Z" transform="translate(-4.068 -4.396)" fill="#2f2e41"/>
        <path id="Path_19711" data-name="Path 19711" d="M14.908,4.4a6.425,6.425,0,0,1,2.523.553,5.48,5.48,0,0,1,2.024,1.385L17.9,8.456a5.573,5.573,0,0,0-1.56-1.073A3.969,3.969,0,0,0,14.7,6.987a1.92,1.92,0,0,0-1.1.288.867.867,0,0,0-.421.747.883.883,0,0,0,.222.6,1.753,1.753,0,0,0,.6.43,6.881,6.881,0,0,0,.863.319c.324.1.664.2,1.021.3s.714.218,1.076.345a5.409,5.409,0,0,1,1.024.485,4.353,4.353,0,0,1,.863.681,2.8,2.8,0,0,1,.6.974,3.769,3.769,0,0,1,.22,1.331,3.538,3.538,0,0,1-.317,1.464,4.054,4.054,0,0,1-.9,1.26,4.213,4.213,0,0,1-1.478.889,5.639,5.639,0,0,1-1.977.331,6.969,6.969,0,0,1-2.946-.686,6.174,6.174,0,0,1-2.308-1.719l1.716-1.955a7.072,7.072,0,0,0,1.653,1.3,3.853,3.853,0,0,0,1.884.459,2.414,2.414,0,0,0,1.388-.362,1.114,1.114,0,0,0,.532-.965.872.872,0,0,0-.222-.591A1.61,1.61,0,0,0,16.1,12.5a6.989,6.989,0,0,0-.854-.3c-.322-.092-.662-.187-1.017-.284s-.714-.206-1.066-.324a5.292,5.292,0,0,1-1.014-.459,4.3,4.3,0,0,1-.854-.655,2.668,2.668,0,0,1-.591-.95,3.641,3.641,0,0,1-.222-1.315,3.478,3.478,0,0,1,1.248-2.728A4.661,4.661,0,0,1,14.908,4.4Z" transform="translate(3.664 -4.396)" fill="#2f2e41"/>
      </g>
    </g>
  </g>
</svg>
