<svg id="date" xmlns="http://www.w3.org/2000/svg" width="30" height="30.127" viewBox="0 0 30 30.127">
  <path id="Path_21250" data-name="Path 21250" d="M693.527,397.553H696.4v-1.917h-2.876Z" transform="translate(-673.123 -383.996)" fill="#454545"/>
  <path id="Path_21251" data-name="Path 21251" d="M232.727,560.463H235.6v-1.917h-2.876Z" transform="translate(-225.88 -542.112)" fill="#454545"/>
  <path id="Path_21252" data-name="Path 21252" d="M465.455,560.463h2.876v-1.917h-2.876Z" transform="translate(-451.761 -542.112)" fill="#454545"/>
  <path id="Path_21253" data-name="Path 21253" d="M700.921,558.545h-2.739v1.917h2.739Z" transform="translate(-677.641 -542.112)" fill="#454545"/>
  <path id="Path_21254" data-name="Path 21254" d="M232.727,723.372H235.6v-1.917h-2.876Z" transform="translate(-225.88 -700.228)" fill="#454545"/>
  <path id="Path_21255" data-name="Path 21255" d="M460.8,728.027h2.876V726.11H460.8Z" transform="translate(-447.243 -704.746)" fill="#454545"/>
  <path id="Path_21256" data-name="Path 21256" d="M693.527,728.027H696.4V726.11h-2.876Z" transform="translate(-673.123 -704.746)" fill="#454545"/>
  <path id="Path_21257" data-name="Path 21257" d="M235.6,395.636h-2.876v1.78H235.6C235.6,396.868,235.6,396.321,235.6,395.636Z" transform="translate(-225.88 -383.996)" fill="#454545"/>
  <path id="Path_21258" data-name="Path 21258" d="M468.33,395.636h-2.876v1.78h2.876Z" transform="translate(-451.76 -383.996)" fill="#454545"/>
  <path id="Path_21259" data-name="Path 21259" d="M27.115,2.739H23.554V.685a.685.685,0,0,0-1.369,0V2.739H15.748V.685a.685.685,0,0,0-1.369,0V2.739H8.08V.685A.647.647,0,0,0,7.395,0,.647.647,0,0,0,6.71.685V2.739h-3.7A3.039,3.039,0,0,0,0,5.752V26.978a3.071,3.071,0,0,0,3.013,3.15H26.978a3.039,3.039,0,0,0,3.013-3.013V5.752A2.841,2.841,0,0,0,27.115,2.739Zm1.643,24.376a1.665,1.665,0,0,1-1.643,1.643H3.013a1.767,1.767,0,0,1-1.643-1.643V5.752A1.767,1.767,0,0,1,3.013,4.108H6.573V6.162c.137.274.411.685.822.685a.647.647,0,0,0,.685-.685V4.108h6.3V6.162a.734.734,0,0,0,.685.685.647.647,0,0,0,.685-.685V4.108h6.436V6.162a.685.685,0,1,0,1.369,0V4.108h3.561a1.767,1.767,0,0,1,1.643,1.643Z" fill="#454545"/>
</svg>
