<?xml version="1.0" encoding="utf-8"?>
<!-- Generator: Adobe Illustrator 25.0.0, SVG Export Plug-In . SVG Version: 6.00 Build 0)  -->
<svg version="1.1" id="Layer_1" xmlns="http://www.w3.org/2000/svg" xmlns:xlink="http://www.w3.org/1999/xlink" x="0px" y="0px"
	 viewBox="0 0 30 30" style="enable-background:new 0 0 30 30;" xml:space="preserve">
<style type="text/css">
	.st0{clip-path:url(#SVGID_2_);}
	.st1{fill:#8F9198;}
</style>
<g>
	<defs>
		<rect id="SVGID_1_" width="30" height="30"/>
	</defs>
	<clipPath id="SVGID_2_">
		<use xlink:href="#SVGID_1_"  style="overflow:visible;"/>
	</clipPath>
	<g id="drag" transform="translate(14526 -20903)" class="st0">
		<path id="drag-5" class="st1" d="M-14512.5,20908.3c0,1.8-1.5,3.2-3.2,3.2s-3.2-1.5-3.2-3.2s1.5-3.2,3.2-3.2l0,0
			C-14514,20905-14512.5,20906.5-14512.5,20908.3z M-14515.8,20914.8c-1.8,0-3.2,1.5-3.2,3.2s1.5,3.2,3.2,3.2s3.2-1.5,3.2-3.2l0,0
			C-14512.5,20916.2-14514,20914.8-14515.8,20914.8z M-14515.8,20924.5c-1.8,0-3.2,1.5-3.2,3.2s1.5,3.2,3.2,3.2s3.2-1.5,3.2-3.2l0,0
			C-14512.5,20926-14514,20924.5-14515.8,20924.5z M-14506,20911.5c1.8,0,3.2-1.5,3.2-3.2s-1.5-3.2-3.2-3.2s-3.2,1.5-3.2,3.2l0,0
			C-14509.2,20910-14507.8,20911.5-14506,20911.5z M-14506,20914.8c-1.8,0-3.2,1.5-3.2,3.2s1.5,3.2,3.2,3.2s3.2-1.5,3.2-3.2l0,0
			C-14502.8,20916.2-14504.2,20914.8-14506,20914.8z M-14506,20924.5c-1.8,0-3.2,1.5-3.2,3.2s1.5,3.2,3.2,3.2s3.2-1.5,3.2-3.2l0,0
			C-14502.8,20926-14504.2,20924.5-14506,20924.5z"/>
	</g>
</g>
</svg>
