<svg xmlns="http://www.w3.org/2000/svg" width="30" height="21.306" viewBox="0 0 30 21.306">
  <g id="email" transform="translate(-0.229 -148.571)">
    <path id="Path_21260" data-name="Path 21260" d="M29.525,169.877H.932a.7.7,0,0,1-.7-.7v-19.9a.7.7,0,0,1,.7-.7H29.525a.7.7,0,0,1,.7.7v1.374a.67.67,0,0,1-1.341,0v-.737H1.569V168.54H28.888V153.525a.67.67,0,1,1,1.341,0v15.649a.7.7,0,0,1-.7.7Z" transform="translate(0 0)" fill="#454545"/>
    <path id="Path_21261" data-name="Path 21261" d="M134.806,253.809a.725.725,0,0,1-.392-.117l-10.7-7.132a.669.669,0,0,1,.744-1.113l10.343,6.9,10.366-6.9a.67.67,0,1,1,.741,1.116l-10.715,7.132a.687.687,0,0,1-.389.117Z" transform="translate(-119.576 -93.923)" fill="#454545"/>
  </g>
</svg>
