<svg xmlns="http://www.w3.org/2000/svg" xmlns:xlink="http://www.w3.org/1999/xlink" width="28" height="28" viewBox="0 0 28 28">
  <defs>
    <clipPath id="clip-path">
      <rect id="Rectangle_2606" data-name="Rectangle 2606" width="28" height="28" transform="translate(349 147)" fill="#fff" stroke="#707070" stroke-width="1"/>
    </clipPath>
  </defs>
  <g id="ideal_company" transform="translate(-349 -147)" clip-path="url(#clip-path)">
    <g id="Group_8950" data-name="Group 8950" transform="translate(426.812 265.784)">
      <path id="Path_18266" data-name="Path 18266" d="M-54.835-116.784c0,6.647-4.024,12.035-8.989,12.035s-8.989-5.388-8.989-12.035Z" transform="translate(0 0)" fill="none" stroke="#fff" stroke-linecap="round" stroke-linejoin="round" stroke-miterlimit="10" stroke-width="1.5"/>
      <path id="Path_18267" data-name="Path 18267" d="M-61.194-113.314a6.66,6.66,0,0,1-.742,1.608,4.313,4.313,0,0,1-3.542,2.165,4.361,4.361,0,0,1-3.634-2.3,7.467,7.467,0,0,1-.665-1.469Z" transform="translate(1.659 1.897)" fill="#fff"/>
      <path id="Path_18268" data-name="Path 18268" d="M-54.835-96.967c0-6.647-4.024-12.035-8.989-12.035s-8.989,5.388-8.989,12.035Z" transform="translate(0 4.253)" fill="none" stroke="#fff" stroke-linecap="round" stroke-linejoin="round" stroke-miterlimit="10" stroke-width="1.5"/>
      <path id="Path_18269" data-name="Path 18269" d="M-59.163-100.357c0-3.772-2.592-6.831-5.79-6.831s-5.79,3.059-5.79,6.831Z" transform="translate(1.13 5.245)" fill="#fff"/>
      <line id="Line_842" data-name="Line 842" x1="8.583" transform="translate(-68.118 -111.418)" fill="none"/>
    </g>
  </g>
</svg>
