<svg xmlns="http://www.w3.org/2000/svg" xmlns:xlink="http://www.w3.org/1999/xlink" width="28" height="28" viewBox="0 0 28 28">
  <defs>
    <clipPath id="clip-path">
      <rect id="Rectangle_2608" data-name="Rectangle 2608" width="28" height="28" transform="translate(349 147)" fill="#fff" stroke="#707070" stroke-width="1"/>
    </clipPath>
  </defs>
  <g id="infra_mapped" transform="translate(-349 -147)" clip-path="url(#clip-path)">
    <g id="Group_8951" data-name="Group 8951" transform="translate(-342.506 -1032.586)">
      <g id="Group_1071" data-name="Group 1071" transform="translate(693.25 1181.423)">
        <path id="Path_7085" data-name="Path 7085" d="M749.5,1199.35V1198.2a.963.963,0,0,1,.963-.962h5.321a.962.962,0,0,0,.962-.956l.013-1.925-.578-.234a.3.3,0,0,0-.224.006c-.635.291-1.49.662-1.9.81l-.113.042-1.054-1.031.041-.115c.141-.4.5-1.254.783-1.89a.282.282,0,0,0,0-.223l-.406-.965a.281.281,0,0,0-.166-.157c-.644-.23-1.519-.559-1.921-.74l-.112-.051v-1.451l.109-.052c.39-.185,1.264-.539,1.924-.795a.28.28,0,0,0,.159-.153l.408-.967a.286.286,0,0,0-.005-.232c-.341-.712-.685-1.488-.821-1.843l-.045-.117,1.052-1.029.11.037c.407.136,1.288.491,1.948.773a.287.287,0,0,0,.218,0l.986-.4a.29.29,0,0,0,.157-.163c.234-.628.569-1.484.754-1.88l.051-.11h1.495l.053.106c.193.387.557,1.25.813,1.887a.288.288,0,0,0,.156.156l.988.4a.294.294,0,0,0,.222,0c.64-.292,1.5-.664,1.9-.81l.114-.04,1.053,1.027-.041.116c-.144.4-.5,1.257-.782,1.89a.286.286,0,0,0,0,.227l.406.967a.284.284,0,0,0,.166.158c.775.275,1.564.577,1.919.736l.114.051v1.448l-.108.053c-.4.191-1.28.546-1.928.8a.281.281,0,0,0-.159.153l-.407.967a.284.284,0,0,0,.006.232c.286.6.665,1.432.821,1.842l.044.116-1.053,1.03-.11-.037c-.417-.141-1.3-.5-1.945-.773a.292.292,0,0,0-.22,0l-.429.173v1.956a.963.963,0,0,0,.963.963h4.776a.963.963,0,0,1,.963.963v1.179" transform="translate(-746.449 -1181.423)" fill="none" stroke="#fff" stroke-linecap="round" stroke-width="1.5"/>
        <path id="Path_7086" data-name="Path 7086" d="M4.349,5.367a2.97,2.97,0,0,1-1.416.356A2.9,2.9,0,0,1,0,2.861,2.9,2.9,0,0,1,2.933,0,2.9,2.9,0,0,1,5.865,2.861a2.8,2.8,0,0,1-.452,1.526" transform="translate(11.347 3.679) rotate(30)" fill="none" stroke="#fff" stroke-linecap="round" stroke-width="1.5"/>
        <rect id="Rectangle_1065" data-name="Rectangle 1065" width="6.101" height="6.399" rx="3.05" transform="translate(0 17.927)" fill="none" stroke="#fff" stroke-linecap="round" stroke-width="1.5"/>
        <path id="Path_7087" data-name="Path 7087" d="M868.19,1423.412h1.756a.658.658,0,0,1,.658.658v5.084a.658.658,0,0,1-.658.657H865.16a.658.658,0,0,1-.658-.657v-5.084a.658.658,0,0,1,.658-.658h1.658a.734.734,0,0,0,.734-.734v-4.345" transform="translate(-855.216 -1405.485)" fill="none" stroke="#fff" stroke-linecap="round" stroke-width="1.5"/>
        <rect id="Rectangle_1066" data-name="Rectangle 1066" width="6.101" height="6.399" rx="3.05" transform="translate(18.411 17.927)" fill="none" stroke="#fff" stroke-linecap="round" stroke-width="1.5"/>
      </g>
    </g>
  </g>
</svg>
