<svg xmlns="http://www.w3.org/2000/svg" xmlns:xlink="http://www.w3.org/1999/xlink" width="24" height="24" viewBox="0 0 24 24">
  <defs>
    <radialGradient id="radial-gradient" cx="0.518" cy="0.493" r="0.447" gradientTransform="matrix(1.257, -0.032, 0.046, 1.149, -1.342, 0.089)" gradientUnits="objectBoundingBox">
      <stop offset="0" stop-color="#fefefc"/>
      <stop offset="0.757" stop-color="#fefefc"/>
      <stop offset="1" stop-color="#d4d4d4"/>
    </radialGradient>
    <radialGradient id="radial-gradient-2" cx="0.515" cy="0.455" r="0.355" gradientTransform="matrix(1.6, -0.024, 0.058, 1.529, -5.106, -0.041)" xlink:href="#radial-gradient"/>
    <linearGradient id="linear-gradient" x1="0.143" y1="0.961" x2="0.699" y2="0.087" gradientUnits="objectBoundingBox">
      <stop offset="0" stop-color="#3e2a06"/>
      <stop offset="1" stop-color="#ad780a"/>
    </linearGradient>
    <linearGradient id="linear-gradient-3" x1="0.076" y1="1.064" x2="0.711" y2="-0.012" xlink:href="#linear-gradient"/>
    <clipPath id="clip-path">
      <rect id="Rectangle_2458" data-name="Rectangle 2458" width="24" height="24" transform="translate(442 81)" fill="#fff" stroke="#707070" stroke-width="1"/>
    </clipPath>
    <radialGradient id="radial-gradient-3" cx="0.515" cy="0.455" r="0.355" gradientTransform="matrix(1.6, -0.024, 0.058, 1.529, -7.384, -0.094)" xlink:href="#radial-gradient"/>
    <radialGradient id="radial-gradient-4" cx="0.518" cy="0.493" r="0.447" gradientTransform="matrix(1.257, -0.032, 0.046, 1.149, -2.074, 0.139)" xlink:href="#radial-gradient"/>
    <radialGradient id="radial-gradient-5" cx="0.378" cy="0.528" r="0.59" gradientTransform="matrix(0.591, -0.588, 0.39, 0.734, 3.529, 5.95)" gradientUnits="objectBoundingBox">
      <stop offset="0" stop-color="#020204"/>
      <stop offset="0.734" stop-color="#020204"/>
      <stop offset="1" stop-color="#5c5c5c"/>
    </radialGradient>
    <linearGradient id="linear-gradient-4" x1="-12.752" y1="-0.043" x2="-11.79" y2="1.114" gradientUnits="objectBoundingBox">
      <stop offset="0" stop-color="#949494" stop-opacity="0.392"/>
      <stop offset="0.5" stop-color="#949494"/>
      <stop offset="1" stop-color="#949494" stop-opacity="0.392"/>
    </linearGradient>
    <clipPath id="clip-path-2">
      <path id="Path_17678" data-name="Path 17678" d="M79.181,120.317a1.21,1.21,0,0,0-.463.574,1.409,1.409,0,0,0,.037.926,1.536,1.536,0,0,0,.547.779,1,1,0,0,0,.447.173.815.815,0,0,0,.47-.081.905.905,0,0,0,.39-.428,1.567,1.567,0,0,0,.129-.572,1.929,1.929,0,0,0-.093-.741,1.244,1.244,0,0,0-.479-.642.937.937,0,0,0-.378-.143.808.808,0,0,0-.4.045,1.013,1.013,0,0,0-.2.111" transform="translate(-78.656 -120.153)" fill="url(#radial-gradient)"/>
    </clipPath>
    <linearGradient id="linear-gradient-5" x1="5.414" y1="0.472" x2="5.853" y2="0.833" gradientUnits="objectBoundingBox">
      <stop offset="0" stop-color="#747474"/>
      <stop offset="0.125" stop-color="#8c8c8c"/>
      <stop offset="0.25" stop-color="#a4a4a4"/>
      <stop offset="0.5" stop-color="#d4d4d4"/>
      <stop offset="0.619" stop-color="#d4d4d4"/>
      <stop offset="1" stop-color="#7c7c7c"/>
    </linearGradient>
    <linearGradient id="linear-gradient-6" x1="18.206" y1="0.667" x2="19.134" y2="1.616" gradientUnits="objectBoundingBox">
      <stop offset="0" stop-color="#646464" stop-opacity="0"/>
      <stop offset="0.306" stop-color="#646464" stop-opacity="0.584"/>
      <stop offset="0.47" stop-color="#646464"/>
      <stop offset="0.728" stop-color="#646464" stop-opacity="0.259"/>
      <stop offset="1" stop-color="#646464" stop-opacity="0"/>
    </linearGradient>
    <linearGradient id="linear-gradient-7" x1="19.477" y1="0.681" x2="20.412" y2="1.705" xlink:href="#linear-gradient-6"/>
    <linearGradient id="linear-gradient-8" x1="-0.1" y1="-0.231" x2="1.012" y2="1.007" gradientUnits="objectBoundingBox">
      <stop offset="0" stop-color="#757574" stop-opacity="0"/>
      <stop offset="0.263" stop-color="#757574"/>
      <stop offset="0.5" stop-color="#757574"/>
      <stop offset="1" stop-color="#757574" stop-opacity="0"/>
    </linearGradient>
    <radialGradient id="radial-gradient-6" cx="0.62" cy="0.184" r="1.043" gradientTransform="matrix(0.457, -0.382, 0.133, 0.649, 2.041, 2.005)" gradientUnits="objectBoundingBox">
      <stop offset="0" stop-color="#d2940a"/>
      <stop offset="0.751" stop-color="#d89c08"/>
      <stop offset="0.866" stop-color="#b67e07"/>
      <stop offset="1" stop-color="#946106"/>
    </radialGradient>
    <linearGradient id="linear-gradient-9" x1="3.502" y1="0.516" x2="4.438" y2="0.502" gradientUnits="objectBoundingBox">
      <stop offset="0" stop-color="#ad780a"/>
      <stop offset="0.12" stop-color="#d89e08"/>
      <stop offset="0.255" stop-color="#edb80b"/>
      <stop offset="0.392" stop-color="#ebc80d"/>
      <stop offset="0.527" stop-color="#f5d838"/>
      <stop offset="0.769" stop-color="#f6d811"/>
      <stop offset="1" stop-color="#f5cd31"/>
    </linearGradient>
    <radialGradient id="radial-gradient-7" cx="0.43" cy="0.441" r="1.086" gradientTransform="translate(0.204 0.166) scale(0.525 0.583)" gradientUnits="objectBoundingBox">
      <stop offset="0" stop-color="#3a2903"/>
      <stop offset="0.555" stop-color="#735208"/>
      <stop offset="1" stop-color="#ac8c04"/>
    </radialGradient>
    <radialGradient id="radial-gradient-8" cx="0.558" cy="0.394" r="0.613" gradientTransform="translate(-0.057 -0.03) scale(1.101 1.075)" xlink:href="#radial-gradient-7"/>
    <linearGradient id="linear-gradient-10" x1="0.449" y1="0.228" x2="0.533" y2="0.819" gradientUnits="objectBoundingBox">
      <stop offset="0" stop-color="#f5ce2d"/>
      <stop offset="1" stop-color="#d79b08"/>
    </linearGradient>
    <clipPath id="clip-path-3">
      <path id="Path_17691" data-name="Path 17691" d="M46.443,122.353a.574.574,0,0,0-.355.158.8.8,0,0,0-.206.333,2.018,2.018,0,0,0-.046.786,2.315,2.315,0,0,0,.124.7.919.919,0,0,0,.191.3.656.656,0,0,0,.305.18.615.615,0,0,0,.332-.012.719.719,0,0,0,.285-.173.955.955,0,0,0,.241-.421,1.67,1.67,0,0,0,.056-.486,2.024,2.024,0,0,0-.094-.6,1.361,1.361,0,0,0-.309-.525.872.872,0,0,0-.237-.178.583.583,0,0,0-.287-.063" transform="translate(-45.82 -122.352)" fill="url(#radial-gradient-2)"/>
    </clipPath>
    <radialGradient id="radial-gradient-9" cx="0.588" cy="0.625" r="0.223" gradientTransform="matrix(0.458, -0.162, 0.07, 0.912, 1.931, 0.64)" gradientUnits="objectBoundingBox">
      <stop offset="0" stop-color="#c8c8c8"/>
      <stop offset="1" stop-color="#797978"/>
    </radialGradient>
    <clipPath id="clip-path-4">
      <path id="Path_17694" data-name="Path 17694" d="M287.051,183.261a2.365,2.365,0,0,1,.825,1.481,5.423,5.423,0,0,1-.486,2.631,2.54,2.54,0,0,0-.148.518.852.852,0,0,0,.078.525.8.8,0,0,0,.48.365,1.15,1.15,0,0,0,.6.007,1.483,1.483,0,0,0,.542-.27,2.154,2.154,0,0,0,.755-1.321,4.334,4.334,0,0,0-.041-1.54,10.56,10.56,0,0,0-.584-2.03,5.765,5.765,0,0,0-.725-1.372c-.305-.405-.691-.747-.988-1.158a6.8,6.8,0,0,0-.618-.852,1.27,1.27,0,0,0-.435-.3.839.839,0,0,0-.523-.036.756.756,0,0,0-.3.17.871.871,0,0,0-.2.282,1.174,1.174,0,0,0-.073.681,2.473,2.473,0,0,0,.337.829,2.949,2.949,0,0,0,.632.789c.271.226.6.376.875.6" transform="translate(-285.187 -179.886)" fill="none" stroke="#c17d11" stroke-width="1.009"/>
    </clipPath>
    <radialGradient id="radial-gradient-10" cx="0.111" cy="0.515" r="0.573" gradientTransform="matrix(-1.08, 0, 0, 1.093, 27.448, -0.053)" gradientUnits="objectBoundingBox">
      <stop offset="0"/>
      <stop offset="1" stop-opacity="0.247"/>
    </radialGradient>
    <radialGradient id="radial-gradient-11" cx="0.47" cy="0.856" r="0.735" gradientTransform="translate(1.793 0.296) scale(0.693 0.763)" xlink:href="#radial-gradient-10"/>
    <radialGradient id="radial-gradient-12" cx="0.463" cy="0.984" r="0.468" gradientTransform="translate(-0.955 -0.093) scale(1.069 1.069)" xlink:href="#radial-gradient-10"/>
    <linearGradient id="linear-gradient-11" x1="4.626" y1="0.351" x2="4.679" y2="0.706" gradientUnits="objectBoundingBox">
      <stop offset="0"/>
      <stop offset="1" stop-opacity="0"/>
    </linearGradient>
    <clipPath id="clip-path-5">
      <path id="Path_17702" data-name="Path 17702" d="M436.088,289.219a1.253,1.253,0,0,1-.209.351,2.276,2.276,0,0,1-.733.52,14.49,14.49,0,0,0-1.364.72,5.6,5.6,0,0,0-.8.647,6.436,6.436,0,0,1-.654.594,1.88,1.88,0,0,1-.814.344,1.95,1.95,0,0,1-1.059-.16,1.27,1.27,0,0,1-.59-.461,1.385,1.385,0,0,1-.165-.735,7.649,7.649,0,0,1,.161-1.338c.065-.368.127-.737.167-1.109a11.408,11.408,0,0,0,.024-2.038,1.55,1.55,0,0,1,0-.341.433.433,0,0,1,.441-.4,1.584,1.584,0,0,1,.314.026,6.631,6.631,0,0,1,.732.127c.151.04.3.093.45.134a2.063,2.063,0,0,0,.775.071,6.029,6.029,0,0,1,.831-.131,1.228,1.228,0,0,1,.34.059.725.725,0,0,1,.305.17.671.671,0,0,1,.139.227,1.374,1.374,0,0,1,.086.389,3.37,3.37,0,0,0,.031.353,1.157,1.157,0,0,0,.261.514,3.322,3.322,0,0,0,.422.4c.148.124.3.248.457.358.075.051.152.1.223.156a.7.7,0,0,1,.181.2.5.5,0,0,1,.051.357" transform="translate(-429.696 -285.807)" fill="url(#linear-gradient)"/>
    </clipPath>
    <clipPath id="clip-path-7">
      <path id="Path_17706" data-name="Path 17706" d="M505.084,366.277a1.31,1.31,0,0,1-.209.351,2.2,2.2,0,0,1-.733.52,13.684,13.684,0,0,0-1.364.72,5.694,5.694,0,0,0-.8.647,6.611,6.611,0,0,1-.654.594,1.869,1.869,0,0,1-.814.344,1.97,1.97,0,0,1-1.059-.16,1.23,1.23,0,0,1-.59-.461,1.429,1.429,0,0,1-.165-.735,7.314,7.314,0,0,1,.161-1.338c.066-.368.129-.737.167-1.109a13.676,13.676,0,0,0,.024-2.038,1.663,1.663,0,0,1,.007-.342.519.519,0,0,1,.142-.3.453.453,0,0,1,.292-.111,1.53,1.53,0,0,1,.314.032c.245.04.492.065.732.127.151.039.3.093.45.134a2.049,2.049,0,0,0,.775.07,5.942,5.942,0,0,1,.831-.131,1.249,1.249,0,0,1,.34.059.712.712,0,0,1,.305.17.684.684,0,0,1,.139.227,1.369,1.369,0,0,1,.086.389,3.537,3.537,0,0,0,.031.352,1.153,1.153,0,0,0,.264.521,3.316,3.316,0,0,0,.419.393,5.575,5.575,0,0,0,.457.358c.075.05.152.1.223.153a.673.673,0,0,1,.182.2.528.528,0,0,1,.051.357" transform="translate(-498.692 -362.86)" fill="url(#linear-gradient-3)"/>
    </clipPath>
    <linearGradient id="linear-gradient-13" x1="5.974" y1="0.141" x2="5.948" y2="1.571" gradientUnits="objectBoundingBox">
      <stop offset="0" stop-color="#f3cd0c"/>
      <stop offset="1" stop-color="#f3cd0c" stop-opacity="0"/>
    </linearGradient>
    <radialGradient id="radial-gradient-13" cx="0.446" cy="0.43" r="0.782" gradientTransform="matrix(0.827, 0.259, -0.233, 1.014, 1.748, -2.479)" gradientUnits="objectBoundingBox">
      <stop offset="0" stop-color="#110800"/>
      <stop offset="0.591" stop-color="#a65a00" stop-opacity="0.8"/>
      <stop offset="1" stop-color="#ff921e" stop-opacity="0"/>
    </radialGradient>
    <clipPath id="clip-path-8">
      <path id="Path_17714" data-name="Path 17714" d="M353.144,277.822a.543.543,0,0,0-.147-.213.785.785,0,0,0-.221-.137,2.427,2.427,0,0,0-.506-.126c-.161-.03-.322-.067-.483-.095a1.319,1.319,0,0,0-.508-.009.868.868,0,0,0-.39.209,1.114,1.114,0,0,0-.258.362,1.563,1.563,0,0,0-.122.77.931.931,0,0,0,.193.544.843.843,0,0,0,.4.238,1.362,1.362,0,0,0,.8-.011,2.117,2.117,0,0,0,1.061-.8,1.167,1.167,0,0,0,.189-.4.6.6,0,0,0-.013-.334" transform="translate(-350.501 -277.222)" fill="none" stroke="#ce5c00" stroke-width="1"/>
    </clipPath>
    <radialGradient id="radial-gradient-15" cx="0.858" cy="0.401" r="0.494" gradientTransform="matrix(0.429, 0.399, -0.086, 0.424, 0.363, -1.406)" gradientUnits="objectBoundingBox">
      <stop offset="0" stop-color="#7c7c7c"/>
      <stop offset="1" stop-color="#7c7c7c" stop-opacity="0.329"/>
    </radialGradient>
    <linearGradient id="linear-gradient-14" x1="0.23" y1="0.179" x2="0.316" y2="0.172" gradientTransform="matrix(1, 0, 0, 1, 0, 0)" xlink:href="#radial-gradient-15"/>
    <clipPath id="clip-path-10">
      <path id="Path_17719" data-name="Path 17719" d="M204.123,184.612q-.289.382-.585.759-.315.4-.636.8a4.821,4.821,0,0,0-.7,1.032,7.88,7.88,0,0,0-.316,1.026,7.767,7.767,0,0,1-.442,1.136c-.16.34-.337.671-.514,1a2.518,2.518,0,0,0-.3.757,1.555,1.555,0,0,0,.04.642,2.964,2.964,0,0,0,.24.6,5.9,5.9,0,0,0,1.8,2.068,6.307,6.307,0,0,0,1.081.631,1.66,1.66,0,0,0,.65.182.79.79,0,0,0,.331-.062.588.588,0,0,0,.258-.214.616.616,0,0,0,.086-.4.958.958,0,0,0-.142-.389,2.811,2.811,0,0,0-.726-.709q-.871-.675-1.68-1.425a2.2,2.2,0,0,1-.41-.465,1.743,1.743,0,0,1-.2-.57,3.16,3.16,0,0,1,.108-1.639c.072-.2.168-.4.261-.6a7.344,7.344,0,0,1,.522-1,12.193,12.193,0,0,0,.826-1.131,3.775,3.775,0,0,0,.323-1.134q.074-.448.129-.9" transform="translate(-200.609 -184.612)" fill="none" stroke="#729fcf" stroke-width="0.125"/>
    </clipPath>
    <clipPath id="clip-path-11">
      <path id="Path_17724" data-name="Path 17724" d="M99.994,280.431a.672.672,0,0,1,.378-.035.93.93,0,0,1,.351.15,2.232,2.232,0,0,1,.52.561c.346.476.679.963.981,1.469.245.41.47.834.753,1.218.185.251.393.484.579.735a2.534,2.534,0,0,1,.432.823,1.652,1.652,0,0,1-.12,1.181,1.56,1.56,0,0,1-.576.618,1.484,1.484,0,0,1-.816.213,4,4,0,0,1-1.287-.411c-.858-.342-1.789-.449-2.673-.715-.272-.082-.539-.178-.812-.254a2.414,2.414,0,0,1-.36-.115.621.621,0,0,1-.286-.238.54.54,0,0,1-.069-.28.878.878,0,0,1,.057-.285c.066-.183.174-.349.246-.53a2.226,2.226,0,0,0,.123-.939c-.016-.318-.067-.633-.089-.95a1.644,1.644,0,0,1,.014-.425.638.638,0,0,1,.537-.546,1.725,1.725,0,0,1,.391-.025,3.754,3.754,0,0,0,.393,0,.9.9,0,0,0,.375-.105.887.887,0,0,0,.27-.254,3.116,3.116,0,0,0,.193-.319,2.049,2.049,0,0,1,.2-.313.774.774,0,0,1,.292-.227" transform="translate(-96.988 -280.384)" fill="#402c07"/>
    </clipPath>
    <linearGradient id="linear-gradient-15" x1="0.274" y1="0.224" x2="0.775" y2="1.074" gradientUnits="objectBoundingBox">
      <stop offset="0" stop-color="#b98309"/>
      <stop offset="1" stop-color="#382605"/>
    </linearGradient>
    <linearGradient id="linear-gradient-16" x1="0.576" y1="0.587" x2="1.147" y2="1.18" gradientUnits="objectBoundingBox">
      <stop offset="0" stop-color="#ebc40c"/>
      <stop offset="1" stop-color="#ebc40c" stop-opacity="0"/>
    </linearGradient>
  </defs>
  <g id="linux" transform="translate(-442 -81)" clip-path="url(#clip-path)">
    <g id="Linux-Logo.wine" transform="translate(445 82)">
      <path id="Path_17663" data-name="Path 17663" d="M53.246,62.6c.241.525.51,1.037.75,1.563a11.3,11.3,0,0,1,.955,3.184,7.5,7.5,0,0,1-.263,3.3,7.713,7.713,0,0,1-2.034,3.124,6.208,6.208,0,0,1-3.931,1.879,5.571,5.571,0,0,1-2.785-.689,6.34,6.34,0,0,1-1.9-1.5A5.137,5.137,0,0,1,42.944,71.3a5.346,5.346,0,0,1,.214-2.956c.24-.675.6-1.3.85-1.972a18.62,18.62,0,0,1,.8-2.2,20.319,20.319,0,0,0,1.1-1.82,9.144,9.144,0,0,0,.329-1.226,2.7,2.7,0,0,1,.524-1.145A2.1,2.1,0,0,1,48.1,59.32a4.53,4.53,0,0,1,1.518.134,10.367,10.367,0,0,1,1.17.339,3.768,3.768,0,0,1,.933.453,3.271,3.271,0,0,1,.912,1.071c.234.411.412.85.61,1.279Z" transform="translate(-39.654 -54.909)" fill="#020204"/>
      <path id="Path_17664" data-name="Path 17664" d="M117.455,237.976c.407.024.814.063,1.218.124q.532.08,1.056.208a8.081,8.081,0,0,0,1.653.317,1.792,1.792,0,0,0,.441-.035.981.981,0,0,0,.4-.183.938.938,0,0,0,.323-.562,1.4,1.4,0,0,0-.048-.654,5.428,5.428,0,0,0-.625-1.162c-.129-.217-.244-.443-.384-.653a1.848,1.848,0,0,0-.52-.544,1.575,1.575,0,0,0-1.006-.217,2.779,2.779,0,0,0-.992.321,2.521,2.521,0,0,0-1.082.963c-.083.149-.143.31-.213.465a1.479,1.479,0,0,1-.271.431c-.133.136-.3.228-.442.36a.67.67,0,0,0-.164.231.4.4,0,0,0-.012.279.378.378,0,0,0,.112.158.535.535,0,0,0,.17.095,1.4,1.4,0,0,0,.386.057Z" transform="translate(-108.121 -217.233)" fill="#020204"/>
      <path id="Path_17665" data-name="Path 17665" d="M50.623,20.717a5.642,5.642,0,0,0-1.008.137q-.477.1-.948.221a7,7,0,0,1-1.608.317,1.743,1.743,0,0,1-.43-.037.974.974,0,0,1-.389-.18.937.937,0,0,1-.322-.561,1.4,1.4,0,0,1,.047-.653A5.628,5.628,0,0,1,46.58,18.8c.125-.217.236-.442.372-.652a1.808,1.808,0,0,1,.508-.545,1.519,1.519,0,0,1,.98-.217,2.557,2.557,0,0,1,.964.322,2.7,2.7,0,0,1,1.053.963,9.916,9.916,0,0,0,.471.9,4.6,4.6,0,0,1,.333.431.635.635,0,0,1,.085.257.4.4,0,0,1-.062.26.4.4,0,0,1-.133.12.58.58,0,0,1-.169.061,1.976,1.976,0,0,1-.36.024Zm-1.9-14.136c-.048-.574-.036-1.151-.058-1.727-.021-.553-.072-1.107-.053-1.66a3.979,3.979,0,0,1,.364-1.639,2.768,2.768,0,0,1,1.154-1.2A3.17,3.17,0,0,1,51.669,0a3.532,3.532,0,0,1,2.024.648,3.605,3.605,0,0,1,.915.986,3.826,3.826,0,0,1,.468,1.051,11.094,11.094,0,0,1,.2,2.355,21.353,21.353,0,0,1,.117,2.24,1.2,1.2,0,0,1-.1.474.811.811,0,0,1-.328.335,1.3,1.3,0,0,1-.449.147c-.313.048-.633.016-.949.046-.458.042-.894.212-1.348.282a8.517,8.517,0,0,1-1.64,0c-.219-.009-.439-.011-.657-.039a1.809,1.809,0,0,1-.628-.183,1.123,1.123,0,0,1-.318-.248.874.874,0,0,1-.191-.354,2.377,2.377,0,0,1-.023-.606c0-.186-.021-.371-.036-.555Z" transform="translate(-42.498 0)" fill="#020204"/>
      <path id="Path_17666" data-name="Path 17666" d="M60.435,81.7a.88.88,0,0,0-.158.334,1.782,1.782,0,0,0-.046.369,3.258,3.258,0,0,1-.06.741,2.277,2.277,0,0,1-.382.695,4.211,4.211,0,0,0-.669,1.2,2.131,2.131,0,0,0-.078.827,8.743,8.743,0,0,0-.772,1.391,7.609,7.609,0,0,0-.626,2.321,5.925,5.925,0,0,0,.417,2.9A4.745,4.745,0,0,0,59.3,94.194a4.225,4.225,0,0,0,.9.6,4.047,4.047,0,0,0,3.627-.036,7.044,7.044,0,0,0,1.539-1.216,5.359,5.359,0,0,0,.783-.887A4.977,4.977,0,0,0,66.8,90.49a7.061,7.061,0,0,0-.416-3.913,4.317,4.317,0,0,0-.784-1.121,6.145,6.145,0,0,0-.5-1.669c-.176-.382-.39-.745-.553-1.132-.067-.159-.125-.322-.2-.477a1.434,1.434,0,0,0-.291-.425,1.2,1.2,0,0,0-.454-.264,1.976,1.976,0,0,0-.521-.089c-.353-.018-.706.028-1.059.014-.281-.011-.561-.06-.842-.044a1.293,1.293,0,0,0-.411.086A.829.829,0,0,0,60.435,81.7Z" transform="translate(-53.346 -75.34)" fill="#fdfdfb"/>
      <path id="Path_17667" data-name="Path 17667" d="M-32.548,152.646a2.1,2.1,0,0,0,.68.922,1.494,1.494,0,0,0,.323.209.764.764,0,0,0,.375.072.885.885,0,0,0,.355-.122c.11-.062.212-.137.318-.2.182-.116.378-.209.567-.313a3.266,3.266,0,0,0,.642-.441,2.908,2.908,0,0,1,.267-.237.527.527,0,0,1,.332-.111,1.864,1.864,0,0,1,.26.063.37.37,0,0,0,.133.007.206.206,0,0,0,.118-.058.207.207,0,0,0,.053-.151.368.368,0,0,0-.047-.156,2.01,2.01,0,0,1-.163-.284.845.845,0,0,1-.022-.29.58.58,0,0,0-.044-.286.37.37,0,0,0-.157-.153.568.568,0,0,0-.213-.059,2.967,2.967,0,0,0-.444.023c-.2.011-.394-.013-.591,0-.245.015-.486.086-.731.086a5.454,5.454,0,0,0-.837-.047,2.184,2.184,0,0,0-.346.1,1.074,1.074,0,0,1-.352.07c-.137,0-.269-.049-.405-.059a.479.479,0,0,0-.2.024.282.282,0,0,0-.153.129.271.271,0,0,0-.029.113.408.408,0,0,0,.013.116,1.8,1.8,0,0,0,.082.22C-32.662,152.091-32.64,152.379-32.548,152.646Z" transform="translate(39.464 -144.969)" fill="rgba(0,0,0,0.26)"/>
      <path id="Path_17668" data-name="Path 17668" d="M-54.421,142.9a2.843,2.843,0,0,1,.649.549,2.8,2.8,0,0,0,.541.565,1.192,1.192,0,0,0,.54.178,1.919,1.919,0,0,0,.673-.072,2.48,2.48,0,0,0,.576-.233,6.1,6.1,0,0,1,1-.6c.082-.028.167-.048.246-.082a.377.377,0,0,0,.191-.158.71.71,0,0,0,.047-.227c.013-.082.041-.161.057-.243a.378.378,0,0,0-.021-.244.33.33,0,0,0-.156-.142.566.566,0,0,0-.215-.049,3.459,3.459,0,0,0-.443.041c-.2.016-.394-.007-.591,0-.245.007-.486.058-.731.069-.279.012-.558-.029-.837-.038a1.891,1.891,0,0,0-.362.017.928.928,0,0,0-.337.118,3,3,0,0,0-.267.211.766.766,0,0,1-.145.092.445.445,0,0,1-.168.044c-.03,0-.061,0-.09,0a.2.2,0,0,0-.126.072.166.166,0,0,0-.031.133Z" transform="translate(60.985 -136.27)" opacity="0.3"/>
      <path id="Path_17669" data-name="Path 17669" d="M-32.557,113.353a.574.574,0,0,0-.355.158.8.8,0,0,0-.206.333,2.018,2.018,0,0,0-.046.786,2.316,2.316,0,0,0,.124.7.919.919,0,0,0,.191.3.656.656,0,0,0,.305.18.615.615,0,0,0,.332-.012.719.719,0,0,0,.285-.173.955.955,0,0,0,.241-.421,1.671,1.671,0,0,0,.056-.486,2.024,2.024,0,0,0-.094-.6,1.361,1.361,0,0,0-.309-.525.873.873,0,0,0-.237-.178.583.583,0,0,0-.287-.063Z" transform="translate(39.759 -110.063)" fill="url(#radial-gradient-3)"/>
      <path id="Path_17670" data-name="Path 17670" d="M.181,111.317a1.21,1.21,0,0,0-.463.574,1.41,1.41,0,0,0,.037.926A1.536,1.536,0,0,0,.3,113.6a1,1,0,0,0,.447.173.815.815,0,0,0,.47-.081.905.905,0,0,0,.39-.428,1.566,1.566,0,0,0,.129-.572,1.929,1.929,0,0,0-.093-.741,1.244,1.244,0,0,0-.479-.642.937.937,0,0,0-.378-.143.808.808,0,0,0-.4.045,1.014,1.014,0,0,0-.2.111Z" transform="translate(9.355 -108.027)" fill="url(#radial-gradient-4)"/>
      <path id="Path_17671" data-name="Path 17671" d="M-32.742,133.324q-.2.164-.38.347a.622.622,0,0,0-.164.23,1.534,1.534,0,0,0-.035.25.581.581,0,0,0-.011.086.144.144,0,0,0,.006.043.1.1,0,0,0,.021.037.117.117,0,0,0,.063.032c.024,0,.048.005.072.008a.661.661,0,0,1,.3.126c.089.062.171.133.263.192a1.371,1.371,0,0,0,.683.195,3.059,3.059,0,0,0,.713-.074,3.209,3.209,0,0,0,.55-.151,3.3,3.3,0,0,0,.749-.446,3.14,3.14,0,0,0,.306-.253c.032-.031.064-.064.1-.092a.357.357,0,0,1,.116-.067.433.433,0,0,1,.2,0,.753.753,0,0,0,.153.018.228.228,0,0,0,.076-.015.155.155,0,0,0,.063-.044.15.15,0,0,0,.033-.094.191.191,0,0,0-.027-.1.331.331,0,0,0-.156-.126,1.538,1.538,0,0,0-.267-.078,3.827,3.827,0,0,1-.8-.293c-.127-.063-.251-.133-.376-.2a2.212,2.212,0,0,0-.4-.177,1.568,1.568,0,0,0-.961.043,2.055,2.055,0,0,0-.886.606Z" transform="translate(39.9 -127.902)" opacity="0.3"/>
      <path id="Path_17672" data-name="Path 17672" d="M-20.752,127.584c.131-.147.22-.327.346-.478a.828.828,0,0,1,.221-.194.49.49,0,0,1,.283-.069.5.5,0,0,1,.291.139.888.888,0,0,1,.187.268,1.4,1.4,0,0,0,.147.278,1.428,1.428,0,0,0,.255.216.718.718,0,0,1,.121.116.359.359,0,0,1,.073.149.312.312,0,0,1-.014.168.376.376,0,0,1-.093.141.549.549,0,0,1-.306.137,6.06,6.06,0,0,1-.68-.029c-.23.006-.455.088-.685.079a.608.608,0,0,1-.326-.1.412.412,0,0,1-.118-.124.34.34,0,0,1-.05-.163.372.372,0,0,1,.033-.16.6.6,0,0,1,.088-.139c.07-.085.155-.156.228-.238Z" transform="translate(28.574 -122.553)" fill="url(#radial-gradient-5)"/>
      <path id="Path_17673" data-name="Path 17673" d="M317.673,104.522c-.19.134-.107.3-.025.469s-.18.652-.182.673a2.25,2.25,0,0,0,.655-.418c.166-.2.587.276.564.2C318.685,105.318,317.863,104.388,317.673,104.522Z" transform="translate(-307.287 -103.566)" fill="#7c7c7c"/>
      <path id="Path_17674" data-name="Path 17674" d="M128.7,52.806a.477.477,0,0,0-.218.073.575.575,0,0,0-.166.161.834.834,0,0,0-.133.44.927.927,0,0,0,.047.344.649.649,0,0,0,.193.286.56.56,0,0,0,.328.127.55.55,0,0,0,.338-.1.607.607,0,0,0,.186-.213.793.793,0,0,0,.084-.271.836.836,0,0,0-.08-.489.686.686,0,0,0-.365-.33A.516.516,0,0,0,128.7,52.806Z" transform="translate(-118.687 -48.894)" fill="#020204"/>
      <path id="Path_17675" data-name="Path 17675" d="M302.166,137.408c-.064.025-.166.009-.194.072a.1.1,0,0,0,.045.114.2.2,0,0,0,.226-.1.086.086,0,0,0-.04-.1C302.19,137.388,302.178,137.4,302.166,137.408Z" transform="translate(-291.97 -132.989)" fill="#141413"/>
      <path id="Path_17676" data-name="Path 17676" d="M302.487,133.569c.086-.086-.061-.314-.176-.407-.083-.068-.325-.138-.315-.065s.119.168.192.24C302.278,133.425,302.446,133.61,302.487,133.569Z" transform="translate(-291.997 -128.983)" fill="url(#linear-gradient-4)"/>
      <g id="Group_8846" data-name="Group 8846" transform="translate(9.011 3.126)" clip-path="url(#clip-path-2)">
        <path id="Path_17677" data-name="Path 17677" d="M74.083,105.786a1.756,1.756,0,0,1,.6-.326,1.66,1.66,0,0,1,1.361.168,4.783,4.783,0,0,1,.388.3,1.485,1.485,0,0,0,.417.25.6.6,0,0,0,.259.037.482.482,0,0,0,.221-.083.563.563,0,0,0,.162-.173.759.759,0,0,0,.095-.459,2.391,2.391,0,0,0-.357-.877,2.608,2.608,0,0,0-.148-.259,1.438,1.438,0,0,0-.739-.515,4.63,4.63,0,0,0-.9-.17,1.67,1.67,0,0,0-.407-.019,3.608,3.608,0,0,0-.454.12c-.072.018-.145.031-.217.052a.572.572,0,0,0-.2.1A.482.482,0,0,0,74,104.2a.881.881,0,0,0,0,.324,3.412,3.412,0,0,1,.106.641c-.005.149-.052.3-.046.444a.637.637,0,0,0,.019.13" transform="translate(-74.335 -104.872)" fill="url(#linear-gradient-5)"/>
      </g>
      <path id="Path_17679" data-name="Path 17679" d="M15.249,105.125a.762.762,0,0,0-.093.146,1.308,1.308,0,0,1,.447.19,1.8,1.8,0,0,1,.6.713.738.738,0,0,0,.088-.118,1.813,1.813,0,0,0-.616-.743,1.316,1.316,0,0,0-.428-.188Z" transform="translate(-4.998 -102.445)" fill="url(#linear-gradient-6)"/>
      <path id="Path_17680" data-name="Path 17680" d="M-26.069,107.08c-.018,0-.035,0-.053,0l-.035,0a.958.958,0,0,1,.3.08,1.26,1.26,0,0,1,.342.234,1.749,1.749,0,0,1,.417.615,1.54,1.54,0,0,0-.153-.493,1.594,1.594,0,0,0-.116-.122,1.258,1.258,0,0,0-.342-.234A.938.938,0,0,0-26.069,107.08Z" transform="translate(33.256 -104.255)" fill="url(#linear-gradient-7)"/>
      <path id="Path_17681" data-name="Path 17681" d="M92.721,54.11a1,1,0,0,0,.029.5.835.835,0,0,0,.176.281.584.584,0,0,0,.172.133.318.318,0,0,0,.213.027.314.314,0,0,0,.164-.111.539.539,0,0,0,.09-.179,1,1,0,0,0-.009-.587.765.765,0,0,0-.224-.365.445.445,0,0,0-.182-.1.317.317,0,0,0-.2.016.35.35,0,0,0-.159.16.732.732,0,0,0-.066.219Z" transform="translate(-85.838 -49.728)" fill="#020204"/>
      <path id="Path_17682" data-name="Path 17682" d="M164.581,134.122c.018.047.078.064.111.1a.427.427,0,0,1,.083.12c.034.087-.033.216.037.278a.073.073,0,0,0,.088,0c.085-.077.066-.233.032-.343a.415.415,0,0,0-.2-.241c-.043-.022-.107-.04-.144-.009A.088.088,0,0,0,164.581,134.122Z" transform="translate(-157.346 -129.86)" fill="url(#linear-gradient-8)"/>
      <g id="Group_8847" data-name="Group 8847" transform="translate(6.566 4.79)">
        <path id="Path_17683" data-name="Path 17683" d="M45.752,155.113a.2.2,0,0,0,.024.062.287.287,0,0,0,.079.082c.031.023.065.041.1.062a1.756,1.756,0,0,1,.439.423,2.756,2.756,0,0,0,.541.614,1.14,1.14,0,0,0,.54.194,1.77,1.77,0,0,0,.673-.078,2.376,2.376,0,0,0,.576-.253,6.035,6.035,0,0,1,1-.656c.082-.03.167-.052.246-.089a.386.386,0,0,0,.191-.172.829.829,0,0,0,.047-.246c.013-.089.041-.175.057-.263a.442.442,0,0,0-.021-.264.341.341,0,0,0-.156-.154.528.528,0,0,0-.215-.053,3.183,3.183,0,0,0-.443.044c-.2.018-.394-.007-.591,0-.245.007-.486.063-.731.074-.279.014-.558-.03-.837-.041a1.733,1.733,0,0,0-.362.017.838.838,0,0,0-.336.13,3.2,3.2,0,0,0-.264.236.68.68,0,0,1-.146.1.376.376,0,0,1-.171.041.278.278,0,0,0-.09,0,.123.123,0,0,0-.048.03.279.279,0,0,0-.035.044A.779.779,0,0,0,45.752,155.113Z" transform="translate(-45.744 -153.453)" fill="url(#radial-gradient-6)"/>
        <path id="Path_17684" data-name="Path 17684" d="M60.389,167.637a.491.491,0,0,0,.322.581.584.584,0,0,0,.448-.047.489.489,0,0,0,.2-.177.334.334,0,0,0,.045-.126.276.276,0,0,0-.014-.132.287.287,0,0,0-.085-.118.386.386,0,0,0-.128-.07.8.8,0,0,0-.291-.027,2.877,2.877,0,0,0-.442.056" transform="translate(-59.285 -165.676)" fill="#d9b30d"/>
        <path id="Path_17685" data-name="Path 17685" d="M48.411,151.821c-.1.059-.195.123-.289.19a.353.353,0,0,0-.124.126.294.294,0,0,0-.023.124,1.076,1.076,0,0,1,0,.127c0,.029-.011.057-.013.086a.14.14,0,0,0,0,.043.089.089,0,0,0,.02.038.108.108,0,0,0,.048.027c.018.005.036.008.054.012a.538.538,0,0,1,.229.134c.066.06.126.127.2.183a1.1,1.1,0,0,0,.678.22,3.053,3.053,0,0,0,.718-.1,4.328,4.328,0,0,0,.55-.151,2.425,2.425,0,0,0,.749-.446,2.571,2.571,0,0,1,.306-.253c.1-.062.211-.1.312-.163A.206.206,0,0,0,51.85,152a.077.077,0,0,0,.02-.024.073.073,0,0,0,0-.053.141.141,0,0,0-.027-.047.327.327,0,0,0-.042-.043.668.668,0,0,0-.387-.134c-.138-.011-.278,0-.415-.026a2.7,2.7,0,0,1-.376-.109,2.765,2.765,0,0,0-.4-.1,2.641,2.641,0,0,0-.961.024A2.809,2.809,0,0,0,48.411,151.821Z" transform="translate(-47.787 -150.78)" fill="#604405"/>
        <path id="Path_17686" data-name="Path 17686" d="M46.242,143.324a1.76,1.76,0,0,0-.38.347.825.825,0,0,0-.15.253,1.911,1.911,0,0,0-.049.227.424.424,0,0,0-.013.086.14.14,0,0,0,.006.043.1.1,0,0,0,.022.037.12.12,0,0,0,.064.032c.024,0,.048.006.072.008a.668.668,0,0,1,.3.126c.089.061.172.133.263.191a1.375,1.375,0,0,0,.683.194,3.051,3.051,0,0,0,.713-.074,3.2,3.2,0,0,0,.55-.151,3.3,3.3,0,0,0,.749-.446,3.138,3.138,0,0,0,.306-.253c.032-.031.064-.064.1-.092a.358.358,0,0,1,.116-.067.433.433,0,0,1,.2,0,.746.746,0,0,0,.153.018.228.228,0,0,0,.076-.015.155.155,0,0,0,.063-.044.15.15,0,0,0,.033-.094.191.191,0,0,0-.027-.1.331.331,0,0,0-.156-.126,1.538,1.538,0,0,0-.267-.078,3.827,3.827,0,0,1-.8-.293c-.127-.063-.251-.133-.376-.2a2.212,2.212,0,0,0-.4-.177,1.568,1.568,0,0,0-.961.043,2.055,2.055,0,0,0-.886.606Z" transform="translate(-45.65 -142.618)" fill="url(#linear-gradient-9)"/>
        <path id="Path_17687" data-name="Path 17687" d="M71.888,152.451a.133.133,0,0,0-.067-.044.179.179,0,0,0-.08,0,.374.374,0,0,0-.146.069,1.653,1.653,0,0,0-.336.313,1.2,1.2,0,0,0-.272.539.344.344,0,0,0-.006.1.157.157,0,0,0,.041.092.141.141,0,0,0,.08.039.193.193,0,0,0,.089-.009.448.448,0,0,0,.149-.1,1.765,1.765,0,0,0,.56-.806.361.361,0,0,0,.016-.1A.152.152,0,0,0,71.888,152.451Z" transform="translate(-69.104 -151.676)" fill="#f6da4a"/>
        <path id="Path_17688" data-name="Path 17688" d="M75.238,145.982c.017.055.106.046.157.072s.081.074.132.075.123-.017.13-.064c.008-.063-.084-.1-.143-.127a.3.3,0,0,0-.246-.005C75.25,145.943,75.233,145.964,75.238,145.982Z" transform="translate(-73.046 -145.666)" opacity="0.8" fill="url(#radial-gradient-7)"/>
        <path id="Path_17689" data-name="Path 17689" d="M62,146.437c-.066-.021-.175.095-.139.154.01.016.04.037.06.026s.055-.076.088-.1S62.027,146.446,62,146.437Z" transform="translate(-60.655 -146.152)" opacity="0.8" fill="url(#radial-gradient-8)"/>
        <ellipse id="Ellipse_1653" data-name="Ellipse 1653" cx="0.214" cy="0.259" rx="0.214" ry="0.259" transform="translate(4.093 0.891) rotate(8.829)" fill="url(#linear-gradient-10)"/>
      </g>
      <g id="Group_8848" data-name="Group 8848" transform="translate(6.579 3.289)" clip-path="url(#clip-path-3)">
        <path id="Path_17690" data-name="Path 17690" d="M16.275,109.953a1.108,1.108,0,0,1,.671-.124,4.053,4.053,0,0,1,.677.15,2.925,2.925,0,0,1,.483.158.843.843,0,0,1,.381.326c.014.024.026.048.04.071a.22.22,0,0,0,.053.061.117.117,0,0,0,.076.026.085.085,0,0,0,.039-.011.073.073,0,0,0,.028-.029.088.088,0,0,0,.009-.046.218.218,0,0,0-.009-.046,2.809,2.809,0,0,0-.288-.563c-.06-.112-.109-.229-.17-.34a2.169,2.169,0,0,0-.941-.877,3.232,3.232,0,0,0-1.259-.314,6.513,6.513,0,0,0-1.506.118,1.951,1.951,0,0,0-.625.19.854.854,0,0,0-.251.208.623.623,0,0,0-.132.3.64.64,0,0,0,.037.311.965.965,0,0,0,.16.271,4,4,0,0,0,.461.432,4.368,4.368,0,0,0,.479.412,1.01,1.01,0,0,0,.285.134.67.67,0,0,0,.313.015.729.729,0,0,0,.293-.141,1.591,1.591,0,0,0,.233-.229A2.04,2.04,0,0,1,16.275,109.953Z" transform="translate(-15.936 -109.422)" fill="url(#radial-gradient-9)"/>
      </g>
      <path id="Path_17692" data-name="Path 17692" d="M164.822,105.32a2.371,2.371,0,0,1,.825,1.481,3.586,3.586,0,0,1-.076,1.343,10.946,10.946,0,0,1-.41,1.289,2.543,2.543,0,0,0-.148.518.858.858,0,0,0,.077.525.8.8,0,0,0,.48.365,1.153,1.153,0,0,0,.6.008,1.473,1.473,0,0,0,.543-.27,2.162,2.162,0,0,0,.75-1.319,4.349,4.349,0,0,0-.037-1.543,10.4,10.4,0,0,0-.584-2.03,5.812,5.812,0,0,0-.725-1.372c-.3-.406-.689-.747-.988-1.158a6.907,6.907,0,0,0-.623-.854,1.271,1.271,0,0,0-.434-.3.828.828,0,0,0-.519-.035.818.818,0,0,0-.5.45,1.18,1.18,0,0,0-.076.683,2.438,2.438,0,0,0,.337.829,2.975,2.975,0,0,0,.632.789C164.218,104.949,164.547,105.1,164.822,105.32Z" transform="translate(-150.891 -94.395)" fill="#020204"/>
      <g id="Group_8849" data-name="Group 8849" transform="translate(12.067 7.55)" clip-path="url(#clip-path-4)">
        <path id="Path_17693" data-name="Path 17693" d="M296.035,216.018c.037.035.074.07.113.1.276.226.424.48.7.7a2.807,2.807,0,0,1,1.014,1.56,2.884,2.884,0,0,1-.136,1.214,18.626,18.626,0,0,1-.609,1.777c-.069.2.14.119.113.332a1.291,1.291,0,0,0,0,.315c0-.02,0-.041.005-.061a3.872,3.872,0,0,1,.219-.844c.187-.528.4-1.044.548-1.585a2.972,2.972,0,0,0,.054-1.4,2.348,2.348,0,0,0-.919-1.481C296.8,216.4,296.4,216.239,296.035,216.018Z" transform="translate(-295.232 -213.342)" fill="#838384"/>
      </g>
      <path id="Path_17695" data-name="Path 17695" d="M-82.14,202.134c.075.113-.047.5,1.707.253a6.044,6.044,0,0,0-.611.1,4.369,4.369,0,0,0-1.2.568c-.314.231-.544.533-.833.792,0,0,.467-.853.583-1.11s-.019-.245.073-.623a2.961,2.961,0,0,1,.317-.741S-82.288,201.911-82.14,202.134Z" transform="translate(87.985 -192.235)" opacity="0.25" fill="url(#radial-gradient-10)"/>
      <path id="Path_17696" data-name="Path 17696" d="M.452,190.6a1.717,1.717,0,0,1-1,.268c-.434.049-1.607.031-1.607.031a3.1,3.1,0,0,1,.546.067,10.442,10.442,0,0,1,1.577.3,4.089,4.089,0,0,1,.853.378c.374.237.649.607,1.006.866a1.28,1.28,0,0,0-.127-.6,5.577,5.577,0,0,1-.647-1.04,7.053,7.053,0,0,1-.168-1.121,1.386,1.386,0,0,1-.433.849Z" transform="translate(11.031 -180.805)" opacity="0.42" fill="url(#radial-gradient-11)"/>
      <path id="Path_17697" data-name="Path 17697" d="M-22.669,194.04q-.02.162-.052.322a.891.891,0,0,1-.041.155.347.347,0,0,1-.087.133.466.466,0,0,1-.12.073,1.8,1.8,0,0,1-.526.15q.109.008.217.02a.965.965,0,0,1,.136.022.362.362,0,0,1,.125.056.339.339,0,0,1,.1.115.744.744,0,0,1,.072.29,2.357,2.357,0,0,1,0,.384,1.187,1.187,0,0,1,.053-.252,1.094,1.094,0,0,1,.231-.4.867.867,0,0,1,.138-.122.762.762,0,0,1,.536-.13.832.832,0,0,1-.533-.166.691.691,0,0,1-.191-.215.6.6,0,0,1-.056-.434Z" transform="translate(30.792 -184.775)" opacity="0.2" fill="url(#radial-gradient-12)"/>
      <path id="Path_17698" data-name="Path 17698" d="M-22.1,228.08a6.57,6.57,0,0,0-.187,1.057c-.047.5-.036,1.013-.063,1.518a5.676,5.676,0,0,0,0,1.287,2.21,2.21,0,0,0,.189.583,1.987,1.987,0,0,0,.031-.213,6.983,6.983,0,0,0-.046-1.032,16.071,16.071,0,0,1,.083-1.81,11.061,11.061,0,0,0-.009-1.391Z" transform="translate(29.767 -216.294)" opacity="0.11"/>
      <path id="Path_17699" data-name="Path 17699" d="M37.011,157.5c-.16.146.075.365.187.622.069.16.261.386.447.349.14-.027.226-.228.213-.37-.025-.273-.256-.337-.423-.431-.133-.074-.31-.274-.423-.171Z" transform="translate(-25.183 -150.918)" fill="#838384"/>
      <path id="Path_17700" data-name="Path 17700" d="M22.31,298.957a1.216,1.216,0,0,1-.156.327,2.247,2.247,0,0,1-.588.546c-.373.264-.761.506-1.107.806a5.552,5.552,0,0,0-.641.664,6.392,6.392,0,0,1-.517.6,1.806,1.806,0,0,1-.666.41,1.613,1.613,0,0,1-.9.019.931.931,0,0,1-.522-.3,1.092,1.092,0,0,1-.18-.6,6.7,6.7,0,0,1,.061-1.153c.034-.32.066-.641.079-.961a9.661,9.661,0,0,0-.094-1.724,1.3,1.3,0,0,1-.02-.288.419.419,0,0,1,.349-.405,1.333,1.333,0,0,1,.266-.024,5.45,5.45,0,0,1,.623,0c.13.011.256.035.386.048a1.739,1.739,0,0,0,.656-.054,5.459,5.459,0,0,1,.692-.232,1.011,1.011,0,0,1,.289,0,.545.545,0,0,1,.266.1.493.493,0,0,1,.13.172,1.083,1.083,0,0,1,.094.316,2.779,2.779,0,0,0,.045.293.859.859,0,0,0,.248.4,2.407,2.407,0,0,0,.377.277,4.245,4.245,0,0,0,.4.235c.066.032.134.062.2.1a.51.51,0,0,1,.164.143.406.406,0,0,1,.063.294" transform="translate(-5.346 -280.429)" opacity="0.2" fill="url(#linear-gradient-11)"/>
      <g id="Group_8850" data-name="Group 8850" transform="translate(12.05 15.394)" clip-path="url(#clip-path-5)">
        <path id="Path_17701" data-name="Path 17701" d="M436.088,289.219a1.253,1.253,0,0,1-.209.351,2.276,2.276,0,0,1-.733.52,14.49,14.49,0,0,0-1.364.72,5.6,5.6,0,0,0-.8.647,6.436,6.436,0,0,1-.654.594,1.88,1.88,0,0,1-.814.344,1.95,1.95,0,0,1-1.059-.16,1.27,1.27,0,0,1-.59-.461,1.385,1.385,0,0,1-.165-.735,7.649,7.649,0,0,1,.161-1.338c.065-.368.127-.737.167-1.109a11.408,11.408,0,0,0,.024-2.038,1.55,1.55,0,0,1,0-.341.433.433,0,0,1,.441-.4,1.584,1.584,0,0,1,.314.026,6.631,6.631,0,0,1,.732.127c.151.04.3.093.45.134a2.063,2.063,0,0,0,.775.071,6.029,6.029,0,0,1,.831-.131,1.228,1.228,0,0,1,.34.059.725.725,0,0,1,.305.17.671.671,0,0,1,.139.227,1.374,1.374,0,0,1,.086.389,3.37,3.37,0,0,0,.031.353,1.157,1.157,0,0,0,.261.514,3.322,3.322,0,0,0,.422.4c.148.124.3.248.457.358.075.051.152.1.223.156a.7.7,0,0,1,.181.2.5.5,0,0,1,.051.357Z" transform="translate(-429.696 -285.807)" fill="url(#linear-gradient)"/>
      </g>
      <g id="Group_8851" data-name="Group 8851" transform="translate(12.05 15.394)" clip-path="url(#clip-path-5)">
        <path id="Path_17703" data-name="Path 17703" d="M439.907,290.363a1.133,1.133,0,0,1-.19.315,2.064,2.064,0,0,1-.669.467,13.12,13.12,0,0,0-1.246.647,5.105,5.105,0,0,0-.734.582,5.894,5.894,0,0,1-.6.534,1.73,1.73,0,0,1-.743.31,1.809,1.809,0,0,1-.967-.144,1.15,1.15,0,0,1-.539-.415,1.237,1.237,0,0,1-.151-.661,6.712,6.712,0,0,1,.147-1.2c.06-.331.117-.663.153-1a10.47,10.47,0,0,0,.022-1.832,1.392,1.392,0,0,1,0-.307.393.393,0,0,1,.4-.364,1.456,1.456,0,0,1,.287.024,6.365,6.365,0,0,1,.669.114c.138.036.273.084.411.121a1.909,1.909,0,0,0,.708.063,5.529,5.529,0,0,1,.759-.118,1.149,1.149,0,0,1,.31.053.655.655,0,0,1,.279.153.634.634,0,0,1,.127.2.961.961,0,0,1,.079.349,3.269,3.269,0,0,0-.008.376.714.714,0,0,0,.111.282,2.258,2.258,0,0,0,.187.241,2.442,2.442,0,0,0,.414.419c.182.131.4.208.585.331a.557.557,0,0,1,.149.132.352.352,0,0,1,.046.321Z" transform="translate(-433.746 -287.185)" fill="#cd8907"/>
      </g>
      <g id="Group_8852" data-name="Group 8852" transform="translate(12.05 15.389)" clip-path="url(#clip-path-7)">
        <path id="Path_17705" data-name="Path 17705" d="M511.875,361.777a1.379,1.379,0,0,1-.2.319,1.621,1.621,0,0,1-.688.472c-.427.161-.893.183-1.312.367a4.532,4.532,0,0,0-.718.44,3.619,3.619,0,0,1-.587.343,3.008,3.008,0,0,1-.73.2,2.24,2.24,0,0,1-.478.035,1.033,1.033,0,0,1-.461-.128.646.646,0,0,1-.26-.266.935.935,0,0,1-.073-.424c0-.388.087-.771.084-1.158,0-.337-.069-.67-.088-1.007a14.719,14.719,0,0,0-.02-1.941,1.539,1.539,0,0,1-.045-.307.444.444,0,0,1,.027-.152.281.281,0,0,1,.087-.122.252.252,0,0,1,.112-.048.372.372,0,0,1,.121,0,1.816,1.816,0,0,1,.235.067c.224.067.46.065.687.115.143.031.281.083.422.122a1.918,1.918,0,0,0,.727.064,5.588,5.588,0,0,1,.78-.119,1.226,1.226,0,0,1,.319.054.654.654,0,0,1,.286.154.673.673,0,0,1,.131.206.876.876,0,0,1,.081.353c0,.064-.01.127-.016.19a.577.577,0,0,0,.008.19.5.5,0,0,0,.083.168c.036.051.077.1.115.146a3.206,3.206,0,0,1,.262.455,1.42,1.42,0,0,0,.3.422,4.177,4.177,0,0,0,.6.334.512.512,0,0,1,.154.133.358.358,0,0,1,.062.156.369.369,0,0,1-.015.169Z" transform="translate(-505.739 -358.723)" fill="#f5c021"/>
      </g>
      <path id="Path_17707" data-name="Path 17707" d="M26.491,288.5c.243-.066.449.118.625.257a.646.646,0,0,0,.417.077c.231-.008.461.039.692.01.455-.039.9-.15,1.358-.17a1.034,1.034,0,0,1,.652.1c.076.053.189.277.264.193a.638.638,0,0,0-.44-.526c-.183-.029-.37.022-.555.005-.55-.013-1.1-.115-1.647-.086-.383,0-.766-.014-1.149-.029-.15-.031-.2.1-.285.154" transform="translate(-13.877 -272.749)" fill="url(#linear-gradient-13)"/>
      <path id="Path_17708" data-name="Path 17708" d="M182.723,152.285c.088-.014.631.448.556.619s-.214.068-.313.069-.373.125-.418.047.121-.261.208-.413C182.826,152.484,182.635,152.3,182.723,152.285Z" transform="translate(-169.022 -141.007)" fill="#7c7c7c" opacity="0.75"/>
      <path id="Path_17709" data-name="Path 17709" d="M77.721,111.831c-.009-.106-.161-.122-.228-.069s-.111.2-.061.258C77.512,112.116,77.733,111.976,77.721,111.831Z" transform="translate(-71.679 -103.457)" fill="#7c7c7c" opacity="0.25"/>
      <path id="Path_17710" data-name="Path 17710" d="M40.463,291.46a.394.394,0,0,0-.2-.178.682.682,0,0,0-.269-.046c-.183,0-.365.049-.548.033a3.046,3.046,0,0,1-.451-.108.956.956,0,0,0-.474-.011.7.7,0,0,0-.4.3.941.941,0,0,0-.13.428,2.5,2.5,0,0,0,.016.451,2.31,2.31,0,0,0,.049.323.856.856,0,0,0,.131.3.8.8,0,0,0,.375.272,1.043,1.043,0,0,0,.75-.013,2.069,2.069,0,0,0,.99-.911,1.941,1.941,0,0,0,.176-.457.849.849,0,0,0,.028-.193.408.408,0,0,0-.04-.189Z" transform="translate(-24.578 -275.337)" opacity="0.35" fill="url(#radial-gradient-13)"/>
      <path id="Path_17711" data-name="Path 17711" d="M40.463,210.705a.381.381,0,0,0-.2-.129.92.92,0,0,0-.269-.033c-.183,0-.365.036-.548.024a4.043,4.043,0,0,1-.451-.078,1.313,1.313,0,0,0-.474-.008.721.721,0,0,0-.4.217.555.555,0,0,0-.13.309,1.313,1.313,0,0,0,.016.326,1.246,1.246,0,0,0,.049.233.552.552,0,0,0,.131.215.842.842,0,0,0,.375.2,1.42,1.42,0,0,0,.75-.009,1.964,1.964,0,0,0,.99-.658,1.2,1.2,0,0,0,.176-.33.458.458,0,0,0,.028-.139.229.229,0,0,0-.04-.137Z" transform="translate(-24.578 -194.668)" opacity="0.35" fill="url(#radial-gradient-13)"/>
      <path id="Path_17712" data-name="Path 17712" d="M186.156,199.885a.544.544,0,0,0-.147-.213.785.785,0,0,0-.221-.137,2.433,2.433,0,0,0-.506-.126c-.161-.03-.321-.067-.483-.095a1.318,1.318,0,0,0-.508-.009.868.868,0,0,0-.39.209,1.115,1.115,0,0,0-.258.362,1.563,1.563,0,0,0-.122.77.93.93,0,0,0,.193.544.842.842,0,0,0,.4.238,1.362,1.362,0,0,0,.8-.011,2.117,2.117,0,0,0,1.061-.8,1.168,1.168,0,0,0,.189-.4.6.6,0,0,0-.013-.334Z" transform="translate(-169.922 -184.527)" fill="#020204"/>
      <g id="Group_8853" data-name="Group 8853" transform="translate(13.591 14.759)" clip-path="url(#clip-path-8)">
        <path id="Path_17713" data-name="Path 17713" d="M351.337,276.432a.978.978,0,0,0-.12.014.906.906,0,0,0-.748.963.829.829,0,0,1,.1-.368.757.757,0,0,1,.514-.375,1.331,1.331,0,0,1,.4.007c.128.016.258.033.384.06a1.517,1.517,0,0,1,.553.222.539.539,0,0,1,.1.093.274.274,0,0,1,.063.123.293.293,0,0,1-.039.2.743.743,0,0,1-.127.16q-.06.058-.123.113a1.388,1.388,0,0,0,.539-.2.537.537,0,0,0,.167-.174.33.33,0,0,0,.037-.236.345.345,0,0,0-.079-.144.7.7,0,0,0-.125-.106,1.482,1.482,0,0,0-.671-.257q-.231-.043-.465-.072a2.058,2.058,0,0,0-.368-.021Z" transform="translate(-350.469 -276.489)" fill="url(#radial-gradient-15)"/>
      </g>
      <g id="Group_8854" data-name="Group 8854" transform="translate(13.591 14.759)" clip-path="url(#clip-path-8)">
        <path id="Path_17715" data-name="Path 17715" d="M351.337,276.432a.978.978,0,0,0-.12.014.906.906,0,0,0-.748.963.829.829,0,0,1,.1-.368.757.757,0,0,1,.514-.375,1.331,1.331,0,0,1,.4.007c.128.016.258.033.384.06a1.517,1.517,0,0,1,.553.222.539.539,0,0,1,.1.093.274.274,0,0,1,.063.123.293.293,0,0,1-.039.2.743.743,0,0,1-.127.16q-.06.058-.123.113a1.388,1.388,0,0,0,.539-.2.537.537,0,0,0,.167-.174.33.33,0,0,0,.037-.236.345.345,0,0,0-.079-.144.7.7,0,0,0-.125-.106,1.482,1.482,0,0,0-.671-.257q-.231-.043-.465-.072a2.058,2.058,0,0,0-.368-.021Z" transform="translate(-350.469 -276.489)" fill="url(#linear-gradient-14)"/>
      </g>
      <path id="Path_17717" data-name="Path 17717" d="M37.167,106.487l-.617.773c-.212.266-.423.532-.636.8a4.866,4.866,0,0,0-.7,1.032,7.858,7.858,0,0,0-.316,1.026,7.767,7.767,0,0,1-.442,1.136c-.16.34-.337.671-.514,1a2.516,2.516,0,0,0-.3.757,1.555,1.555,0,0,0,.04.642,2.964,2.964,0,0,0,.24.6,5.9,5.9,0,0,0,1.8,2.068,6.306,6.306,0,0,0,1.081.631,1.661,1.661,0,0,0,.65.182.793.793,0,0,0,.331-.062.589.589,0,0,0,.258-.214.616.616,0,0,0,.086-.4.958.958,0,0,0-.142-.389,2.811,2.811,0,0,0-.726-.709c-.581-.45-1.142-.924-1.68-1.425a2.195,2.195,0,0,1-.41-.465,1.743,1.743,0,0,1-.2-.57,3.16,3.16,0,0,1,.108-1.639c.072-.2.168-.4.261-.6a7.288,7.288,0,0,1,.522-1,11.677,11.677,0,0,0,.826-1.131,4,4,0,0,0,.323-1.134Q37.088,106.943,37.167,106.487Z" transform="translate(-31.131 -98.601)" fill="#020204"/>
      <g id="Group_8855" data-name="Group 8855" transform="translate(2.49 7.9)" clip-path="url(#clip-path-10)">
        <path id="Path_17718" data-name="Path 17718" d="M213.789,222.316a2.444,2.444,0,0,0-.441.542,7.369,7.369,0,0,0-.458,1.058,2.611,2.611,0,0,0-.246.819c-.008.147.014.294.019.441a.816.816,0,0,1-.081.428.519.519,0,0,1-.276.233.82.82,0,0,1,.4.286c.082.111.135.241.207.359a.95.95,0,0,0,.218.255.625.625,0,0,0,.3.134.538.538,0,0,0,.427-.136,10.019,10.019,0,0,1,.381-3.984,1.127,1.127,0,0,0,.057-.247.355.355,0,0,0-.061-.241.261.261,0,0,0-.446.054Z" transform="translate(-211.44 -219.379)" fill="#7c7c7c" opacity="0.95"/>
      </g>
      <g id="Group_8856" data-name="Group 8856" transform="translate(0 14.993)" clip-path="url(#clip-path-11)">
        <path id="Path_17720" data-name="Path 17720" d="M99.994,280.431a.672.672,0,0,1,.378-.035.93.93,0,0,1,.351.15,2.232,2.232,0,0,1,.52.561c.346.476.679.963.981,1.469.245.41.47.834.753,1.218.185.251.393.484.579.735a2.534,2.534,0,0,1,.432.823,1.652,1.652,0,0,1-.12,1.181,1.56,1.56,0,0,1-.576.618,1.484,1.484,0,0,1-.816.213,4,4,0,0,1-1.287-.411c-.858-.342-1.789-.449-2.673-.715-.272-.082-.539-.178-.812-.254a2.414,2.414,0,0,1-.36-.115.621.621,0,0,1-.286-.238.54.54,0,0,1-.069-.28.878.878,0,0,1,.057-.285c.066-.183.174-.349.246-.53a2.226,2.226,0,0,0,.123-.939c-.016-.318-.067-.633-.089-.95a1.644,1.644,0,0,1,.014-.425.638.638,0,0,1,.537-.546,1.725,1.725,0,0,1,.391-.025,3.754,3.754,0,0,0,.393,0,.9.9,0,0,0,.375-.105.887.887,0,0,0,.27-.254,3.116,3.116,0,0,0,.193-.319,2.049,2.049,0,0,1,.2-.313.774.774,0,0,1,.292-.227Z" transform="translate(-96.988 -280.384)" fill="url(#linear-gradient-15)"/>
        <path id="Path_17721" data-name="Path 17721" d="M103.706,283.3a.58.58,0,0,1,.342-.023.8.8,0,0,1,.31.152,1.961,1.961,0,0,1,.434.538c.294.476.581.958.853,1.449a9.61,9.61,0,0,0,.655,1.087c.168.225.359.432.53.654a2.209,2.209,0,0,1,.4.736,1.449,1.449,0,0,1-.111,1.054,1.406,1.406,0,0,1-.532.556,1.37,1.37,0,0,1-.747.184,4.177,4.177,0,0,1-1.183-.367c-.748-.271-1.559-.308-2.327-.52-.275-.075-.543-.174-.82-.244a2.488,2.488,0,0,1-.363-.105.589.589,0,0,1-.289-.234.511.511,0,0,1-.063-.271.85.85,0,0,1,.06-.274c.067-.175.172-.334.239-.509a1.965,1.965,0,0,0,.1-.839c-.019-.283-.068-.564-.085-.847a1.441,1.441,0,0,1,.017-.379.65.65,0,0,1,.17-.334.661.661,0,0,1,.369-.171,1.716,1.716,0,0,1,.411,0,2.767,2.767,0,0,0,.412.019.772.772,0,0,0,.39-.119.782.782,0,0,0,.24-.281,3,3,0,0,0,.146-.342,1.617,1.617,0,0,1,.165-.334.645.645,0,0,1,.282-.24" transform="translate(-100.512 -283.051)" fill="#d99a03"/>
        <path id="Path_17722" data-name="Path 17722" d="M106.4,275.552a.535.535,0,0,1,.342-.039.731.731,0,0,1,.311.152,1.7,1.7,0,0,1,.4.559,15.191,15.191,0,0,0,.766,1.391c.212.321.458.619.673.939a3.887,3.887,0,0,1,.626,1.419,1.552,1.552,0,0,1-.1,1.022,1.14,1.14,0,0,1-.493.475,1.278,1.278,0,0,1-.681.126,4.233,4.233,0,0,1-1.045-.339c-.613-.223-1.275-.277-1.906-.445-.266-.071-.527-.163-.8-.219a2.361,2.361,0,0,1-.354-.086.52.52,0,0,1-.279-.219.441.441,0,0,1-.048-.244.773.773,0,0,1,.064-.243c.066-.155.163-.3.214-.458a1.386,1.386,0,0,0-.012-.732,5.8,5.8,0,0,1-.163-.723,1,1,0,0,1,.014-.328.579.579,0,0,1,.156-.287.652.652,0,0,1,.391-.162,1.818,1.818,0,0,1,.431.026,2.3,2.3,0,0,0,.431.036.706.706,0,0,0,.4-.133.691.691,0,0,0,.222-.352,2.433,2.433,0,0,0,.07-.414,1.52,1.52,0,0,1,.091-.409.6.6,0,0,1,.273-.313Z" transform="translate(-103.308 -275.569)" fill="#f5bd0c"/>
        <path id="Path_17723" data-name="Path 17723" d="M156.407,295.969c.193.349.311.75.5,1.1.176.324.377.657.555.956.08.133.265.337.453.654.17.287.342.689.438.823-.055-.158-.169-.581-.3-.883a4.225,4.225,0,0,0-.365-.595c-.179-.3-.371-.567-.555-.852-.254-.393-.447-.832-.724-1.206Z" transform="translate(-152.007 -294.815)" fill="url(#linear-gradient-16)"/>
      </g>
    </g>
  </g>
</svg>
