<svg xmlns="http://www.w3.org/2000/svg" xmlns:xlink="http://www.w3.org/1999/xlink" width="18" height="18" viewBox="0 0 18 18">
  <defs>
    <clipPath id="clip-path">
      <rect id="Rectangle_864" data-name="Rectangle 864" width="18" height="18" transform="translate(1234 227)" fill="#fff" stroke="#707070" stroke-width="1"/>
    </clipPath>
  </defs>
  <g id="matrix_create_update" transform="translate(-1234 -227)" clip-path="url(#clip-path)">
    <g id="Group_12227" data-name="Group 12227" transform="translate(1155.053 220.599)">
      <g id="Group_12222" data-name="Group 12222" transform="translate(83.542 11.517)">
        <line id="Line_1128" data-name="Line 1128" y2="8.512" transform="translate(4.256 0)" fill="none" stroke="#b73f83" stroke-linecap="round" stroke-linejoin="round" stroke-width="1"/>
        <line id="Line_1129" data-name="Line 1129" x2="8.512" transform="translate(0 4.256)" fill="none" stroke="#b73f83" stroke-linecap="round" stroke-linejoin="round" stroke-width="1"/>
      </g>
      <g id="Group_12223" data-name="Group 12223" transform="translate(79.95 8.401)">
        <path id="Path_21417" data-name="Path 21417" d="M83.791,11.1a7.7,7.7,0,0,1,13.315,3.1" transform="translate(-81.947 -8.401)" fill="none" stroke="#b73f83" stroke-linecap="round" stroke-linejoin="round" stroke-width="1"/>
        <path id="Path_21418" data-name="Path 21418" d="M81.732,13.029l1.278,1.028-1.529.593-1.529.593.251-1.62L80.455,12Z" transform="translate(-79.953 -10.272)" fill="none" stroke="#b73f83" stroke-linecap="round" stroke-linejoin="round" stroke-width="1"/>
      </g>
      <g id="Group_12224" data-name="Group 12224" transform="translate(79.948 15.477)">
        <path id="Path_21419" data-name="Path 21419" d="M94.517,27.1a7.475,7.475,0,0,1-10.053,3.663,7.7,7.7,0,0,1-4.49-7.633" transform="translate(-79.948 -23.128)" fill="none" stroke="#b73f83" stroke-linecap="round" stroke-linejoin="round" stroke-width="1"/>
        <path id="Path_21420" data-name="Path 21420" d="M108.443,28.471l-1.519-.617,1.294-1.007,1.294-1.007.225,1.624.225,1.624Z" transform="translate(-93.962 -24.537)" fill="none" stroke="#b73f83" stroke-linecap="round" stroke-linejoin="round" stroke-width="1"/>
      </g>
    </g>
  </g>
</svg>
