<svg xmlns="http://www.w3.org/2000/svg" xmlns:xlink="http://www.w3.org/1999/xlink" width="24" height="24" viewBox="0 0 24 24">
  <defs>
    <clipPath id="clip-path">
      <rect id="Rectangle_2444" data-name="Rectangle 2444" width="24" height="24" transform="translate(1449 229)" fill="red"/>
    </clipPath>
  </defs>
  <g id="near_dr_site" transform="translate(-1449 -229)" clip-path="url(#clip-path)">
    <g id="Group_8834" data-name="Group 8834" transform="translate(8441.673 9237)">
      <g id="Group_8833" data-name="Group 8833" transform="translate(-6991.672 -9005)">
        <g id="Group_8832" data-name="Group 8832" transform="translate(0 0)">
          <g id="Rectangle_2442" data-name="Rectangle 2442" fill="none" stroke="#8f9198" stroke-linecap="round" stroke-linejoin="round" stroke-width="0.8">
            <rect width="9.644" height="14.122" rx="1" stroke="none"/>
            <rect x="0.4" y="0.4" width="8.844" height="13.322" rx="0.6" fill="none"/>
          </g>
          <g id="Rectangle_2443" data-name="Rectangle 2443" transform="translate(12.316)" fill="none" stroke="#8f9198" stroke-linecap="round" stroke-linejoin="round" stroke-width="0.8">
            <rect width="9.644" height="14.122" rx="1" stroke="none"/>
            <rect x="0.4" y="0.4" width="8.844" height="13.322" rx="0.6" fill="none"/>
          </g>
          <path id="Path_17594" data-name="Path 17594" d="M-6971.374-9000.25h7.884" transform="translate(6972.292 9004.211)" fill="none" stroke="#8f9198" stroke-linecap="round" stroke-width="1"/>
          <path id="Path_17595" data-name="Path 17595" d="M-6971.373-9000.25h7.825" transform="translate(6984.606 9004.211)" fill="none" stroke="#8f9198" stroke-linecap="round" stroke-width="1"/>
          <path id="Path_17596" data-name="Path 17596" d="M-6971.375-9000.25h2.39" transform="translate(6975.959 9002.403)" fill="none" stroke="#8f9198" stroke-linecap="round" stroke-width="0.8"/>
          <path id="Path_17597" data-name="Path 17597" d="M-6971.375-9000.25h2.39" transform="translate(6988.275 9002.403)" fill="none" stroke="#8f9198" stroke-linecap="round" stroke-width="0.8"/>
          <path id="Path_17598" data-name="Path 17598" d="M-6971.375-9000.25h2.39" transform="translate(6975.959 9005.848)" fill="none" stroke="#8f9198" stroke-linecap="round" stroke-width="0.8"/>
          <path id="Path_17599" data-name="Path 17599" d="M-6971.375-9000.25h2.39" transform="translate(6988.275 9005.848)" fill="none" stroke="#8f9198" stroke-linecap="round" stroke-width="0.8"/>
          <path id="Path_17600" data-name="Path 17600" d="M-6971.375-9000.25h2.39" transform="translate(6975.959 9008.947)" fill="none" stroke="#8f9198" stroke-linecap="round" stroke-width="0.8"/>
          <path id="Path_17601" data-name="Path 17601" d="M-6971.375-9000.25h2.39" transform="translate(6988.275 9008.947)" fill="none" stroke="#8f9198" stroke-linecap="round" stroke-width="0.8"/>
          <path id="Path_17602" data-name="Path 17602" d="M-6971.375-9000.25h2.39" transform="translate(6975.959 9012.392)" fill="none" stroke="#8f9198" stroke-linecap="round" stroke-width="0.8"/>
          <path id="Path_17603" data-name="Path 17603" d="M-6971.375-9000.25h2.39" transform="translate(6988.275 9012.392)" fill="none" stroke="#8f9198" stroke-linecap="round" stroke-width="0.8"/>
          <path id="Path_17604" data-name="Path 17604" d="M-6971.374-9000.25h7.884" transform="translate(6972.292 9007.312)" fill="none" stroke="#8f9198" stroke-linecap="round" stroke-width="1"/>
          <path id="Path_17605" data-name="Path 17605" d="M-6971.373-9000.25h7.825" transform="translate(6984.606 9007.312)" fill="none" stroke="#8f9198" stroke-linecap="round" stroke-width="1"/>
          <path id="Path_17606" data-name="Path 17606" d="M-6971.374-9000.25h7.884" transform="translate(6972.292 9010.756)" fill="none" stroke="#8f9198" stroke-linecap="round" stroke-width="1"/>
          <path id="Path_17607" data-name="Path 17607" d="M3.174,12.055H.791A.791.791,0,0,1,0,11.265V.791A.791.791,0,0,1,.791,0H3.174" transform="translate(5.069 16.804) rotate(-90)" fill="none" stroke="#8f9198" stroke-linejoin="round" stroke-width="0.8"/>
          <path id="Path_17608" data-name="Path 17608" d="M-6971.373-9000.25h7.825" transform="translate(6984.606 9010.756)" fill="none" stroke="#8f9198" stroke-linecap="round" stroke-width="1"/>
          <path id="Path_17609" data-name="Path 17609" d="M-577.317,396.413a.431.431,0,0,1-.43.431.431.431,0,0,1-.431-.431.43.43,0,0,1,.431-.43A.43.43,0,0,1-577.317,396.413Z" transform="translate(579.926 -394.261)" fill="#8f9198"/>
          <path id="Path_17610" data-name="Path 17610" d="M-577.317,396.413a.431.431,0,0,1-.43.431.431.431,0,0,1-.431-.431.43.43,0,0,1,.431-.43A.43.43,0,0,1-577.317,396.413Z" transform="translate(592.242 -394.261)" fill="#8f9198"/>
          <path id="Path_17611" data-name="Path 17611" d="M-577.317,396.413a.431.431,0,0,1-.43.431.431.431,0,0,1-.431-.431.43.43,0,0,1,.431-.43A.43.43,0,0,1-577.317,396.413Z" transform="translate(579.926 -390.817)" fill="#8f9198"/>
          <path id="Path_17612" data-name="Path 17612" d="M-577.317,396.413a.431.431,0,0,1-.43.431.431.431,0,0,1-.431-.431.43.43,0,0,1,.431-.43A.43.43,0,0,1-577.317,396.413Z" transform="translate(592.242 -390.817)" fill="#8f9198"/>
          <path id="Path_17613" data-name="Path 17613" d="M-577.317,396.413a.431.431,0,0,1-.43.431.431.431,0,0,1-.431-.431.43.43,0,0,1,.431-.43A.43.43,0,0,1-577.317,396.413Z" transform="translate(579.926 -387.717)" fill="#8f9198"/>
          <path id="Path_17614" data-name="Path 17614" d="M-577.317,396.413a.431.431,0,0,1-.43.431.431.431,0,0,1-.431-.431.43.43,0,0,1,.431-.43A.43.43,0,0,1-577.317,396.413Z" transform="translate(592.242 -387.717)" fill="#8f9198"/>
          <path id="Path_17615" data-name="Path 17615" d="M-577.317,396.413a.431.431,0,0,1-.43.431.431.431,0,0,1-.431-.431.43.43,0,0,1,.431-.43A.43.43,0,0,1-577.317,396.413Z" transform="translate(579.926 -384.272)" fill="#8f9198"/>
          <path id="Path_17616" data-name="Path 17616" d="M-577.317,396.413a.431.431,0,0,1-.43.431.431.431,0,0,1-.431-.431.43.43,0,0,1,.431-.43A.43.43,0,0,1-577.317,396.413Z" transform="translate(592.242 -384.272)" fill="#8f9198"/>
          <ellipse id="Ellipse_1648" data-name="Ellipse 1648" cx="1.219" cy="1.219" rx="1.219" ry="1.219" transform="translate(9.878 15.584)" fill="#fff" stroke="#8f9198" stroke-width="0.8"/>
        </g>
      </g>
    </g>
  </g>
</svg>
