<svg xmlns="http://www.w3.org/2000/svg" width="32" height="32" viewBox="0 0 32 32">
  <g id="notify" transform="translate(-1082 -21)">
    <circle id="Ellipse_1352" data-name="Ellipse 1352" cx="16" cy="16" r="16" transform="translate(1082 21)" fill="#fff" opacity="0.3"/>
    <g id="Group_5851" data-name="Group 5851" transform="translate(743.885 76.458)">
      <path id="Path_9277" data-name="Path 9277" d="M361.587-36.727v.309a2.589,2.589,0,0,1-2.594,2.574h-9.756a2.583,2.583,0,0,1-2.593-2.574h0v-.309a2.567,2.567,0,0,1,.995-2.031,2.077,2.077,0,0,0,.854-1.624v-1.933a5.778,5.778,0,0,1,5.747-5.811h.06a5.612,5.612,0,0,1,3.787,1.635,5.525,5.525,0,0,1,1.649,3.937v2.171a2.073,2.073,0,0,0,.852,1.624A2.566,2.566,0,0,1,361.587-36.727Z" transform="translate(0 0)" fill="#fff"/>
      <path id="Path_9278" data-name="Path 9278" d="M355.624-34.181a2,2,0,0,1-2,2h0a2,2,0,0,1-2-2h4.008Z" transform="translate(0.494 1.385)" fill="#fff"/>
    </g>
  </g>
</svg>
