<svg xmlns="http://www.w3.org/2000/svg" width="31" height="31" viewBox="0 0 31 31">
  <path id="number" d="M208.916,199.346h-6.4v-7.692h6.4a1.584,1.584,0,0,0,0-3.167h-6.4v-6.4a1.584,1.584,0,1,0-3.167,0v6.4h-7.692v-6.4a1.584,1.584,0,0,0-3.167,0v6.4h-6.4a1.584,1.584,0,0,0,0,3.167h6.4v7.692h-6.4a1.584,1.584,0,0,0,0,3.167h6.4v6.4a1.584,1.584,0,1,0,3.167,0v-6.4h7.692v6.4a1.584,1.584,0,1,0,3.167,0v-6.4h6.4a1.584,1.584,0,1,0,0-3.167Zm-17.262,0v-7.692h7.692v7.692Z" transform="translate(-180 -180)" fill="#454545" stroke="#fff" stroke-width="1"/>
</svg>
