<svg xmlns="http://www.w3.org/2000/svg" xmlns:xlink="http://www.w3.org/1999/xlink" width="18" height="18" viewBox="0 0 18 18">
  <defs>
    <clipPath id="clip-path">
      <rect id="Rectangle_863" data-name="Rectangle 863" width="18" height="18" transform="translate(797 228)" fill="#fff" stroke="#707070" stroke-width="1"/>
    </clipPath>
  </defs>
  <g id="os-type" transform="translate(-797 -228)" clip-path="url(#clip-path)">
    <g id="Group_8845" data-name="Group 8845" transform="translate(797 228)">
      <g id="os-type-2" data-name="os-type">
        <g id="Group_2982" data-name="Group 2982">
          <path id="Path_6828" data-name="Path 6828" d="M8.932,15.833V13.919a.926.926,0,0,0-.926-.925H2.583a1.225,1.225,0,0,1-1.224-1.225V3.248A1.224,1.224,0,0,1,2.583,2.023h9.543" fill="rgba(0,0,0,0)" stroke="#b73f83" stroke-linecap="round" stroke-miterlimit="10" stroke-width="1"/>
          <path id="Path_6829" data-name="Path 6829" d="M10.146,12.99h5.271a1.224,1.224,0,0,0,1.224-1.224V3.245A1.224,1.224,0,0,0,15.417,2.02h-3.19" fill="rgba(0,0,0,0)" stroke="#b73f83" stroke-linecap="round" stroke-miterlimit="10" stroke-width="1"/>
          <line id="Line_337" data-name="Line 337" x2="3.408" transform="translate(7.276 15.98)" fill="none" stroke="#b73f83" stroke-linecap="round" stroke-miterlimit="10" stroke-width="1"/>
        </g>
      </g>
      <g id="Group_8845-2" data-name="Group 8845">
        <path id="Path_17661" data-name="Path 17661" d="M5.405,4.755A2.765,2.765,0,0,1,6.8,4.4a2.773,2.773,0,0,1,1.4.359,2.589,2.589,0,0,1,.986.992,2.8,2.8,0,0,1,.357,1.406A2.8,2.8,0,0,1,9.187,8.56a2.579,2.579,0,0,1-.986.991,2.763,2.763,0,0,1-1.4.359,2.755,2.755,0,0,1-1.4-.359,2.569,2.569,0,0,1-.982-.991,2.964,2.964,0,0,1,0-2.813A2.578,2.578,0,0,1,5.405,4.755Zm2.52,1.218A1.487,1.487,0,0,0,6.8,5.5a1.483,1.483,0,0,0-1.122.473,1.648,1.648,0,0,0-.449,1.18A1.655,1.655,0,0,0,5.68,8.335,1.478,1.478,0,0,0,6.8,8.81a1.481,1.481,0,0,0,1.123-.475,1.654,1.654,0,0,0,.448-1.182A1.648,1.648,0,0,0,7.925,5.973Z" fill="#b73f83"/>
        <path id="Path_17662" data-name="Path 17662" d="M11.923,4.4a2.718,2.718,0,0,1,1.067.234,2.318,2.318,0,0,1,.856.586l-.658.9a2.357,2.357,0,0,0-.66-.454,1.679,1.679,0,0,0-.694-.167.812.812,0,0,0-.466.122.367.367,0,0,0-.178.316.374.374,0,0,0,.094.254.741.741,0,0,0,.252.182A2.91,2.91,0,0,0,11.9,6.5l.432.127c.151.044.3.092.455.146a2.288,2.288,0,0,1,.433.2,1.841,1.841,0,0,1,.365.288,1.183,1.183,0,0,1,.253.412,1.594,1.594,0,0,1,.093.563,1.5,1.5,0,0,1-.134.619,1.715,1.715,0,0,1-.38.533,1.782,1.782,0,0,1-.625.376,2.385,2.385,0,0,1-.836.14,2.948,2.948,0,0,1-1.246-.29,2.611,2.611,0,0,1-.976-.727l.726-.827a2.991,2.991,0,0,0,.7.55,1.63,1.63,0,0,0,.8.194,1.021,1.021,0,0,0,.587-.153.471.471,0,0,0,.225-.408A.369.369,0,0,0,12.675,8a.681.681,0,0,0-.25-.176,2.956,2.956,0,0,0-.361-.125c-.136-.039-.28-.079-.43-.12s-.3-.087-.451-.137a2.238,2.238,0,0,1-.429-.194,1.818,1.818,0,0,1-.361-.277,1.128,1.128,0,0,1-.25-.4,1.54,1.54,0,0,1-.094-.556,1.471,1.471,0,0,1,.528-1.154A1.971,1.971,0,0,1,11.923,4.4Z" fill="#b73f83"/>
      </g>
    </g>
  </g>
</svg>
