<svg xmlns="http://www.w3.org/2000/svg" width="22.857" height="30" viewBox="0 0 22.857 30">
  <g id="password" transform="translate(-202.001 -794.999)">
    <g id="Group_12117" data-name="Group 12117">
      <path id="password-26" d="M141.9,29.976H124.762c-1.578,0-2.857-.565-2.857-2.143V15.69a2.857,2.857,0,0,1,2.857-2.857h0V8.547h0a8.571,8.571,0,1,1,17.143,0v4.286a2.857,2.857,0,0,1,2.857,2.857V27.833C144.762,29.411,143.483,29.976,141.9,29.976ZM140.476,8.547h0a7.143,7.143,0,0,0-14.286,0h0v4.286h14.286Zm2.857,7.143a1.429,1.429,0,0,0-1.429-1.429H124.762a1.429,1.429,0,0,0-1.429,1.429V27.833c0,.789.639.714,1.429.714H141.9c.789,0,1.429.075,1.429-.714Zm-9.286,7.756v2.244a.714.714,0,0,1-1.429,0V23.446a2.857,2.857,0,1,1,1.429,0Zm-.714-4.185a1.429,1.429,0,1,0,1.429,1.429A1.429,1.429,0,0,0,133.334,19.261Z" transform="translate(80.096 795.023)" fill="#454545"/>
    </g>
  </g>
</svg>
