<svg xmlns="http://www.w3.org/2000/svg" xmlns:xlink="http://www.w3.org/1999/xlink" width="18" height="18" viewBox="0 0 18 18">
  <defs>
    <clipPath id="clip-path">
      <rect id="Rectangle_2787" data-name="Rectangle 2787" width="18" height="18" transform="translate(2575 9599)" fill="#fff" stroke="#707070" stroke-width="1"/>
    </clipPath>
  </defs>
  <g id="server_log" transform="translate(-2575 -9599)" clip-path="url(#clip-path)">
    <g id="Group_9166" data-name="Group 9166" transform="translate(2575.569 9539.464)">
      <path id="Path_18526" data-name="Path 18526" d="M12.8,60.536H4.861a.745.745,0,0,0-.743.745V74.87a1,1,0,0,0,1,1H15.657a.953.953,0,0,0,.952-.954V64.268a.745.745,0,0,0-.226-.535l-3.067-2.987A.746.746,0,0,0,12.8,60.536Z" transform="translate(-0.178 0)" fill="none" stroke="#8f9198" stroke-linecap="round" stroke-miterlimit="10" stroke-width="1"/>
      <path id="Path_18527" data-name="Path 18527" d="M13.438,61.068v2.8a.357.357,0,0,0,.345.367h2.735" transform="translate(-0.628 -0.026)" fill="none" stroke="#8f9198" stroke-linecap="round" stroke-miterlimit="10" stroke-width="1"/>
      <rect id="Rectangle_2784" data-name="Rectangle 2784" width="14.513" height="8.014" rx="0.704" transform="translate(0.431 65.844)" fill="#8f9198"/>
      <g id="Group_9159" data-name="Group 9159" transform="translate(1.791 67.917)">
        <path id="Path_18528" data-name="Path 18528" d="M1.274,72.331V68.149H2.4v3.269h1.61v.912Z" transform="translate(-1.274 -68.084)" fill="#fff"/>
        <path id="Path_18529" data-name="Path 18529" d="M9.092,70.224a2.259,2.259,0,0,1-.517,1.606,1.986,1.986,0,0,1-1.516.549,1.986,1.986,0,0,1-1.509-.552,2.712,2.712,0,0,1,0-3.2,1.992,1.992,0,0,1,1.517-.55,1.985,1.985,0,0,1,1.514.546A2.259,2.259,0,0,1,9.092,70.224Zm-2.877,0q0,1.213.844,1.213a.725.725,0,0,0,.636-.294,2.139,2.139,0,0,0,0-1.843.719.719,0,0,0-.628-.3Q6.215,69,6.215,70.224Z" transform="translate(-1.769 -68.074)" fill="#fff"/>
        <path id="Path_18530" data-name="Path 18530" d="M12.236,69.873h1.8v2.255a4.961,4.961,0,0,1-1.615.251,1.951,1.951,0,0,1-1.495-.561,2.244,2.244,0,0,1-.528-1.6,2.1,2.1,0,0,1,.578-1.577A2.222,2.222,0,0,1,12.6,68.08a3.587,3.587,0,0,1,.745.075,3.171,3.171,0,0,1,.61.188l-.358.887a2.208,2.208,0,0,0-.992-.223.942.942,0,0,0-.765.321,1.393,1.393,0,0,0-.271.92,1.408,1.408,0,0,0,.245.894.849.849,0,0,0,.7.308,2.036,2.036,0,0,0,.463-.049v-.654h-.746Z" transform="translate(-2.48 -68.075)" fill="#fff"/>
      </g>
    </g>
  </g>
</svg>
