<svg xmlns="http://www.w3.org/2000/svg" width="30" height="30" viewBox="0 0 30 30">
  <path id="textarea" d="M28.571,30H1.429A1.429,1.429,0,0,1,0,28.571V1.429A1.429,1.429,0,0,1,1.429,0H17.143a.714.714,0,0,1,0,1.429h-15a.714.714,0,0,0-.714.714V27.857a.714.714,0,0,0,.714.714H27.857a.714.714,0,0,0,.714-.714v-15a.714.714,0,1,1,1.429,0V28.571A1.429,1.429,0,0,1,28.571,30ZM14.99,20.714v0a.705.705,0,0,1-.7.709H9.266a.706.706,0,0,1-.7-.709c0-.014.007-.025.008-.039V15.7a.694.694,0,0,1,.214-.5l-.2-.2L23.157.429a1.429,1.429,0,0,1,2.02,0l4.041,4.041a1.429,1.429,0,0,1,0,2.021ZM27.7,4.968,24.674,1.937a.714.714,0,0,0-1.01,0L9.976,15.626a.572.572,0,0,1,.014.071v4.314h3.684L27.706,5.979a.714.714,0,0,0,0-1.012Z" fill="#454545"/>
</svg>
