<svg xmlns="http://www.w3.org/2000/svg" width="30" height="30" viewBox="0 0 30 30">
  <g id="text" transform="translate(-68.267 -68.266)">
    <path id="Path_21264" data-name="Path 21264" d="M256.24,242.351a2.247,2.247,0,0,0-.7-1.6,2.167,2.167,0,0,0-1.539-.668l.029-1.153a3.311,3.311,0,0,1,2.326,1.006,3.4,3.4,0,0,1,1.034,2.384Zm-16.154,0-1.154-.029a3.433,3.433,0,0,1,3.389-3.389l.029,1.153a2.28,2.28,0,0,0-2.264,2.264Z" transform="translate(-164.897 -164.897)" fill="#454545"/>
    <path id="Path_21265" data-name="Path 21265" d="M97.69,98.266H94.805a.577.577,0,0,1,0-1.154h2.308V94.8a.577.577,0,0,1,1.154,0v2.885A.577.577,0,0,1,97.69,98.266Zm-5.769,0H89.036a.577.577,0,0,1,0-1.154H91.92a.577.577,0,0,1,0,1.154Zm-5.769,0H83.267a.577.577,0,0,1,0-1.154h2.885a.577.577,0,0,1,0,1.154Zm-5.769,0H77.5a.577.577,0,1,1,0-1.154h2.885a.577.577,0,1,1,0,1.154Zm-5.769,0H71.728a.577.577,0,0,1,0-1.154h2.885a.577.577,0,0,1,0,1.154Zm-5.769-2.885a.577.577,0,0,1-.577-.577V91.92a.577.577,0,0,1,1.154,0V94.8a.577.577,0,0,1-.577.577ZM97.69,92.5a.577.577,0,0,1-.577-.577V89.036a.577.577,0,1,1,1.154,0V91.92a.577.577,0,0,1-.577.577Zm-11.538,0H80.382a.577.577,0,1,1,0-1.154h5.769a.577.577,0,0,1,0,1.154ZM68.844,89.613a.577.577,0,0,1-.577-.577V86.151a.577.577,0,0,1,1.154,0v2.885a.577.577,0,0,1-.577.577ZM97.69,86.728a.577.577,0,0,1-.577-.577V83.266a.577.577,0,1,1,1.154,0v2.885a.577.577,0,0,1-.577.577ZM68.844,83.843a.577.577,0,0,1-.577-.577V80.382a.577.577,0,1,1,1.154,0v2.885a.577.577,0,0,1-.577.577ZM97.69,80.959a.577.577,0,0,1-.577-.577V77.5a.577.577,0,1,1,1.154,0v2.885a.577.577,0,0,1-.577.577ZM68.844,78.074a.577.577,0,0,1-.577-.577V74.613a.577.577,0,0,1,1.154,0V77.5a.577.577,0,0,1-.577.577Zm23.077-.058a.577.577,0,0,1-.577-.577v-2.25H75.19v2.25a.577.577,0,0,1-1.154,0V74.613a.577.577,0,0,1,.577-.577H91.92a.577.577,0,0,1,.577.577v2.827A.577.577,0,0,1,91.92,78.016Zm5.769-2.827a.577.577,0,0,1-.577-.577V71.728a.577.577,0,1,1,1.154,0v2.885A.577.577,0,0,1,97.69,75.189ZM68.844,72.3a.577.577,0,0,1-.577-.577V68.843a.577.577,0,0,1,.577-.577h2.885a.577.577,0,0,1,0,1.154H69.42v2.308A.577.577,0,0,1,68.844,72.3ZM94.805,69.42H91.92a.577.577,0,1,1,0-1.154h2.885a.577.577,0,1,1,0,1.154Zm-5.769,0H86.151a.577.577,0,1,1,0-1.154h2.885a.577.577,0,1,1,0,1.154Zm-5.769,0H80.382a.577.577,0,0,1,0-1.154h2.885a.577.577,0,0,1,0,1.154Zm-5.769,0H74.613a.577.577,0,0,1,0-1.154H77.5a.577.577,0,0,1,0,1.154Z" fill="#454545"/>
    <path id="Path_21266" data-name="Path 21266" d="M477.867,256h2.308v17.308h-2.308Z" transform="translate(-395.754 -181.387)" fill="#454545"/>
  </g>
</svg>
