<svg xmlns="http://www.w3.org/2000/svg" xmlns:xlink="http://www.w3.org/1999/xlink" width="24" height="24" viewBox="0 0 24 24">
  <defs>
    <clipPath id="clip-path">
      <rect id="Rectangle_1581" data-name="Rectangle 1581" width="24" height="24" transform="translate(1449 229)" fill="red"/>
    </clipPath>
  </defs>
  <g id="thirdparty" transform="translate(-1449 -229)" clip-path="url(#clip-path)">
    <g id="Group_6920" data-name="Group 6920" transform="translate(757.75 -950.423)">
      <g id="Group_1071" data-name="Group 1071" transform="translate(693.25 1181.423)">
        <path id="Path_7085" data-name="Path 7085" d="M749.5,1196.05v-.94a.785.785,0,0,1,.785-.785h4.341a.785.785,0,0,0,.785-.78l.01-1.57-.472-.191a.248.248,0,0,0-.183,0c-.518.237-1.216.54-1.548.661l-.092.034-.859-.841.033-.094c.115-.327.408-1.023.639-1.542a.23.23,0,0,0,0-.182l-.332-.787a.23.23,0,0,0-.136-.128c-.525-.187-1.24-.456-1.567-.6l-.091-.042v-1.183l.089-.043c.318-.151,1.031-.44,1.57-.648a.229.229,0,0,0,.13-.125l.333-.789a.234.234,0,0,0,0-.19c-.278-.581-.559-1.214-.67-1.5l-.036-.1.859-.84.09.03c.332.111,1.051.4,1.589.63a.234.234,0,0,0,.178,0l.8-.327a.237.237,0,0,0,.128-.133c.191-.512.465-1.211.615-1.533l.042-.09h1.219l.044.086c.158.316.455,1.02.663,1.54a.235.235,0,0,0,.128.127l.806.326a.241.241,0,0,0,.181,0c.522-.238,1.223-.542,1.551-.661l.093-.032.859.838-.033.094c-.117.33-.41,1.026-.638,1.542a.234.234,0,0,0,0,.185l.332.789a.232.232,0,0,0,.136.129c.632.224,1.276.471,1.566.6l.093.042v1.181l-.088.043c-.326.156-1.044.446-1.573.65a.23.23,0,0,0-.129.125l-.332.789a.232.232,0,0,0,0,.189c.234.489.542,1.168.67,1.5l.036.095-.859.84-.09-.03c-.34-.115-1.061-.408-1.587-.631a.238.238,0,0,0-.179,0l-.35.142v1.6a.785.785,0,0,0,.785.785h3.9a.785.785,0,0,1,.785.785v.962" transform="translate(-747.011 -1181.423)" fill="none" stroke="#b73f83" stroke-linecap="round" stroke-width="1"/>
        <path id="Path_7086" data-name="Path 7086" d="M3.548,4.379a2.423,2.423,0,0,1-1.155.291A2.368,2.368,0,0,1,0,2.334,2.367,2.367,0,0,1,2.393,0,2.367,2.367,0,0,1,4.786,2.334a2.282,2.282,0,0,1-.369,1.245" transform="translate(9.258 3.002) rotate(30)" fill="none" stroke="#b73f83" stroke-linecap="round" stroke-width="1"/>
        <rect id="Rectangle_1065" data-name="Rectangle 1065" width="4.978" height="5.221" rx="2.489" transform="translate(0 14.627)" fill="none" stroke="#b73f83" stroke-linecap="round" stroke-width="1"/>
        <path id="Path_7087" data-name="Path 7087" d="M867.512,1422.477h1.433a.537.537,0,0,1,.536.536v4.148a.537.537,0,0,1-.536.537h-3.9a.537.537,0,0,1-.536-.537v-4.148a.537.537,0,0,1,.536-.536h1.353a.6.6,0,0,0,.6-.6v-3.545" transform="translate(-856.925 -1407.85)" fill="none" stroke="#b73f83" stroke-linecap="round" stroke-width="1"/>
        <rect id="Rectangle_1066" data-name="Rectangle 1066" width="4.978" height="5.221" rx="2.489" transform="translate(15.022 14.627)" fill="none" stroke="#b73f83" stroke-linecap="round" stroke-width="1"/>
      </g>
    </g>
  </g>
</svg>
