<svg xmlns="http://www.w3.org/2000/svg" width="30" height="30" viewBox="0 0 30 30">
  <g id="upload_file" transform="translate(0 0)">
    <path id="Path_21271" data-name="Path 21271" d="M15.5,27H.5a.472.472,0,0,1-.5-.5V8.5c0-.1.1-.3.1-.4l8-8c.1,0,.3-.1.4-.1h13a.472.472,0,0,1,.5.5v15a.5.5,0,0,1-1,0V1H8.7L1,8.7V26H15.5a.5.5,0,1,1,0,1Z" fill="#454545"/>
    <path id="Path_21272" data-name="Path 21272" d="M8.5,9H.5a.5.5,0,0,1,0-1H8V.5a.5.5,0,0,1,1,0v8a.472.472,0,0,1-.5.5Zm15,19a.472.472,0,0,1-.5-.5v-7a.5.5,0,1,1,1,0v7A.472.472,0,0,1,23.5,28Z" transform="translate(0 0)" fill="#454545"/>
    <path id="Path_21273" data-name="Path 21273" d="M690.823,688.323a.6.6,0,0,1-.4-.1l-2.6-2.6-2.6,2.6a.5.5,0,0,1-.7-.7l3-3a.483.483,0,0,1,.7,0l3,3a.484.484,0,0,1,0,.7A.6.6,0,0,1,690.823,688.323Z" transform="translate(-664.323 -664.324)" fill="#454545"/>
    <path id="Path_21274" data-name="Path 21274" d="M586.766,593.266a6.5,6.5,0,1,1,6.5-6.5A6.487,6.487,0,0,1,586.766,593.266Zm0-12a5.5,5.5,0,1,0,5.5,5.5A5.549,5.549,0,0,0,586.766,581.266Z" transform="translate(-563.266 -563.266)" fill="#454545"/>
  </g>
</svg>
