<svg xmlns="http://www.w3.org/2000/svg" xmlns:xlink="http://www.w3.org/1999/xlink" width="18" height="18" viewBox="0 0 18 18">
  <defs>
    <clipPath id="clip-path">
      <rect id="Rectangle_2420" data-name="Rectangle 2420" width="18" height="18" transform="translate(1166 225)" fill="#fff" stroke="#707070" stroke-width="1"/>
    </clipPath>
  </defs>
  <g id="user_details" transform="translate(-1166 -225)" clip-path="url(#clip-path)">
    <g id="Group_8797" data-name="Group 8797" transform="translate(1168.793 226.752)">
      <g id="Group_8796" data-name="Group 8796" transform="translate(1.683 2.753)">
        <path id="Path_17532" data-name="Path 17532" d="M-9.149,11.85H-.8" transform="translate(9.149 -4.811)" fill="none" stroke="#fff" stroke-linecap="round" stroke-width="1"/>
        <path id="Path_17533" data-name="Path 17533" d="M-9.149,11.85H-.8" transform="translate(9.149 -2.471)" fill="none" stroke="#fff" stroke-linecap="round" stroke-width="1"/>
        <g id="Group_8795" data-name="Group 8795" transform="translate(2.134 0)">
          <circle id="Ellipse_1635" data-name="Ellipse 1635" cx="1.332" cy="1.332" r="1.332" transform="translate(0.707 0)" fill="none" stroke="#fff" stroke-linecap="round" stroke-width="0.8"/>
          <path id="Path_17535" data-name="Path 17535" d="M1550.833,571.229v-.81a.752.752,0,0,1,.752-.752h2.577a.752.752,0,0,1,.752.752v.849" transform="translate(-1550.833 -565.765)" fill="none" stroke="#fff" stroke-linecap="round" stroke-width="0.8"/>
        </g>
      </g>
      <path id="Path_17536" data-name="Path 17536" d="M6039.89,8295.63l-.067,8.882a.987.987,0,0,1-.946,1.022h-10.129a.987.987,0,0,1-.947-1.022V8292.06a.986.986,0,0,1,.947-1.021h11.143Z" transform="translate(-6027.8 -8291.038)" fill="none" stroke="#fff" stroke-linecap="round" stroke-miterlimit="10" stroke-width="1"/>
    </g>
  </g>
</svg>
