<svg xmlns="http://www.w3.org/2000/svg" xmlns:xlink="http://www.w3.org/1999/xlink" width="24" height="24" viewBox="0 0 24 24">
  <defs>
    <clipPath id="clip-path">
      <rect id="Rectangle_1570" data-name="Rectangle 1570" width="24" height="24" transform="translate(616 225)" fill="#fff" stroke="#707070" stroke-width="1"/>
    </clipPath>
  </defs>
  <g id="port" transform="translate(-616 -225)" clip-path="url(#clip-path)">
    <g id="Group_6774" data-name="Group 6774" transform="translate(615.934 223.785)">
      <path id="Path_9269" data-name="Path 9269" d="M18.749,8.87c0,4.43-8.02,12.23-8.02,12.23S2.708,13.3,2.708,8.87a8.021,8.021,0,0,1,16.041,0Z" transform="translate(1.858 1.865)" fill="rgba(0,0,0,0)" stroke="#b73f83" stroke-linecap="round" stroke-linejoin="round" stroke-width="1"/>
      <g id="Group_9017" data-name="Group 9017" transform="translate(6.314 10.779) rotate(-50)">
        <g id="Path_13737" data-name="Path 13737" transform="translate(0 0)" fill="none" stroke-linejoin="round">
          <path d="M4.847,1.032a2.708,2.708,0,0,1,.5,2.354l.539.683L3.3,6.111l-.54-.684a2.714,2.714,0,1,1,2.087-4.4Z" stroke="none"/>
          <path d="M 2.714149713516235 0.6000008583068848 C 2.234599590301514 0.6000008583068848 1.781609773635864 0.7575912475585938 1.404299736022949 1.055621147155762 C 0.4891295433044434 1.778960943222046 0.3327698707580566 3.112081050872803 1.055639743804932 4.027231216430664 C 1.465896606445312 4.54631519317627 2.087223291397095 4.839844703674316 2.748659610748291 4.827620983123779 C 2.936084508895874 4.824141502380371 3.114369630813599 4.908461093902588 3.230589628219604 5.055551052093506 L 3.398650646209717 5.268260478973389 L 5.040951251983643 3.970363140106201 L 4.873289585113525 3.758111000061035 C 4.757119655609131 3.611031055450439 4.716339588165283 3.418121099472046 4.763059616088867 3.236621141433716 C 4.926289558410645 2.602530956268311 4.781549453735352 1.917551040649414 4.375789642333984 1.404160976409912 C 3.972109794616699 0.8931012153625488 3.366459608078003 0.6000008583068848 2.714149713516235 0.6000008583068848 M 2.714149951934814 2.86102294921875e-06 C 3.516392469406128 2.86102294921875e-06 4.310737133026123 0.3538265228271484 4.846619606018066 1.032250881195068 C 5.391939640045166 1.722220897674561 5.546499729156494 2.599991083145142 5.344119548797607 3.386191129684448 L 5.883609771728516 4.069160938262939 L 3.299869775772095 6.111071109771729 L 2.759799718856812 5.427521228790283 C 1.947920799255371 5.442680835723877 1.130229473114014 5.089241027832031 0.5849094390869141 4.399271011352539 C -0.3447704315185547 3.222301006317139 -0.1447205543518066 1.515171051025391 1.032249450683594 0.5849008560180664 C 1.530795097351074 0.1911077499389648 2.124615669250488 2.86102294921875e-06 2.714149951934814 2.86102294921875e-06 Z" stroke="none" fill="#b73f83"/>
        </g>
        <path id="Path_13738" data-name="Path 13738" d="M0,0" transform="translate(4.633 3.639)" fill="none" stroke="#b73f83" stroke-linejoin="round" stroke-width="0.6"/>
        <path id="Path_13739" data-name="Path 13739" d="M1.742.371A.976.976,0,0,0,.21,1.581Z" transform="translate(1.654 1.654)" fill="none" stroke="#b73f83" stroke-linejoin="round" stroke-width="0.6"/>
        <path id="Path_13740" data-name="Path 13740" d="M1.356,0,4.22,3.626l-.335.97-1.021.1L0,1.071" transform="translate(4.072 4.722)" fill="none" stroke="#b73f83" stroke-linejoin="round" stroke-width="0.6"/>
        <line id="Line_693" data-name="Line 693" x1="0.648" y2="0.548" transform="translate(6.127 6.523)" fill="none" stroke="#b73f83" stroke-linejoin="round" stroke-width="0.6"/>
        <line id="Line_694" data-name="Line 694" x1="0.648" y2="0.548" transform="translate(7.117 7.761)" fill="none" stroke="#b73f83" stroke-linejoin="round" stroke-width="0.6"/>
      </g>
    </g>
  </g>
</svg>
