<svg xmlns="http://www.w3.org/2000/svg" xmlns:xlink="http://www.w3.org/1999/xlink" width="24" height="24" viewBox="0 0 24 24">
  <defs>
    <clipPath id="clip-path">
      <rect id="Rectangle_1645" data-name="Rectangle 1645" width="24" height="24" transform="translate(616 225)" fill="#fff" stroke="#707070" stroke-width="1"/>
    </clipPath>
  </defs>
  <g id="profile_name" transform="translate(-616 -225)" clip-path="url(#clip-path)">
    <g id="Group_9016" data-name="Group 9016" transform="translate(806.563 225.054)">
      <path id="Path_18308" data-name="Path 18308" d="M-175.678,1.946h-10.866a1.02,1.02,0,0,0-1.019,1.02V21.573a1.373,1.373,0,0,0,1.372,1.373h14.429a1.3,1.3,0,0,0,1.3-1.306V7.057a1.024,1.024,0,0,0-.308-.732l-4.2-4.089A1.015,1.015,0,0,0-175.678,1.946Z" transform="translate(0 0)" fill="none" stroke="#b73f83" stroke-linecap="round" stroke-miterlimit="10" stroke-width="1"/>
      <path id="Path_18309" data-name="Path 18309" d="M-178.243,2.478V6.305a.489.489,0,0,0,.474.5h3.744" transform="translate(2.824 0.161)" fill="none" stroke="#b73f83" stroke-linecap="round" stroke-miterlimit="10" stroke-width="1"/>
      <line id="Line_855" data-name="Line 855" x2="12.325" transform="translate(-185.201 10.99)" fill="none" stroke="#b73f83" stroke-linecap="round" stroke-linejoin="round" stroke-width="1"/>
      <line id="Line_856" data-name="Line 856" x2="6.175" transform="translate(-185.201 6.97)" fill="none" stroke="#b73f83" stroke-linecap="round" stroke-linejoin="round" stroke-width="1"/>
      <line id="Line_857" data-name="Line 857" x2="12.325" transform="translate(-185.201 15.01)" fill="none" stroke="#b73f83" stroke-linecap="round" stroke-linejoin="round" stroke-width="1"/>
      <line id="Line_858" data-name="Line 858" x2="12.325" transform="translate(-185.201 19.029)" fill="none" stroke="#b73f83" stroke-linecap="round" stroke-linejoin="round" stroke-width="1"/>
    </g>
  </g>
</svg>
