<svg xmlns="http://www.w3.org/2000/svg" xmlns:xlink="http://www.w3.org/1999/xlink" width="24" height="24" viewBox="0 0 24 24">
  <defs>
    <clipPath id="clip-path">
      <rect id="Rectangle_1569" data-name="Rectangle 1569" width="24" height="24" transform="translate(616 225)" fill="#fff" stroke="#707070" stroke-width="1"/>
    </clipPath>
  </defs>
  <g id="tpam" transform="translate(-616 -225)" clip-path="url(#clip-path)">
    <g id="Group_6773" data-name="Group 6773" transform="translate(616 227.676) rotate(-8)">
      <g id="Path_13737" data-name="Path 13737" transform="translate(0 0)" fill="none" stroke-linejoin="round">
        <path d="M11.08,2.36a6.19,6.19,0,0,1,1.137,5.381L13.45,9.3,7.544,13.97,6.309,12.408A6.2,6.2,0,1,1,11.08,2.36Z" stroke="none"/>
        <path d="M 6.204808235168457 0.9999990463256836 C 5.02405834197998 0.9999990463256836 3.908818244934082 1.387938499450684 2.979907989501953 2.121679306030273 C 0.7270078659057617 3.902338981628418 0.3420982360839844 7.184108734130859 2.121687889099121 9.437068939208984 C 3.11210823059082 10.69018936157227 4.59660816192627 11.4088888168335 6.194528102874756 11.4088888168335 C 6.232752323150635 11.4088888168335 6.271048545837402 11.40781593322754 6.309194087982178 11.40781593322754 C 6.614709377288818 11.40781593322754 6.903954029083252 11.54761123657227 7.093788146972656 11.78786849975586 L 7.708436012268066 12.56579780578613 L 12.04604911804199 9.137807846069336 L 11.43243789672852 8.361008644104004 C 11.23880767822266 8.115888595581055 11.17084789276123 7.794368743896484 11.24871826171875 7.491858959197998 C 11.65063858032227 5.930509090423584 11.29421806335449 4.243799209594727 10.29509830474854 2.979668617248535 C 9.301328659057617 1.721558570861816 7.810478210449219 0.9999990463256836 6.204808235168457 0.9999990463256836 M 6.204805850982666 1.9073486328125e-06 C 8.03880500793457 1.9073486328125e-06 9.854738235473633 0.808873176574707 11.07981777191162 2.359818458557129 C 12.32647800445557 3.937149047851562 12.67981815338135 5.943819046020508 12.21714782714844 7.741148948669434 L 13.45047855377197 9.302478790283203 L 7.54381799697876 13.97047901153564 L 6.30914831161499 12.40781879425049 C 4.453118324279785 12.44247913360596 2.583818435668945 11.63447856903076 1.33714771270752 10.05714893341064 C -0.788182258605957 7.36647891998291 -0.3308515548706055 3.463818550109863 2.359818458557129 1.337148666381836 C 3.499538421630859 0.4368934631347656 4.857077121734619 1.9073486328125e-06 6.204805850982666 1.9073486328125e-06 Z" stroke="none" fill="#b73f83"/>
      </g>
      <path id="Path_13738" data-name="Path 13738" d="M0,0" transform="translate(10.592 8.318)" fill="none" stroke="#b73f83" stroke-linejoin="round" stroke-width="1"/>
      <path id="Path_13739" data-name="Path 13739" d="M3.983.849a2.232,2.232,0,0,0-3.5,2.767Z" transform="translate(3.782 3.782)" fill="none" stroke="#b73f83" stroke-linejoin="round" stroke-width="1"/>
      <path id="Path_13740" data-name="Path 13740" d="M3.1,0,9.648,8.289l-.765,2.217-2.334.231L0,2.449" transform="translate(9.31 10.796)" fill="none" stroke="#b73f83" stroke-linejoin="round" stroke-width="1"/>
      <line id="Line_693" data-name="Line 693" x1="1.481" y2="1.252" transform="translate(14.006 14.913)" fill="none" stroke="#b73f83" stroke-linejoin="round" stroke-width="1"/>
      <line id="Line_694" data-name="Line 694" x1="1.481" y2="1.252" transform="translate(16.271 17.743)" fill="none" stroke="#b73f83" stroke-linejoin="round" stroke-width="1"/>
    </g>
  </g>
</svg>
