<svg xmlns="http://www.w3.org/2000/svg" width="18" height="18.058" viewBox="0 0 18 18.058">
  <g id="more_action" transform="translate(-0.5 -0.5)">
    <g id="Group_8938" data-name="Group 8938" transform="translate(0.5 0.5)">
      <path id="Path_18242" data-name="Path 18242" d="M8.223.5H1.081A.582.582,0,0,0,.5,1.081V8.223a.582.582,0,0,0,.581.581H8.223A.582.582,0,0,0,8.8,8.223V1.081A.622.622,0,0,0,8.223.5Z" transform="translate(-0.5 -0.5)" fill="#959595"/>
      <path id="Path_18243" data-name="Path 18243" d="M24.923.5H17.781a.582.582,0,0,0-.581.581V8.223a.582.582,0,0,0,.581.581h7.142a.582.582,0,0,0,.581-.581V1.081A.549.549,0,0,0,24.923.5Z" transform="translate(-7.503 -0.5)" fill="#959595"/>
      <path id="Path_18244" data-name="Path 18244" d="M8.223,17.3H1.081a.582.582,0,0,0-.581.581v7.142a.582.582,0,0,0,.581.581H8.223a.582.582,0,0,0,.581-.581v-7.2A.617.617,0,0,0,8.223,17.3Z" transform="translate(-0.5 -7.545)" fill="#959595"/>
      <path id="Path_18245" data-name="Path 18245" d="M24.923,17.3H17.781a.582.582,0,0,0-.581.581v7.142a.582.582,0,0,0,.581.581h7.142a.582.582,0,0,0,.581-.581v-7.2A.536.536,0,0,0,24.923,17.3Z" transform="translate(-7.503 -7.545)" fill="#959595"/>
    </g>
  </g>
</svg>
