<svg xmlns="http://www.w3.org/2000/svg" xmlns:xlink="http://www.w3.org/1999/xlink" width="22" height="22" viewBox="0 0 22 22">
  <defs>
    <clipPath id="clip-path">
      <rect id="Rectangle_906" data-name="Rectangle 906" width="22" height="22" transform="translate(250 226)" fill="#fff" stroke="#b73f83" stroke-width="1"/>
    </clipPath>
  </defs>
  <g id="os" transform="translate(-250 -226)" clip-path="url(#clip-path)">
    <g id="Group_6812" data-name="Group 6812" transform="translate(250.88 226.88)">
      <rect id="Rectangle_917" data-name="Rectangle 917" width="20.24" height="14.116" rx="0.587" transform="translate(0 0)" fill="#fff" stroke="#515151" stroke-linecap="round" stroke-linejoin="round" stroke-width="1"/>
      <path id="Path_12582" data-name="Path 12582" d="M14.969,16.8H12.441V13.669H8.03V16.8H5.354a.772.772,0,1,0,0,1.544h9.615a.772.772,0,1,0,0-1.544Z" transform="translate(-0.042 1.848)" fill="#515151"/>
      <g id="Group_9534" data-name="Group 9534" transform="translate(-0.383 -0.573)">
        <path id="Path_19710" data-name="Path 19710" d="M5.637,4.817A3.245,3.245,0,0,1,7.276,4.4a3.253,3.253,0,0,1,1.641.421,3.037,3.037,0,0,1,1.157,1.164,3.285,3.285,0,0,1,.419,1.65,3.287,3.287,0,0,1-.419,1.651,3.026,3.026,0,0,1-1.157,1.163,3.241,3.241,0,0,1-1.641.421,3.233,3.233,0,0,1-1.639-.421A3.014,3.014,0,0,1,4.485,9.281a3.321,3.321,0,0,1-.417-1.651,3.32,3.32,0,0,1,.417-1.65A3.025,3.025,0,0,1,5.637,4.817ZM8.593,6.246a1.745,1.745,0,0,0-1.318-.555,1.74,1.74,0,0,0-1.316.555,1.934,1.934,0,0,0-.527,1.384,1.942,1.942,0,0,0,.527,1.387,1.734,1.734,0,0,0,1.316.557,1.738,1.738,0,0,0,1.318-.557,1.941,1.941,0,0,0,.526-1.387A1.933,1.933,0,0,0,8.593,6.246Z" fill="#515151"/>
        <path id="Path_19711" data-name="Path 19711" d="M12.3,4.4a3.188,3.188,0,0,1,1.252.275,2.719,2.719,0,0,1,1,.688L13.786,6.41a2.765,2.765,0,0,0-.774-.533,1.969,1.969,0,0,0-.814-.2.953.953,0,0,0-.547.143.43.43,0,0,0-.209.371.438.438,0,0,0,.11.3.87.87,0,0,0,.3.214,3.415,3.415,0,0,0,.428.158l.507.149c.177.052.354.108.534.171a2.684,2.684,0,0,1,.508.241,2.16,2.16,0,0,1,.428.338,1.388,1.388,0,0,1,.3.483,1.87,1.87,0,0,1,.109.661,1.756,1.756,0,0,1-.157.726,2.012,2.012,0,0,1-.446.625,2.091,2.091,0,0,1-.733.441,2.8,2.8,0,0,1-.981.164,3.458,3.458,0,0,1-1.462-.34,3.064,3.064,0,0,1-1.145-.853l.852-.97a3.51,3.51,0,0,0,.82.645,1.912,1.912,0,0,0,.935.228,1.2,1.2,0,0,0,.689-.18.553.553,0,0,0,.264-.479.433.433,0,0,0-.11-.293.8.8,0,0,0-.293-.206,3.468,3.468,0,0,0-.424-.147c-.16-.046-.329-.093-.5-.141s-.354-.1-.529-.161a2.626,2.626,0,0,1-.5-.228,2.134,2.134,0,0,1-.424-.325,1.324,1.324,0,0,1-.293-.472,1.807,1.807,0,0,1-.11-.652,1.726,1.726,0,0,1,.619-1.354A2.313,2.313,0,0,1,12.3,4.4Z" transform="translate(0.982)" fill="#515151"/>
      </g>
    </g>
  </g>
</svg>
