<svg xmlns="http://www.w3.org/2000/svg" xmlns:xlink="http://www.w3.org/1999/xlink" width="20.3" height="21" viewBox="0 0 20.3 21">
  <defs>
    <clipPath id="clip">
      <use xlink:href="#fill"/>
    </clipPath>
    <clipPath id="clip-2">
      <use xlink:href="#fill-2"/>
    </clipPath>
  </defs>
  <g id="save" transform="translate(0 -1)">
    <g id="save-2" data-name="save" transform="translate(0 1)">
      <g id="Rounded_Rectangle_37" data-name="Rounded Rectangle 37" fill="none">
        <path d="M15.512,0H1.532A1.537,1.537,0,0,0,0,1.541V19.459A1.537,1.537,0,0,0,1.532,21H18.768A1.537,1.537,0,0,0,20.3,19.459V5.491C20.3,5.587,15.56,0,15.512,0Z" stroke="none"/>
        <path d="M 1.532072067260742 1.299999237060547 C 1.404108047485352 1.299999237060547 1.30000114440918 1.40825080871582 1.30000114440918 1.541286468505859 L 1.30000114440918 19.45871353149414 C 1.30000114440918 19.59174919128418 1.404108047485352 19.70000076293945 1.532072067260742 19.70000076293945 L 18.76792907714844 19.70000076293945 C 18.89589309692383 19.70000076293945 19 19.59174919128418 19 19.45871353149414 L 19 6.007048606872559 C 18.84306716918945 5.830558776855469 18.63385581970215 5.591726303100586 18.36289405822754 5.279786109924316 C 17.81560707092285 4.649642944335938 17.12400054931641 3.845142364501953 16.45521545410156 3.067106246948242 C 15.9033260345459 2.425117492675781 15.30103778839111 1.724483489990234 14.93186950683594 1.299999237060547 L 1.532072067260742 1.299999237060547 M 1.532072067260742 0 C 1.532072067260742 0 10.27789306640625 0 15.51225090026855 0 C 15.56014347076416 1.9073486328125e-06 20.30000114440918 5.587223052978516 20.30000114440918 5.490821838378906 C 20.30000114440918 10.7668571472168 20.30000114440918 19.45871353149414 20.30000114440918 19.45871353149414 C 20.30000114440918 20.30992889404297 19.61407279968262 21 18.76792907714844 21 L 1.532072067260742 21 C 0.6859283447265625 21 0 20.30992889404297 0 19.45871353149414 L 0 1.541286468505859 C 0 0.6900348663330078 0.6859283447265625 0 1.532072067260742 0 Z" stroke="none" fill="#8b8b8b"/>
      </g>
      <path id="Rounded_Rectangle_38" data-name="Rounded Rectangle 38" d="M17.646.275v5.18a1.483,1.483,0,0,1-1.532,1.429H8.645A1.483,1.483,0,0,1,7.113,5.455V.275" transform="translate(-2.134 0.437)" fill="none" stroke="#8b8b8b" stroke-width="1.3"/>
      <path id="Rounded_Rectangle_39" data-name="Rounded Rectangle 39" d="M6.566,24.3V16.4A1.537,1.537,0,0,1,8.1,14.862h8.043A1.537,1.537,0,0,1,17.674,16.4v7.9" transform="translate(-1.97 -4.459)" fill="none" stroke="#8b8b8b" stroke-width="1.3"/>
      <g id="Rounded_Rectangle_40" data-name="Rounded Rectangle 40" transform="translate(6.511 12.829)" fill="none" stroke="#8b8b8b" stroke-width="1.3">
        <rect id="fill" width="7.277" height="0.988" rx="0.494" stroke="none"/>
        <path d="M0,0.3382353186607361h7.2773590087890625M6.62735903263092,0v0.9882352948188782M7.2773590087890625,0.6499999761581421h-7.2773590087890625M0.6499999761581421,0.9882352948188782v-0.9882352948188782" fill="none" clip-path="url(#clip)"/>
      </g>
      <g id="Rounded_Rectangle_40_copy" data-name="Rounded Rectangle 40 copy" transform="translate(6.511 15.719)" fill="none" stroke="#8b8b8b" stroke-width="1.3">
        <rect id="fill-2" width="7.277" height="0.988" rx="0.494" stroke="none"/>
        <path d="M0,0.3382353186607361h7.2773590087890625M6.62735903263092,0v0.9882352948188782M7.2773590087890625,0.6499999761581421h-7.2773590087890625M0.6499999761581421,0.9882352948188782v-0.9882352948188782" fill="none" clip-path="url(#clip-2)"/>
      </g>
    </g>
  </g>
</svg>
