<svg xmlns="http://www.w3.org/2000/svg" xmlns:xlink="http://www.w3.org/1999/xlink" width="22" height="22" viewBox="0 0 22 22">
  <defs>
    <clipPath id="clip-path">
      <rect id="Rectangle_862" data-name="Rectangle 862" width="22" height="22" transform="translate(1449 229)" fill="#fff" stroke="#707070" stroke-width="1"/>
    </clipPath>
  </defs>
  <g id="system_tools" transform="translate(-1449 -229)" clip-path="url(#clip-path)">
    <path id="Configure" d="M16.834,14.432a2.22,2.22,0,0,1,2.085-1.124.9.9,0,0,0,.9-.737,8.826,8.826,0,0,0,0-3.074.9.9,0,0,0-.9-.737,2.22,2.22,0,0,1-2.085-1.124,2.247,2.247,0,0,1,.081-2.382.9.9,0,0,0-.189-1.186A8.988,8.988,0,0,0,14.111,2.55a.9.9,0,0,0-1.115.4,2.22,2.22,0,0,1-4.009,0,.9.9,0,0,0-1.115-.431A8.988,8.988,0,0,0,5.257,4.069a.9.9,0,0,0-.189,1.186,2.247,2.247,0,0,1,.081,2.382A2.22,2.22,0,0,1,3.064,8.761a.9.9,0,0,0-.9.737,8.827,8.827,0,0,0,0,3.074.9.9,0,0,0,.9.737,2.22,2.22,0,0,1,2.085,1.124,2.247,2.247,0,0,1-.081,2.382A.9.9,0,0,0,5.257,18,8.988,8.988,0,0,0,7.873,19.52a.9.9,0,0,0,1.115-.4,2.22,2.22,0,0,1,4.009,0,.9.9,0,0,0,1.115.431,8.988,8.988,0,0,0,2.616-1.519.9.9,0,0,0,.189-1.186A2.247,2.247,0,0,1,16.834,14.432Zm-5.843.2a3.6,3.6,0,1,1,3.6-3.6A3.6,3.6,0,0,1,10.992,14.63Z" transform="translate(1449.008 229.599)" fill="none" stroke="#515151" stroke-width="1"/>
  </g>
</svg>
