<svg xmlns="http://www.w3.org/2000/svg" xmlns:xlink="http://www.w3.org/1999/xlink" width="22" height="22" viewBox="0 0 22 22">
  <defs>
    <clipPath id="clip-path">
      <rect id="Rectangle_1606" data-name="Rectangle 1606" width="22" height="22" transform="translate(1449 229)" fill="red"/>
    </clipPath>
  </defs>
  <g id="veritas_cluster" transform="translate(-1449 -229)" clip-path="url(#clip-path)">
    <g id="Group_9058" data-name="Group 9058" transform="translate(1001.916 153.134)">
      <g id="settings" transform="translate(451.97 82.087)">
        <path id="Path_25" data-name="Path 25" d="M477.744,108.941l-.619-.12a1.064,1.064,0,0,1-.8-.679,1.078,1.078,0,0,1,.14-1.038l.4-.539a.211.211,0,0,0-.02-.26l-.839-.839a.284.284,0,0,0-.279-.02l-.519.359a1.075,1.075,0,0,1-1.038.1,1.09,1.09,0,0,1-.659-.839l-.1-.658a.215.215,0,0,0-.2-.16h-1.2a.194.194,0,0,0-.2.16l-.16.8a1.071,1.071,0,0,1-.659.8,1.085,1.085,0,0,1-1.018-.1l-.679-.459a.209.209,0,0,0-.239.02l-.839.839a.209.209,0,0,0-.02.26l.4.539a1.078,1.078,0,0,1,.14,1.038,1.141,1.141,0,0,1-.8.679l-.619.12c-.14.02-.2.1-.2.2v1.2a.215.215,0,0,0,.16.2l.659.1a1.109,1.109,0,0,1,.839.639,1.022,1.022,0,0,1-.1,1.038l-.359.539a.212.212,0,0,0,.02.26l.838.839a.209.209,0,0,0,.26.02l.539-.4a1.078,1.078,0,0,1,1.038-.14,1.141,1.141,0,0,1,.679.8l.12.619a.194.194,0,0,0,.2.16h1.2a.215.215,0,0,0,.2-.16l.08-.459a1.06,1.06,0,0,1,.659-.839,1.107,1.107,0,0,1,1.058.12l.379.279a.21.21,0,0,0,.26-.02l.839-.839a.209.209,0,0,0,.02-.26l-.359-.519a1.075,1.075,0,0,1-.1-1.038,1.109,1.109,0,0,1,.839-.639l.659-.1a.194.194,0,0,0,.16-.2v-1.2A.194.194,0,0,0,477.744,108.941Z" transform="translate(-467.124 -104.25)" fill="none" stroke="#515151" stroke-miterlimit="10" stroke-width="1"/>
        <path id="Path_27" data-name="Path 27" d="M499.933,135.911a1.149,1.149,0,1,0,1.149,1.149A1.149,1.149,0,0,0,499.933,135.911Z" transform="translate(-494.443 -131.57)" fill="none" stroke="#515151" stroke-miterlimit="10" stroke-width="1"/>
      </g>
      <path id="Path_5952" data-name="Path 5952" d="M529.211,95.4a8.283,8.283,0,0,1,2.86,10.621" transform="translate(-67.307 -14.725)" fill="none" stroke="#515151" stroke-miterlimit="10" stroke-width="1"/>
      <path id="Path_5953" data-name="Path 5953" d="M449.084,95.2a8.277,8.277,0,0,1,8.086-8.274" transform="translate(0 -7.608)" fill="none" stroke="#515151" stroke-miterlimit="10" stroke-width="1"/>
      <path id="Path_5954" data-name="Path 5954" d="M471.1,173.575a8.282,8.282,0,0,1-10.238-2.072" transform="translate(-9.896 -78.655)" fill="none" stroke="#515151" stroke-miterlimit="10" stroke-width="1"/>
      <path id="Path_5955" data-name="Path 5955" d="M459.354,171.986v-2.16h2.16" transform="translate(-8.627 -77.246)" fill="none" stroke="#515151" stroke-miterlimit="10" stroke-width="1"/>
      <path id="Path_5956" data-name="Path 5956" d="M490.207,77.866l1.59,1.462-1.462,1.59" transform="translate(-34.543)" fill="none" stroke="#515151" stroke-miterlimit="10" stroke-width="1"/>
      <path id="Path_5957" data-name="Path 5957" d="M543.721,151.745l-1.978.868-.868-1.978" transform="translate(-77.104 -61.126)" fill="none" stroke="#515151" stroke-miterlimit="10" stroke-width="1"/>
    </g>
  </g>
</svg>
