<svg xmlns="http://www.w3.org/2000/svg" xmlns:xlink="http://www.w3.org/1999/xlink" width="22" height="22" viewBox="0 0 22 22">
  <defs>
    <clipPath id="clip-path">
      <rect id="Rectangle_2569" data-name="Rectangle 2569" width="22" height="22" transform="translate(250 226)" fill="#fff" stroke="#707070" stroke-width="1"/>
    </clipPath>
  </defs>
  <g id="vm_ware" transform="translate(-250 -226)" clip-path="url(#clip-path)">
    <g id="Group_8893" data-name="Group 8893" transform="translate(285.529 264.288)">
      <path id="Path_13544" data-name="Path 13544" d="M-32.433-30.638a1.083,1.083,0,0,0-1.453-.543,1.062,1.062,0,0,0-.532,1.454l2.436,5.295c.383.83.787,1.265,1.545,1.265.81,0,1.163-.474,1.545-1.265,0,0,2.125-4.627,2.146-4.677a.307.307,0,0,1,.306-.2.338.338,0,0,1,.337.343v4.524a1.136,1.136,0,0,0,1.131,1.27,1.147,1.147,0,0,0,1.146-1.27v-3.7a1.138,1.138,0,0,1,1.209-1.178,1.11,1.11,0,0,1,1.162,1.178v3.7a1.137,1.137,0,0,0,1.131,1.27,1.149,1.149,0,0,0,1.148-1.27v-3.7a1.137,1.137,0,0,1,1.207-1.178,1.111,1.111,0,0,1,1.162,1.178v3.7a1.137,1.137,0,0,0,1.131,1.27,1.148,1.148,0,0,0,1.147-1.27v-4.215a2.641,2.641,0,0,0-2.744-2.633,3.522,3.522,0,0,0-2.434,1.035,2.691,2.691,0,0,0-2.347-1.034,3.865,3.865,0,0,0-2.3,1.034,2.75,2.75,0,0,0-2.05-1.034A2.52,2.52,0,0,0-28.881-29.6l-1.556,3.668Z" transform="translate(0 0)" fill="#515151"/>
    </g>
  </g>
</svg>
