<svg xmlns="http://www.w3.org/2000/svg" xmlns:xlink="http://www.w3.org/1999/xlink" width="24" height="24" viewBox="0 0 24 24">
  <defs>
    <clipPath id="clip-path">
      <rect id="Rectangle_1223" data-name="Rectangle 1223" width="24" height="24" transform="translate(504 239)" fill="none" stroke="#707070" stroke-width="1"/>
    </clipPath>
    <filter id="Union_2" x="-411" y="-82" width="580.959" height="171" filterUnits="userSpaceOnUse">
      <feOffset dx="2" dy="2" input="SourceAlpha"/>
      <feGaussianBlur stdDeviation="3" result="blur"/>
      <feFlood flood-opacity="0.031"/>
      <feComposite operator="in" in2="blur"/>
      <feComposite in="SourceGraphic"/>
    </filter>
  </defs>
  <g id="worflow-1" transform="translate(-504 -239)" clip-path="url(#clip-path)">
    <g transform="matrix(1, 0, 0, 1, 504, 239)" filter="url(#Union_2)">
      <path id="Union_2-2" data-name="Union 2" d="M15,153A15,15,0,0,1,0,138V15A15,15,0,0,1,15,0H534.092a15,15,0,0,1,15,15V68.281l13.323,6.829a1,1,0,0,1,0,1.779l-13.323,6.829V138a15,15,0,0,1-15,15Z" transform="translate(-404 -75)" fill="none"/>
    </g>
    <g id="Group_6043" data-name="Group 6043" transform="translate(504.619 239.827)">
      <circle id="Ellipse_1424" data-name="Ellipse 1424" cx="3.486" cy="3.486" r="3.486" transform="translate(7.676 0.673)" fill="none" stroke="#8f9198" stroke-linecap="round" stroke-linejoin="round" stroke-width="2"/>
      <circle id="Ellipse_1425" data-name="Ellipse 1425" cx="3.486" cy="3.486" r="3.486" transform="translate(1.143 14.701)" fill="none" stroke="#8f9198" stroke-linecap="round" stroke-linejoin="round" stroke-width="2"/>
      <circle id="Ellipse_1426" data-name="Ellipse 1426" cx="3.486" cy="3.486" r="3.486" transform="translate(14.649 14.701)" fill="none" stroke="#8f9198" stroke-linecap="round" stroke-linejoin="round" stroke-width="2"/>
      <path id="Path_12805" data-name="Path 12805" d="M3.854,11.741V10.28a.851.851,0,0,1,.851-.851h11.8a.852.852,0,0,1,.851.851v1.461" transform="translate(0.776 2.505)" fill="none" stroke="#8f9198" stroke-linecap="round" stroke-linejoin="round" stroke-width="2"/>
      <line id="Line_507" data-name="Line 507" y2="4.288" transform="translate(11.162 7.646)" fill="none" stroke="#8f9198" stroke-linecap="round" stroke-linejoin="round" stroke-width="2"/>
    </g>
  </g>
</svg>
