<svg xmlns="http://www.w3.org/2000/svg" xmlns:xlink="http://www.w3.org/1999/xlink" width="24" height="24" viewBox="0 0 24 24">
  <defs>
    <clipPath id="clip-path">
      <rect id="Rectangle_1388" data-name="Rectangle 1388" width="24" height="24" transform="translate(1332 493)" fill="#fff" stroke="#5a8dff" stroke-width="1"/>
    </clipPath>
  </defs>
  <g id="maintanence" transform="translate(-1332 -493)" clip-path="url(#clip-path)">
    <g id="Group_6296" data-name="Group 6296" transform="translate(1329.976 452.751)">
      <path id="Path_12930" data-name="Path 12930" d="M17.209,51.91l4.762,4.762a2.521,2.521,0,0,1-3.565,3.565l-6.563-6.563" transform="translate(2.119 2.47)" fill="none" stroke="#5a8dff" stroke-linecap="round" stroke-linejoin="round" stroke-width="1"/>
      <path id="Path_12931" data-name="Path 12931" d="M23.265,52.495A6.55,6.55,0,0,1,16.108,53.9L7.4,62.6a2.472,2.472,0,0,1-3.495,0h0a2.472,2.472,0,0,1,0-3.495L12.62,50.4a6.531,6.531,0,0,1,8.549-8.548l-4.282,4.281,3.495,3.495,4.289-4.289A6.55,6.55,0,0,1,23.265,52.495Z" transform="translate(0.096 0)" fill="none" stroke="#5a8dff" stroke-linecap="round" stroke-linejoin="round" stroke-width="1"/>
      <line id="Line_676" data-name="Line 676" x1="4.746" y1="4.746" transform="translate(7.089 45.528)" fill="none" stroke="#5a8dff" stroke-linecap="round" stroke-linejoin="round" stroke-width="1"/>
      <path id="Path_12932" data-name="Path 12932" d="M7.011,43.149l.017,2.443-2.443-.017L2.774,42.534l1.2-1.2Z" transform="translate(0 0)" fill="none" stroke="#5a8dff" stroke-linecap="round" stroke-linejoin="round" stroke-width="1"/>
    </g>
  </g>
</svg>
