<svg xmlns="http://www.w3.org/2000/svg" xmlns:xlink="http://www.w3.org/1999/xlink" width="44" height="44" viewBox="0 0 44 44">
  <defs>
    <clipPath id="clip-path">
      <rect id="Rectangle_1361" data-name="Rectangle 1361" width="44" height="44" transform="translate(578 115)" fill="#fff" stroke="#707070" stroke-width="1"/>
    </clipPath>
  </defs>
  <g id="dashboard" transform="translate(-578 -115)" clip-path="url(#clip-path)">
    <g id="Group_6115" data-name="Group 6115" transform="translate(578.977 126.378)">
      <path id="Path_12882" data-name="Path 12882" d="M396.031,40.152a21.012,21.012,0,1,0-42.023,0h9.573a11.438,11.438,0,0,1,22.876,0Z" transform="translate(-354.008 -19.14)" fill="none" stroke="#8f9198" stroke-linecap="round" stroke-linejoin="round" stroke-width="2"/>
      <path id="Path_12883" data-name="Path 12883" d="M396.546,38.592a11.391,11.391,0,0,1,1.27,5.245h9.574a20.912,20.912,0,0,0-3.043-10.9" transform="translate(-365.367 -22.825)" fill="none" stroke="#8f9198" stroke-linecap="round" stroke-linejoin="round" stroke-width="2"/>
      <path id="Path_12884" data-name="Path 12884" d="M383.025,49.3a3.358,3.358,0,0,1-4.621-4.874c1.346-1.276,8.486-3.418,8.486-3.418S384.371,48.024,383.025,49.3Z" transform="translate(-360.243 -24.98)" fill="none" stroke="#8f9198" stroke-linecap="round" stroke-linejoin="round" stroke-width="2"/>
      <line id="Line_555" data-name="Line 555" x2="3.98" y2="8.374" transform="translate(13.895 1.452)" fill="none" stroke="#8f9198" stroke-linecap="round" stroke-linejoin="round" stroke-width="2"/>
      <line id="Line_556" data-name="Line 556" y1="8.374" x2="4.109" transform="translate(24.591 1.452)" fill="none" stroke="#8f9198" stroke-linecap="round" stroke-linejoin="round" stroke-width="2"/>
      <line id="Line_557" data-name="Line 557" x1="7.366" y2="5.515" transform="translate(31.178 9.948)" fill="none" stroke="#8f9198" stroke-linecap="round" stroke-linejoin="round" stroke-width="2"/>
      <line id="Line_558" data-name="Line 558" x1="7.366" y1="5.515" transform="translate(3.477 9.948)" fill="none" stroke="#8f9198" stroke-linecap="round" stroke-linejoin="round" stroke-width="2"/>
    </g>
  </g>
</svg>
