<svg xmlns="http://www.w3.org/2000/svg" width="62" height="62" viewBox="0 0 62 62">
  <g id="database-hm" transform="translate(-909.093 -694)">
    <circle id="Ellipse_137" data-name="Ellipse 137" cx="31" cy="31" r="31" transform="translate(909.093 694)" fill="#d94398"/>
    <g id="d82c2d1a1b6a38a98328fa37ce353ce7" transform="translate(927.093 711.438)">
      <g id="Group_1025" data-name="Group 1025" transform="translate(0 0)">
        <g id="Group_1024" data-name="Group 1024">
          <path id="Path_5932" data-name="Path 5932" d="M108.356,10c6.914,0,12.758,2.853,12.956,6.27-.2,3.417-6.043,6.273-12.956,6.273S95.6,19.69,95.4,16.273C95.6,12.853,101.443,10,108.356,10Z" transform="translate(-95.381 -10)" fill="#fff"/>
          <path id="Path_5934" data-name="Path 5934" d="M120.751,494.112c0,3.494-5.943,6.449-12.976,6.449S94.8,497.609,94.8,494.112V490.9c2.222,2.667,7.135,4.48,12.976,4.48s10.753-1.816,12.976-4.48v3.212Z" transform="translate(-94.8 -470.667)" fill="#fff"/>
          <path id="Path_5935" data-name="Path 5935" d="M120.751,304.321c0,3.5-5.94,6.449-12.976,6.449S94.8,307.818,94.8,304.321V301.5c2.222,2.668,7.135,4.48,12.976,4.48s10.753-1.812,12.976-4.48Z" transform="translate(-94.8 -289.749)" fill="#fff"/>
        </g>
      </g>
    </g>
  </g>
</svg>
