<svg xmlns="http://www.w3.org/2000/svg" width="22.7" height="22.7" viewBox="0 0 22.7 22.7">
  <path id="help" d="M11.2,0A11.35,11.35,0,1,0,22.7,11.2,11.351,11.351,0,0,0,11.2,0Zm-.034,18.257H11.1a1.652,1.652,0,0,1,.039-3.3H11.2a1.652,1.652,0,1,1-.032,3.3Zm4.06-8.058a7.5,7.5,0,0,1-1.355,1.213l-.693.478a1.883,1.883,0,0,0-.7.847,1.754,1.754,0,0,0-.107.711v.111H9.728l.008-.224a2.892,2.892,0,0,1,.436-1.908,11.231,11.231,0,0,1,1.973-1.588,2.082,2.082,0,0,0,.467-.478,1.681,1.681,0,0,0,.4-.98,1.91,1.91,0,0,0-.363-1.129,1.512,1.512,0,0,0-1.308-.492,1.427,1.427,0,0,0-1.322.611,2.455,2.455,0,0,0-.4,1.32v.113H6.892l0-.118A4.144,4.144,0,0,1,8.668,5.114a4.665,4.665,0,0,1,2.565-.673,5.537,5.537,0,0,1,3.309.953,3.3,3.3,0,0,1,1.339,2.851A3.262,3.262,0,0,1,15.224,10.2Z" transform="translate(0 0)" fill="#8f9198"/>
</svg>
