<svg xmlns="http://www.w3.org/2000/svg" xmlns:xlink="http://www.w3.org/1999/xlink" width="24" height="24" viewBox="0 0 24 24">
  <defs>
    <clipPath id="clip-path">
      <rect id="Rectangle_1698" data-name="Rectangle 1698" width="24" height="24" transform="translate(1449 229)" fill="red"/>
    </clipPath>
  </defs>
  <g id="backup_job_name" transform="translate(-1449 -229)" clip-path="url(#clip-path)">
    <g id="Group_6966" data-name="Group 6966" transform="translate(-4575.801 -8069.054)">
      <g id="Group_276" data-name="Group 276" transform="translate(6033.592 8308.231)">
        <path id="Path_1063" data-name="Path 1063" d="M6038.372,8304.141v5.516a2.226,2.226,0,0,1-2.25,2.226l-1.177-.021" transform="translate(-6034.945 -8304.021)" fill="none" stroke="#b73f83" stroke-linecap="round" stroke-linejoin="round" stroke-width="1"/>
        <path id="Path_1064" data-name="Path 1064" d="M6036.583,8306.09l2.1-2.1,2.1,2.1" transform="translate(-6035.255 -8303.992)" fill="none" stroke="#b73f83" stroke-linecap="round" stroke-linejoin="round" stroke-width="1"/>
      </g>
      <path id="Path_1065" data-name="Path 1065" d="M6045.729,8306.223v11.77a1.412,1.412,0,0,1-1.412,1.413h-15.106a1.412,1.412,0,0,1-1.412-1.413v-12.544a1.411,1.411,0,0,1,1.412-1.411h12.229" transform="translate(0.001 0.648)" fill="none" stroke="#b73f83" stroke-linecap="round" stroke-miterlimit="10" stroke-width="1"/>
      <path id="Path_1066" data-name="Path 1066" d="M6031.408,8298.261l.526-.948a1.469,1.469,0,0,1,1.3-.662h10.945a1.47,1.47,0,0,1,1.3.662l1.352,2.438c.4.721-.285,1.523-1.3,1.523H6043.2" transform="translate(-1.724 3.403)" fill="none" stroke="#b73f83" stroke-linecap="round" stroke-miterlimit="10" stroke-width="1"/>
    </g>
  </g>
</svg>
