<svg xmlns="http://www.w3.org/2000/svg" xmlns:xlink="http://www.w3.org/1999/xlink" width="24" height="24" viewBox="0 0 24 24">
  <defs>
    <clipPath id="clip-path">
      <rect id="Rectangle_1606" data-name="Rectangle 1606" width="24" height="24" transform="translate(1449 229)" fill="red"/>
    </clipPath>
  </defs>
  <g id="copy_job_name" transform="translate(-1449 -229)" clip-path="url(#clip-path)">
    <g id="Group_6865" data-name="Group 6865" transform="translate(15679.5 -7553.5)">
      <path id="Path_25" data-name="Path 25" d="M1699.777,1156.49l-1.15-.2a1.971,1.971,0,0,1-1.5-1.227,2,2,0,0,1,.221-1.926l.719-1.012a.392.392,0,0,0-.046-.48l-1.583-1.521a.526.526,0,0,0-.518-.026l-.948.684a1.991,1.991,0,0,1-1.918.223,2.019,2.019,0,0,1-1.25-1.528l-.209-1.215a.4.4,0,0,0-.375-.289l-2.218.044a.36.36,0,0,0-.363.3l-.267,1.484a1.985,1.985,0,0,1-1.19,1.5,2.009,2.009,0,0,1-1.889-.147l-1.273-.825a.388.388,0,0,0-.443.046l-1.521,1.583a.387.387,0,0,0-.027.481l.759.983a2,2,0,0,1,.3,1.916,2.112,2.112,0,0,1-1.453,1.286l-1.141.245c-.258.042-.366.192-.362.376l.044,2.217a.4.4,0,0,0,.3.363l1.224.161a2.053,2.053,0,0,1,1.576,1.151,1.892,1.892,0,0,1-.147,1.925l-.645,1.011a.392.392,0,0,0,.046.48l1.582,1.521a.388.388,0,0,0,.481.027l.983-.759a2,2,0,0,1,1.916-.3,2.112,2.112,0,0,1,1.286,1.453l.245,1.141a.36.36,0,0,0,.375.289l2.217-.044a.4.4,0,0,0,.363-.3l.131-.853a1.962,1.962,0,0,1,1.189-1.576,2.05,2.05,0,0,1,1.963.183l.712.5a.388.388,0,0,0,.48-.046l1.521-1.583a.388.388,0,0,0,.027-.481l-.684-.948a1.991,1.991,0,0,1-.223-1.918,2.053,2.053,0,0,1,1.529-1.214l1.215-.208a.36.36,0,0,0,.289-.375l-.044-2.218A.36.36,0,0,0,1699.777,1156.49Z" transform="translate(-15908.626 6636.527)" fill="none" stroke="#b73f83" stroke-linecap="round" stroke-width="1"/>
      <g id="Group_6865-2" data-name="Group 6865" transform="translate(-14222.417 7790.583)">
        <path id="Path_13807" data-name="Path 13807" d="M152.388,515.349V514.9a.371.371,0,0,1,.371-.371h2.295a.371.371,0,0,1,.371.371v.451" transform="translate(-150.016 -514.528)" fill="none" stroke="#b73f83" stroke-miterlimit="10" stroke-width="0.7"/>
        <rect id="Rectangle_1624" data-name="Rectangle 1624" width="7.779" height="6.139" rx="1" transform="translate(0 1.167)" fill="none" stroke="#b73f83" stroke-linecap="round" stroke-width="0.7"/>
        <path id="Path_13808" data-name="Path 13808" d="M131.651,549.564a.977.977,0,0,1-.977.977h-5.826a.977.977,0,0,1-.977-.977" transform="translate(-123.872 -546.304)" fill="none" stroke="#b73f83" stroke-linecap="round" stroke-width="0.7"/>
      </g>
    </g>
  </g>
</svg>
