<svg xmlns="http://www.w3.org/2000/svg" xmlns:xlink="http://www.w3.org/1999/xlink" width="24" height="24" viewBox="0 0 24 24">
  <defs>
    <clipPath id="clip-path">
      <rect id="Rectangle_1606" data-name="Rectangle 1606" width="24" height="24" transform="translate(1449 229)" fill="red"/>
    </clipPath>
  </defs>
  <g id="logical_host" transform="translate(-1449 -229)" clip-path="url(#clip-path)">
    <g id="Group_473" data-name="Group 473" transform="translate(-250 -768)">
      <g id="Group_439" data-name="Group 439" transform="translate(1702 999)">
        <path id="Path_1461" data-name="Path 1461" d="M858.889,443.145h-1.143a.675.675,0,0,0-.675.675v4.89h-3.431v1.7h-8.677l.028-1.3a4.806,4.806,0,0,0-1.371-3.435,3.9,3.9,0,0,0-.415-.354h0a8.474,8.474,0,0,1-2.816-6.293,8.751,8.751,0,0,1,8.881-8.615,9,9,0,0,1,8.95,7.511C858.425,438.97,858.889,443.145,858.889,443.145Z" transform="translate(-840.387 -430.412)" fill="none" stroke="#b73f83" stroke-width="1"/>
        <path id="Path_1462" data-name="Path 1462" d="M980.608,616.291a4.455,4.455,0,0,0,4.455,4.455" transform="translate(-971.966 -602.451)" fill="none" stroke="#b73f83" stroke-linecap="round" stroke-linejoin="round" stroke-width="1"/>
      </g>
      <g id="settings" transform="translate(1707.381 1002.801)">
        <path id="Path_25" data-name="Path 25" d="M410.256,324.844l-.416-.208a.784.784,0,0,1-.432-.641.8.8,0,0,1,.306-.709l.391-.3a.156.156,0,0,0,.038-.188l-.429-.762a.209.209,0,0,0-.194-.07l-.44.152a.794.794,0,0,1-.757-.136.805.805,0,0,1-.3-.727l.06-.488a.159.159,0,0,0-.11-.153l-.851-.238a.143.143,0,0,0-.174.074l-.272.535a.79.79,0,0,1-.627.436.8.8,0,0,1-.7-.273l-.391-.461a.154.154,0,0,0-.174-.033l-.762.429a.155.155,0,0,0-.066.181l.177.462a.8.8,0,0,1-.107.765.842.842,0,0,1-.7.323l-.464-.038a.146.146,0,0,0-.181.1l-.238.851a.159.159,0,0,0,.074.174l.448.2a.817.817,0,0,1,.469.62.753.753,0,0,1-.277.717l-.362.311a.156.156,0,0,0-.038.188l.429.762a.154.154,0,0,0,.18.066l.462-.176a.8.8,0,0,1,.765.107.841.841,0,0,1,.323.7l-.038.464a.143.143,0,0,0,.11.153l.851.238a.159.159,0,0,0,.173-.074l.148-.31a.782.782,0,0,1,.635-.465.816.816,0,0,1,.728.3l.214.274a.155.155,0,0,0,.188.038l.762-.429a.155.155,0,0,0,.066-.181l-.152-.44a.793.793,0,0,1,.136-.757.817.817,0,0,1,.723-.287l.488.06a.143.143,0,0,0,.153-.11l.238-.851A.143.143,0,0,0,410.256,324.844Z" transform="translate(-402.43 -320.366)" fill="none" stroke="#b73f83" stroke-linecap="round" stroke-width="1"/>
        <path id="Path_26" data-name="Path 26" d="M422.276,338.327a1.546,1.546,0,1,0,1.072,1.906h0a1.546,1.546,0,0,0-1.072-1.906Z" transform="translate(-417.837 -335.79)" fill="none" stroke="#b73f83" stroke-linecap="round" stroke-width="1"/>
      </g>
    </g>
  </g>
</svg>
