<svg xmlns="http://www.w3.org/2000/svg" xmlns:xlink="http://www.w3.org/1999/xlink" width="24" height="24" viewBox="0 0 24 24">
  <defs>
    <clipPath id="clip-path">
      <rect id="Rectangle_1669" data-name="Rectangle 1669" width="24" height="24" transform="translate(1449 229)" fill="red"/>
    </clipPath>
  </defs>
  <g id="replication_path" transform="translate(-1449 -229)" clip-path="url(#clip-path)">
    <g id="Group_6900" data-name="Group 6900" transform="translate(1450.148 192.535)">
      <rect id="Rectangle_1666" data-name="Rectangle 1666" width="4.898" height="3.344" rx="0.531" transform="translate(8.719 38.431)" fill="none" stroke="#b73f83" stroke-linecap="round" stroke-linejoin="round" stroke-width="1"/>
      <rect id="Rectangle_1667" data-name="Rectangle 1667" width="4.898" height="3.344" rx="0.531" transform="translate(8.719 45.997)" fill="none" stroke="#b73f83" stroke-linecap="round" stroke-linejoin="round" stroke-width="1"/>
      <rect id="Rectangle_1668" data-name="Rectangle 1668" width="4.898" height="3.344" rx="0.531" transform="translate(8.719 53.974)" fill="none" stroke="#b73f83" stroke-linecap="round" stroke-linejoin="round" stroke-width="1"/>
      <g id="Group_6897" data-name="Group 6897" transform="translate(0.689 47.669)">
        <g id="Group_6896" data-name="Group 6896" transform="translate(4.623 5.487)">
          <path id="Path_13904" data-name="Path 13904" d="M4.412,50.116,6.874,52.7,4.358,55.1Z" transform="translate(-4.358 -50.116)" fill="#b73f83" stroke="#b73f83" stroke-width="1"/>
        </g>
        <path id="Path_13905" data-name="Path 13905" d="M5.929,54.262h-.99a4.249,4.249,0,0,1-4.249-4.25h0a4.249,4.249,0,0,1,4.249-4.249h2.2" transform="translate(-0.689 -45.762)" fill="none" stroke="#b73f83" stroke-miterlimit="10" stroke-width="1"/>
      </g>
      <g id="Group_6899" data-name="Group 6899" transform="translate(14.502 39.633)">
        <g id="Group_6898" data-name="Group 6898" transform="translate(0 5.486)">
          <path id="Path_13906" data-name="Path 13906" d="M14.113,43.739l-2.462,2.58,2.516,2.4Z" transform="translate(-11.651 -43.739)" fill="#b73f83" stroke="#b73f83" stroke-width="1"/>
        </g>
        <path id="Path_13907" data-name="Path 13907" d="M13.408,47.883h.99a4.25,4.25,0,0,0,4.249-4.249h0A4.249,4.249,0,0,0,14.4,39.385h-2.2" transform="translate(-11.509 -39.385)" fill="none" stroke="#b73f83" stroke-miterlimit="10" stroke-width="1"/>
      </g>
    </g>
  </g>
</svg>
