<svg xmlns="http://www.w3.org/2000/svg" xmlns:xlink="http://www.w3.org/1999/xlink" width="24" height="24" viewBox="0 0 24 24">
  <defs>
    <clipPath id="clip-path">
      <rect id="Rectangle_1606" data-name="Rectangle 1606" width="24" height="24" transform="translate(1449 229)" fill="red"/>
    </clipPath>
  </defs>
  <g id="restore_job_name" transform="translate(-1449 -229)" clip-path="url(#clip-path)">
    <g id="Group_6866" data-name="Group 6866" transform="translate(1450.833 -113.798)">
      <path id="Path_13803" data-name="Path 13803" d="M2.575,357.783c-1.967-2.238-1.545-5.67-.973-7.154a8.949,8.949,0,0,1,14.7-3.075" transform="translate(0 0.026)" fill="none" stroke="#b73f83" stroke-linecap="round" stroke-linejoin="round" stroke-width="1.2"/>
      <path id="Path_13804" data-name="Path 13804" d="M17.962,351.321A8.947,8.947,0,0,1,5.909,361.1" transform="translate(0.816 1.121)" fill="none" stroke="#b73f83" stroke-linecap="round" stroke-linejoin="round" stroke-width="1.2"/>
      <path id="Path_13805" data-name="Path 13805" d="M2.734,358.348l3.046,4.264,2.169-4.77Z" transform="translate(0.274 2.234)" fill="#b73f83" stroke="#b73f83" stroke-width="1"/>
      <path id="Path_13806" data-name="Path 13806" d="M16.622,349.775l-1.488-5.025-3.608,3.8Z" transform="translate(1.775)" fill="#b73f83" stroke="#b73f83" stroke-width="1"/>
      <g id="Group_6867" data-name="Group 6867" transform="translate(6.979 350.559)">
        <path id="Path_13807" data-name="Path 13807" d="M152.388,515.2v-.366a.3.3,0,0,1,.3-.3h1.865a.3.3,0,0,1,.3.3v.366" transform="translate(-150.461 -514.528)" fill="none" stroke="#b73f83" stroke-miterlimit="10" stroke-width="0.7"/>
        <rect id="Rectangle_1624" data-name="Rectangle 1624" width="6.322" height="4.989" rx="1" transform="translate(0 0.949)" fill="none" stroke="#b73f83" stroke-linecap="round" stroke-width="0.7"/>
        <path id="Path_13808" data-name="Path 13808" d="M130.194,549.564a.794.794,0,0,1-.794.794h-4.735a.794.794,0,0,1-.794-.794" transform="translate(-123.872 -546.914)" fill="none" stroke="#b73f83" stroke-linecap="round" stroke-width="0.7"/>
      </g>
    </g>
  </g>
</svg>
