<svg xmlns="http://www.w3.org/2000/svg" xmlns:xlink="http://www.w3.org/1999/xlink" width="24" height="24" viewBox="0 0 24 24">
  <defs>
    <clipPath id="clip-path">
      <rect id="Rectangle_1054" data-name="Rectangle 1054" width="24" height="24" transform="translate(1239.834 145.5)" fill="#fff" stroke="#707070" stroke-width="1"/>
    </clipPath>
  </defs>
  <g id="server_host_name" transform="translate(-1239.834 -145.5)" clip-path="url(#clip-path)">
    <g id="Group_6910" data-name="Group 6910" transform="translate(-70.239 97)">
      <path id="Path_13919" data-name="Path 13919" d="M1314.738,78.259h-.675a1.49,1.49,0,0,0-1.49,1.49V90.111a1.49,1.49,0,0,0,1.49,1.49h6.594a1.125,1.125,0,0,1,1.125,1.125v1.3" transform="translate(0 -23.022)" fill="none" stroke="#b73f83" stroke-linecap="round" stroke-width="1"/>
      <path id="Path_13920" data-name="Path 13920" d="M1386.2,78.259h.464a1.49,1.49,0,0,1,1.49,1.49V90.111a1.49,1.49,0,0,1-1.49,1.49h-6.409" transform="translate(-57.158 -23.022)" fill="none" stroke="#b73f83" stroke-linecap="round" stroke-width="1"/>
      <path id="Path_13921" data-name="Path 13921" d="M1371.82,179.67" transform="translate(-50.038 -108.67)" fill="none" stroke="#b73f83" stroke-linecap="round" stroke-width="1"/>
      <line id="Line_743" data-name="Line 743" x2="4.145" transform="translate(1319.686 70.999)" fill="none" stroke="#b73f83" stroke-linecap="round" stroke-width="1"/>
      <line id="Line_744" data-name="Line 744" x2="18.418" transform="translate(1312.573 65.611)" fill="none" stroke="#b73f83" stroke-linecap="round" stroke-width="1"/>
      <path id="Path_13922" data-name="Path 13922" d="M1333.333,64.368V51.622a.691.691,0,0,1,.744-.622h10.533a.691.691,0,0,1,.744.622V64.368" transform="translate(-17.533)" fill="none" stroke="#b73f83" stroke-linecap="round" stroke-width="1"/>
      <line id="Line_745" data-name="Line 745" x2="4.663" transform="translate(1317.354 53.479)" fill="none" stroke="#b73f83" stroke-linecap="round" stroke-width="1"/>
      <line id="Line_746" data-name="Line 746" x2="4.197" transform="translate(1322.017 63.798)" fill="none" stroke="#b73f83" stroke-linecap="round" stroke-width="1"/>
      <line id="Line_747" data-name="Line 747" x2="8.86" transform="translate(1317.354 55.854)" fill="none" stroke="#b73f83" stroke-linecap="round" stroke-width="1"/>
      <line id="Line_748" data-name="Line 748" x2="8.86" transform="translate(1317.354 57.979)" fill="none" stroke="#b73f83" stroke-linecap="round" stroke-width="1"/>
      <line id="Line_749" data-name="Line 749" x2="8.86" transform="translate(1317.354 60.414)" fill="none" stroke="#b73f83" stroke-linecap="round" stroke-width="1"/>
    </g>
  </g>
</svg>
