<svg xmlns="http://www.w3.org/2000/svg" xmlns:xlink="http://www.w3.org/1999/xlink" width="24" height="24" viewBox="0 0 24 24">
  <defs>
    <clipPath id="clip-path">
      <rect id="Rectangle_1643" data-name="Rectangle 1643" width="24" height="24" transform="translate(250 228)" fill="#fff" stroke="#707070" stroke-width="1"/>
    </clipPath>
  </defs>
  <g id="server_name" transform="translate(-250 -228)" clip-path="url(#clip-path)">
    <g id="Group_6873" data-name="Group 6873" transform="translate(252.667 230.152)">
      <path id="Path_13855" data-name="Path 13855" d="M-282.647,401.962H-298.2a1.464,1.464,0,0,1-1.464-1.464V382.891a1.444,1.444,0,0,1,1.444-1.444h15.6a1.444,1.444,0,0,1,1.444,1.444V400.5A1.464,1.464,0,0,1-282.647,401.962Z" transform="translate(299.671 -381.447)" fill="none" stroke="#b73f83" stroke-miterlimit="10" stroke-width="1"/>
      <line id="Line_705" data-name="Line 705" x1="18.493" transform="translate(0 10.52)" fill="none" stroke="#b73f83" stroke-miterlimit="10" stroke-width="1"/>
      <circle id="Ellipse_1559" data-name="Ellipse 1559" cx="0.694" cy="0.694" r="0.694" transform="translate(2.893 4.626)" fill="none" stroke="#b73f83" stroke-miterlimit="10" stroke-width="1"/>
      <circle id="Ellipse_1560" data-name="Ellipse 1560" cx="0.694" cy="0.694" r="0.694" transform="translate(6.643 4.626)" fill="none" stroke="#b73f83" stroke-miterlimit="10" stroke-width="1"/>
      <line id="Line_706" data-name="Line 706" x2="4.8" transform="translate(10.595 5.33)" fill="none" stroke="#b73f83" stroke-miterlimit="10" stroke-width="1"/>
      <line id="Line_707" data-name="Line 707" x2="4.8" transform="translate(10.595 15.709)" fill="none" stroke="#b73f83" stroke-miterlimit="10" stroke-width="1"/>
      <circle id="Ellipse_1561" data-name="Ellipse 1561" cx="0.694" cy="0.694" r="0.694" transform="translate(2.893 15.015)" fill="none" stroke="#b73f83" stroke-miterlimit="10" stroke-width="1"/>
      <circle id="Ellipse_1562" data-name="Ellipse 1562" cx="0.694" cy="0.694" r="0.694" transform="translate(6.643 15.015)" fill="none" stroke="#b73f83" stroke-miterlimit="10" stroke-width="1"/>
    </g>
  </g>
</svg>
