<svg xmlns="http://www.w3.org/2000/svg" xmlns:xlink="http://www.w3.org/1999/xlink" width="24" height="24" viewBox="0 0 24 24">
  <defs>
    <clipPath id="clip-path">
      <rect id="Rectangle_1606" data-name="Rectangle 1606" width="24" height="24" transform="translate(1449 229)" fill="red"/>
    </clipPath>
  </defs>
  <g id="sybase_path" transform="translate(-1449 -229)" clip-path="url(#clip-path)">
    <g id="Group_6890" data-name="Group 6890" transform="translate(1450.148 192.535)">
      <rect id="Rectangle_1662" data-name="Rectangle 1662" width="4.898" height="3.344" rx="0.531" transform="translate(8.719 38.431)" fill="none" stroke="#b73f83" stroke-linecap="round" stroke-linejoin="round" stroke-width="1"/>
      <rect id="Rectangle_1663" data-name="Rectangle 1663" width="4.898" height="3.344" rx="0.531" transform="translate(8.719 45.997)" fill="none" stroke="#b73f83" stroke-linecap="round" stroke-linejoin="round" stroke-width="1"/>
      <rect id="Rectangle_1664" data-name="Rectangle 1664" width="4.898" height="3.344" rx="0.531" transform="translate(8.719 53.974)" fill="none" stroke="#b73f83" stroke-linecap="round" stroke-linejoin="round" stroke-width="1"/>
      <g id="Group_6891" data-name="Group 6891" transform="translate(0.689 47.669)">
        <g id="Group_6890-2" data-name="Group 6890" transform="translate(4.623 5.487)">
          <path id="Path_13899" data-name="Path 13899" d="M4.412,50.116,6.874,52.7,4.358,55.1Z" transform="translate(-4.358 -50.116)" fill="#b73f83" stroke="#b73f83" stroke-width="1"/>
        </g>
        <path id="Path_13900" data-name="Path 13900" d="M5.929,54.262h-.99a4.249,4.249,0,0,1-4.249-4.25h0a4.249,4.249,0,0,1,4.249-4.249h2.2" transform="translate(-0.689 -45.762)" fill="none" stroke="#b73f83" stroke-miterlimit="10" stroke-width="1"/>
      </g>
      <g id="Group_6893" data-name="Group 6893" transform="translate(14.502 39.633)">
        <g id="Group_6892" data-name="Group 6892" transform="translate(0 5.486)">
          <path id="Path_13901" data-name="Path 13901" d="M14.113,43.739l-2.462,2.58,2.516,2.4Z" transform="translate(-11.651 -43.739)" fill="#b73f83" stroke="#b73f83" stroke-width="1"/>
        </g>
        <path id="Path_13902" data-name="Path 13902" d="M13.408,47.883h.99a4.25,4.25,0,0,0,4.249-4.249h0A4.249,4.249,0,0,0,14.4,39.385h-2.2" transform="translate(-11.509 -39.385)" fill="none" stroke="#b73f83" stroke-miterlimit="10" stroke-width="1"/>
      </g>
    </g>
  </g>
</svg>
