<svg xmlns="http://www.w3.org/2000/svg" xmlns:xlink="http://www.w3.org/1999/xlink" width="24" height="24" viewBox="0 0 24 24">
  <defs>
    <clipPath id="clip-path">
      <rect id="Rectangle_1409" data-name="Rectangle 1409" width="24" height="24" transform="translate(1449 229)" fill="red"/>
    </clipPath>
  </defs>
  <g id="exchange-dag" transform="translate(-1449 -229)" clip-path="url(#clip-path)">
    <g id="microsoft-exchange" transform="translate(1451 232)">
      <g id="Group_6331" data-name="Group 6331">
        <path id="Path_13009" data-name="Path 13009" d="M19.487,3.523H11.282V0L0,1.912v15l11.282,1.913V15.552h8.205a.509.509,0,0,0,.513-.5V3.976a.545.545,0,0,0-.513-.453ZM7.026,12.834,4,12.583V6.241l2.82-.2V7.3l-1.744.05v1.46H6.82v1.208H5.077v1.46l1.949.1v1.258Zm12.308,2.114H11.282v-.856H12c.205,0,.359-.151.667-.5a20.981,20.981,0,0,0,1.692-2.315c.205-.3.359-.7.41-.755a.155.155,0,0,0-.051-.1l-.1-.05h-.1l-2.461,2.466c-.051.05-.205.05-.256.05h-.462V9.664c.256.151.615.4.82.5.308.2.718.352.769.4a.16.16,0,0,0,.1-.05l.1-.1v-.1L11.333,8.606V6.392H12.2a.191.191,0,0,1,.154.05l.513.5h.1l.41-.6V6.19s-.923-.805-.974-.906c-.051-.05-.1-.1-.308-.1h-.769V4.278h8.051v10.67h-.051ZM17.9,10.67a21.393,21.393,0,0,0-2.359-1.661c-.308-.2-.718-.352-.769-.4a.16.16,0,0,0-.1.05l-.1.1v.1l2.513,2.416c.051.05.051.2.051.252v1.107a.109.109,0,0,1-.1.1H15.487a.191.191,0,0,1-.154-.05l-.513-.5h-.1l-.41.6v.151s.923.805.974.906.1.1.308.1h2.564a.269.269,0,0,0,.308-.3V11.224a5.009,5.009,0,0,0-.564-.554Z" fill="#2372ba" fill-rule="evenodd"/>
        <path id="Path_13010" data-name="Path 13010" d="M54.7,25.014a.155.155,0,0,0,.051.1l.1.1h.1l2.462-2.466c.051-.05.205-.05.256-.05h1.128a.109.109,0,0,1,.1.1v1.51a.183.183,0,0,1-.051.151l-.513.5v.1l.615.4h.154s.82-.906.923-.956.1-.1.1-.3V21.692a.269.269,0,0,0-.308-.3H57.423c-.205,0-.359.151-.667.5a21.011,21.011,0,0,0-1.692,2.315C54.91,24.611,54.7,24.964,54.7,25.014Z" transform="translate(-41.833 -16.357)" fill="#2372ba" fill-rule="evenodd"/>
      </g>
    </g>
  </g>
</svg>
