<svg xmlns="http://www.w3.org/2000/svg" xmlns:xlink="http://www.w3.org/1999/xlink" width="24" height="24" viewBox="0 0 24 24">
  <defs>
    <clipPath id="clip-path">
      <rect id="Rectangle_1403" data-name="Rectangle 1403" width="24" height="24" transform="translate(1449 229)" fill="red"/>
    </clipPath>
    <linearGradient id="linear-gradient" x1="-4.183" y1="0.143" x2="-3.174" y2="0.794" gradientUnits="objectBoundingBox">
      <stop offset="0" stop-color="#909ca9"/>
      <stop offset="1" stop-color="#ededee"/>
    </linearGradient>
    <linearGradient id="linear-gradient-2" x1="-8.133" y1="37.388" x2="-6.64" y2="37.388" gradientUnits="objectBoundingBox">
      <stop offset="0" stop-color="#939fab"/>
      <stop offset="1" stop-color="#dcdee1"/>
    </linearGradient>
    <radialGradient id="radial-gradient" cx="0.443" cy="0.439" r="0.128" gradientTransform="matrix(-0.691, -0.149, -0.208, 1.978, -19.227, -9.973)" gradientUnits="objectBoundingBox">
      <stop offset="0" stop-color="#ee352c"/>
      <stop offset="1" stop-color="#a91d22"/>
    </radialGradient>
  </defs>
  <g id="microsoft-sql-server" transform="translate(-1449 -229)" clip-path="url(#clip-path)">
    <g id="microsoft-sql-server-2" data-name="microsoft-sql-server" transform="translate(1442.098 231.001)">
      <g id="Group_6324" data-name="Group 6324" transform="translate(8.903 -0.001)">
        <path id="Path_12954" data-name="Path 12954" d="M344.648,463.277l-4.213,1.376-3.665,1.618-1.025.271c-.261.248-.535.5-.831.755-.325.28-.627.535-.86.72a6.416,6.416,0,0,0-.834.828,3.755,3.755,0,0,0-.618,1.044,1.753,1.753,0,0,0,.248,1.576,5.583,5.583,0,0,0,2.3,1.729,14.642,14.642,0,0,0,2.025.678,26.819,26.819,0,0,0,4.318.615,4.965,4.965,0,0,0,.557,0,7.581,7.581,0,0,0,.411-.78,19.722,19.722,0,0,0,1.493-3.952,18.736,18.736,0,0,0,.382-2.739c.022-.309.032-1.344.013-1.694a11.9,11.9,0,0,0-.159-1.493.344.344,0,0,1-.01-.131,5.439,5.439,0,0,1,.57-.172l-.105-.248h0Zm-.962.564a10.316,10.316,0,0,1,.166,1.6.854.854,0,0,1,0,.217c-.025,0-.538-.3-.9-.532-.318-.2-.924-.6-1.019-.678-.032-.022-.029-.025.232-.115C342.6,464.178,343.651,463.841,343.686,463.841Zm-2.146.707a1.058,1.058,0,0,1,.277.15,19.737,19.737,0,0,0,1.93,1.073c.118.051.13.032-.14.217a13.876,13.876,0,0,1-2.188,1.175c-.156.07-.287.124-.29.124a.829.829,0,0,1,.038-.175,9.39,9.39,0,0,0,.341-2.239c0-.318,0-.318.032-.328C341.533,464.548,341.536,464.548,341.54,464.548Zm-.443.169a6.867,6.867,0,0,1-.019.927,8.11,8.11,0,0,1-.293,1.385,2.136,2.136,0,0,1-.073.223,5.607,5.607,0,0,1-.592-.576,4.314,4.314,0,0,1-.586-.853,2.68,2.68,0,0,1-.178-.433C339.406,465.353,341.084,464.7,341.1,464.716Zm-2.083.818a.012.012,0,0,1,.01,0,.6.6,0,0,1,.048.115,4.3,4.3,0,0,0,.529.946,5.384,5.384,0,0,0,.736.793c.076.064.146.124.156.134s.026.016-.494.213c-.6.229-1.258.459-2.009.7l-.538.175c-.029.01-.019-.006.064-.137a17.908,17.908,0,0,0,1.258-2.535c.054-.14.108-.28.118-.312a.115.115,0,0,1,.07-.083A.305.305,0,0,1,339.014,465.535Zm-.637.264a7.128,7.128,0,0,1-.312.659c-.309.6-.646,1.194-1.1,1.914-.076.124-.15.239-.159.252s-.022.016-.073-.083a2.919,2.919,0,0,1-.245-.739,2.974,2.974,0,0,1,.016-.949c.041-.2.038-.194.134-.242C337.046,466.4,338.365,465.786,338.378,465.8Zm5.493.223v.134a17.322,17.322,0,0,1-.188,2.395c-.019.124-.035.226-.038.229l-.2-.057a8.219,8.219,0,0,1-1.465-.627,6.488,6.488,0,0,1-.745-.459s.137-.073.293-.156a18.741,18.741,0,0,0,1.742-1.022c.194-.131.487-.341.551-.4Zm-7.9.943c.013,0,.01.025-.01.14-.013.083-.029.236-.035.341a2.357,2.357,0,0,0,.28,1.28,2.652,2.652,0,0,1,.111.242c-.022.019-2.13.637-2.793.818l-.382.105c-.022.006-.025,0-.016-.051a3.346,3.346,0,0,1,.927-1.6,4.119,4.119,0,0,1,1.048-.8c.325-.185.825-.462.863-.474C335.967,466.965,335.97,466.965,335.973,466.965Zm4.968.888a1.276,1.276,0,0,1,.172.092,9.593,9.593,0,0,0,2.439.949l.073.016-.1.057c-.424.236-1.815.815-3.239,1.347-.207.076-.411.153-.449.169a.228.228,0,0,1-.073.022s.057-.115.131-.252a15.706,15.706,0,0,0,1-2.283c.026-.06.041-.115.045-.118Zm-.506.166a.914.914,0,0,1-.054.147,20.157,20.157,0,0,1-1.1,2.226c-.118.21-.217.379-.22.379s-.1-.057-.213-.127a6.547,6.547,0,0,1-1.665-1.417l-.057-.07.29-.08a20.791,20.791,0,0,0,2.8-.965C340.33,468.06,340.432,468.019,340.435,468.019Zm3.146,1.1h0c0,.073-.159.729-.293,1.2-.111.4-.207.71-.382,1.261-.076.242-.143.443-.146.443a.211.211,0,0,1-.041-.009,13.3,13.3,0,0,1-2.589-.729c-.223-.089-.541-.232-.56-.248a3.713,3.713,0,0,1,.427-.2c1.449-.634,2.952-1.353,3.468-1.662A.416.416,0,0,1,343.581,469.117Zm-7.264.248c.006.006-.4.589-.965,1.382-.2.277-.427.6-.513.723s-.217.312-.29.427l-.134.207-.143-.121a5.3,5.3,0,0,1-.592-.605,2.613,2.613,0,0,1-.532-1.029c-.035-.153-.035-.229,0-.239.048-.013.9-.213,1.694-.4.443-.1.955-.223,1.14-.267S336.314,469.366,336.317,469.366Zm.408.156.1.115a5.979,5.979,0,0,0,1.493,1.223.837.837,0,0,1,.172.112c-.022.016-1.968.707-2.869,1.019-.506.178-.924.322-.927.322a.551.551,0,0,1-.064-.041l-.057-.041.092-.134c.3-.433.675-.908,1.493-1.895Zm2.541,1.818s.143.048.315.112a10.213,10.213,0,0,0,1.181.366,13.077,13.077,0,0,0,1.786.309c.07.006.108.013.1.022s-.49.169-.834.277c-.548.172-2.22.666-3.582,1.057-.252.073-.468.134-.481.137a.252.252,0,0,1-.137-.035,2.275,2.275,0,0,1,.169-.213,18.911,18.911,0,0,0,1.293-1.739C339.177,471.474,339.266,471.343,339.266,471.34Zm-.56.016s-.223.366-.618.99c-.169.264-.357.564-.424.669s-.159.261-.213.35l-.092.162-.048-.013c-.115-.032-.92-.315-1.134-.4a7.861,7.861,0,0,1-.742-.341,3.1,3.1,0,0,1-.548-.347c.006,0,.443-.121.968-.264,1.395-.379,2.169-.6,2.675-.758A1.286,1.286,0,0,1,338.706,471.356Zm3.965.93h0c.013.032-.5,1.465-.691,1.917-.041.1-.057.128-.08.124-.054,0-.8-.108-1.258-.175-.793-.121-2.124-.354-2.458-.43l-.076-.016.474-.108c1.019-.229,1.509-.353,2.006-.506a14.169,14.169,0,0,0,1.876-.723,1.523,1.523,0,0,1,.2-.083Z" transform="translate(-332.513 -453.456)" fill="url(#linear-gradient)"/>
        <path id="Path_12955" data-name="Path 12955" d="M460.846,82.734a20.242,20.242,0,0,0-1.93.694,12.055,12.055,0,0,0-2.22,1.115,1.685,1.685,0,0,0-.43.43.3.3,0,0,0-.019.108l.427.4,1.016.325,2.417.433,2.764.474.029-.239c-.009,0-.016,0-.025,0l-.363-.057-.073-.131c-.376-.662-.79-1.484-1.032-2.038a10.518,10.518,0,0,1-.465-1.283c-.054-.217-.06-.229-.1-.232h0Zm-.051.162h0s.016.092.029.2a6.659,6.659,0,0,0,.309,1.341c.118.35.118.331-.019.29-.325-.089-1.78-.341-2.834-.487-.169-.022-.312-.045-.312-.048s.761-.417,1.1-.576C459.508,83.413,460.706,82.913,460.795,82.9Zm-3.07,1.427.124.041a18.981,18.981,0,0,0,3.309.631l.2.019a1.483,1.483,0,0,1-.2.105c-.452.226-.949.5-1.293.717a1.321,1.321,0,0,1-.207.115c-.013,0-.08-.013-.15-.022l-.127-.019-.318-.312c-.56-.545-1-.965-1.169-1.124Zm-.127.1.449.56c.245.309.494.611.548.678a1.035,1.035,0,0,1,.1.124c-.013.01-.65-.115-.987-.191s-.49-.118-.7-.185l-.175-.057v-.045c0-.213.274-.532.732-.857Zm3.815.764c.013,0,.029.029.067.115.108.239.446.882.529,1.006.026.041.07.045-.379-.029-1.08-.175-1.427-.232-1.427-.239a.331.331,0,0,1,.073-.048,6.215,6.215,0,0,0,.971-.672c.073-.061.14-.118.153-.127S461.41,85.183,461.413,85.186Z" transform="translate(-453.054 -82.734)" fill="url(#linear-gradient-2)"/>
        <path id="Path_12956" data-name="Path 12956" d="M394.5,167.757a.317.317,0,0,0,0,.277,1.258,1.258,0,0,0,.3.353s1.417,1.382,1.589,1.58a4.427,4.427,0,0,1,1.156,3.025,4.9,4.9,0,0,1-.5,2.29,14.871,14.871,0,0,1-4.216,4.812l.315-.105a10.126,10.126,0,0,1,1.13-.672,40.3,40.3,0,0,1,5.257-2.353A65.567,65.567,0,0,1,410.2,174.1l.29-.045-.045-.07a9.816,9.816,0,0,0-.64-.9,7.651,7.651,0,0,0-2.261-1.882,16.765,16.765,0,0,0-4.907-1.646c-.385-.076-1.232-.223-1.92-.328-1.458-.226-2.4-.382-3.439-.56-.373-.064-.93-.159-1.3-.239a8.264,8.264,0,0,1-.844-.226C394.9,168.117,394.573,168.028,394.5,167.757Zm.822.8a.888.888,0,0,1,.121.038c.121.041.277.089.462.14q.21.058.42.111c.191.048.35.092.353.092.022.022.344,1.051.452,1.446.041.15.073.277.07.277a.643.643,0,0,1-.08-.124,6.629,6.629,0,0,0-1.643-1.857A1.356,1.356,0,0,1,395.324,168.553Zm1.567.433a1.251,1.251,0,0,1,.172.029c.541.121,1.513.306,2.134.411a.776.776,0,0,1,.188.041.323.323,0,0,1-.086.054c-.105.054-.529.306-.669.4a6.1,6.1,0,0,0-.9.72c-.092.092-.172.169-.172.169s-.019-.054-.035-.121a10.317,10.317,0,0,0-.57-1.56,1.37,1.37,0,0,1-.064-.146C396.888,168.99,396.888,168.986,396.891,168.986Zm2.758.525a1.223,1.223,0,0,1,.115.353,5.213,5.213,0,0,1,.153,1.459c-.006.134-.013.258-.019.274l-.01.032-.166-.054c-.341-.108-.895-.271-1.369-.4-.271-.073-.49-.14-.49-.147a7.539,7.539,0,0,1,.564-.564A14.79,14.79,0,0,1,399.649,169.512Zm.22.032c.01-.01,1.318.217,1.914.331.443.086,1.086.22,1.124.236.019.006-.048.045-.261.14a13.825,13.825,0,0,0-2.086,1.134c-.162.108-.3.2-.3.2a1.715,1.715,0,0,1-.006-.2,4.449,4.449,0,0,0-.344-1.732A.479.479,0,0,1,399.869,169.544Zm3.385.669a2.4,2.4,0,0,1-.07.42,7.98,7.98,0,0,1-.8,1.841,2.1,2.1,0,0,1-.134.217,1.349,1.349,0,0,1-.191-.1,10.381,10.381,0,0,0-1.248-.611c-.127-.054-.239-.1-.242-.105-.022-.019,1-.7,1.544-1.022C402.54,170.588,403.241,170.2,403.254,170.212Zm.242.038c.029,0,.608.159.911.248a18.785,18.785,0,0,1,2.169.793l.232.105-.162.038a23.739,23.739,0,0,0-3.672,1.137c-.092.038-.175.07-.181.07a.816.816,0,0,1,.067-.162,6.451,6.451,0,0,0,.615-2.121C403.477,170.3,403.486,170.251,403.5,170.251Zm-5.77,1.325c.01-.01.452.1.691.162.363.1,1.134.36,1.134.379,0,0-.086.076-.188.166-.417.347-.819.713-1.3,1.178-.143.137-.264.248-.271.248s-.01-.019-.006-.045a7.18,7.18,0,0,0-.044-1.92C397.732,171.655,397.722,171.578,397.725,171.575Zm9.3.01a6.093,6.093,0,0,1-.338.525c-.191.274-.471.637-1.105,1.433-.334.42-.71.895-.834,1.054s-.232.293-.236.293a1.1,1.1,0,0,1-.089-.127,6.578,6.578,0,0,0-1.29-1.423c-.1-.08-.2-.166-.236-.191a.356.356,0,0,1-.064-.054c0-.01.541-.242.952-.408.72-.293,1.7-.643,2.436-.869C406.61,171.7,407.021,171.578,407.027,171.585Zm.245.064a.734.734,0,0,1,.182.089,10.805,10.805,0,0,1,2.13,1.6c.169.166.586.6.58.6s-.146.013-.318.025a31.394,31.394,0,0,0-4.707.783c-.111.025-.21.048-.216.048s.118-.124.274-.274a8.149,8.149,0,0,0,1.933-2.573c.073-.156.137-.29.143-.3Zm-7.092.726c.045.01.459.2.771.36.287.143.716.373.739.392,0,0-.15.083-.338.175-.6.3-1.111.583-1.646.908-.153.092-.28.169-.283.169s-.01-.013.076-.169a6.65,6.65,0,0,0,.647-1.755C400.158,172.406,400.171,172.375,400.181,172.375Zm-.414.076a6.047,6.047,0,0,1-.166.615,7.836,7.836,0,0,1-.564,1.293c-.051.089-.127.22-.169.293l-.08.127-.178-.172a2.34,2.34,0,0,0-.592-.436.852.852,0,0,1-.153-.089c0-.026.544-.519.962-.876C399.127,172.948,399.757,172.441,399.767,172.451Zm2.532,1.041.156.1a12.1,12.1,0,0,1,1.1.812c.182.15.532.465.6.541l.038.041-.258.073c-1.459.4-2.586.764-3.9,1.248-.146.054-.271.1-.28.1s-.035.016.293-.287a13.984,13.984,0,0,0,2.14-2.458Zm-.666.166c.006.006-.43.621-.691.968-.312.414-.866,1.108-1.248,1.56-.159.188-.3.344-.3.347s-.013-.045-.013-.118a2.67,2.67,0,0,0-.271-1.146c-.073-.147-.086-.182-.07-.2.06-.054.987-.583,1.573-.9C401.005,173.964,401.623,173.652,401.633,173.658Zm-4.025.987a1.4,1.4,0,0,1,.166.083,3.5,3.5,0,0,1,.548.369.952.952,0,0,1-.185.153c-.3.217-.761.564-1.029.777s-.29.229-.258.181a5.858,5.858,0,0,0,.427-.736,5.933,5.933,0,0,0,.268-.666A.538.538,0,0,1,397.608,174.645Zm1.073.841c.016,0,.035.025.121.153a2.3,2.3,0,0,1,.357.927l.006.064-.436.169c-.78.3-1.5.6-1.987.825-.137.064-.376.178-.532.255s-.283.14-.283.137.1-.076.22-.166a12.843,12.843,0,0,0,2.395-2.207c.067-.08.127-.153.134-.156Zm-.494.121a6.733,6.733,0,0,1-.6.675,10.562,10.562,0,0,1-1.977,1.6l-.191.121c-.022.013.006-.019.338-.379.21-.226.369-.417.551-.653a1.077,1.077,0,0,1,.318-.3C397.095,176.326,398.174,175.594,398.187,175.607Z" transform="translate(-391.268 -165.563)" fill="url(#radial-gradient)"/>
      </g>
    </g>
  </g>
</svg>
