<svg xmlns="http://www.w3.org/2000/svg" xmlns:xlink="http://www.w3.org/1999/xlink" width="24" height="24" viewBox="0 0 24 24">
  <defs>
    <clipPath id="clip-path">
      <rect id="Rectangle_1402" data-name="Rectangle 1402" width="24" height="24" transform="translate(1449 229)" fill="red"/>
    </clipPath>
  </defs>
  <g id="mongodb" transform="translate(-1449 -229)" clip-path="url(#clip-path)">
    <g id="Group_6347" data-name="Group 6347" transform="translate(13927 -2184)">
      <circle id="mongodb-2" data-name="mongodb" cx="12" cy="12" r="12" transform="translate(-12478 2413)" fill="#5d4037"/>
      <g id="mongodb-icon" transform="translate(-12478.813 2416)">
        <path id="Path_13011" data-name="Path 13011" d="M15.89.087l.5.935a2.794,2.794,0,0,0,.376.467A13.059,13.059,0,0,1,17.932,2.81,11.479,11.479,0,0,1,19.75,6.478a9.018,9.018,0,0,1,.386,2.489,8.783,8.783,0,0,1-2.565,6.482,7.4,7.4,0,0,1-.915.782c-.173,0-.254-.132-.325-.254a2.092,2.092,0,0,1-.254-.732A3.534,3.534,0,0,1,16,14.32v-.142c-.014-.03-.166-14.019-.106-14.091Z" transform="translate(-2.946 -0.036)" fill="#599636"/>
        <path id="Path_13012" data-name="Path 13012" d="M12.944.02c-.02-.041-.041-.01-.061.01a.939.939,0,0,1-.173.56,2.681,2.681,0,0,1-.447.447A9.736,9.736,0,0,0,10.079,3.82,11.183,11.183,0,0,0,8.82,8.371a15.143,15.143,0,0,0,.365,3.211,9.733,9.733,0,0,0,2.55,4.013,11.143,11.143,0,0,0,.9.772c.092,0,.1-.082.122-.142a2.786,2.786,0,0,0,.092-.4l.2-1.524Z" transform="translate(0 0)" fill="#6cac48"/>
        <path id="Path_13013" data-name="Path 13013" d="M16.18,26.846a1.391,1.391,0,0,1,.254-.62.641.641,0,0,1-.284-.264A1.886,1.886,0,0,1,16,25.627a5.8,5.8,0,0,1-.213-1.31v-.264a1.267,1.267,0,0,0-.061.437,10.125,10.125,0,0,1-.183,1.372,1.22,1.22,0,0,1-.163.528.2.2,0,0,0,.01.071,6.066,6.066,0,0,1,.264,1.646v.2c0,.244-.01.192.192.274a.891.891,0,0,1,.254.1c.061,0,.071-.051.071-.092l-.03-.335v-.935a2.472,2.472,0,0,1,.041-.478Z" transform="translate(-2.738 -10.033)" fill="#c2bfbf"/>
      </g>
    </g>
  </g>
</svg>
