<svg xmlns="http://www.w3.org/2000/svg" xmlns:xlink="http://www.w3.org/1999/xlink" width="24" height="24" viewBox="0 0 24 24">
  <defs>
    <clipPath id="clip-path">
      <rect id="Rectangle_1401" data-name="Rectangle 1401" width="24" height="24" transform="translate(1449 229)" fill="red"/>
    </clipPath>
  </defs>
  <g id="mysql" transform="translate(-1449 -229)" clip-path="url(#clip-path)">
    <g id="Group_6336" data-name="Group 6336" transform="translate(13927 -2228)">
      <circle id="mysql-2" data-name="mysql" cx="12" cy="12" r="12" transform="translate(-12478 2457)" fill="#fff"/>
      <path id="mysql-icon" d="M59.844,28.573a4.614,4.614,0,0,0-1.94.278c-.15.06-.39.06-.41.249.08.079.09.208.16.318a2.324,2.324,0,0,0,.52.606l.64.457c.39.238.83.378,1.21.616.22.139.44.318.66.467.112.08.18.209.32.258v-.03c-.07-.089-.09-.218-.16-.318l-.3-.288a4.719,4.719,0,0,0-1.04-1c-.32-.219-1.02-.517-1.15-.884l-.02-.022a4.338,4.338,0,0,0,.69-.159c.34-.089.65-.069,1-.159l.48-.139v-.089c-.18-.179-.31-.417-.5-.586a13.325,13.325,0,0,0-1.65-1.222c-.31-.2-.71-.328-1.04-.5-.12-.06-.32-.09-.39-.189a3.969,3.969,0,0,1-.41-.765l-.82-1.729a10.629,10.629,0,0,0-.51-1.133,10.052,10.052,0,0,0-3.87-3.717,4.827,4.827,0,0,0-1.277-.408l-.75-.04a3.944,3.944,0,0,1-.46-.348c-.57-.358-2.04-1.133-2.46-.111-.27.646.4,1.282.628,1.61a4.691,4.691,0,0,1,.51.745c.067.169.09.348.16.527a11.853,11.853,0,0,0,.52,1.332,5.021,5.021,0,0,0,.37.616c.08.111.22.159.25.338a2.824,2.824,0,0,0-.23.745,4.358,4.358,0,0,0,.29,3.341c.16.248.538.8,1.05.586.45-.179.35-.745.48-1.242.03-.119.01-.2.07-.278v.022l.41.825a5.7,5.7,0,0,0,1.3,1.332c.24.179.43.487.73.6v-.03h-.02a1.111,1.111,0,0,0-.23-.2,4.848,4.848,0,0,1-.52-.6,12.794,12.794,0,0,1-1.12-1.808c-.16-.308-.3-.646-.43-.954-.061-.119-.061-.3-.16-.358a3.752,3.752,0,0,0-.48.676,5.562,5.562,0,0,0-.28,1.5c-.04.01-.022,0-.04.022-.32-.079-.43-.408-.55-.686A4.274,4.274,0,0,1,48.984,24c.07-.209.37-.865.25-1.063-.061-.189-.26-.3-.37-.447a4.008,4.008,0,0,1-.36-.636c-.24-.557-.36-1.173-.62-1.729a5.3,5.3,0,0,0-.5-.765,4.933,4.933,0,0,1-.55-.775c-.05-.111-.12-.288-.04-.408a.156.156,0,0,1,.14-.129c.13-.111.5.03.63.089a5.136,5.136,0,0,1,.99.5c.14.1.29.288.47.338h.21c.32.069.68.022.979.111a6.42,6.42,0,0,1,1.44.686,8.834,8.834,0,0,1,3.12,3.4c.12.229.17.437.28.676.21.487.47.984.68,1.461a6.538,6.538,0,0,0,.71,1.332c.15.209.75.318,1.02.427a7.115,7.115,0,0,1,.69.278c.34.209.68.447,1,.676.16.119.66.367.69.566Zm-10.2-8.635a1.6,1.6,0,0,0-.41.05v.022h.02a3.21,3.21,0,0,0,.32.408l.23.477.02-.022a.559.559,0,0,0,.21-.5,2.21,2.21,0,0,1-.12-.209c-.06-.1-.19-.149-.27-.229Z" transform="translate(-12519.305 2444.522)" fill="#00678c" fill-rule="evenodd"/>
    </g>
  </g>
</svg>
