<svg xmlns="http://www.w3.org/2000/svg" width="32" height="32.001" viewBox="0 0 32 32.001">
  <g id="admin" transform="translate(0 0)">
    <path id="Path_12132" data-name="Path 12132" d="M14.881,28.891,10.19,31.577a4.225,4.225,0,0,0-.753.562,15.149,15.149,0,0,0,20.188.055,4.154,4.154,0,0,0-.827-.582l-5.023-2.636a2.023,2.023,0,0,1-1.059-1.8V25.11a7.924,7.924,0,0,0,.475-.641,12.381,12.381,0,0,0,1.562-3.3,1.647,1.647,0,0,0,1.119-1.575V17.383a1.685,1.685,0,0,0-.526-1.223V12.968S25.97,8,19.561,8s-5.785,4.967-5.785,4.967v3.192a1.682,1.682,0,0,0-.526,1.223v2.208a1.676,1.676,0,0,0,.727,1.389,11.157,11.157,0,0,0,1.9,4.13v2.017A2.03,2.03,0,0,1,14.881,28.891Z" transform="translate(-3.561 -4.018)" fill="#fff"/>
    <g id="Group_5591" data-name="Group 5591" transform="translate(0 0)" opacity="0.3">
      <path id="Path_12133" data-name="Path 12133" d="M16.274,0A15.913,15.913,0,0,0,5.7,28.118a4.251,4.251,0,0,1,.759-.538l4.774-2.594a1.941,1.941,0,0,0,1.016-1.7V21.334a10.556,10.556,0,0,1-1.936-3.989A1.6,1.6,0,0,1,9.578,16V13.871a1.589,1.589,0,0,1,.535-1.182V9.607s-.636-4.8,5.887-4.8,5.887,4.8,5.887,4.8V12.69a1.587,1.587,0,0,1,.535,1.182V16a1.6,1.6,0,0,1-1.139,1.521,11.7,11.7,0,0,1-1.589,3.189,7.694,7.694,0,0,1-.484.619v2a1.94,1.94,0,0,0,1.078,1.737L25.4,27.613a4.258,4.258,0,0,1,.839.56A15.917,15.917,0,0,0,16.274,0Z" transform="translate(0 0)" fill="#fff"/>
    </g>
  </g>
</svg>
