<svg xmlns="http://www.w3.org/2000/svg" xmlns:xlink="http://www.w3.org/1999/xlink" width="18" height="18" viewBox="0 0 18 18">
  <defs>
    <clipPath id="clip-path">
      <rect id="Rectangle_849" data-name="Rectangle 849" width="18" height="18" transform="translate(0.223 -0.75)" fill="#fff" stroke="#b73f83" stroke-width="1"/>
    </clipPath>
  </defs>
  <g id="company-name" transform="translate(-0.223 0.75)" clip-path="url(#clip-path)">
    <path id="Rectangle_848" data-name="Rectangle 848" d="M.833,0H9.417a.833.833,0,0,1,.833.833V15.063a0,0,0,0,1,0,0H0a0,0,0,0,1,0,0V.833A.833.833,0,0,1,.833,0Z" transform="translate(0.89 1.25)" fill="none" stroke="#b73f83" stroke-miterlimit="10" stroke-width="1"/>
    <path id="Path_12190" data-name="Path 12190" d="M5.89,16.31h6.523V7.3c0-.443-.225-.8-.5-.8H7.473" transform="translate(5.25)" fill="none" stroke="#b73f83" stroke-miterlimit="10" stroke-width="1"/>
    <line id="Line_351" data-name="Line 351" x2="6.125" transform="translate(2.723 4.333)" fill="none" stroke="#b73f83" stroke-miterlimit="10" stroke-width="1"/>
    <line id="Line_352" data-name="Line 352" x2="6.125" transform="translate(2.723 8.667)" fill="none" stroke="#b73f83" stroke-miterlimit="10" stroke-width="1"/>
    <line id="Line_353" data-name="Line 353" x2="6.125" transform="translate(2.723 13.458)" fill="none" stroke="#b73f83" stroke-miterlimit="10" stroke-width="1"/>
  </g>
</svg>
