<svg xmlns="http://www.w3.org/2000/svg" xmlns:xlink="http://www.w3.org/1999/xlink" width="68" height="68" viewBox="0 0 68 68">
  <defs>
    <clipPath id="clip-path">
      <rect id="Rectangle_1131" data-name="Rectangle 1131" width="68" height="68" transform="translate(-6994 -9013)" fill="#fff" stroke="#707070" stroke-width="1"/>
    </clipPath>
  </defs>
  <g id="DR-Site-disable" transform="translate(6994 9013)" clip-path="url(#clip-path)">
    <g id="Group_5936" data-name="Group 5936" transform="translate(0 -6)">
      <g id="Rectangle_1130" data-name="Rectangle 1130" transform="translate(-6974 -8999)" fill="#fff" stroke="#8f9198" stroke-linecap="round" stroke-linejoin="round" stroke-width="2.5">
        <rect width="28" height="41" rx="4" stroke="none"/>
        <rect x="1.25" y="1.25" width="25.5" height="38.5" rx="2.75" fill="none"/>
      </g>
      <path id="Path_12667" data-name="Path 12667" d="M-6971.375-9000.25h24.125" transform="translate(0.041 12.75)" fill="none" stroke="#8f9198" stroke-linecap="round" stroke-width="2.5"/>
      <path id="Path_12668" data-name="Path 12668" d="M-6971.375-9000.25h6.938" transform="translate(10.684 7.5)" fill="none" stroke="#dfdfdf" stroke-linecap="round" stroke-width="2.5"/>
      <path id="Path_12669" data-name="Path 12669" d="M-6971.375-9000.25h6.938" transform="translate(10.684 17.5)" fill="none" stroke="#dfdfdf" stroke-linecap="round" stroke-width="2.5"/>
      <path id="Path_12670" data-name="Path 12670" d="M-6971.375-9000.25h6.938" transform="translate(10.684 26.5)" fill="none" stroke="#dfdfdf" stroke-linecap="round" stroke-width="2.5"/>
      <path id="Path_12671" data-name="Path 12671" d="M-6971.375-9000.25h6.938" transform="translate(10.684 36.5)" fill="none" stroke="#dfdfdf" stroke-linecap="round" stroke-width="2.5"/>
      <path id="Path_12672" data-name="Path 12672" d="M-6971.375-9000.25h24.125" transform="translate(0.041 21.75)" fill="none" stroke="#8f9198" stroke-linecap="round" stroke-width="2.5"/>
      <path id="Path_12673" data-name="Path 12673" d="M-6971.375-9000.25h24.125" transform="translate(0.041 31.75)" fill="none" stroke="#8f9198" stroke-linecap="round" stroke-width="2.5"/>
      <path id="Path_12674" data-name="Path 12674" d="M-575.678,397.232a1.25,1.25,0,0,1-1.249,1.251,1.25,1.25,0,0,1-1.251-1.251,1.249,1.249,0,0,1,1.251-1.249A1.249,1.249,0,0,1-575.678,397.232Z" transform="translate(-6390.747 -9389.983)" fill="#8f9198"/>
      <path id="Path_12675" data-name="Path 12675" d="M-575.678,397.232a1.25,1.25,0,0,1-1.249,1.251,1.25,1.25,0,0,1-1.251-1.251,1.249,1.249,0,0,1,1.251-1.249A1.249,1.249,0,0,1-575.678,397.232Z" transform="translate(-6390.747 -9379.983)" fill="#8f9198"/>
      <path id="Path_12676" data-name="Path 12676" d="M-575.678,397.232a1.25,1.25,0,0,1-1.249,1.251,1.25,1.25,0,0,1-1.251-1.251,1.249,1.249,0,0,1,1.251-1.249A1.249,1.249,0,0,1-575.678,397.232Z" transform="translate(-6390.747 -9370.983)" fill="#8f9198"/>
      <path id="Path_12677" data-name="Path 12677" d="M-575.678,397.232a1.25,1.25,0,0,1-1.249,1.251,1.25,1.25,0,0,1-1.251-1.251,1.249,1.249,0,0,1,1.251-1.249A1.249,1.249,0,0,1-575.678,397.232Z" transform="translate(-6390.747 -9360.983)" fill="#8f9198"/>
      <path id="Path_12678" data-name="Path 12678" d="M-29.7,67.709h11.055a2.3,2.3,0,0,0,2.3-2.3V35a2.3,2.3,0,0,0-2.3-2.3H-29.7" transform="translate(-6914.222 -9029.852)" fill="#e8e8e8" stroke="#8f9198" stroke-linejoin="round" stroke-width="2.5"/>
      <path id="Path_12679" data-name="Path 12679" d="M-6937.368-8987.5h-5.549" transform="translate(1)" fill="none" stroke="#8f9198" stroke-linecap="round" stroke-width="2.5"/>
      <path id="Path_12680" data-name="Path 12680" d="M-16.348,67.709H-27.4a2.3,2.3,0,0,1-2.3-2.3V35a2.3,2.3,0,0,1,2.3-2.3h11.055" transform="translate(-6959.301 -9029.852)" fill="#e8e8e8" stroke="#8f9198" stroke-linejoin="round" stroke-width="2.5"/>
      <path id="Path_12681" data-name="Path 12681" d="M-6942.917-8987.5h5.592" transform="translate(-40.841)" fill="none" stroke="#8f9198" stroke-linecap="round" stroke-width="2.5"/>
      <path id="Path_12682" data-name="Path 12682" d="M-6937.368-8987.5h-5.549" transform="translate(1 9)" fill="none" stroke="#8f9198" stroke-linecap="round" stroke-width="2.5"/>
      <path id="Path_12683" data-name="Path 12683" d="M-6942.917-8987.5h5.592" transform="translate(-40.841 9)" fill="none" stroke="#8f9198" stroke-linecap="round" stroke-width="2.5"/>
      <path id="Path_12684" data-name="Path 12684" d="M-6937.368-8987.5h-5.549" transform="translate(1 18)" fill="none" stroke="#8f9198" stroke-linecap="round" stroke-width="2.5"/>
      <path id="Path_12685" data-name="Path 12685" d="M-6942.917-8987.5h5.592" transform="translate(-40.841 18)" fill="none" stroke="#8f9198" stroke-linecap="round" stroke-width="2.5"/>
      <path id="Path_12686" data-name="Path 12686" d="M-10601-3686.4v8.6" transform="translate(3641.733 -5272.1)" fill="none" stroke="#8f9198" stroke-width="2.5"/>
      <path id="Path_12687" data-name="Path 12687" d="M-10599.291-3672h-35.513" transform="translate(3656.375 -5277.895)" fill="none" stroke="#8f9198" stroke-linecap="round" stroke-width="2.5"/>
      <ellipse id="Ellipse_1380" data-name="Ellipse 1380" cx="3.539" cy="3.541" rx="3.539" ry="3.541" transform="translate(-6962.945 -8953.754)" fill="#fff" stroke="#8f9198" stroke-width="2.5"/>
    </g>
  </g>
</svg>
