<svg xmlns="http://www.w3.org/2000/svg" xmlns:xlink="http://www.w3.org/1999/xlink" width="68" height="68" viewBox="0 0 68 68">
  <defs>
    <clipPath id="clip-path">
      <rect id="Rectangle_1133" data-name="Rectangle 1133" width="68" height="68" transform="translate(-6994 -9013)" fill="#fff" stroke="#b73f83" stroke-width="1"/>
    </clipPath>
  </defs>
  <g id="DR-Site" transform="translate(6994 9013)" clip-path="url(#clip-path)">
    <g id="Group_5937" data-name="Group 5937" transform="translate(0 -6)">
      <g id="Rectangle_1132" data-name="Rectangle 1132" transform="translate(-6974 -8999)" fill="#fff" stroke="#b73f83" stroke-linecap="round" stroke-linejoin="round" stroke-width="2.5">
        <rect width="28" height="41" rx="4" stroke="none"/>
        <rect x="1.25" y="1.25" width="25.5" height="38.5" rx="2.75" fill="none"/>
      </g>
      <path id="Path_12688" data-name="Path 12688" d="M-6971.375-9000.25h24.125" transform="translate(0.041 12.75)" fill="none" stroke="#b73f83" stroke-linecap="round" stroke-width="2.5"/>
      <path id="Path_12689" data-name="Path 12689" d="M-6971.375-9000.25h6.938" transform="translate(10.684 7.5)" fill="none" stroke="#ffd8ee" stroke-linecap="round" stroke-width="2.5"/>
      <path id="Path_12690" data-name="Path 12690" d="M-6971.375-9000.25h6.938" transform="translate(10.684 17.5)" fill="none" stroke="#ffd8ee" stroke-linecap="round" stroke-width="2.5"/>
      <path id="Path_12691" data-name="Path 12691" d="M-6971.375-9000.25h6.938" transform="translate(10.684 26.5)" fill="none" stroke="#ffd8ee" stroke-linecap="round" stroke-width="2.5"/>
      <path id="Path_12692" data-name="Path 12692" d="M-6971.375-9000.25h6.938" transform="translate(10.684 36.5)" fill="none" stroke="#ffd8ee" stroke-linecap="round" stroke-width="2.5"/>
      <path id="Path_12693" data-name="Path 12693" d="M-6971.375-9000.25h24.125" transform="translate(0.041 21.75)" fill="none" stroke="#b73f83" stroke-linecap="round" stroke-width="2.5"/>
      <path id="Path_12694" data-name="Path 12694" d="M-6971.375-9000.25h24.125" transform="translate(0.041 31.75)" fill="none" stroke="#b73f83" stroke-linecap="round" stroke-width="2.5"/>
      <path id="Path_12695" data-name="Path 12695" d="M-575.678,397.232a1.25,1.25,0,0,1-1.249,1.251,1.25,1.25,0,0,1-1.251-1.251,1.249,1.249,0,0,1,1.251-1.249A1.249,1.249,0,0,1-575.678,397.232Z" transform="translate(-6390.747 -9389.983)" fill="#b73f83"/>
      <path id="Path_12696" data-name="Path 12696" d="M-575.678,397.232a1.25,1.25,0,0,1-1.249,1.251,1.25,1.25,0,0,1-1.251-1.251,1.249,1.249,0,0,1,1.251-1.249A1.249,1.249,0,0,1-575.678,397.232Z" transform="translate(-6390.747 -9379.983)" fill="#b73f83"/>
      <path id="Path_12697" data-name="Path 12697" d="M-575.678,397.232a1.25,1.25,0,0,1-1.249,1.251,1.25,1.25,0,0,1-1.251-1.251,1.249,1.249,0,0,1,1.251-1.249A1.249,1.249,0,0,1-575.678,397.232Z" transform="translate(-6390.747 -9370.983)" fill="#b73f83"/>
      <path id="Path_12698" data-name="Path 12698" d="M-575.678,397.232a1.25,1.25,0,0,1-1.249,1.251,1.25,1.25,0,0,1-1.251-1.251,1.249,1.249,0,0,1,1.251-1.249A1.249,1.249,0,0,1-575.678,397.232Z" transform="translate(-6390.747 -9360.983)" fill="#b73f83"/>
      <path id="Path_12699" data-name="Path 12699" d="M-29.7,67.709h11.055a2.3,2.3,0,0,0,2.3-2.3V35a2.3,2.3,0,0,0-2.3-2.3H-29.7" transform="translate(-6914.222 -9029.852)" fill="#fff2f9" stroke="#b73f83" stroke-linejoin="round" stroke-width="2.5"/>
      <path id="Path_12700" data-name="Path 12700" d="M-6937.368-8987.5h-5.549" transform="translate(1)" fill="none" stroke="#b73f83" stroke-linecap="round" stroke-width="2.5"/>
      <path id="Path_12701" data-name="Path 12701" d="M-16.348,67.709H-27.4a2.3,2.3,0,0,1-2.3-2.3V35a2.3,2.3,0,0,1,2.3-2.3h11.055" transform="translate(-6959.301 -9029.852)" fill="#fff2f9" stroke="#b73f83" stroke-linejoin="round" stroke-width="2.5"/>
      <path id="Path_12702" data-name="Path 12702" d="M-6942.917-8987.5h5.592" transform="translate(-40.841)" fill="none" stroke="#b73f83" stroke-linecap="round" stroke-width="2.5"/>
      <path id="Path_12703" data-name="Path 12703" d="M-6937.368-8987.5h-5.549" transform="translate(1 9)" fill="none" stroke="#b73f83" stroke-linecap="round" stroke-width="2.5"/>
      <path id="Path_12704" data-name="Path 12704" d="M-6942.917-8987.5h5.592" transform="translate(-40.841 9)" fill="none" stroke="#b73f83" stroke-linecap="round" stroke-width="2.5"/>
      <path id="Path_12705" data-name="Path 12705" d="M-6937.368-8987.5h-5.549" transform="translate(1 18)" fill="none" stroke="#b73f83" stroke-linecap="round" stroke-width="2.5"/>
      <path id="Path_12706" data-name="Path 12706" d="M-6942.917-8987.5h5.592" transform="translate(-40.841 18)" fill="none" stroke="#b73f83" stroke-linecap="round" stroke-width="2.5"/>
      <path id="Path_12707" data-name="Path 12707" d="M-10601-3686.4v8.6" transform="translate(3641.733 -5272.1)" fill="none" stroke="#b73f83" stroke-width="2.5"/>
      <path id="Path_12708" data-name="Path 12708" d="M-10599.291-3672h-35.513" transform="translate(3656.375 -5277.895)" fill="none" stroke="#b73f83" stroke-linecap="round" stroke-width="2.5"/>
      <ellipse id="Ellipse_1381" data-name="Ellipse 1381" cx="3.539" cy="3.541" rx="3.539" ry="3.541" transform="translate(-6962.945 -8953.754)" fill="#fff" stroke="#b73f83" stroke-width="2.5"/>
    </g>
  </g>
</svg>
