<svg xmlns="http://www.w3.org/2000/svg" xmlns:xlink="http://www.w3.org/1999/xlink" width="24" height="24" viewBox="0 0 24 24">
  <defs>
    <clipPath id="clip-path">
      <rect id="Rectangle_2441" data-name="Rectangle 2441" width="24" height="24" transform="translate(-6994 -9013)" fill="#fff" stroke="#707070" stroke-width="0.8"/>
    </clipPath>
  </defs>
  <g id="dr_site" transform="translate(6994 9013)" clip-path="url(#clip-path)">
    <g id="Group_8831" data-name="Group 8831" transform="translate(-6992 -9010)">
      <g id="Rectangle_2440" data-name="Rectangle 2440" transform="translate(5.391 0)" fill="#fff" stroke="#b73f83" stroke-linecap="round" stroke-linejoin="round" stroke-width="0.8">
        <rect width="10.063" height="14.735" rx="1" stroke="none"/>
        <rect x="0.4" y="0.4" width="9.263" height="13.935" rx="0.6" fill="none"/>
      </g>
      <path id="Path_17573" data-name="Path 17573" d="M-6971.374-9000.25h8.67" transform="translate(6977.723 9004.384)" fill="none" stroke="#b73f83" stroke-linecap="round" stroke-width="0.8"/>
      <path id="Path_17574" data-name="Path 17574" d="M-6971.375-9000.25h2.493" transform="translate(6981.549 9002.497)" fill="none" stroke="#b73f83" stroke-linecap="round" stroke-width="0.8"/>
      <path id="Path_17575" data-name="Path 17575" d="M-6971.375-9000.25h2.493" transform="translate(6981.549 9006.091)" fill="none" stroke="#b73f83" stroke-linecap="round" stroke-width="0.8"/>
      <path id="Path_17576" data-name="Path 17576" d="M-6971.375-9000.25h2.493" transform="translate(6981.549 9009.324)" fill="none" stroke="#b73f83" stroke-linecap="round" stroke-width="0.8"/>
      <path id="Path_17577" data-name="Path 17577" d="M-6971.375-9000.25h2.493" transform="translate(6981.549 9012.919)" fill="none" stroke="#b73f83" stroke-linecap="round" stroke-width="0.8"/>
      <path id="Path_17578" data-name="Path 17578" d="M-6971.374-9000.25h8.67" transform="translate(6977.723 9007.617)" fill="none" stroke="#b73f83" stroke-linecap="round" stroke-width="0.8"/>
      <path id="Path_17579" data-name="Path 17579" d="M-6971.374-9000.25h8.67" transform="translate(6977.723 9011.211)" fill="none" stroke="#b73f83" stroke-linecap="round" stroke-width="0.8"/>
      <path id="Path_17580" data-name="Path 17580" d="M-577.28,396.432a.449.449,0,0,1-.449.45.449.449,0,0,1-.45-.45.449.449,0,0,1,.45-.449A.449.449,0,0,1-577.28,396.432Z" transform="translate(585.393 -394.186)" fill="#b73f83"/>
      <path id="Path_17581" data-name="Path 17581" d="M-577.28,396.432a.449.449,0,0,1-.449.45.449.449,0,0,1-.45-.45.449.449,0,0,1,.45-.449A.449.449,0,0,1-577.28,396.432Z" transform="translate(585.393 -390.592)" fill="#b73f83"/>
      <path id="Path_17582" data-name="Path 17582" d="M-577.28,396.432a.449.449,0,0,1-.449.45.449.449,0,0,1-.45-.45.449.449,0,0,1,.45-.449A.449.449,0,0,1-577.28,396.432Z" transform="translate(585.393 -387.358)" fill="#b73f83"/>
      <path id="Path_17583" data-name="Path 17583" d="M-577.28,396.432a.449.449,0,0,1-.449.45.449.449,0,0,1-.45-.45.449.449,0,0,1,.45-.449A.449.449,0,0,1-577.28,396.432Z" transform="translate(585.393 -383.764)" fill="#b73f83"/>
      <path id="Path_17584" data-name="Path 17584" d="M-29.7,45.288h3.973a.825.825,0,0,0,.825-.825V33.534a.825.825,0,0,0-.825-.825H-29.7" transform="translate(45.901 -32.041)" fill="none" stroke="#b73f83" stroke-linejoin="round" stroke-width="0.8"/>
      <path id="Path_17585" data-name="Path 17585" d="M-6940.921-8987.5h-2" transform="translate(6959.838 8991.634)" fill="none" stroke="#b73f83" stroke-linecap="round" stroke-width="0.8"/>
      <path id="Path_17586" data-name="Path 17586" d="M-24.9,45.288h-3.973a.825.825,0,0,1-.825-.825V33.534a.825.825,0,0,1,.825-.825H-24.9" transform="translate(29.699 -32.041)" fill="none" stroke="#b73f83" stroke-linejoin="round" stroke-width="0.8"/>
      <path id="Path_17587" data-name="Path 17587" d="M-6942.917-8987.5h2.01" transform="translate(6944.801 8991.634)" fill="none" stroke="#b73f83" stroke-linecap="round" stroke-width="0.8"/>
      <path id="Path_17588" data-name="Path 17588" d="M-6940.921-8987.5h-2" transform="translate(6959.838 8994.867)" fill="none" stroke="#b73f83" stroke-linecap="round" stroke-width="0.8"/>
      <path id="Path_17589" data-name="Path 17589" d="M-6942.917-8987.5h2.01" transform="translate(6944.801 8994.867)" fill="none" stroke="#b73f83" stroke-linecap="round" stroke-width="0.8"/>
      <path id="Path_17590" data-name="Path 17590" d="M-6940.921-8987.5h-2" transform="translate(6959.838 8998.103)" fill="none" stroke="#b73f83" stroke-linecap="round" stroke-width="0.8"/>
      <path id="Path_17591" data-name="Path 17591" d="M-6942.917-8987.5h2.01" transform="translate(6944.801 8998.103)" fill="none" stroke="#b73f83" stroke-linecap="round" stroke-width="0.8"/>
      <path id="Path_17592" data-name="Path 17592" d="M-10601-3686.4v3.093" transform="translate(10611.687 3700.955)" fill="none" stroke="#b73f83" stroke-width="0.8"/>
      <path id="Path_17593" data-name="Path 17593" d="M-10622.04-3672h-12.763" transform="translate(10638.603 3689.648)" fill="none" stroke="#b73f83" stroke-linecap="round" stroke-width="0.8"/>
      <ellipse id="Ellipse_1647" data-name="Ellipse 1647" cx="1.272" cy="1.272" rx="1.272" ry="1.272" transform="translate(9.364 16.261)" fill="#fff" stroke="#b73f83" stroke-width="0.8"/>
    </g>
  </g>
</svg>
