<svg xmlns="http://www.w3.org/2000/svg" xmlns:xlink="http://www.w3.org/1999/xlink" width="24" height="24" viewBox="0 0 24 24">
  <defs>
    <clipPath id="clip-path">
      <rect id="Rectangle_2638" data-name="Rectangle 2638" width="24" height="24" transform="translate(1449 229)" fill="red"/>
    </clipPath>
  </defs>
  <g id="service" transform="translate(-1449 -229)" clip-path="url(#clip-path)">
    <g id="Group_11999" data-name="Group 11999" transform="translate(1451 231)">
      <path id="Path_17902" data-name="Path 17902" d="M428.344,522.315l-.522,1.241a.365.365,0,0,0,.007.3c.368.768.853,1.838,1.054,2.364l.057.149-1.351,1.322-.142-.047c-.535-.181-1.669-.641-2.5-.992a.375.375,0,0,0-.282,0l-1.266.512a.366.366,0,0,0-.2.21c-.357.963-.765,1.977-.969,2.413l-.066.141h-1.918l-.067-.133c-.251-.5-.718-1.6-1.046-2.419a.365.365,0,0,0-.2-.2l-1.27-.515a.389.389,0,0,0-.288.008c-.815.373-1.913.849-2.434,1.04l-.145.054-1.352-1.323.052-.149c.181-.514.642-1.609,1-2.425a.361.361,0,0,0,0-.286l-.521-1.239a.362.362,0,0,0-.213-.2c-.826-.295-1.95-.717-2.465-.949l-.144-.066v-1.862l.14-.067c.5-.237,1.622-.692,2.47-1.02a.359.359,0,0,0,.2-.2l.524-1.242a.368.368,0,0,0-.006-.3c-.437-.914-.88-1.91-1.053-2.365l-.057-.15,1.35-1.321.141.048c.522.174,1.653.631,2.5.991a.37.37,0,0,0,.28,0l1.266-.514a.372.372,0,0,0,.2-.21c.3-.806.731-1.9.968-2.412l.066-.142h1.918l.069.136c.248.5.715,1.6,1.044,2.422a.369.369,0,0,0,.2.2l1.267.512a.379.379,0,0,0,.285,0c.821-.375,1.923-.852,2.439-1.04l.146-.051,1.352,1.318-.052.149c-.184.519-.645,1.614-1,2.425a.369.369,0,0,0,0,.291l.521,1.241a.366.366,0,0,0,.213.2c.995.353,2.007.74,2.464.944l.146.066v1.858l-.139.068c-.513.245-1.642.7-2.474,1.023A.362.362,0,0,0,428.344,522.315Z" transform="translate(-411.161 -510.359)" fill="none" stroke="#fff" stroke-linecap="round" stroke-linejoin="round" stroke-width="1"/>
      <path id="Path_17903" data-name="Path 17903" d="M433.759,536.308a3.829,3.829,0,1,1,3.921-3.829A3.881,3.881,0,0,1,433.759,536.308Z" transform="translate(-423.758 -522.698)" fill="none" stroke="#fff" stroke-linecap="round" stroke-linejoin="round" stroke-width="1"/>
      <g id="Success" transform="translate(6.746 6.964)">
        <g id="Group_12000" data-name="Group 12000" transform="translate(-0.133 -0.127)">
          <path id="Path_3289" data-name="Path 3289" d="M3252.2,4914.091l1.417,1.64,3.653-3.131" transform="translate(-3251.249 -4910.703)" fill="none" stroke="#fff" stroke-linecap="round" stroke-linejoin="round" stroke-width="1"/>
        </g>
      </g>
    </g>
  </g>
</svg>
