<svg xmlns="http://www.w3.org/2000/svg" xmlns:xlink="http://www.w3.org/1999/xlink" width="68" height="68" viewBox="0 0 68 68">
  <defs>
    <clipPath id="clip-path">
      <rect id="Rectangle_1127" data-name="Rectangle 1127" width="68" height="68" transform="translate(-6994 -9013)" fill="#fff" stroke="#707070" stroke-width="1"/>
    </clipPath>
  </defs>
  <g id="NearDR-Site" transform="translate(6994 9013)" clip-path="url(#clip-path)">
    <g id="Group_5931" data-name="Group 5931" transform="translate(0 -6)">
      <g id="Rectangle_1124" data-name="Rectangle 1124" transform="translate(-6991.672 -8999)" fill="#fff" stroke="#b73f83" stroke-linecap="round" stroke-linejoin="round" stroke-width="2.5">
        <rect width="28" height="41" rx="4" stroke="none"/>
        <rect x="1.25" y="1.25" width="25.5" height="38.5" rx="2.75" fill="none"/>
      </g>
      <g id="Rectangle_1126" data-name="Rectangle 1126" transform="translate(-6955.917 -8999)" fill="#fff" stroke="#b73f83" stroke-linecap="round" stroke-linejoin="round" stroke-width="2.5">
        <rect width="28" height="41" rx="4" stroke="none"/>
        <rect x="1.25" y="1.25" width="25.5" height="38.5" rx="2.75" fill="none"/>
      </g>
      <path id="Path_12612" data-name="Path 12612" d="M-6971.375-9000.25h24.125" transform="translate(-17.631 12.75)" fill="none" stroke="#b73f83" stroke-linecap="round" stroke-width="2.5"/>
      <path id="Path_12642" data-name="Path 12642" d="M-6971.375-9000.25h24.125" transform="translate(18.125 12.75)" fill="none" stroke="#b73f83" stroke-linecap="round" stroke-width="2.5"/>
      <path id="Path_12613" data-name="Path 12613" d="M-6971.375-9000.25h6.938" transform="translate(-6.988 7.5)" fill="none" stroke="#ffd8ee" stroke-linecap="round" stroke-width="2.5"/>
      <path id="Path_12643" data-name="Path 12643" d="M-6971.375-9000.25h6.938" transform="translate(28.768 7.5)" fill="none" stroke="#ffd8ee" stroke-linecap="round" stroke-width="2.5"/>
      <path id="Path_12614" data-name="Path 12614" d="M-6971.375-9000.25h6.938" transform="translate(-6.988 17.5)" fill="none" stroke="#ffd8ee" stroke-linecap="round" stroke-width="2.5"/>
      <path id="Path_12640" data-name="Path 12640" d="M-6971.375-9000.25h6.938" transform="translate(28.768 17.5)" fill="none" stroke="#ffd8ee" stroke-linecap="round" stroke-width="2.5"/>
      <path id="Path_12615" data-name="Path 12615" d="M-6971.375-9000.25h6.938" transform="translate(-6.988 26.5)" fill="none" stroke="#ffd8ee" stroke-linecap="round" stroke-width="2.5"/>
      <path id="Path_12636" data-name="Path 12636" d="M-6971.375-9000.25h6.938" transform="translate(28.768 26.5)" fill="none" stroke="#ffd8ee" stroke-linecap="round" stroke-width="2.5"/>
      <path id="Path_12616" data-name="Path 12616" d="M-6971.375-9000.25h6.938" transform="translate(-6.988 36.5)" fill="none" stroke="#ffd8ee" stroke-linecap="round" stroke-width="2.5"/>
      <path id="Path_12634" data-name="Path 12634" d="M-6971.375-9000.25h6.938" transform="translate(28.768 36.5)" fill="none" stroke="#ffd8ee" stroke-linecap="round" stroke-width="2.5"/>
      <path id="Path_12617" data-name="Path 12617" d="M-6971.375-9000.25h24.125" transform="translate(-17.631 21.75)" fill="none" stroke="#b73f83" stroke-linecap="round" stroke-width="2.5"/>
      <path id="Path_12639" data-name="Path 12639" d="M-6971.375-9000.25h24.125" transform="translate(18.125 21.75)" fill="none" stroke="#b73f83" stroke-linecap="round" stroke-width="2.5"/>
      <path id="Path_12618" data-name="Path 12618" d="M-6971.375-9000.25h24.125" transform="translate(-17.631 31.75)" fill="none" stroke="#b73f83" stroke-linecap="round" stroke-width="2.5"/>
      <path id="Path_12645" data-name="Path 12645" d="M-20.484,67.709H-27.4a2.3,2.3,0,0,1-2.3-2.3V35a2.3,2.3,0,0,1,2.3-2.3h6.919" transform="translate(-7009.664 -8979.912) rotate(-90)" fill="none" stroke="#b73f83" stroke-linejoin="round" stroke-width="2.5"/>
      <path id="Path_12635" data-name="Path 12635" d="M-6971.375-9000.25h24.125" transform="translate(18.125 31.75)" fill="none" stroke="#b73f83" stroke-linecap="round" stroke-width="2.5"/>
      <path id="Path_12619" data-name="Path 12619" d="M-575.678,397.232a1.25,1.25,0,0,1-1.249,1.251,1.25,1.25,0,0,1-1.251-1.251,1.249,1.249,0,0,1,1.251-1.249A1.249,1.249,0,0,1-575.678,397.232Z" transform="translate(-6408.419 -9389.983)" fill="#b73f83"/>
      <path id="Path_12644" data-name="Path 12644" d="M-575.678,397.232a1.25,1.25,0,0,1-1.249,1.251,1.25,1.25,0,0,1-1.251-1.251,1.249,1.249,0,0,1,1.251-1.249A1.249,1.249,0,0,1-575.678,397.232Z" transform="translate(-6372.663 -9389.983)" fill="#b73f83"/>
      <path id="Path_12620" data-name="Path 12620" d="M-575.678,397.232a1.25,1.25,0,0,1-1.249,1.251,1.25,1.25,0,0,1-1.251-1.251,1.249,1.249,0,0,1,1.251-1.249A1.249,1.249,0,0,1-575.678,397.232Z" transform="translate(-6408.419 -9379.983)" fill="#b73f83"/>
      <path id="Path_12641" data-name="Path 12641" d="M-575.678,397.232a1.25,1.25,0,0,1-1.249,1.251,1.25,1.25,0,0,1-1.251-1.251,1.249,1.249,0,0,1,1.251-1.249A1.249,1.249,0,0,1-575.678,397.232Z" transform="translate(-6372.663 -9379.983)" fill="#b73f83"/>
      <path id="Path_12621" data-name="Path 12621" d="M-575.678,397.232a1.25,1.25,0,0,1-1.249,1.251,1.25,1.25,0,0,1-1.251-1.251,1.249,1.249,0,0,1,1.251-1.249A1.249,1.249,0,0,1-575.678,397.232Z" transform="translate(-6408.419 -9370.983)" fill="#b73f83"/>
      <path id="Path_12637" data-name="Path 12637" d="M-575.678,397.232a1.25,1.25,0,0,1-1.249,1.251,1.25,1.25,0,0,1-1.251-1.251,1.249,1.249,0,0,1,1.251-1.249A1.249,1.249,0,0,1-575.678,397.232Z" transform="translate(-6372.663 -9370.983)" fill="#b73f83"/>
      <path id="Path_12622" data-name="Path 12622" d="M-575.678,397.232a1.25,1.25,0,0,1-1.249,1.251,1.25,1.25,0,0,1-1.251-1.251,1.249,1.249,0,0,1,1.251-1.249A1.249,1.249,0,0,1-575.678,397.232Z" transform="translate(-6408.419 -9360.983)" fill="#b73f83"/>
      <path id="Path_12638" data-name="Path 12638" d="M-575.678,397.232a1.25,1.25,0,0,1-1.249,1.251,1.25,1.25,0,0,1-1.251-1.251,1.249,1.249,0,0,1,1.251-1.249A1.249,1.249,0,0,1-575.678,397.232Z" transform="translate(-6372.663 -9360.983)" fill="#b73f83"/>
      <ellipse id="Ellipse_1378" data-name="Ellipse 1378" cx="3.539" cy="3.541" rx="3.539" ry="3.541" transform="translate(-6962.994 -8953.754)" fill="#fff2f9" stroke="#b73f83" stroke-width="2.5"/>
    </g>
  </g>
</svg>
