<svg xmlns="http://www.w3.org/2000/svg" xmlns:xlink="http://www.w3.org/1999/xlink" width="68" height="68" viewBox="0 0 68 68">
  <defs>
    <clipPath id="clip-path">
      <rect id="Rectangle_1069" data-name="Rectangle 1069" width="68" height="68" transform="translate(-5977 -9072)" fill="#fff" stroke="#707070" stroke-width="1"/>
    </clipPath>
  </defs>
  <g id="PR-Site-disable" transform="translate(5977 9072)" clip-path="url(#clip-path)">
    <g id="site" transform="translate(-7026.954 -9638.837)">
      <g id="Rectangle_1064" data-name="Rectangle 1064" transform="translate(1061.208 575.837)" fill="#e8e8e8" stroke="#8f9198" stroke-width="2.5">
        <rect width="44" height="40" rx="4" stroke="none"/>
        <rect x="1.25" y="1.25" width="41.5" height="37.5" rx="2.75" fill="none"/>
      </g>
      <g id="Rectangle_1065" data-name="Rectangle 1065" transform="translate(1058.208 572.837)" fill="#fff" stroke="#8f9198" stroke-width="2.5">
        <rect width="52" height="16" rx="4" stroke="none"/>
        <rect x="1.25" y="1.25" width="49.5" height="13.5" rx="2.75" fill="none"/>
      </g>
      <g id="Rectangle_1066" data-name="Rectangle 1066" transform="translate(1057.954 594.045)" fill="#fff" stroke="#8f9198" stroke-width="2.5">
        <rect width="52.445" height="14.468" rx="4" stroke="none"/>
        <rect x="1.25" y="1.25" width="49.945" height="11.968" rx="2.75" fill="none"/>
      </g>
      <path id="Path_12461" data-name="Path 12461" d="M-574.538,397.8a1.82,1.82,0,0,1-1.819,1.821,1.82,1.82,0,0,1-1.821-1.821,1.819,1.819,0,0,1,1.821-1.819A1.818,1.818,0,0,1-574.538,397.8Z" transform="translate(1642.011 182.898)" fill="#8f9198"/>
      <path id="Path_12462" data-name="Path 12462" d="M-574.538,397.8a1.82,1.82,0,0,1-1.819,1.821,1.82,1.82,0,0,1-1.821-1.821,1.819,1.819,0,0,1,1.821-1.819A1.818,1.818,0,0,1-574.538,397.8Z" transform="translate(1642.011 203.253)" fill="#8f9198"/>
      <path id="Path_12463" data-name="Path 12463" d="M-574.538,397.8a1.82,1.82,0,0,1-1.819,1.821,1.82,1.82,0,0,1-1.821-1.821,1.819,1.819,0,0,1,1.821-1.819A1.818,1.818,0,0,1-574.538,397.8Z" transform="translate(1647.751 182.898)" fill="#8f9198"/>
      <path id="Path_12464" data-name="Path 12464" d="M-574.538,397.8a1.82,1.82,0,0,1-1.819,1.821,1.82,1.82,0,0,1-1.821-1.821,1.819,1.819,0,0,1,1.821-1.819A1.818,1.818,0,0,1-574.538,397.8Z" transform="translate(1647.751 203.253)" fill="#8f9198"/>
      <path id="Path_12465" data-name="Path 12465" d="M-574.538,397.8a1.82,1.82,0,0,1-1.819,1.821,1.82,1.82,0,0,1-1.821-1.821,1.819,1.819,0,0,1,1.821-1.819A1.818,1.818,0,0,1-574.538,397.8Z" transform="translate(1653.597 182.898)" fill="#8f9198"/>
      <path id="Path_12466" data-name="Path 12466" d="M-574.538,397.8a1.82,1.82,0,0,1-1.819,1.821,1.82,1.82,0,0,1-1.821-1.821,1.819,1.819,0,0,1,1.821-1.819A1.818,1.818,0,0,1-574.538,397.8Z" transform="translate(1653.597 203.253)" fill="#8f9198"/>
      <rect id="Rectangle_1067" data-name="Rectangle 1067" width="21" height="3" rx="1.5" transform="translate(1083.208 578.837)" fill="#dfdfdf"/>
      <rect id="Rectangle_1068" data-name="Rectangle 1068" width="20.417" height="3.403" rx="1.701" transform="translate(1083.463 599.355)" fill="#dfdfdf"/>
      <path id="Path_12467" data-name="Path 12467" d="M-10601-3686.4v12.25" transform="translate(11684.92 4299.822)" fill="none" stroke="#8f9198" stroke-width="2.5"/>
      <path id="Path_12468" data-name="Path 12468" d="M-10632-3672h46.565" transform="translate(11692.632 4297.673)" fill="none" stroke="#8f9198" stroke-linecap="round" stroke-width="2.5"/>
      <ellipse id="Ellipse_1365" data-name="Ellipse 1365" cx="3.615" cy="3.617" rx="3.615" ry="3.617" transform="translate(1080.107 621.603)" fill="#fff" stroke="#8f9198" stroke-width="2.5"/>
    </g>
  </g>
</svg>
