<svg xmlns="http://www.w3.org/2000/svg" xmlns:xlink="http://www.w3.org/1999/xlink" width="68" height="68" viewBox="0 0 68 68">
  <defs>
    <clipPath id="clip-path">
      <rect id="Rectangle_1075" data-name="Rectangle 1075" width="68" height="68" transform="translate(-5971 -8972)" fill="#fff" stroke="#707070" stroke-width="1"/>
    </clipPath>
  </defs>
  <g id="PR-Site" transform="translate(5971 8972)" clip-path="url(#clip-path)">
    <g id="site" transform="translate(-7020.954 -9538.837)">
      <g id="Rectangle_1070" data-name="Rectangle 1070" transform="translate(1061.208 575.837)" fill="#fff2f9" stroke="#b73f83" stroke-width="2.5">
        <rect width="44" height="40" rx="4" stroke="none"/>
        <rect x="1.25" y="1.25" width="41.5" height="37.5" rx="2.75" fill="none"/>
      </g>
      <g id="Rectangle_1071" data-name="Rectangle 1071" transform="translate(1058.208 572.837)" fill="#fff" stroke="#b73f83" stroke-width="2.5">
        <rect width="52" height="16" rx="4" stroke="none"/>
        <rect x="1.25" y="1.25" width="49.5" height="13.5" rx="2.75" fill="none"/>
      </g>
      <g id="Rectangle_1072" data-name="Rectangle 1072" transform="translate(1057.954 594.045)" fill="#fff" stroke="#b73f83" stroke-width="2.5">
        <rect width="52.445" height="14.468" rx="4" stroke="none"/>
        <rect x="1.25" y="1.25" width="49.945" height="11.968" rx="2.75" fill="none"/>
      </g>
      <path id="Path_12469" data-name="Path 12469" d="M-574.538,397.8a1.82,1.82,0,0,1-1.819,1.821,1.82,1.82,0,0,1-1.821-1.821,1.819,1.819,0,0,1,1.821-1.819A1.818,1.818,0,0,1-574.538,397.8Z" transform="translate(1642.011 182.898)" fill="#b73f83"/>
      <path id="Path_12470" data-name="Path 12470" d="M-574.538,397.8a1.82,1.82,0,0,1-1.819,1.821,1.82,1.82,0,0,1-1.821-1.821,1.819,1.819,0,0,1,1.821-1.819A1.818,1.818,0,0,1-574.538,397.8Z" transform="translate(1642.011 203.253)" fill="#b73f83"/>
      <path id="Path_12471" data-name="Path 12471" d="M-574.538,397.8a1.82,1.82,0,0,1-1.819,1.821,1.82,1.82,0,0,1-1.821-1.821,1.819,1.819,0,0,1,1.821-1.819A1.818,1.818,0,0,1-574.538,397.8Z" transform="translate(1647.751 182.898)" fill="#b73f83"/>
      <path id="Path_12472" data-name="Path 12472" d="M-574.538,397.8a1.82,1.82,0,0,1-1.819,1.821,1.82,1.82,0,0,1-1.821-1.821,1.819,1.819,0,0,1,1.821-1.819A1.818,1.818,0,0,1-574.538,397.8Z" transform="translate(1647.751 203.253)" fill="#b73f83"/>
      <path id="Path_12473" data-name="Path 12473" d="M-574.538,397.8a1.82,1.82,0,0,1-1.819,1.821,1.82,1.82,0,0,1-1.821-1.821,1.819,1.819,0,0,1,1.821-1.819A1.818,1.818,0,0,1-574.538,397.8Z" transform="translate(1653.597 182.898)" fill="#b73f83"/>
      <path id="Path_12474" data-name="Path 12474" d="M-574.538,397.8a1.82,1.82,0,0,1-1.819,1.821,1.82,1.82,0,0,1-1.821-1.821,1.819,1.819,0,0,1,1.821-1.819A1.818,1.818,0,0,1-574.538,397.8Z" transform="translate(1653.597 203.253)" fill="#b73f83"/>
      <rect id="Rectangle_1073" data-name="Rectangle 1073" width="21" height="3" rx="1.5" transform="translate(1083.208 578.837)" fill="#ffd8ee"/>
      <rect id="Rectangle_1074" data-name="Rectangle 1074" width="20.417" height="3.403" rx="1.701" transform="translate(1083.463 599.355)" fill="#ffd8ee"/>
      <path id="Path_12475" data-name="Path 12475" d="M-10601-3686.4v12.25" transform="translate(11684.92 4299.822)" fill="none" stroke="#b73f83" stroke-width="2.5"/>
      <path id="Path_12476" data-name="Path 12476" d="M-10632-3672h46.565" transform="translate(11692.632 4297.673)" fill="none" stroke="#b73f83" stroke-linecap="round" stroke-width="2.5"/>
      <ellipse id="Ellipse_1369" data-name="Ellipse 1369" cx="3.615" cy="3.617" rx="3.615" ry="3.617" transform="translate(1080.107 621.603)" fill="#fff" stroke="#b73f83" stroke-width="2.5"/>
    </g>
  </g>
</svg>
