<svg xmlns="http://www.w3.org/2000/svg" xmlns:xlink="http://www.w3.org/1999/xlink" width="18" height="18" viewBox="0 0 18 18">
  <defs>
    <clipPath id="clip-path">
      <rect id="Rectangle_3806" data-name="Rectangle 3806" width="18" height="18" transform="translate(1449 229)" fill="#fff" stroke="#707070" stroke-width="1"/>
    </clipPath>
  </defs>
  <g id="date" transform="translate(-1449 -229)" clip-path="url(#clip-path)">
    <g id="Group_12188" data-name="Group 12188" transform="translate(-173 148.714)">
      <rect id="Rectangle_3792" data-name="Rectangle 3792" width="15.602" height="12.691" rx="2" transform="translate(1623 83.786)" fill="none" stroke="#b73f83" stroke-linecap="round" stroke-miterlimit="10" stroke-width="1"/>
      <path id="Rectangle_3793" data-name="Rectangle 3793" d="M2,0H13.6a2,2,0,0,1,2,2V3.536a0,0,0,0,1,0,0H0a0,0,0,0,1,0,0V2A2,2,0,0,1,2,0Z" transform="translate(1623.059 83.286)" fill="#b73f83"/>
      <rect id="Rectangle_3794" data-name="Rectangle 3794" width="2.393" height="2.393" rx="0.5" transform="translate(1625.009 87.697)" fill="#b73f83"/>
      <rect id="Rectangle_3795" data-name="Rectangle 3795" width="2.393" height="2.393" rx="0.5" transform="translate(1629.663 87.697)" fill="#b73f83"/>
      <rect id="Rectangle_3796" data-name="Rectangle 3796" width="2.393" height="2.393" rx="0.5" transform="translate(1634.317 87.697)" fill="#b73f83"/>
      <rect id="Rectangle_3797" data-name="Rectangle 3797" width="2.393" height="2.393" rx="0.5" transform="translate(1625.009 91.981)" fill="#b73f83"/>
      <rect id="Rectangle_3799" data-name="Rectangle 3799" width="2.393" height="2.393" rx="0.5" transform="translate(1629.663 91.981)" fill="#b73f83"/>
      <rect id="Rectangle_3801" data-name="Rectangle 3801" width="2.393" height="2.393" rx="0.5" transform="translate(1634.317 91.981)" fill="#b73f83"/>
      <g id="Group_12187" data-name="Group 12187" transform="translate(1625.691 81.285)">
        <g id="Rectangle_3803" data-name="Rectangle 3803" transform="translate(0 0)" fill="#b73f83" stroke="#fff" stroke-width="0.5">
          <rect width="2.405" height="3.607" rx="1.202" stroke="none"/>
          <rect x="0.25" y="0.25" width="1.905" height="3.107" rx="0.952" fill="none"/>
        </g>
        <g id="Rectangle_3804" data-name="Rectangle 3804" transform="translate(4.208 0)" fill="#b73f83" stroke="#fff" stroke-width="0.5">
          <rect width="2.405" height="3.607" rx="1.202" stroke="none"/>
          <rect x="0.25" y="0.25" width="1.905" height="3.107" rx="0.952" fill="none"/>
        </g>
        <g id="Rectangle_3805" data-name="Rectangle 3805" transform="translate(8.416 0)" fill="#b73f83" stroke="#fff" stroke-width="0.5">
          <rect width="2.405" height="3.607" rx="1.202" stroke="none"/>
          <rect x="0.25" y="0.25" width="1.905" height="3.107" rx="0.952" fill="none"/>
        </g>
      </g>
    </g>
  </g>
</svg>
