<svg xmlns="http://www.w3.org/2000/svg" xmlns:xlink="http://www.w3.org/1999/xlink" width="522.618" height="393.948" viewBox="0 0 522.618 393.948">
  <defs>
    <linearGradient id="linear-gradient" x1="-0.065" y1="1.229" x2="1.087" y2="1.614" gradientUnits="objectBoundingBox">
      <stop offset="0" stop-color="#a13098"/>
      <stop offset="0.515" stop-color="#cd4d6e"/>
      <stop offset="1" stop-color="#fb6b43"/>
    </linearGradient>
    <linearGradient id="linear-gradient-2" x1="0.5" y1="0.098" x2="0.5" y2="0.437" gradientUnits="objectBoundingBox">
      <stop offset="0" stop-color="#c99265"/>
      <stop offset="1" stop-color="#d6af8f"/>
    </linearGradient>
    <linearGradient id="linear-gradient-5" x1="0.657" y1="0.452" x2="1.258" y2="1.147" gradientUnits="objectBoundingBox">
      <stop offset="0" stop-color="#27273b"/>
      <stop offset="1" stop-color="#656565"/>
    </linearGradient>
  </defs>
  <g id="logout-img" transform="translate(-618.191 -245.533)">
    <g id="no_data_found" data-name="no data found" transform="translate(14 -10.386)">
      <path id="Path_12436" data-name="Path 12436" d="M-17081.873-7432.341c-7.432-3.1-33.447-11.612-50.377-60s4.543-98.7,37.576-124.248,70.609-49.545,80.932-89.026,26.84-64.64,73.914-51.867,59.047,15.87,87.125,10.064,92.906-12,118.1,34.061,37.988,77.027,52.439,96.768,56.984,72.381,15.691,129.667-74.738,64.641-138.74,56.9-142.869-1.161-173.838,10.45S-17074.441-7429.244-17081.873-7432.341Z" transform="matrix(0.995, 0.105, -0.105, 0.995, 16873.283, 9765.657)" fill="#e7f5fa"/>
      <path id="Path_12437" data-name="Path 12437" d="M-17081.873-7432.341c-7.432-3.1-33.447-11.612-50.377-60s4.543-98.7,37.576-124.248,70.609-49.545,80.932-89.026,26.84-64.64,73.914-51.867,59.047,15.87,87.125,10.064,92.906-12,118.1,34.061,37.988,77.027,52.439,96.768,56.984,72.381,15.691,129.667-74.738,64.641-138.74,56.9-142.869-1.161-173.838,10.45S-17074.441-7429.244-17081.873-7432.341Z" transform="matrix(0.995, 0.105, -0.105, 0.995, 16873.283, 9765.657)" fill="#eceef1"/>
    </g>
    <g id="Clip2" transform="translate(878.161 -822.176)" opacity="0.39">
      <g id="Group_273" data-name="Group 273" transform="translate(-188.183 1185)">
        <path id="Path_1006" data-name="Path 1006" d="M662.042,664.715c11.58,8.342,26.587,8.761,41.092,7.736,2.026-.143,4.037-.311,6.029-.492.012,0,.028,0,.04-.005.1-.009.192-.018.283-.024l1.23-.116-.1.184-.3.57c.109-.191.217-.377.326-.568.032-.057.068-.114.1-.172,3.758-6.539,7.485-13.318,8.435-20.785.983-7.75-1.779-16.526-8.6-20.336a13.76,13.76,0,0,0-2.824-1.183c-.408-.124-.821-.224-1.24-.313a14.754,14.754,0,0,0-17.158,19.179c-5.783-5.93-4.7-15.55-2.709-23.59s4.418-16.986.353-24.208a15.963,15.963,0,0,0-10.694-7.518c-.137-.03-.273-.059-.411-.084a21.532,21.532,0,0,0-15.469,2.711c-8.528,5.374-12.908,15.563-14.329,25.544C643.808,637.3,648.876,655.229,662.042,664.715Z" transform="translate(-645.566 -516.248)" fill="#c5c5c5"/>
        <path id="Path_1007" data-name="Path 1007" d="M670.159,639.06a36.606,36.606,0,0,0,2.526,10.315,31.783,31.783,0,0,0,4.935,8.06,40.72,40.72,0,0,0,15.642,11.279,58.61,58.61,0,0,0,14.251,3.829c2.026-.143,4.037-.311,6.029-.492.012,0,.028,0,.04-.005.1-.009.192-.018.283-.024l1.23-.116-.1.184-.3.57c.109-.191.217-.378.326-.568.032-.057.068-.114.1-.172a32.111,32.111,0,0,1-2.989-42.3c-.408-.124-.821-.224-1.24-.314a33.878,33.878,0,0,0-3.09,5.118,33.194,33.194,0,0,0-2.864,20.651,33.937,33.937,0,0,0,8.6,16.928c-.387-.027-.778-.059-1.16-.094a59.505,59.505,0,0,1-21.034-5.358A37.882,37.882,0,0,1,677.151,654.9c-3.977-5.486-5.73-12.084-6.031-18.79a79.293,79.293,0,0,1,2.251-21.467,90.108,90.108,0,0,1,7.571-20.624.648.648,0,0,0-.257-.855.551.551,0,0,0-.411-.085.479.479,0,0,0-.317.271c-.414.808-.82,1.616-1.211,2.434a91.129,91.129,0,0,0-7.134,21.4,73.367,73.367,0,0,0-1.454,21.877Z" transform="translate(-649.944 -516.34)" fill="#fff"/>
      </g>
    </g>
    <rect id="Rectangle_1053" data-name="Rectangle 1053" width="219" height="148" rx="6" transform="translate(756 372)" fill="#b1cfec"/>
    <rect id="Rectangle_1050" data-name="Rectangle 1050" width="219" height="148" rx="6" transform="translate(765 361)" fill="#fff"/>
    <path id="Rectangle_1051" data-name="Rectangle 1051" d="M6,0H213a6,6,0,0,1,6,6V32a0,0,0,0,1,0,0H0a0,0,0,0,1,0,0V6A6,6,0,0,1,6,0Z" transform="translate(765 361)" fill="url(#linear-gradient)"/>
    <circle id="Ellipse_1361" data-name="Ellipse 1361" cx="5" cy="5" r="5" transform="translate(775 372)" fill="#fff"/>
    <circle id="Ellipse_1362" data-name="Ellipse 1362" cx="5" cy="5" r="5" transform="translate(791 372)" fill="#fff"/>
    <circle id="Ellipse_1363" data-name="Ellipse 1363" cx="5" cy="5" r="5" transform="translate(807 372)" fill="#fff"/>
    <circle id="Ellipse_1364" data-name="Ellipse 1364" cx="2.5" cy="2.5" r="2.5" transform="translate(870 448)" fill="#fff"/>
    <g id="Group_5915" data-name="Group 5915" transform="translate(420.678 557.054)">
      <path id="Path_12447" data-name="Path 12447" d="M463.973-136.558a15.834,15.834,0,0,1,6.21,12.588,15.861,15.861,0,0,1-15.86,15.86,15.861,15.861,0,0,1-15.86-15.86,15.836,15.836,0,0,1,6.3-12.659" transform="translate(0 -0.944)" fill="none" stroke="#b1cfec" stroke-linecap="round" stroke-linejoin="round" stroke-width="5"/>
      <line id="Line_474" data-name="Line 474" y1="19.74" transform="translate(454.322 -143.053)" fill="none" stroke="#b1cfec" stroke-linecap="round" stroke-linejoin="round" stroke-width="5"/>
    </g>
    <line id="Line_475" data-name="Line 475" x2="81" transform="translate(834.25 469.5)" fill="none" stroke="#b1cfec" stroke-linecap="round" stroke-width="4"/>
    <line id="Line_476" data-name="Line 476" x2="81" transform="translate(834.75 486)" fill="none" stroke="#b1cfec" stroke-linecap="round" stroke-width="4"/>
    <path id="Path_836" data-name="Path 836" d="M964.027,2273.125v17.747a9.486,9.486,0,0,1-3.758,8.143,63.9,63.9,0,0,1-6.681,4.906v-30.8Z" transform="translate(68.08 -1814.562)" fill="#efb68f"/>
    <path id="Path_837" data-name="Path 837" d="M983.649,2369.93s-1.461,5.429-1.879,7.725,1.879,10.439,1.044,18.582-3.549,32.363-3.549,32.363l-5.637-1.148-.887-1.931s1.875,1.674,2.062.339c.287-2.043-.624-7.427-1.174-10.623-1.044-6.055-2.714-15.659-2.3-22.758s2.714-14.615-.835-20.879S983.649,2369.93,983.649,2369.93Z" transform="translate(34.783 -1830.252)" fill="url(#linear-gradient-2)"/>
    <path id="Path_838" data-name="Path 838" d="M1021.307,2366.483s-.067.191-.274.772c-.7,1.957-3.789,10.372-5.781,12.545-2.3,2.505-2.923,7.934-2.714,11.692s0,16.077-1.879,21.923-4.176,13.363-3.967,16.077c-.417.417-2.714,2.923-2.714,2.923H995s7.934-2.923,7.308-9.813,1.67-39.044,1.67-39.044-1.044-5.846,1.044-15.451,3.758-10.857,3.758-10.857Z" transform="translate(-23.754 -1828.429)" fill="url(#linear-gradient-2)"/>
    <path id="Path_835" data-name="Path 835" d="M1033.734,2238.127l-19.877-9.787a96.642,96.642,0,0,0-2.84-14.365c-1.837-5.846-3.173-18.708-3.173-18.708a7.555,7.555,0,0,0,1.837-5.908c-.522-3.445-1.148-7.2-1.148-7.2s-.835-2.4-1.253-1.566-.418,6.055-.418,6.055-3.758-.1-4.385,2.714,0,12.945,0,12.945-.522,12.005,0,17.121,2.088,13.363,2.088,13.363,17.016,15.137,24.637,15.868C1029.308,2248.552,1033.734,2238.127,1033.734,2238.127Z" transform="translate(-42.193 -1799.28)" fill="#efb68f"/>
    <path id="Path_834" data-name="Path 834" d="M990.152,2218.652s-7.182,1.961-9.187,4.133-1.169,6.514-4.009,7.851-2.506,5.679,0,7.349,5.846,4.009,9.855,1.5S990.152,2218.652,990.152,2218.652Z" transform="translate(24.104 -1805.583)" fill="#333"/>
    <path id="Path_832" data-name="Path 832" d="M974.649,2219c-2.255.208-3.341,5.345-3.341,5.345a6.836,6.836,0,0,1-4.009,3.508c-.5.334.835,2.171.835,2.171s-1.837,4.677-.835,7.183,4.009,2.839,4.009,2.839l1,5.846,10.62,1.256.07-23.638S976.9,2218.79,974.649,2219Z" transform="translate(37.938 -1805.64)" fill="#efb68f"/>
    <path id="Path_833" data-name="Path 833" d="M959.8,2218.943l1.169,12.862s.835,2.505-2.339,6.347,1.5,8.184,8.018,7.684,11.525-6.848,9.02-18.708C973.163,2216.27,959.8,2218.943,959.8,2218.943Z" transform="translate(52.451 -1805.583)" fill="#333"/>
    <path id="Path_830" data-name="Path 830" d="M999.714,2272.247s-.557-15.033-4.454-17.26-10.3-5.289-28.4-5.567c-.278-.279-11.135-1.253-11.135-1.253l-3.062,11.553s11.414,4.454,11.414,12.527-3.758,28.535-3.758,28.535l29.648-.974s-.278-23.663,0-26.168S999.714,2272.247,999.714,2272.247Z" transform="translate(33.194 -1810.448)" fill="url(#linear-gradient)"/>
    <path id="Path_831" data-name="Path 831" d="M1006.6,2308l-.835,52.2s-20.461,11.275-41.758-8.352c-.418-.418,12.945-43.011,12.945-43.011Z" transform="translate(16.841 -1820.311)" fill="url(#linear-gradient-5)"/>
    <path id="Path_839" data-name="Path 839" d="M1027.378,2441.313s.348.156.731,2.036.522,3.967-.731,4.489-13.78,0-13.78,0-3.863-.835-1.566-2.192,7.1-1.253,7.1-1.253-1.983.939-.731,1.253a32.343,32.343,0,0,0,5.585,0Z" transform="translate(-44.439 -1842.286)" fill="#172b4d"/>
    <path id="Path_840" data-name="Path 840" d="M985.543,2436.3l-.165,4.176s0,1.253-1.67,1.531-7.064-2.627-7.795-3.132-1.949-1.879-.557-2.575,5.072,1.314,5.072,1.314-.948-.287-.6.339a3.045,3.045,0,0,0,4.28,0Z" transform="translate(28.948 -1841.436)" fill="#172b4d"/>
    <path id="Path_844" data-name="Path 844" d="M956.365,2240.719a10.538,10.538,0,0,1-5.47.98c-3.282-.182-6.017-.82-7.772-3.168-.243,0,3.51.319,5.356.5S956.182,2240.719,956.365,2240.719Z" transform="translate(65.574 -1799.212)" fill="#fff"/>
  </g>
</svg>
