<svg xmlns="http://www.w3.org/2000/svg" xmlns:xlink="http://www.w3.org/1999/xlink" width="24" height="24" viewBox="0 0 24 24">
  <defs>
    <clipPath id="clip-path">
      <rect id="Rectangle_3475" data-name="Rectangle 3475" width="24" height="24" transform="translate(1166 225)" fill="#fff" stroke="#707070" stroke-width="1"/>
    </clipPath>
  </defs>
  <g id="ssh_key" transform="translate(-1166 -225)" clip-path="url(#clip-path)">
    <g id="Group_9939" data-name="Group 9939" transform="translate(1166.354 225.354)">
      <rect id="Rectangle_3477" data-name="Rectangle 3477" width="22" height="22" rx="0.5" transform="translate(0.646 0.646)" fill="none" stroke="#b73f83" stroke-linecap="round" stroke-miterlimit="10" stroke-width="1"/>
      <path id="Path_20160" data-name="Path 20160" d="M3.686,3.567l5.8,4.118-5.8,3.743" transform="translate(0.888 -0.151)" fill="rgba(0,0,0,0)" stroke="#b73f83" stroke-linecap="round" stroke-linejoin="round" stroke-width="1.3"/>
      <line id="Line_990" data-name="Line 990" x2="7.674" transform="translate(11.594 12.027)" fill="none" stroke="#b73f83" stroke-linejoin="round" stroke-width="1.3"/>
      <g id="SSH" transform="translate(3.335 14.737)">
        <g id="Group_9939-2" data-name="Group 9939" style="isolation: isolate">
          <path id="Path_20158" data-name="Path 20158" d="M6.037,11.747a3.278,3.278,0,0,1,1.287.287,2.789,2.789,0,0,1,1.043.716l-.867,1.2a3.119,3.119,0,0,0-.795-.532,1.945,1.945,0,0,0-.8-.2.81.81,0,0,0-.43.1.3.3,0,0,0-.161.269.355.355,0,0,0,.134.272,1.015,1.015,0,0,0,.353.187c.147.047.313.1.5.155s.376.113.571.168a2.657,2.657,0,0,1,.572.234,2.575,2.575,0,0,1,.5.351,1.39,1.39,0,0,1,.353.518,1.922,1.922,0,0,1,.134.735,1.744,1.744,0,0,1-.161.732,2.032,2.032,0,0,1-1.195,1.095,2.84,2.84,0,0,1-1.006.171,3.546,3.546,0,0,1-1.508-.361,2.959,2.959,0,0,1-1.164-.9l.967-1.1a3.437,3.437,0,0,0,.793.668,1.776,1.776,0,0,0,.911.232,1.109,1.109,0,0,0,.587-.137.42.42,0,0,0,.219-.376.352.352,0,0,0-.134-.279.936.936,0,0,0-.348-.182c-.143-.044-.306-.092-.493-.144s-.374-.1-.566-.153a2.791,2.791,0,0,1-.569-.218,2.406,2.406,0,0,1-.492-.331,1.366,1.366,0,0,1-.348-.5,1.894,1.894,0,0,1,.5-2.112A2.336,2.336,0,0,1,6.037,11.747Z" transform="translate(-3.399 -11.747)" fill="#b73f83"/>
          <path id="Path_20159" data-name="Path 20159" d="M9.372,11.747a3.279,3.279,0,0,1,1.288.287,2.789,2.789,0,0,1,1.043.716l-.867,1.2a3.1,3.1,0,0,0-.8-.532,1.933,1.933,0,0,0-.795-.2.81.81,0,0,0-.43.1.3.3,0,0,0-.161.269.349.349,0,0,0,.134.272,1.015,1.015,0,0,0,.353.187c.147.047.313.1.5.155s.377.113.572.168a2.613,2.613,0,0,1,.571.234,2.539,2.539,0,0,1,.5.351,1.39,1.39,0,0,1,.353.518,1.922,1.922,0,0,1,.134.735,1.744,1.744,0,0,1-.161.732,2.032,2.032,0,0,1-1.195,1.095,2.853,2.853,0,0,1-1.006.171A3.546,3.546,0,0,1,7.9,17.845a2.959,2.959,0,0,1-1.164-.9l.967-1.1a3.431,3.431,0,0,0,.792.668,1.787,1.787,0,0,0,.913.232,1.109,1.109,0,0,0,.587-.137.42.42,0,0,0,.219-.376.352.352,0,0,0-.134-.279.936.936,0,0,0-.348-.182c-.143-.044-.306-.092-.493-.144s-.374-.1-.566-.153a2.791,2.791,0,0,1-.569-.218,2.406,2.406,0,0,1-.492-.331,1.366,1.366,0,0,1-.348-.5,1.9,1.9,0,0,1,.5-2.112A2.342,2.342,0,0,1,9.372,11.747Z" transform="translate(-1.356 -11.747)" fill="#b73f83"/>
          <path id="Path_20160-2" data-name="Path 20160" d="M14.2,11.8h1.517v6.283H14.2v-2.52H11.78v2.52H10.255V11.8H11.78v2.309H14.2Z" transform="translate(0.799 -11.713)" fill="#b73f83"/>
        </g>
      </g>
    </g>
  </g>
</svg>
