<?xml version="1.0" encoding="utf-8"?>
<!-- Generator: Adobe Illustrator 25.0.0, SVG Export Plug-In . SVG Version: 6.00 Build 0)  -->
<svg version="1.1" id="Layer_1" xmlns="http://www.w3.org/2000/svg" xmlns:xlink="http://www.w3.org/1999/xlink" x="0px" y="0px"
	 viewBox="0 0 24 24" style="enable-background:new 0 0 24 24;" xml:space="preserve">
<style type="text/css">
	.st0{fill:none;}
	.st1{fill:none;stroke:#FFFFFF;stroke-width:2;stroke-linecap:round;stroke-linejoin:round;}
</style>
<rect x="-33.5" y="1.1" class="st0" width="24" height="24"/>
<g id="establish_relation" transform="translate(6648 -9965)">
	<path id="Path_17544" class="st1" d="M-6626.5,9975.2h-1.8c-0.2-0.9-0.6-1.8-1-2.5l1.3-1.3c0.2-0.2,0.2-0.5,0-0.7c0,0,0,0,0,0
		l-1.6-1.7c-0.2-0.2-0.6-0.2-0.8,0l-1.3,1.3c-0.8-0.5-1.6-0.9-2.5-1v-1.8c0-0.3-0.2-0.6-0.5-0.6c0,0,0,0,0,0h-2.3
		c-0.3,0-0.6,0.3-0.6,0.6v1.8c-0.9,0.2-1.7,0.6-2.5,1l-1.3-1.3c-0.2-0.2-0.6-0.2-0.8,0l-1.6,1.7c-0.2,0.2-0.2,0.6,0,0.8c0,0,0,0,0,0
		l1.3,1.3c-0.5,0.8-0.8,1.6-1,2.5h-1.8c-0.3,0-0.5,0.2-0.5,0.5c0,0,0,0,0,0v2.4c0,0.3,0.2,0.5,0.5,0.5c0,0,0,0,0,0h1.8
		c0.2,0.9,0.5,1.7,1,2.5l-1.3,1.3c-0.2,0.2-0.2,0.6,0,0.8c0,0,0,0,0,0l1.6,1.7c0.2,0.2,0.6,0.2,0.8,0l1.3-1.3
		c0.8,0.5,1.6,0.8,2.5,1.1v1.8c0,0.3,0.2,0.6,0.5,0.6c0,0,0,0,0,0h2.3c0.3,0,0.6-0.2,0.6-0.5c0,0,0,0,0,0v-1.8
		c0.9-0.2,1.7-0.5,2.5-1l1.3,1.3c0.2,0.2,0.5,0.2,0.8,0l1.6-1.6c0.2-0.2,0.2-0.6,0-0.8c0,0,0,0,0,0l-1.3-1.3c0.5-0.8,0.8-1.6,1-2.5
		h1.8c0.3,0,0.6-0.2,0.6-0.5c0,0,0,0,0,0v-2.4C-6625.9,9975.5-6626.2,9975.2-6626.5,9975.2z M-6636,9979.8c-1.6,0-2.9-1.3-2.9-2.9
		c0-1.6,1.3-2.9,2.9-2.9c1.6,0,2.9,1.3,2.9,2.9c0,0,0,0,0,0C-6633.1,9978.5-6634.4,9979.9-6636,9979.8L-6636,9979.8z"/>
</g>
</svg>
