<?xml version="1.0" encoding="utf-8"?>
<!-- Generator: Adobe Illustrator 25.0.0, SVG Export Plug-In . SVG Version: 6.00 Build 0)  -->
<svg version="1.1" id="Layer_1" xmlns="http://www.w3.org/2000/svg" xmlns:xlink="http://www.w3.org/1999/xlink" x="0px" y="0px"
	 viewBox="0 0 24 24" style="enable-background:new 0 0 24 24;" xml:space="preserve">
<style type="text/css">
	.st0{fill:none;stroke:#FFFFFF;stroke-width:2;stroke-miterlimit:10;}
	.st1{fill:none;stroke:#FFFFFF;stroke-width:2;}
</style>
<g id="summary" transform="translate(6553 -9965)">
	<g id="Group_8811" transform="translate(1.96 438.359)">
		<g id="Group_8810" transform="translate(-6549.705 9529.127)">
			<g id="Group_8809" transform="translate(0 0)">
				<g id="Group_8808" transform="translate(0 0)">
					<path id="Path_17539" class="st0" d="M13.8,2.7H16v17.6H-3.4V2.7h2.2"/>
					<path id="Path_17540" class="st0" d="M8.4,0.9c0-0.1,0-0.1,0-0.2c0-1.1-1-2-2.1-2c-1.2,0-2.2,0.9-2.2,2c0,0,0,0,0,0
						c0,0.1,0,0.1,0,0.2H0.6v3.4H12V0.9H8.4z"/>
				</g>
			</g>
			<path id="Path_17541" class="st1" d="M0.8,8.8h10.5"/>
			<path id="Path_17542" class="st1" d="M0.8,12.7h8.1"/>
			<path id="Path_17543" class="st1" d="M0.8,16.5h10.5"/>
		</g>
	</g>
</g>
</svg>
