<svg xmlns="http://www.w3.org/2000/svg" xmlns:xlink="http://www.w3.org/1999/xlink" width="18" height="18" viewBox="0 0 18 18">
  <defs>
    <clipPath id="clip-path">
      <rect id="Rectangle_3421" data-name="Rectangle 3421" width="18" height="18" transform="translate(1449 229)" fill="red"/>
    </clipPath>
  </defs>
  <g id="node_config" transform="translate(-1449 -229)" clip-path="url(#clip-path)">
    <g id="Group_9884" data-name="Group 9884" transform="translate(1449.75 230.5)">
      <path id="Path_1420" data-name="Path 1420" d="M1358.082,842.461a3.879,3.879,0,1,1-2.53-3.642l-1.984,1.984a1.482,1.482,0,0,0,2.1,2.1l2.063-2.063A3.862,3.862,0,0,1,1358.082,842.461Z" transform="translate(-1341.581 -838.577)" fill="none" stroke="#fff" stroke-linecap="round" stroke-miterlimit="10" stroke-width="1"/>
      <path id="Path_1421" data-name="Path 1421" d="M1299.731,844.57l-.672.731,1.114,1.936a.714.714,0,0,0,.619.358h0a.9.9,0,0,0,.652-.277l.439-.455a.567.567,0,0,0,.158-.394h0a.713.713,0,0,0-.323-.6Z" transform="translate(-1299.059 -843.549)" fill="none" stroke="#fff" stroke-linecap="round" stroke-miterlimit="10" stroke-width="1"/>
      <line id="Line_141" data-name="Line 141" x2="3.116" y2="3.116" transform="translate(2.573 3.574)" fill="none" stroke="#fff" stroke-linecap="round" stroke-miterlimit="10" stroke-width="1"/>
      <path id="Path_1422" data-name="Path 1422" d="M1311.552,876.629l-2.5-2.483,3.224-3.141,5.949,5.983a2.221,2.221,0,0,1,0,3.146h0a2.221,2.221,0,0,1-3.128.005l-1.569-1.557-.705-.749a.71.71,0,0,0-1.018-.016l-2.342,2.337a2.221,2.221,0,0,1-3.146,0h0a2.222,2.222,0,0,1-.005-3.128l2-2.015" transform="translate(-1304.538 -865.481)" fill="none" stroke="#fff" stroke-linecap="round" stroke-miterlimit="10" stroke-width="1"/>
      <line id="Line_142" data-name="Line 142" x2="5.359" y2="5.359" transform="translate(6.206 8.383)" fill="none" stroke="#fff" stroke-linecap="round" stroke-miterlimit="10" stroke-width="1"/>
      <line id="Line_143" data-name="Line 143" x2="5.359" y2="5.359" transform="translate(7.394 7.195)" fill="none" stroke="#fff" stroke-linecap="round" stroke-miterlimit="10" stroke-width="1"/>
      <circle id="Ellipse_305" data-name="Ellipse 305" cx="0.913" cy="0.913" r="0.913" transform="translate(2.434 12.189)" fill="none" stroke="#fff" stroke-linecap="round" stroke-miterlimit="10" stroke-width="1"/>
    </g>
  </g>
</svg>
