<svg width="24" height="24" viewBox="0 0 24 24" className="mr-1">
  <defs>
    <clipPath id="clip-path">
      <rect id="Rectangle_3417" data-name="Rectangle 3417" width="24" height="24" transform="translate(1449 229)" fill="red"/>
    </clipPath>
  </defs>
  <g id="server" transform="translate(-1449 -229)" clipPath="url()">
    <g id="Group_9880" data-name="Group 9880" transform="translate(1451 231)">
      <rect id="Rectangle_1676" data-name="Rectangle 1676" width="20.762" height="13.821" rx="0.927" transform="translate(0.002)" fill="none" stroke="#b73f83" stroke-miterlimit="10" stroke-width="1"/>
      <path id="Path_12277" data-name="Path 12277" d="M5.126,4.118a1.173,1.173,0,1,1-2.347,0h0A1.173,1.173,0,0,1,3.952,2.945h0A1.172,1.172,0,0,1,5.126,4.117Z" transform="translate(-0.247 -0.549)" fill="#b73f83"/>
      <path id="Path_12277-2" data-name="Path 12277" d="M5.126,8.959a1.173,1.173,0,1,1-2.347,0h0A1.172,1.172,0,0,1,3.952,7.787h0A1.171,1.171,0,0,1,5.126,8.958Z" transform="translate(-0.247 1.065)" fill="#b73f83"/>
      <line id="Line_752" data-name="Line 752" x2="20.556" transform="translate(0.105 18.834)" fill="none" stroke="#b73f83" stroke-linecap="round" stroke-linejoin="round" stroke-width="1"/>
      <line id="Line_753" data-name="Line 753" y1="3.707" transform="translate(10.187 13.816)" fill="none" stroke="#b73f83" stroke-linecap="round" stroke-linejoin="round" stroke-width="1"/>
      <rect id="Rectangle_1677" data-name="Rectangle 1677" width="5.861" height="2.633" rx="1" transform="translate(7.367 17.518)" fill="#fff" stroke="#b73f83" stroke-linecap="round" stroke-linejoin="round" stroke-width="1"/>
      <line id="Line_754" data-name="Line 754" x1="20.76" transform="translate(0 6.909)" fill="none" stroke="#b73f83" stroke-miterlimit="10" stroke-width="1"/>
      <line id="Line_755" data-name="Line 755" x2="11.78" transform="translate(6.343 3.569)" fill="none" stroke="#b73f83" stroke-miterlimit="10" stroke-width="1"/>
      <line id="Line_756" data-name="Line 756" x2="11.78" transform="translate(6.343 10.024)" fill="none" stroke="#b73f83" stroke-miterlimit="10" stroke-width="1"/>
    </g>
  </g>
</svg>
