<svg xmlns="http://www.w3.org/2000/svg" xmlns:xlink="http://www.w3.org/1999/xlink" width="24" height="24" viewBox="0 0 24 24">
  <defs>
    <clipPath id="clip-path">
      <rect id="Rectangle_1516" data-name="Rectangle 1516" width="24" height="24" transform="translate(1449 229)" fill="red"/>
    </clipPath>
    <linearGradient id="linear-gradient" x1="-4.183" y1="0.143" x2="-3.174" y2="0.794" gradientUnits="objectBoundingBox">
      <stop offset="0" stop-color="#909ca9"/>
      <stop offset="1" stop-color="#ededee"/>
    </linearGradient>
    <linearGradient id="linear-gradient-2" x1="-8.133" y1="37.388" x2="-6.64" y2="37.388" gradientUnits="objectBoundingBox">
      <stop offset="0" stop-color="#939fab"/>
      <stop offset="1" stop-color="#dcdee1"/>
    </linearGradient>
    <radialGradient id="radial-gradient" cx="0.443" cy="0.439" r="0.128" gradientTransform="matrix(-0.691, -0.149, -0.208, 1.978, -19.227, -9.973)" gradientUnits="objectBoundingBox">
      <stop offset="0" stop-color="#ee352c"/>
      <stop offset="1" stop-color="#a91d22"/>
    </radialGradient>
  </defs>
  <g id="microsoft-sql-server" transform="translate(-1449 -229)" clip-path="url(#clip-path)">
    <g id="microsoft-sql-server-2" data-name="microsoft-sql-server" transform="translate(1442.097 230.001)">
      <g id="Group_6698" data-name="Group 6698" transform="translate(8.903 -0.001)">
        <path id="Path_13653" data-name="Path 13653" d="M345.2,463.277l-4.406,1.439-3.833,1.692-1.072.283c-.273.26-.559.523-.869.789-.34.293-.656.56-.9.753a6.709,6.709,0,0,0-.872.866,3.927,3.927,0,0,0-.646,1.092,1.834,1.834,0,0,0,.26,1.648,5.838,5.838,0,0,0,2.408,1.808,15.31,15.31,0,0,0,2.118.709,28.045,28.045,0,0,0,4.516.643,5.2,5.2,0,0,0,.583,0,7.921,7.921,0,0,0,.43-.816,20.621,20.621,0,0,0,1.562-4.133,19.594,19.594,0,0,0,.4-2.864c.023-.323.033-1.405.013-1.772a12.437,12.437,0,0,0-.166-1.562.359.359,0,0,1-.01-.136,5.673,5.673,0,0,1,.6-.18l-.11-.26h0Zm-1.006.59a10.789,10.789,0,0,1,.173,1.668.9.9,0,0,1,0,.227c-.027,0-.563-.316-.946-.556-.333-.21-.966-.629-1.066-.709-.033-.023-.03-.027.243-.12C343.062,464.219,344.161,463.866,344.2,463.866Zm-2.245.739a1.106,1.106,0,0,1,.29.156,20.639,20.639,0,0,0,2.018,1.122c.123.053.136.033-.147.226a14.512,14.512,0,0,1-2.288,1.229c-.163.073-.3.13-.3.13a.865.865,0,0,1,.04-.183,9.82,9.82,0,0,0,.356-2.341c0-.333,0-.333.033-.343C341.946,464.606,341.949,464.606,341.953,464.606Zm-.463.176a7.176,7.176,0,0,1-.02.969,8.48,8.48,0,0,1-.306,1.449,2.221,2.221,0,0,1-.077.233,5.864,5.864,0,0,1-.62-.6,4.512,4.512,0,0,1-.613-.892,2.807,2.807,0,0,1-.186-.453C339.722,465.448,341.477,464.769,341.49,464.782Zm-2.178.856a.013.013,0,0,1,.01,0,.625.625,0,0,1,.05.12,4.5,4.5,0,0,0,.553.989,5.627,5.627,0,0,0,.769.829c.08.067.153.13.163.14s.027.017-.516.223c-.629.24-1.315.479-2.1.733l-.563.183c-.03.01-.02-.007.067-.143a18.725,18.725,0,0,0,1.315-2.651c.057-.147.113-.293.123-.326a.12.12,0,0,1,.073-.087A.318.318,0,0,1,339.312,465.638Zm-.666.276a7.448,7.448,0,0,1-.326.689c-.323.629-.676,1.249-1.149,2-.08.13-.157.25-.167.263s-.023.017-.077-.087a3.052,3.052,0,0,1-.256-.773,3.109,3.109,0,0,1,.017-.992c.043-.206.04-.2.14-.253C337.254,466.547,338.633,465.9,338.646,465.915Zm5.745.233v.14a18.116,18.116,0,0,1-.2,2.5c-.02.13-.037.236-.04.24l-.21-.06a8.6,8.6,0,0,1-1.532-.656,6.784,6.784,0,0,1-.779-.48s.143-.077.306-.163a19.6,19.6,0,0,0,1.822-1.069c.2-.137.509-.356.576-.416Zm-8.259.986c.013,0,.01.027-.01.147-.013.087-.03.246-.037.356a2.465,2.465,0,0,0,.293,1.339,2.781,2.781,0,0,1,.117.253c-.023.02-2.228.666-2.921.856l-.4.11c-.023.007-.027,0-.017-.053a3.5,3.5,0,0,1,.969-1.668,4.306,4.306,0,0,1,1.1-.839c.34-.193.862-.483.9-.5C336.125,467.133,336.128,467.133,336.132,467.133Zm5.2.929a1.334,1.334,0,0,1,.18.1,10.033,10.033,0,0,0,2.551.992l.077.017-.107.06c-.443.247-1.9.853-3.387,1.409-.216.08-.43.16-.47.176a.238.238,0,0,1-.077.023s.06-.12.137-.263a16.421,16.421,0,0,0,1.049-2.388c.027-.063.043-.12.047-.123Zm-.53.173a.958.958,0,0,1-.057.153,21.085,21.085,0,0,1-1.156,2.328c-.123.22-.227.4-.23.4s-.1-.06-.223-.133a6.847,6.847,0,0,1-1.742-1.482l-.06-.073.3-.083a21.745,21.745,0,0,0,2.924-1.009C340.687,468.279,340.794,468.236,340.8,468.236Zm3.29,1.149h0c0,.077-.167.763-.306,1.259-.117.416-.216.743-.4,1.319-.08.253-.15.463-.153.463a.222.222,0,0,1-.043-.01,13.912,13.912,0,0,1-2.707-.763c-.233-.093-.566-.243-.586-.26a3.878,3.878,0,0,1,.446-.21c1.515-.663,3.087-1.415,3.626-1.738A.435.435,0,0,1,344.087,469.384Zm-7.6.26c.007.007-.416.616-1.009,1.445-.206.29-.446.629-.536.756s-.226.326-.3.446l-.14.216-.15-.127a5.54,5.54,0,0,1-.619-.633,2.733,2.733,0,0,1-.556-1.076c-.037-.16-.037-.24,0-.25.05-.013.939-.223,1.772-.416.463-.106,1-.233,1.192-.28S336.488,469.644,336.491,469.644Zm.426.163.107.12a6.253,6.253,0,0,0,1.562,1.279.874.874,0,0,1,.18.117c-.023.017-2.058.739-3,1.066-.529.186-.966.336-.969.336a.582.582,0,0,1-.067-.043l-.06-.043.1-.14c.313-.453.706-.949,1.562-1.981Zm2.657,1.9s.15.05.33.117a10.685,10.685,0,0,0,1.236.383,13.675,13.675,0,0,0,1.868.323c.073.007.113.013.1.023s-.513.177-.872.29c-.573.18-2.321.7-3.746,1.106-.263.077-.49.14-.5.143a.264.264,0,0,1-.143-.037,2.376,2.376,0,0,1,.177-.223,19.776,19.776,0,0,0,1.352-1.818C339.482,471.849,339.575,471.712,339.575,471.709Zm-.586.017s-.233.383-.646,1.036c-.177.276-.373.589-.443.7s-.166.273-.223.366l-.1.17-.05-.013c-.12-.033-.962-.33-1.186-.42a8.227,8.227,0,0,1-.776-.356,3.237,3.237,0,0,1-.573-.363c.007,0,.463-.127,1.012-.276,1.459-.4,2.268-.626,2.8-.793A1.345,1.345,0,0,1,338.989,471.726Zm4.146.972h0c.013.033-.526,1.532-.723,2-.043.107-.06.133-.083.13-.057,0-.839-.113-1.315-.183-.829-.127-2.221-.37-2.571-.45l-.08-.017.5-.113c1.066-.24,1.578-.37,2.1-.529a14.821,14.821,0,0,0,1.961-.756,1.594,1.594,0,0,1,.213-.087Z" transform="translate(-332.513 -453.007)" fill="url(#linear-gradient)"/>
        <path id="Path_13654" data-name="Path 13654" d="M461.056,82.734a21.167,21.167,0,0,0-2.018.726,12.607,12.607,0,0,0-2.321,1.166,1.762,1.762,0,0,0-.45.45.312.312,0,0,0-.02.113l.446.423,1.062.34,2.528.453,2.891.5.03-.25c-.01,0-.017,0-.027,0l-.38-.06-.077-.137c-.393-.693-.826-1.552-1.079-2.131a11,11,0,0,1-.486-1.342c-.057-.226-.063-.24-.1-.243h0ZM461,82.9h0s.017.1.03.206a6.963,6.963,0,0,0,.323,1.4c.123.366.123.346-.02.3-.34-.093-1.862-.356-2.964-.509-.177-.023-.326-.047-.326-.05s.8-.436,1.152-.6C459.658,83.444,460.91,82.921,461,82.9Zm-3.21,1.492.13.043a19.85,19.85,0,0,0,3.46.659l.207.02a1.552,1.552,0,0,1-.21.11c-.473.236-.992.526-1.352.749a1.382,1.382,0,0,1-.216.12c-.013,0-.083-.013-.157-.023l-.133-.02-.333-.326c-.586-.569-1.046-1.009-1.222-1.176Zm-.133.1.469.586c.256.323.516.639.573.709a1.082,1.082,0,0,1,.1.13c-.013.01-.679-.12-1.032-.2s-.513-.123-.736-.193l-.183-.06v-.047c0-.223.286-.556.766-.9Zm3.99.8c.013,0,.03.03.07.12.113.25.466.922.553,1.052.027.043.073.047-.4-.03-1.129-.183-1.492-.243-1.492-.25a.346.346,0,0,1,.077-.05,6.5,6.5,0,0,0,1.016-.7c.077-.063.147-.123.16-.133S461.646,85.3,461.649,85.3Z" transform="translate(-452.908 -82.734)" fill="url(#linear-gradient-2)"/>
        <path id="Path_13655" data-name="Path 13655" d="M394.58,167.757a.332.332,0,0,0,0,.29,1.315,1.315,0,0,0,.313.37s1.482,1.445,1.662,1.652a4.63,4.63,0,0,1,1.209,3.164,5.123,5.123,0,0,1-.526,2.394,15.552,15.552,0,0,1-4.409,5.032l.33-.11a10.593,10.593,0,0,1,1.182-.7,42.145,42.145,0,0,1,5.5-2.461,68.567,68.567,0,0,1,11.159-2.99l.3-.047-.047-.073a10.267,10.267,0,0,0-.669-.942,8,8,0,0,0-2.364-1.968,17.533,17.533,0,0,0-5.132-1.722c-.4-.08-1.289-.233-2.008-.343-1.525-.236-2.511-.4-3.6-.586-.39-.067-.972-.167-1.359-.25a8.646,8.646,0,0,1-.882-.236C395,168.133,394.653,168.04,394.58,167.757Zm.859.833a.93.93,0,0,1,.126.04c.127.043.29.093.483.147q.219.06.44.117c.2.05.366.1.37.1.023.023.36,1.1.473,1.512.043.157.077.29.073.29a.673.673,0,0,1-.083-.13,6.933,6.933,0,0,0-1.718-1.941A1.416,1.416,0,0,1,395.439,168.59Zm1.638.453a1.309,1.309,0,0,1,.18.03c.566.127,1.582.32,2.231.43a.812.812,0,0,1,.2.043.338.338,0,0,1-.09.057c-.11.057-.553.32-.7.42a6.377,6.377,0,0,0-.942.753c-.1.1-.18.176-.18.176s-.02-.057-.037-.127a10.788,10.788,0,0,0-.6-1.632,1.431,1.431,0,0,1-.067-.153C397.074,169.046,397.074,169.043,397.077,169.043Zm2.884.549a1.279,1.279,0,0,1,.12.37,5.451,5.451,0,0,1,.16,1.525c-.007.14-.013.27-.02.286l-.01.033-.173-.057c-.356-.113-.936-.283-1.432-.423-.283-.077-.513-.147-.513-.153a7.887,7.887,0,0,1,.589-.589A15.465,15.465,0,0,1,399.961,169.592Zm.23.033c.01-.01,1.379.226,2,.346.463.09,1.136.23,1.176.246.02.007-.05.047-.273.147a14.459,14.459,0,0,0-2.181,1.186c-.17.113-.313.206-.316.206a1.794,1.794,0,0,1-.007-.213,4.652,4.652,0,0,0-.36-1.812A.5.5,0,0,1,400.191,169.625Zm3.54.7a2.512,2.512,0,0,1-.073.44,8.346,8.346,0,0,1-.839,1.925,2.2,2.2,0,0,1-.14.226,1.413,1.413,0,0,1-.2-.107,10.856,10.856,0,0,0-1.305-.639c-.133-.057-.25-.1-.253-.11-.023-.02,1.049-.729,1.615-1.069C402.985,170.718,403.717,170.311,403.731,170.325Zm.253.04c.03,0,.636.167.952.26a19.647,19.647,0,0,1,2.268.829l.243.11-.17.04a24.824,24.824,0,0,0-3.84,1.189c-.1.04-.183.073-.19.073a.853.853,0,0,1,.07-.17,6.746,6.746,0,0,0,.643-2.218C403.964,170.415,403.974,170.365,403.984,170.365Zm-6.034,1.385c.01-.01.473.1.723.17.38.107,1.185.376,1.185.4,0,0-.09.08-.2.173-.436.363-.856.746-1.359,1.232-.15.143-.276.26-.283.26s-.01-.02-.007-.047a7.51,7.51,0,0,0-.047-2.008C397.956,171.833,397.946,171.753,397.95,171.75Zm9.727.01a6.374,6.374,0,0,1-.353.549c-.2.286-.493.666-1.156,1.5-.35.44-.743.936-.872,1.1s-.243.306-.246.306a1.145,1.145,0,0,1-.093-.133,6.878,6.878,0,0,0-1.349-1.489c-.1-.083-.21-.173-.246-.2a.373.373,0,0,1-.067-.057c0-.01.566-.253,1-.426.753-.306,1.778-.673,2.548-.909C407.241,171.876,407.67,171.753,407.677,171.76Zm.256.067a.768.768,0,0,1,.19.093,11.3,11.3,0,0,1,2.228,1.672c.176.173.613.626.606.629s-.153.013-.333.027a32.829,32.829,0,0,0-4.922.819c-.117.027-.22.05-.226.05s.123-.13.286-.286a8.522,8.522,0,0,0,2.021-2.691c.076-.163.143-.3.15-.313Zm-7.416.759c.047.01.48.213.806.376.3.15.749.39.773.41,0,0-.157.087-.353.183-.626.313-1.162.609-1.722.949-.16.1-.293.177-.3.177s-.01-.013.08-.177a6.955,6.955,0,0,0,.676-1.835C400.494,172.619,400.507,172.586,400.517,172.586Zm-.433.08a6.323,6.323,0,0,1-.173.643,8.193,8.193,0,0,1-.589,1.352c-.053.093-.133.23-.176.306l-.083.133-.186-.18a2.447,2.447,0,0,0-.619-.456.891.891,0,0,1-.16-.093c0-.027.569-.543,1.006-.916C399.415,173.185,400.074,172.656,400.084,172.666Zm2.648,1.089.163.107a12.649,12.649,0,0,1,1.149.849c.19.156.556.486.629.566l.04.043-.27.077c-1.525.423-2.7.8-4.079,1.305-.153.057-.283.1-.293.1s-.037.017.306-.3a14.623,14.623,0,0,0,2.238-2.571Zm-.7.173c.007.007-.45.649-.723,1.012-.326.433-.906,1.159-1.305,1.632-.166.2-.31.36-.316.363s-.013-.047-.013-.123a2.792,2.792,0,0,0-.283-1.2c-.077-.153-.09-.19-.073-.206.063-.057,1.032-.609,1.645-.939C401.38,174.248,402.026,173.921,402.036,173.928Zm-4.209,1.032a1.466,1.466,0,0,1,.173.087,3.658,3.658,0,0,1,.573.386,1,1,0,0,1-.193.16c-.316.226-.8.589-1.076.813s-.3.24-.27.19a6.127,6.127,0,0,0,.446-.769,6.2,6.2,0,0,0,.28-.7A.563.563,0,0,1,397.826,174.96Zm1.122.879c.017,0,.037.027.127.16a2.4,2.4,0,0,1,.373.969l.007.067-.456.177c-.816.316-1.569.629-2.078.862-.143.067-.393.186-.556.266s-.3.146-.3.143.1-.08.23-.173A13.43,13.43,0,0,0,398.8,176c.07-.083.133-.16.14-.163Zm-.516.127a7.041,7.041,0,0,1-.626.706,11.046,11.046,0,0,1-2.068,1.668l-.2.127c-.023.013.007-.02.353-.4.22-.236.386-.436.576-.683a1.126,1.126,0,0,1,.333-.316C397.29,176.719,398.419,175.953,398.433,175.966Z" transform="translate(-391.197 -165.462)" fill="url(#radial-gradient)"/>
      </g>
    </g>
  </g>
</svg>
