<svg xmlns="http://www.w3.org/2000/svg" width="28.702" height="27.678" viewBox="0 0 28.702 27.678">
  <g id="Group_8945" data-name="Group 8945" transform="translate(-152.11 -69.52)">
    <rect id="Rectangle_2601" data-name="Rectangle 2601" width="6.448" height="14.286" transform="translate(153.11 79.269)" fill="none" stroke="#fff" stroke-miterlimit="10" stroke-width="2"/>
    <path id="Path_18247" data-name="Path 18247" d="M22,6.85V19.215a6.6,6.6,0,0,0-5.639,6.549,6.473,6.473,0,0,0,1.365,4.223H9.15V6.85Z" transform="translate(150.408 63.67)" fill="none" stroke="#fff" stroke-miterlimit="10" stroke-width="2"/>
    <path id="Path_18248" data-name="Path 18248" d="M25.05,18.289a6.574,6.574,0,0,1-11.682,4.223A6.473,6.473,0,0,1,12,18.289a6.6,6.6,0,0,1,5.74-6.549h.834A6.574,6.574,0,0,1,25.05,18.289Z" transform="translate(154.761 71.145)" fill="none" stroke="#fff" stroke-miterlimit="10" stroke-width="2"/>
    <path id="Path_18249" data-name="Path 18249" d="M13.38,15.883l2.149,1.846,3.565-4.3" transform="translate(156.874 73.728)" fill="none" stroke="#fff" stroke-miterlimit="10" stroke-width="2"/>
    <line id="Line_836" data-name="Line 836" x2="4.526" transform="translate(163.982 75.628)" fill="none" stroke="#fff" stroke-miterlimit="10" stroke-width="2"/>
    <line id="Line_837" data-name="Line 837" x2="4.526" transform="translate(163.982 80.736)" fill="none" stroke="#fff" stroke-miterlimit="10" stroke-width="2"/>
  </g>
</svg>
