<svg xmlns="http://www.w3.org/2000/svg" xmlns:xlink="http://www.w3.org/1999/xlink" width="24" height="24" viewBox="0 0 24 24">
  <defs>
    <clipPath id="clip-path">
      <rect id="Rectangle_855" data-name="Rectangle 855" width="24" height="24" transform="translate(349 147)" fill="#fff" stroke="#707070" stroke-width="1"/>
    </clipPath>
  </defs>
  <g id="company-icon" transform="translate(-349 -147)" clip-path="url(#clip-path)">
    <g id="Group_5650" data-name="Group 5650" transform="translate(588.379 -234.135)">
      <path id="Rectangle_854" data-name="Rectangle 854" d="M.833,0h11.26a.833.833,0,0,1,.833.833V22a0,0,0,0,1,0,0H0a0,0,0,0,1,0,0V.833A.833.833,0,0,1,.833,0Z" transform="translate(-237.379 382.135)" fill="none" stroke="#8f9198" stroke-miterlimit="10" stroke-width="2"/>
      <path id="Path_12198" data-name="Path 12198" d="M-232.379,402.809h15.248v-14.16a1.222,1.222,0,0,0-1.174-1.264h-4.21" transform="translate(0.303 1.322)" fill="none" stroke="#8f9198" stroke-miterlimit="10" stroke-width="2"/>
      <line id="Line_355" data-name="Line 355" x2="8.004" transform="translate(-234.879 386.639)" fill="none" stroke="#8f9198" stroke-miterlimit="10" stroke-width="2"/>
      <line id="Line_356" data-name="Line 356" x2="8.004" transform="translate(-234.879 392.968)" fill="none" stroke="#8f9198" stroke-miterlimit="10" stroke-width="2"/>
      <line id="Line_357" data-name="Line 357" x2="8.004" transform="translate(-234.879 399.967)" fill="none" stroke="#8f9198" stroke-miterlimit="10" stroke-width="2"/>
    </g>
  </g>
</svg>
