<svg id="Layer_1" data-name="Layer 1" xmlns="http://www.w3.org/2000/svg" viewBox="0 0 24 24"><defs><style>.cls-1{fill:#f8b425;}.cls-2{fill:none;stroke:#fff;stroke-miterlimit:10;stroke-width:0.5px;}</style></defs><circle class="cls-1" cx="12" cy="12" r="11.51"/><path class="cls-2" d="M15.45,11.36V16.3a.71.71,0,0,1-.72.71h-7A.71.71,0,0,1,7,16.3v-7a.71.71,0,0,1,.72-.71h4.91a2,2,0,0,0-.05.43A2.41,2.41,0,0,0,15,11.41,2.31,2.31,0,0,0,15.45,11.36Z"/><path class="cls-2" d="M17.4,9a2.4,2.4,0,0,1-1.95,2.36,2.31,2.31,0,0,1-.46.05A2.41,2.41,0,0,1,12.58,9a2,2,0,0,1,.05-.43A2.4,2.4,0,0,1,17.4,9Z"/><polyline class="cls-2" points="14.99 7.66 14.99 9.14 15.87 10.03"/></svg>