<svg id="Layer_1" data-name="Layer 1" xmlns="http://www.w3.org/2000/svg" viewBox="0 0 51.47 51.47"><defs><style>.cls-1,.cls-2{fill:none;}.cls-2{stroke:#fff;stroke-miterlimit:10;stroke-width:2px;}</style></defs><path class="cls-1" d="M24,26a2.53,2.53,0,0,0,1.86.81h0a2.52,2.52,0,0,0,1.43-.47,2.66,2.66,0,0,1-1.46.43A2.71,2.71,0,0,1,24,26Z"/><path class="cls-2" d="M25.86,38.75v-12A2.53,2.53,0,0,1,24,26a2.61,2.61,0,0,1-.74-1.83V24a2.23,2.23,0,0,1,.28-1L14.05,18.2a1.94,1.94,0,0,1-1.74,1.08V31"/><path class="cls-2" d="M14,34l10.17,5.86"/><path class="cls-2" d="M36.81,17.3v.06a1.86,1.86,0,0,0,.37,1.12,1.92,1.92,0,0,0,1.58.8,1.63,1.63,0,0,0,.65-.12,1.9,1.9,0,0,0,1.31-1.8v-.12a2,2,0,0,0-2-2,1.93,1.93,0,0,0-1.49.69s-.06.06-.06.09a1.74,1.74,0,0,0-.4,1.18Z"/><path class="cls-2" d="M24.13,10.54,14,16.37a1.9,1.9,0,0,1,.28,1,2.06,2.06,0,0,1-.22.84L23.54,23A2.56,2.56,0,0,1,27,21.73,3,3,0,0,1,28.19,23l9-4.49a1.86,1.86,0,0,1-.37-1.12v-.12a1.74,1.74,0,0,1,.4-1.18L27.6,10.54s0,.09-.06.12a2,2,0,0,1-1.68,1"/><path class="cls-2" d="M27.57,39.81,37.74,34a1.5,1.5,0,0,1-.28-1,2,2,0,0,1,1.95-2V19.16a1.63,1.63,0,0,1-.65.12,1.92,1.92,0,0,1-1.58-.8l-9,4.49a2.39,2.39,0,0,1,.28,1.15,3.19,3.19,0,0,1-.06.53,2.54,2.54,0,0,1-.38.93,2.86,2.86,0,0,1-.34.37,3.81,3.81,0,0,1-.37.34,2.52,2.52,0,0,1-1.43.47h0v12"/><path class="cls-2" d="M27,21.73A2.56,2.56,0,0,0,23.54,23a2.23,2.23,0,0,0-.28,1v.12A2.61,2.61,0,0,0,24,26a2.71,2.71,0,0,0,1.86.77,2.66,2.66,0,0,0,1.46-.43,3.81,3.81,0,0,0,.37-.34,2.86,2.86,0,0,0,.34-.37,2.54,2.54,0,0,0,.38-.93,3.19,3.19,0,0,0,.06-.53A2.39,2.39,0,0,0,28.19,23,3,3,0,0,0,27,21.73Z"/><path class="cls-2" d="M39.41,31a2,2,0,0,0-1.95,2,1.5,1.5,0,0,0,.28,1,1.84,1.84,0,0,0,1.67,1,2,2,0,1,0,0-3.91Z"/><path class="cls-2" d="M14.05,18.2a2.06,2.06,0,0,0,.22-.84,2,2,0,0,0-2-1.95,1.34,1.34,0,0,0-.49,0,2,2,0,0,0-1.71,2.17,2,2,0,0,0,2.2,1.7A1.94,1.94,0,0,0,14.05,18.2Z"/><path class="cls-2" d="M27.47,10.52a2,2,0,0,0,.21-.84,1.89,1.89,0,0,0-.27-1,1.91,1.91,0,0,0-1.68-1,1.4,1.4,0,0,0-.5,0,2,2,0,0,0-1.7,2.17,2.12,2.12,0,0,0,3.94.62Z"/><path class="cls-2" d="M14.05,34a2.06,2.06,0,0,0,.22-.84,2,2,0,0,0-2-1.95,1.34,1.34,0,0,0-.49,0,2,2,0,0,0-1.71,2.17,2,2,0,0,0,2.2,1.71A2,2,0,0,0,14.05,34Z"/><path class="cls-2" d="M27.87,41.38a1.83,1.83,0,0,0,.22-.83,1.79,1.79,0,0,0-.28-1,1.89,1.89,0,0,0-1.67-1,1.4,1.4,0,0,0-.5,0,2,2,0,0,0-1.7,2.17,2,2,0,0,0,2.2,1.71A1.93,1.93,0,0,0,27.87,41.38Z"/></svg>