<svg xmlns="http://www.w3.org/2000/svg" xmlns:xlink="http://www.w3.org/1999/xlink" width="18" height="18" viewBox="0 0 18 18">
  <defs>
    <clipPath id="clip-path">
      <rect id="Rectangle_1172" data-name="Rectangle 1172" width="18" height="18" transform="translate(616 225)" fill="#fff" stroke="#707070" stroke-width="1"/>
    </clipPath>
  </defs>
  <g id="authentication-icon" transform="translate(-616 -225)" clip-path="url(#clip-path)">
    <g id="Group_5997" data-name="Group 5997" transform="translate(615.761 226.8) rotate(-8)">
      <g id="Path_12745" data-name="Path 12745" fill="none" stroke-linejoin="round">
        <path d="M8.518,2.008a4.643,4.643,0,0,1,.853,4.036L10.3,7.215l-4.43,3.5L4.94,9.544A4.654,4.654,0,1,1,8.518,2.008Z" stroke="none"/>
        <path d="M 4.861739635467529 1.238140106201172 C 4.032979488372803 1.238140106201172 3.250139713287354 1.510479927062988 2.598089694976807 2.025529861450195 C 1.01653003692627 3.275569915771484 0.7463092803955078 5.579400062561035 1.995539665222168 7.160929679870605 C 2.690639495849609 8.040399551391602 3.732519626617432 8.5447998046875 4.854019641876221 8.5447998046875 C 4.876489639282227 8.5447998046875 4.899019718170166 8.544589996337891 4.921489715576172 8.544170379638672 C 4.927685737609863 8.544054985046387 4.933849811553955 8.543998718261719 4.940032958984375 8.543998718261719 C 5.245570182800293 8.543998718261719 5.534801483154297 8.683782577514648 5.724639415740967 8.924050331115723 L 6.030620574951172 9.311317443847656 L 8.891570091247559 7.050328254699707 L 8.586289405822754 6.663859844207764 C 8.392659187316895 6.418740272521973 8.324699401855469 6.097219944000244 8.402569770812988 5.794710159301758 C 8.684659957885742 4.698880195617676 8.43451976776123 3.515089988708496 7.733279228210449 2.62785005569458 C 7.035659790039063 1.744669914245605 5.989029884338379 1.238140106201172 4.861739635467529 1.238140106201172 M 4.861744403839111 0.2381381988525391 C 6.23724365234375 0.2381381988525391 7.59919261932373 0.844792366027832 8.517999649047852 2.008000373840332 C 9.452999114990234 3.190999984741211 9.717999458312988 4.696000099182129 9.370999336242676 6.044000148773193 L 10.29599952697754 7.215000152587891 L 5.865999698638916 10.71599960327148 L 4.939999580383301 9.543999671936035 C 4.911367893218994 9.544534683227539 4.882651329040527 9.544802665710449 4.854015350341797 9.544802665710449 C 3.490441799163818 9.544802665710449 2.126767635345459 8.939666748046875 1.210999488830566 7.781000137329102 C -0.383000373840332 5.763000011444092 -0.03999996185302734 2.835999965667725 1.977999687194824 1.241000175476074 C 2.832792282104492 0.5658073425292969 3.850947380065918 0.2381381988525391 4.861744403839111 0.2381381988525391 Z" stroke="none" fill="#b73f83"/>
      </g>
      <path id="Path_12746" data-name="Path 12746" d="M8.152,6.477" fill="none" stroke="#b73f83" stroke-linejoin="round" stroke-width="1"/>
      <path id="Path_12747" data-name="Path 12747" d="M6.032,3.711A1.674,1.674,0,0,0,3.4,5.786Z" fill="none" stroke="#b73f83" stroke-linejoin="round" stroke-width="1"/>
      <path id="Path_12748" data-name="Path 12748" d="M9.1,7.875l4.912,6.217-.574,1.663-1.751.174L6.777,9.711" transform="translate(0.414 0.46)" fill="none" stroke="#b73f83" stroke-linejoin="round" stroke-width="1"/>
      <line id="Line_488" data-name="Line 488" x1="1.111" y2="0.939" transform="translate(10.713 11.423)" fill="none" stroke="#b73f83" stroke-linejoin="round" stroke-width="1"/>
      <line id="Line_489" data-name="Line 489" x1="1.111" y2="0.939" transform="translate(12.411 13.546)" fill="none" stroke="#b73f83" stroke-linejoin="round" stroke-width="1"/>
    </g>
  </g>
</svg>
