<svg xmlns="http://www.w3.org/2000/svg" xmlns:xlink="http://www.w3.org/1999/xlink" width="17.866" height="18.025" viewBox="0 0 17.866 18.025">
  <defs>
    <clipPath id="clip-path">
      <path id="Rectangle_1172" data-name="Rectangle 1172" d="M0,.025,17.866,0V18.025L0,18Z" fill="#fff" stroke="#707070" stroke-width="1"/>
    </clipPath>
  </defs>
  <g id="authentication-icon" clip-path="url(#clip-path)">
    <g id="Group_8830" data-name="Group 8830" transform="translate(1.445 1.138)">
      <g id="Group_8829" data-name="Group 8829" transform="translate(7.734 7.457)">
        <g id="Path_17561" data-name="Path 17561" transform="translate(0)" fill="none" stroke-miterlimit="10">
          <path d="M.591,2.148s.1-.015.268-.057a5.836,5.836,0,0,0,.692-.22A6.293,6.293,0,0,0,2.5,1.413,5.863,5.863,0,0,0,3.523.642c.073.052.226.168.432.312s.468.316.76.478a5.445,5.445,0,0,0,.941.423A2.605,2.605,0,0,0,6.634,2a3.927,3.927,0,0,1,.106.842,5.787,5.787,0,0,1-.164,1.6,4.76,4.76,0,0,1-.891,1.826A5.168,5.168,0,0,1,3.611,7.791,2.726,2.726,0,0,1,2.991,7.5a5.383,5.383,0,0,1-1.2-.958A4.728,4.728,0,0,1,.75,4.8,5.442,5.442,0,0,1,.591,2.148Z" stroke="none"/>
          <path d="M 3.712014198303223 8.291645050048828 L 3.611448526382446 8.291524887084961 C 3.538070678710938 8.291435241699219 3.408257961273193 8.255636215209961 3.240956783294678 8.185451507568359 C 3.073664426803589 8.115273475646973 2.86889123916626 8.010715484619141 2.645578622817993 7.873112678527832 C 2.422280073165894 7.735519886016846 2.180449247360229 7.564887046813965 1.939019918441772 7.362540721893311 C 1.697607398033142 7.160209655761719 1.456597447395325 6.92617130279541 1.234915494918823 6.661750793457031 C 0.9753023982048035 6.352088451385498 0.7561144828796387 6.020494937896729 0.5780028104782104 5.669650077819824 C 0.3999008536338806 5.318824291229248 0.2628670632839203 4.948741436004639 0.1675582081079483 4.562080860137939 C 0.07225118577480316 4.175432205200195 0.01866515725851059 3.772196531295776 0.007458992768079042 3.35505223274231 C -0.003748086979612708 2.937908887863159 0.02742506563663483 2.506846904754639 0.1016406118869781 2.064540863037109 L 0.1617173701524734 1.706493020057678 L 0.5183056592941284 1.653326869010925 C 0.5215582847595215 1.652823090553284 0.614065408706665 1.637791752815247 0.7699074745178223 1.597724556922913 C 0.92575603723526 1.557656407356262 1.144953489303589 1.492546319961548 1.401581287384033 1.391883730888367 C 1.658229470252991 1.291212439537048 1.952319622039795 1.15498149394989 2.257924556732178 0.9726713895797729 C 2.563558578491211 0.7903450727462769 2.880713224411011 0.5619313716888428 3.183448553085327 0.2769158780574799 L 3.477297782897949 0.0002605023910291493 L 3.807177305221558 0.2321441769599915 C 3.814182043075562 0.2370675057172775 3.821850299835205 0.2425310015678406 3.830164194107056 0.2485098391771317 C 3.838478088378906 0.2544877231121063 3.847436904907227 0.2609819173812866 3.857023477554321 0.2679637670516968 C 3.866610288619995 0.2749466300010681 3.876822233200073 0.2824181318283081 3.887640714645386 0.290351539850235 C 3.898460388183594 0.2982849776744843 3.909887552261353 0.3066812753677368 3.921902894973755 0.3155147135257721 C 4.022019863128662 0.3891286253929138 4.173279762268066 0.5003477931022644 4.358874797821045 0.62577223777771 C 4.54448127746582 0.7512048482894897 4.764431953430176 0.8908478617668152 5.001915454864502 1.021298408508301 C 5.239415645599365 1.151758432388306 5.494455814361572 1.27302622795105 5.750216484069824 1.361692190170288 C 6.005998134613037 1.450363993644714 6.262500762939453 1.506429076194763 6.502902507781982 1.506469488143921 C 6.51107931137085 1.506470441818237 6.519236087799072 1.506402611732483 6.527359008789062 1.506265163421631 C 6.535483360290527 1.506127595901489 6.543576240539551 1.505922436714172 6.551618576049805 1.505648255348206 C 6.559662818908691 1.505375146865845 6.567657947540283 1.505032420158386 6.5755934715271 1.504623770713806 C 6.583528995513916 1.504213094711304 6.591405391693115 1.503736615180969 6.599201202392578 1.503191351890564 L 6.99279260635376 1.475686430931091 L 7.109023094177246 1.855184078216553 C 7.127259254455566 1.914730548858643 7.153751850128174 2.031777620315552 7.178082942962646 2.194400310516357 C 7.202416896820068 2.357024431228638 7.22458553314209 2.56522274017334 7.234180927276611 2.807069301605225 C 7.243773460388184 3.048915147781372 7.24078893661499 3.324405670166016 7.214809894561768 3.621609926223755 C 7.188830375671387 3.918811559677124 7.139854431152344 4.237720966339111 7.05747127532959 4.566404342651367 C 6.983664989471436 4.860867977142334 6.878045558929443 5.181451797485352 6.727472305297852 5.510959148406982 C 6.576902389526367 5.840451717376709 6.381385803222656 6.178858757019043 6.12777853012085 6.508983612060547 C 5.874194145202637 6.839083194732666 5.562539100646973 7.160887718200684 5.179687023162842 7.457206249237061 C 4.796881198883057 7.753490924835205 4.342912673950195 8.024279594421387 3.804673910140991 8.252384185791016 L 3.712014198303223 8.291645050048828 Z M 1.033845067024231 2.56304669380188 C 0.9450855851173401 3.345308303833008 1.024530053138733 4.012540817260742 1.202714800834656 4.577595233917236 C 1.380909442901611 5.14268159866333 1.657864809036255 5.605612754821777 1.964113593101501 5.979191303253174 C 2.270392417907715 6.352804660797119 2.605974435806274 6.637054443359375 2.901357650756836 6.844716548919678 C 3.196767568588257 7.052397727966309 3.451964855194092 7.1834716796875 3.59740948677063 7.250707149505615 C 3.92732834815979 7.098004341125488 4.227197647094727 6.922073841094971 4.496661186218262 6.723299980163574 C 4.766148090362549 6.524509906768799 5.005220413208008 6.302878379821777 5.213525772094727 6.058789253234863 C 5.421844005584717 5.814684391021729 5.599388122558594 5.54812479019165 5.745804786682129 5.259500026702881 C 5.892228126525879 4.970862865447998 6.007519721984863 4.66016149520874 6.091329097747803 4.327786922454834 C 6.138447761535645 4.140933513641357 6.172550201416016 3.957760572433472 6.196508407592773 3.781854152679443 C 6.220465660095215 3.605946779251099 6.234278202056885 3.437306880950928 6.240818023681641 3.279520273208618 C 6.247356414794922 3.12173318862915 6.246621608734131 2.974801540374756 6.241487503051758 2.842309474945068 C 6.23635196685791 2.709817886352539 6.226814746856689 2.591766119003296 6.215747356414795 2.491739988327026 C 5.974952220916748 2.465903759002686 5.73343563079834 2.409489393234253 5.495270729064941 2.331344842910767 C 5.257122039794922 2.253204822540283 5.022325038909912 2.153338193893433 4.794954299926758 2.040588855743408 C 4.567600250244141 1.927846550941467 4.34766960144043 1.802224278450012 4.139236450195312 1.672564625740051 C 3.930815458297729 1.542912125587463 3.733889579772949 1.409221649169922 3.552528142929077 1.28033435344696 C 3.309747695922852 1.480170965194702 3.064085006713867 1.651698112487793 2.823865175247192 1.798721313476562 C 2.583664417266846 1.945733785629272 2.348906993865967 2.068246603012085 2.127919435501099 2.170064449310303 C 1.906945824623108 2.271875143051147 1.699737191200256 2.352992534637451 1.514615297317505 2.417222023010254 C 1.329502820968628 2.481448411941528 1.166473865509033 2.528788566589355 1.033845067024231 2.56304669380188 Z" stroke="none" fill="#b73f83"/>
        </g>
        <g id="Path_17562" data-name="Path 17562" transform="translate(2.067 2.745)" fill="none" stroke-miterlimit="10">
          <path d="M.322,1.495l.942.807L3.07.341" stroke="none"/>
          <path d="M 1.304526209831238 2.993083953857422 L 0.9420216083526611 2.682523965835571 L -4.770074156112969e-05 1.875430941581726 L 0.6432974338531494 1.113558650016785 L 1.223026394844055 1.610115170478821 L 2.705897808074951 0.0009591828566044569 L 3.434847593307495 0.6818099617958069 L 1.628064513206482 2.642054796218872 L 1.304526209831238 2.993083953857422 Z" stroke="none" fill="#b73f83"/>
        </g>
      </g>
      <g id="Ellipse_1645" data-name="Ellipse 1645" transform="translate(2.357 0)" fill="none" stroke-miterlimit="10">
        <path d="M3.933.5A3.4,3.4,0,0,1,5.272.776,3.462,3.462,0,0,1,7.1,2.619,3.475,3.475,0,0,1,5.272,7.164,3.418,3.418,0,0,1,1.5,6.422,3.477,3.477,0,0,1,2.595.778,3.407,3.407,0,0,1,3.933.5Z" stroke="none"/>
        <path d="M 3.933072090148926 7.936147689819336 C 3.390617609024048 7.936141490936279 2.873531103134155 7.824967384338379 2.403053760528564 7.624069213867188 C 1.932644009590149 7.42319917678833 1.508816838264465 7.132627487182617 1.152798414230347 6.773777008056641 C 0.7968190908432007 6.414965629577637 0.5086190700531006 5.987877368927002 0.3094200491905212 5.513913631439209 C 0.1102331802248955 5.039978504180908 2.552052501414437e-05 4.519148826599121 2.552052501414437e-05 3.972805500030518 C 2.552052501414437e-05 3.426462650299072 0.1102332100272179 2.905500411987305 0.3094200789928436 2.431326866149902 C 0.5086191296577454 1.95712411403656 0.7968190908432007 1.529689788818359 1.152798414230347 1.170452117919922 C 1.508816838264465 0.8111752271652222 1.932644009590149 0.5200948715209961 2.403053522109985 0.318662017583847 C 2.873530864715576 0.1171999797224998 3.390617370605469 0.005405541975051165 3.933072090148926 0.004750222433358431 C 4.475615978240967 0.004094852134585381 4.992957592010498 0.1146758869290352 5.463809490203857 0.3151112496852875 C 5.934728622436523 0.5155755877494812 6.359131813049316 0.8059144020080566 6.715720653533936 1.164725184440613 C 7.072347164154053 1.523575067520142 7.361127853393555 1.950896501541138 7.5607590675354 2.425264835357666 C 7.760402679443359 2.899662017822266 7.870872974395752 3.421085357666016 7.870872974395752 3.968088865280151 C 7.870872974395752 4.515092849731445 7.760402679443359 5.036648750305176 7.5607590675354 5.511285305023193 C 7.361127853393555 5.985891819000244 7.072347164154053 6.413559913635254 6.715720653533936 6.77283763885498 C 6.359131813049316 7.13207483291626 5.934728622436523 7.422922134399414 5.463809490203857 7.623951435089111 C 4.992957592010498 7.824951171875 4.475615978240967 7.936151504516602 3.933072090148926 7.936147689819336 Z M 3.933072090148926 1.004568338394165 C 3.52737021446228 1.004996180534363 3.140625953674316 1.088549375534058 2.7887282371521 1.239175796508789 C 2.436868667602539 1.389786005020142 2.119840860366821 1.607458233833313 1.853526949882507 1.876151561737061 C 1.58723509311676 2.144823312759399 1.37164032459259 2.464516162872314 1.222622156143188 2.819202661514282 C 1.073610663414001 3.173872947692871 0.9911636114120483 3.56354832649231 0.9911636114120483 3.972211599349976 C 0.9911636114120483 4.380875110626221 1.073610663414001 4.770451068878174 1.222622156143188 5.124942779541016 C 1.37164032459259 5.479451179504395 1.58723509311676 5.798885822296143 1.853526949882507 6.067237854003906 C 2.119840860366821 6.335612773895264 2.436868667602539 6.552904605865479 2.7887282371521 6.703094005584717 C 3.140625953674316 6.853298187255859 3.52737021446228 6.936387538909912 3.933072090148926 6.936329364776611 C 4.338823795318604 6.936270236968994 4.725710391998291 6.853048801422119 5.077817916870117 6.702682018280029 C 5.429962635040283 6.552297592163086 5.747313499450684 6.334755897521973 6.01394510269165 6.066083908081055 C 6.280599594116211 5.797389984130859 6.496519088745117 5.477566242218018 6.645778656005859 5.122653007507324 C 6.795045852661133 4.767724514007568 6.877639293670654 4.377717018127441 6.877639293670654 3.968683958053589 C 6.877639293670654 3.559651136398315 6.795045852661133 3.169743299484253 6.645778656005859 2.814992427825928 C 6.496519088745117 2.460258722305298 6.280599594116211 2.14069390296936 6.01394510269165 1.87231969833374 C 5.747313499450684 1.603967547416687 5.429962635040283 1.386805891990662 5.077817916870117 1.236843943595886 C 4.725710391998291 1.086897969245911 4.338823795318604 1.004140377044678 3.933072090148926 1.004568338394165 Z" stroke="none" fill="#b73f83"/>
      </g>
      <g id="Path_17563" data-name="Path 17563" transform="translate(0 8.433)" fill="none" stroke-miterlimit="10">
        <path d="M.5,6.339a5.843,5.843,0,0,1,1.7-4.128A5.8,5.8,0,0,1,4.033.959,5.74,5.74,0,0,1,6.29.5a5.81,5.81,0,0,1,.6.032A5.734,5.734,0,0,1,8.588.978l.075.031.023.007.021.01.071.039" stroke="none"/>
        <path d="M 0.9904236793518066 6.339306831359863 L 3.214957814634545e-06 6.338256359100342 C 3.214957814634545e-06 5.464529037475586 0.1761887520551682 4.63166618347168 0.4946314990520477 3.873827219009399 C 0.8131053447723389 3.115915775299072 1.273892283439636 2.432979106903076 1.843081831932068 1.859230279922485 C 2.412370681762695 1.285381078720093 3.09013819694519 0.8207210302352905 3.842459201812744 0.4995220005512238 C 4.594954013824463 0.1782477647066116 5.422072410583496 0.0004852672282140702 6.289853572845459 0.0005597049603238702 C 6.506233692169189 0.0005778406630270183 6.720973968505859 0.01148472260683775 6.933711051940918 0.03320799022912979 C 7.14646053314209 0.05493172630667686 7.357207298278809 0.08747228235006332 7.5655837059021 0.1307534128427505 C 7.77397346496582 0.1740373373031616 7.979992389678955 0.228064090013504 8.183276176452637 0.2927583158016205 C 8.386573791503906 0.3574565947055817 8.587135314941406 0.4328245222568512 8.784595489501953 0.5187876224517822 C 8.789918899536133 0.5210906863212585 8.794769287109375 0.5231800079345703 8.7991943359375 0.5250738263130188 C 8.803618431091309 0.5269666910171509 8.807616233825684 0.5286629796028137 8.811233520507812 0.5301818251609802 C 8.814850807189941 0.5316997170448303 8.818086624145508 0.5330411195755005 8.820988655090332 0.534223198890686 C 8.823891639709473 0.5354034304618835 8.826457977294922 0.5364242196083069 8.828736305236816 0.5373029708862305 C 8.843051910400391 0.5417024493217468 8.855871200561523 0.5461476445198059 8.868132591247559 0.5509352087974548 C 8.880395889282227 0.5557218790054321 8.892099380493164 0.5608519315719604 8.904182434082031 0.5666229724884033 C 8.916267395019531 0.572394073009491 8.928731918334961 0.5788062214851379 8.942513465881348 0.5861581563949585 C 8.956294059753418 0.5935109853744507 8.971395492553711 0.6018027067184448 8.988751411437988 0.6113336682319641 L 9.015751838684082 0.6261512637138367 L 8.540996551513672 1.504498481750488 L 8.51357364654541 1.489447474479675 C 8.511807441711426 1.488477826118469 8.510107040405273 1.487542748451233 8.508466720581055 1.486640095710754 C 8.506827354431152 1.485738396644592 8.505248069763184 1.484870076179504 8.503726959228516 1.484034180641174 C 8.502206802368164 1.483198165893555 8.500743865966797 1.482394695281982 8.499337196350098 1.481620788574219 C 8.497929573059082 1.480845928192139 8.496580123901367 1.480103731155396 8.495281219482422 1.479389905929565 C 8.488988876342773 1.477100253105164 8.482292175292969 1.474586367607117 8.475061416625977 1.471788167953491 C 8.467830657958984 1.468990921974182 8.460062026977539 1.465909242630005 8.451622009277344 1.462482213973999 C 8.443181991577148 1.45905613899231 8.434070587158203 1.455283641815186 8.424152374267578 1.451104640960693 C 8.414234161376953 1.446926712989807 8.403508186340332 1.442342162132263 8.391840934753418 1.437292098999023 C 8.225410461425781 1.36480975151062 8.056404113769531 1.301272034645081 7.88511323928833 1.246731996536255 C 7.713830947875977 1.192195653915405 7.540265083312988 1.146657943725586 7.364705562591553 1.110174298286438 C 7.189156055450439 1.073693752288818 7.011614322662354 1.046265482902527 6.832369804382324 1.027947068214417 C 6.653134822845459 1.009628653526306 6.472199440002441 1.000420928001404 6.289853572845459 1.000377774238586 C 5.558811664581299 1.000202536582947 4.861997127532959 1.149850130081177 4.228024482727051 1.420415163040161 C 3.594176530838013 1.690927624702454 3.02312183380127 2.082321166992188 2.543451309204102 2.565730094909668 C 2.063852310180664 3.049067974090576 1.675582647323608 3.624418973922729 1.407224416732788 4.262959480285645 C 1.138888359069824 4.901445388793945 0.9904236793518066 5.603157997131348 0.9904236793518066 6.339306831359863 Z" stroke="none" fill="#b73f83"/>
      </g>
      <path id="Path_17564" data-name="Path 17564" transform="translate(10.022 11.523)" fill="none" stroke="#b73f83" stroke-miterlimit="10" stroke-width="1"/>
    </g>
  </g>
</svg>
