<svg xmlns="http://www.w3.org/2000/svg" xmlns:xlink="http://www.w3.org/1999/xlink" width="24" height="24" viewBox="0 0 24 24">
  <defs>
    <clipPath id="clip-path">
      <rect id="Rectangle_1178" data-name="Rectangle 1178" width="24" height="24" transform="translate(109 106)" fill="#fff" stroke="#707070" stroke-width="1"/>
    </clipPath>
  </defs>
  <g id="CV" transform="translate(-109 -106)" clip-path="url(#clip-path)">
    <g id="Rectangle_1176" data-name="Rectangle 1176" transform="translate(123 114)" fill="none" stroke="#8f9198" stroke-width="2">
      <rect width="9" height="3" stroke="none"/>
      <rect x="1" y="1" width="7" height="1" fill="none"/>
    </g>
    <g id="Rectangle_1179" data-name="Rectangle 1179" transform="translate(123 109)" fill="none" stroke="#8f9198" stroke-width="2">
      <rect width="9" height="3" stroke="none"/>
      <rect x="1" y="1" width="7" height="1" fill="none"/>
    </g>
    <g id="Rectangle_1177" data-name="Rectangle 1177" transform="translate(123 119)" fill="none" stroke="#8f9198" stroke-width="2">
      <rect width="9" height="3" stroke="none"/>
      <rect x="1" y="1" width="7" height="1" fill="none"/>
    </g>
    <g id="Rectangle_1180" data-name="Rectangle 1180" transform="translate(123 124)" fill="none" stroke="#8f9198" stroke-width="2">
      <rect width="9" height="3" stroke="none"/>
      <rect x="1" y="1" width="7" height="1" fill="none"/>
    </g>
    <g id="Group_6000" data-name="Group 6000" transform="translate(113.178 109.098)">
      <g id="Path_12752" data-name="Path 12752" transform="translate(0 0)" fill="rgba(0,0,0,0)" stroke-linejoin="round">
        <path d="M 4.736949443817139 7.834146976470947 L 0.3325986564159393 7.827125549316406 L 0.333528608083725 7.133341789245605 L 0.3341886103153229 6.637171745300293 L -0.06051139906048775 6.336511611938477 C -1.113911390304565 5.534091949462891 -1.741761445999146 4.26427173614502 -1.740001440048218 2.939761638641357 C -1.736331343650818 0.5827516913414001 0.1840786039829254 -1.335008263587952 2.540918588638306 -1.335008263587952 L 2.54775857925415 -1.334998250007629 C 3.691728591918945 -1.333218336105347 4.76633882522583 -0.8863182663917542 5.573628425598145 -0.07662829011678696 C 6.380918502807617 0.7330517172813416 6.824528694152832 1.808911681175232 6.82274866104126 2.952751636505127 C 6.820988655090332 4.277191638946533 6.18967866897583 5.545291900634766 5.133978366851807 6.345151901245117 L 4.738548755645752 6.64475154876709 L 4.737878799438477 7.140871524810791 L 4.736949443817139 7.834146976470947 Z" stroke="none"/>
        <path d="M 2.54059624671936 -0.3350081443786621 C 0.7344574928283691 -0.3348288536071777 -0.7371916770935059 1.13496208190918 -0.7400012016296387 2.941091775894165 C -0.7413516044616699 3.954921722412109 -0.2608113288879395 4.926851749420166 0.5454487800598145 5.541011810302734 C 0.9606776237487793 5.857313632965088 1.232474088668823 6.320497989654541 1.310415983200073 6.828681945800781 L 3.761967182159424 6.832590103149414 C 3.84148120880127 6.325100421905518 4.114378929138184 5.863032817840576 4.530088424682617 5.54807186126709 C 5.338168621063232 4.935831546783447 5.821408748626709 3.965211629867554 5.82274866104126 2.951201677322388 C 5.825568675994873 1.142001628875732 4.355718612670898 -0.3321881294250488 2.549318552017212 -0.3349981307983398 C 2.548585414886475 -0.3349981307983398 2.542148351669312 -0.3350067138671875 2.54059624671936 -0.3350081443786621 M 2.540919542312622 -2.335004806518555 C 2.543766498565674 -2.335004806518555 2.546470642089844 -2.335002899169922 2.549318552017212 -2.33499813079834 C 5.466768741607666 -2.330458641052246 7.827288627624512 0.03685188293457031 7.82274866104126 2.954311609268188 C 7.820478439331055 4.663731575012207 6.996968746185303 6.188251495361328 5.737878799438477 7.142201900482178 L 5.735608577728271 8.835741996765137 L -0.6687412261962891 8.825531959533691 L -0.6664714813232422 7.132001876831055 C -1.923291206359863 6.174631595611572 -2.742271423339844 4.647851943969727 -2.740001201629639 2.938431739807129 C -2.735466003417969 0.02382087707519531 -0.3714914321899414 -2.335004806518555 2.540919542312622 -2.335004806518555 Z" stroke="none" fill="#8f9198"/>
      </g>
      <path id="Path_12753" data-name="Path 12753" d="M3.511,5.6" transform="translate(0.84 1.066)" fill="rgba(0,0,0,0)" stroke="#8f9198" stroke-linejoin="round" stroke-width="2"/>
      <path id="Path_12754" data-name="Path 12754" d="M4.016,2.343a1.9,1.9,0,1,0-3.8-.006Z" transform="translate(0.397 0.373)" fill="#8f9198"/>
      <path id="Path_12755" data-name="Path 12755" d="M3.407,7.453,3.395,17.468l-1.559,1.2L.28,17.462.293,7.448" transform="translate(0.722 1.314)" fill="rgba(0,0,0,0)" stroke="#8f9198" stroke-linejoin="round" stroke-width="2"/>
    </g>
  </g>
</svg>
