<svg xmlns="http://www.w3.org/2000/svg" xmlns:xlink="http://www.w3.org/1999/xlink" width="24" height="24" viewBox="0 0 24 24">
  <defs>
    <clipPath id="clip-path">
      <rect id="Rectangle_1488" data-name="Rectangle 1488" width="24" height="24" transform="translate(1449 229)" fill="red"/>
    </clipPath>
  </defs>
  <g id="emc_srdf" transform="translate(-1449 -229)" clip-path="url(#clip-path)">
    <g id="Group_6653" data-name="Group 6653">
      <circle id="Ellipse_1504" data-name="Ellipse 1504" cx="12" cy="12" r="12" transform="translate(1449 229)" fill="#09af05"/>
      <g id="Group_6652" data-name="Group 6652" transform="translate(1452 237)">
        <path id="Path_13536" data-name="Path 13536" d="M291.007,329.034v-7.015h1.94q3.712,0,3.714,3.42a3.447,3.447,0,0,1-1.032,2.61,3.831,3.831,0,0,1-2.761.985Zm.823-6.272v5.529h1.048a2.978,2.978,0,0,0,2.15-.74,2.765,2.765,0,0,0,.769-2.094q0-2.7-2.871-2.7Zm6.212,6.272v-7.015h2a2.189,2.189,0,0,1,1.445.444,1.441,1.441,0,0,1,.535,1.16,1.7,1.7,0,0,1-.324,1.037,1.735,1.735,0,0,1-.891.626v.02a1.8,1.8,0,0,1,1.137.534,1.649,1.649,0,0,1,.426,1.177,1.835,1.835,0,0,1-.647,1.458,2.409,2.409,0,0,1-1.632.558Zm.823-6.272v2.266h.843a1.606,1.606,0,0,0,1.064-.326,1.134,1.134,0,0,0,.386-.918q0-1.022-1.348-1.022Zm0,3v2.525h1.117a1.68,1.68,0,0,0,1.124-.342,1.172,1.172,0,0,0,.4-.94q0-1.243-1.7-1.243Zm8.711,3.268h-4.234v-.715l2.049-2.049a8.561,8.561,0,0,0,1.119-1.3,2.018,2.018,0,0,0,.336-1.114,1.236,1.236,0,0,0-.348-.939,1.375,1.375,0,0,0-.99-.332,2.633,2.633,0,0,0-1.8.8v-.841a3.027,3.027,0,0,1,1.916-.641,2.067,2.067,0,0,1,1.478.509,1.789,1.789,0,0,1,.54,1.366,2.609,2.609,0,0,1-.373,1.318,8.369,8.369,0,0,1-1.338,1.6l-1.622,1.6v.018h3.269Z" transform="translate(-291.007 -321.901)" fill="#fff" fill-rule="evenodd"/>
        <path id="Path_13537" data-name="Path 13537" d="M583.317,435.434a.572.572,0,0,1,.275.072.511.511,0,0,1,.209.206.57.57,0,0,1,.075.28.564.564,0,0,1-.074.278.518.518,0,0,1-.207.207.562.562,0,0,1-.557,0,.52.52,0,0,1-.207-.207.558.558,0,0,1,0-.558.519.519,0,0,1,.21-.206A.572.572,0,0,1,583.317,435.434Zm0,.092a.48.48,0,0,0-.23.06.43.43,0,0,0-.174.173.463.463,0,0,0,0,.465.44.44,0,0,0,.173.172.466.466,0,0,0,.464,0,.437.437,0,0,0,.173-.172.467.467,0,0,0,0-.465.429.429,0,0,0-.175-.173A.479.479,0,0,0,583.317,435.526Zm-.246.775v-.6h.207a.5.5,0,0,1,.154.017.149.149,0,0,1,.076.058.155.155,0,0,1,.028.088.159.159,0,0,1-.047.114.187.187,0,0,1-.125.055.159.159,0,0,1,.051.032.686.686,0,0,1,.089.119l.073.118h-.118l-.054-.094a.481.481,0,0,0-.1-.14.123.123,0,0,0-.078-.02h-.057v.255Zm.1-.338h.118a.191.191,0,0,0,.115-.025.085.085,0,0,0,.016-.114.089.089,0,0,0-.041-.031.315.315,0,0,0-.1-.01h-.111Z" transform="translate(-565.876 -428.841)" fill="#fff" fill-rule="evenodd"/>
      </g>
    </g>
  </g>
</svg>
