<svg xmlns="http://www.w3.org/2000/svg" xmlns:xlink="http://www.w3.org/1999/xlink" width="24" height="24" viewBox="0 0 24 24">
  <defs>
    <clipPath id="clip-path">
      <rect id="Rectangle_1487" data-name="Rectangle 1487" width="24" height="24" transform="translate(1449 229)" fill="red"/>
    </clipPath>
  </defs>
  <g id="emc_srdf" transform="translate(-1449 -229)" clip-path="url(#clip-path)">
    <g id="Group_6648" data-name="Group 6648">
      <circle id="Ellipse_1503" data-name="Ellipse 1503" cx="12" cy="12" r="12" transform="translate(1449 229)" fill="#3593d1"/>
      <g id="layer1" transform="translate(1072.527 -326.402)">
        <path id="path3089" d="M378.553,575.815l4.564.015v1.35c.015.088-.1.073-.117-.014a2.451,2.451,0,0,0-.5-.793h-1.908v1.644h1.6a1.478,1.478,0,0,0,.426-.69c.044-.117.133-.044.132-.014-.029.528-.022,1.5-.014,1.893,0,.148-.074.191-.117.059a2.326,2.326,0,0,0-.411-.7h-1.615v1.879h2.069a3.172,3.172,0,0,0,.455-.924c.015-.073.132-.073.132-.015v1.556l-3.243-.044a11.747,11.747,0,0,0-1.453.059c-.1.01-.1-.142-.03-.176.719-.337.808-.147.808-1.174v-2.8c0-.763-.219-.733-.808-.954-.061-.023-.029-.132.03-.147" transform="translate(0 -10.319)" fill="#fff"/>
        <path id="path3091" d="M433.788,575.5l2.128.045,1.629,3.346,1.688-3.3h1.438c.117,0,.573-.044.646-.059s.088.132.029.161a4.946,4.946,0,0,0-.836.426l.425,4.08a2.668,2.668,0,0,0,.895.455c.089.015.061.12.015.117-.454-.029-2.507-.029-2.95,0-.044,0-.229-.069-.029-.132.235-.073.7-.235.807-.411l-.294-3.551-2.025,4.094h-.337l-1.849-4.006-.323,3.434c.132.264.749.382.822.411s.073.138.014.132a22.389,22.389,0,0,0-2.259.015c-.089.014-.248-.1-.045-.162.575-.182.764-.014.9-1.35l.353-2.935c.044-.484-.571-.543-.851-.646-.042-.015-.089-.162.014-.162" transform="translate(-49.555 -10.039)" fill="#fff"/>
        <path id="path3101" d="M525.57,576.051l.044-1.35a4.468,4.468,0,0,0-3.317.587,2.77,2.77,0,0,0,.03,4.418c1.1.719,3.111.22,3.258.147.058-.029.132-.073.132-.132s.015-1.262.015-1.321-.088-.044-.132.014-.269.919-.484,1.027a1.594,1.594,0,0,1-2.187-.807,3.036,3.036,0,0,1,.161-2.832,1.46,1.46,0,0,1,1.806-.646,1.409,1.409,0,0,1,.513.881c.044.161.147.132.161.014" transform="translate(-129.064 -9.235)" fill="#fff"/>
        <path id="path3103" d="M570.455,564.776c.616-.572,1.159-.367,1.349-.176s.317.609-.131,1.057c-.221.22-.676.572-.676.572h.7c.073-.015.2-.266.25-.338.03-.044.058-.029.058.03v.748c-.206-.015-1.423-.015-1.614-.015v-.249a5.533,5.533,0,0,0,.866-.9c.235-.294.2-1.076-.631-.616-.132.073-.22,0-.176-.117" transform="translate(-173.537)" fill="#fff"/>
      </g>
    </g>
  </g>
</svg>
