<svg xmlns="http://www.w3.org/2000/svg" xmlns:xlink="http://www.w3.org/1999/xlink" width="24" height="24" viewBox="0 0 24 24">
  <defs>
    <clipPath id="clip-path">
      <rect id="Rectangle_1480" data-name="Rectangle 1480" width="24" height="24" transform="translate(1449 229)" fill="red"/>
    </clipPath>
  </defs>
  <g id="hp3par" transform="translate(-1449 -229)" clip-path="url(#clip-path)">
    <g id="Group_6661" data-name="Group 6661" transform="translate(-1.87 -1.694)">
      <g id="Group_6754" data-name="Group 6754" transform="translate(1452 233)">
        <path id="Path_13733" data-name="Path 13733" d="M264.74,438.847c-1.194.576-2.113,1.028-3.038,1.464-2.221,1.049-4.425,2.137-6.681,3.1a2.831,2.831,0,0,1-2.013.118c-3.164-1.393-6.271-2.913-9.4-4.393a4.928,4.928,0,0,1-.5-.361,19.843,19.843,0,0,0,2.509-1.221c1.686-1.14,3.179-.932,4.969-.016,3.794,1.943,2.84,1.927,6.483.038,1.886-.978,3.466-1.147,5.223.043A22.254,22.254,0,0,0,264.74,438.847Z" transform="translate(-243.111 -424.018)" fill="#002a86"/>
        <path id="Path_13734" data-name="Path 13734" d="M244.214,375.917c1.473-.717,2.67-1.311,3.877-1.883,1.778-.843,3.579-1.64,5.34-2.519a2.766,2.766,0,0,1,2.724.011c2.653,1.335,5.359,2.563,8.043,3.838.284.135.554.3,1.023.553-1.294.631-2.461,1.13-3.553,1.759a1.925,1.925,0,0,1-2.127.025c-1.1-.609-2.268-1.093-3.4-1.642a2.734,2.734,0,0,0-2.594-.036c-1.237.624-2.535,1.127-3.777,1.743a1.751,1.751,0,0,1-1.737-.028C246.869,377.141,245.676,376.609,244.214,375.917Z" transform="translate(-244 -371.162)" fill="#60af30"/>
        <rect id="Rectangle_1565" data-name="Rectangle 1565" width="0.192" height="2.519" transform="translate(16.443 6.605)" fill="#60af30"/>
        <rect id="Rectangle_1566" data-name="Rectangle 1566" width="0.192" height="2.519" transform="translate(16.443 10.883)" fill="#002a86"/>
        <path id="Path_13735" data-name="Path 13735" d="M301.561,411.236l5.169-2.335,5.158,2.53-5.261,2.5Z" transform="translate(-290.196 -401.563)" fill="#00a1ec"/>
      </g>
    </g>
  </g>
</svg>
