<svg xmlns="http://www.w3.org/2000/svg" xmlns:xlink="http://www.w3.org/1999/xlink" width="24" height="24" viewBox="0 0 24 24">
  <defs>
    <clipPath id="clip-path">
      <rect id="Rectangle_1480" data-name="Rectangle 1480" width="24" height="24" transform="translate(1449 229)" fill="red"/>
    </clipPath>
  </defs>
  <g id="huawei" transform="translate(-1449 -229)" clip-path="url(#clip-path)">
    <g id="Group_6649" data-name="Group 6649">
      <g id="Huawei-Logo.wine" transform="translate(1450.422 232.804)">
        <path id="Path_13493" data-name="Path 13493" d="M9.319,12.787s.055-.055,0-.055a50.94,50.94,0,0,0-6.034-9.8S1.4,4.705,1.514,6.532A3.008,3.008,0,0,0,2.621,8.691a32.689,32.689,0,0,0,6.587,4.1h.111m-.664,1.384c0-.055-.111-.055-.111-.055L1.9,14.337c.72,1.273,1.937,2.27,3.211,1.993A16.52,16.52,0,0,0,8.6,14.282c.111-.111.055-.111.055-.111m.111-.609a.077.077,0,0,0,0-.111C5.831,11.458.185,8.469.185,8.469a4.064,4.064,0,0,0,.166,2.878,3.854,3.854,0,0,0,2.1,1.993,3.477,3.477,0,0,0,1.273.277H8.71a.054.054,0,0,0,.055-.055M9.208.055A6.524,6.524,0,0,0,8.156.277,2.988,2.988,0,0,0,6,2.325a3.96,3.96,0,0,0,0,2.1c.609,2.6,3.487,6.919,4.1,7.805l.055.055a.054.054,0,0,0,.055-.055c1-9.687-1-12.178-1-12.178m2.214,12.178a.193.193,0,0,0,.111-.055c.664-.941,3.487-5.2,4.1-7.805a4.126,4.126,0,0,0,0-2.1A3.13,3.13,0,0,0,13.415.221S12.917.111,12.363,0c0,0-1.993,2.546-1,12.123,0,.111.055.111.055.111m1.55,1.882a.054.054,0,0,0-.055.055v.111A16.52,16.52,0,0,0,16.4,16.33s1.716.609,3.211-1.993Zm8.469-5.7s-5.646,3.045-8.58,5.037a.193.193,0,0,0-.055.111.054.054,0,0,0,.055.055h5.093a3.337,3.337,0,0,0,1.162-.277,4.018,4.018,0,0,0,2.159-2.048,4.207,4.207,0,0,0,.166-2.878m-9.134,4.373a.077.077,0,0,0,.111,0c.941-.5,4.927-2.491,6.587-4.1a3.169,3.169,0,0,0,1.107-2.159c.111-1.882-1.771-3.6-1.771-3.6a47.461,47.461,0,0,0-6.034,9.742.077.077,0,0,0,0,.111" transform="translate(0)" fill="#cf0a2c"/>
      </g>
    </g>
  </g>
</svg>
