<svg xmlns="http://www.w3.org/2000/svg" xmlns:xlink="http://www.w3.org/1999/xlink" width="24" height="24" viewBox="0 0 24 24">
  <defs>
    <clipPath id="clip-path">
      <rect id="Rectangle_1489" data-name="Rectangle 1489" width="24" height="24" transform="translate(1449 229)" fill="red"/>
    </clipPath>
  </defs>
  <g id="vmware_hitachiur" transform="translate(-1449 -229)" clip-path="url(#clip-path)">
    <g id="hitachi" transform="translate(1447.421 153.167)">
      <path id="Path_13538" data-name="Path 13538" d="M45.643,93.33h2.741V82.213H45.643Zm-6.167-6.853H32.242V82.213H29.5V93.33h2.741v-4.8h7.233v4.8h2.741V82.213H39.476Zm22.8-4.264H50.173v2.36h4.683V93.33H57.6V84.574h4.681v-2.36Zm6.511,0h-2.7L60.948,93.33h2.74l1.027-2.208h5.446l1.026,2.208h2.74Zm-3.122,6.853,1.751-3.845,1.786,3.845Zm34.871-2.589H93.306V82.213H90.565V93.33h2.741v-4.8h7.233v4.8h2.741V82.213h-2.741Zm5.483-4.264V93.33h2.74V82.213ZM81.581,92.419c-2.475,0-3.579-2.1-3.579-4.687s1.067-4.414,3.579-4.414c2.208,0,3.049,1.118,3.579,2.843l3.122-.007c-.672-3.21-3.333-4.511-6.7-4.511-3.865,0-6.776,1.827-6.776,6.091,0,4.454,2.873,6.319,6.738,6.319,3.51,0,6.308-1.6,6.813-5.178H85.273c-.412,2.035-1.447,3.54-3.692,3.542ZM22.992,85.3a9.52,9.52,0,0,0-6.472-6.472,3.526,3.526,0,0,1-2.627-1.992,3.564,3.564,0,0,1-2.647,1.99,9.475,9.475,0,0,0-6.462,6.483,3.526,3.526,0,0,1-1.992,2.627A3.522,3.522,0,0,1,4.784,90.56a9.552,9.552,0,0,0,6.5,6.456,3.523,3.523,0,0,1,2.626,1.992,3.522,3.522,0,0,1,2.627-1.992,9.518,9.518,0,0,0,6.453-6.466,3.525,3.525,0,0,1,1.992-2.627A3.517,3.517,0,0,1,22.992,85.3Zm-3.609-3.073-4.653.008V80.054a7.89,7.89,0,0,1,4.654,2.171Zm-5.49,1.493a4.183,4.183,0,0,1,4.01,4.207,4.01,4.01,0,1,1-8.02,0A4.184,4.184,0,0,1,13.893,83.717Zm-.876-3.66v2.166H8.4a7.892,7.892,0,0,1,4.614-2.166ZM7.06,91.926a7.933,7.933,0,0,1,0-8.006l2.964.008a5.455,5.455,0,0,0-1.681,4,5.518,5.518,0,0,0,1.711,4h-3Zm6.833,3.913a8.47,8.47,0,0,1-5.5-2.224h11.02a7.966,7.966,0,0,1-5.52,2.223Zm6.841-3.913H17.727a5.518,5.518,0,0,0-.01-8h3.008a7.958,7.958,0,0,1,.008,8Z" fill-rule="evenodd"/>
      <path id="Path_13539" data-name="Path 13539" d="M21.171,96.614a1.593,1.593,0,1,0-1.593-1.593,1.593,1.593,0,0,0,1.593,1.593Z" transform="translate(-7.278 -7.195)" fill-rule="evenodd"/>
    </g>
  </g>
</svg>
