<svg xmlns="http://www.w3.org/2000/svg" xmlns:xlink="http://www.w3.org/1999/xlink" width="24" height="24" viewBox="0 0 24 24">
  <defs>
    <clipPath id="clip-path">
      <rect id="Rectangle_1480" data-name="Rectangle 1480" width="24" height="24" transform="translate(1449 229)" fill="red"/>
    </clipPath>
  </defs>
  <g id="vmware_snap_mirror" transform="translate(-1449 -229)" clip-path="url(#clip-path)">
    <g id="Group_6657" data-name="Group 6657">
      <circle id="Ellipse_1496" data-name="Ellipse 1496" cx="12" cy="12" r="12" transform="translate(1449 229)" fill="#0097d3"/>
      <g id="Group_6656" data-name="Group 6656" transform="translate(1485.529 268.288)">
        <path id="Path_13544" data-name="Path 13544" d="M-32.433-30.638a1.082,1.082,0,0,0-1.453-.543,1.062,1.062,0,0,0-.532,1.454l2.436,5.295c.383.83.787,1.265,1.545,1.265.81,0,1.163-.474,1.545-1.265,0,0,2.125-4.627,2.146-4.677a.307.307,0,0,1,.306-.2.338.338,0,0,1,.337.343v4.524a1.136,1.136,0,0,0,1.131,1.27,1.147,1.147,0,0,0,1.146-1.27v-3.7a1.138,1.138,0,0,1,1.209-1.178,1.11,1.11,0,0,1,1.162,1.178v3.7a1.137,1.137,0,0,0,1.131,1.27,1.149,1.149,0,0,0,1.148-1.27v-3.7a1.137,1.137,0,0,1,1.207-1.178,1.111,1.111,0,0,1,1.162,1.178v3.7a1.137,1.137,0,0,0,1.131,1.27,1.148,1.148,0,0,0,1.147-1.27v-4.215a2.641,2.641,0,0,0-2.744-2.633,3.522,3.522,0,0,0-2.434,1.035,2.691,2.691,0,0,0-2.347-1.034,3.865,3.865,0,0,0-2.3,1.034,2.75,2.75,0,0,0-2.05-1.034A2.52,2.52,0,0,0-28.881-29.6l-1.556,3.668Z" fill="#fff"/>
      </g>
    </g>
  </g>
</svg>
