<svg xmlns="http://www.w3.org/2000/svg" xmlns:xlink="http://www.w3.org/1999/xlink" width="24" height="24" viewBox="0 0 24 24">
  <defs>
    <clipPath id="clip-path">
      <rect id="Rectangle_1480" data-name="Rectangle 1480" width="24" height="24" transform="translate(1449 229)" fill="red"/>
    </clipPath>
  </defs>
  <g id="zfs" transform="translate(-1449 -229)" clip-path="url(#clip-path)">
    <g id="Group_6659" data-name="Group 6659">
      <g id="OpenZFS_logo" transform="translate(1918.66 -26.042)">
        <path id="Path_13547" data-name="Path 13547" d="M-451.534,260.014a.523.523,0,0,1-.744,0,.531.531,0,0,1,0-.748.523.523,0,0,1,.744,0,.529.529,0,0,1,0,.748m-.115,14.793a.914.914,0,0,1-1.3,0,.923.923,0,0,1,0-1.3.914.914,0,0,1,1.3,0,.923.923,0,0,1,0,1.3m-3.073-1.781a.923.923,0,0,1,0-1.3.914.914,0,0,1,1.3,0,.922.922,0,0,1,0,1.3.914.914,0,0,1-1.3,0m-.472,1.781a.914.914,0,0,1-1.3,0,.921.921,0,0,1,0-1.3.914.914,0,0,1,1.3,0,.923.923,0,0,1,0,1.3m-3.073-1.781a.923.923,0,0,1,0-1.3.914.914,0,0,1,1.3,0,.923.923,0,0,1,0,1.3.914.914,0,0,1-1.3,0m-.472,1.781a.914.914,0,0,1-1.3,0,.923.923,0,0,1,0-1.3.914.914,0,0,1,1.3,0,.922.922,0,0,1,0,1.3m-3.073-1.781a.923.923,0,0,1,0-1.3.914.914,0,0,1,1.3,0,.923.923,0,0,1,0,1.3.914.914,0,0,1-1.3,0m-.472,1.781a.914.914,0,0,1-1.3,0,.923.923,0,0,1,0-1.3.914.914,0,0,1,1.3,0,.923.923,0,0,1,0,1.3m-1.415-15.474a.524.524,0,0,1,.745,0,.531.531,0,0,1,0,.748.524.524,0,0,1-.745,0,.531.531,0,0,1,0-.748m1.144,1.148a.526.526,0,0,1,.745,0,.533.533,0,0,1,0,.749.526.526,0,0,1-.745,0,.532.532,0,0,1,0-.749m1.144,1.148a.524.524,0,0,1,.745,0,.53.53,0,0,1,0,.748.523.523,0,0,1-.744,0,.53.53,0,0,1,0-.748m0-2.3a.523.523,0,0,1,.744,0,.531.531,0,0,1,0,.748.524.524,0,0,1-.744,0,.53.53,0,0,1,0-.748m1.144,3.445a.525.525,0,0,1,.745,0,.531.531,0,0,1,0,.749.526.526,0,0,1-.745,0,.533.533,0,0,1,0-.749m0-2.3a.525.525,0,0,1,.744,0,.532.532,0,0,1,0,.749.526.526,0,0,1-.745,0,.532.532,0,0,1,0-.749m1.144-1.148a.524.524,0,0,1,.745,0,.531.531,0,0,1,0,.748.525.525,0,0,1-.745,0,.531.531,0,0,1,0-.748m1.144,3.445a.525.525,0,0,1,.745,0,.533.533,0,0,1,0,.749.526.526,0,0,1-.745,0,.532.532,0,0,1,0-.749m0-2.3a.526.526,0,0,1,.745,0,.532.532,0,0,1,0,.75.526.526,0,0,1-.745,0,.533.533,0,0,1,0-.75m1.144-1.148a.525.525,0,0,1,.745,0,.532.532,0,0,1,0,.748.525.525,0,0,1-.745,0,.531.531,0,0,1,0-.748m.353,10.608a.914.914,0,0,1,1.3,0,.923.923,0,0,1,0,1.3.914.914,0,0,1-1.3,0,.921.921,0,0,1,0-1.3m.393-5.294a.525.525,0,0,1-.745,0,.533.533,0,0,1,0-.749.526.526,0,0,1,.745,0,.531.531,0,0,1,0,.748m0-2.3a.525.525,0,0,1-.745,0,.531.531,0,0,1,0-.748.525.525,0,0,1,.745,0,.532.532,0,0,1,0,.748m-1.89,2.7a.526.526,0,0,1,.745,0,.532.532,0,0,1,0,.749.526.526,0,0,1-.745,0,.532.532,0,0,1,0-.749m-.279,3.114a.914.914,0,0,1,1.3,0,.923.923,0,0,1,0,1.3.914.914,0,0,1-1.3,0,.923.923,0,0,1,0-1.3m-.472,1.781a.923.923,0,0,1,0,1.3.914.914,0,0,1-1.3,0,.922.922,0,0,1,0-1.3.914.914,0,0,1,1.3,0m-.393-8.34a.524.524,0,0,1,.745,0,.532.532,0,0,1,0,.748.525.525,0,0,1-.745,0,.531.531,0,0,1,0-.748m0,2.3a.525.525,0,0,1,.745,0,.534.534,0,0,1,0,.75.525.525,0,0,1-.745,0,.531.531,0,0,1,0-.748m3.431-1.148a.525.525,0,0,1,.745,0,.532.532,0,0,1,0,.749.526.526,0,0,1-.745,0,.532.532,0,0,1,0-.749m0-2.3a.526.526,0,0,1,.745,0,.533.533,0,0,1,0,.749.526.526,0,0,1-.745,0,.533.533,0,0,1,0-.749m1.144,1.148a.525.525,0,0,1,.745,0,.531.531,0,0,1,0,.748.525.525,0,0,1-.745,0,.531.531,0,0,1,0-.748m0-2.3a.524.524,0,0,1,.745,0,.531.531,0,0,1,0,.748.524.524,0,0,1-.745,0,.531.531,0,0,1,0-.748m1.144,1.148a.526.526,0,0,1,.745,0,.533.533,0,0,1,0,.749.524.524,0,0,1-.745,0,.533.533,0,0,1,0-.749m5.7-1.742a1.516,1.516,0,0,0-1.512-1.518h-16.769a1.515,1.515,0,0,0-1.512,1.518v5.781h2.249l-2.249,5.285v5.781a1.515,1.515,0,0,0,1.512,1.518h16.769a1.515,1.515,0,0,0,1.512-1.518v-5.781h-2.249l2.249-5.285Z" transform="translate(0)" fill="#2a667f"/>
      </g>
    </g>
  </g>
</svg>
