<svg xmlns="http://www.w3.org/2000/svg" xmlns:xlink="http://www.w3.org/1999/xlink" width="18" height="18" viewBox="0 0 18 18">
  <defs>
    <clipPath id="clip-path">
      <rect id="Rectangle_1030" data-name="Rectangle 1030" width="18" height="18" transform="translate(165 303)" fill="#fff" stroke="#707070" stroke-width="1"/>
    </clipPath>
  </defs>
  <g id="authentication" transform="translate(-165 -303)" clip-path="url(#clip-path)">
    <g id="Group_5893" data-name="Group 5893" transform="translate(936.184 54.051)">
      <path id="Path_12418" data-name="Path 12418" d="M-754.1,251.3v9.5a1.049,1.049,0,0,1-1.049,1.049h-8.148l-4.659,3.747a.207.207,0,0,1-.336-.161v-3.586h-.93a1.049,1.049,0,0,1-1.049-1.049v-9.5a1.049,1.049,0,0,1,1.049-1.049h14.073A1.049,1.049,0,0,1-754.1,251.3Z" fill="none" stroke="#b73f83" stroke-linecap="round" stroke-miterlimit="10" stroke-width="1"/>
      <path id="Path_3289" data-name="Path 3289" d="M3252.2,4914.917l2.2,2.546,5.674-4.863" transform="translate(-4017.882 -4658.973)" fill="none" stroke="#b73f83" stroke-linecap="round" stroke-linejoin="round" stroke-width="1"/>
    </g>
  </g>
</svg>
