<svg xmlns="http://www.w3.org/2000/svg" width="62" height="62" viewBox="0 0 62 62">
  <g id="business-service" transform="translate(-1285.794 -275.415)">
    <circle id="Ellipse_136" data-name="Ellipse 136" cx="31" cy="31" r="31" transform="translate(1285.794 275.415)" fill="#f2654b"/>
    <g id="support" transform="translate(1302.087 291.709)">
      <path id="Path_12921" data-name="Path 12921" d="M29.41,5.41a1.167,1.167,0,0,0-1.979-.658L25.879,6.3a1.027,1.027,0,0,1-.727.3,1.01,1.01,0,0,1-.72-.3l-.954-.954a1.02,1.02,0,0,1-.3-.727,1.01,1.01,0,0,1,.3-.721l1.55-1.555A1.168,1.168,0,0,0,24.388.369l-.012,0a5.988,5.988,0,0,0-6.82,6.711,1.315,1.315,0,0,1-.373,1.1L.994,24.364A3.125,3.125,0,0,0,3.2,29.7h0a3.105,3.105,0,0,0,2.21-.915L21.6,12.6a1.315,1.315,0,0,1,1.1-.373A5.988,5.988,0,0,0,29.41,5.41Zm0,0" transform="translate(-0.076 -0.285)" fill="#fff"/>
      <path id="Path_12922" data-name="Path 12922" d="M2,7.216a1.21,1.21,0,0,0,.521.519L6.18,9.625,9.63,13.056,13.1,9.589,9.65,6.158,7.758,2.511a1.211,1.211,0,0,0-.522-.521L3.639.136A1.213,1.213,0,0,0,2.223.356L.359,2.213a1.209,1.209,0,0,0-.221,1.42Zm0,0" transform="translate(0 0)" fill="#fff"/>
      <path id="Path_12923" data-name="Path 12923" d="M268.7,263.441l-5.889,5.889,7.2,7.171a4.164,4.164,0,1,0,5.9-5.883Zm0,0" transform="translate(-247.71 -248.307)" fill="#fff"/>
    </g>
  </g>
</svg>
