<svg xmlns="http://www.w3.org/2000/svg" width="62" height="62" viewBox="0 0 62 62">
  <g id="business-function" transform="translate(-515 -275.248)">
    <circle id="Ellipse_136" data-name="Ellipse 136" cx="31" cy="31" r="31" transform="translate(515 275.248)" fill="#d94398"/>
    <g id="copy" transform="translate(529.639 290.498)">
      <path id="Path_12919" data-name="Path 12919" d="M4.917,8.812a6.209,6.209,0,0,1,6.2-6.2H23.041A3.583,3.583,0,0,0,19.6,0H4.59A3.593,3.593,0,0,0,1,3.59V23.826a3.593,3.593,0,0,0,3.59,3.59h.326Z" fill="#fff"/>
      <path id="Path_12920" data-name="Path 12920" d="M24.6,4H9.59A3.593,3.593,0,0,0,6,7.59v18.93a3.593,3.593,0,0,0,3.59,3.59H24.6a3.593,3.593,0,0,0,3.59-3.59V7.59A3.593,3.593,0,0,0,24.6,4ZM21.993,26.194H12.2a.979.979,0,0,1,0-1.958h9.792a.979.979,0,0,1,0,1.958Zm0-5.222H12.2a.979.979,0,1,1,0-1.958h9.792a.979.979,0,0,1,0,1.958Zm0-4.569H12.2a.979.979,0,1,1,0-1.958h9.792a.979.979,0,0,1,0,1.958Zm0-5.222H12.2a.979.979,0,1,1,0-1.958h9.792a.979.979,0,1,1,0,1.958Z" transform="translate(1.528 1.222)" fill="#fff"/>
    </g>
  </g>
</svg>
