<svg xmlns="http://www.w3.org/2000/svg" width="62" height="62" viewBox="0 0 62 62">
  <g id="service-availability" transform="translate(-908.092 -559.086)">
    <circle id="Ellipse_136" data-name="Ellipse 136" cx="31" cy="31" r="31" transform="translate(908.092 559.086)" fill="#a239af"/>
    <g id="settings" transform="translate(915.989 573.252)">
      <g id="Group_6285" data-name="Group 6285" transform="translate(6.71)">
        <path id="Path_12918" data-name="Path 12918" d="M38.927,20.523,35.833,18.1a12.184,12.184,0,0,0,.073-1.271,11.817,11.817,0,0,0-.073-1.271l3.1-2.421a1.517,1.517,0,0,0,.366-1.933L36.078,5.639a1.492,1.492,0,0,0-1.861-.669L30.565,6.436a12.519,12.519,0,0,0-2.193-1.272l-.556-3.873A1.49,1.49,0,0,0,26.33,0H19.877a1.486,1.486,0,0,0-1.484,1.279l-.557,3.887a12.906,12.906,0,0,0-2.188,1.272l-3.661-1.47a1.521,1.521,0,0,0-1.848.658L6.917,11.2a1.508,1.508,0,0,0,.365,1.943l3.095,2.42a11.1,11.1,0,0,0,0,2.54l-3.1,2.421a1.518,1.518,0,0,0-.365,1.933l3.218,5.568a1.489,1.489,0,0,0,1.861.669l3.651-1.466A12.63,12.63,0,0,0,17.836,28.5l.556,3.872a1.489,1.489,0,0,0,1.487,1.293h6.453a1.487,1.487,0,0,0,1.486-1.279l.557-3.886a12.966,12.966,0,0,0,2.188-1.274l3.661,1.47a1.507,1.507,0,0,0,.55.1,1.481,1.481,0,0,0,1.3-.76l3.232-5.6A1.514,1.514,0,0,0,38.927,20.523ZM23.1,22.445a5.611,5.611,0,1,1,5.611-5.611A5.617,5.617,0,0,1,23.1,22.445Z" transform="translate(-6.71)" fill="#fff"/>
      </g>
    </g>
  </g>
</svg>
