<svg xmlns="http://www.w3.org/2000/svg" xmlns:xlink="http://www.w3.org/1999/xlink" width="418" height="50" viewBox="0 0 418 50">
  <defs>
    <clipPath id="clip-path">
      <rect id="Rectangle_1700" data-name="Rectangle 1700" width="418" height="50" fill="#fff" stroke="#707070" stroke-width="1"/>
    </clipPath>
    <linearGradient id="linear-gradient" x1="-2.583" y1="1.81" x2="1.643" y2="2.02" gradientUnits="objectBoundingBox">
      <stop offset="0" stop-color="#a73493"/>
      <stop offset="1" stop-color="#f2654c"/>
    </linearGradient>
    <linearGradient id="linear-gradient-7" x1="0.726" y1="1" x2="1.087" y2="1.614" gradientUnits="objectBoundingBox">
      <stop offset="0" stop-color="#a13098"/>
      <stop offset="0.515" stop-color="#cd4d6e"/>
      <stop offset="1" stop-color="#fb6b43"/>
    </linearGradient>
    <linearGradient id="linear-gradient-8" x1="-0.065" y1="1.229" x2="1.087" y2="1.614" xlink:href="#linear-gradient-7"/>
    <linearGradient id="linear-gradient-9" x1="-0.63" y1="2.508" x2="-1.705" y2="2.014" xlink:href="#linear-gradient-7"/>
    <linearGradient id="linear-gradient-10" x1="2.078" y1="3.95" x2="-0.315" y2="0.097" xlink:href="#linear-gradient-7"/>
  </defs>
  <g id="cp_logo" clip-path="url(#clip-path)">
    <g id="Group_12465" data-name="Group 12465" transform="translate(3.157 3.717)">
      <g id="Logo" transform="translate(72.199 0.001)">
        <text id="TM" transform="translate(288.509 11)" fill="#333" font-size="12" font-family="Roboto-Medium, Roboto" font-weight="500"><tspan x="0" y="0">TM</tspan></text>
        <g id="Group_1903" data-name="Group 1903" transform="translate(0 7.855)">
          <g id="Group_1702" data-name="Group 1702">
            <path id="Path_6875" data-name="Path 6875" d="M153.265,53.724a9.455,9.455,0,0,1-4.2,5.152,14.01,14.01,0,0,1-12.539.956,12.734,12.734,0,0,1-4.225-2.868,13.372,13.372,0,0,1-2.765-4.328,14.678,14.678,0,0,1,0-10.725A13.354,13.354,0,0,1,132.3,37.6a12.775,12.775,0,0,1,4.225-2.848,14.177,14.177,0,0,1,12.284.784,9.255,9.255,0,0,1,4.176,4.74l-3.961,1.961a6.655,6.655,0,0,0-2.794-3.064,8.588,8.588,0,0,0-4.412-1.142,8.2,8.2,0,0,0-6.274,2.618,9.314,9.314,0,0,0-2.451,6.637,9.465,9.465,0,0,0,2.451,6.676,8.142,8.142,0,0,0,6.274,2.652,8.66,8.66,0,0,0,4.667-1.25,6.48,6.48,0,0,0,2.765-3.392Z" transform="translate(-128.521 -33.465)" fill="#333"/>
            <path id="Path_6876" data-name="Path 6876" d="M186.27,52.675a9.774,9.774,0,0,1,13.622,0,9.314,9.314,0,0,1,2.765,6.863,9.568,9.568,0,0,1-19.117.866q-.02-.433,0-.866a9.314,9.314,0,0,1,2.73-6.863Zm10.671,2.872a5.456,5.456,0,0,0-7.716-.01l-.01.01a5.53,5.53,0,0,0-1.534,3.985,5.419,5.419,0,0,0,9.274,3.956,5.8,5.8,0,0,0,0-7.931Z" transform="translate(-156.566 -41.726)" fill="#333"/>
            <path id="Path_6877" data-name="Path 6877" d="M239.543,49.91a7.1,7.1,0,0,1,5.515,2.245,8.638,8.638,0,0,1,2.044,6.069V68.748h-4.221V58.885a4.951,4.951,0,0,0-1.191-3.5,4.079,4.079,0,0,0-3.162-1.294,5.459,5.459,0,0,0-2.681.7,5.154,5.154,0,0,0-1.961,1.882V68.748H229.7V50.3h4.181v2.485a5.927,5.927,0,0,1,2.382-2.1,7.117,7.117,0,0,1,3.28-.775Z" transform="translate(-180.104 -41.725)" fill="#333"/>
            <path id="Path_6878" data-name="Path 6878" d="M281.4,60.1l.235,3.706a5.142,5.142,0,0,1-2.265.441,6.834,6.834,0,0,1-5.044-1.9,7.1,7.1,0,0,1-1.917-5.265V49.541H268.87v-4h3.539V40.58H276.6v4.961h4.848v4H276.6v7.353a3.25,3.25,0,0,0,3.061,3.429,2.706,2.706,0,0,0,.312,0A4.972,4.972,0,0,0,281.4,60.1Z" transform="translate(-200.073 -36.968)" fill="#333"/>
            <path id="Path_6879" data-name="Path 6879" d="M301.394,34a2.6,2.6,0,0,1,1.9-.789A2.638,2.638,0,0,1,305.2,34a2.56,2.56,0,0,1,.8,1.882,2.594,2.594,0,0,1-.789,1.917,2.622,2.622,0,0,1-1.912.794A2.686,2.686,0,0,1,301.4,34Zm-.221,7.784h4.186v18.45h-4.186Z" transform="translate(-216.255 -33.211)" fill="#333"/>
            <path id="Path_6880" data-name="Path 6880" d="M329.208,49.91a7.085,7.085,0,0,1,5.51,2.245,8.688,8.688,0,0,1,2.049,6.069V68.748h-4.225V58.885a4.971,4.971,0,0,0-1.186-3.5,4.093,4.093,0,0,0-3.162-1.294,5.479,5.479,0,0,0-2.686.7,5.136,5.136,0,0,0-1.961,1.882V68.748H319.36V50.3h4.186v2.485a5.91,5.91,0,0,1,2.377-2.1,7.119,7.119,0,0,1,3.285-.775Z" transform="translate(-225.814 -41.724)" fill="#333"/>
            <path id="Path_6881" data-name="Path 6881" d="M377.041,50.7h4.22V69.151h-4.22V66.665a5.754,5.754,0,0,1-2.353,2.083,7.237,7.237,0,0,1-3.289.774,7.069,7.069,0,0,1-5.515-2.24,8.718,8.718,0,0,1-2.024-6.093V50.7h4.181v9.843a4.958,4.958,0,0,0,1.2,3.5,4.153,4.153,0,0,0,3.186,1.289,5.3,5.3,0,0,0,2.647-.711,5.2,5.2,0,0,0,1.961-1.887Z" transform="translate(-248.501 -42.128)" fill="#333"/>
            <path id="Path_6882" data-name="Path 6882" d="M407.974,34a2.6,2.6,0,0,1,1.9-.789,2.638,2.638,0,0,1,1.912.789,2.56,2.56,0,0,1,.8,1.882,2.594,2.594,0,0,1-.8,1.917,2.622,2.622,0,0,1-1.912.794,2.686,2.686,0,0,1-1.9-4.593Zm-.221,7.784h4.186v18.45h-4.186Z" transform="translate(-270.586 -33.211)" fill="#333"/>
            <path id="Path_6883" data-name="Path 6883" d="M434.779,60.1l.24,3.706a5.155,5.155,0,0,1-2.27.441,6.825,6.825,0,0,1-5.029-1.9,7.1,7.1,0,0,1-1.92-5.257V49.541h-3.54v-4h3.54V40.58h4.171v4.961h4.848v4h-4.848v7.353a3.26,3.26,0,0,0,3.081,3.429,2.73,2.73,0,0,0,.3,0,4.939,4.939,0,0,0,1.427-.223Z" transform="translate(-278.274 -36.968)" fill="#333"/>
            <path id="Path_6884" data-name="Path 6884" d="M465.946,50.7h4.534L460.044,75.641H455.53l3.319-7.466L451.53,50.7h4.515l4.961,12.573Z" transform="translate(-293.197 -42.128)" fill="#333"/>
            <g id="Group_3002" data-name="Group 3002" transform="translate(188.465 0.578)">
              <path id="Path_6885" data-name="Path 6885" d="M523.093,34.4a8.412,8.412,0,0,1,6.083,2.3,7.691,7.691,0,0,1,2.407,5.789,7.739,7.739,0,0,1-2.407,5.843,8.4,8.4,0,0,1-6.059,2.309h-5.706v10.2H513V34.4Zm0,12.019a3.921,3.921,0,0,0,2.858-1.123,3.765,3.765,0,0,0,1.142-2.8,3.651,3.651,0,0,0-1.142-2.745,3.921,3.921,0,0,0-2.858-1.108h-5.681v7.779Z" transform="translate(-513 -34.395)" stroke="rgba(0,0,0,0)" stroke-miterlimit="10" stroke-width="1" fill="url(#linear-gradient)"/>
              <path id="Path_6886" data-name="Path 6886" d="M567.6,50.276h4.2V68.727h-4.2V66.241a5.43,5.43,0,0,1-2.387,2.054,7.9,7.9,0,0,1-3.5.8,8.24,8.24,0,0,1-6.294-2.784,10.352,10.352,0,0,1,0-13.662,8.226,8.226,0,0,1,6.294-2.784,7.848,7.848,0,0,1,3.485.809,5.483,5.483,0,0,1,2.4,2.064Zm-5.015,14.818a5.99,5.99,0,0,0,2.941-.77,5.28,5.28,0,0,0,2.073-1.961V56.688a5.206,5.206,0,0,0-2.064-2.015,5.881,5.881,0,0,0-2.941-.784,5.652,5.652,0,0,0-3.985,9.593,5.393,5.393,0,0,0,3.972,1.612Z" transform="translate(-533.312 -42.282)" stroke="rgba(0,0,0,0)" stroke-miterlimit="10" stroke-width="1" fill="url(#linear-gradient)"/>
              <path id="Path_6887" data-name="Path 6887" d="M609.4,60.1l.24,3.706a5.155,5.155,0,0,1-2.27.441,6.834,6.834,0,0,1-5.044-1.9,7.131,7.131,0,0,1-1.917-5.265V49.541H596.87v-4h3.539V40.58H604.6v4.961h4.848v4H604.6v7.353a3.26,3.26,0,0,0,3.081,3.429q.146.007.291,0A4.955,4.955,0,0,0,609.4,60.1Z" transform="translate(-555.758 -37.547)" stroke="rgba(0,0,0,0)" stroke-miterlimit="10" stroke-width="1" fill="url(#linear-gradient)"/>
              <path id="Path_6888" data-name="Path 6888" d="M638.682,49.908a6.525,6.525,0,0,1,2.118.294l-.255,3.961a6.722,6.722,0,0,0-2.2-.368,4.336,4.336,0,0,0-2.412.858,5.728,5.728,0,0,0-1.961,2.314V68.731H629.79V50.295h4.186v2.524a5.3,5.3,0,0,1,2.049-2.1A5.213,5.213,0,0,1,638.682,49.908Z" transform="translate(-572.541 -42.301)" stroke="rgba(0,0,0,0)" stroke-miterlimit="10" stroke-width="1" fill="url(#linear-gradient)"/>
              <path id="Path_6889" data-name="Path 6889" d="M656.29,52.675a9.774,9.774,0,0,1,13.622,0,9.314,9.314,0,0,1,2.765,6.863,9.568,9.568,0,0,1-19.117.866q-.02-.433,0-.866a9.314,9.314,0,0,1,2.73-6.863Zm10.671,2.872a5.456,5.456,0,0,0-7.715-.01l-.01.01a5.53,5.53,0,0,0-1.544,3.985,5.414,5.414,0,0,0,9.269,3.956,5.8,5.8,0,0,0,0-7.931Z" transform="translate(-584.654 -42.304)" stroke="rgba(0,0,0,0)" stroke-miterlimit="10" stroke-width="1" fill="url(#linear-gradient)"/>
              <path id="Path_6890" data-name="Path 6890" d="M703.906,34.41V60.846H699.72V34.41Z" transform="translate(-608.193 -34.401)" stroke="rgba(0,0,0,0)" stroke-miterlimit="10" stroke-width="1" fill="url(#linear-gradient)"/>
            </g>
          </g>
        </g>
      </g>
      <g id="Layer_2" data-name="Layer 2" transform="translate(0 0)">
        <g id="Layer_1" data-name="Layer 1">
          <path id="Path_9222" data-name="Path 9222" d="M38.378,47.16V60.222A14.454,14.454,0,0,1,18,47.628a9.993,9.993,0,0,0,.15,1.317A10.189,10.189,0,0,0,38.367,47.16Z" transform="translate(-11.59 -30.544)" fill="url(#linear-gradient-7)"/>
          <path id="Path_9223" data-name="Path 9223" d="M120.268,21.018A16.627,16.627,0,0,1,103.655,37.63h-.646a10.681,10.681,0,0,1-1.124-.082,16.459,16.459,0,0,1-4.343-1.071,3.212,3.212,0,0,1-1.859-4.022.439.439,0,0,1,.054-.153c.021-.05.071-.161.107-.236A3.212,3.212,0,0,1,99.9,30.5a10.185,10.185,0,1,0-6.23-11.51A14.539,14.539,0,0,1,114.308,8.284h0a16.914,16.914,0,0,1,1.742,1.688c.25.286.493.578.714.878a16.52,16.52,0,0,1,3.5,10.167Z" transform="translate(-60.254 -4.405)" fill="url(#linear-gradient-8)"/>
          <path id="Path_9224" data-name="Path 9224" d="M102.365,3.882A14.539,14.539,0,0,0,81.727,14.589c-.057.271-.1.55-.132.828a10.207,10.207,0,0,0-.071,1.2v21.93a3.212,3.212,0,1,1-6.424,0V16.616A16.6,16.6,0,0,1,102.365,3.882Z" transform="translate(-48.311 -0.003)" fill="url(#linear-gradient-9)"/>
          <path id="Path_9225" data-name="Path 9225" d="M26.815,30.283v.05a16.488,16.488,0,0,1-7.759,3.319c-.425.064-.853.111-1.288.139-.378.025-.757.043-1.142.043a16.613,16.613,0,1,1,4.532-32.6,3.212,3.212,0,0,1,2.277,3.7,1.035,1.035,0,0,1-.061.268.1.1,0,0,1-.025.079,3.212,3.212,0,0,1-3.926,2.141,10.25,10.25,0,0,0-2.78-.385A10.142,10.142,0,0,0,12.211,8.05,10.35,10.35,0,0,0,10.48,9.12a10.175,10.175,0,0,0-4.043,7.83V17.7A14.454,14.454,0,0,0,26.815,30.283Z" transform="translate(-0.027 -0.606)" fill="url(#linear-gradient-10)"/>
        </g>
      </g>
    </g>
  </g>
</svg>
