<svg xmlns="http://www.w3.org/2000/svg" xmlns:xlink="http://www.w3.org/1999/xlink" width="22" height="22" viewBox="0 0 22 22">
  <defs>
    <clipPath id="clip-path">
      <rect id="Rectangle_3530" data-name="Rectangle 3530" width="22" height="22" transform="translate(474 229)" fill="#fff" stroke="#707070" stroke-width="1"/>
    </clipPath>
  </defs>
  <g id="datalag_status" transform="translate(-474 -229)" clip-path="url(#clip-path)">
    <g id="Group_10006" data-name="Group 10006" transform="translate(467.298 221.875)">
      <path id="Path_20363" data-name="Path 20363" d="M17.209,17.857c4.146,0,7.507-4.357,7.507-9.732H9.7C9.7,13.5,13.065,17.857,17.209,17.857Z" fill="none" stroke="#515151" stroke-linecap="round" stroke-miterlimit="10" stroke-width="0.8"/>
      <path id="Path_20364" data-name="Path 20364" d="M14.959,13.075A3.168,3.168,0,0,0,18.22,10.01H11.7A3.168,3.168,0,0,0,14.959,13.075Z" transform="translate(2.25 2.127)" fill="#515151"/>
      <path id="Path_20365" data-name="Path 20365" d="M17.209,12.949c-4.144,0-7.505,4.357-7.505,9.732H24.717C24.717,17.306,21.356,12.949,17.209,12.949Z" transform="translate(0 5.444)" fill="none" stroke="#515151" stroke-linecap="round" stroke-miterlimit="10" stroke-width="0.8"/>
      <path id="Path_20366" data-name="Path 20366" d="M14.97,14.239a3.3,3.3,0,0,1,3.4,3.195h-6.8A3.3,3.3,0,0,1,14.97,14.239Z" transform="translate(2.107 6.9)" fill="#515151"/>
    </g>
  </g>
</svg>
