<svg xmlns="http://www.w3.org/2000/svg" xmlns:xlink="http://www.w3.org/1999/xlink" width="22" height="22" viewBox="0 0 22 22">
  <defs>
    <clipPath id="clip-path">
      <rect id="Rectangle_3542" data-name="Rectangle 3542" width="22" height="22" transform="translate(474 229)" fill="#fff" stroke="#707070" stroke-width="1"/>
    </clipPath>
  </defs>
  <g id="dr_ready" transform="translate(-474 -229)" clip-path="url(#clip-path)">
    <g id="Group_10014" data-name="Group 10014" transform="translate(121.961 130.755)">
      <g id="Group_10015" data-name="Group 10015" transform="translate(354.039 99.245)">
        <g id="Group_10014-2" data-name="Group 10014" transform="translate(0 0)">
          <path id="Path_20382" data-name="Path 20382" d="M359.78,119.408h-4.458a1.283,1.283,0,0,1-1.283-1.283V101.492a1.283,1.283,0,0,1,1.283-1.283h9.061l-.008,4.078a.587.587,0,0,0,.58.588l4.432.061v3.375" transform="translate(-354.039 -99.889)" fill="none" stroke="#515151" stroke-miterlimit="10" stroke-width="1"/>
          <g id="Path_20383" data-name="Path 20383" transform="translate(-373.817 -99.245)" fill="none" stroke-miterlimit="10">
            <path d="M389.5,104.85l-4.769-.073a.991.991,0,0,1-1.09-1.11l-.018-4.423h1.4a1.546,1.546,0,0,1,1,.466l1.478,1.366,1.475,1.471a1.579,1.579,0,0,1,.523,1.055Z" stroke="none"/>
            <path d="M 388.50439453125 103.8347625732422 L 388.50439453125 103.6040420532227 C 388.502685546875 103.5648956298828 388.4428100585938 103.4231109619141 388.275634765625 103.2565307617188 L 386.8143615722656 101.7988586425781 L 385.3509216308594 100.4463729858398 C 385.1730651855469 100.2822189331055 385.0511474609375 100.2457733154297 385.0285034179688 100.245002746582 L 384.6311340332031 100.245002746582 L 384.645263671875 103.6675415039062 C 384.645263671875 103.7107772827148 384.6477966308594 103.7438812255859 384.6509704589844 103.7683181762695 C 384.6762084960938 103.7724151611328 384.7107849121094 103.7761611938477 384.7564086914062 103.7774429321289 L 388.50439453125 103.8347625732422 M 389.50439453125 104.8501739501953 L 384.7350463867188 104.777229309082 C 384.0056457519531 104.7589950561523 383.645263671875 104.3770523071289 383.645263671875 103.6675415039062 L 383.6270141601562 99.24500274658203 L 385.0285034179688 99.24500274658203 C 385.4017944335938 99.24500274658203 385.7535705566406 99.45719909667969 386.0291137695312 99.71147918701172 L 387.5071411132812 101.0774688720703 L 388.9818725585938 102.5485534667969 C 389.2620239257812 102.8277359008789 389.50439453125 103.2060241699219 389.50439453125 103.6035385131836 L 389.50439453125 104.8501739501953 Z" stroke="none" fill="#515151"/>
          </g>
          <path id="Path_20384" data-name="Path 20384" d="M359.669,121.36H368.3" transform="translate(-357.802 -114.028)" fill="none" stroke="#515151" stroke-linecap="round" stroke-miterlimit="10" stroke-width="1"/>
          <path id="Path_20385" data-name="Path 20385" d="M359.474,128.478h5.833" transform="translate(-357.672 -118.786)" fill="none" stroke="#515151" stroke-linecap="round" stroke-miterlimit="10" stroke-width="1"/>
        </g>
      </g>
      <path id="Path_20386" data-name="Path 20386" d="M382.674,135.173h4.6a3.164,3.164,0,0,1,3.155,3.155v.156a3.164,3.164,0,0,1-3.155,3.155" transform="translate(-19.141 -24.016)" fill="none" stroke="#515151" stroke-linecap="round" stroke-linejoin="round" stroke-width="1"/>
      <path id="Path_20387" data-name="Path 20387" d="M383.132,133.572,381.556,132l1.576-1.576" transform="translate(-18.394 -20.839)" fill="none" stroke="#515151" stroke-linecap="round" stroke-linejoin="round" stroke-width="1"/>
      <path id="Path_20388" data-name="Path 20388" d="M375.893,141.779h-4.6a3.164,3.164,0,0,1-3.155-3.155v-.156a3.164,3.164,0,0,1,3.155-3.155" transform="translate(-9.424 -24.11)" fill="none" stroke="#515151" stroke-linecap="round" stroke-linejoin="round" stroke-width="1"/>
      <path id="Path_20389" data-name="Path 20389" d="M387.9,150.062l1.576,1.576-1.576,1.576" transform="translate(-22.631 -33.969)" fill="none" stroke="#515151" stroke-linecap="round" stroke-linejoin="round" stroke-width="1"/>
    </g>
  </g>
</svg>
