<svg xmlns="http://www.w3.org/2000/svg" xmlns:xlink="http://www.w3.org/1999/xlink" width="22" height="22" viewBox="0 0 22 22">
  <defs>
    <clipPath id="clip-path">
      <rect id="Rectangle_3531" data-name="Rectangle 3531" width="22" height="22" transform="translate(474.001 229)" fill="#fff" stroke="#707070" stroke-width="1"/>
    </clipPath>
  </defs>
  <g id="dri_drill" transform="translate(-474 -229)" clip-path="url(#clip-path)">
    <g id="Group_10016" data-name="Group 10016" transform="translate(474.5 229)">
      <g id="Path_20390" data-name="Path 20390" fill="none" stroke-miterlimit="10">
        <path d="M15.41,21H2.769A1.269,1.269,0,0,1,1.5,19.731V2.269A1.269,1.269,0,0,1,2.769,1h8.962l-.007,4.033a.581.581,0,0,0,.573.582l4.383.06V19.731A1.269,1.269,0,0,1,15.41,21Z" stroke="none"/>
        <path d="M 15.41015243530273 20 C 15.55860233306885 20 15.67938232421875 19.87922096252441 15.67938232421875 19.73077011108398 L 15.67938232421875 6.661419868469238 L 12.28276252746582 6.614680767059326 C 11.42126178741455 6.603011131286621 10.7217321395874 5.892570972442627 10.72338199615479 5.03109073638916 L 10.72893619537354 2.000000953674316 L 2.769232034683228 2.000000953674316 C 2.620782136917114 2.000000953674316 2.500002145767212 2.120780944824219 2.500002145767212 2.269230842590332 L 2.500002145767212 19.73077011108398 C 2.500002145767212 19.87922096252441 2.620782136917114 20 2.769232034683228 20 L 15.41015243530273 20 M 15.41015243530273 21 L 2.769232034683228 21 C 2.068312168121338 21 1.500002145767212 20.43169021606445 1.500002145767212 19.73077011108398 L 1.500002145767212 2.269230842590332 C 1.500002145767212 1.568310976028442 2.068312168121338 1.000000953674316 2.769232034683228 1.000000953674316 L 11.73077201843262 1.000000953674316 L 11.72338199615479 5.032920837402344 C 11.72277164459229 5.350770950317383 11.97815227508545 5.610460758209229 12.29631233215332 5.614770889282227 L 16.67938232421875 5.6750807762146 L 16.67938232421875 19.73077011108398 C 16.67938232421875 20.43169021606445 16.11138153076172 21 15.41015243530273 21 Z" stroke="none" fill="#515151"/>
      </g>
      <g id="Path_20391" data-name="Path 20391" transform="translate(-22.475)" fill="none" stroke-miterlimit="10">
        <path d="M39.154,6.365H34.289a1.025,1.025,0,0,1-1.039-1.01V1h1.343a1.573,1.573,0,0,1,1.045.395l1.533,1.363L38.7,4.226a1.463,1.463,0,0,1,.454,1.056Z" stroke="none"/>
        <path d="M 38.15428924560547 5.365237236022949 L 38.15428924560547 5.281937599182129 C 38.15428924560547 5.156907558441162 38.10229873657227 5.038167476654053 38.00766754150391 4.947347640991211 L 36.49235916137695 3.492257118225098 L 34.97381973266602 2.141727447509766 C 34.87108993530273 2.05032753944397 34.73590850830078 1.99999737739563 34.59317779541016 1.99999737739563 L 34.25 1.99999737739563 L 34.25 5.350959777832031 C 34.25394439697266 5.355429649353027 34.26531219482422 5.365237236022949 34.28894805908203 5.365237236022949 L 38.15428924560547 5.365237236022949 M 39.15428924560547 6.365237236022949 L 34.28894805908203 6.365237236022949 C 33.71508026123047 6.365237236022949 33.25 5.912857532501221 33.25 5.355377197265625 L 33.25 0.9999974370002747 L 34.59317779541016 0.9999974370002747 C 34.9803581237793 0.9999974370002747 35.35308837890625 1.140677452087402 35.63850784301758 1.394607424736023 L 37.17108917236328 2.757617473602295 L 38.70029830932617 4.226057529449463 C 38.99075698852539 4.504797458648682 39.15428924560547 4.885047435760498 39.15428924560547 5.281937599182129 L 39.15428924560547 6.365237236022949 Z" stroke="none" fill="#515151"/>
      </g>
      <path id="Path_20392" data-name="Path 20392" d="M7.5,23.54h8.538" transform="translate(-4.154 -15.605)" fill="none" stroke="#515151" stroke-linecap="round" stroke-linejoin="round" stroke-width="1"/>
      <path id="Path_20393" data-name="Path 20393" d="M7.292,31.125h5.769" transform="translate(-4.01 -20.856)" fill="none" stroke="#515151" stroke-linecap="round" stroke-linejoin="round" stroke-width="1"/>
      <path id="Path_20394" data-name="Path 20394" d="M7.542,39.125h5.769" transform="translate(-4.183 -26.394)" fill="none" stroke="#515151" stroke-linecap="round" stroke-linejoin="round" stroke-width="1"/>
      <path id="Path_20395" data-name="Path 20395" d="M7.542,46.875h5.769" transform="translate(-4.183 -31.76)" fill="none" stroke="#515151" stroke-linecap="round" stroke-linejoin="round" stroke-width="1"/>
      <g id="Group_10016-2" data-name="Group 10016" transform="translate(13.067 6.365)">
        <path id="Path_20396" data-name="Path 20396" d="M41.962,27.6a.888.888,0,0,1-.218.227l-2.074,1.5a.368.368,0,0,1-.569-.379l.591-2.5a.845.845,0,0,1,.119-.273l4.768-7.157a1.258,1.258,0,0,1,1.737-.381h0a1.37,1.37,0,0,1,.346,1.906Z" transform="translate(-39.093 -18.437)" fill="#fff" stroke="#515151" stroke-linecap="round" stroke-linejoin="round" stroke-width="1"/>
        <line id="Line_1021" data-name="Line 1021" x1="2.146" y1="1.43" transform="translate(1.604 6.41)" fill="#c4f5dc" stroke="#515151" stroke-linecap="round" stroke-linejoin="round" stroke-width="1"/>
        <line id="Line_1022" data-name="Line 1022" x1="2.146" y1="1.43" transform="translate(4.812 1.594)" fill="#c4f5dc" stroke="#515151" stroke-linecap="round" stroke-linejoin="round" stroke-width="1"/>
      </g>
      <path id="Path_20397" data-name="Path 20397" d="M26.292,59.192h5.769" transform="translate(-17.164 -40.287)" fill="none" stroke="#515151" stroke-linecap="round" stroke-linejoin="round" stroke-width="1"/>
    </g>
  </g>
</svg>
