<svg xmlns="http://www.w3.org/2000/svg" xmlns:xlink="http://www.w3.org/1999/xlink" width="22" height="22" viewBox="0 0 22 22">
  <defs>
    <clipPath id="clip-path">
      <rect id="Rectangle_3534" data-name="Rectangle 3534" width="22" height="22" transform="translate(474 229)" fill="#fff" stroke="#707070" stroke-width="1"/>
    </clipPath>
  </defs>
  <g id="infra_object_config" transform="translate(-474 -229)" clip-path="url(#clip-path)">
    <g id="Group_9998" data-name="Group 9998" transform="translate(8.104 574.066)">
      <path id="Path_20351" data-name="Path 20351" d="M.037,7.836V5.591" transform="translate(477.144 -333.897)" fill="none" stroke="#515151" stroke-linecap="round" stroke-width="1"/>
      <path id="Path_20352" data-name="Path 20352" d="M485.4-337.8h-1.391a6.03,6.03,0,0,0-.8-1.948l.974-.989a.4.4,0,0,0,0-.587l-1.267-1.283a.45.45,0,0,0-.6,0l-.989.989a5.81,5.81,0,0,0-1.932-.8v-1.391a.423.423,0,0,0-.433-.433h-1.793a.432.432,0,0,0-.433.433v1.391a6.4,6.4,0,0,0-1.932.8l-.974-.989a.47.47,0,0,0-.618,0l-1.268,1.283a.42.42,0,0,0,0,.6l.989.974a6.033,6.033,0,0,0-.8,1.948h-1.391a.416.416,0,0,0-.417.417v1.809a.416.416,0,0,0,.417.417h1.407a5.73,5.73,0,0,0,.788,1.932l-.974.989a.42.42,0,0,0,0,.6l1.252,1.283a.47.47,0,0,0,.618,0l.989-1a6.5,6.5,0,0,0,1.932.819v1.376a.419.419,0,0,0,.417.433h1.793a.423.423,0,0,0,.433-.433v-1.391a5.812,5.812,0,0,0,1.932-.8l1,.989a.43.43,0,0,0,.587,0l1.267-1.268a.42.42,0,0,0,0-.6l-.974-.989a6.032,6.032,0,0,0,.8-1.948H485.4a.416.416,0,0,0,.433-.4v-1.809A.429.429,0,0,0,485.4-337.8Zm-7.343,3.555a2.253,2.253,0,0,1-2.241-2.241,2.243,2.243,0,0,1,2.241-2.241,2.237,2.237,0,0,1,2.257,2.241A2.246,2.246,0,0,1,478.062-334.241Z" transform="translate(-0.929 0.175)" fill="none" stroke="#515151" stroke-linecap="round" stroke-linejoin="round" stroke-width="1"/>
      <line id="Line_1012" data-name="Line 1012" x2="13.039" transform="translate(470.365 -325.837)" fill="none" stroke="#515151" stroke-linecap="round" stroke-miterlimit="10" stroke-width="1"/>
      <ellipse id="Ellipse_2108" data-name="Ellipse 2108" cx="1.518" cy="1.518" rx="1.518" ry="1.518" transform="translate(483.862 -327.422)" fill="none" stroke="#515151" stroke-linecap="round" stroke-miterlimit="10" stroke-width="1"/>
      <ellipse id="Ellipse_2109" data-name="Ellipse 2109" cx="1.518" cy="1.518" rx="1.518" ry="1.518" transform="translate(466.897 -327.422)" fill="none" stroke="#515151" stroke-linecap="round" stroke-miterlimit="10" stroke-width="1"/>
    </g>
  </g>
</svg>
