<svg xmlns="http://www.w3.org/2000/svg" xmlns:xlink="http://www.w3.org/1999/xlink" width="245" height="50" viewBox="0 0 245 50">
  <defs>
    <clipPath id="clip-path">
      <rect id="Rectangle_1701" data-name="Rectangle 1701" width="245" height="50" fill="#fff" stroke="#707070" stroke-width="1"/>
    </clipPath>
  </defs>
  <g id="pts_logo" clip-path="url(#clip-path)">
    <g id="Group_12464" data-name="Group 12464" transform="translate(7.476 3.082)">
      <path id="Path_20056" data-name="Path 20056" d="M60.688,233.6H46.1v18.228h2.313v-8.05H60.657a2.718,2.718,0,0,0,2.714-2.714v-4.75a2.692,2.692,0,0,0-2.683-2.714Zm.37,7.464a.408.408,0,0,1-.4.4H48.444v-5.521H60.688a.408.408,0,0,1,.4.4v4.719Z" transform="translate(-46.1 -229.452)" fill="#252524"/>
      <path id="Path_20057" data-name="Path 20057" d="M278.288,233.6H263.7v18.228h2.313v-8.05h12.275A2.718,2.718,0,0,0,281,241.064v-4.75A2.759,2.759,0,0,0,278.288,233.6Zm.37,7.464a.408.408,0,0,1-.4.4H266.013v-5.521h12.275a.408.408,0,0,1,.4.4v4.719Z" transform="translate(-196.588 -229.452)" fill="#252524"/>
      <path id="Path_20058" data-name="Path 20058" d="M208.64,236.245v4.75a2.718,2.718,0,0,1-2.714,2.714h-4.935l6.785,8.05h-3.053L196,241.365h9.931a.408.408,0,0,0,.4-.4v-4.75a.408.408,0,0,0-.4-.4H194.113v15.914H191.8V233.5h14.156A2.78,2.78,0,0,1,208.64,236.245Z" transform="translate(-146.863 -229.383)" fill="#252524"/>
      <g id="Group_12457" data-name="Group 12457" transform="translate(193.503 4.148)">
        <rect id="Rectangle_1688" data-name="Rectangle 1688" width="2.313" height="17.086" transform="translate(9.098 1.172)" fill="#252524"/>
        <rect id="Rectangle_1689" data-name="Rectangle 1689" width="20.51" height="2.313" fill="#f9c117"/>
      </g>
      <path id="Path_20059" data-name="Path 20059" d="M509.045,251.829H495.814a2.68,2.68,0,0,1-2.714-2.622V233.2h2.313v16.007a.38.38,0,0,0,.4.308h13.231a.38.38,0,0,0,.4-.308V233.2h2.313v16.007a2.7,2.7,0,0,1-2.712,2.622Z" transform="translate(-355.236 -229.175)" fill="#252524"/>
      <path id="Path_20060" data-name="Path 20060" d="M586.745,251.829H573.514a2.68,2.68,0,0,1-2.714-2.622V233.2h2.313v16.007a.38.38,0,0,0,.4.308h13.231a.38.38,0,0,0,.4-.308V233.2h2.313v16.007a2.66,2.66,0,0,1-2.712,2.622Z" transform="translate(-408.972 -229.175)" fill="#252524"/>
      <rect id="Rectangle_1690" data-name="Rectangle 1690" width="2.313" height="18.567" transform="translate(185.823 3.84)" fill="#252524"/>
      <rect id="Rectangle_1691" data-name="Rectangle 1691" width="2.313" height="18.228" transform="translate(219.348 4.179)" fill="#252524"/>
      <g id="Group_12458" data-name="Group 12458" transform="translate(22.638 4.148)">
        <rect id="Rectangle_1692" data-name="Rectangle 1692" width="16.932" height="2.313" fill="#f9c117"/>
        <rect id="Rectangle_1693" data-name="Rectangle 1693" width="14.187" height="2.313" transform="translate(0 7.865)" fill="#252524"/>
        <rect id="Rectangle_1694" data-name="Rectangle 1694" width="16.932" height="2.313" transform="translate(0 16.069)" fill="#252524"/>
      </g>
      <g id="Group_12459" data-name="Group 12459" transform="translate(89.719 4.148)">
        <rect id="Rectangle_1695" data-name="Rectangle 1695" width="14.187" height="2.313" transform="translate(0 7.865)" fill="#252524"/>
        <rect id="Rectangle_1696" data-name="Rectangle 1696" width="16.932" height="2.313" transform="translate(0 16.069)" fill="#252524"/>
        <rect id="Rectangle_1697" data-name="Rectangle 1697" width="16.932" height="2.313" fill="#252524"/>
      </g>
      <g id="Group_12460" data-name="Group 12460" transform="translate(111.987 4.148)">
        <rect id="Rectangle_1698" data-name="Rectangle 1698" width="2.313" height="17.457" transform="translate(9.098 1.172)" fill="#252524"/>
        <rect id="Rectangle_1699" data-name="Rectangle 1699" width="20.51" height="2.313" fill="#252524"/>
      </g>
      <g id="Group_12462" data-name="Group 12462" transform="translate(101.748 32.181)">
        <g id="Group_12461" data-name="Group 12461">
          <path id="Path_20061" data-name="Path 20061" d="M383.957,334.12h-1.141l-.864-2.128h-3.917l-.894,2.128H376l3.516-8.42h.864Zm-5.521-3.053h3.146l-1.573-3.794Z" transform="translate(-376 -325.327)" fill="#252524"/>
          <path id="Path_20062" data-name="Path 20062" d="M409.95,340.137h-.925v-.864a1.807,1.807,0,0,1-1.727.956,2.067,2.067,0,0,1-1.542-.617,2.468,2.468,0,0,1-.555-1.665V334.4h.956v3.423c0,.956.493,1.542,1.357,1.542a1.46,1.46,0,0,0,1.45-1.573V334.43h.956v5.706Z" transform="translate(-396.194 -331.344)" fill="#252524"/>
          <path id="Path_20063" data-name="Path 20063" d="M427.909,334.847v.864a6.481,6.481,0,0,1-.771.062,1.589,1.589,0,0,1-1.758-1.789v-3.177H424.3v-.833h1.079V328h.987v1.974h1.542v.833h-1.542l-.031,2.992q0,1.11,1.018,1.11C427.477,334.909,427.662,334.878,427.909,334.847Z" transform="translate(-409.403 -326.918)" fill="#252524"/>
          <path id="Path_20064" data-name="Path 20064" d="M441.661,334a2.86,2.86,0,0,1,2.1.833,3.215,3.215,0,0,1,0,4.318,2.86,2.86,0,0,1-2.1.833,2.982,2.982,0,0,1-2.128-.833,3.215,3.215,0,0,1,0-4.318,2.982,2.982,0,0,1,2.128-.833Zm0,.864a1.818,1.818,0,0,0-1.419.586,2.1,2.1,0,0,0-.555,1.542,2.227,2.227,0,0,0,.555,1.573,1.928,1.928,0,0,0,1.419.586,1.818,1.818,0,0,0,1.419-.586,2.227,2.227,0,0,0,.555-1.573,2.1,2.1,0,0,0-.555-1.542,1.818,1.818,0,0,0-1.419-.586Z" transform="translate(-419.362 -331.067)" fill="#252524"/>
          <path id="Path_20065" data-name="Path 20065" d="M471.119,334.71a2.368,2.368,0,0,1,.586,1.7v3.516h-.956v-3.362a1.4,1.4,0,0,0-1.388-1.573,1.455,1.455,0,0,0-1.45,1.388v3.547h-.987v-3.362a1.4,1.4,0,0,0-2.437-1.11,1.637,1.637,0,0,0-.432,1.141v3.331H463.1v-5.737h.925v.864a1.807,1.807,0,0,1,1.758-.956,2.032,2.032,0,0,1,1.881,1.141,2.1,2.1,0,0,1,1.912-1.141A1.9,1.9,0,0,1,471.119,334.71Z" transform="translate(-436.237 -331.13)" fill="#252524"/>
          <path id="Path_20066" data-name="Path 20066" d="M500.565,336.352v3.639h-.987v-.679a2.134,2.134,0,0,1-1.7.8c-1.141,0-1.881-.617-1.881-1.635,0-1.079.709-1.635,2.1-1.7l1.48-.092v-.278q0-1.388-1.2-1.388a1.166,1.166,0,0,0-1.265,1.2l-.987-.031a1.923,1.923,0,0,1,.617-1.388,2.211,2.211,0,0,1,1.6-.617,1.944,1.944,0,0,1,2.223,2.169Zm-.987,1.079-1.388.093c-.833.062-1.265.37-1.265.925s.339.833,1.049.833a1.415,1.415,0,0,0,1.573-1.573v-.278Z" transform="translate(-458.99 -331.198)" fill="#252524"/>
          <path id="Path_20067" data-name="Path 20067" d="M517.908,334.847v.864a6.482,6.482,0,0,1-.771.062,1.589,1.589,0,0,1-1.758-1.789v-3.177H514.3v-.833h1.079V328h.987v1.974h1.542v.833h-1.542l-.031,2.992q0,1.11,1.018,1.11C517.477,334.909,517.662,334.878,517.908,334.847Z" transform="translate(-471.646 -326.918)" fill="#252524"/>
          <path id="Path_20068" data-name="Path 20068" d="M530.148,326.865a.626.626,0,0,1-.648-.617.65.65,0,0,1,1.3,0,.626.626,0,0,1-.652.617Zm.493,7.186h-.987v-5.737h.956v5.737Z" transform="translate(-482.158 -325.258)" fill="#252524"/>
          <path id="Path_20069" data-name="Path 20069" d="M541.261,334a2.86,2.86,0,0,1,2.1.833,3.215,3.215,0,0,1,0,4.318,2.86,2.86,0,0,1-2.1.833,2.993,2.993,0,1,1,0-5.984Zm0,.864a1.818,1.818,0,0,0-1.419.586,2.1,2.1,0,0,0-.555,1.542,2.227,2.227,0,0,0,.555,1.573,1.928,1.928,0,0,0,1.419.586,1.818,1.818,0,0,0,1.419-.586,2.227,2.227,0,0,0,.555-1.573,2.1,2.1,0,0,0-.555-1.542A1.909,1.909,0,0,0,541.261,334.864Z" transform="translate(-488.243 -331.067)" fill="#252524"/>
          <path id="Path_20070" data-name="Path 20070" d="M566.918,334.71a2.259,2.259,0,0,1,.617,1.7v3.516h-.987v-3.362a1.485,1.485,0,0,0-2.56-1.11,1.637,1.637,0,0,0-.432,1.141v3.331H562.6v-5.737h.925v.864a1.955,1.955,0,0,1,1.789-.956,2.027,2.027,0,0,1,1.6.613Z" transform="translate(-505.049 -331.13)" fill="#252524"/>
          <path id="Path_20071" data-name="Path 20071" d="M597.42,325.917a2.211,2.211,0,0,1,.833,1.7l-1.049.062a1.631,1.631,0,0,0-1.851-1.511c-1.172,0-1.82.586-1.82,1.45a1.013,1.013,0,0,0,.463.956,5.379,5.379,0,0,0,1.573.524,6.4,6.4,0,0,1,2.128.8,1.691,1.691,0,0,1,.8,1.573,2.109,2.109,0,0,1-.833,1.82,3.583,3.583,0,0,1-2.159.617,3.676,3.676,0,0,1-2.251-.648,2.278,2.278,0,0,1-.956-1.789l1.049-.062a1.472,1.472,0,0,0,.679,1.172,2.576,2.576,0,0,0,1.511.432c1.172,0,1.943-.463,1.943-1.45a1.039,1.039,0,0,0-.37-.864,1.384,1.384,0,0,0-.493-.278c-.216-.093-.432-.154-.586-.216s-.432-.123-.771-.216c-.463-.093-.8-.216-1.079-.278a5.131,5.131,0,0,1-.833-.4,1.729,1.729,0,0,1-.8-1.635,2.176,2.176,0,0,1,.74-1.7,2.993,2.993,0,0,1,2.128-.679,3.233,3.233,0,0,1,2,.62Z" transform="translate(-525.589 -325.05)" fill="#252524"/>
          <path id="Path_20072" data-name="Path 20072" d="M617.648,326.865a.626.626,0,0,1-.648-.617.651.651,0,1,1,.648.617Zm.463,7.186h-.956v-5.737h.956Z" transform="translate(-542.671 -325.258)" fill="#252524"/>
          <path id="Path_20073" data-name="Path 20073" d="M635.019,334.71a2.368,2.368,0,0,1,.586,1.7v3.516h-.956v-3.362a1.4,1.4,0,0,0-1.388-1.573,1.455,1.455,0,0,0-1.45,1.388v3.547h-.987v-3.362a1.4,1.4,0,0,0-2.436-1.11,1.637,1.637,0,0,0-.432,1.141v3.331H627v-5.737h.925v.864a1.806,1.806,0,0,1,1.758-.956,2.033,2.033,0,0,1,1.881,1.141,2.1,2.1,0,0,1,1.912-1.141,1.861,1.861,0,0,1,1.543.613Z" transform="translate(-549.587 -331.13)" fill="#252524"/>
          <path id="Path_20074" data-name="Path 20074" d="M666.135,334.8a2.959,2.959,0,0,1,.8,2.159,2.839,2.839,0,0,1-.8,2.159,2.561,2.561,0,0,1-1.974.8,2.272,2.272,0,0,1-2-.956V342.7H661.2v-8.6h.925v.956A2.246,2.246,0,0,1,664.161,334,2.723,2.723,0,0,1,666.135,334.8Zm-3.979,2v.339a1.769,1.769,0,0,0,1.851,1.974,2.14,2.14,0,0,0,0-4.256,1.759,1.759,0,0,0-1.851,1.95Z" transform="translate(-573.239 -331.067)" fill="#252524"/>
          <path id="Path_20075" data-name="Path 20075" d="M685.856,333.359H684.9V324.6h.956Z" transform="translate(-589.629 -324.566)" fill="#252524"/>
          <path id="Path_20076" data-name="Path 20076" d="M694.548,326.865a.626.626,0,0,1-.648-.617.651.651,0,1,1,.648.617Zm.463,7.186h-.956v-5.737h.956Z" transform="translate(-595.853 -325.258)" fill="#252524"/>
          <path id="Path_20077" data-name="Path 20077" d="M704.778,324.5v.833c-.123,0-.216-.031-.339-.031a1.119,1.119,0,0,0-1.172,1.234v.987h1.48v.833h-1.48v4.935h-.956v-4.9H701.2v-.833h1.11V326.6a1.928,1.928,0,0,1,2.036-2.1Zm1.6,1.6a.626.626,0,0,1-.648-.617.65.65,0,1,1,1.3,0,.626.626,0,0,1-.649.617Zm.494,7.186h-.956v-5.737h.956Z" transform="translate(-600.902 -324.497)" fill="#252524"/>
          <path id="Path_20078" data-name="Path 20078" d="M730.09,337.362h-4.441a1.726,1.726,0,0,0,1.789,1.758,1.507,1.507,0,0,0,1.6-1.018l.956.062a2.316,2.316,0,0,1-.864,1.3,2.73,2.73,0,0,1-1.666.493,2.838,2.838,0,0,1-2.066-.8,3.034,3.034,0,0,1-.8-2.19,2.794,2.794,0,0,1,.8-2.159,2.765,2.765,0,0,1,2.036-.8,2.38,2.38,0,0,1,1.912.771,2.918,2.918,0,0,1,.709,2.036v.555Zm-4.441-.8H729.1a1.563,1.563,0,0,0-1.665-1.7,1.676,1.676,0,0,0-1.786,1.7Z" transform="translate(-617.085 -331.067)" fill="#252524"/>
          <path id="Path_20079" data-name="Path 20079" d="M752.037,333.428h-.925V332.5a2.246,2.246,0,0,1-2.036,1.049,2.794,2.794,0,0,1-2-.8,2.99,2.99,0,0,1-.771-2.159,2.894,2.894,0,0,1,.771-2.159,2.628,2.628,0,0,1,2-.8,2.21,2.21,0,0,1,1.974.956V324.7h.956v8.728Zm-4.75-2.868a1.894,1.894,0,0,0,1.912,2.128,1.784,1.784,0,0,0,1.851-1.974v-.339a1.769,1.769,0,0,0-1.85-1.975,1.937,1.937,0,0,0-1.913,2.16Z" transform="translate(-632.092 -324.635)" fill="#252524"/>
        </g>
      </g>
      <g id="Group_12463" data-name="Group 12463" transform="translate(226.816)">
        <text id="TM" transform="translate(0 4)" fill="#252524" font-size="4" font-family="Sailec"><tspan x="0" y="0">TM</tspan></text>
      </g>
    </g>
  </g>
</svg>
