<svg xmlns="http://www.w3.org/2000/svg" xmlns:xlink="http://www.w3.org/1999/xlink" width="122" height="122" viewBox="0 0 122 122">
  <defs>
    <linearGradient id="linear-gradient" x1="-0.183" y1="0.385" x2="1" y2="1" gradientUnits="objectBoundingBox">
      <stop offset="0" stop-color="#3fa752"/>
      <stop offset="1" stop-color="#20e1ab"/>
    </linearGradient>
    <filter id="Ellipse_1326" x="0" y="0" width="122" height="122" filterUnits="userSpaceOnUse">
      <feOffset dy="3" input="SourceAlpha"/>
      <feGaussianBlur stdDeviation="3" result="blur"/>
      <feFlood flood-color="#2cdf91" flood-opacity="0.549"/>
      <feComposite operator="in" in2="blur"/>
      <feComposite in="SourceGraphic"/>
    </filter>
    <clipPath id="clip-path">
      <circle id="Ellipse_1325" data-name="Ellipse 1325" cx="31.5" cy="31.5" r="31.5" transform="translate(804 365)" fill="#fff" stroke="#707070" stroke-width="1"/>
    </clipPath>
  </defs>
  <g id="success-big" transform="translate(-774 -355)">
    <g transform="matrix(1, 0, 0, 1, 774, 355)" filter="url(#Ellipse_1326)">
      <circle id="Ellipse_1326-2" data-name="Ellipse 1326" cx="52" cy="52" r="52" transform="translate(9 6)" fill="url(#linear-gradient)"/>
    </g>
    <g id="Mask_Group_55" data-name="Mask Group 55" transform="translate(0 17)" clip-path="url(#clip-path)">
      <g id="Layer_2" data-name="Layer 2" transform="translate(785 346)">
        <g id="invisible_box" data-name="invisible box">
          <rect id="Rectangle_904" data-name="Rectangle 904" width="100" height="100" fill="none"/>
        </g>
        <g id="icons_Q2" data-name="icons Q2" transform="translate(4.167 4.166)">
          <path id="Path_12249" data-name="Path 12249" d="M47.833,10.334a37.5,37.5,0,1,1-37.5,37.5,37.5,37.5,0,0,1,37.5-37.5m0-8.333A45.625,45.625,0,1,0,80.3,15.363,45.833,45.833,0,0,0,47.833,2Z" transform="translate(-2 -2)" fill="#fff"/>
          <path id="Path_12250" data-name="Path 12250" d="M25.749,51.033l-12.5-12.292a4.375,4.375,0,0,1-.417-5.625,3.958,3.958,0,0,1,6.25-.417l9.583,9.583,26.25-26.25a4.167,4.167,0,0,1,5.833,5.833L31.582,51.033a3.958,3.958,0,0,1-5.833,0Z" transform="translate(8.834 12.3)" fill="#fff"/>
        </g>
      </g>
    </g>
  </g>
</svg>
