<svg xmlns="http://www.w3.org/2000/svg" xmlns:xlink="http://www.w3.org/1999/xlink" width="28" height="28" viewBox="0 0 28 28">
  <defs>
    <clipPath id="clip-path">
      <rect id="Rectangle_975" data-name="Rectangle 975" width="28" height="28" transform="translate(-14131 -5468)" fill="#fff" stroke="#707070" stroke-width="1"/>
    </clipPath>
    <linearGradient id="linear-gradient" x1="0.5" x2="0.5" y2="1" gradientUnits="objectBoundingBox">
      <stop offset="0" stop-color="#153288" stop-opacity="0.533"/>
      <stop offset="1" stop-color="#0b1944" stop-opacity="0.302"/>
    </linearGradient>
  </defs>
  <g id="alert" transform="translate(14131 5468)" clip-path="url(#clip-path)">
    <g id="notify" transform="translate(-13845.897 -6244.417)">
      <path id="Path_9277" data-name="Path 9277" d="M-261.382,793.7v.387a3.243,3.243,0,0,1-3.25,3.224h-12.221a3.237,3.237,0,0,1-3.25-3.224V793.7a3.218,3.218,0,0,1,1.247-2.544,2.6,2.6,0,0,0,1.07-2.034V786.7a7.24,7.24,0,0,1,7.276-7.28,7.031,7.031,0,0,1,4.744,2.048A6.917,6.917,0,0,1-263.7,786.4v2.72a2.6,2.6,0,0,0,1.068,2.034A3.215,3.215,0,0,1-261.382,793.7Z" transform="translate(0)" fill="url(#linear-gradient)"/>
      <path id="Path_9278" data-name="Path 9278" d="M-270.006,796.042a2.51,2.51,0,0,1-2.511,2.51,2.51,2.51,0,0,1-2.511-2.51" transform="translate(1.774 2.583)" fill="url(#linear-gradient)"/>
    </g>
  </g>
</svg>
