<svg xmlns="http://www.w3.org/2000/svg" xmlns:xlink="http://www.w3.org/1999/xlink" width="28" height="28" viewBox="0 0 28 28">
  <defs>
    <clipPath id="clip-path">
      <rect id="Rectangle_971" data-name="Rectangle 971" width="28" height="28" transform="translate(28.667 175.667)" fill="#fff"/>
    </clipPath>
    <linearGradient id="linear-gradient" x1="0.5" x2="0.5" y2="1" gradientUnits="objectBoundingBox">
      <stop offset="0" stop-color="#153288" stop-opacity="0.533"/>
      <stop offset="1" stop-color="#0b1944" stop-opacity="0.302"/>
    </linearGradient>
  </defs>
  <g id="Dashboard" transform="translate(-28.667 -175.667)" clip-path="url(#clip-path)">
    <g id="Group_5796" data-name="Group 5796" transform="translate(32.495 177.893)">
      <path id="Path_12364" data-name="Path 12364" d="M52.236,10.925a1.034,1.034,0,0,1,1.021,1.161A9.482,9.482,0,1,1,42.684,1.515a1.033,1.033,0,0,1,1.162,1.021V9.9a1.022,1.022,0,0,0,1.022,1.022Z" transform="translate(-34.365 1.895)" fill="url(#linear-gradient)"/>
      <path id="Path_12365" data-name="Path 12365" d="M52.7,8.362H45.328a1.022,1.022,0,0,1-1.022-1.021V-.027a1.034,1.034,0,0,1,1.162-1.021A9.484,9.484,0,0,1,53.716,7.2,1.033,1.033,0,0,1,52.7,8.362Z" transform="translate(-32.627 2.056)" fill="url(#linear-gradient)"/>
    </g>
  </g>
</svg>
